<svg xmlns="http://www.w3.org/2000/svg" xml:space="preserve" viewBox="-1 -1 568.929 116.145"><path fill="#FCFCFC" d="M82.587 54.496q0 .553-.766.766-.92.245-5.701.245-4.383 0-5.64-.245-1.042-.215-1.318-1.379-1.042-4.414-1.625-4.72-.49-.214-8.214-.214-5.21 0-5.548.275-.522.491-1.165 3.28-.582 2.544-1.41 2.759-1.042.245-6.989.245-4.689 0-4.689-.889 0-.797 6.927-19.586 7.51-20.322 8.153-22.345.367-1.165.858-1.165.828 0 2.56.153 1.731.154 2.59.153.828 0 2.437-.107a40 40 0 0 1 2.406-.107q.582 0 1.073 1.012 1.501 3.219 8.766 22.069 7.296 18.972 7.295 19.8M60.856 26.572q-.644 1.349-2.176 5.854-1.656 4.782-1.655 5.609 0 .552 1.839.613.95.063 3.126.062 2.023 0 2.238-.49.061-.154.061-.429 0-1.011-1.41-5.579-1.38-4.414-2.023-5.64"/><path fill="#9FCFFF" d="M70.179 56.73c-1.244-.195-2.267-1.336-2.477-2.504-.401-1.76-.81-3.068-1.042-3.666a44 44 0 0 0-1.461-.061c-1.344-.035-3.31-.054-5.876-.051-2.218-.013-3.863.052-4.599.111a6 6 0 0 0-.086.23c-.165.46-.36 1.155-.565 2.047-.214.921-.444 1.667-.771 2.311-.327.61-.76 1.283-1.759 1.575-1.11.234-3.293.271-7.33.286-2.46-.043-3.881-.066-5.139-.697-.409-.204-1.053-.806-1.051-1.692.025-.493.086-.563.165-.892.083-.286.193-.646.341-1.098.296-.904.732-2.168 1.312-3.807 1.157-3.277 2.892-8.043 5.203-14.311 4.999-13.528 7.735-21.032 8.129-22.276.156-.481.321-.898.621-1.312.271-.393.859-.902 1.667-.902.642 0 1.515.056 2.693.158 1.131.101 1.969.148 2.458.148s1.283-.033 2.337-.104c1.09-.072 1.91-.109 2.506-.109.646-.006 1.227.309 1.587.66.374.357.619.754.845 1.217 1.053 2.261 3.955 9.575 8.806 22.165 4.265 11.096 6.641 17.47 7.221 19.425.083.335.148.411.175.915a2.16 2.16 0 0 1-.631 1.527c-.389.385-.82.565-1.25.689-1.056.25-2.82.279-6.086.296-2.975-.007-4.825-.068-5.943-.278m10.684-2.843q-.067-.206-.153-.456c-.296-.874-.749-2.138-1.355-3.78-1.21-3.289-3.034-8.097-5.463-14.417-4.833-12.545-7.776-19.945-8.715-21.953a3 3 0 0 0-.083-.161c-.471.012-1.127.044-1.945.1a41 41 0 0 1-2.537.109c-.658 0-1.543-.053-2.724-.158a46 46 0 0 0-1.822-.131l-.034.104c-.462 1.449-3.162 8.841-8.175 22.408-3.604 9.77-5.811 15.927-6.573 18.312.644.089 1.644.146 2.929.145 3.354.012 5.656-.081 6.385-.161l.034-.063c.144-.278.341-.839.516-1.618.224-.964.438-1.745.662-2.378.249-.641.403-1.11.938-1.657l.049-.045.029-.022c.395-.294.565-.298.74-.357.168-.042.319-.066.485-.088.331-.043.719-.074 1.207-.099.968-.047 2.314-.07 4.066-.07 3.88 0 6.376.039 7.622.125.473.056.592-.002 1.192.214l.049.022.051.027c.639.384.75.717.95 1.042.17.329.314.693.467 1.129.298.871.614 2.031.968 3.529.047.197.093.236.093.238.004-.004 0 0 .053.014.569.122 2.479.224 5.353.218 2.235.009 3.918-.058 4.741-.122m-14.357-3.661.001-.001zm-7.693-10.078c-1.048-.095-1.737-.017-2.697-.771-.316-.271-.606-.82-.592-1.342.022-.687.193-1.233.475-2.24a96 96 0 0 1 1.26-3.853c1.034-3.03 1.749-4.974 2.243-6.016l1.291-2.705 1.392 2.653c.539 1.042 1.188 2.905 2.128 5.896.945 3.132 1.441 4.841 1.478 6.021a2.7 2.7 0 0 1-.189 1.032c-.514.98-1.208 1.083-1.718 1.229-.553.119-1.155.156-1.891.158-1.472 0-2.525-.019-3.18-.062m3.882-2.959c-.174-.828-.59-2.444-1.248-4.529q-.322-1.036-.606-1.896-.342.966-.744 2.153c-.655 1.867-1.114 3.336-1.361 4.226q.106.006.225.009c.563.037 1.595.06 3.03.058.266.003.505-.006.704-.021m-3.167-9.921 1.328-.697z"/><path fill="#FCFCFC" d="M117.99 11.767q0-.674-.246 2.023-.337 3.403-.521 8.705-.246 6.008-.245 13.671 0 12.659.705 18.023.061.583.061.735 0 .337-.459.399-1.104.153-8.123.153-1.656 0-1.9-.644-.062-1.164-.123-2.33a.93.93 0 0 0-.245-.49q-.184.092-.459.368-3.31 3.25-8.276 3.249-6.469 0-10.36-4.536-3.71-4.322-3.709-10.912 0-6.682 3.647-11.004 3.862-4.598 10.422-4.598 4.627 0 7.203 2.942.429.49.613.491.276 0 .276-.797 0-2.361-.123-7.05-.123-4.69-.123-7.019 0-.889.49-1.011 1.962-.092 5.395-.368 6.131-.765 5.425-.766.675 0 .675.766m-11.555 28.169q0-2.421-1.686-4.245t-4.077-1.824q-2.514 0-4 1.824t-1.487 4.368q0 2.483 1.502 4.199 1.533 1.839 3.985 1.839t4.107-1.839c1.654-1.839 1.656-2.666 1.656-4.322"/><path fill="#9FCFFF" d="M86.66 52.069c-2.73-3.168-4.08-7.219-4.072-11.888-.008-4.721 1.313-8.795 4-11.969 2.834-3.408 6.853-5.155 11.571-5.133 2.502-.014 4.754.611 6.571 1.873a417 417 0 0 0-.103-4.749c-.083-3.132-.124-5.48-.124-7.057.004-.432.045-.867.273-1.353.208-.481.759-.987 1.354-1.114l.146-.037.146-.006c1.279-.06 3.067-.183 5.345-.366 3.046-.378 4.922-.642 5.188-.695l.027-.006.186.794q.066-.04.145-.076V9.5c.489-.014 1.18.175 1.632.701.365.423.495.889.531 1.296l.005.054c.006.095.006.15.006.216h-.808l-.03.048.723.159.059.008a10 10 0 0 0-.043.35q-.055.515-.154 1.605c-.22 2.22-.393 5.096-.514 8.617q-.246 5.972-.245 13.61c-.002 8.407.239 14.393.697 17.869.041.416.065.629.067.89.023.444-.216 1.067-.631 1.402-.405.341-.804.436-1.122.483-.999.127-3.602.162-8.327.167-.65-.002-1.217-.052-1.784-.241-.543-.173-1.223-.592-1.52-1.369l-.082-.22-.012-.234-.002-.032c-2.175 1.5-4.765 2.261-7.604 2.25h-.083c-4.618.001-8.575-1.721-11.412-5.06m2.222-21.925c-2.175 2.588-3.285 5.848-3.293 10.037.008 4.118 1.13 7.341 3.346 9.935 2.337 2.693 5.256 3.992 9.224 4.013 2.986-.014 5.281-.929 7.215-2.81.249-.24.467-.448.851-.649l1.036-.516.762.872c.28.319.537.754.603 1.291l.008.056.002.053.081 1.534q.186.018.445.018c3.327.003 5.715-.031 6.973-.079-.445-3.747-.657-9.62-.659-17.732q.002-7.688.247-13.723.185-5.33.526-8.788l.089-.952-.122.017q-1.392.192-4.142.536l-.021.002-.045.004q-2.694.216-4.502.322c.006 1.521.045 3.707.12 6.542.082 3.134.124 5.492.124 7.089-.064.532.109.97-.615 1.828-.265.273-.75.483-1.162.468-.731-.041-.954-.3-1.182-.45a4.4 4.4 0 0 1-.559-.551c-1.423-1.603-3.295-2.411-6.074-2.43-4.03.022-6.959 1.338-9.276 4.063m28.104-17.388.15-.169zm2.243-.296-.709-.468zm.154-.304-.77-.282zm-2.253-1.766q0-.001 0 0l-.301-.771zM95.559 45.246c-1.25-1.412-1.885-3.235-1.875-5.188-.008-1.984.608-3.836 1.825-5.316 1.24-1.558 3.128-2.398 5.162-2.376 1.981-.017 3.83.82 5.178 2.306 1.357 1.449 2.097 3.297 2.086 5.265a7.78 7.78 0 0 1-2.041 5.324 6.83 6.83 0 0 1-5.223 2.335h-.078c-1.978 0-3.815-.852-5.034-2.35m2.275-8.608c-.767.954-1.141 2.014-1.149 3.42.01 1.356.376 2.335 1.153 3.24.785.904 1.572 1.274 2.833 1.299 1.258-.021 2.121-.405 2.993-1.342.87-.984 1.258-1.998 1.271-3.317-.012-1.264-.396-2.247-1.287-3.228-.9-.945-1.768-1.326-2.977-1.342-1.318.022-2.097.398-2.837 1.27"/><path fill="#FCFCFC" d="M152.014 33.99q0 5.241-.337 6.191-.705 2.177-4.23 7.387-3.065 4.475-5.241 6.988-.798.95-4.813.95-3.495 0-4.536-.245a2.1 2.1 0 0 1-1.073-.613q-1.839-1.992-5.242-6.927-3.647-5.303-4.353-7.265-.766-2.115-.766-6.345 0-1.195.031-3.602.03-2.406.03-3.632 0-.797 1.073-.797 1.563 0 4.705.092t4.705.092q.705 0 .705.95 0 .858-.123 2.59t-.123 2.621q0 3.188.184 5.211.091 1.043 1.777 3.923 1.747 3.035 2.544 3.035.766 0 2.452-2.974 1.624-2.788 1.747-3.801.245-2.176.245-5.272 0-.888-.184-2.682t-.184-2.651q0-.95.644-.95.736 0 2.191.03 1.456.031 2.192.031.734 0 2.222-.123t2.222-.123q.766 0 1.011.797.526 1.75.525 7.114"/><path fill="#9FCFFF" d="M132.509 56.719a3.6 3.6 0 0 1-1.828-1.054c-1.324-1.437-3.085-3.772-5.375-7.094-2.46-3.593-3.93-5.986-4.528-7.604-.61-1.708-.849-3.942-.855-6.855q0-1.213.031-3.622a298 298 0 0 0 .031-3.613c-.029-.584.275-1.386.874-1.801.58-.417 1.166-.489 1.7-.496 1.069 0 2.646.031 4.749.093 2.086.062 3.646.092 4.66.092.555-.029 1.334.265 1.733.843.403.559.467 1.114.473 1.607 0 .64-.043 1.521-.125 2.695a38 38 0 0 0-.12 2.514c0 2.097.06 3.796.177 5.081-.035.109.481 1.476 1.585 3.305.47.84.915 1.489 1.23 1.897.305-.4.706-1.021 1.169-1.842 1.057-1.766 1.577-3.087 1.554-3.215.154-1.373.237-3.079.237-5.104 0-.493-.058-1.36-.177-2.528-.125-1.225-.191-2.131-.191-2.804.006-.479.056-.997.417-1.554.354-.578 1.153-.933 1.725-.896.51 0 1.248.01 2.224.029.964.023 1.688.031 2.161.031.411 0 1.128-.037 2.099-.117 1.013-.082 1.776-.127 2.345-.127 1.071-.092 2.253.888 2.448 1.869.438 1.523.574 3.893.584 7.54 0 1.764-.027 3.174-.086 4.251-.072 1.1-.115 1.766-.323 2.403-.59 1.772-2.035 4.23-4.419 7.772-2.064 3.014-3.835 5.379-5.33 7.106-.697.777-1.515 1.014-2.46 1.219-.956.187-2.103.265-3.5.267-2.394-.008-3.882-.063-4.889-.288m8.564-3.147c1.391-1.607 3.113-3.898 5.13-6.844 2.318-3.412 3.694-5.879 4.06-7.048.006-.002.127-.639.168-1.604.054-.986.083-2.355.083-4.086.009-3.174-.164-5.417-.384-6.402-.422.015-1.013.051-1.748.11-1.015.084-1.776.127-2.345.127-.51 0-1.248-.008-2.224-.029q-.738-.015-1.288-.023c.024.485.077 1.141.159 1.941.125 1.223.193 2.144.193 2.834 0 2.105-.083 3.912-.257 5.454-.185 1.207-.83 2.421-1.93 4.36-.588 1.034-1.102 1.831-1.605 2.444-.539.563-.907 1.18-2.152 1.289-1.237-.104-1.632-.719-2.185-1.295-.518-.623-1.05-1.435-1.655-2.481-1.151-2.022-1.817-3.271-1.975-4.545-.129-1.42-.191-3.192-.191-5.348 0-.658.043-1.552.127-2.726.056-.794.092-1.447.109-1.939-1.006-.011-2.317-.04-3.944-.088a198 198 0 0 0-4.236-.091q-.006 1.148-.029 2.948a298 298 0 0 0-.031 3.583c-.006 2.724.265 4.719.678 5.835.341.995 1.772 3.445 4.177 6.921 2.245 3.26 3.979 5.544 5.102 6.757a.6.6 0 0 0 .321.175c.384.104 1.92.213 4.193.206 2.075.036 3.46-.293 3.679-.435"/><path fill="#FCFCFC" d="M184.259 38.618q0 3.096-1.992 3.525-.338.062-6.345.674-3.616.398-10.789.95.429 1.993 2.605 3.034 1.777.858 4.046.858 2.727 0 5.486-1.471l2.33-1.471q.643.307 2.161 3.126 1.517 2.82 1.517 3.586 0 .215-.459.705-3.74 4.015-11.617 4.015-7.295 0-11.77-4.26-4.598-4.321-4.598-11.556 0-7.05 4.107-11.556 4.23-4.659 11.219-4.659 5.885 0 9.992 4.292c4.107 4.292 4.107 6.265 4.107 10.208m-10.728-1.87q0-1.9-1.349-3.341-1.349-1.44-3.218-1.44-1.932 0-3.188 1.625-1.165 1.502-1.165 3.525 0 .828.858.828 2.268 0 7.05-.705 1.012-.155 1.012-.492"/><path fill="#9FCFFF" d="M158.404 52.984c-3.39-3.167-5.088-7.518-5.071-12.648-.01-4.985 1.484-9.273 4.496-12.564 3.092-3.431 7.345-5.17 12.33-5.151 4.291-.017 8.102 1.622 11.076 4.755 2.987 3.1 4.537 6.952 4.524 11.245-.004 1.188-.179 2.243-.692 3.166-.502.927-1.452 1.622-2.533 1.833-.199.034-.732.095-1.65.193.314.286.521.602.811.989.411.596.863 1.363 1.386 2.333.52.966.917 1.766 1.198 2.432.275.691.473 1.151.498 1.865-.025.606-.22.861-.358 1.104a5 5 0 0 1-.503.623c-2.874 3.085-7.232 4.5-12.714 4.494h-.061c-5.12-.003-9.477-1.553-12.737-4.669m1.645-23.195c-2.463 2.714-3.704 6.128-3.714 10.546.014 4.514 1.381 7.865 4.13 10.468 2.687 2.545 6.154 3.836 10.737 3.848 4.986-.008 8.36-1.251 10.48-3.496a8 8 0 0 0-.165-.42c-.224-.528-.586-1.267-1.077-2.181a21 21 0 0 0-1.11-1.892l-1.258.794-.049.031-.047.024c-2.017 1.08-4.101 1.649-6.192 1.649-1.7 0-3.287-.325-4.693-1.005-1.75-.81-3.055-2.259-3.425-4.072l-.36-1.68 1.712-.131c4.771-.368 8.358-.683 10.751-.948 3.959-.401 6.208-.647 6.182-.647.296-.084.341-.119.504-.368.15-.25.308-.816.304-1.689-.013-3.596-1.201-6.55-3.69-9.171-2.504-2.59-5.353-3.811-8.91-3.828-4.334.018-7.559 1.383-10.11 4.168m21.728 21.69q.001 0 0 0m-13.386-6.029c.958.462 2.066.709 3.392.711 1.529-.002 3.087-.402 4.728-1.267l1.189-.751-1.614.166c-2 .221-4.781.473-8.354.759q.28.192.659.382m-4.607-6.634c-.524-.504-.681-1.186-.674-1.7-.006-1.634.496-3.187 1.48-4.442 1.04-1.39 2.656-2.232 4.375-2.208 1.636-.016 3.192.693 4.313 1.916 1.13 1.192 1.766 2.74 1.753 4.366-.019.973-.744 1.493-1.098 1.641-.409.193-.769.265-1.196.335-3.226.473-5.608.718-7.267.72h-.023c-.507-.001-1.149-.136-1.663-.628m3.176-4.306a3.93 3.93 0 0 0-.802 1.919c1.331-.055 3.268-.258 5.745-.617-.14-.486-.399-.922-.817-1.381-.678-.697-1.269-.948-2.122-.964-.857.025-1.367.265-2.004 1.043"/><path fill="#FCFCFC" d="M218.098 54.373q0 .828-.858.95t-4.475.123q-3.862 0-4.782-.184t-.919-1.257q0-1.44.092-4.353t.092-4.383q0-1.134-.061-3.387a131 131 0 0 1-.062-3.387q0-4.199-3.647-4.199-1.196 0-2.789 1.042-1.717 1.165-1.717 2.299v16.552q0 1.012-.95 1.134-1.072.122-4.383.123-3.587 0-4.659-.184-.95-.153-.95-1.012 0-2.391.031-7.203.03-4.812.03-7.233 0-7.632-1.195-11.985a2.2 2.2 0 0 1-.061-.46q0-.49.459-.674 1.932-.215 5.149-.674 4.873-.95 5.487-.95.337 0 .521 2.069c.184 2.069.296 2.069.521 2.069q-.337 0 3.295-2.13c3.632-2.13 4.541-2.13 6.36-2.13q3.892 0 6.498 1.839 2.912 2.115 2.912 5.885v9.778q0 1.993.031 5.962.03 3.968.03 5.96"/><path fill="#9FCFFF" d="M207.688 56.732c-.573-.103-1.21-.438-1.605-.991-.4-.549-.52-1.174-.52-1.737 0-.988.031-2.448.093-4.398.062-1.932.092-3.386.092-4.335 0-.729-.021-1.852-.062-3.346a137 137 0 0 1-.062-3.429c0-1.198-.27-1.86-.545-2.167-.271-.298-.654-.518-1.603-.532-.352-.01-1.046.189-1.947.783-.481.325-.785.619-.927.814-.148.201-.129.243-.131.245V54.19c.002.559-.138 1.215-.588 1.753-.448.541-1.106.804-1.694.872-.861.095-2.316.129-4.551.132-2.436-.004-3.967-.052-4.898-.204-.524-.083-1.108-.296-1.568-.783-.464-.483-.653-1.159-.643-1.708 0-1.602.01-4.002.031-7.213q.031-4.811.031-7.225c.002-5.007-.401-8.898-1.143-11.587l-.008-.031-.011-.039a3.8 3.8 0 0 1-.096-.788c-.076-.808.633-1.842 1.402-2.065l.191-.078.202-.021c1.261-.14 2.964-.363 5.1-.669 3.279-.628 4.887-.94 5.702-.964a1.68 1.68 0 0 1 1.457.88c.167.293.23.522.296.771.105.425.175.907.235 1.507q.674-.406 1.591-.943c2.561-1.497 4.902-2.331 7.118-2.337 2.826-.004 5.334.678 7.379 2.125 2.31 1.64 3.562 4.204 3.531 7.1v9.778c0 1.319.01 3.305.031 5.949q.031 3.972.031 5.975c.006.522-.154 1.166-.602 1.655-.442.491-1.036.711-1.546.779-.792.107-2.236.134-4.685.138-2.63-.012-4.159-.047-5.078-.217m5.077-2.785c1.82.003 3.152-.029 3.831-.07q-.004-1.957-.028-5.453a908 908 0 0 1-.033-5.973v-9.778c-.031-2.131-.72-3.492-2.275-4.66-1.445-1.018-3.269-1.562-5.634-1.564-1.422-.008-3.318.58-5.602 1.924-1.782 1.036-2.915 1.759-3.027 1.866l-.612-.752-.393-.294h1.449-1.47v1.515c-.122-.005-.289.002-.556-.103a1.6 1.6 0 0 1-.245-.111 1.75 1.75 0 0 1-.656-.664 3 3 0 0 1-.296-.773c-.121-.487-.195-1.052-.261-1.784a12 12 0 0 0-.056-.554q-.183.03-.394.067c-.896.156-2.159.393-3.778.707l-.037.006-.037.006a213 213 0 0 1-4.151.558c.74 3.032 1.084 6.925 1.086 11.75q0 2.432-.031 7.244-.028 4.397-.031 6.767c.686.071 2.119.126 4.111.123 1.805 0 3.123-.033 3.832-.08V37.638c.041-1.587 1.089-2.658 2.396-3.556 1.203-.779 2.368-1.276 3.61-1.287 1.482-.015 2.923.466 3.868 1.566.941 1.095 1.279 2.532 1.279 4.133 0 .732.021 1.852.062 3.347.041 1.509.062 2.646.062 3.428 0 1.009-.031 2.479-.092 4.43-.058 1.816-.087 3.2-.09 4.132.633.063 2.124.122 4.199.116m-13.794-24.786.136-.253z"/><path fill="#FCFCFC" d="M243.723 46.281q0 .92-.23 2.79c-.23 1.87-.23 2.161-.23 2.743s-.061.956-.184 1.119q-.184.245-1.012.705-3.955 2.176-8.766 2.176-8.858 0-8.858-6.774 0-2.023.153-6.084t.153-6.084q0-1.349-1.563-1.349h-.398a4 4 0 0 1-.398.031q-1.165 0-1.165-.828 0-.49.077-1.502a22 22 0 0 0 .077-1.502q0-.644-.077-1.961a37 37 0 0 1-.077-1.962q0-.612 1.962-.674 1.104-.03 1.195-.613.184-1.164.123-3.678a414 414 0 0 0-.123-3.77q0-3.556.674-3.556.827 0 2.36.368 1.748.399 2.421.46 1.563.215 4.72.582.767.063.767.521 0 1.226-.199 3.708-.2 2.483-.199 3.74 0 1.502.889 1.502 1.073 0 3.249-.092a85 85 0 0 1 3.28-.092q.674 0 .674.46 0 .705-.153 2.115-.154 1.41-.153 2.115 0 .736.031 2.146.03 1.41.031 2.146 0 .644-.889.644-.613 0-2.054-.046c-1.441-.046-1.645-.046-2.053-.046h-2.299q-.46 0-.46 1.349v2.176q.03 1.472.031 2.176 0 2.575.582 3.556.828 1.318 3.249 1.318.767 0 2.192-.353t2.008-.353q.641-.001.642.673"/><path fill="#9FCFFF" d="M233.302 57.313c-3.133-.004-5.678-.58-7.557-2.002-1.893-1.423-2.826-3.707-2.804-6.272.002-1.385.053-3.422.156-6.14.097-2.596.148-4.561.152-5.875l-.063-.001h-.328a5 5 0 0 1-.47.031c-.557-.008-1.147-.076-1.741-.485-.615-.403-.954-1.231-.923-1.844 0-.401.029-.921.081-1.614.049-.656.074-1.137.072-1.39 0-.372-.022-1.011-.074-1.875a39 39 0 0 1-.078-2.048c-.014-.514.259-1.064.58-1.35a2.4 2.4 0 0 1 .923-.545c.539-.178 1.081-.241 1.742-.272.031-.429.05-.978.049-1.625 0-.349-.004-.731-.013-1.126a757 757 0 0 0-.117-3.659l-.002-.026-.005-.132h-.001c.043-1.893.024-2.96.578-4.076.177-.362.748-.98 1.597-.979.767.002 1.624.15 2.695.403 1.13.261 1.93.407 2.224.43l.039.004.029.004c1.021.14 2.59.333 4.637.574.399.039.82.104 1.295.415.489.288.884 1.026.849 1.602 0 .894-.07 2.15-.204 3.827-.131 1.631-.195 2.853-.193 3.616.65-.012 1.512-.04 2.573-.084a85 85 0 0 1 3.343-.092c.388.006.841.039 1.351.374.532.325.859 1.077.824 1.585-.002.573-.058 1.307-.163 2.277-.099.909-.146 1.585-.144 1.953 0 .468.011 1.178.031 2.113.019.946.031 1.665.031 2.177.029.542-.275 1.317-.843 1.698-.551.384-1.079.44-1.546.446-.444 0-1.133-.016-2.103-.047a71 71 0 0 0-2.004-.045h-1.26v1.994c.021.986.031 1.716.031 2.208-.021 1.595.243 2.633.354 2.756.158.266.586.601 1.978.617.29.004.948-.086 1.832-.308 1.011-.243 1.702-.386 2.368-.397.456-.008 1.1.138 1.568.633.467.493.578 1.096.576 1.542-.002.731-.084 1.693-.241 2.972-.152 1.215-.222 2.101-.22 2.562-.047.707.055 1.167-.483 2.016-.485.582-.859.742-1.488 1.121-2.857 1.575-6.049 2.362-9.475 2.362q-.009-.004-.015-.003m-10.515-23.292h.399c.721.002 1.497.146 2.152.703.662.557.927 1.428.911 2.146 0 1.385-.052 3.422-.154 6.142-.103 2.697-.152 4.713-.152 6.027.025 1.951.565 3.055 1.626 3.889 1.075.834 2.96 1.39 5.733 1.384 2.982-.002 5.63-.664 8.037-1.986.168-.093.311-.179.417-.247q.006-.112.007-.265c.002-.708.084-1.649.24-2.927.079-.64.136-1.192.172-1.644-.219.045-.47.102-.743.171-1.018.247-1.819.393-2.553.397-1.835.014-3.573-.526-4.539-2.054-.646-1.151-.771-2.485-.792-4.321 0-.448-.01-1.169-.031-2.177v-2.175c.063-.808-.074-1.41.709-2.337.286-.298.802-.526 1.25-.512h2.3c.442 0 1.13.016 2.101.045q.84.027 1.388.039-.008-.534-.023-1.25c-.021-.946-.031-1.667-.031-2.177 0-.574.056-1.31.161-2.278q.055-.5.088-.902-.936.02-2.333.08a84 84 0 0 1-3.313.092c-.719.045-1.62-.454-1.957-1.11-.362-.639-.423-1.246-.432-1.891.002-.913.07-2.183.204-3.858a73 73 0 0 0 .174-2.689c-1.797-.211-3.17-.381-4.131-.513-.604-.062-1.411-.223-2.606-.492a16 16 0 0 0-1.104-.231 19 19 0 0 0-.081 1.915l.002.033.006.187.024.711c.021.633.049 1.577.091 2.851q.013.636.014 1.207c-.002 1.131-.045 2.017-.156 2.738-.08.672-.625 1.313-1.141 1.546-.521.257-.997.314-1.488.333a6 6 0 0 0-.487.026q.018.44.051 1.024c.051.894.08 1.562.08 2.047-.002.403-.029.921-.082 1.616q-.03.385-.046.685h.038zm.436-14.015c.129.156.479.53 1.157.547v-1.491h-.03l-1.409.416c.041.086.017.172.282.528m2.212.115c.276-.282.358-.543.399-.699.047-.209.05-.316.047-.386v.026h-1.493zm-1.124-1.057.018-.001h-.008z"/><path fill="#FCFCFC" d="M278.481 27.4q0 2.27-.215 6.805-.214 4.536-.214 6.805 0 2.206.153 6.621t.153 6.59q0 .828-.766 1.042-1.165.306-4.935.307-3.341 0-4.659-.184-.583-.092-.736-.735l-.184-1.839q-.153-1.41-.429-1.41.428 0-3.096 2.084t-6.406 2.084q-8.124 0-9.625-7.326-.675-3.403-.675-9.87 0-6.989 1.134-11.034.338-1.257 1.257-1.257 1.409 0 4.291.031 2.88.03 4.292.03.95 0 .95.797 0 .214-.062.644a55.4 55.4 0 0 0-.644 8.46q0 5.333.337 7.295.551 3.372 4.016 3.372 1.349 0 2.927-1.195c1.578-1.195 1.599-1.625 1.64-2.483q.062-1.134.062-15.387 0-1.011.153-1.195.184-.306 1.103-.307 1.501 0 4.521.031t4.521.031q.919 0 1.073.46.063.242.063.733"/><path fill="#9FCFFF" d="M267.765 56.865c-.952-.082-1.842-1.042-1.961-1.871l-.024-.096-.01-.101-.083-.845q-.593.364-1.368.823c-2.502 1.476-4.882 2.29-7.17 2.294-2.925.002-5.439-.664-7.377-2.14-1.94-1.47-3.174-3.692-3.718-6.395-.483-2.442-.701-5.794-.705-10.163.004-4.74.378-8.526 1.186-11.422.158-.578.401-1.139.872-1.614.46-.483 1.188-.769 1.835-.754.95 0 2.382.01 4.307.031q2.877.031 4.275.031c.512.002 1.12.095 1.675.551.565.457.792 1.203.775 1.746a6.5 6.5 0 0 1-.08.874 54 54 0 0 0-.625 8.23c-.004 3.513.119 5.934.316 7.052.15.888.434 1.342.765 1.622.333.279.847.487 1.772.491.44.006 1.125-.21 2.021-.89.876-.668 1.044-1.133 1.048-1.369.035-.623.06-5.832.058-15.306.002-.376.015-.69.051-.995.062-.278.032-.514.32-.97l-.003-.002c.37-.592.882-.795 1.251-.902.391-.107.747-.13 1.139-.132q1.512 0 4.537.031c2.008.021 3.513.031 4.505.031.43.002.851.041 1.318.236.458.177.991.645 1.176 1.248l.021.06.014.056c.088.378.101.701.105 1.096 0 1.558-.074 3.837-.216 6.875-.144 3.011-.214 5.267-.214 6.734 0 1.437.051 3.636.152 6.567.103 2.954.154 5.16.154 6.644.004.5-.123 1.075-.483 1.563-.355.489-.888.792-1.402.929-1.11.277-2.74.347-5.315.357-2.265-.005-3.833-.059-4.894-.205m9.093-2.982c-.007-1.418-.059-3.492-.151-6.202-.103-2.952-.154-5.169-.154-6.672 0-1.558.072-3.84.216-6.875.132-2.811.204-4.963.211-6.43q-1.495-.003-4.168-.031a497 497 0 0 0-4.263-.03v.001c-.002 9.53-.019 14.58-.063 15.46-.078 1.488-1.003 2.681-2.232 3.607-1.208.913-2.477 1.492-3.832 1.499-1.388.004-2.697-.347-3.702-1.194-1.007-.843-1.577-2.074-1.792-3.422-.255-1.511-.355-3.953-.359-7.55 0-2.843.206-5.649.619-8.402q-1.371-.005-3.671-.03a450 450 0 0 0-4.037-.03 2 2 0 0 0-.049.162c-.701 2.483-1.081 6.053-1.079 10.629-.002 4.257.228 7.482.644 9.569.458 2.191 1.33 3.632 2.596 4.602 1.27.968 3.067 1.523 5.56 1.525 1.552.004 3.443-.571 5.641-1.875 1.569-.921 2.618-1.607 2.789-1.747l.023-.021.387.439.581.558h.081V49.9q.048 0 .093.004c.118.004.275.018.509.115q.061.025.117.053a1.63 1.63 0 0 1 .643.56c.185.275.252.481.318.685.119.401.181.81.241 1.344l.13 1.293c.831.073 2.178.117 3.957.115 2.018.007 3.502-.083 4.196-.186m-10.296-2.246.087-.165v-.002z"/><path fill="#FCFCFC" d="M303.861 36.166q0 1.195-1.318 1.195-.582 0-1.701-.077a27 27 0 0 0-1.67-.077q-2.544 0-3.464.797-.92.798-.92 3.218 0 1.318.047 4 .045 2.683.046 4 0 .89.122 2.651.123 1.763.123 2.621 0 .735-1.012.828-1.47.122-4.506.123-2.911 0-4.659-.184-1.011-.122-1.011-1.012 0-2.451.031-7.341.03-4.889.03-7.341 0-7.203-1.318-11.862a2.2 2.2 0 0 1-.061-.46q0-.459.459-.613 1.686-.184 4.935-.674 4.843-.95 4.996-.95.552 0 .705 1.931.153 1.93.552 1.931-.429 0 2.514-1.609 2.942-1.61 5.67-1.609 1.717 0 1.717.736 0 .889-.184 2.513-.184 1.747-.215 2.514 0 .889.03 2.36.062 1.809.062 2.391"/><path fill="#9FCFFF" d="M284.769 56.751c-.54-.066-1.148-.255-1.641-.742-.497-.486-.703-1.191-.69-1.758q0-2.46.031-7.35.029-4.889.029-7.332c.002-4.711-.435-8.543-1.262-11.456l-.01-.037-.01-.043a3.7 3.7 0 0 1-.097-.787c-.089-.833.726-1.882 1.484-2.035l.148-.051.165-.019c1.078-.117 2.694-.337 4.823-.659a473 473 0 0 1 4.636-.892c.297-.043.22-.06.635-.082.546-.013 1.082.291 1.346.596.28.307.41.595.516.872.161.452.244.914.303 1.459q.4-.225.886-.49c2.13-1.165 4.273-1.793 6.392-1.793.681.008 1.26.051 1.878.305.604.188 1.388 1.035 1.338 1.932 0 .692-.068 1.566-.191 2.671a45 45 0 0 0-.206 2.356c0 .575.008 1.354.028 2.309.041 1.214.062 2.01.062 2.442.013.653-.208 1.459-.82 2.007-.609.544-1.348.688-1.997.687-.451 0-1.039-.027-1.804-.081a27 27 0 0 0-1.566-.072c-1.55-.025-2.424.321-2.481.431-.047.002-.427.631-.403 2.084 0 .863.016 2.191.047 3.976.029 1.793.046 3.131.046 4.025 0 .528.037 1.392.119 2.545.082 1.196.126 2.086.126 2.727.022.579-.272 1.327-.804 1.735-.52.413-1.064.534-1.586.587-1.059.087-2.582.126-4.627.126-1.979.001-3.571-.059-4.843-.193m4.839-2.805c1.747 0 3.098-.031 4.004-.089a67 67 0 0 0-.106-1.877c-.084-1.195-.125-2.098-.125-2.756 0-.861-.017-2.191-.046-3.974-.03-1.793-.047-3.131-.049-4.027.024-1.773.259-3.261 1.438-4.351 1.168-.953 2.603-1.138 4.447-1.163.434 0 1.006.027 1.772.08.603.042 1.082.064 1.413.07-.007-.424-.026-1.115-.059-2.053a98 98 0 0 1-.028-2.453c.022-.577.097-1.428.223-2.62a35 35 0 0 0 .146-1.581 4 4 0 0 0-.188-.002c-1.521.002-3.157.447-4.952 1.429-1.278.69-2.115 1.202-2.229 1.298l-.351-.451.41.396-1.014-.979h1.394-1.443v1.527q-.076 0-.148-.007a1.7 1.7 0 0 1-.56-.153.8.8 0 0 1-.204-.113 1.7 1.7 0 0 1-.502-.487 2.8 2.8 0 0 1-.366-.81c-.139-.499-.209-1.043-.267-1.741a6 6 0 0 0-.036-.38l-.219.042q-1.241.235-3.663.711l-.035.006-.028.004c-1.581.239-2.887.424-3.927.556.803 3.172 1.186 7.017 1.186 11.572 0 1.641-.009 4.087-.029 7.35q-.029 4.457-.03 6.883c1.05.092 2.449.143 4.171.143m5.662-24.069"/><path fill="#FCFCFC" d="M335.524 38.618q0 3.096-1.993 3.525-.337.062-6.345.674-3.617.398-10.789.95.429 1.993 2.605 3.034 1.777.858 4.046.858 2.727 0 5.486-1.471l2.33-1.471q.643.307 2.16 3.126t1.518 3.586q0 .215-.46.705-3.74 4.015-11.616 4.015-7.295 0-11.771-4.26-4.598-4.321-4.598-11.556 0-7.05 4.107-11.556 4.23-4.659 11.218-4.659 5.885 0 9.993 4.292 4.109 4.293 4.109 10.208m-10.729-1.87q0-1.9-1.349-3.341-1.35-1.44-3.219-1.44-1.93 0-3.188 1.625-1.165 1.502-1.165 3.525 0 .828.858.828 2.268 0 7.05-.705 1.013-.155 1.013-.492"/><path fill="#9FCFFF" d="M309.668 52.983c-3.391-3.166-5.088-7.517-5.071-12.647-.01-4.984 1.483-9.273 4.496-12.565 3.091-3.431 7.345-5.168 12.329-5.15 4.291-.019 8.103 1.622 11.077 4.754 2.984 3.1 4.536 6.95 4.523 11.243-.004 1.189-.178 2.245-.693 3.167-.501.927-1.452 1.622-2.53 1.833-.199.034-.733.095-1.65.193.313.286.521.602.811.989.411.596.864 1.363 1.386 2.334.52.966.915 1.765 1.198 2.431.273.691.474 1.15.496 1.866-.022.606-.219.861-.357 1.103a4.5 4.5 0 0 1-.503.623c-2.874 3.085-7.231 4.5-12.714 4.494h-.051c-5.126 0-9.484-1.548-12.747-4.668m1.646-23.194c-2.463 2.715-3.706 6.128-3.717 10.546.017 4.512 1.383 7.866 4.132 10.469 2.686 2.542 6.155 3.833 10.736 3.846 4.986-.006 8.361-1.25 10.48-3.497a7 7 0 0 0-.167-.417c-.221-.53-.583-1.266-1.075-2.183a21 21 0 0 0-1.11-1.891l-1.259.795-.048.031-.048.025c-2.017 1.078-4.101 1.649-6.19 1.647-1.7.002-3.289-.325-4.694-1.005-1.748-.809-3.056-2.257-3.424-4.072l-.362-1.678 1.713-.132c4.771-.368 8.359-.683 10.753-.948 3.958-.401 6.209-.647 6.18-.647.296-.085.342-.12.505-.368.149-.252.309-.815.305-1.69-.013-3.596-1.202-6.548-3.691-9.17-2.503-2.59-5.353-3.811-8.909-3.828-4.334.015-7.561 1.383-10.11 4.167m8.34 15.66c.958.464 2.068.71 3.395.71 1.527 0 3.08-.4 4.719-1.261l1.198-.756-1.615.166c-2.001.221-4.782.473-8.355.76q.28.193.658.381m-4.606-6.632c-.523-.503-.681-1.186-.675-1.701-.006-1.635.496-3.187 1.479-4.442 1.041-1.39 2.656-2.232 4.374-2.208 1.636-.017 3.192.693 4.313 1.916 1.132 1.191 1.767 2.741 1.753 4.365-.017.973-.743 1.492-1.097 1.641-.41.192-.771.265-1.194.335-3.228.474-5.611.718-7.269.72h-.022c-.504.001-1.149-.133-1.662-.626m3.176-4.306a3.93 3.93 0 0 0-.803 1.917c1.33-.054 3.269-.258 5.746-.617-.139-.486-.398-.922-.816-1.379-.678-.697-1.27-.95-2.124-.966-.856.027-1.366.267-2.003 1.045"/><path fill="#FCFCFC" d="M395.141 54.281q.061.828-.858.828-.583 0-3.356-.674-2.774-.674-3.417-.919-6.406 2.514-12.292 2.513-9.47 0-15.54-6.314-6.008-6.222-6.008-15.724 0-9.717 5.824-16.123 6.007-6.621 15.602-6.621 4.657 0 8.767 1.778 4.443 1.962 6.988 5.517.52.736.521 1.042 0 .981-2.743 4.398-2.744 3.418-3.54 3.417-.184 0-1.41-1.257-1.501-1.501-3.064-2.329-2.332-1.257-5.149-1.257-4.598 0-7.296 3.433-2.514 3.156-2.513 7.877 0 4.996 2.605 7.908 2.697 3.004 7.632 3.004 3.127 0 6.988-1.563-.092-1.011-.552-5.149-.399-3.188-.398-5.149 0-.583.398-.705.154-.062.49-.062.89 0 2.683.168 1.793.17 2.713.169.98 0 2.942-.138 1.961-.138 2.942-.138.767 0 .767 1.011 0 1.472-.169 4.445c-.169 2.973-.169 3.463-.169 4.444q0 3.954.583 11.832z"/><path fill="#9FCFFF" d="M358.597 50.757c-4.284-4.42-6.441-10.122-6.429-16.768-.011-6.771 2.065-12.581 6.214-17.13 4.264-4.726 9.974-7.131 16.712-7.112 3.297-.002 6.433.633 9.373 1.905 3.17 1.398 5.741 3.414 7.606 6.024.38.617.719.923.796 1.907-.05.981-.421 1.536-.912 2.384-.511.817-1.224 1.786-2.161 2.953-1.428 1.761-2.409 2.861-3.359 3.516-.338.206-.68.439-1.351.464-.814-.079-.821-.269-1.021-.354a5 5 0 0 1-.421-.34 23 23 0 0 1-1.029-1.002c-.913-.915-1.819-1.596-2.715-2.069-1.332-.717-2.78-1.075-4.438-1.077-2.696.027-4.56.919-6.122 2.867-1.44 1.815-2.18 4.056-2.187 6.944.007 3.083.784 5.292 2.222 6.904 1.49 1.64 3.514 2.49 6.517 2.507 1.566 0 3.363-.34 5.38-1.057-.095-.903-.239-2.233-.433-3.97-.271-2.165-.41-3.928-.41-5.335.002-.363.054-.773.293-1.207a2.03 2.03 0 0 1 1.165-.934l.001.001c.38-.124.637-.121.931-.128.684 0 1.601.06 2.822.175 1.169.11 2.046.163 2.573.163.586 0 1.546-.044 2.836-.135 1.328-.092 2.326-.14 3.049-.14.565-.027 1.351.26 1.77.846.419.569.49 1.148.496 1.665 0 1.036-.059 2.532-.171 4.529-.112 1.967-.167 3.434-.167 4.359 0 2.565.189 6.49.577 11.697l.029.338-1.492.133 1.497-.085q.007.09.004.186c.019.519-.198 1.244-.746 1.692-.54.444-1.13.534-1.613.536-.8-.025-1.79-.263-3.711-.717-1.401-.343-2.367-.588-3.023-.786-4.237 1.604-8.352 2.422-12.332 2.422h-.071c-6.611-.001-12.257-2.285-16.549-6.771m2.005-31.881c-3.615 3.993-5.423 8.93-5.433 15.113.013 6.024 1.86 10.807 5.589 14.686 3.78 3.912 8.474 5.837 14.458 5.854 3.71 0 7.617-.792 11.746-2.411l.539-.21.542.206c.239.098 1.419.425 3.236.863.985.241 1.763.415 2.293.519-.362-4.992-.544-8.772-.544-11.382 0-1.036.056-2.532.17-4.528.093-1.642.147-2.936.161-3.856-.551.02-1.254.059-2.099.118-1.327.094-2.328.142-3.047.142-.702 0-1.634-.061-2.854-.175a45 45 0 0 0-1.916-.145c.039 1.118.162 2.533.375 4.234.307 2.763.49 4.474.555 5.179l.101 1.108-1.032.419c-2.703 1.094-5.216 1.671-7.55 1.671-3.58.017-6.644-1.136-8.751-3.503-2.036-2.267-2.994-5.329-2.988-8.907-.006-3.407.928-6.42 2.834-8.805 2.038-2.636 5.042-4.035 8.476-4.007 2.101-.002 4.085.477 5.852 1.432 1.199.636 2.335 1.507 3.437 2.607q.258.268.47.474.053-.048.107-.103c.513-.492 1.238-1.313 2.13-2.424 1.306-1.591 2.112-2.867 2.348-3.364a6 6 0 0 0-.176-.264c-1.531-2.136-3.62-3.799-6.364-5.014-2.549-1.103-5.256-1.652-8.171-1.655-6.058.016-10.747 2.025-14.494 6.128m29.276.605q-.001 0 0 0"/><path fill="#FCFCFC" d="M430.022 39.936q0 2.36.275 7.019.277 4.66.276 6.989 0 1.225-1.073 1.318-3.8.276-8.705.276-.582 0-.781-1.763t-.475-1.793q-.246.123-.645.521-3.432 3.465-7.355 3.464-5.977 0-9.901-4.72-3.709-4.414-3.708-10.544 0-7.08 3.831-11.402 3.985-4.475 10.912-4.475 4.812 0 7.602 3.372.122.154.215.153.276 0 .628-1.486.352-1.487.843-1.487 1.134 0 4.322.644 3.034.613 4.353 1.042.46.184.46.49 0 .123-.093.644-.982 5.547-.981 11.738m-9.87.184q0-2.606-1.64-4.307-1.641-1.701-4.275-1.701-2.637 0-4.261 1.686-1.626 1.686-1.625 4.322 0 2.483 1.717 4.26 1.716 1.779 4.169 1.778 2.604 0 4.26-1.701c1.656-1.701 1.655-2.579 1.655-4.337"/><path fill="#9FCFFF" d="M400.49 52.211c-2.702-3.202-4.069-7.123-4.061-11.509-.009-4.981 1.37-9.205 4.211-12.399 2.942-3.328 7.102-4.998 12.032-4.979 2.761-.018 5.242.79 7.216 2.384.085-.243.185-.472.311-.699.229-.413.743-1.103 1.761-1.132 1.006.006 2.444.241 4.619.674 2.053.415 3.526.764 4.521 1.086l.046.015.046.019c.283.115.588.272.881.58.298.297.534.818.521 1.302-.011.368-.052.51-.115.906q-.958 5.406-.956 11.478c-.002 1.518.09 3.841.271 6.93.187 3.123.278 5.469.278 7.078 0 .613-.132 1.3-.604 1.888-.473.594-1.214.883-1.858.925q-3.871.281-8.813.28c-1.074-.015-1.675-.85-1.858-1.333a4.7 4.7 0 0 1-.29-.947c-2.156 1.755-4.564 2.716-7.109 2.709h-.081c-4.353 0-8.156-1.834-10.969-5.256m2.393-21.915c-2.272 2.57-3.447 5.946-3.453 10.406.009 3.788 1.111 6.896 3.361 9.586 2.395 2.844 5.161 4.157 8.746 4.18 2.156-.008 4.187-.913 6.296-3.026.329-.318.595-.572 1.034-.802l.397-.199.439.05c.886.148 1.141.674 1.279.889.143.262.201.463.262.68.11.431.186.917.259 1.547q.026.248.059.429c2.8-.013 5.311-.097 7.51-.249-.006-1.499-.096-3.76-.273-6.744-.185-3.123-.279-5.478-.279-7.108q-.001-6.12.944-11.654c-.816-.222-1.989-.49-3.479-.791-1.461-.299-2.607-.484-3.336-.566q-.037.127-.073.284c-.227.835-.291 1.304-.771 1.979-.172.208-.544.637-1.316.662-.934-.067-1.187-.515-1.371-.697-1.599-1.898-3.581-2.805-6.446-2.828-4.304.02-7.422 1.334-9.789 3.972m11.353 17.363a7.1 7.1 0 0 1-5.247-2.237 7.44 7.44 0 0 1-2.139-5.302c-.013-2.059.674-3.959 2.045-5.362 1.362-1.434 3.271-2.162 5.341-2.146 2.072-.017 3.985.72 5.356 2.16 1.372 1.406 2.071 3.3 2.059 5.347.013 2.066-.692 3.973-2.08 5.383-1.359 1.418-3.24 2.156-5.274 2.156zm-3.182-10.821c-.797.844-1.19 1.825-1.203 3.282.013 1.308.404 2.277 1.296 3.219.908.917 1.816 1.302 3.089 1.318 1.415-.015 2.351-.41 3.186-1.247.818-.858 1.216-1.842 1.229-3.291-.013-1.427-.406-2.405-1.218-3.265-.818-.829-1.756-1.227-3.196-1.244-1.447.019-2.376.414-3.183 1.228"/><path fill="#FCFCFC" d="M485.103 54.128q0 1.074-.92 1.196t-4.536.123q-3.74 0-4.659-.184c-.919-.184-.92-.623-.92-1.502q0-1.41.092-4.214t.092-4.215q0-5.364-.122-7.632-.184-3.647-3.464-3.647-1.44 0-2.865 1.211t-1.579 2.682q-.123 1.287-.122 7.54 0 1.441.092 4.368t.092 4.398q0 1.011-.889 1.012h-9.288q-.858 0-.858-1.257 0-1.44.093-4.322.092-2.88.092-4.353 0-1.134-.062-3.433a142 142 0 0 1-.062-3.463q0-4.383-3.341-4.383-1.349 0-2.912 1.042-1.717 1.134-1.716 2.391 0 2.79.03 8.337c.03 5.547.03 6.467.03 8.306q0 .767-.184.95c-.184.183-.439.204-.95.246q-1.38.122-4.353.123-1.93 0-4.383-.184-.735-.061-.874-.214c-.139-.153-.138-.409-.138-.92q0-2.451.03-7.341.031-4.889.031-7.341 0-5.026-.736-11.31a4 4 0 0 1-.061-.552q0-.521.429-.705.674-.276 2.544-.46 2.298-.214 2.729-.276.306-.061 2.421-.644 1.502-.429 2.422-.429.582 0 .613 2.13.03 2.13.245 2.13.305-.123.705-.429 2.758-2.145 4.353-2.942 2.36-1.134 5.118-1.134 2.82 0 5.027 1.257 2.483 1.41 3.218 3.954 1.625-2.207 4.476-3.709t5.548-1.502q4.046 0 6.59 1.87 2.882 2.115 2.882 6.039 0 1.624-.093 4.889a192 192 0 0 0-.092 4.889q0 1.931.092 5.809.093 3.874.093 5.805"/><path fill="#9FCFFF" d="M474.693 56.733c-.645-.112-1.33-.556-1.675-1.154-.356-.594-.447-1.211-.451-1.818 0-.971.031-2.385.093-4.266.062-1.86.091-3.255.091-4.165 0-3.562-.042-6.096-.12-7.556-.051-1.007-.306-1.53-.548-1.778-.24-.244-.586-.434-1.418-.446-.526.004-1.12.207-1.894.855-.748.647-.996 1.165-1.058 1.681-.069.695-.118 3.259-.115 7.398 0 .931.029 2.378.092 4.321.06 1.961.091 3.434.093 4.445-.002.541-.113 1.188-.596 1.748-.489.569-1.234.777-1.793.765h-9.29c-.638.034-1.489-.339-1.881-.969-.402-.609-.47-1.207-.476-1.789 0-.99.031-2.439.093-4.369.061-1.913.092-3.356.092-4.306 0-.731-.021-1.866-.063-3.391-.04-1.542-.062-2.703-.062-3.505.005-1.281-.266-2.05-.528-2.378-.264-.314-.508-.48-1.313-.505-.504-.002-1.198.202-2.086.796-.969.647-1.057 1.054-1.042 1.138q0 2.784.029 8.329.031 5.551.031 8.314c-.069.643.114 1.1-.625 2.014-.824.678-1.252.566-1.877.676-1.008.088-2.479.128-4.483.128-1.335 0-2.831-.063-4.508-.189a5 5 0 0 1-.819-.123c-.268-.088-.566-.105-1.045-.583-.426-.529-.406-.813-.472-1.087a6 6 0 0 1-.053-.836q.002-2.458.031-7.35.032-4.888.03-7.333.004-4.907-.722-11.103a5 5 0 0 1-.073-.759c-.073-.74.519-1.801 1.359-2.092.767-.301 1.649-.426 2.974-.567 1.416-.13 2.327-.223 2.604-.259.17-.039 1.008-.259 2.273-.609 1.081-.306 1.988-.482 2.833-.487.577-.017 1.154.335 1.409.674.276.339.386.646.477.943.123.445.181.902.208 1.435 1.225-.893 2.263-1.559 3.173-2.016 1.778-.855 3.723-1.283 5.768-1.281 2.101-.004 4.058.476 5.768 1.451 1.175.658 2.15 1.537 2.866 2.587.972-.902 2.107-1.69 3.389-2.364 2.068-1.091 4.166-1.677 6.246-1.674 2.921-.004 5.47.682 7.478 2.159 2.307 1.66 3.524 4.274 3.495 7.249-.002 1.11-.032 2.747-.095 4.929-.06 2.169-.091 3.792-.091 4.849 0 1.264.031 3.193.091 5.772.063 2.591.093 4.533.093 5.843.002.563-.116 1.195-.54 1.751-.421.562-1.102.868-1.683.933-.812.101-2.286.133-4.731.135-2.548-.007-4.039-.043-4.953-.211m4.954-2.787c1.9.002 3.271-.03 3.956-.074a286 286 0 0 0-.093-5.516 273 273 0 0 1-.093-5.844c0-1.112.032-2.749.093-4.931.062-2.17.093-3.792.093-4.847-.031-2.256-.735-3.667-2.271-4.831-1.384-1.015-3.228-1.576-5.702-1.578-1.518 0-3.118.419-4.848 1.329-1.738.917-3.037 2.008-3.969 3.271l-1.806 2.448-.842-2.922c-.396-1.325-1.148-2.273-2.52-3.067-1.232-.699-2.627-1.058-4.285-1.06-1.633.002-3.101.331-4.449.975-.896.447-2.307 1.386-4.107 2.792-.339.257-.666.472-1.063.632l-.268.107h-.287a1.57 1.57 0 0 1-1.268-.655c-.166-.238-.213-.392-.259-.524a3.7 3.7 0 0 1-.135-.683c-.051-.449-.074-1.011-.085-1.746q-.002-.307-.021-.549-.48.09-1.117.271c-1.437.396-2.178.596-2.525.67l-.031.006-.047.006c-.377.053-1.255.141-2.797.285-.645.059-1.18.139-1.551.209.484 4.172.729 7.944.729 11.324 0 1.641-.013 4.091-.031 7.352q-.03 4.563-.031 6.996 2.181.155 3.896.153c1.779 0 3.123-.035 3.985-.098q-.002-2.746-.029-8.018a1592 1592 0 0 1-.031-8.346c.017-1.59 1.068-2.778 2.383-3.638 1.202-.801 2.449-1.292 3.745-1.296 1.424-.025 2.85.54 3.699 1.688.849 1.133 1.135 2.557 1.142 4.196 0 .752.021 1.9.061 3.423.04 1.54.062 2.692.062 3.474 0 1.011-.031 2.471-.091 4.401a155 155 0 0 0-.092 4.03l8.031.002c-.008-.935-.037-2.227-.088-3.863a152 152 0 0 1-.093-4.416c.002-4.196.036-6.661.131-7.697.143-1.43.943-2.7 2.1-3.667 1.127-.964 2.439-1.571 3.836-1.569 1.354-.01 2.68.409 3.594 1.38.912.967 1.296 2.269 1.367 3.688.084 1.572.124 4.123.124 7.712 0 .971-.029 2.385-.092 4.264-.06 1.86-.091 3.259-.091 4.167l.001.07c.626.061 2.072.119 4.08.114"/><path fill="#FCFCFC" d="M519.004 38.618q0 3.096-1.993 3.525-.338.062-6.345.674-3.617.398-10.789.95.429 1.993 2.605 3.034 1.777.858 4.046.858 2.727 0 5.486-1.471l2.33-1.471q.644.307 2.16 3.126 1.518 2.82 1.518 3.586 0 .215-.46.705-3.74 4.015-11.616 4.015-7.295 0-11.771-4.26-4.598-4.321-4.598-11.556 0-7.05 4.107-11.556 4.23-4.659 11.218-4.659 5.885 0 9.993 4.292 4.109 4.293 4.109 10.208m-10.728-1.87q0-1.9-1.349-3.341-1.35-1.44-3.219-1.44-1.93 0-3.188 1.625-1.165 1.502-1.165 3.525 0 .828.858.828 2.268 0 7.05-.705 1.013-.155 1.013-.492"/><path fill="#9FCFFF" d="M493.149 52.982c-3.391-3.166-5.087-7.517-5.071-12.648-.011-4.983 1.484-9.272 4.496-12.563 3.093-3.43 7.346-5.169 12.329-5.152 4.291-.017 8.103 1.624 11.076 4.754 2.986 3.101 4.536 6.952 4.523 11.246-.002 1.189-.177 2.244-.691 3.167-.503.926-1.453 1.622-2.531 1.833-.2.033-.733.095-1.649.192.313.286.52.603.81.988.412.597.863 1.364 1.386 2.335.52.964.915 1.764 1.199 2.433.272.689.474 1.148.497 1.863-.023.607-.221.861-.357 1.104-.155.23-.317.423-.504.624-2.874 3.083-7.231 4.499-12.714 4.492h-.052c-5.126 0-9.486-1.548-12.747-4.668m1.645-23.193c-2.464 2.716-3.707 6.129-3.716 10.545.015 4.514 1.383 7.866 4.131 10.47 2.686 2.544 6.154 3.834 10.737 3.845 4.982-.006 8.359-1.248 10.479-3.494a8 8 0 0 0-.165-.419c-.223-.529-.584-1.267-1.076-2.183a21 21 0 0 0-1.11-1.892l-1.259.794-.049.032-.047.025c-2.016 1.076-4.101 1.647-6.19 1.647-1.7 0-3.289-.326-4.693-1.005-1.749-.81-3.056-2.259-3.426-4.073l-.36-1.68 1.712-.131c4.771-.368 8.36-.683 10.752-.948 3.96-.399 6.21-.647 6.181-.647.296-.084.343-.121.506-.368.149-.254.307-.816.304-1.69-.013-3.596-1.201-6.55-3.69-9.171-2.504-2.591-5.354-3.811-8.91-3.828-4.334.019-7.562 1.387-10.111 4.171m8.34 15.661c.958.461 2.068.708 3.395.708 1.537 0 3.099-.405 4.75-1.278q.583-.37 1.167-.738l-1.615.166c-2.001.22-4.783.473-8.356.759q.28.194.659.383m-4.606-6.634c-.522-.501-.682-1.185-.673-1.701-.009-1.633.495-3.185 1.479-4.441 1.041-1.39 2.656-2.233 4.374-2.206 1.637-.017 3.193.692 4.314 1.914 1.132 1.191 1.767 2.741 1.754 4.366-.018.973-.745 1.493-1.098 1.641-.411.192-.771.265-1.195.334-3.228.474-5.611.719-7.27.722h-.013c-.505-.001-1.155-.132-1.672-.629m3.177-4.306a3.95 3.95 0 0 0-.803 1.92c1.331-.055 3.269-.259 5.746-.618-.139-.485-.399-.922-.817-1.381-.677-.696-1.269-.948-2.123-.965-.857.026-1.367.267-2.003 1.044"/><path fill="#FCFCFC" d="M221.201 95.161q0 6.222-5.241 10.667-4.597 3.922-11.188 4.996-.245.03-.398.03-.705 0-3.126-4.307-2.421-4.306-2.421-5.257 0-.337.46-.429 4.443-1.011 5.885-1.717 3.188-1.594 3.188-4.72 0-1.992-2.084-4.445-3.617-4.167-3.923-4.628-2.115-3.187-2.115-7.05 0-5.61 5.18-9.318 4.23-3.065 10.391-3.984.337-.03.521-.03.46 0 .736.735.797 2.238 3.708 8.092a.7.7 0 0 1 .092.307q0 .522-.552.521-.246 0-.828-.093a6 6 0 0 0-.889-.092q-2.206 0-3.862 1.012-1.993 1.164-1.992 3.249 0 1.87 2.207 4.598 3.893 4.905 4.077 5.149 2.173 3.374 2.174 6.714"/><path fill="#9FCFFF" d="M202.88 111.673a7.3 7.3 0 0 1-.856-1.016c-.582-.801-1.262-1.91-2.086-3.375-.817-1.457-1.438-2.639-1.871-3.574-.422-.977-.701-1.54-.743-2.417-.017-.451.213-1.043.594-1.374.373-.34.753-.46 1.033-.518 2.91-.656 4.863-1.25 5.548-1.596 1.765-.947 2.307-1.84 2.359-3.379.013-.784-.453-1.982-1.717-3.463a371 371 0 0 1-2.8-3.253c-.677-.803-1.014-1.2-1.242-1.527-1.568-2.356-2.369-5.03-2.363-7.88-.027-4.222 2.055-7.891 5.799-10.533 3.046-2.206 6.754-3.613 11.051-4.253l.017-.004.068-.007c.252-.022.458-.035.658-.035.563-.014 1.145.273 1.474.621.341.35.523.716.674 1.109.48 1.357 1.709 4.054 3.636 7.926.116.244.242.516.25.977.01.418-.13 1.035-.606 1.481a2.06 2.06 0 0 1-1.444.538c-.339-.002-.636-.045-1.058-.109a5 5 0 0 0-.658-.072c-1.246.002-2.231.275-3.106.807-.979.625-1.208 1.064-1.25 1.954-.027.642.488 1.966 1.883 3.665a875 875 0 0 1 4.099 5.18l.038.05.024.039c1.573 2.432 2.417 4.967 2.415 7.526.021 4.58-2.005 8.646-5.767 11.809-3.282 2.804-7.297 4.583-11.92 5.335l-.033.004-.031.004c-.194.022-.37.041-.575.041-.893-.06-1.177-.428-1.494-.681m-2.088-9.221c.375.814.966 1.945 1.761 3.36.963 1.762 1.823 3.01 2.21 3.491 4.059-.7 7.427-2.237 10.225-4.621 3.222-2.761 4.691-5.807 4.712-9.521-.002-1.885-.601-3.812-1.911-5.859-.245-.313-1.614-2.042-4.009-5.061-1.556-1.95-2.512-3.69-2.539-5.54-.042-1.892 1.057-3.617 2.708-4.53 1.36-.834 2.947-1.235 4.646-1.231l.08.002c-1.421-2.905-2.383-5.021-2.909-6.418-3.801.602-6.935 1.837-9.478 3.679-3.156 2.299-4.528 4.842-4.555 8.1.006 2.301.614 4.325 1.864 6.219.002 0 .015.021.062.082a55 55 0 0 0 .966 1.166 389 389 0 0 0 2.79 3.24c1.504 1.779 2.427 3.545 2.439 5.416.052 2.63-1.531 4.884-4.027 6.067-1.079.518-2.735 1.006-5.201 1.594z"/><path fill="#FCFCFC" d="M246.581 100.281q0 .919-.23 2.789c-.23 1.87-.23 2.161-.23 2.743s-.061.955-.184 1.119q-.184.245-1.012.704-3.955 2.177-8.766 2.177-8.859 0-8.858-6.774 0-2.023.153-6.084.153-4.06.153-6.084 0-1.349-1.563-1.349h-.398q-.276.03-.398.03-1.165 0-1.165-.827 0-.49.077-1.502a22 22 0 0 0 .077-1.502q0-.644-.077-1.962a37 37 0 0 1-.077-1.962q0-.612 1.962-.674 1.104-.031 1.195-.613.184-1.165.123-3.679a414 414 0 0 0-.123-3.77q0-3.555.674-3.556.828 0 2.36.368 1.747.399 2.421.459 1.563.216 4.72.583.767.061.767.521 0 1.226-.199 3.709-.2 2.483-.199 3.739 0 1.502.889 1.502 1.072 0 3.249-.092a83 83 0 0 1 3.28-.092q.674 0 .674.46 0 .705-.153 2.115-.154 1.41-.153 2.114 0 .736.031 2.146.03 1.41.031 2.146 0 .645-.889.645-.613 0-2.054-.047-1.44-.046-2.053-.046h-2.299q-.46 0-.46 1.349v2.177q.03 1.47.031 2.176 0 2.575.582 3.556.828 1.318 3.249 1.318.767 0 2.192-.353 1.425-.352 2.008-.353.641.001.642.676"/><path fill="#9FCFFF" d="M236.159 111.313c-3.132-.006-5.678-.579-7.554-2.003-1.894-1.424-2.829-3.706-2.804-6.271 0-1.385.052-3.423.155-6.142.097-2.594.147-4.562.15-5.875l-.063-.001h-.312a5 5 0 0 1-.485.031c-.557-.007-1.146-.075-1.742-.484-.615-.403-.954-1.231-.923-1.844.002-.401.029-.921.081-1.614.05-.655.075-1.138.073-1.388 0-.375-.023-1.013-.073-1.877a36 36 0 0 1-.081-2.049c-.012-.513.261-1.063.58-1.349.318-.303.631-.441.925-.545.539-.179 1.082-.242 1.742-.271.032-.43.05-.979.05-1.628 0-.35-.006-.73-.015-1.127a835 835 0 0 0-.118-3.658 1 1 0 0 1-.006-.158v-.017a1 1 0 0 1 .003-.13c.04-1.802.036-2.841.572-3.927.178-.362.749-.983 1.599-.981.766.004 1.625.151 2.694.405 1.132.261 1.931.404 2.22.429l.045.004.027.005c1.022.139 2.588.333 4.635.572.399.038.822.104 1.297.414.488.288.884 1.026.849 1.602 0 .895-.07 2.152-.203 3.83-.132 1.63-.194 2.854-.195 3.615.649-.013 1.511-.041 2.574-.085a83 83 0 0 1 3.344-.094c.387.007.838.042 1.351.375.53.325.856 1.078.824 1.585-.002.573-.058 1.308-.164 2.278-.1.908-.145 1.585-.145 1.951 0 .47.01 1.18.031 2.114.021.943.031 1.666.031 2.177.029.545-.275 1.316-.842 1.697-.551.385-1.078.44-1.546.446a67 67 0 0 1-2.102-.047 81 81 0 0 0-2.005-.046h-1.26v1.995c.021.986.031 1.715.031 2.207-.021 1.596.242 2.635.352 2.759.159.263.587.6 1.98.616.288.004.948-.087 1.833-.311 1.007-.242 1.699-.387 2.367-.395.456-.009 1.099.139 1.566.633.466.494.58 1.095.575 1.542 0 .729-.084 1.692-.24 2.971-.151 1.215-.222 2.103-.219 2.562-.046.706.054 1.169-.486 2.021-.482.575-.857.739-1.486 1.115-2.858 1.575-6.048 2.363-9.476 2.363q-.004.004-.011.003m-10.513-23.292h.397c.722.002 1.496.146 2.152.701.664.559.927 1.43.913 2.147 0 1.385-.052 3.423-.155 6.142-.102 2.696-.151 4.713-.151 6.027.025 1.949.565 3.054 1.625 3.888 1.076.836 2.961 1.391 5.733 1.385 2.982-.002 5.632-.664 8.039-1.989a7 7 0 0 0 .416-.243q.007-.112.006-.266c.002-.707.085-1.648.242-2.928.079-.64.135-1.192.171-1.645-.219.045-.47.102-.745.172-1.016.25-1.819.393-2.551.398-1.837.015-3.576-.527-4.54-2.055-.646-1.15-.77-2.482-.792-4.32 0-.448-.011-1.169-.029-2.175q-.003-1.442 0-2.177c.062-.809-.076-1.411.708-2.338a1.8 1.8 0 0 1 1.251-.511h2.299c.443 0 1.132.015 2.101.045q.84.028 1.387.04a178 178 0 0 0-.022-1.25c-.021-.945-.031-1.668-.031-2.179 0-.573.056-1.308.161-2.276a32 32 0 0 0 .088-.902q-.937.02-2.333.079c-1.465.064-2.56.093-3.313.093-.72.046-1.62-.453-1.959-1.111-.362-.637-.422-1.245-.43-1.889 0-.912.068-2.183.205-3.859.087-1.087.144-1.989.173-2.689a233 233 0 0 1-4.17-.518v-.001c-.602-.062-1.4-.221-2.568-.485a15 15 0 0 0-1.103-.23 19 19 0 0 0-.081 1.913l.002.033q.001.066.006.186.01.24.025.714c.021.632.05 1.577.089 2.85.01.427.015.825.015 1.206 0 1.132-.043 2.018-.155 2.738-.079.674-.625 1.315-1.142 1.547-.52.259-.995.314-1.488.334a7 7 0 0 0-.486.025q.018.442.052 1.023c.052.894.079 1.562.079 2.051 0 .398-.029.918-.081 1.613q-.03.384-.046.686zm.434-14.017a1.497 1.497 0 0 0 2.237.089c.403-.441.408-.838.42-.981v-.052h-1.528l-1.41.414c.041.087.016.174.281.53m1.091-.942.016-.002h-.008zm1.556-.2.006.052c-.003-.056-.008-.074-.01-.083z"/><path fill="#FCFCFC" d="M281.339 81.399q0 2.27-.215 6.805-.214 4.537-.214 6.805 0 2.207.153 6.621.153 4.413.153 6.59 0 .828-.766 1.042-1.165.306-4.935.307-3.341 0-4.659-.184-.583-.093-.736-.736l-.184-1.839q-.153-1.41-.429-1.41.428 0-3.096 2.085t-6.406 2.084q-8.124 0-9.625-7.326-.675-3.402-.675-9.869 0-6.989 1.134-11.035.337-1.256 1.257-1.257 1.409 0 4.291.031 2.88.03 4.292.03.95 0 .95.797 0 .216-.062.644a55.4 55.4 0 0 0-.644 8.46q0 5.334.337 7.295.552 3.372 4.016 3.372 1.349 0 2.927-1.195c1.578-1.195 1.599-1.625 1.64-2.482q.062-1.134.062-15.388 0-1.01.153-1.195.184-.306 1.103-.307 1.501 0 4.521.031 3.019.03 4.521.03.919 0 1.073.46.063.244.063.734"/><path fill="#9FCFFF" d="M270.622 110.865c-.95-.083-1.841-1.043-1.961-1.873l-.023-.101-.01-.096-.083-.846q-.593.364-1.369.823c-2.502 1.478-4.881 2.29-7.169 2.294-2.924 0-5.438-.664-7.376-2.139-1.943-1.472-3.174-3.693-3.72-6.397-.482-2.44-.702-5.794-.704-10.16.004-4.742.376-8.528 1.186-11.425.159-.577.401-1.137.871-1.612.459-.482 1.188-.77 1.835-.755q1.423.002 4.306.031 2.879.03 4.277.03c.511.002 1.119.096 1.676.549.565.459.791 1.204.774 1.748a6 6 0 0 1-.079.873 54 54 0 0 0-.627 8.231c-.002 3.513.12 5.936.317 7.051.151.89.434 1.343.765 1.623.333.279.849.488 1.771.492.44.006 1.125-.211 2.021-.892.875-.667 1.042-1.132 1.047-1.368.037-.623.06-5.831.06-15.305 0-.377.012-.693.05-.995.062-.278.034-.515.321-.971l-.004-.002c.37-.592.881-.797 1.252-.904a4.3 4.3 0 0 1 1.138-.131c1.012 0 2.52.011 4.538.031q3.015.031 4.504.031c.431.002.853.041 1.32.235.457.177.989.646 1.175 1.248l.019.056.017.061c.089.378.101.699.103 1.095 0 1.558-.072 3.84-.215 6.875-.143 3.013-.213 5.269-.213 6.735 0 1.438.05 3.635.153 6.569.102 2.95.153 5.156.153 6.642.002.499-.124 1.076-.484 1.563-.354.488-.888.792-1.401.929-1.111.277-2.739.348-5.315.357-2.266-.001-3.834-.055-4.896-.2m9.093-2.984c-.007-1.419-.057-3.492-.152-6.2-.101-2.953-.153-5.169-.153-6.673 0-1.559.072-3.839.215-6.876.133-2.809.205-4.962.212-6.43a609 609 0 0 1-4.169-.03q-2.78-.029-4.262-.032v.004c-.002 9.528-.019 14.581-.064 15.458-.079 1.489-1.001 2.682-2.232 3.606-1.208.914-2.477 1.494-3.832 1.5-1.386.004-2.696-.348-3.702-1.194-1.008-.844-1.577-2.075-1.792-3.424-.256-1.509-.356-3.95-.36-7.548 0-2.844.208-5.651.619-8.404q-1.37-.004-3.671-.027a458 458 0 0 0-4.038-.031 2 2 0 0 0-.051.161c-.699 2.483-1.08 6.055-1.078 10.631-.002 4.257.228 7.482.646 9.568.455 2.19 1.328 3.631 2.594 4.602 1.271.968 3.069 1.522 5.56 1.526 1.552.002 3.443-.573 5.64-1.876 1.57-.92 2.62-1.609 2.792-1.749l.022-.021.403.457-.44-.422 1.003.964h.081v-1.522q.052 0 .103.004c.115.006.266.021.487.109a1 1 0 0 1 .128.057.8.8 0 0 1 .267.166c.182.138.308.289.376.396.187.273.252.478.319.683.12.401.182.812.242 1.345l.129 1.293c.831.073 2.178.118 3.958.116 2.023.006 3.506-.083 4.2-.187m-10.291-2.249.002-.001.081-.158v-.003z"/><path fill="#FCFCFC" d="M318.887 65.767q0-.674-.245 2.022-.338 3.403-.521 8.705-.245 6.009-.245 13.671 0 12.659.705 18.022.062.583.062.736 0 .337-.46.398-1.103.153-8.123.153-1.656 0-1.9-.644l-.122-2.33q-.032-.244-.245-.49-.184.093-.46.368-3.31 3.249-8.276 3.249-6.468 0-10.36-4.537-3.709-4.321-3.708-10.911 0-6.683 3.647-11.004 3.861-4.598 10.421-4.599 4.629 0 7.203 2.943.429.49.613.49.275 0 .275-.797 0-2.36-.122-7.05-.123-4.69-.123-7.02 0-.89.491-1.012 1.96-.092 5.395-.367 6.13-.767 5.425-.767.672.005.673.771m-11.555 28.168q0-2.42-1.686-4.245-1.687-1.823-4.077-1.823-2.514 0-4 1.823-1.486 1.825-1.486 4.368 0 2.483 1.502 4.199 1.532 1.84 3.984 1.839c2.452-.001 3.004-.612 4.107-1.839q1.656-1.84 1.656-4.322"/><path fill="#9FCFFF" d="M287.555 106.07c-2.729-3.17-4.078-7.222-4.07-11.89-.006-4.72 1.312-8.796 4-11.968 2.834-3.408 6.853-5.158 11.57-5.134 2.502-.015 4.755.61 6.571 1.872a413 413 0 0 0-.102-4.746c-.082-3.135-.124-5.48-.124-7.06.004-.433.046-.869.273-1.354.209-.481.759-.984 1.354-1.112l.143-.038.153-.006c1.268-.06 3.04-.181 5.299-.36 3.061-.381 4.95-.646 5.226-.7l.029-.007.187.798q.066-.041.147-.078v-.788l.055-.001h.017c.482.005 1.129.2 1.561.702.363.42.493.883.53 1.288l.006.055c.006.098.006.153.006.224h-.81l-.028.047.78.173-.054-.013.056.008c-.008.057-.022.181-.041.35q-.056.513-.155 1.604-.33 3.334-.516 8.62-.245 5.97-.242 13.608c-.002 8.407.236 14.394.695 17.865.042.418.066.635.07.896.021.445-.219 1.066-.633 1.401a2.1 2.1 0 0 1-1.121.482c-1 .128-3.601.161-8.328.167-.65-.004-1.219-.054-1.784-.24-.544-.174-1.223-.592-1.519-1.369l-.085-.222-.01-.233-.002-.032c-2.175 1.5-4.765 2.262-7.604 2.25h-.091c-4.618-.001-8.572-1.725-11.409-5.059m2.224-21.927c-2.174 2.588-3.285 5.848-3.292 10.037.009 4.12 1.13 7.341 3.347 9.934 2.336 2.692 5.255 3.994 9.222 4.015 2.985-.015 5.28-.93 7.213-2.808.25-.244.474-.453.853-.65l1.039-.521.763.878c.275.314.532.747.601 1.287l.008.056.002.054.08 1.534q.187.02.446.018c3.325.004 5.714-.03 6.974-.079-.446-3.747-.657-9.619-.659-17.732q.002-7.686.246-13.722.185-5.334.527-8.786.048-.545.088-.956a339 339 0 0 1-4.263.555l-.037.005-.029.002q-2.695.216-4.504.32c.007 1.523.046 3.708.121 6.545.081 3.133.122 5.489.122 7.089-.063.531.11.968-.612 1.825a1.7 1.7 0 0 1-1.162.47c-.729-.04-.954-.299-1.182-.449a4.5 4.5 0 0 1-.561-.553c-1.422-1.602-3.292-2.412-6.073-2.432-4.032.021-6.961 1.338-9.278 4.064m28.103-17.389.15-.171zm2.243-.294-.711-.47zm.153-.304-.771-.283zm-23.823 33.087c-1.25-1.411-1.883-3.232-1.873-5.186-.008-1.986.608-3.836 1.823-5.317 1.241-1.557 3.13-2.398 5.164-2.373 1.98-.02 3.826.816 5.18 2.305 1.354 1.45 2.094 3.298 2.081 5.262h.002a7.77 7.77 0 0 1-2.042 5.326 6.81 6.81 0 0 1-5.221 2.334h-.085c-1.979 0-3.812-.852-5.029-2.351m2.275-8.607c-.766.953-1.14 2.013-1.148 3.422.011 1.355.377 2.334 1.155 3.238.781.906 1.57 1.276 2.832 1.3 1.256-.02 2.121-.404 2.992-1.344.869-.982 1.258-1.996 1.269-3.318h.002c-.013-1.263-.397-2.245-1.287-3.226-.9-.946-1.77-1.324-2.976-1.343-1.318.025-2.098.4-2.839 1.271"/><path fill="#FCFCFC" d="M334.764 95.192q0 2.239.092 6.667.092 4.43.092 6.636 0 .645-.766.767-1.043.184-4.689.184-3.678 0-4.721-.184-.675-.123-.828-.398-.061-.122-.061-.92 0-2.114.092-6.359c.092-4.245.092-4.961.092-6.392q0-8.704-.674-13.854a6 6 0 0 1-.062-.644q0-.612.827-.613.858 0 2.621.185 1.763.183 2.651.184.888 0 2.666-.153t2.667-.153q.735 0 .735.613 0 .122-.061.582-.672 5.975-.673 13.852m.797-22.774q0 5.334-6.008 5.333-2.575 0-4.26-1.349-1.84-1.47-1.84-3.984 0-2.39 1.9-3.924 1.747-1.41 4.199-1.41 2.391 0 4.139 1.441 1.87 1.533 1.87 3.893"/><path fill="#9FCFFF" d="M324.504 110.736c-.592-.141-1.281-.229-1.899-1.195-.238-.563-.164-.625-.205-.871a14 14 0 0 1-.019-.727c.002-1.43.031-3.557.093-6.394.063-2.824.092-4.947.092-6.358 0-5.762-.226-10.333-.662-13.662-.044-.362-.07-.571-.073-.836-.026-.523.257-1.28.813-1.665.538-.385 1.062-.443 1.515-.447.565 0 1.292.047 2.225.137a7.2 7.2 0 0 1-2.028-1.145c-1.574-1.227-2.429-3.118-2.402-5.153-.024-1.999.88-3.851 2.458-5.093 1.431-1.164 3.222-1.752 5.143-1.742 1.893-.01 3.67.601 5.087 1.779 1.555 1.244 2.444 3.079 2.421 5.056h-.002c.015 2.037-.606 3.888-2.005 5.12a6.2 6.2 0 0 1-2.021 1.177c.698-.05 1.268-.075 1.729-.075.441.002.993.078 1.513.502.53.427.741 1.128.723 1.612-.005.279-.031.435-.068.749-.443 3.912-.666 8.479-.666 13.687 0 1.472.03 3.689.091 6.636.062 2.959.093 5.177.093 6.666.013.501-.187 1.146-.629 1.575-.437.43-.952.602-1.376.67-.941.157-2.475.201-4.949.207-2.5-.007-4.044-.051-4.992-.21m8.941-2.897c-.007-1.43-.036-3.417-.089-5.951a354 354 0 0 1-.092-6.697h-.002c.002-5.066.209-9.564.63-13.522-.455.024-1.015.064-1.666.121-1.211.104-2.123.157-2.795.157-.693 0-1.604-.066-2.809-.19a41 41 0 0 0-1.684-.147c.422 3.48.627 7.992.627 13.582 0 1.45-.031 3.588-.091 6.425a326 326 0 0 0-.094 6.213c.697.067 2.134.119 4.111.114 1.839.004 3.206-.042 3.954-.105m.501-.058v-.003zm-7.652-38.121c-.954.803-1.316 1.566-1.344 2.759.027 1.313.399 2.077 1.279 2.812.827.656 1.86 1.014 3.323 1.02 1.796 0 2.9-.405 3.509-.955.604-.545.984-1.359.999-2.876h-.002c-.022-1.174-.381-1.935-1.322-2.738-.908-.738-1.891-1.088-3.184-1.099-1.35.008-2.358.362-3.258 1.077"/><path fill="#FCFCFC" d="M370.167 94.181q0 6.988-4.275 11.341c-4.275 4.353-6.596 4.353-11.234 4.353q-6.743 0-11.096-4.291t-4.353-11.035q0-7.11 4.169-11.54t11.279-4.43q6.926 0 11.219 4.338 4.29 4.337 4.291 11.264m-10.054 0q0-2.421-1.502-4.276c-1.502-1.855-2.299-1.854-3.893-1.854q-2.421 0-3.984 1.9-1.472 1.779-1.472 4.23 0 2.482 1.472 4.26 1.563 1.901 3.984 1.9 2.391 0 3.954-1.9 1.44-1.778 1.441-4.26"/><path fill="#9FCFFF" d="M354.656 111.374c-4.808.013-8.974-1.577-12.148-4.725-3.197-3.133-4.813-7.288-4.8-12.103-.012-5.026 1.509-9.32 4.577-12.568 3.069-3.282 7.33-4.917 12.371-4.903 4.924-.012 9.142 1.59 12.285 4.785 3.158 3.175 4.739 7.398 4.725 12.321.013 4.953-1.559 9.201-4.706 12.391-3.121 3.194-7.323 4.802-12.237 4.802zm-10.188-27.34c-2.49 2.659-3.75 6.059-3.762 10.513.017 4.179 1.302 7.378 3.907 9.967 2.627 2.574 5.859 3.846 10.042 3.858 4.334-.015 7.598-1.31 10.164-3.902 2.554-2.615 3.833-5.93 3.846-10.288-.015-4.317-1.295-7.603-3.856-10.212-2.58-2.587-5.84-3.879-10.153-3.892-4.441.015-7.7 1.334-10.188 3.956m5.11 15.363c-1.209-1.448-1.826-3.269-1.815-5.215-.011-1.935.608-3.744 1.812-5.185 1.266-1.576 3.133-2.472 5.145-2.447a6.3 6.3 0 0 1 5.057 2.41 8.1 8.1 0 0 1 1.837 5.222c.008 1.94-.592 3.754-1.783 5.21-1.261 1.573-3.116 2.471-5.11 2.448h-.082a6.45 6.45 0 0 1-5.061-2.443m2.31-8.49c-.756.926-1.118 1.936-1.128 3.274.01 1.358.374 2.379 1.132 3.305.818.958 1.606 1.33 2.826 1.354 1.19-.023 1.972-.391 2.788-1.345.735-.921 1.097-1.949 1.105-3.313-.009-1.306-.376-2.342-1.168-3.335-.772-.916-1.522-1.273-2.726-1.297-1.217.023-2.007.395-2.829 1.357"/></svg>