<svg xmlns="http://www.w3.org/2000/svg" xmlns:xlink="http://www.w3.org/1999/xlink" viewBox="0 0 837 360"><defs><linearGradient id="a" x1="60.549" x2="60.549" y1="-1452.352" y2="-1385.286" gradientTransform="matrix(1 0 0 -1 2.35 -1325.893)" gradientUnits="userSpaceOnUse"><stop offset=".06" style="stop-color:#53b848"/><stop offset=".555" style="stop-color:#65ccec"/><stop offset=".583" style="stop-color:#61c3e7"/><stop offset=".688" style="stop-color:#55a7d8"/><stop offset=".793" style="stop-color:#4d92cd"/><stop offset=".898" style="stop-color:#4886c6"/><stop offset="1" style="stop-color:#4682c4"/></linearGradient><linearGradient id="b" x1="72.555" x2="179.013" y1="-1452.288" y2="-1325.416" gradientTransform="matrix(1 0 0 -1 2.35 -1325.893)" gradientUnits="userSpaceOnUse"><stop offset="0" style="stop-color:#6ebe44"/><stop offset=".001" style="stop-color:#6ebe44"/><stop offset=".245" style="stop-color:#bcda20"/><stop offset=".419" style="stop-color:#eceb09"/><stop offset=".505" style="stop-color:#fff200"/><stop offset=".578" style="stop-color:#fbca08"/><stop offset=".679" style="stop-color:#f79a11"/><stop offset=".775" style="stop-color:#f47419"/><stop offset=".864" style="stop-color:#f1581f"/><stop offset=".941" style="stop-color:#f04822"/><stop offset="1" style="stop-color:#ef4223"/></linearGradient><linearGradient id="c" x1="32.058" x2="32.058" y1="-1452.351" y2="-1385.286" gradientTransform="matrix(1 0 0 -1 2.35 -1325.893)" gradientUnits="userSpaceOnUse"><stop offset=".06" style="stop-color:#53b848"/><stop offset=".555" style="stop-color:#65ccec"/><stop offset=".583" style="stop-color:#61c3e7"/><stop offset=".688" style="stop-color:#55a7d8"/><stop offset=".793" style="stop-color:#4d92cd"/><stop offset=".898" style="stop-color:#4886c6"/><stop offset="1" style="stop-color:#4682c4"/></linearGradient><linearGradient id="d" x1="44.064" x2="150.521" y1="-1452.287" y2="-1325.416" gradientTransform="matrix(1 0 0 -1 2.35 -1325.893)" gradientUnits="userSpaceOnUse"><stop offset="0" style="stop-color:#6ebe44"/><stop offset=".001" style="stop-color:#6ebe44"/><stop offset=".245" style="stop-color:#bcda20"/><stop offset=".419" style="stop-color:#eceb09"/><stop offset=".505" style="stop-color:#fff200"/><stop offset=".578" style="stop-color:#fbca08"/><stop offset=".679" style="stop-color:#f79a11"/><stop offset=".775" style="stop-color:#f47419"/><stop offset=".864" style="stop-color:#f1581f"/><stop offset=".941" style="stop-color:#f04822"/><stop offset="1" style="stop-color:#ef4223"/></linearGradient><linearGradient xlink:href="#a" id="e" x1="60.549" x2="60.549" y1="-1452.352" y2="-1385.286" gradientTransform="matrix(1 0 0 -1 2.35 -1325.893)" gradientUnits="userSpaceOnUse"/><linearGradient xlink:href="#b" id="f" x1="72.555" x2="179.013" y1="-1452.288" y2="-1325.416" gradientTransform="matrix(1 0 0 -1 2.35 -1325.893)" gradientUnits="userSpaceOnUse"/><linearGradient xlink:href="#c" id="g" x1="32.058" x2="32.058" y1="-1452.351" y2="-1385.286" gradientTransform="matrix(1 0 0 -1 2.35 -1325.893)" gradientUnits="userSpaceOnUse"/><linearGradient xlink:href="#d" id="h" x1="44.064" x2="150.521" y1="-1452.287" y2="-1325.416" gradientTransform="matrix(1 0 0 -1 2.35 -1325.893)" gradientUnits="userSpaceOnUse"/></defs><g fill="#fff" style="fill:#fff"><path d="M290.7 124.26c2.69 35.69 3.74 71.56 6.75 107.24.53 6.26 2.05 10.22 8.26 11.75l2.08 2.25-.17 3.36q-.03.58-.57.8-1.72.67-4.3.73-31.56.74-50.25.4c-4.91-2.43-1.67-6.69 2.25-7.26 9.43-1.38 12.18-2.96 12.25-13.53q.03-4.21-.79-13.75.23-3.66-.93-7.28-.16-.51-.7-.52-15.74-.4-31.5-.13c-3.87.07-4.88-.29-6.87 2.87q-8.45 13.43-10.93 18.33c-1.69 3.34-3.58 7.73.15 10.05q3.76 2.35 6.07 2.58 5.38 1.02 8.25 4.14c-.47 2.89-1.96 4.5-5.07 4.59-5.54.16-11.51-.42-16.57-.33q-13.93.27-27.86.34c-3.17-5.71-.32-7.16 4.91-8 8.84-1.43 13.84-8.56 19.24-16.29q35.23-50.48 70.5-100.93 6.8-9.74 15.8-1.41m-42.74 74.24q8.16.88 16.34.39.53-.03.56-.56.7-11.62-1.06-23.44l-.85-17.82q-.04-.84-.51-.14L234.74 198q-.36.54.28.59 6.53.55 12.94-.09M767.93 123.26c2.04 22.83 2.93 47.28 4.77 71.27.94 12.16 1.23 26.84 2.64 39.89q.75 7.02 7.66 8.04c2.41 1.55 4.66.99 6.54 3.79q.11 4.24-4.28 4.22-15.86-.07-51.77.63c-1.26.03-2.37-.33-3.7-.35q-1.38-1.33-1.78-3.18-.11-.51.14-.97c3.68-6.8 14.48.45 16.03-11.45q1.24-9.42-.47-18.9.31-3.81-.46-7.57-.1-.47-.58-.47l-36.29.13q-.49 0-.77.4-8.25 11.38-14.03 24.17c-2.42 5.36 3.28 8.67 7.63 9.09 3.06 1.09 5.48 1.26 7.83 3.75.81 6.32-7.81 5.31-12.63 5.07-10.64-.54-21.26-.26-31.91.02q-.5.01-.89-.31-.55-.45-.9-.05-.53.6-.94-.08c-4.34-7.13 5.65-8.09 9.55-9.24q4.8-3.47 9.16-9.69 35.97-51.28 71.85-102.61c4.26-6.09 9.87-11.88 17.6-5.6m-42 75.26q8.39.86 16.17.37 1.01-.06.94-1.06l-1.5-22.73-.7-17.97q-.03-.63-.46-.18-.83.86-1.94 2.5-12.94 19.11-25.77 38.4-.36.54.29.61 6.59.68 12.97.06M687.04 127.75q-2.63 11.82-7.48 24.06-1.84 4.64-6.56 5.73c-6.21-6.66-1.49-11.85-3.75-19.08 1.12-4.83-4.83-7.87-8.77-7.61-33.8 2.26-63.89 25.07-73.46 57.93-4.97 17.06-4.44 39.13 11.02 50.93 6.63 5.16 12.35 6.2 21.22 5.96q5.87-.16 7.37-5.08 4.3-14.1 8.11-28.34.42-1.56.1-3.02.83-5.22-4.62-6.65-4.2-1.11-6.99-.83-3.21-2.36-2.14-6.26.14-.49.62-.64c.89-.28 2.15-.65 3.08-.66q28.57-.37 57.14-.06 3.02.04 4.86 2.37c-4.12 9.41-14.55 1.04-18.91 13.77q-3.42 9.99-6.09 20.27-1.2 4.59-3.01 6.96c-7.39 9.71-24.47 14.46-35.3 15.62-15.16 1.63-37.33.43-49.84-9.56q-.36-.28-.73-.03l-.41.26c-13.37-11.13-22.8-22.94-22.14-41.45 1.01-28 20.93-48.99 44.32-61.67 27.34-14.83 58.03-21.12 88.82-15.52q1.49.27 3.54 2.6M495.04 127.75c-1.28 9.83-14.2 1.94-17.14 13.93q-9.22 37.52-18.08 75.13c-1.65 7-3.19 13.34-3.06 20.59q.01.5.32.9 2.67 3.43 7.13 3.2l5.83 4c-.76 5.54-5.92 5.46-9.98 5.18-20.82-1.47-35.31-.67-51.81.01q-3.17-2.23-2.25-6.02.12-.48.53-.76c3.47-2.37 9.46-2 13.71-3.85q.49-.21.76-.66 2.28-3.78 3.68-8.96 5.85-21.64 11.11-43.43.34-1.41.08-3.07 4.58-15.21 7.7-29.41.51-2.29-.79-.34-30.06 45.22-60.52 90.04-4.21 6.19-11.51 5.06-2.72-1.94-2.87-5.35-1.81-43.24-1.97-55.94-.07-5.53-.78-8.16l-1.01-25.7q-.08-1.94-.75-.12-8.51 22.95-17.1 46.98c-2.5 6.97-11.27 31.04-6.99 37.08q2.22 3.15 6.68 2.42-.58 1.44.79 1.5 4.95.23 8.04 2.5l.01 3.31q.01.52-.31.93-1.53 2-4.25 1.87-17.8-.92-32.79-.36-.49.02-.95.18l-1 .36c-1.69-1.13-5.72-4.99-2.23-6.8 4.44-2.32 7.77-3.26 10.12-7.66q3.49-6.54 5.11-11.08 11.72-32.82 23.29-65.69 4.9-13.91 6.17-19.06 1.67-3.67-1.28-5.71-3.64-2.53-9.44-2.09c-4.12-3.27-4.57-7.67 1.8-7.69q20.84-.03 41.71 0 2.49.01 3.54 1.99l2.96 78.43q.02.49.35.12 4.65-5.3 6.82-11.2 2.09-1.04 2.7-2 33.1-52.03 42.19-65.3c1.43-2.08 37.41-2.12 42.39-2.16q.53-.01.91.37z" style="fill:#fff" transform="translate(38)"/><path d="M570.79 127.25c-.91 8-12.63 4.29-16.27 9.79q-2.08 3.13-3.92 9.67-11.36 40.19-22.6 80.41c-1.76 6.28-4.07 15.34 6.25 15.09q3.79 1.06 6.79 3.54-.67 2.65-2.64 4.39-.4.34-.92.35-30.36.36-60.73.34-1.58 0-2.77-2.21-.12-.22.06-.39l.21-.19 2.49-3.41q.32-.44.86-.52 7.92-1.23 11.36-2.88c3.01-1.44 3.64-4.36 4.77-8.23q12.77-43.86 25.19-87.82.26-.95.29-3.68c3.13-6.63-4.85-7.14-8.81-7.81q-.32-.05-.59.14l-.31.21q-3.15-2.59-1.26-5.93.25-.45.74-.58 2.67-.7 3.83-.73 27.35-.81 54.69-1.84 1.68-.06 3.29 2.29M635.85 276.81q3.43 8 4.8 14.75c4.28 20.97 2.63 64.24-30.16 61.47q-3.8-.32-7.91-2.98c-.6-.39-1.12-.33-1.79-.3q-8.67-8.85-11.02-20.49c-3.45-17.06-3.66-51.27 15.66-60.04 11.42-5.2 22.16-1.52 30.42 7.59m-26.64 66.94q.66.75.97.85c10.05 3.26 17.74-4 20-12.92q5.68-22.49-.39-45.18-.54-2.01-2.79-4.04l.12-.79q.08-.49-.26-.86c-12.65-13.54-25.21-2.32-27.8 11.51-2.67 14.21-4.13 39.37 8.24 50.87q.42.39 1.91.56M699.99 276.51q4.05 8.74 5.18 14.79c3.01 16.09 3.33 49.43-15.02 59.09-6.46 3.41-14.44 3.85-21.41.54q-1.56-.73-3.23-1.18-9.18-8.93-11.27-19.99c-3.6-19.01-4.19-62.96 25.91-62.77q11.6.08 19.84 9.52m-26.24 66.95q1.92 1.67 3.53 1.78c24.28 1.76 20.6-40.47 18.21-53.98q-.85-4.76-3.54-8.69-3.36-6.82-10.19-7.8c-19-2.72-19.87 26.76-19.61 38.15.2 8.62 1.15 28.17 11.6 30.54M764.04 276.14q4.12 8.52 5.54 15.3c3.81 18.22 3.18 54.7-20.8 61.11q-9.04 2.42-17.76-2.8-.31-.19-.67-.1l-.6.14q-11.49-12.12-12.54-28.99c-1.16-18.57-.56-50.27 24.24-53.62 9.31-1.25 16.01 2.33 22.59 8.96m-26.33 67.11c3.6 4.07 11.82 1.93 14.89-.93 10.3-9.57 9.41-30.32 8.34-43.41-.32-3.8-1.28-9.88-2.64-12.67q-.92-1.87-2.03-4.2-5.71-8.81-14.87-6.86c-16.64 3.54-15.9 33.79-14.63 45.93.6 5.77 3.63 20.88 10.94 22.14M568.04 274l-.05 48.33q0 .55.54.67 3.15.68 5.61-.04 1.98.03 3.1.68.45.26.53.79l.73 4.61q.27 1.03-.06 1.96-.22.6-.85.61l-9.09.19q-.5.01-.5.51v18.72q0 .63-.63.67l-3.92.27-3.69.01q-.56 0-.59-.55l-.69-13.2q.5-2.53-.18-5.72-.13-.62-.75-.62l-31.7-.17q-.41-.01-.77.21l-.54.32c-2.15-.83-5.14.79-5.59-2.72-.43-3.39.17-5.79 2.57-8.45q21.5-23.91 36.31-52.47.29-.55.91-.55h7.69q1.16 0 1.25 1.15zM531 322.21c.03 1.48 9.88.64 11.25.5q7.48.65 15.18.17.48-.03.54-.51 1.37-10.79.39-21.77.75-7.92-.39-15.9l.01-1.51a.24.24 0 0 0-.45-.12q-11.25 19.76-25.79 37.25-.31.37-.45.85z" style="fill:#fff" transform="translate(38)"/></g><g fill="#8b8b8a"><path d="M805.93 123.26c4.49 4.41 8.34 7.2 8.63 12.21q2.39 40.33 4.91 80.64c.42 6.69 1.38 17.52 1.53 26.35q-6.91-1.02-7.66-8.04c-1.41-13.05-1.7-27.73-2.64-39.89-1.84-23.99-2.73-48.44-4.77-71.27M328.7 124.26c4.13 2.89 7.7 6.68 8.14 11.96q.87 10.41 1.49 20.77 2.55 42.5 4.87 85.01.04.69.51 1.25c-6.21-1.53-7.73-5.49-8.26-11.75-3.01-35.68-4.06-71.55-6.75-107.24M432.29 127l7.37 6.49q.39.34.41.86l2.35 60q-2.17 5.9-6.82 11.2-.33.37-.35-.12zM608.79 127.25c3.54 2.1 12.77 9.47 3.54 12.39-4.82 1.53-9.24 1.71-12.35 5.84-1.96 2.6-3.3 8.8-4.2 11.91q-11.66 40.4-23.11 80.86c-.33 1.14-.37 2.78-.42 3.96-10.32.25-8.01-8.81-6.25-15.09q11.24-40.22 22.6-80.41 1.84-6.54 3.92-9.67c3.64-5.5 15.36-1.79 16.27-9.79M533.04 127.75q2.83 2.41 5.63 4.88c3.51 3.1 2.19 6.63-1.96 7.73-8.47 2.24-10.98 1.13-13.4 11.15-7.23 29.83-15.49 59.83-21.1 89.99q-4.46.23-7.13-3.2-.31-.4-.32-.9c-.13-7.25 1.41-13.59 3.06-20.59q8.86-37.61 18.08-75.13c2.94-11.99 15.86-4.1 17.14-13.93M725.04 127.75q4.39 3.42 7.84 8.03.31.41.17.91c-1.13 4.28-7.36 25.71-10.63 27.25-2.8 1.33-9.42-4.53-11.42-6.4q4.72-1.09 6.56-5.73 4.85-12.24 7.48-24.06M707.25 138.46q-5.29-.27-10.5.77c-29.4 5.84-54.42 26.38-63.38 55.35-4.84 15.63-4.51 30.79 2.67 45.13-15.46-11.8-15.99-33.87-11.02-50.93 9.57-32.86 39.66-55.67 73.46-57.93 3.94-.26 9.89 2.78 8.77 7.61M395.96 140.5q-5.93-2.97-10.72-7.8 5.8-.44 9.44 2.09 2.95 2.04 1.28 5.71M557.21 141.5q-5.31-3.13-9.71-7.46l.31-.21q.27-.19.59-.14c3.96.67 11.94 1.18 8.81 7.81M403.13 179.84q-6.16 14.24-11.1 28.92-4.28 12.72-7.59 25.72-.76 2.99-.48 6.02-4.46.73-6.68-2.42c-4.28-6.04 4.49-30.11 6.99-37.08q8.59-24.03 17.1-46.98.67-1.82.75.12zM473.87 183.94q-21.58 32.15-43.11 64.3c-7.51 11.21-13.14 9.83-22.01 1.05q7.3 1.13 11.51-5.06 30.46-44.82 60.52-90.04 1.3-1.95.79.34-3.12 14.2-7.7 29.41M301.8 174.89q-8.75 12.01-14.81 21.13-.62.93-1.03 2.48-6.41.64-12.94.09-.64-.05-.28-.59l27.7-41.07q.47-.7.51.14zM779.54 175.1q-8.3 10.3-15.24 21.52c-.37.6-.31 1.18-.37 1.9q-6.38.62-12.97-.06-.65-.07-.29-.61 12.83-19.29 25.77-38.4 1.11-1.64 1.94-2.5.43-.45.46.18z"/><path d="M724.79 196.5q4.18 3.16 7.22 7.51.29.42.09.88c-1.57 3.6-5.63 3.62-8.84 4.28-7.99 1.66-9.3 7.41-11.51 14.43q-2.67 8.49-4.43 17.56c-3.9 1.15-13.89 2.11-9.55 9.24q.41.68.94.08.35-.4.9.05.39.32.89.31c10.65-.28 21.27-.56 31.91-.02 4.82.24 13.44 1.25 12.63-5.07q3.67 2.97 6.73 6.55c2.73 3.21.6 5.69-3.05 5.71-13.61.06-26.98-.83-39.04.64-3.19.38-8.64-5.05-11.1-7.23q-.4-.36-.88-.11c-4.17 2.14-8.44 4.35-12.8 5.71-24.19 7.55-55.48 5.53-74.4-13.23l.41-.26q.37-.25.73.03c12.51 9.99 34.68 11.19 49.84 9.56 10.83-1.16 27.91-5.91 35.3-15.62q1.81-2.37 3.01-6.96 2.67-10.28 6.09-20.27c4.36-12.73 14.79-4.36 18.91-13.77M672.84 209.23q-6.88-2.25-11.61-7.48 2.79-.28 6.99.83 5.45 1.43 4.62 6.65M304.21 216.25l-29.25-.16a1.53 1.52-71.1 0 0-1.21.6q-8.91 11.64-14.25 25.46-2.31-.23-6.07-2.58c-3.73-2.32-1.84-6.71-.15-10.05q2.48-4.9 10.93-18.33c1.99-3.16 3-2.8 6.87-2.87q15.76-.27 31.5.13.54.01.7.52 1.16 3.62.93 7.28"/><path d="m781.71 216.25-29.62-.15q-.49 0-.78.4c-5.38 7.56-11.49 16.58-14.1 25.5-4.35-.42-10.05-3.73-7.63-9.09q5.78-12.79 14.03-24.17.28-.4.77-.4l36.29-.13q.48 0 .58.47.77 3.76.46 7.57M392.79 244.5q4.81 3.99 7.45 7.27c2.73 3.39-.94 6.07-4.29 5.91q-16.12-.76-32.27-.82c-4.81-.02-7.7-2.3-10.18-6.07l1-.36q.46-.16.95-.18 14.99-.56 32.79.36 2.72.13 4.25-1.87.32-.41.31-.93zM345.79 245.5c3.33 2.69 9.45 7.29 7.83 11.75a.95.95 0 0 1-.89.62q-21.99.17-43.98.46-2.91.04-9.07.7-.52.05-.93-.26-4.62-3.52-8.25-7.98 18.69.34 50.25-.4 2.58-.06 4.3-.73.54-.22.57-.8zM508.04 245.5l4.21 2.54-.21.19q-.18.17-.06.39 1.19 2.21 2.77 2.21 30.37.02 60.73-.34.52-.01.92-.35 1.97-1.74 2.64-4.39c1.95 1.51 8.04 6.88 7.6 9.52-.41 2.52-4.71 2.27-6.64 2.32-18.49.49-37.69-.65-56.02 1.14q-.58.06-1.03-.31l-6.21-4.99q-.45-.36-.68.17-2.07 4.62-6.37 4.37-20.16-1.18-42.94-.93-5.97.07-10.91.96-.5.1-.96-.16-4.92-2.73-8.63-7.15c16.5-.68 30.99-1.48 51.81-.01 4.06.28 9.22.36 9.98-5.18M267.75 246.29c3.47 3.11 7.87 6.02 7.15 9.87q-.08.47-.49.72-1.88 1.13-3.22 1.11c-13.34-.17-25.14-.56-39.44.79-5.03.48-10.33-4.37-13.5-7.89q13.93-.07 27.86-.34c5.06-.09 11.03.49 16.57.33 3.11-.09 4.6-1.7 5.07-4.59M827.54 246.25c3.14 2.56 6.49 5.11 7.46 8.06v1.75q-.6 1.94-3 1.94c-17.89-.02-36.34-.84-54.14 1.05a2.34 2.34 0 0 1-1.84-.62l-8.23-7.68c1.33.02 2.44.38 3.7.35q35.91-.7 51.77-.63 4.39.02 4.28-4.22M606.04 274l5.39.08q.59.01.59.61l.12 48.27q-2.46.72-5.61.04-.54-.12-.54-.67zM665 282.46c-10.16-5.13-18.58 4.46-20.77 13.53-3.15 13.04-4.69 35.97 2.98 47.76q-1.49-.17-1.91-.56c-12.37-11.5-10.91-36.66-8.24-50.87 2.59-13.83 15.15-25.05 27.8-11.51q.34.37.26.86zM729.95 282.57q-7.7-3.78-13.91 1.48c-7.89 6.69-8.81 17.38-9.59 27.1-.78 9.65-.18 23.95 5.3 32.31-10.45-2.37-11.4-21.92-11.6-30.54-.26-11.39.61-40.87 19.61-38.15q6.83.98 10.19 7.8M794.27 282.04q-10.5-2.42-16.35 4.05-3.77 4.16-5.66 13.89c-2.55 13.16-2.9 30.92 3.45 43.27-7.31-1.26-10.34-16.37-10.94-22.14-1.27-12.14-2.01-42.39 14.63-45.93q9.16-1.95 14.87 6.86"/><path d="M802.04 276.14c14.01 9.5 13.39 30.26 13.19 45.11-.16 11.96-3.18 25.4-12.7 33.25-10.59 8.73-26.65 6.26-34.78-4.71l.6-.14q.36-.09.67.1 8.72 5.22 17.76 2.8c23.98-6.41 24.61-42.89 20.8-61.11q-1.42-6.78-5.54-15.3M737.99 276.51c8.49 6.39 11.41 16.57 12.23 26.83q1.02 12.56.82 17.41c-.7 17.31-7.33 39.6-28.9 38.94q-11.24-.34-18.63-9.94 1.67.45 3.23 1.18c6.97 3.31 14.95 2.87 21.41-.54 18.35-9.66 18.03-43 15.02-59.09q-1.13-6.05-5.18-14.79M673.85 276.81c10.39 7.63 12.32 21.5 12.18 33.39-.15 13.2.76 23.61-5.23 35.34-8.7 17.02-30.16 19.21-42.01 4.21.67-.03 1.19-.09 1.79.3q4.11 2.66 7.91 2.98c32.79 2.77 34.44-40.5 30.16-61.47q-1.37-6.75-4.8-14.75M595.97 284.7q1.14 7.98.39 15.9l-16.11 22.11c-1.37.14-11.22.98-11.25-.5.22.09.38.05.53-.14q14.5-17.7 26.44-37.37M616.5 329.04l5.9-.01q.59-.01.59.58l.01 7.62q0 .58-.58.63c-2.41.21-10.26-1.06-10.31 2.44q-.13 8.51-.12 16.99 0 .68-.67.67l-8.06-.14q-.67-.01-.8-.67l-1.01-5.18 3.92-.27q.63-.04.63-.67v-18.72q0-.5.5-.51l9.09-.19q.63-.01.85-.61.33-.93.06-1.96M596.48 338.23l-32.76-.19q-.58 0-.64-.58l-.54-5.21.54-.32q.36-.22.77-.21l31.7.17q.62 0 .75.62.68 3.19.18 5.72"/></g><g style="fill:#8b8b8a;fill-opacity:.898039"><path d="M97.306 126.459H73.637L28.491 59.393h23.887z" style="fill:#8b8b8a;fill-opacity:.898039" transform="matrix(1.94391 0 0 1.9635 18.615 8.587)"/><path d="M97.553 126.459H74.98L158.261.001h23.669z" style="fill:#8b8b8a;fill-opacity:.898039" transform="matrix(1.94391 0 0 1.9635 18.615 8.587)"/></g><g style="fill:#8b8b8a;fill-opacity:1"><path d="M68.816 126.458H45.147L0 59.393h23.889z" style="fill:#8b8b8a;fill-opacity:1" transform="matrix(1.94391 0 0 1.9635 18.615 8.587)"/><path d="M69.063 126.458H46.489L129.769 0h23.669z" style="fill:#8b8b8a;fill-opacity:1" transform="matrix(1.94391 0 0 1.9635 18.615 8.587)"/></g><path d="M97.306 126.459H73.637L28.491 59.393h23.887z" style="fill:url(#e)" transform="matrix(1.94391 0 0 1.9635 3.713 .585)"/><path d="M97.553 126.459H74.98L158.261.001h23.669z" style="fill:url(#f)" transform="matrix(1.94391 0 0 1.9635 3.713 .585)"/><path d="M68.816 126.458H45.147L0 59.393h23.889z" style="fill:url(#g)" transform="matrix(1.94391 0 0 1.9635 3.713 .585)"/><path d="M69.063 126.458H46.489L129.769 0h23.669z" style="fill:url(#h)" transform="matrix(1.94391 0 0 1.9635 3.713 .585)"/></svg>