<svg xmlns="http://www.w3.org/2000/svg" xml:space="preserve" viewBox="-64 344.8 600.505 131.065"><g aria-label="500" style="font-style:normal;font-variant:normal;font-weight:400;font-stretch:normal;font-size:54.27433777px;line-height:1.25;font-family:BoobToob;-inkscape-font-specification:&quot;BoobToob, Normal&quot;;font-variant-ligatures:discretionary-ligatures historical-ligatures;font-variant-caps:normal;font-variant-numeric:normal;font-feature-settings:normal;text-align:start;letter-spacing:0;word-spacing:0;writing-mode:lr-tb;text-anchor:start;fill:red;fill-opacity:1;stroke:none;stroke-width:.81411511"><path d="M-11.4 344.8c-29.1 0-52.6 23.6-52.6 52.6 0 29.1 23.6 52.6 52.6 52.6 5.6 0 11-.9 16-2.5v-26.3c-4.4 2.5-9.5 4-14.9 4-16 0-28.9-12.5-28.9-27.8s13-27.8 28.9-27.8c5.5 0 10.6 1.5 14.9 4v-26.3c-5-1.6-10.4-2.5-16-2.5m38.1 50.9H5.1v-18.3h39.2z" style="fill:#025" transform="translate(15.735 -84.773)scale(1.24586)"/><path d="M26.7 399.4H5.1v18.3h39.2z" style="fill:red" transform="translate(15.735 -84.773)scale(1.24586)"/><path d="M110.6 391.1c5 0 9-1.4 12.2-4 3.2-2.7 4.8-6.4 4.9-11.3-.1-4.9-1.7-8.7-4.9-11.4s-7.2-4-12.2-4-9 1.4-12.2 4-4.8 6.5-4.9 11.4c.1 4.9 1.7 8.7 4.9 11.3s7.2 4 12.2 4m0-7.1c-2.3-.1-4-.9-5.1-2.5s-1.6-3.5-1.5-5.8c0-2.3.5-4.2 1.5-5.8s2.7-2.4 5.1-2.5c2.3.1 4 .9 5.1 2.5s1.6 3.5 1.5 5.8c0 2.2-.5 4.2-1.5 5.8-1.1 1.6-2.8 2.4-5.1 2.5m21.2 6.4H142V378c0-3.1.5-5.5 1.5-7s2.4-2.2 4.2-2.2c1.4 0 2.5.6 3.1 1.7s1 2.5 1 4.2v15.8H162v-12.4c0-3.1.5-5.5 1.5-7s2.4-2.2 4.2-2.2c1.4 0 2.5.6 3.1 1.7s1 2.5 1 4.2v15.8H182v-17.3c.1-4-.6-7.1-2-9.4-1.4-2.2-4.2-3.4-8.4-3.4-2.1 0-4.1.4-5.9 1.3s-3.3 2.3-4.5 4.3c-.8-1.9-2-3.3-3.6-4.3-1.6-.9-3.5-1.4-5.6-1.4-2.3 0-4.5.5-6.3 1.5-1.9 1-3.3 2.5-4.4 4.6h-.1v-5.4h-9.3zm55.7 0h10.2V378c0-3.1.5-5.5 1.5-7s2.4-2.2 4.2-2.2c1.4 0 2.5.6 3.1 1.7s1 2.5 1 4.2v15.8h10.2v-12.4c0-3.1.5-5.5 1.5-7s2.4-2.2 4.2-2.2c1.4 0 2.5.6 3.1 1.7s1 2.5 1 4.2v15.8h10.2v-17.3c.1-4-.6-7.1-2-9.4-1.4-2.2-4.2-3.4-8.4-3.4-2.1 0-4.1.4-5.9 1.3s-3.3 2.3-4.5 4.3c-.8-1.9-2-3.3-3.6-4.3-1.6-.9-3.5-1.4-5.6-1.4-2.3 0-4.5.5-6.3 1.5-1.9 1-3.3 2.5-4.4 4.6h-.1v-5.4h-9.3zm71.3.7c5 0 9-1.4 12.2-4 3.2-2.7 4.8-6.4 4.9-11.3-.1-4.9-1.7-8.7-4.9-11.4s-7.2-4-12.2-4-9 1.4-12.2 4-4.8 6.5-4.9 11.4c.1 4.9 1.7 8.7 4.9 11.3s7.3 4 12.2 4m0-7.1c-2.3-.1-4-.9-5.1-2.5s-1.6-3.5-1.5-5.8c0-2.3.5-4.2 1.5-5.8s2.7-2.4 5.1-2.5c2.3.1 4 .9 5.1 2.5s1.6 3.5 1.5 5.8c0 2.2-.5 4.2-1.5 5.8-1.1 1.6-2.7 2.4-5.1 2.5m52.9-35.9h-10.2v16.7h-.1c-1.3-1.7-2.8-2.8-4.5-3.5s-3.6-1-5.6-1c-4.1.2-7.2 1.7-9.3 4.7s-3.2 6.4-3.2 10.1c0 4.5 1.2 8.2 3.4 11.2 2.3 3 5.6 4.6 10 4.7 2.4 0 4.5-.6 6.3-1.7s3.1-2.5 3.8-4.2h.1v5.3h9.4zm-22.6 27.3c0-2 .5-3.7 1.6-5.1s2.6-2.1 4.6-2.2c1.9 0 3.4.8 4.5 2.2s1.7 3.2 1.7 5.5c0 2.2-.7 4-1.8 5.4s-2.6 2.1-4.4 2.1c-1.9 0-3.4-.8-4.5-2.2s-1.7-3.3-1.7-5.7m43.5 15.7c5 0 9-1.4 12.2-4 3.2-2.7 4.8-6.4 4.9-11.3-.1-4.9-1.7-8.7-4.9-11.4s-7.2-4-12.2-4-9 1.4-12.2 4c-3.2 2.7-4.8 6.5-4.9 11.4.1 4.9 1.7 8.7 4.9 11.3s7.3 4 12.2 4m0-7.1c-2.3-.1-4-.9-5.1-2.5-1-1.6-1.6-3.5-1.5-5.8 0-2.3.5-4.2 1.5-5.8s2.7-2.4 5.1-2.5c2.3.1 4 .9 5.1 2.5 1 1.6 1.6 3.5 1.5 5.8 0 2.2-.5 4.2-1.5 5.8s-2.7 2.4-5.1 2.5m42.8-23.3c-.5-.1-1.1-.2-1.7-.2-.6-.1-1.2-.1-1.8-.1-2.2 0-4 .6-5.3 1.7-1.4 1.1-2.5 2.6-3.4 4.4h-.1v-5.4h-9.3v29.4H364v-12.4c0-2.9.6-5.2 1.9-6.8s3.1-2.4 5.5-2.4h1.7c.6 0 1.1.1 1.7.3zm31.9 18v-1.9c.1-4.5-1.1-8.4-3.3-11.5-2.3-3.2-6.1-4.8-11.5-5-4.7 0-8.4 1.4-11.3 4-2.9 2.7-4.4 6.4-4.4 11.3.1 4.9 1.7 8.7 4.9 11.3 3.2 2.7 7.2 4 12.2 4.1 1.9 0 3.8-.1 5.6-.4s3.6-.8 5.2-1.4V382c-1.5.8-3.1 1.4-4.6 1.7-1.5.4-3 .5-4.4.5-2.5 0-4.5-.4-6-1.3s-2.4-2.3-2.7-4.3zm-20.5-5.8c.1-1.7.6-3.2 1.5-4.3.9-1.2 2.3-1.8 4.1-1.8 2 0 3.5.6 4.3 1.8.9 1.2 1.3 2.6 1.3 4.3zm-315 17.8c-4.4-1.2-7.8-3.2-10.6-6.3s-4.1-5.9-4.9-10.9c-1.5-9.8 2.7-18.8 10.8-22.7 4.1-2 9.6-3 15.1-3 3.4 0 6.4.6 9.2 1.1l-.9 8.8s-.7-.2-2.7-.7c-1.9-.5-3.8-.7-5.7-.7-3.8 0-7.5 1-9.9 2.9-5.7 4.4-5.7 15.9.2 20.7 3.6 3 10.1 4 15.9 2.5l2.7-.7.8 8.9c-1.7.4-5.3 1.1-9.7 1.1-5.8 0-7.6-.2-10.3-1M49 395.8h369v3H49z" style="fill:#025" transform="translate(15.735 -84.773)scale(1.24586)"/><path d="M104.7 443.9c0-.5-.1-.9-.4-1-.3-.2-.6-.3-1.1-.3-1.6-.3-2.5-.9-2.8-1.8-.3-1-.4-2.2-.4-3.7l-1.6-30.8c0-1.1-.1-2-.3-2.8-.2-.7-.9-1.1-2.2-1.2-1.1 0-1.9.4-2.4 1s-1 1.4-1.6 2.2l-19.8 27.8-3.3 4.7c-.7 1-1.4 1.9-2.1 2.8-.8.9-1.8 1.4-3 1.6-.7.1-1.3.2-1.9.4s-.9.7-1 1.5c0 .5.2.8.5.9s.7.2 1.1.2c1.1 0 2.3-.1 3.5-.2s2.3-.2 3.5-.2c1.1 0 2.1.1 3.1.2s2.1.1 3.1.2c.5 0 .9-.1 1.3-.3s.6-.6.6-1.1c-.1-.8-.5-1.2-1.4-1.3s-1.7-.3-2.6-.5-1.3-.8-1.4-1.9c.2-1.1.9-2.7 2.2-4.7s2.2-3.5 2.8-4.3h12.3c.1 1.3.1 2.6.2 3.9s.1 2.6.1 3.9c-.1 1.8-.5 2.9-1.4 3.2s-1.8.5-2.6.5c-.9 0-1.4.6-1.4 1.5 0 .4.1.7.4.9s.6.2 1 .2c1.7 0 3.4-.1 5.1-.2s3.4-.2 5.1-.2c1.1 0 2.3.1 3.4.1 1.1.1 2.3.1 3.4.1.5 0 1-.1 1.3-.2.5-.2.7-.5.7-1.1m-15.2-15.7H79.2l9.8-14.3Zm104.6-23.5c0-.4-.1-.6-.4-.8q-.3-.3-.9-.3c-.6 0-1.1 0-1.6.1-.5 0-1.1.1-1.6.2-1.4.1-2.7.2-4.1.3h-4.2c-1 0-2-.1-3.1-.1-1-.1-2-.1-3.1-.1-.5 0-.9.1-1.3.4q-.6.45-.6 1.2c.2.9.9 1.4 2.1 1.3s1.9.5 2.1 1.6c0 .3 0 .6-.1 1-.1.3-.2.6-.3 1l-7.8 27c-.3 1.3-.6 2.4-1 3.3s-1.2 1.5-2.5 1.8c-.6.1-1.3.2-2.1.4s-1.3.7-1.3 1.4c0 .4.2.7.5.9s.7.3 1.1.3c1.3 0 2.7-.1 4-.2 1.4-.1 2.7-.2 4.1-.2 1.5 0 2.9.1 4.4.2s2.9.1 4.4.2c.6 0 1.3 0 2.1-.1s1.2-.5 1.3-1.3c-.1-.8-.5-1.2-1.2-1.3s-1.5-.2-2.2-.4q-1.05-.3-1.2-2.1c0-.5.1-1 .2-1.5s.3-1 .4-1.5l7.8-27.1c.3-1.1.6-1.9 1-2.4s1.2-.9 2.3-1.1c.6-.1 1.2-.2 1.9-.5.5-.5.8-.9.9-1.6m40.6.3c-.1-.7-.8-1.1-2-1.4-1.3-.3-2.6-.4-4-.5s-2.3-.1-2.8-.1c-5.2 0-10.6 1.1-16.2 3.1-5.6 2.1-10.4 5.1-14.4 9.1s-6.1 8.9-6.2 14.7c.1 3.7 1.1 6.7 3.2 9.1s4.6 4.2 7.8 5.4c3.1 1.2 6.3 1.8 9.7 1.8 2 0 4-.1 6.1-.4 2-.2 4-.6 6-1.1.7-.1 1.4-.3 1.9-.6q.75-.3 1.2-1.5c.5-1.5 1-3.1 1.5-4.7s.9-3.2 1.3-4.7c.7-2.2 1.6-3.6 2.6-4q1.5-.6 2.7-.6t1.2-1.5c0-.4-.2-.7-.5-.9s-.7-.3-1-.3c-1.5 0-3.1.1-4.6.2-1.6.1-3.1.2-4.7.2-1.5 0-3-.1-4.4-.2-1.5-.1-3-.2-4.4-.2-.5 0-1 .1-1.4.3-.5.2-.7.6-.7 1.1q.15 1.05 1.2 1.2c.8.1 1.5.2 2.3.5.8.2 1.2.9 1.2 2-.1 1.2-.4 2.7-1.1 4.8-.6 2-1.2 3.6-1.6 4.9-.2.9-.6 1.6-1 2q-.6.6-2.1.6c-3.6-.1-6.4-1.2-8.2-3.5-1.9-2.3-2.8-5.1-2.8-8.6 0-3.2.7-6.4 2-9.4s3.1-5.7 5.3-8c2.2-2.2 5-4.1 8.2-5.7 3.3-1.6 6.5-2.4 9.7-2.5 1.5 0 2.4.3 2.8.9.3.6.5 1.6.4 3 0 .4 0 .7-.1 1.1 0 .4-.1.7-.1 1.1 0 .6.1 1.2.3 1.7s.7.8 1.4.8c.8-.1 1.3-.4 1.7-1.1s.6-1.4.8-2c.2-.5.5-1.5 1-3.1.4-1.6.7-2.6.8-3m35.4 38.9c0-.5-.1-.9-.4-1-.3-.2-.6-.3-1.1-.3-1.6-.3-2.5-.9-2.8-1.8-.3-1-.4-2.2-.4-3.7l-1.6-30.8c0-1.1-.1-2-.3-2.8-.2-.7-.9-1.1-2.2-1.2-1.1 0-1.9.4-2.4 1s-1 1.4-1.6 2.2l-19.8 27.8-3.3 4.7c-.7 1-1.4 1.9-2.1 2.8-.8.9-1.8 1.4-3 1.6-.7.1-1.3.2-1.9.4s-.9.7-1 1.5c0 .5.2.8.5.9s.7.2 1.1.2c1.1 0 2.3-.1 3.5-.2s2.3-.2 3.5-.2c1.1 0 2.1.1 3.1.2 1.1.1 2.1.1 3.1.2.5 0 .9-.1 1.3-.3s.6-.6.6-1.1c-.1-.8-.5-1.2-1.4-1.3s-1.7-.3-2.6-.5-1.3-.8-1.4-1.9c.2-1.1.9-2.7 2.2-4.7s2.2-3.5 2.8-4.3h12.4c.1 1.3.1 2.6.2 3.9s.1 2.6.1 3.9c-.1 1.8-.5 2.9-1.4 3.2s-1.8.5-2.6.5c-.9 0-1.4.6-1.4 1.5 0 .4.1.7.4.9s.6.2 1 .2c1.7 0 3.4-.1 5.1-.2s3.4-.2 5.1-.2c1.1 0 2.3.1 3.4.1 1.1.1 2.3.1 3.4.1.5 0 1-.1 1.3-.2.4-.2.6-.5.6-1.1m-15.3-15.7h-10.3l9.8-14.3zm-86.9-23.3c0-.4-.1-.7-.4-.9q-.3-.3-.9-.3c-1.3 0-2.6 0-3.9.1s-2.6.1-3.9.1c-.7 0-1.7-.1-3.1-.1s-2.3.1-2.8.5c-.1.1-.2.3-.2.4-.1.2-.2.3-.2.4l-17 25.7-.7-25.3c0-.5 0-.9-.1-1.2-.1-.4-.4-.5-.9-.6-1.4 0-2.9 0-4.3.1h-4.3c-.8 0-1.6-.1-2.4-.1-.8-.1-1.6-.1-2.4-.1-.5 0-1 .1-1.5.2-.5.2-.7.5-.8 1.1.2 1 1 1.5 2.3 1.4 1.4 0 2.1.5 2.3 1.4 0 .7-.2 1.4-.4 2.1-.3.7-.5 1.4-.7 2-1.5 4.2-3 8.3-4.5 12.5s-3 8.3-4.6 12.5c-.6 1.8-1.2 3-1.8 3.7s-1.8 1.2-3.7 1.5c-.5.1-1 .2-1.4.5q-.6.3-.6 1.2c0 .5.2.8.5 1 .3.1.7.2 1.2.2 1.1 0 2.2 0 3.3-.1s2.2-.1 3.3-.1c1 0 2 .1 3 .2s2 .1 3 .2c.5 0 .9-.1 1.3-.3s.6-.6.7-1.1c-.1-.9-.5-1.3-1.4-1.4s-1.8-.2-2.7-.4-1.4-1-1.4-2.4q.15-2.85 2.1-8.7c1.3-3.8 2.6-7.6 4.1-11.2 1.4-3.6 2.4-6 2.9-7.3l.7 29.4c0 .9.1 1.6.3 2.2.2.5.8.8 1.8.8s1.8-.4 2.4-1.1 1.1-1.4 1.6-2.2l19.8-29.1-6.5 24.6c-.2 1.1-.5 2.1-.9 3.2s-1.2 1.7-2.3 2c-.7 0-1.4.2-2.2.3-.8.2-1.3.7-1.4 1.5 0 .5.2.8.5 1s.7.3 1.1.3c1.4 0 2.9-.1 4.3-.2s2.9-.2 4.3-.2c1.5 0 3 .1 4.4.2 1.5.1 3 .2 4.4.2.6 0 1-.1 1.5-.3.4-.2.7-.6.7-1.2-.1-.7-.4-1.2-1.1-1.3s-1.4-.3-2.1-.5-1.1-.8-1.1-1.9c0-.7.1-1.5.3-2.3s.3-1.5.5-2.2l6.3-25.3c.2-1.1.5-2 .9-2.6s1.1-1 2.3-1.2c.6 0 1.2-.2 1.8-.4.3.1.7-.3.7-1.1" style="fill:red" transform="translate(15.735 -84.773)scale(1.24586)"/></g><g aria-label="600" style="font-size:78.8314px;font-family:Bahnschrift;-inkscape-font-specification:&quot;Bahnschrift, Normal&quot;;display:inline;fill:#025;stroke:none;stroke-width:1.2"><g style="display:inline;stroke:none"><path d="M383.447 508.4q-4.927 0-8.43-1.962-3.502-2.002-5.35-5.774-1.81-3.811-1.81-9.161v-.039q0-3.118.732-6.543t2.117-6.737q.231-.577.5-1.116.27-.577.54-1.116l12.163-24.096h8.468l-14.28 27.907.038-1.386q.963-1.81 2.81-2.81 1.848-1 4.311-1 4.35 0 7.468 1.962 3.117 1.963 4.734 5.736 1.617 3.733 1.617 9.007v.038q0 5.39-1.848 9.238-1.809 3.85-5.35 5.851-3.503 2.002-8.43 2.002m0-7.544q3.734 0 5.735-2.31 2.04-2.309 2.04-6.581v-.039q0-4.696-2.117-7.236-2.117-2.58-6.043-2.58-3.503 0-5.427 2.58-1.925 2.579-1.925 7.275v.038q0 4.273 2.002 6.582 2.04 2.271 5.735 2.271" style="font-size:78.8314px;font-family:Bahnschrift;-inkscape-font-specification:&quot;Bahnschrift, Normal&quot;;display:inline;fill:#025;stroke:none;stroke-width:1.2;color:#000;-inkscape-stroke:none" transform="scale(1.08248 .9238)"/><path d="m383.54 451.256-12.331 24.426v.002q-.27.54-.54 1.117-.278.557-.517 1.152a38.5 38.5 0 0 0-2.15 6.842q-.743 3.48-.744 6.67v.037c0 3.635.614 6.781 1.867 9.42l.002.002.002.004c1.28 2.612 3.153 4.639 5.59 6.031h.004l.002.002c2.368 1.327 5.205 1.971 8.445 2.01l.03.03h.247c3.365 0 6.285-.685 8.725-2.079l.002-.002c2.465-1.394 4.343-3.452 5.596-6.117 1.277-2.664 1.904-5.834 1.904-9.492v-.04c0-3.576-.547-6.662-1.666-9.245-1.118-2.608-2.78-4.629-4.965-6.004s-4.797-2.055-7.787-2.055c-1.462 0-2.76.311-3.943.828l12.045-23.539Zm.737 1.2h7.12l-12.057 23.562c-.9 1.087-.549 2.284.953.767.3-.24.58-.497.937-.691 1.134-.614 2.465-.928 4.026-.928 2.81 0 5.176.63 7.148 1.871s3.465 3.042 4.502 5.463v.002l.002.002c1.037 2.395 1.567 5.313 1.567 8.768v.039c0 3.524-.605 6.51-1.79 8.978v.002l-.001.002c-1.16 2.466-2.846 4.31-5.102 5.584h-.002v.002c-2.23 1.274-4.93 1.922-8.133 1.922-3.205 0-5.906-.637-8.137-1.887-2.23-1.275-3.918-3.094-5.101-5.507-1.16-2.443-1.752-5.406-1.752-8.905v-.037q0-3.048.719-6.42a37.3 37.3 0 0 1 2.084-6.629l.002-.004.002-.004q.222-.556.48-1.072l.002-.006.004-.008q.266-.57.531-1.1v-.002zm-1.215 29.054c-2.482 0-4.52.961-5.908 2.82-1.387 1.86-2.045 4.422-2.045 7.635v.039c0 2.942.694 5.296 2.149 6.975l.004.004.004.004c1.48 1.648 3.595 2.47 6.181 2.47 2.611 0 4.73-.837 6.186-2.513l.002-.002c1.48-1.678 2.188-4.034 2.188-6.977v-.04c0-3.218-.728-5.783-2.254-7.616-1.527-1.86-3.757-2.8-6.506-2.8zm0 1.2c2.487 0 4.285.782 5.58 2.36v.002l.003.002c1.295 1.554 1.978 3.811 1.978 6.852v.039c0 2.753-.652 4.783-1.89 6.186l-.003.002-.002.002c-1.213 1.4-2.915 2.101-5.28 2.101-2.338 0-4.045-.692-5.284-2.068-1.213-1.401-1.853-3.431-1.853-6.184v-.039c0-3.049.626-5.337 1.804-6.916 1.179-1.58 2.76-2.338 4.947-2.338z" style="color:#000;-inkscape-font-specification:&quot;Bahnschrift, Normal&quot;;display:inline;fill:#f9fafb;stroke:none;-inkscape-stroke:none" transform="scale(1.08248 .9238)"/></g><g style="display:inline;stroke:none"><path d="M425.442 508.4q-7.853 0-11.933-4.195-4.041-4.196-4.041-11.702V467.06q0-7.544 4.08-11.701 4.08-4.196 11.894-4.196 7.852 0 11.894 4.157 4.08 4.157 4.08 11.74v25.443q0 7.545-4.08 11.74-4.08 4.158-11.894 4.158m0-7.467q4.157 0 6.12-2.155 2.002-2.194 2.002-6.275V467.06q0-4.08-1.964-6.235-1.963-2.194-6.158-2.194t-6.159 2.194q-1.963 2.155-1.963 6.235v25.443q0 4.08 1.963 6.275 2.002 2.155 6.159 2.155" style="font-size:78.8314px;font-family:Bahnschrift;-inkscape-font-specification:&quot;Bahnschrift, Normal&quot;;display:inline;fill:#025;stroke:none;stroke-width:1.2;color:#000;-inkscape-stroke:none" transform="scale(1.08248 .9238)"/><path d="M425.441 450.563c-5.315 0-9.468 1.443-12.322 4.376-2.847 2.901-4.252 6.984-4.252 12.122v25.443c0 5.112 1.39 9.191 4.21 12.117l.001.002c2.854 2.935 7.022 4.377 12.363 4.377 5.316 0 9.469-1.428 12.323-4.336l.002-.002c2.845-2.926 4.25-7.02 4.25-12.158V467.06c0-5.162-1.404-9.257-4.25-12.159-2.83-2.91-6.984-4.34-12.324-4.34zm0 1.2c5.13 0 8.906 1.343 11.465 3.975v.002h.002c2.593 2.642 3.908 6.373 3.908 11.32v25.444c0 4.92-1.314 8.65-3.908 11.318h-.002v.002c-2.586 2.634-6.363 3.977-11.465 3.977-5.126 0-8.914-1.354-11.5-4.012l-.002-.002c-2.569-2.668-3.87-6.388-3.87-11.283v-25.443c0-4.922 1.315-8.64 3.908-11.282v-.002h.002c2.586-2.66 6.36-4.013 11.462-4.013m0 6.268c-2.899 0-5.15.77-6.601 2.389l-.002.002c-1.435 1.576-2.117 3.823-2.117 6.639v25.443c0 2.816.683 5.073 2.115 6.674l.004.004.004.004c1.475 1.589 3.722 2.347 6.598 2.347s5.113-.758 6.564-2.351c1.46-1.6 2.158-3.86 2.158-6.678v-25.443c0-2.815-.683-5.06-2.117-6.637-1.45-1.62-3.704-2.393-6.605-2.393zm0 1.2c2.693 0 4.544.69 5.711 1.994l.002.002.002.002c1.182 1.297 1.807 3.208 1.807 5.832v25.443c0 2.622-.634 4.543-1.844 5.87-1.167 1.28-3.01 1.96-5.677 1.96-2.665 0-4.52-.679-5.713-1.96-1.184-1.326-1.809-3.248-1.809-5.87v-25.443c0-2.624.625-4.535 1.807-5.832l.002-.002.002-.002c1.167-1.305 3.018-1.995 5.71-1.995z" style="font-size:78.8314px;font-family:Bahnschrift;-inkscape-font-specification:&quot;Bahnschrift, Normal&quot;;display:inline;fill:#f9fafb;stroke:none;stroke-width:1.2;color:#000;-inkscape-stroke:none" transform="scale(1.08248 .9238)"/></g><g style="display:inline;stroke:none"><path d="M467.398 508.4q-7.852 0-11.933-4.195-4.041-4.196-4.041-11.702V467.06q0-7.544 4.08-11.701 4.08-4.196 11.894-4.196 7.852 0 11.894 4.157 4.08 4.157 4.08 11.74v25.443q0 7.545-4.08 11.74-4.08 4.158-11.894 4.158m0-7.467q4.157 0 6.12-2.155 2.002-2.194 2.002-6.275V467.06q0-4.08-1.963-6.235-1.963-2.194-6.16-2.194-4.195 0-6.158 2.194-1.963 2.155-1.963 6.235v25.443q0 4.08 1.963 6.275 2.002 2.155 6.159 2.155" style="color:#000;font-size:78.8314px;font-family:Bahnschrift;-inkscape-font-specification:&quot;Bahnschrift, Normal&quot;;display:inline;fill:#025;stroke:none;stroke-width:1.2;-inkscape-stroke:none" transform="scale(1.08248 .9238)"/><path d="M467.398 450.563c-5.315 0-9.468 1.443-12.322 4.376-2.847 2.901-4.252 6.984-4.252 12.122v25.443c0 5.112 1.39 9.191 4.21 12.117l.001.002c2.854 2.935 7.022 4.377 12.363 4.377 5.316 0 9.469-1.428 12.323-4.336v-.002h.002c2.845-2.926 4.25-7.02 4.25-12.158V467.06c0-5.162-1.404-9.257-4.25-12.159-2.83-2.91-6.984-4.34-12.324-4.34m0 1.2c5.13 0 8.904 1.343 11.463 3.975l.002.002c2.593 2.642 3.909 6.373 3.909 11.32v25.444c0 4.92-1.315 8.65-3.909 11.318h-.002v.002c-2.586 2.634-6.361 3.977-11.463 3.977-5.126 0-8.914-1.354-11.5-4.012l-.002-.002c-2.569-2.668-3.873-6.388-3.873-11.283v-25.443c0-4.922 1.316-8.64 3.909-11.282l.002-.002c2.586-2.66 6.363-4.013 11.464-4.013m0 6.268c-2.901 0-5.155.772-6.605 2.393-1.434 1.576-2.117 3.822-2.117 6.637v25.443c0 2.816.685 5.073 2.117 6.674l.002.004.004.004c1.475 1.589 3.724 2.347 6.6 2.347s5.111-.758 6.562-2.351c1.46-1.6 2.158-3.86 2.158-6.678v-25.443c0-2.815-.682-5.063-2.117-6.639-1.45-1.62-3.703-2.39-6.603-2.39zm0 1.2c2.693 0 4.544.69 5.711 1.994l.002.002.002.002c1.182 1.297 1.807 3.208 1.807 5.832v25.443c0 2.622-.636 4.543-1.846 5.87-1.166 1.28-3.008 1.96-5.675 1.96s-4.524-.679-5.717-1.963c-1.183-1.325-1.805-3.246-1.805-5.867v-25.443c0-2.624.625-4.535 1.807-5.832l.002-.002v-.002c1.167-1.305 3.02-1.995 5.713-1.995z" style="font-size:78.8314px;font-family:Bahnschrift;-inkscape-font-specification:&quot;Bahnschrift, Normal&quot;;display:inline;fill:#f9fafb;stroke:none;stroke-width:0;color:#000;fill-opacity:1;stroke-dasharray:none" transform="scale(1.08248 .9238)"/></g></g></svg>