<svg xmlns="http://www.w3.org/2000/svg" viewBox="0 0 720 200"><text x="433.428" y="130.991" font-size="2" style="font-size:1.60876203px;font-family:ArialMT;fill:#f9f9f9;stroke-width:.80438101" transform="scale(1.05109 .9514)">I don’t like bugs!</text><g style="fill:#f9f9f9"><path d="M342.455 152.604q1.931 6.149 3.513 9.836 1.58 3.69 5.094 5.972 2.459 1.757 4.479 2.02t2.021 1.845q0 2.46-3.688 2.459-2.285 0-5.884-.527-3.601-.526-8.87-.526-7.377 0-11.856.438-4.479.44-6.235.439-2.986 0-2.985-2.107-.002-2.81 3.513-2.811 4.388.001 5.796-.878 1.405-.876 1.405-3.338 0-2.28-1.581-7.903l-6.85-22.482q-.354-1.405-2.635-1.405h-21.779q-.528.001-1.142.439c-.396.27-.678.677-.791 1.142l-4.215 15.632q-2.635 10.364-2.635 13.524 0 2.636 1.054 3.513 1.052.881 3.513 1.229 3.512.53 5.27 1.229 1.755.705 1.757 2.635-.001 2.108-2.986 2.108-1.935 0-5.796-.527-3.866-.528-9.485-.527-3.865.001-6.762.439c-1.933.291-3.54.439-4.83.439q-3.162 0-3.162-2.283 0-1.405.879-1.845c.587-.291 1.316-.497 2.195-.614q1.404-.184 2.81-.352 1.491-.174 2.898-1.229 2.458-1.754 3.688-5.006 1.227-3.248 2.635-7.992l27.927-90.631q.702-1.93 1.142-3.074.436-1.141 1.845-1.142 1.93.002 2.459 2.283.527 2.285 1.757 5.973zm-36.183-60.948q-.703.001-1.054 1.405l-8.255 31.089a5.2 5.2 0 0 0-.176 1.229v.526q0 1.055 1.229 1.055h17.564q.527 0 1.054-.439.527-.438.527-.966 0-.349-.352-1.757l-9.484-30.562q-.525-1.579-1.053-1.58" style="fill:#f9f9f9" transform="matrix(.84547 0 0 .76529 -24.949 -6.99)"/><path d="M375.827 105.884q0 1.23.527 1.229.525.002 1.405-.879l1.756-2.107q4.566-5.27 9.31-7.641 4.74-2.37 10.362-2.371 5.796 0 11.065 2.811t9.134 7.903q3.862 5.095 6.147 12.471 2.282 7.377 2.283 16.335-.002 9.84-2.646 17.916-2.643 8.08-7.401 13.963-4.758 5.887-11.277 9.134-6.522 3.248-14.452 3.249c-5.521 0-10.635-1.348-15.333-4.039l-.705.526-.173 24.941q-.001 3.16.524 4.742.526 1.58 2.635 2.459 1.754.877 3.425 1.054 1.666.173 2.81.352c.761.115 1.375.352 1.845.702q.701.528.702 2.108 0 2.458-3.688 2.459c-11.425-.18-20.99-.114-29.858 0q-3.162 0-3.162-2.811-.001-2.461 1.933-2.459 1.931 0 4.566-1.054 2.283-.88 3.073-2.459.79-1.582.791-5.094v-79.391q-.002-4.742-1.229-6.323-1.232-1.58-2.723-2.02-1.494-.437-2.723-.527c-.82-.058-4.03 2.616-4.03 1.444 0-1.405 3.707-5.717 5.524-6.362 6.602-4.476 8.69-5.914 14.139-9.923q2.281-2.634 3.689-2.634 1.755 0 1.756 3.688zm3.881 63.033q3.705 4.063 10.412 4.062 5.117 0 9.353-2.47 4.237-2.47 7.325-6.977 3.087-4.503 4.765-10.771 1.675-6.265 1.677-13.684 0-15.714-6.62-24.365-6.618-8.653-16.675-8.653-7.413.001-10.679 4.328-3.263 4.327-3.263 13.151v32.843q.002 8.476 3.705 12.536m76.036-63.033q0 1.23.527 1.229.525.002 1.405-.879l1.756-2.107q4.566-5.27 9.31-7.641 4.74-2.37 10.362-2.371 5.797 0 11.065 2.811 5.269 2.811 9.134 7.903 3.862 5.095 6.147 12.471 2.282 7.377 2.283 16.335-.002 9.84-2.646 17.916-2.643 8.08-7.401 13.963-4.758 5.887-11.277 9.134-6.522 3.248-14.452 3.249c-5.521 0-10.635-1.348-15.333-4.039l-.705.526-.173 24.941q-.001 3.16.524 4.742.526 1.58 2.635 2.459 1.754.877 3.425 1.054 1.666.173 2.81.352c.761.115 1.375.352 1.845.702q.701.528.702 2.108 0 2.458-3.688 2.459c-10.713-.245-19.995-.04-29.858 0q-3.162 0-3.162-2.811-.001-2.461 1.933-2.459 1.931 0 4.566-1.054 2.283-.88 3.073-2.459.79-1.582.791-5.094v-79.391q-.002-4.742-1.229-6.323-1.232-1.58-2.723-2.02-1.494-.437-2.723-.527c-.82-.058-4.03 1.456-4.03.284 0-1.405 3.707-4.557 5.524-5.202 5.552-3.703 8.166-6.108 14.139-9.923q2.281-2.634 3.689-2.634 1.755 0 1.756 3.688zm3.881 63.033q3.705 4.063 10.412 4.062 5.117 0 9.353-2.47 4.237-2.47 7.325-6.977 3.087-4.503 4.765-10.771 1.675-6.265 1.677-13.684 0-15.714-6.62-24.365-6.619-8.653-16.675-8.653-7.413.001-10.679 4.328-3.264 4.327-3.263 13.151v32.843q.001 8.476 3.705 12.536m75.859-7.706q-.001 5.796 3.338 7.377 1.403.703 2.81.79 1.404.09 2.547.264 1.14.178 1.845.79.7.616.702 2.196 0 2.46-3.513 2.459-2.989 0-6.834-.527-3.844-.528-8.184-.527-4.513 0-8.096.527-3.586.528-6.043.527-3.162 0-3.162-2.811 0-2.459 1.757-2.459 1.93 0 4.742-1.054 2.46-.877 2.985-2.371.527-1.492.527-4.128V70.93q-.001-2.283-1.142-3.337a7.6 7.6 0 0 0-2.635-1.581 31 31 0 0 1-2.635-1.054q-1.143-.527-1.142-1.581 0-1.93 2.371-2.547 2.371-.613 5.527-1.844 6.075-2.282 8.938-4.304 2.864-2.019 3.732-2.02 1.388 0 1.737.878.35.88.352 2.459 0 2.284-.264 5.27-.264 2.987-.264 6.674v93.268zm30.563-36.183q-1.406 0-1.756.527-.353.528-.352 2.283v4.215q-.001 16.336 6.938 25.82 6.938 9.483 18.004 9.484 4.915 0 8.519-1.581 3.599-1.58 5.972-3.513c1.581-1.287 2.563-4.647 3.44-5.701s1.989-2.128 2.34-2.128c.937 0 1.157 3.381 1.157 4.668q0 1.932-2.107 5.093-2.107 3.163-6.06 6.235-3.954 3.077-9.396 5.357-5.446 2.282-12.295 2.283-7.204 0-13.086-2.897-5.885-2.898-10.1-8.344-4.216-5.442-6.498-13.173-2.284-7.726-2.283-17.389 0-9.658 2.547-17.477 2.543-7.814 7.113-13.261 4.565-5.442 10.802-8.431 6.234-2.986 13.612-2.986 6.323.001 11.593 2.195 5.269 2.198 8.957 5.885 3.688 3.69 5.709 8.606 2.019 4.919 2.02 10.538 0 2.286-1.405 2.986-1.406.703-4.566.702h-38.819zm28.006-5.83c3.86-.126 4.652 2.52 1.326-9.276-.788-2.793-2.428-5.813-4.827-8.272s-4.25-3.495-7.996-3.495q-6.15 0-10.714 4.742-4.569 4.743-5.973 11.943l-.526 2.811v.352q0 1.581 2.107 1.581h11.417c5.736 0 8.875-.063 15.186-.386" style="fill:#f9f9f9" transform="matrix(.84547 0 0 .76529 -24.949 -6.99)"/></g><path d="M621.511 104.423q0-2.535-.483-3.317-.484-.78-2.63-1.268a20 20 0 0 0-2.094-.243 18 18 0 0 1-1.61-.145q-.7-.096-1.076-.34-.375-.242-.375-.923 0-1.361 1.825-1.36 1.074 0 3.813.388 2.737.39 7.354.389 5.153 0 7.839-.389 2.683-.388 3.436-.389 1.61.001 1.61 1.264 0 .68-.375.972-.378.292-.967.389-.694.108-1.395.145a13 13 0 0 0-1.772.243q-1.934.39-2.416 1.215-.483.828-.483 3.353v14.773q0 2.236-1.664 4.13-1.664 1.896-4.563 3.208-2.901 1.311-6.71 2.041-3.814.729-8.108.729-6.66 0-12.294-2.333-5.637-2.332-9.665-6.463-4.025-4.13-6.282-9.865-2.253-5.734-2.254-12.538 0-7.29 2.523-13.461 2.522-6.171 6.926-10.643 4.401-4.47 10.521-6.998 6.12-2.526 13.315-2.527 2.899 0 5.477.354 2.576.352 4.67.907t3.543 1.203c.29.129.338-1.441.603-1.425.497.032 1.289-.156 1.54.115.234.212.424 2.72.475 3.303.299 3.439.657 4.652.657 8.663q0 2.722-1.396 2.722-1.18 0-1.664-1.312a58 58 0 0 0-1.342-3.256q-3.761-8.552-13.207-8.553-4.619 0-8.537 2.186-3.92 2.188-6.818 6.22-2.898 4.035-4.51 9.72-1.61 5.685-1.61 12.683 0 6.513 1.664 11.76 1.665 5.249 4.51 8.99t6.657 5.784a16.9 16.9 0 0 0 8.108 2.04q3.112 0 4.939-.78 1.824-.78 2.792-2.195.965-1.415 1.235-3.365.267-1.95.268-4.29zm22.091-29.935a15.3 15.3 0 0 1 3.812-5.355q2.47-2.237 5.96-3.455 3.487-1.217 7.892-1.218 4.509 0 7.999 1.151a27 27 0 0 1 2.546.97c.16.073.228-.995.517-1.137.505-.248 1.26-.254 1.493.025.572.65.545 6.378.545 12.792q0 2.041-1.396 2.041-1.182 0-1.557-1.311-.377-1.312-1.556-3.84-1.72-3.887-3.759-5.928-2.04-2.042-5.798-2.042-4.831 0-7.57 2.665-2.737 2.665-2.737 7.314 0 3.877 2.416 6.298 2.416 2.423 7.57 4.844 4.293 2.036 7.624 4.07 3.327 2.035 5.636 4.506a17 17 0 0 1 3.49 5.57q1.181 3.102 1.18 7.17-.001 4.263-1.556 7.849-1.558 3.585-4.295 6.201-2.739 2.615-6.55 4.117t-8.322 1.502q-7.086 0-11.489-2.041t-4.402-6.22q0-1.651.107-3.208.106-1.553.108-2.916 0-1.068-.054-1.7a12 12 0 0 1-.053-.827q0-3.012 1.61-3.013.752 0 1.074.534.322.536.483 1.458l.376 2.186q.213 1.266.645 2.624 1.608 4.959 5.207 7.679 3.596 2.721 7.678 2.722 2.36 0 4.51-.877a11.1 11.1 0 0 0 3.703-2.433q1.557-1.558 2.47-3.7.912-2.14.913-4.672 0-4.477-3.06-8.03-3.06-3.554-9.18-6.669a256 256 0 0 1-6.067-3.211q-2.846-1.558-4.94-3.603-2.093-2.043-3.329-4.867-1.235-2.821-1.235-7.106-.003-3.794 1.341-6.91z" style="fill:#f9f9f9;stroke-width:.80438101"/><g style="fill:#040404"><path d="M542.726 112.09q-.001 2.151.074 3.494.074 1.346.446 2.217a3.1 3.1 0 0 0 1.188 1.412q.814.539 2.301.94 1.337.404 2.525.403 1.187.001 2.079.135.89.135 1.41.605.52.472.52 1.546c0 1.257.333 1.902-1.746 1.902-10.833.047-20.213-.072-29.588-.02q-3.118 0-3.118-2.151-.001-.939.52-1.344.518-.404 1.336-.538a11.7 11.7 0 0 1 1.856-.135 8.2 8.2 0 0 0 2.08-.268q1.779-.405 2.746-.94.965-.537 1.411-1.413.445-.873.52-2.284.074-1.41.074-3.562V50.527q0-3.225-.52-4.369-.52-1.14-2.747-1.814-1.485-.403-2.821-.403a16 16 0 0 1-2.154-.134q-.968-.133-1.485-.471-.521-.334-.52-1.411 0-1.882 2.228-1.882 1.188 0 4.752.537 3.564.539 9.95.538 6.384.001 9.95-.538c2.377-.356 3.958-.537 4.752-.537q2.227 0 2.227 1.882 0 .942-.444 1.277-.447.337-1.337.47-.892.136-2.08.202a18.5 18.5 0 0 0-2.523.335q-2.824.54-3.341 1.815-.522 1.278-.52 4.503z" style="stroke-width:.80438101;fill:#f9f9f9" transform="translate(-4.737 4.562)"/><path d="M574.206 112.09q-.002 2.151.075 3.494.073 1.346.445 2.217a3.1 3.1 0 0 0 1.188 1.412q.814.539 2.302.94 1.336.404 2.524.403 1.188.001 2.08.135.889.135 1.41.605.519.472.52 1.546 0 1.884-3.119 1.882c-10.042-.247-20.063-.098-28.216 0-2.079 0-2.034.245-2.034-1.19 0-.625-1.2-2.417-.851-2.685.345-.27 1.079-.068 1.623-.158a11.7 11.7 0 0 1 1.857-.135 8.2 8.2 0 0 0 2.079-.268q1.78-.405 2.747-.94.964-.537 1.41-1.413.446-.873.52-2.284t.074-3.563v-61.56q0-3.227-.519-4.37-.52-1.14-2.748-1.814-1.485-.403-2.821-.403-1.189 0-2.153-.134-.968-.133-1.486-.471-.52-.334-.519-1.411 0-1.882 2.228-1.882 1.188 0 4.751.537 3.564.539 9.95.538 6.385.001 9.95-.538 3.564-.535 4.753-.537 2.226 0 2.227 1.882 0 .942-.445 1.277-.446.337-1.337.47-.89.136-2.079.202-1.188.07-2.524.335-2.823.54-3.34 1.815c-.35.853-.52 2.352-.52 4.503z" style="stroke-width:.80438101;fill:#f9f9f9" transform="translate(-4.737 4.562)"/><path d="M139.774 41.79c6.045-6.183 9.194-14.866 9.629-26.545l.015-.424-.445.085c-21.228 4.049-32.19 16.453-32.585 36.868l-.007.397.422-.06c10.112-1.477 17.626-4.854 22.972-10.321z" style="fill:green;stroke-width:.94420856" transform="translate(-4.737 4.562)"/><path d="m66.72 146.795.39.523c3.509 4.719 7.533 9.31 11.959 13.649 3.37 3.303 8.74 5.121 15.118 5.121 4.674 0 9.52-1.025 12.649-2.675 6.471-3.41 9.9-3.417 12.404-3.42.503 0 .972-.003 1.424-.027l.408-.025c.542-.032 1.102-.067 1.732-.067 2.22 0 5.535.405 11.562 3.58 4.206 1.647 8.284 2.479 12.123 2.479h.002c10.45 0 19.612-6.098 28.01-18.627l.343-.511z" style="fill:#00f;stroke-width:.94420856" transform="translate(-4.737 4.562)"/><path d="M176.086 68.614a68 68 0 0 1 4.52-3.837l.272-.21-.223-.256c-7.877-9.059-18.663-13.944-31.192-14.128l-.574-.002c-6.35 0-11.964 1.11-16.236 3.208-5.541 2.72-9.662 3.324-9.702 3.33-.072.008-.526.025-1.77.025-1.51 0-2.813-.023-2.97-.044l-.1-.011c-1.776-.215-6.305-.91-9.976-2.734a36.3 36.3 0 0 0-16.073-3.791l-.364.002c-14.611.152-26.826 6.79-34.416 18.449Z" style="fill:green;stroke-width:.94420856" transform="translate(-4.737 4.562)"/><path d="M163.835 87.98c1.438-6.482 5.319-12.775 11.648-18.798l.596-.568H57.281l-.105.161c-3.64 5.633-6.052 12.148-7.197 19.204z" style="fill:#ff0;stroke-width:.94420856" transform="translate(-4.737 4.562)"/><path d="M166.618 107.111c-2.873-5.502-4.284-11.86-2.854-18.728l.082-.398H49.99l-.045.282c-.963 6.119-.963 12.452-.072 18.843z" style="fill:#f60;stroke-width:.94420856" transform="translate(-4.737 4.562)"/><path d="M55.466 127.181H185.58l.762-1.536-.313-.144c-6.227-2.875-14.575-9.167-19.328-18.204l-.098-.187H49.869l.054.378c.794 5.536 2.417 12.262 5.543 19.693" style="fill:red;stroke-width:.94420856" transform="translate(-4.737 4.562)"/><path d="M66.722 146.795h108.11c4.128-6.237 7.531-13.104 10.52-19.139l.235-.474h-130.1l.196.458c2.843 6.622 6.537 13.022 11.039 19.155" style="fill:purple;stroke-width:.94420856" transform="translate(-4.737 4.562)"/></g></svg>