<svg xmlns="http://www.w3.org/2000/svg" viewBox="0 0 1000.999 264.854"><path d="M0 0h-2.861v-14.055h6.69v3.015H0z" style="fill:#3163b7;fill-opacity:1;fill-rule:nonzero;stroke:none" transform="matrix(18.74751 0 0 -18.74751 515.785 1.21)"/><path d="M0 0h-2.752v-9.031c.033-2.544 2.698-6.243 6.812-4.644v3.389C2.835-11.729-.054-11.292 0-8.436z" style="fill:#3163b7;fill-opacity:1;fill-rule:nonzero;stroke:none" transform="matrix(18.74751 0 0 -18.74751 650.736 1.21)"/><path d="M545.326 747.626h24.243V629.602h-24.243z" style="fill:#3163b7;fill-opacity:1;fill-rule:nonzero;stroke:none" transform="translate(-482.463 -1404.42)scale(2.23256)"/><path d="M0 0h-3.391l-1.284-2.193c-.939-1.162-.911-5.993 3.986-6.087H.939c1.915-.408 1.571-2.855-.342-2.76h-5.931v-3.015h5.96c5.837.191 6.116 8.598.221 8.598l-1.662.045c-1.318.096-1.601 1.319-1.145 2.057z" style="fill:#3163b7;fill-opacity:1;fill-rule:nonzero;stroke:none" transform="matrix(18.74751 0 0 -18.74751 903.386 1.21)"/><path d="m0 0-1.712-2.883h4.628L4.61 0z" style="fill:#3163b7;fill-opacity:1;fill-rule:nonzero;stroke:none" transform="matrix(18.74751 0 0 -18.74751 914.573 1.21)"/><path d="m0 0-9.148-14.119h3.264l3.562 5.495H0z" style="fill:#3163b7;fill-opacity:1;fill-rule:nonzero;stroke:none" transform="matrix(18.74751 0 0 -18.74751 171.502 0)"/><path d="M319.799 629.602h-23.135v118.032H319.8V629.602z" style="fill:#3163b7;fill-opacity:1;fill-rule:nonzero;stroke:none" transform="translate(-482.463 -1404.42)scale(2.23256)"/><path d="M0 0v2.87h-3.334L-6.698-.579v-10.606h3.01V.001z" style="fill:#ed1c24;fill-opacity:1;fill-rule:nonzero;stroke:none" transform="matrix(18.74751 0 0 -18.74751 447.644 55.017)"/><path d="m0 0 2.823 2.869h-6.774v-2.87z" style="fill:#ed1c24;fill-opacity:1;fill-rule:nonzero;stroke:none" transform="matrix(18.74751 0 0 -18.74751 319.943 54.998)"/></svg>