<svg xmlns="http://www.w3.org/2000/svg" xmlns:xlink="http://www.w3.org/1999/xlink" viewBox="0 0 2600 540"><defs><linearGradient id="a"><stop offset="0" style="stop-color:#87622e;stop-opacity:1"/><stop offset="1" style="stop-color:#deca77;stop-opacity:1"/></linearGradient><linearGradient xlink:href="#a" id="c" x1="1919.818" x2="1919.818" y1="159.455" y2="293.48" gradientUnits="userSpaceOnUse"/><linearGradient xlink:href="#a" id="d" x1="1920.08" x2="1920.08" y1="698.68" y2="301.163" gradientUnits="userSpaceOnUse"/><linearGradient xlink:href="#a" id="b" x1="1101.189" x2="1101.189" y1="509.729" y2="395.272" gradientUnits="userSpaceOnUse"/></defs><g style="stroke-width:1;stroke-miterlimit:4;stroke-dasharray:none;fill-opacity:1;fill:url(#b);stroke:#deca77;stroke-opacity:1"><path d="M2199.543 158.621c-2.36.018-4.702.178-6.982.805-4.76 1.426-8.16 6.214-7.907 11.174.013 123.586.027 247.173 0 370.773-.213 4.267 2.266 8.56 6.12 10.453 3.626 1.947 7.88 1.427 11.867 1.533 9.4-.146 18.827.161 28.24-.119 6.28.014 11.92-5.52 11.76-11.853.08-123.134-.014-246.267.039-369.4.613-6.28-4.147-12.561-10.52-13.094-8.493-.56-17.026-.054-25.533-.227-2.347.06-4.724-.063-7.084-.045zm377.371.008c-2.347.035-4.674.224-6.928.89-4.426 1.72-7.92 6.2-7.64 11.067-.027 123.56-.013 247.133 0 370.693-.4 6.507 5.668 12.162 12.068 11.975 11.24.16 22.506.12 33.76.014 6.44.253 12.545-5.36 12.172-11.934-.013-123.546-.013-247.094 0-370.654.333-6.027-4.865-11.56-10.852-11.84-8.507-.44-17.04-.027-25.533-.174-2.333.047-4.7-.072-7.047-.037zm-956.002.022c-1.908.043-3.805.202-5.658.695-4.76 1.44-8.467 6.161-8.24 11.215-.027 123.6-.027 247.212 0 370.812-.254 5.067 3.44 9.828 8.226 11.282 3.28.893 6.719.651 10.106.705 9.36-.16 18.748.186 28.134-.147 6.147-.053 11.773-5.493 11.506-11.746q.04-185.46 0-370.92c.28-6.293-5.399-11.747-11.586-11.773-8.92-.307-17.84.014-26.76-.12-1.9.027-3.82-.047-5.728-.003zm-1345.51.459c-13.555-.157-27.11-.184-40.656.556-40.933 2.44-80.399 19.627-111.346 46.307-33.733 28.867-58.04 69.361-64.974 113.441-8.454 57.387 6.481 118.827 43.894 163.694 25.227 30.773 61.08 52.785 100.186 60.478 46.187 8.92 93.441 6.84 140.215 7.08 15.733.147 32.053-.252 46.76-6.478 11.506-4.56 20.532-14.335 24.746-25.909 7.52-19.853 5.932-41.465 6.119-62.279.573-12.88.227-25.772.32-38.666-.08-50.266-.013-100.534.854-150.787.44-13.533 2.626-28.84 13.613-38.107 11.733-9.654 27.8-10.014 42.267-10.4 19.507.106 39.014.973 58.534 1.413 8.706.454 17.825 2.388 24.798 7.961 6.054 4.694 9.922 11.787 11.375 19.24 2.28 10.907 1.612 23.093-4.681 32.6-5.534 8.44-15.133 13.239-24.733 15.412-23.973 5.307-49.252-2.052-72.812 5.961-15.493 4.867-28.8 16.627-34.707 31.867-6.587 16.64-6.734 36.119 1.226 52.332 8.454 17.774 25.84 30.707 45.106 34.387 17.987 3.2 36.334 1.987 54.508 2.854 8.733.413 17.705 2.639 24.798 7.972 7.107 5.254 11.508 13.455 13.575 21.922 4.666 20.373.547 42.038 7.8 61.932 5.267 15.626 17.24 28.92 32.6 35.12 13.427 5.734 28.293 5.654 42.6 5.241 5.906-.213 11.372-5.533 10.959-11.6-.04-11.106.04-22.227-.04-33.333.094-4.2-2.799-7.987-6.425-9.827-4.16-2.04-8.921-.56-13.281-1.494-5.534-1.88-10.373-6.146-12.133-11.812-2.427-7.6-1.466-15.707-2.053-23.534-1.373-22.413-7.882-45.147-22.068-62.894-12.894-16.52-31.986-27.56-52.252-32.334-20.28-5.16-41.374-3.932-62.094-4.105v-8.655c20.813-.546 42.04 1.92 62.4-3.586 23.76-5.853 45.547-20.786 57.987-42.052 12.8-21.374 15.306-47.575 10.826-71.735-3.627-20.907-14.094-40.973-30.774-54.373-17.026-14.013-39.172-20.467-60.945-21.414-15.187-.533-30.36-.946-45.547-.84-18.306-.04-36.854-.173-54.787 4.08-19.067 4.347-37.493 13.628-50.44 28.56-14.213 16.16-21.147 37.455-23.427 58.561-1.747 13.747-.439 27.627-1.266 41.44-.16 53.347 0 106.706.639 160.039-.427 10.627 1.947 21.895-2.746 31.908-2.813 6.213-9.386 9.786-15.973 10.492-9.733.96-19.521-.253-29.281-.08-23.147-.56-46.292-.48-69.426-1.16-18.36-.92-36.574-5.358-53.201-13.238-26.08-12.307-47.986-33.16-61.52-58.627-14.933-27.667-20.306-60.4-15.16-91.4 5.24-31.84 22.468-61.388 47.108-82.122 22.36-19.053 50.853-30.72 80.16-32.84 28.893-1.186 57.826-.919 86.76-.959 5.96.027 11.254-5.334 11.254-11.28.093-10.694-.001-21.386.039-32.079.373-5.027-2.813-9.987-7.506-11.787-5.547-1.587-11.414-.587-17.108-.84-13.553.22-27.109-.068-40.664-.224z" style="fill:url(#b);fill-opacity:1;stroke:#deca77;stroke-width:4;stroke-miterlimit:4;stroke-dasharray:none;stroke-opacity:1" transform="scale(.75)"/></g><path d="M1659.441 20.941c-2.395.042-4.768.267-7.054 1.02-4.454 1.84-7.546 6.506-7.36 11.346-.066 11.533-.053 23.08 0 34.627-.2 4.853 2.866 9.667 7.412 11.4 4.8 1.333 9.921 1.239 14.641 2.959 8.413 2.827 14.386 10.16 17.906 18.027 4.587 10.334 6.854 21.494 10.254 32.227 16.614 56.787 34.574 113.159 51.64 169.812 34.547 114.974 67.613 230.4 103.333 345.014 3.293 10.227 8.668 19.774 15.748 27.867 13.347 15.267 33.6 25.093 54.12 23.44 13.372 1.066 26.732-2.893 37.985-10.053 15.694-9.8 26.934-25.893 32.147-43.52 35.307-113.52 68.108-227.787 102.281-341.64 18.947-62.827 38.933-125.348 57.053-188.428 3.066-10.733 6.947-22.386 16.387-29.226 5.186-3.96 11.746-4.987 18.066-5.76 6.013-.36 10.934-6.026 10.654-12.026.027-11.586.027-23.186 0-34.773.334-6.493-5.507-12.348-11.96-12.188-8.974-.2-17.973 0-26.893.747-21.24 3.453-41.2 18.147-48.56 38.707-5.134 14.12-10.067 28.32-14.6 42.64-16.6 52.6-32.002 105.56-48.055 158.334-34.8 115.867-69.533 231.76-104.76 347.506-2.253 9.027-6.52 17.76-13.48 24.08-2.52 2.4-6.478 4.653-9.772 2.293-7.146-4.547-11.788-12.254-14.734-20.027-39.133-128.214-77.453-256.68-116.12-385.04-16.32-53.28-31.24-107-49.587-159.626-3.24-9.134-6.187-18.693-12.694-26.133-9.013-10.853-21.587-18.694-35.32-21.934-7.04-1.746-14.332-1.173-21.492-1.6-2.373.027-4.79-.113-7.186-.072zm1193.53 133.295a201 201 0 0 0-34.971 1.551c-34.36 4.587-67.333 18.572-94.76 39.719-34.693 26.467-60.746 64.36-72.066 106.574-8.747 31.88-8.334 65.814-1.613 98.027 9.133 43.494 32.879 84.105 67.652 112.012 35.76 29.213 82.133 44.028 128.08 43.908 47.653.454 95.267-16.427 131.867-46.96 33.227-27.4 57.28-66.053 65.986-108.346 7.88-39.014 3.44-80.16-10.693-117.254-15.44-40.16-43.786-75.361-80.213-98.348-29.58-18.88-64.244-29.397-99.27-30.883zm279.232.135a59 59 0 0 0-9.482 1.295c-12.787 2.6-25.268 8.467-34.041 18.32-7.854 8.734-12.44 19.987-14.44 31.467-2.506 13.613-1.307 27.494-1.574 41.24-.267 56.894.507 113.773.334 170.666-.147 21.84.413 43.654-.107 65.48-.227 4.774-4.359 8.761-9.012 9.321-4.413.48-8.854-.107-13.24.28-5.76.306-10.934 5.6-10.641 11.44-.013 12.068-.026 24.12.014 36.186-.16 4.08 2.293 8.04 5.906 9.92 3.013 1.84 6.694 1.227 10.094 1.4 15.746.587 32.278-1.186 46.105-9.32 16.813-9.56 26.44-28.52 27.414-47.48.88-26.2.294-52.44.467-78.652-.04-31.96.173-63.92-.334-95.868-.08-33.72.148-67.44-.106-101.146 2.947.04 5.932.04 8.946 0 12.053 30.627 24.602 61.068 35.988 91.96 25.733 69.388 51.586 138.733 76.893 208.28 7 17.16 22.066 30.72 39.84 35.986 19.306 5.827 41.4 1.974 57.213-10.693 15.2-11.72 24.306-30.68 24.24-49.853-.147-38.667.067-77.333.32-115.987 0-47.973.013-95.947-.014-143.933-.053-4.254.694-9.174 4.467-11.787 5.454-3.72 12.36-1.733 18.52-2.2 6.346.44 12.4-4.947 12.32-11.4.147-10.227-.067-20.453.066-30.68.12-4.826.242-10.493-3.798-13.906-5.24-4.853-12.775-2.44-19.135-3.146-19.747-1.04-41.933 3.253-55.147 19.24-14.653 17.933-16.185 42.4-15.945 64.586-.573 83.213-.254 166.439-.348 249.652-2.773-.173-5.653.347-8.24-.613-2.547-1.8-3.425-4.96-4.719-7.613-10.946-24.174-19.053-49.466-28.4-74.266-25.667-70.16-51.161-140.387-77.041-210.467-6.44-17.533-18.373-33.893-35.467-42.226-8.64-4.22-18.344-6.01-27.916-5.483zm-2023.045 3.836c-15.052-.799-30.37 2.133-43.05 10.473-16.214 10.56-26.242 28.16-32.668 45.96-30.267 84.467-60.374 168.987-91.32 253.2-3.388 9.773-7.8 19.68-15.56 26.773-2.053 2.067-5.013 2.534-7.787 2.56-50.72 1.52-101.505 1.947-152.199-.493-4.573-.107-9.294-.907-13.174-3.467-8.106-5.107-12.667-14.16-15.267-23.094-2.867-10.747-3.546-22.291-1.04-33.158 1.44-6.427 7.227-11.348 13.92-11.201 33.667-.427 67.386.586 101.04-1.028 18.346-.72 37.733-6.786 49.693-21.453 9.36-11.213 13.08-26.185 12.613-40.572-.133-15.68-4.985-32.08-16.558-43.146-11.627-11.72-28.468-16.48-44.574-17.16-29.707-.4-59.44.64-89.133-.907-7.214-.133-14.215-2.868-20.041-7.04-3.12-2.308-6.266-5.147-7.04-9.12-2.893-11.227-3.625-23.455.561-34.441 3.707-10.04 11.786-18.093 21.506-22.413 14.013-6.573 29.867-5.694 44.934-5.8 32.453-.694 64.92-.32 97.373 0 6.746.746 13.28-5.08 12.933-11.934.04-10.72.027-21.44 0-32.16.174-4.973-3.307-9.746-8.013-11.266-3.347-1-6.894-.613-10.334-.68-41.334.054-82.667 0-124 .026-26.56 1.373-54.12 11.467-71.04 32.84-18.293 22.827-23.133 53.293-22.613 81.773-.16 19.334 1.92 40.629 15.387 55.682 14.32 15.84 36.507 20.758 56.934 22.625 32.56.2 65.131.042 97.705.068-.027 3-.026 6-.026 9-28.573.054-57.147-.04-85.72.04-10.694.706-21.44-.36-32.067 1.226-10.973 1.533-21.719 5.8-30.119 13.12-7.533 6.452-12.72 15.293-15.654 24.706-4.654 14.693-7.12 30.148-6.787 45.588-.2 26.04 7.56 53.053 25.267 72.666 12.934 14.507 31.08 23.774 50.067 27.32 14.493 3.014 29.345 2.094 44.039 2.694 31.093-.174 62.215.334 93.295-.36 14.173 0 28.36.226 42.52-.56 15.452-1.227 30.811-7.8 40.958-19.774 9.84-10.68 13.802-24.933 18.908-38.16 32.294-85.533 60.96-172.4 92.72-258.133 3.72-8.733 12-14.08 18.16-20.933 4.84 5.16 10.533 9.52 14.947 15.08 3.12 3.853 4.893 8.546 6.84 13.053 9.36 21.773 17.267 44.133 25.96 66.173 2.067 5.8 4.32 12.413 1.813 18.44-2.334 5.04-8.188 6.986-13.348 7.373-14.76 1.187-29.599-.239-44.346.814-20.386 2.4-39.053 15.734-47.947 34.227-8.693 17.333-8.532 38.8.442 56 8.346 16.48 24.44 28.892 42.6 32.506 7.4 1.706 15.038 1.173 22.572 1.24 25.293.04 50.599-.08 75.906.053 6.786.04 14.76 1.28 18.427 7.773 10.174 17.614 13.2 38.575 24.6 55.588 9.827 14.773 25.72 26.239 43.707 27.879 9.76.133 19.52 0 29.28.053 4.413.226 9.052-1.694 11.372-5.614 2.04-2.96 1.574-6.705 1.641-10.091-.133-9.8.054-19.6-.066-29.387.013-6.027-5.774-11.188-11.721-10.908-6.613-.52-13.933 1.535-19.813-2.479-10.453-5.68-13.786-18.054-16.853-28.654-4.053-15.333-10.52-30.587-21.826-42.014-9.28-9.466-21.694-15.533-34.707-17.773-13.227-2.64-26.706-.799-40.053-1.092-19.68.04-39.347-.08-59.027.053-.374-3.894-.4-7.814-.293-11.721 21-.24 42.76 1.493 62.853-5.934 14.254-5.026 27.187-15.266 33.094-29.453 7.187-16.813 5.105-35.986-.375-52.972-8.707-26.374-18.199-52.48-28.266-78.36-5.56-13.96-10.52-28.374-19.213-40.787-8.773-13.293-22.387-23.586-38.093-26.972a96 96 0 0 0-14.856-1.981zm1398.748.459c-43.866.72-87.76.054-131.627.428-23.28.88-46.465 8.452-65.039 22.652-37.746 28.467-53.546 82.468-37.213 126.815 8.654 24.28 25.866 45.425 47.893 58.812 16.24 10.053 35.226 14.96 54.2 15.84 16.44 1.24 32.973-.534 49.386 1.373 14.893 1.907 29.88 7.867 40 19.32 14.213 16.014 16.293 40.588 7.547 59.721-6.174 13.467-19.16 22.76-33.227 26.56-13.347 4.12-27.413 3.014-41.16 3.147-38.267.027-76.546-.054-114.799.039-6.48-.293-12.215 5.48-12.135 11.906-.106 11.08-.185 22.188.041 33.268-.08 6.413 5.853 12 12.266 11.48 43.067-.053 86.148-.014 129.215-.027 14.96-.507 30.212-.574 44.639-5.107 35-10.307 63.613-39.386 73.693-74.399 6.293-21.307 4.587-44.282-1.666-65.375-6.253-20.933-18.786-40.026-36.04-53.506-18.666-14.733-42.28-22.374-65.866-23.56-15.56-.814-31.16-.08-46.68-1.346-16.573-1.507-33.508-7.894-44.441-20.894-13.614-15.867-14.973-39.612-6.6-58.252 6.253-14.054 18.92-24.829 33.52-29.442 9.48-3.173 19.574-3.72 29.507-3.453 41.347.013 82.693-.013 124.04.014 6.173.506 12.454-4.347 12.507-10.774.36-9.293-.015-18.599.172-27.892.04-4.88.067-10.548-3.906-14.041-4.907-4.627-12.147-3.04-18.227-3.307zm-1267.812.748c-6.067-.107-11.815 5.067-11.748 11.24-.054 11.174-.04 22.333 0 33.506-.267 6.16 5.427 11.8 11.574 11.52 25.333.04 50.68-.108 76.014.052 8.293.067 17.68 2.655 21.933 10.442 5.88 11.213 3.906 24.32 3.799 36.467v216.105c.053 8.453-.465 17.001 1.281 25.348 4.04 21.333 20.2 39.772 40.707 46.812 18.44 6.494 39.906 3.882 56.04-7.252 16.213-10.866 26.759-29.574 27.505-49.107.574-31.947-.359-63.893-.199-95.84V253.359c-.04-9.786-.628-20.626 5.346-29 4.986-7.093 14.254-8.613 22.334-8.68 24.906-.053 49.814.042 74.72-.038 6.12.186 11.534-5.548 11.254-11.641 0-11.107.08-22.239-.027-33.346.013-6.026-5.494-11.148-11.414-11.228-11.533-.187-23.08-.238-34.6.228-20.92.147-41.866-.427-62.746.88-17.2 1.346-35.466 6.679-46.84 20.452-12.546 15.24-14.721 36.015-14.361 55.041-.653 44-.199 88.012-.332 132.026-.267 39.76.439 79.507.332 119.267a1799 1799 0 0 1-12 0c.427-43.786.347-87.6.334-131.4-.147-41.72.333-83.454-.32-125.174.026-11.667-1.387-23.532-5.627-34.478-4.587-12.427-14.04-22.934-26.147-28.414-18.773-8.907-40.052-7.786-60.279-8.2-22.187.32-44.347-.667-66.533-.24zm1605.54 51.219c42.625.283 84.838 20.227 111.485 53.687 27.093 32.88 38.108 78.04 29.8 119.76-7.52 40.213-32.92 76.667-68.16 97.467-28.253 16.987-62.453 23.56-95.013 18.627-42.067-6.054-80.48-32.295-101.84-68.975-26.133-43.48-27.093-100.627-2.707-145.08 21.36-40.227 62.788-69.227 108.188-74.387 6.061-.78 12.159-1.14 18.248-1.1z" style="stroke-width:6.66666667;fill:url(#c);fill-opacity:1;stroke:url(#d);stroke-opacity:.79000002;stroke-miterlimit:4;stroke-dasharray:none" transform="scale(.75)"/></svg>