<svg xmlns="http://www.w3.org/2000/svg" xmlns:xlink="http://www.w3.org/1999/xlink" xml:space="preserve" viewBox="0 0 648.314 167.126"><defs><linearGradient id="a"><stop offset="0" stop-color="#570000"/><stop offset="1" stop-color="#f40c00"/></linearGradient><linearGradient xlink:href="#a" id="b" x1="877.985" x2="878.956" y1="305.008" y2="234.298" gradientTransform="translate(588.666 297.869)" gradientUnits="userSpaceOnUse"/><linearGradient xlink:href="#a" id="c" x1="1098.233" x2="1098.501" y1="146.667" y2="245.785" gradientTransform="matrix(.8 0 0 -.8 551.543 700.076)" gradientUnits="userSpaceOnUse"/></defs><path fill="url(#b)" d="m1230.048 586.567-10-53.25h54l18.75 17-33.5 36.25h-5.5l-4.25-22.5 14.25-15.25-24.5.25 6.75 37.5zm71.5 0-7.5-53.25h61.75l-13.25 14h-28.5l5.5 39.25zm23.375 0-1.625-14.5h22l-14.75 14.5zm167.375 0 1.5-53.25h61.75l-15.5 12.75-29.753-.203-1.497 40.703zm29.25 0-5.995-.11.667-15.75 24.078.11zm34 0 4.5-53.25h18l-4 37.5zm45 0 4.5-38.875-24.25 18.875 1.75-18.875 17.75-14.375h26l-5.75 37.5zm20.75 0 5-15.75h70.25l-20 15.75zm-248.5-1.5-15.5-13h58l-15 13zm64.431 0-15.5-13h58l-15 13zm79.297-18.384c.676-15.453.677-15.356.677-15.978 0-.507 24.345 0 24.345 0l-19.527 15.978zm-194.044-.814-1.625-14.5h22l-14.75 14.5zm44.233 0 16.333-17.302h-27.25l14-15.25h26.75l18.75 17-16.083 15.552zm55.014 0v-20.552l14.91-12h32.5l18.409 18.052h-32.5l-14.75 14.5zm215.319 0 6-39.052 23.25-19-10 58.052z" transform="matrix(1.25 0 0 -1.25 -1498.715 776.928)"/><path fill="url(#c)" d="m1625.514 586.567 3.984-12.55h62.986l-15.936 12.55zm15.227-20.699 5.507-35.851 18.885-15.433-8.835 51.284zm-203.511 19.199-11.483-9.632h50.095l-11.112 9.632zm-14.83-19.199v-17.183l14.91-12h32.5l14.974 14.683h-29.736l-14.75 14.5zm-49.602 19.199-11.684-9.8h50.492l-11.308 9.8zm-3.062-19.199 15.969-17.226-3.45.976.793-1.051h-24.312l11.062-12.05h26.75l17.043 15.451-14.375 13.9zm-68.188 20.699-7.05-50.05h58.272l-10.222 10.8h-28.5l.214 1.637-2.126-1.719 5.364 39.332zm23.375 0-1.265-11.3h18.386l-11.496 11.3zm-2.44-20.699-1.266-11.3h18.386l-11.495 11.3zm169.906 20.699 1.41-50.05h57.859l-11.61 9.55-29.753-.203-1.497 40.703zm29.16 0-5.86-.108.531-12.553 20.29.094zm-4.887-19.885c.346-7.899.541-12.28.541-12.778 0-.38 13.668-.189 20.52-.07l-15.701 12.848zm86.055 18.177 4.484-37.171-2.387 2.293.234-2.29-22.206 17.285 1.306-14.084 17.75-14.375h23.91l-5.26 34.3zm-45.153-.008 4.084-48.334h16.06l-3.66 34.3zm-327.516 1.716-9.398-50.05h50.198l18.75 17-30.542 33.05h-5.258l-4.25-22.5 14.25-15.25-24.5.25.464 2.328-3.664-2.443 6.174 37.614z" transform="matrix(1.25 0 0 -1.25 -1498.715 776.928)"/></svg>