<svg xmlns="http://www.w3.org/2000/svg" style="shape-rendering:geometricPrecision;text-rendering:geometricPrecision;image-rendering:optimizeQuality;fill-rule:evenodd;clip-rule:evenodd" viewBox="0 0 638 215"><path fill="#f7f7f7" d="M356.5 29.5q39.245 1.248 79 1.5l-8 4 1 1-69 1q-2.704 3.153-7 2.5.426-2.872-1-5v-22q-2.398-.402-4 1a20.7 20.7 0 0 0-5 1 72.4 72.4 0 0 0-12 .5q-3.229.15-5 2.5-3.649-.34-5 3-4.385.995-2 5 3.88.831 7 3v15q-2.466.32-4.5-1a61 61 0 0 1-.5-11q-1.937-.356-3 1-1.488-.258-2 1h-2q-1.941-2.322-2-6 .418-5.52 1-11 2.11-.71 2-3 .71-2.11 3-2 4.346-.944 8-3h1l20-3q4.473-.694 9-1-.49 12.775 1 25" style="opacity:1"/><path fill="#c0bfc0" d="M353.5 3.5h3v26q-1.49-12.225-1-25-4.527.306-9 1v-1a21.5 21.5 0 0 1 7-1" style="opacity:1"/><path fill="#121110" d="M452.5 26.5q0 2-2 2h-93v-26q-2.398-.401-4 1a21.5 21.5 0 0 0-7 1 742 742 0 0 0-19 2.5q-.834.575-1 1.5h-1q-4.824-.232-8 3-2.29-.11-3 2-2.11.71-2 3-2.135 3.022-2 7-1.203 2.177-1.5 5-.297-2.823-1.5-5 .288-8.45-7-12-6.514-3.277-14-4.5a899 899 0 0 1-24-3.5q-1.063-1.356-3-1v26h-125q-.356 1.937 1 3h1q1.2 3.11 4 5l10 11h-1a415 415 0 0 1-17.5-17q-.76-2.244 1.5-3.5 62.498-.75 125-.5V.5a516 516 0 0 1 42 7.5q7.15 3.645 8.5 11.5 2.284-9.302 11.5-12.5a404 404 0 0 1 38-6.5v26z" style="opacity:.71"/><path fill="#9c9b9b" d="M325.5 8.5q-3.654 2.057-8 3 3.176-3.232 8-3" style="opacity:1"/><path fill="#828282" d="M346.5 4.5v1l-20 3q.166-.925 1-1.5a742 742 0 0 1 19-2.5" style="opacity:1"/><path fill="#a6a6a6" d="M260.5 4.5q.512-1.257 2-1a899 899 0 0 0 24 3.5q7.486 1.223 14 4.5a371 371 0 0 0-40-7" style="opacity:1"/><path fill="#72393c" d="M269.5 13.5h1v1q-2.963 14.92-2 31v4h-1q-.969-18.57 2-36" style="opacity:1"/><path fill="#805959" d="M347.5 13.5h3v36h-1v-35q-2.398-.402-4 1h-3v-1a20.7 20.7 0 0 1 5-1" style="opacity:1"/><path fill="#908e8e" d="M314.5 13.5q.11 2.29-2 3-.11-2.29 2-3" style="opacity:1"/><path fill="#887b7a" d="M342.5 14.5v1a806 806 0 0 0-16 2h-1q1.771-2.35 5-2.5a72.4 72.4 0 0 1 12-.5" style="opacity:1"/><path fill="#8b3f3b" d="M325.5 17.5h1a608 608 0 0 1-6 3q1.351-3.34 5-3" style="opacity:1"/><path fill="#4a4a4a" d="M307.5 23.5q1.203 2.177 1.5 5 .297-2.823 1.5-5v11q-3.353.442-6-1h3z" style="opacity:.996"/><path fill="#7b7a7b" d="M262.5 3.5q-1.488-.257-2 1v25q-63.02-.991-125 2-1.356-1.063-1-3h125v-26q1.937-.356 3 1" style="opacity:1"/><path fill="#d91b22" d="M342.5 15.5h6v27a687 687 0 0 1-20 0q.477-6.798-1-13-3.065-4.807-9-6a184 184 0 0 0 2-3 608 608 0 0 0 6-3 806 806 0 0 1 16-2" style="opacity:1"/><path fill="#757575" d="M353.5 3.5q1.602-1.401 4-1v26h93q.258 1.488-1 2-6.202-1.477-13-1h-80v-26z" style="opacity:1"/><path fill="#d7d7d8" d="m260.5 29.5-124 2h-1q61.98-2.991 125-2" style="opacity:1"/><path fill="#b0afaf" d="M312.5 16.5q-.582 5.48-1 11 .059 3.678 2 6-1.063 1.356-3 1v-11q-.135-3.978 2-7" style="opacity:1"/><path fill="#a8a8a8" d="M436.5 29.5q6.798-.477 13 1-2.468 1.468-4 4-5.284.953-10 3h-3q5.055-1.79 8-6.5-2.337-.315-4-1.5" style="opacity:1"/><path fill="#f4f5f5" d="M260.5 4.5a371 371 0 0 1 40 7q7.288 3.55 7 12v10h-5q0-1-1-1-1.602-1.402-4-1v11q-2.312 1.2-5 1v-14q2.36-5.09 8-4 .914-5.067-4-6-1.264-2.51-4-3.5a41 41 0 0 0-9-.5q-6.235-1.424-13-2h-1q-1.063-1.356-3-1v26q-1.426 2.128-1 5-5.313.47-10-1l2-3q1.356-1.064 1-3-59.09.095-118 0-2.8-1.89-4-5l124-2z" style="opacity:1"/><path fill="#9f9b9b" d="M283.5 16.5v-1a41 41 0 0 1 9 .5q2.736.99 4 3.5-5.925-3.57-13-3" style="opacity:1"/><path fill="#dd1d24" d="M272.5 15.5a39.7 39.7 0 0 0 11 1q7.075-.57 13 3a513 513 0 0 0 3 4q-6.187.722-9 6h-1q-1.226 3.703-1.5 8l-3-3q-5.616.765-12 0l-3 3a242 242 0 0 1-.5-22z" style="opacity:1"/><path fill="#8d716f" d="M270.5 14.5v-1q6.765.576 13 2v1a39.7 39.7 0 0 1-11-1q-.512-1.258-2-1" style="opacity:1"/><path fill="#38302a" d="M484.5 27.5q.837 1.935 3 2.5a38.5 38.5 0 0 0-5 5.5q-1.927 2.928-5 5a50 50 0 0 1-4-6q4.725-4.62 11-7" style="opacity:1"/><path fill="#8b8383" d="M296.5 19.5q4.914.933 4 6-5.64-1.09-8 4-1.485 9.217-1 19h6v-17q2.398-.402 4 1h-3v17q-4.328.46-8-1v-19q2.813-5.278 9-6a513 513 0 0 1-3-4" style="opacity:1"/><path fill="#828080" d="M320.5 20.5q-.961 1.473-2 3 5.935 1.193 9 6v20h-8q-1.482-7.71-1-16h-3q.512-1.258 2-1 2.931 7.339 3 16h6q.486-10.281-1-20-3.12-2.169-7-3-2.385-4.005 2-5" style="opacity:1"/><path fill="#cfd0d1" d="M356.5 29.5h80q1.663 1.185 4 1.5-2.945 4.71-8 6.5a1297 1297 0 0 0-72 1q.533 1.533 2 2 1.333 3.354 4 6-7 2-14 0a40.3 40.3 0 0 1-1-12q1.426 2.128 1 5 4.296.653 7-2.5l69-1-1-1 8-4a3103 3103 0 0 1-79-1.5" style="opacity:1"/><path fill="#2d231b" d="M482.5 35.5a38.5 38.5 0 0 1 5-5.5q-2.163-.565-3-2.5a26.7 26.7 0 0 1 7-5q.814-.09 1-1-11.235-1.98-22 0a157 157 0 0 0-20 13 2149 2149 0 0 0 0 131q1.533-.533 2-2a160 160 0 0 0 18-12 3532 3532 0 0 0 1.5-84 639 639 0 0 1 19.5-13q.814-.09 1-1-9.95-1.495-20-1a86.8 86.8 0 0 1 1-18 50 50 0 0 0 4 6q-2.652 3.994-2 9 10.013-.25 20 .5 2.437 4.808-2 8L476 69.5a1804 1804 0 0 1-2 84 136.7 136.7 0 0 1-24.5 16q-1.721-.477-2.5-2a15.3 15.3 0 0 1-1.5 4.5l-19 13q-4.184 2.495-8.5.5a481 481 0 0 1-.5-31q-30.005-.25-60 .5a633 633 0 0 1-2 12.5v-11q-1.689-2.038 0-4l6 1q26.191-.98 52-2v-98a651 651 0 0 0-51-1l-1-2 9-2h1q3.465.996 7.5 1a1543 1543 0 0 1 41.5-1.5q7.677-3.958 14-9.5 1 0 1-1 4.716-2.047 10-3 1.532-2.532 4-4 1.258-.512 1-2 2 0 2-2a161 161 0 0 0 13-8.5q15-1 30 0 1.614 2.59.5 5.5a245 245 0 0 0-13.5 12" style="opacity:1"/><path fill="#fcfcfc" d="M470.5 21.5q10.78-.487 21 1a26.7 26.7 0 0 0-7 5q-6.275 2.38-11 7-2.934 8.868-2 19 10.281-.485 20 1a639 639 0 0 0-19.5 13 3532 3532 0 0 1-1.5 84 160 160 0 0 1-18 12q-2.992-63.981-2-129a157 157 0 0 1 20-13" style="opacity:1"/><path fill="#bab9ba" d="M470.5 21.5q10.765-1.98 22 0-.186.91-1 1-10.22-1.487-21-1" style="opacity:1"/><path fill="#ced2d3" d="M140.5 36.5q58.91.095 118 0 .356 1.936-1 3-25.98-2-53-2l-53 1q.533 1.533 2 2h1q1.565 3.834 5 6.5a32.4 32.4 0 0 1-8 .5h-1z" style="opacity:1"/><path fill="#7a6e6d" d="m257.5 39.5-2 3q-3.621 2.115-5 6-3.297.137-1-2l4-5q1 0 1-1 1.184-.425 2-1.5l-51.5-.5q-26.27 0-51.5 2-1.467-.467-2-2l53-1q27.02 0 53 2" style="opacity:1"/><path fill="#c9181f" d="M270.5 14.5q1.488-.258 2 1h-3q-.25 11.01.5 22l3-3q6.384.765 12 0l3 3q.274-4.297 1.5-8 .606 8.685-1.5 17a117 117 0 0 0-19.5-1q-.963-16.08 2-31" style="opacity:1"/><path fill="#736664" d="M432.5 37.5h3q0 1-1 1-36.535-.985-72 2-1.467-.467-2-2a1297 1297 0 0 1 72-1" style="opacity:1"/><path fill="#e8e8e9" d="M450.5 34.5q-.992 65.019 2 129-.467 1.467-2 2a2149 2149 0 0 1 0-131" style="opacity:1"/><path fill="#971e1f" d="M254.5 40.5q-49.5-2-99 0h-2q25.23-2 51.5-2l51.5.5q-.816 1.075-2 1.5" style="opacity:1"/><path fill="#5e5a58" d="M441.5 39.5q.09-.814 1-1a2149 2149 0 0 1 0 131q.498-65.255-1-130" style="opacity:1"/><path fill="silver" d="M292.5 29.5v14q2.688.2 5-1v6h-6q-.485-9.783 1-19" style="opacity:1"/><path fill="#c7161c" d="M422.5 39.5q-9.13 2.38-19 2.5a651 651 0 0 0-35 1.5 5.6 5.6 0 0 0-3-1q-1.5-.5-2-2a871 871 0 0 1 59-1" style="opacity:1"/><path fill="#fdfdfd" d="M441.5 39.5a4225 4225 0 0 1 1 130l-20 13a4225 4225 0 0 1-1-130q9.945-6.48 20-13" style="opacity:1"/><path fill="#be161c" d="M254.5 40.5q0 1-1 1-4.375 1.186-8.5 0a9.5 9.5 0 0 1-2.5 1.5q-41.997.75-84 .5a6.54 6.54 0 0 1-3-3q49.5-2 99 0" style="opacity:1"/><path fill="#c1c1c1" d="M325.5 28.5q1.486 9.719 1 20h-6q-.069-8.662-3-16 1.063-1.356 3-1a61 61 0 0 0 .5 11q2.034 1.32 4.5 1z" style="opacity:1"/><path fill="#b4141b" d="M345.5 15.5q1.602-1.402 4-1v31a98.3 98.3 0 0 0-19.5 1 10.1 10.1 0 0 1-1.5-4 687 687 0 0 0 20 0v-27z" style="opacity:1"/><path fill="#a01116" d="m253.5 41.5-4 5a517 517 0 0 1-44.5 2l-42.5-.5q-.816-1.076-2-1.5l-2-3q42.003.25 84-.5a9.5 9.5 0 0 0 2.5-1.5q4.125 1.186 8.5 0" style="opacity:1"/><path fill="silver" d="M266.5 38.5v10h-16q1.379-3.885 5-6 4.687 1.47 10 1-.426-2.872 1-5" style="opacity:1"/><path fill="#ab1319" d="M422.5 39.5a13.1 13.1 0 0 1 7 1 75.7 75.7 0 0 1-16 6.5q-21.066.3-42 1.5h-1l-5-6a5.6 5.6 0 0 1 3 1 651 651 0 0 1 35-1.5q9.87-.12 19-2.5" style="opacity:1"/><path fill="#961619" d="M289.5 29.5h1v19a128 128 0 0 1-22 1v-4q9.656-.323 19.5 1 2.106-8.315 1.5-17" style="opacity:1"/><path fill="#951619" d="M327.5 29.5q1.477 6.202 1 13a10.1 10.1 0 0 0 1.5 4 98.3 98.3 0 0 1 19.5-1v4q-8.514-.25-17 .5-2.66 2.703-5-.5z" style="opacity:1"/><path fill="#9d9c9d" d="M347.5 13.5q1.602-1.402 4-1v22q-.4 6.105 1 12 7 2 14 0-2.667-2.646-4-6h1q.5 1.5 2 2l5 6-9 2q-2.404 1.765-4-.5a25 25 0 0 0-7-.5v-36z" style="opacity:1"/><path fill="#7c7373" d="M154.5 40.5h1a6.54 6.54 0 0 0 3 3l2 3q-1.521 1.897-4.5 2-2.56-.013-4.5-1a32.4 32.4 0 0 0 8-.5q-3.435-2.666-5-6.5" style="opacity:1"/><path fill="#8f1215" d="M434.5 38.5q-6.323 5.542-14 9.5a1544 1544 0 0 0-41.5 1.5q-4.035-.004-7.5-1a977 977 0 0 1 42-1.5 75.7 75.7 0 0 0 16-6.5 13.1 13.1 0 0 0-7-1q-29.76-.495-59 1h-1q35.465-2.985 72-2" style="opacity:1"/><path fill="#939696" d="M269.5 13.5q-2.969 17.43-2 36-8.787.483-17-1h16v-36q1.937-.356 3 1" style="opacity:1"/><path fill="#1b140e" d="M302.5 33.5h2q2.647 1.442 6 1 1.937.356 3-1h5q-.482 8.29 1 16a346 346 0 0 0 8 2q-.186.91-1 1h-22q-1.578-2.634-5-2-.481-7.793 1-15v13h16a85 85 0 0 0-.5-13 9.2 9.2 0 0 1-4.5 2q-2.5-2-5 0-3.288-.385-5-3 0-1 1-1" style="opacity:1"/><path fill="#7e7b79" d="M473.5 34.5a86.8 86.8 0 0 0-1 18q10.05-.495 20 1-.186.91-1 1-9.719-1.485-20-1-.934-10.132 2-19" style="opacity:1"/><path fill="#fefefe" d="M413.5 53.5v97h-50v-97z" style="opacity:1"/><path fill="#bbb9b9" d="M362.5 52.5q25.763-.495 51 1h-50v97h50v1h-51z" style="opacity:1"/><path fill="#d0cecf" d="M421.5 52.5q-.498 65.255 1 130-.09.814-1 1a2149 2149 0 0 1 0-131" style="opacity:1"/><path fill="#2e241c" d="M301.5 32.5q1 0 1 1-1 0-1 1-1 0-1 1-1.481 7.207-1 15 3.422-.634 5 2v91l-4 2q-2.988-45.973-2-93-22.023-.5-44 1 .186.91 1 1a155 155 0 0 0 20 13q-.5 58.008 1 116 .91-.186 1-1l26-16q1 8.271 2 17 .91-.186 1-1a43549 43549 0 0 0 48-31q1.5-48.99 1-98-10.722-1.488-22-1v91q-2.343.35-4 2a2109 2109 0 0 1-3-92v-1q.814-.09 1-1a345 345 0 0 1-8-2h8q2.34 3.203 5 .5 8.486-.75 17-.5h1q3.535-.245 7 .5 1.596 2.265 4 .5l1 2v99h51q-25.809 1.02-52 2l-6-1q-1.689 1.962 0 4-6.876 2.373-10 9h-1q-.026-2.292-2-1.5a345 345 0 0 0-15 10.5q-1.488-.257-2 1a129 129 0 0 0-18 12h-1a29.6 29.6 0 0 1-5-3 21.1 21.1 0 0 0-1-9q-.91.186-1 1-4.325-2.06-7 2-1.477 6.202-1 13-.495 10.548 1 21 3.53-3.034 7-6-2.436 4.935-7 8h-2q.25-17.507-.5-35a208 208 0 0 1-14.5 10q.356-1.937-1-3-2.163-1.98-2-5l-2-2q2-25.23 2-51.5 0-26.005-1-51.5h-18q-1.477 6.201-1 13 .322 2.519-2 3a401 401 0 0 0-1-40h-51a1554 1554 0 0 0 48-2.5 625 625 0 0 0-50 0q-1.374.417-2 1.5h-77q-.888 4.696 3 7a339 339 0 0 1 16 26q-9.374 2.939-20 2-.356 1.936 1 3 0 1 1 1a2650 2650 0 0 1 38 59v1l-6-3a671 671 0 0 1-37-58.5q-.024-3.458 3-5l14-1A1182 1182 0 0 0 114 55.5q-1.344-3.788 1.5-6.5a572 572 0 0 0 34-1.5h2q1.94.987 4.5 1 2.979-.103 4.5-2 1.184.424 2 1.5l42.5.5a517 517 0 0 0 44.5-2q-2.297 2.137 1 2 8.213 1.483 17 1h1q11.13.446 22-1 3.672 1.46 8 1v-17z" style="opacity:1"/><path fill="#560909" d="M253.5 58.5a252 252 0 0 0 12 7.5 72.4 72.4 0 0 1-12 .5z" style="opacity:1"/><path fill="#acaaaa" d="M304.5 52.5h22v1h-21a2026 2026 0 0 1-1 90z" style="opacity:1"/><path fill="#b8b7b7" d="M355.5 53.5h-21a2026 2026 0 0 1-1 90v-91q11.278-.488 22 1" style="opacity:1"/><path fill="#999796" d="M300.5 145.5q-1.063 1.356-3 1v-93a442 442 0 0 0-42 1q-.814-.09-1-1 21.977-1.5 44-1-.988 47.027 2 93" style="opacity:1"/><path fill="#fdfdfd" d="m300.5 145.5 4-2a2026 2026 0 0 0 1-90h21v93q1.937.356 3-1 1.657-1.65 4-2a2026 2026 0 0 0 1-90h21q.5 49.01-1 98a43549 43549 0 0 1-48 31 2740 2740 0 0 1-2-17q-.91.186-1 1l-26 16-2-115a155 155 0 0 1-20-13 442 442 0 0 1 42-1v93q1.937.356 3-1" style="opacity:1"/><path fill="#928e8d" d="M326.5 53.5a2109 2109 0 0 0 3 92q-1.063 1.356-3 1z" style="opacity:1"/><path fill="#fdfdfd" d="M246.5 89.5a125.4 125.4 0 0 1-18-11q-1.393-1.783-1-4h-6a730 730 0 0 0-1 54h7v-3a100.2 100.2 0 0 1 20-13 343 343 0 0 1 1 37h-49v-96h49q.969 18.57-2 36m-53-37v26h-31q-.67 3.765 2 6 1.257.513 1 2 13.41 2.958 28 2v25h-32q-.356 1.936 1 3-.11 2.29 2 3t2 3q13.227 1.49 27 1v26h-37a2650 2650 0 0 0-38-59q9.88-2.942 21-2 .514-2.975-2-4h-1a339 339 0 0 0-16-26q-1.695-2.722-2-6z" style="opacity:1"/><path fill="#939191" d="M194.5 51.5v1h-76q.305 3.278 2 6-3.888-2.304-3-7z" style="opacity:1"/><path fill="#b9b5b5" d="m275.5 67.5 2 115q-.09.814-1 1-1.5-57.992-1-116" style="opacity:1"/><path fill="#4b4643" d="M249.5 52.5a401 401 0 0 1 1 40q-1.487.257-2-1a381 381 0 0 0 1-39" style="opacity:1"/><path fill="#888" d="M267.5 75.5q-.415-9.868-10.5-6-2.338 2.576-2.5 6-1.46-3.672-1-8 7.018-.25 14 .5 6.406 1.155 5 7.5z" style="opacity:1"/><path fill="#a5a6a7" d="M267.5 75.5h-13q.162-3.424 2.5-6 10.085-3.868 10.5 6" style="opacity:1"/><path fill="#797471" d="M384.5 75.5h1v53h6v1h-7z" style="opacity:1"/><path fill="#d6d6d6" d="M384.5 75.5q3.672-1.46 8-1a757 757 0 0 1-1 55v-54z" style="opacity:1"/><path fill="#291f16" d="M385.5 75.5h6v53h-6z" style="opacity:1"/><path fill="#bfbebe" d="M193.5 52.5h1v27h-31q-.356 1.936 1 3v2q-2.67-2.235-2-6h31z" style="opacity:1"/><path fill="#635d5b" d="M194.5 79.5q-15.312.514-30 3-1.356-1.064-1-3z" style="opacity:1"/><path fill="#6b6765" d="M136.5 84.5h1q.456.975 1 2-11.072.534-21 3-1.356-1.064-1-3 10.626.939 20-2" style="opacity:1"/><path fill="#c7c7c8" d="M137.5 84.5q2.514 1.025 2 4-11.12-.942-21 2-1 0-1-1 9.928-2.466 21-3a44 44 0 0 1-1-2" style="opacity:1"/><path fill="#661a18" d="M253.5 76.5v12h18v-12q1 25.495 1 51.5 0 26.27-2 51.5a2026 2026 0 0 0-1-90h-17q-.477-6.799 1-13" style="opacity:1"/><path fill="#83080e" d="M253.5 77.5v-1h18v12h-7q2.647-1.442 6-1a77 77 0 0 1-1-10z" style="opacity:1"/><path fill="#a71117" d="M253.5 77.5h16q.174 5.04 1 10-3.353-.442-6 1h-11z" style="opacity:1"/><path fill="#9fa0a0" d="M252.5 89.5h17v60a871 871 0 0 1-1-59h-15q-.306 3.278-2 6h-26v-6h14q5.183 4.112 11 2 2.322-.481 2-3" style="opacity:1"/><path fill="#0e0c0a" d="M224.5 97.5h38v102h3q-1.14 5.19-4.5 1a5098 5098 0 0 1-.5-101h-35q-1.257-.513-1-2" style="opacity:.145"/><path fill="#2b221b" d="M198.5 52.5v98h51q1.987-19.76 0-40-.91.186-1 1-1 0-1 1a100.2 100.2 0 0 0-20 13q-2.421 2.362-6 2v-53h6q-.393 2.217 1 4a125.4 125.4 0 0 0 18 11l2 2q.513 1.257 2 1-5.817 2.112-11-2-.513-1.257-2-1-3.55-3.986-9-6-5.551 1.197-3 6-1.46 3.672-1 8-.257 1.487 1 2-.25 11.011.5 22a744 744 0 0 0 21.5-14.5q3.301-1.238 5.5 1.5a484 484 0 0 1 0 44l-1.5 1.5q-48.5 1-97 0a22.2 22.2 0 0 1-4-6.5l6 3h38v-28h-28q.11-2.29-2-3a5.58 5.58 0 0 0-1-3q15.738-1 31-2v-27q-14.625.46-29-1 .257-1.487-1-2v-2q14.688-2.486 30-3v-28q.626-1.083 2-1.5a625 625 0 0 1 50 0 1554 1554 0 0 1-48 2.5" style="opacity:.968"/><path fill="#827f7e" d="M221.5 74.5v53q3.579.362 6-2v3h-7a730 730 0 0 1 1-54" style="opacity:1"/><path fill="#636262" d="M269.5 89.5a2026 2026 0 0 1 1 90l2 2h-3z" style="opacity:1"/><path fill="#d4d4d4" d="M165.5 86.5q14.375 1.46 29 1v27q-16.578-.964-32 2-1.356-1.064-1-3h32v-25q-14.59.958-28-2" style="opacity:1"/><path fill="#4c4643" d="M248.5 111.5q.09-.814 1-1 1.987 20.24 0 40a381 381 0 0 0-1-39" style="opacity:1"/><path fill="#8c8988" d="M194.5 114.5q-15.262 1-31 2a5.58 5.58 0 0 1 1 3q-2.11-.71-2-3 15.422-2.964 32-2" style="opacity:1"/><path fill="#6d6c6c" d="M225.5 89.5h12q1.487-.257 2 1h-14v6h38v82q-.939 10.625 2 20v1h-3v-102h-38q-.46-4.328 1-8" style="opacity:.994"/><path fill="#b0afb0" d="M166.5 122.5h28v28h-38v-1h37v-26q-13.773.49-27-1" style="opacity:1"/><path fill="#cacaca" d="M198.5 52.5h51a381 381 0 0 1-1 39l-2-2q2.969-17.43 2-36h-49v96h49a343 343 0 0 0-1-37q0-1 1-1a381 381 0 0 1 1 39h-51z" style="opacity:1"/><path fill="#520c0a" d="M237.5 89.5h-12q-2.551-4.803 3-6 5.45 2.014 9 6" style="opacity:1"/><path fill="#b1b1b1" d="M303.5 166.5q.09-.814 1-1 1 8.729 2 17-.09.814-1 1a2740 2740 0 0 0-2-17" style="opacity:1"/><path fill="#766d6d" d="M344.5 165.5h1l-13 14a309 309 0 0 0-4 3q-2.375-3.012-3-7 .512-1.257 2-1a9.86 9.86 0 0 0 1 6q8.03-7.533 16-15" style="opacity:1"/><path fill="#bcbcbc" d="M355.5 156.5v11a230 230 0 0 1-18 18h-1a30 30 0 0 1-.5-5q3.643-.794 5.5-4l-1-1q-3.213 3.607-8 4l13-14q3.124-6.627 10-9" style="opacity:1"/><path fill="silver" d="M269.5 149.5v32h3q-.163 3.02 2 5-5.235-1.345-6.5-7a604 604 0 0 0-3-24 261 261 0 0 1-1.5 23v-82h-12q1.694-2.722 2-6h15q-.495 29.76 1 59" style="opacity:1"/><path fill="#931316" d="M344.5 165.5q-7.97 7.467-16 15a9.86 9.86 0 0 1-1-6 345 345 0 0 1 15-10.5q1.974-.792 2 1.5" style="opacity:1"/><path fill="#adacad" d="M325.5 175.5q.625 3.988 3 7-1.063 1.356-3 1v-3q-4.33.165-7 3.5a224 224 0 0 0 4 15.5v1h-3a43.1 43.1 0 0 0-1-13q-.91.186-1 1-1.5 2.5-4 4v-3h-7l1-2a129 129 0 0 1 18-12" style="opacity:1"/><path fill="#9f9f9f" d="M298.5 184.5q-2.819-1.262-6-1 .46 4.328-1 8-.477-6.798 1-13 8.139-2.822 6 6" style="opacity:1"/><path fill="#6b1111" d="M301.5 184.5h-2v-8q.09-.814 1-1a21.1 21.1 0 0 1 1 9" style="opacity:1"/><path fill="#d9dada" d="M336.5 185.5q-1.258.513-1 2-3 4-7 7-3 0-3 3-2.29-.11-3 2a224 224 0 0 1-4-15.5q2.67-3.335 7-3.5v3q1.937.356 3-1a309 309 0 0 1 4-3q4.787-.393 8-4l1 1q-1.857 3.206-5.5 4 .028 2.41.5 5" style="opacity:1"/><path fill="#2b2724" d="M336.5 185.5h1q-.5 1.5-2 2-.258-1.487 1-2" style="opacity:.235"/><path fill="#e2e2e3" d="M274.5 186.5q1.356 1.063 1 3-5.904 3.399-10 9-2.939-9.375-2-20a261 261 0 0 0 1.5-23 604 604 0 0 1 3 24q1.265 5.655 6.5 7" style="opacity:1"/><path fill="#af161b" d="M299.5 184.5h2a29.6 29.6 0 0 0 5 3 54.5 54.5 0 0 0-6.5 6 41 41 0 0 1-.5-9" style="opacity:1"/><path fill="#6b6462" d="M299.5 176.5v8a41 41 0 0 0 .5 9 54.5 54.5 0 0 1 6.5-6h1l-1 2a31.5 31.5 0 0 0-5 4.5 4.93 4.93 0 0 1-3 .5v-10q2.139-8.822-6-6 2.675-4.06 7-2" style="opacity:1"/><path fill="#e0e1e1" d="M298.5 184.5v10a4.93 4.93 0 0 0 3-.5 31.5 31.5 0 0 1 5-4.5h7v3q-.5 1.5-2 2t-2 2q-1.5.5-2 2a6.55 6.55 0 0 1-3 3q-1.5.5-2 2a6.55 6.55 0 0 0-3 3 2968 2968 0 0 0-7 6 111 111 0 0 1-1-21q1.46-3.672 1-8 3.181-.262 6 1" style="opacity:1"/><path fill="#272423" d="M311.5 194.5q0 2-2 2 .5-1.5 2-2" style="opacity:.027"/><path fill="#2a2726" d="M328.5 194.5a6.55 6.55 0 0 1-3 3q0-3 3-3" style="opacity:.118"/><path fill="#3c3b3a" d="M317.5 188.5q.09-.814 1-1a43.1 43.1 0 0 1 1 13h3q-1.142 1.337-3 2-1-7.225-2-14" style="opacity:.529"/><path fill="#35312e" d="M275.5 189.5a71 71 0 0 1-10 10v-1q4.096-5.601 10-9" style="opacity:.592"/><path fill="#272423" d="M309.5 196.5q0 2-2 2 .5-1.5 2-2" style="opacity:.027"/><path fill="#37322f" d="M325.5 197.5a6.55 6.55 0 0 1-3 3v-1q.71-2.11 3-2" style="opacity:.059"/><path fill="#342e2b" d="M304.5 201.5q0 2-2 2 .5-1.5 2-2" style="opacity:.059"/><path fill="#2b2725" d="M302.5 203.5q0 3-3 3a6.55 6.55 0 0 1 3-3" style="opacity:.027"/></svg>