<svg xmlns="http://www.w3.org/2000/svg" viewBox="0 0 135.962 26.722"><path fill="#fff" fill-opacity=".5" stroke-width=".238" d="M71.721 12.797q0 .057-.014.096-.02.059-.065.059-.03 0-.063-.014-.04-.017-.044-.041.014 0 .032.005.042.01.052.01.04 0 .061-.04.016-.032.016-.077 0-.032-.02-.091-.021-.06-.021-.083 0-.007.004-.012t.011-.005q.019 0 .037.086.014.072.014.107m.183.049q0 .048-.028.076t-.077.028q-.027 0-.042-.013t-.015-.04q0-.037.05-.076.046-.036.085-.036.018 0 .024.023.003.013.003.038m-.029.013v-.01l-.005-.014q-.008.005-.025.026-.009.01-.016.015 0-.009.002-.015l.006-.013q-.02 0-.043.017t-.023.038q0 .014.015.014.03 0 .057-.014.033-.017.033-.044zm.225.006q0 .024-.017.053-.02.033-.041.033-.006 0-.01-.007-.005-.007-.005-.014 0-.01.018-.027.019-.018.019-.025l-.001-.01-.002-.005q-.036.008-.073.04-.037.034-.056.038-.004-.01-.004-.021 0-.014.006-.028.004-.011.015-.026l.035-.057.033-.057.034-.058q.006-.01.01-.013.006-.006.015-.008.006.002.008.007.003.005.003.012 0 .016-.02.044l-.04.051q-.021.033-.021.059v.005l.032-.015q.02-.008.033-.008.015 0 .022.01t.007.026zm.222-.028q0 .033-.016.07-.017.04-.042.055l-.01-.014-.002-.015q0-.008.023-.048.01-.018.01-.031v-.006q-.018.005-.061.032l-.087.053q-.007 0-.012-.005t-.005-.011q0-.01.032-.067l.034-.06q.008.01.01.022t.002.029v.011l.069-.04q.027-.014.037-.014.007 0 .012.015.006.015.006.024m.414.093q0 .009-.008.013-.007.004-.017.004l-.02-.002-.036-.004-.057.003-.034.002q-.029 0-.029-.03 0-.027.018-.078.01-.03.038-.095.025-.06.031-.084.002-.008.004-.01.004-.006.01-.006.01 0 .015.013.006.013.006.023 0 .017-.02.057l-.037.076q-.02.045-.02.068 0 .012.01.017.006.003.02.003l.037-.002.034-.003q.021 0 .035.006.02.009.02.028zm.177-.084q0 .048-.028.076-.029.028-.078.028-.027 0-.042-.013t-.015-.04q0-.037.05-.076.046-.036.086-.036.018 0 .023.023.003.013.003.038zm-.03.013v-.01l-.004-.014q-.008.005-.026.026l-.015.015q0-.009.002-.015l.006-.013q-.021 0-.044.017t-.022.038q0 .014.015.014.029 0 .056-.014.033-.017.033-.044zm.23-.023q0 .015-.008.032t-.02.029v-.007l.001-.018.001-.017q0-.008-.002-.012t-.01-.004q-.022 0-.055.034l-.072.076h-.006l-.01-.002q0-.017.012-.038l.029-.06.006-.023.005-.015.009-.014q.005-.007.013-.01l.005.057.031-.026q.021-.017.036-.017.016 0 .025.01t.01.025m.234-.056q0 .02-.053.053-.052.032-.075.032-.011 0-.015-.008-.003-.008-.003-.022v-.012q.032 0 .058-.01t.046-.032q-.014-.005-.03-.005-.034 0-.073.027-.043.029-.043.062 0 .031.043.044l.08.013q.044.007.044.023 0 .007-.016.012-.015.005-.04.005-.06 0-.096-.02-.047-.024-.047-.079 0-.057.058-.09.048-.03.11-.03.019 0 .034.01.018.01.018.027m.19-.085q0 .01-.026.044t-.025.051q0 .01.01.018.024.021.024.026 0 .006-.004.012t-.01.006q-.005 0-.014-.006l-.026-.019-.01.021q-.014.025-.019.037l-.014.044q-.013.03-.031.03v-.012q0-.034.021-.08l.024-.044q-.038-.02-.083-.02 0-.018.007-.026.008-.01.025-.01.016 0 .04.007l.024.006q.01-.003.025-.031.039-.068.053-.078l.006.012q.003.006.003.012m.175.17q0 .024-.017.053-.02.033-.042.033-.006 0-.01-.007t-.004-.014q0-.01.018-.027.019-.018.019-.025l-.001-.01-.002-.005q-.036.008-.073.04-.037.034-.056.038-.004-.01-.004-.021 0-.014.006-.028.004-.011.014-.026.017-.025.035-.057l.033-.057.035-.058q.006-.01.01-.013.006-.006.015-.008.006.002.008.007.003.005.003.012 0 .016-.021.044l-.04.051q-.02.033-.02.059v.005l.031-.015q.02-.008.034-.008t.022.01.007.026zm.391-.155q0 .022-.023.06-.016.024-.05.069-.035.044-.044.058l.036.011q.035.01.035.038l-.028.004h-.005v-.004l-.013-.002-.028.003-.03.003q-.013 0-.02-.005-.009-.005-.009-.017 0-.01.037-.057l.069-.088q.037-.05.037-.068 0-.007-.005-.01-.004-.003-.018-.003-.009 0-.037.018-.014.009-.023.009l-.008-.001-.006-.007q-.003-.006-.003-.01 0-.02.039-.036.033-.014.057-.014.02 0 .031.015.01.013.01.035zm.287.086q0 .057-.063.102-.057.04-.117.04-.03 0-.048-.015t-.018-.044q0-.065.057-.113.054-.045.12-.045.034 0 .052.02t.017.055m-.03.01q0-.021-.024-.032-.019-.008-.045-.008-.037 0-.078.037-.041.036-.041.073 0 .016.008.022t.024.006q.047 0 .097-.025.06-.03.06-.072zm.248-.096q0 .022-.024.06-.015.024-.05.069-.035.044-.043.058l.035.011q.035.01.035.038l-.028.004h-.005v-.004l-.012-.002q-.01 0-.029.003l-.03.003q-.012 0-.02-.005t-.009-.017q0-.01.037-.057l.07-.088q.036-.05.036-.068 0-.007-.005-.01-.004-.003-.017-.003-.01 0-.038.018-.014.009-.022.009l-.008-.001-.006-.007q-.003-.006-.003-.01 0-.02.038-.036.033-.014.057-.014.021 0 .032.015.01.013.01.035zm.219 0q0 .022-.024.06-.015.024-.05.069-.035.044-.043.058l.035.011q.035.01.035.038l-.028.004h-.005v-.004l-.012-.002q-.01 0-.029.003l-.03.003q-.012 0-.02-.005t-.008-.017q0-.01.036-.057l.07-.088q.037-.05.037-.068 0-.007-.005-.01-.004-.003-.018-.003-.01 0-.038.018-.013.009-.022.009l-.008-.001-.006-.007q-.003-.006-.003-.01 0-.02.039-.036.032-.014.057-.014.02 0 .031.015.01.013.01.035z"/><path fill="#32cb32" d="M64.794 26.552c-.285-.094-1.624-.617-2.976-1.163s-3.173-1.225-4.045-1.508c-1.514-.492-2.3-.722-6.385-1.868-1.644-.461-1.75-.504-1.33-.53.616-.04 4.903.879 6.763 1.449.15.045.164-.042.164-.97v-1.02l-.87-.12c-1.089-.147-2.218-.532-3.096-1.054-.85-.505-2.087-1.684-2.655-2.531-.414-.616-1.104-1.976-1.233-2.429l-.06-.211h16.458l-.054.211c-.03.117-.19.54-.359.941-.749 1.789-2.25 3.457-3.815 4.242a8.6 8.6 0 0 1-3.018.876l-.64.06v2.215l.448.142c.246.078 1.097.34 1.892.582 3.602 1.097 6.092 2.239 5.911 2.71-.077.202-.438.194-1.1-.024m-14.77-14.146c0-.067.062-.624.139-1.24C50.928 4.996 53.17.97 56.293.165c2.216-.57 4.444.37 5.862 2.474 1.353 2.007 2.337 5.419 2.602 9.019l.064.87h-7.399c-5.972 0-7.398-.023-7.398-.121z"/><path fill="#fff" stroke-width=".265" d="M5.948 15.928v-.681q-.774-.467-1.308-.653-.534-.187-1.05-.187-.8 0-1.288.383-.488.373-.488.989 0 .56.423.933.424.364 1.087.364.552 0 1.187-.28.645-.28 1.437-.868m0 2.604v-.877q-.718.588-1.427.868t-1.501.28q-1.354 0-2.191-.822Q0 17.161 0 15.835q0-1.372.893-2.212.902-.84 2.375-.84.507 0 1.151.168.654.159 1.464.495v-.55q0-1.27-.47-1.858-.469-.588-1.472-.588-.71 0-1.243.29-.534.289-.976.914l-1.602-.42q.442-1.082 1.464-1.67 1.03-.588 2.495-.588 1.841 0 2.651.896.82.896.82 2.986v4.031h1.39v1.643zm10.956-5.852q-.258-1.016-.884-1.548t-1.565-.532q-1.326 0-2.09.877-.764.868-.764 2.389 0 1.493.755 2.352.764.858 2.071.858.93 0 1.685-.485.764-.485 1.225-1.381l1.454.718q-.534 1.335-1.703 2.11-1.17.765-2.66.765-2.09 0-3.389-1.354-1.298-1.353-1.298-3.564 0-2.147 1.252-3.528 1.261-1.381 3.195-1.381.792 0 1.445.261.663.252 1.27.793v-.82h1.474v3.47zm7.522 4.396q1.298 0 2.035-.85.736-.848.736-2.36t-.736-2.361q-.728-.85-2.035-.85-1.29 0-2.035.86-.736.848-.736 2.35 0 1.494.745 2.353.746.858 2.026.858m4.622-3.191q0 2.202-1.28 3.564-1.28 1.354-3.342 1.354-2.053 0-3.324-1.354-1.27-1.353-1.27-3.564t1.27-3.556q1.27-1.353 3.324-1.353 2.062 0 3.342 1.362 1.28 1.354 1.28 3.547m2.265 3.005v-6.141h-1.299v-1.54h2.882v1.83q.479-1.065 1.16-1.531.682-.476 1.768-.476.157 0 .331.009.175 0 .36.009v1.801q-.01 0-.056-.009-.423-.028-.635-.028-1.482 0-2.173.859-.681.858-.681 2.753v2.463h1.648v1.643h-4.604v-1.643zm6.785 0v-6.141H36.8v-1.54h2.882v1.428q.92-.756 1.675-1.101.765-.345 1.51-.345 1.206 0 1.704.69.506.681.506 2.65v4.358h1.353v1.643h-3.01v-5.31q0-1.661-.258-2.09-.249-.439-.912-.439-.598 0-1.206.345-.598.346-1.289 1.092v4.76h1.363v1.642H36.8v-1.643zm32.322-2.52q.037 1.222.82 1.969.79.737 2.07.737.893 0 1.666-.43.773-.428 1.252-1.212l1.454.765q-.709 1.278-1.822 1.941-1.114.663-2.568.663-2.154 0-3.433-1.335-1.28-1.344-1.28-3.583 0-2.212 1.27-3.556 1.27-1.353 3.323-1.353 2.126 0 3.295 1.418 1.178 1.41 1.178 3.976zm.157-1.381h5.218q-.138-1.195-.81-1.83-.672-.634-1.813-.634-1.132 0-1.822.653-.681.644-.773 1.81zM79.9 6.82h-1.316V5.271h2.973V16.89h1.344v1.643h-4.317V16.89H79.9zm5.771 7.55q.037 1.222.82 1.969.79.737 2.07.737.893 0 1.666-.43.773-.428 1.252-1.212l1.454.765q-.709 1.278-1.822 1.941-1.114.663-2.568.663-2.154 0-3.433-1.335-1.28-1.344-1.28-3.583 0-2.212 1.27-3.556 1.27-1.353 3.323-1.353 2.126 0 3.295 1.418 1.178 1.41 1.178 3.976zm.157-1.381h5.218q-.138-1.195-.81-1.83-.672-.634-1.813-.634-1.132 0-1.822.653-.681.644-.773 1.81zm15.472-.309q-.258-1.016-.884-1.548t-1.565-.532q-1.325 0-2.089.877-.764.868-.764 2.389 0 1.493.755 2.352.764.858 2.07.858.93 0 1.685-.485.764-.485 1.224-1.381l1.454.718q-.533 1.335-1.702 2.11-1.17.765-2.66.765-2.09 0-3.387-1.354-1.298-1.353-1.298-3.564 0-2.147 1.252-3.528 1.26-1.381 3.193-1.381.792 0 1.445.261.663.252 1.27.793v-.82h1.473v3.47zm5.448 3.276q0 .682.157.933.165.243.58.243.211 0 .432-.056.23-.065.543-.205v1.624q-.35.149-.718.224-.359.084-.727.084-1.067 0-1.5-.514-.423-.513-.423-2.053V10.75h-1.206V9.21h1.206V7.96l1.656-1.39v2.64h1.712v1.54h-1.712zm3.672.934v-6.141h-1.297v-1.54h2.88v1.83q.48-1.065 1.16-1.531.682-.476 1.768-.476.156 0 .331.009.175 0 .359.01v1.8q-.009 0-.055-.009-.424-.028-.635-.028-1.482 0-2.172.859-.682.858-.682 2.753v2.463h1.648v1.643h-4.602v-1.643zm10.328.186q1.297 0 2.034-.85.736-.848.736-2.36t-.736-2.361q-.727-.85-2.034-.85-1.289 0-2.034.86-.737.848-.737 2.35 0 1.494.746 2.353.745.858 2.025.858m4.62-3.191q0 2.202-1.28 3.564-1.279 1.354-3.34 1.354-2.053 0-3.323-1.354-1.27-1.353-1.27-3.564t1.27-3.556q1.27-1.353 3.323-1.353 2.061 0 3.34 1.362 1.28 1.354 1.28 3.547m2.264 3.005v-6.141h-1.298v-1.54h2.881v1.428q.92-.756 1.675-1.101.764-.345 1.51-.345 1.206 0 1.703.69.506.681.506 2.65v4.358h1.353v1.643h-3.01v-5.31q0-1.661-.258-2.09-.248-.439-.91-.439-.6 0-1.207.345-.598.346-1.288 1.092v4.76h1.362v1.642h-4.317v-1.643z" style="fill:#666"/></svg>