<svg xmlns="http://www.w3.org/2000/svg" style="shape-rendering:geometricPrecision;text-rendering:geometricPrecision;image-rendering:optimizeQuality;fill-rule:evenodd;clip-rule:evenodd" viewBox="0 0 638 208"><path fill="#e50212" d="M307.5.5q15.68-3.424 19 12-4.575 17.287-21 10.5l-7-7q-7.437-2.535-9 5 1.563 7.535 9 5 2.704-.955 4-3.5 1.148 10.575-10 8.5-13.902-7.516-3-19 11.037-4.233 17 6 14.16 6.85 15-8-4.053-6.859-12-5-4.079 2.395-6.5 6.5a12.5 12.5 0 0 1 0-7 32.6 32.6 0 0 0 4.5-4" style="opacity:.706"/><path fill="#e50312" d="M362.5 32.5q7.1-.416 14 1 2 3.5 0 7-10.5-6.82-16 4 1.13 3.38 4 5.5a63.3 63.3 0 0 1 14.5 8.5q6.926 13.895-7.5 19.5-8.686 3.18-17-.5a46 46 0 0 0-3-7l1-1q9.94 7.64 19.5 0 1-3 0-6a265 265 0 0 1-13.5-7.5q-9.744-7.688-3.5-18.5a101 101 0 0 1 7.5-5" style="opacity:.803"/><path fill="#e50312" d="M220.5 33.5q13.509-.25 27 .5 1.904 3.208 0 6.5-8.213-2.77-17-2v13h14a13.1 13.1 0 0 1-1 7q-6.086-2.79-13-2-.814 10.512 2 20.5l-1 1.5q-5.5-2-11 0l-1-1.5q3.494-21.614 1-43.5" style="opacity:.821"/><path fill="#e50212" d="M285.5 32.5q.895.352 1 1.5a212.7 212.7 0 0 0-2.5 34.5q-8.885 15.628-25.5 8.5-4.884-2.38-6.5-7.5l-1-32-1.5-3q6-2 12 0l-1.5 3a210 210 0 0 0 0 29q2.872 10.28 12.5 5.5a6.98 6.98 0 0 0 2.5-3.5 256 256 0 0 0 0-32 4.46 4.46 0 0 1-1.5-2 1035 1035 0 0 0 12-2" style="opacity:.828"/><path fill="#e50112" d="M289.5 32.5a597 597 0 0 1 13 2 4.46 4.46 0 0 1-1.5 2l-1 48q-4.224 8.5-13.5 11l-1-1a22.2 22.2 0 0 0 5.5-8q1-25.5 0-51-1.558-1.116-1.5-3" style="opacity:.807"/><path fill="#e50112" d="M306.5 32.5a466 466 0 0 1 12 2q-1.875 22.252 0 44-5.5-2-11 0l-1-1.5a125 125 0 0 0 2-21.5 155.5 155.5 0 0 0-2-23" style="opacity:.83"/><path fill="#e50112" d="M321.5 33.5a257 257 0 0 1 32 1 12 12 0 0 0-1 6q-5.54-2.279-11-2a216.5 216.5 0 0 0-.5 36q3.19 1.345 1.5 4-5.5-2-11 0-1.867-2.183.5-4 .75-17.992.5-36-6.69-.922-12 3l-1-1.5a17 17 0 0 0 2-6.5" style="opacity:.839"/><path fill="#e50012" d="M381.5 33.5a43.1 43.1 0 0 1 13 1 15 15 0 0 0-3 3.5 511 511 0 0 1 1.5 31.5q9.624 9.054 15-3 1-14.5 0-29l-1.5-3q6-2 12 0a4.46 4.46 0 0 1-1.5 2l-1 33q-7.681 13.248-22.5 8.5-6.831-2.83-9.5-9.5l-1-32q-1.558-1.116-1.5-3" style="opacity:.824"/><path fill="#019e71" d="M245.5 103.5q52.214.219 58 52-36 .5 0 1-2.224 32.221-31 46.5-49.185 14.28-69.5-32.5-8.274-31.82 16.5-55.5 11.862-8.69 26-11.5m1 21q32.886-.855 38 31.5-2.775 13.046-12 23-25.077 16.446-45.5-5.5-14.606-25.096 8.5-44.5 5.33-3.181 11-4.5" style="opacity:.931"/><path fill="#009e71" d="M302.5 105.5q10.882-.47 21.5 1a6161 6161 0 0 0 12.5 48 133 133 0 0 1-23 1q-5.495-24.989-11-50" style="opacity:.91"/><path fill="#009e71" d="M354.5 105.5h22a67629 67629 0 0 1 14.5 60l1 1a31.8 31.8 0 0 1 2.5-9 61 61 0 0 1 22 0 3597 3597 0 0 0-11.5 46 166.5 166.5 0 0 1-25.5 1l-11-48q9.014.249 18-.5-9.487-.75-19-.5-3.108-15.572-4 0-9.513-.25-19 .5 8.986.749 18 .5l-11 48h-26q-4.392-23.306-11-47a61 61 0 0 1 22 0 32.4 32.4 0 0 1 2.5 10 1437 1437 0 0 0 15.5-62" style="opacity:.927"/><path fill="#009f71" d="M407.5 105.5h21a3967 3967 0 0 1-11.5 49q-11.163 1.97-22.5 0 5.937-24.7 13-49" style="opacity:.911"/><path fill="#009e71" d="M437.5 105.5a840 840 0 0 1 41 .5 18.8 18.8 0 0 1 5.5 4.5 2281 2281 0 0 1 28 70q.75-37.497.5-75h22a1201 1201 0 0 0 0 98q-15.508.25-31-.5l-4-2a59.8 59.8 0 0 1-7.5-14.5 1724 1724 0 0 1-22-57q-5.091-1.434-10.5-1v75h-22a1201 1201 0 0 0 0-98" style="opacity:.925"/><path fill="#009f71" d="M560.5 105.5h71v21q-32.504-.25-65 .5-2 2 0 4l45 1q17.161 3.92 22 20.5-36.003.25-72-.5-23.05-9.643-15.5-33.5 4.993-9.105 14.5-13" style="opacity:.938"/><path fill="#009e71" d="M113.5 106.5h90v21h-33v28q-44 .5 0 1v49a154 154 0 0 1-24.5-1l-.5-24q.024-12.6 2-24.5-2.936-13.856-2-28.5-16.008.25-32-.5-.02-10.34 0-20.5" style="opacity:.925"/><path fill="#0b9d71" d="M609.5 154.5q13.102-1.992 26.5 0 7.25 35.766-26.5 48.5-32.995.75-66 .5a133 133 0 0 1 1-23 3.65 3.65 0 0 0 1.5-1 756 756 0 0 1 54 1q20.097-3.685 13-23a14.7 14.7 0 0 0-3.5-3" style="opacity:.949"/><path fill="#009f71" d="M1.5 154.5h54v19h-11v-8h-23v10h18q.425 4.915-1 9.5a145 145 0 0 1-17 .5v9h6q.434 5.409-1 10.5-12 1-24 0-1.434-5.091-1-10.5h4v-29h-4z" style="opacity:.906"/><path fill="#009e71" d="M80.5 153.5q3.444 2.851 5.5 7a304 304 0 0 0 10 21 975 975 0 0 1 12.5-26.5 242 242 0 0 1 22-.5v11h-4v29h4q.434 5.409-1 10.5-11.574 1.2-23-.5-1.732-4.419-.5-9a15.3 15.3 0 0 1 4.5-1.5 38.7 38.7 0 0 1-.5-14.5A309 309 0 0 1 96.5 205q-3.788 1.344-6.5-1.5a363 363 0 0 0-11-23 98.4 98.4 0 0 0-.5 14q2.466-.32 4.5 1 2.991 13.256-10.5 10a47.7 47.7 0 0 1-9.5-1 50.4 50.4 0 0 1-.5-10h4v-29h-6v-11q10.281.486 20-1" style="opacity:.891"/></svg>