<svg xmlns="http://www.w3.org/2000/svg" viewBox="0 0 629.824 69.794"><g fill="#ececec"><path d="M104.383 8.338H91.261l-3.198 4.221q-2.554-2.952-7.453-4.2-4.899-1.25-13.492-1.215-19.613.174-33.18 7.665Q20.373 22.3 16.559 35.017q-1.934 7.105.558 12.851 2.49 5.746 8.984 9.447 9.606 5.356 27.528 5.336 8.403.01 14.73-1.354t10.8-4.22l1.3 4.38h11.103l3.67-13.14q1.204-4.098 1.667-5.117.462-1.02 1.294-1.414.673-.478 2.014-.717t3.678-.239h3.785l2.025-7.247H63.769l-2.025 7.247h5.3q2.34-.008 3.553.21 1.212.216 1.605.746.61.393.504 1.414-.108 1.02-1.193 5.116l-.156.558q-.873 3.21-3.779 4.718t-8.176 1.493q-3.516-.002-6.425-.826t-5.028-2.439q-3.575-2.7-4.485-6.64t.72-9.685q2.865-10.132 9.66-15.44 6.794-5.308 16.964-5.346 4.76.013 8.149 1.205 3.39 1.193 5.07 3.414 1.371 1.698 1.704 3.723t-.12 5.515h13.12zm47.329 0-32.618 39.978q-2.841 3.609-5.078 4.798t-6.031 1.095h-4.038l-2.024 7.247h38.355l2.025-7.247h-5.425q-3.189.01-4.446-.458-1.257-.466-.928-1.533.027-.296.474-.905.446-.61 2.382-2.997l3.302-4.14h25.865l.988 4.14q.513 2.382.593 3.017.078.634-.087 1.045-.227 1.107-1.598 1.483t-4.97.348h-4.92l-2.026 7.247h47.945l2.025-7.247h-4.164a23.4 23.4 0 0 1-3.298-.219q-1.467-.214-2.157-.577-.672-.46-1.388-1.861t-1.1-3.236l-8.387-39.978zm10.322 28.988h-19.052l14.848-17.918z"/><path fill="#cdc112" d="m300.13 16.94-8.32 29.784q-1.205 4.096-1.667 5.116t-1.294 1.414q-.673.477-2.014.716-1.34.24-3.678.24h-4.29l-2.024 7.246h49.08l2.024-7.247h-7.065q-2.338 0-3.545-.239t-1.613-.716q-.596-.453-.488-1.474t1.176-5.056l6.608-23.653q1.204-4.096 1.667-5.116.462-1.02 1.293-1.414.674-.478 2.014-.717t3.679-.239h7.065l2.025-7.247h-49.08l-22.385 32.253-4.237-32.253h-49.08l-2.025 7.247h7.066q2.337 0 3.545.24 1.206.238 1.613.716.612.393.504 1.414t-1.193 5.116l-6.608 23.653q-1.186 4.035-1.65 5.056-.462 1.02-1.31 1.474-.673.477-2.014.716-1.34.24-3.678.24h-7.066l-2.024 7.246h38.734l2.024-7.247h-4.29q-2.338 0-3.544-.239-1.207-.239-1.614-.716-.61-.394-.504-1.414.108-1.02 1.193-5.116l8.321-29.785 7.12 44.517h19.808z"/><path d="m377.44 8.338-32.617 39.978q-2.842 3.609-5.079 4.798t-6.03 1.095h-4.038l-2.025 7.247h38.356l2.025-7.247h-5.426q-3.188.01-4.445-.458-1.257-.466-.928-1.533.028-.296.474-.905.446-.61 2.382-2.997l3.302-4.14h25.865l.988 4.14q.514 2.382.592 3.017t-.087 1.045q-.226 1.107-1.597 1.483t-4.97.348h-4.921l-2.025 7.247h47.945l2.024-7.247h-4.163a23.4 23.4 0 0 1-3.298-.219q-1.467-.214-2.157-.577-.672-.46-1.389-1.861-.716-1.402-1.099-3.236l-8.387-39.978zm10.323 28.988H368.71l14.847-17.918zm54.279-28.988-10.083 17.09 12.167 3.616q1.845-6.97 6.879-10.283t13.41-3.176l-8.7 31.139q-1.204 4.096-1.666 5.116-.463 1.02-1.294 1.414-.674.477-2.014.716-1.341.24-3.678.24h-7.066l-2.025 7.246h52.36l2.026-7.247h-7.066q-2.338 0-3.545-.239t-1.613-.716q-.612-.394-.504-1.414t1.193-5.116l8.699-31.139h2.65q7.009.006 9.754 2.907 2.745 2.903 1.15 8.64l-.534 1.912 13.804-2.268-3.766-18.697z"/><path fill="#cdc112" d="M608.888 8.338h-83.64l-2.024 7.247h7.066q2.337 0 3.545.24 1.206.238 1.613.716.612.393.504 1.414t-1.193 5.116l-6.608 23.653q-1.203 4.096-1.666 5.116t-1.294 1.414q-.673.477-2.014.716-1.34.24-3.678.24h-7.066l-2.024 7.246h83.64l13.165-18.9-17.3-2.84q-1.072 3.227-1.807 4.827a16.4 16.4 0 0 1-1.762 2.977q-1.638 2.252-4.542 3.952a19.6 19.6 0 0 1-6.173 2.34q-1.536.285-3.268.348-1.733.062-7.82.05h-13.88l4.606-16.486h3.912q5.268-.03 7.182 1.613 1.915 1.642.85 5.316l-.446 1.593h11.103l6.675-23.891h-11.103q-.625 2.254-1.123 3.285-.495 1.03-1.162 1.732-1.412 1.667-3.812 2.468-2.4.802-5.806.797h-4.29l4.206-15.052h16.654q3.132-.002 4.68.07 1.55.072 2.549.249 2.279.366 3.964 1.165t2.612 1.94q1.383 1.828 1.66 4.222.278 2.394-.633 5.654l18.313-2.273z"/></g><g fill="#cdc112"><path d="M513.17 57.82v-3.563l4.576-.042c4.716-.044 5.111-.072 6.419-.452.666-.194 1.586-.768 1.917-1.198.684-.886 1.122-2.313 5.346-17.432 4.218-15.098 4.692-16.95 4.551-17.784-.075-.447-.529-.97-1.055-1.217-.975-.458-1.359-.489-6.687-.527-2.738-.02-4.976-.044-4.974-.053l1.007-3.588 1.002-3.571 28.056-.023 28.056-.022v7.232h-19.967l-1.95 6.987a7441 7441 0 0 1-2.111 7.553l-.161.567 3.367-.041c2.578-.032 3.583-.077 4.293-.193 2.813-.46 4.574-1.267 6.038-2.77 1.082-1.11 1.68-2.254 2.327-4.446l.256-.87h7.908l-.003 5.602-.003 5.602-1.762 6.295-1.761 6.295-5.52.023c-5.228.022-5.515.015-5.47-.134.598-2 .81-3.19.738-4.139-.135-1.773-1.074-2.877-3.005-3.533-1.565-.531-2.098-.588-5.907-.632l-3.451-.039-.137.477c-.634 2.207-4.434 15.883-4.434 15.96 0 .133 20.69.135 22.455.002 2.777-.21 5.13-.83 7.389-1.947l.87-.43v9.615H513.17zm68.348-1.268v-4.791l1.518-1.031c2.792-1.897 4.438-4.195 6.027-8.414l.944-2.505 7.854 1.284c4.32.706 8.152 1.351 8.518 1.434l.665.15-6.472 9.285-6.472 9.286-6.291.047-6.291.047zm11.613-27.947c.003-.117.121-.734.262-1.373.535-2.434.263-5.215-.697-7.11-1.288-2.54-4.768-4.212-9.259-4.447l-1.92-.1V8.481h13.662c7.513 0 13.66.02 13.66.045s.522 4.057 1.158 8.96c.637 4.905 1.121 8.954 1.076 9-.046.045-3.842.548-8.435 1.117-4.594.57-8.613 1.075-8.933 1.124-.38.058-.578.016-.574-.123z"/><path d="M581.34 56.58v-4.682l1.026-.698c3.315-2.256 4.964-4.511 6.744-9.226.37-.982.724-1.843.785-1.913.167-.193 16.723 2.596 16.652 2.806-.133.39-12.594 18.16-12.778 18.221-.109.036-2.95.09-6.314.119l-6.116.053z"/><path d="M517.41 57.883v-3.457l1.098-.115c.604-.063 1.83-.116 2.724-.117 2.973-.004 4.565-.713 5.357-2.387.491-1.038 2.52-7.963 5.89-20.11 3.886-14.001 3.938-14.259 3.086-15.148-.271-.284-.79-.604-1.154-.71s-2.971-.253-5.795-.322-5.135-.173-5.137-.232c-.002-.058.415-1.613.926-3.455l.93-3.348h56.004v6.964h-19.974l-.27.938c-.147.516-1.083 3.859-2.078 7.429s-1.858 6.615-1.916 6.766c-.094.245.316.262 3.718.15 5.616-.185 7.683-.756 9.79-2.708 1.166-1.079 2.133-2.737 2.622-4.496l.31-1.114h7.799v10.956l-1.528 5.46a1734 1734 0 0 1-1.799 6.396l-.27.938h-5.245c-3.173 0-5.287-.068-5.351-.172-.059-.095.027-.678.191-1.295.456-1.718.408-3.477-.12-4.434-1.093-1.979-3.602-2.63-10.262-2.662l-1.793-.009-1.034 3.706c-2.708 9.702-3.52 12.766-3.412 12.874.064.064 5.233.116 11.486.116 10.344-.002 11.53-.032 13.154-.335 1.888-.353 3.73-.946 5.134-1.654l.848-.427v9.47h-63.928z"/><path d="M517.41 57.883v-3.457l1.098-.115a32 32 0 0 1 2.641-.115c2.399 0 4.134-.577 5.055-1.68.568-.681 2-5.454 6.556-21.857 2.53-9.107 3.222-11.875 3.222-12.879 0-.754-.074-.936-.544-1.33a3.7 3.7 0 0 0-1.205-.634c-.364-.097-2.932-.232-5.706-.3-2.775-.069-5.047-.173-5.049-.231s.413-1.613.923-3.455l.928-3.348h56.01v6.964h-9.988c-9.359 0-9.993.02-10.078.313-1.257 4.361-4.04 14.54-4.04 14.774 0 .3.213.312 3.615.193 4.312-.15 5.812-.413 7.75-1.356 2.323-1.131 3.924-3.21 4.703-6.111l.228-.848h7.81v10.984l-1.522 5.445c-.838 2.995-1.644 5.868-1.791 6.383l-.268.938h-5.252c-2.89 0-5.294-.067-5.345-.149-.05-.081.066-.916.257-1.854.567-2.776.043-4.391-1.74-5.362-1.4-.762-2.843-1-6.839-1.134l-3.66-.121-1.234 4.444c-2.857 10.294-3.33 12.081-3.231 12.181.194.194 17.46.243 20.982.06 3.935-.205 5.938-.616 8.28-1.698l1.363-.63v9.442h-63.928zm-79.285 3.367c0-.102 1.085-4.005 1.626-5.848l.353-1.206h4.88c5.153 0 6.272-.112 7.564-.757 1.116-.557 1.541-1.279 2.448-4.153.986-3.125 9.379-33.18 9.379-33.587 0-.269-.201-.286-2.009-.176-4.071.248-6.909.89-9.519 2.151-2.849 1.378-5.115 3.465-6.668 6.141-.73 1.26-1.983 4.249-1.983 4.734 0 .16-.11.29-.247.29-.206 0-11.749-3.37-11.834-3.454-.015-.015 2.2-3.805 4.923-8.42l4.951-8.394 3.202-.115c1.761-.063 17.633-.155 35.271-.205l32.07-.09 1.846 9.193c1.307 6.508 1.787 9.23 1.644 9.318-.307.19-13.055 2.248-13.176 2.127-.058-.058.11-.967.374-2.019.409-1.634.468-2.19.406-3.81-.061-1.608-.147-2.052-.557-2.903-.892-1.85-2.922-3.304-5.569-3.992-1.806-.47-7.796-.84-8.007-.495-.152.248-8.709 30.997-9.328 33.518-.716 2.916-.752 3.53-.239 4.043.9.9 1.322.961 6.994 1.022 2.922.032 5.31.112 5.306.18-.003.066-.432 1.648-.953 3.514l-.948 3.393-26.1.045c-14.355.025-26.1.005-26.1-.045m-110.281-.225c.054-.173.465-1.64.912-3.26s.852-3.076.901-3.239c.078-.26.556-.304 3.966-.372 3.413-.069 4.003-.124 4.934-.465 1.488-.545 2.492-1.238 4.01-2.77.723-.73 8.846-10.557 18.05-21.838l16.734-20.51 14.673-.045c8.07-.025 14.672-.014 14.672.026s1.922 9.22 4.27 20.403c2.519 11.995 4.462 20.843 4.74 21.58.258.688.745 1.629 1.083 2.09.926 1.268 1.605 1.43 6.391 1.528l3.894.079-.106.483c-.058.265-.489 1.844-.957 3.509l-.852 3.026-23.874.045c-13.13.025-23.873-.015-23.872-.089 0-.074.43-1.661.952-3.527l.95-3.393 4.807-.093c3.94-.075 4.925-.145 5.462-.386.909-.409 1.299-1.07 1.285-2.182-.01-.828-1.145-6.243-1.511-7.205l-.153-.402h-25.72l-.431.49c-1.651 1.881-5.83 7.356-5.917 7.753-.147.668.18 1.196.958 1.546.541.244 1.453.306 5.261.356 4.208.055 4.598.086 4.517.36-.05.164-.458 1.624-.909 3.245a516 516 0 0 1-.912 3.259c-.089.295-1.159.312-19.201.312-18.161 0-19.102-.015-19.007-.314m59.924-23.809c0-.274-4.097-17.711-4.18-17.795-.039-.038-.825.84-1.75 1.951-6.121 7.364-12.945 15.627-13.061 15.816-.11.177 1.821.223 9.427.223 6.786 0 9.564-.057 9.564-.195m-186.422 23.9c.004-.123.429-1.71.944-3.527l.936-3.303 5.44-.103c5.641-.107 6.22-.18 7.333-.93 1.376-.927 1.453-1.151 5.983-17.338 5.07-18.116 5.167-18.553 4.29-19.377-.85-.798-1.83-.944-7.17-1.066l-5.006-.115.964-3.437.965-3.438h48.984l2.024 15.491c1.114 8.52 2.08 15.771 2.146 16.113l.121.622 2.358-3.39c1.297-1.864 6.318-9.095 11.158-16.068l8.8-12.679 22.54-.045 22.54-.045v6.914l-4.062.105c-4.417.114-5.66.312-6.828 1.084-1.262.836-1.382 1.19-6.055 17.917-3.97 14.21-4.507 16.27-4.544 17.433-.025.759.039.923.534 1.365.86.77 1.886.897 7.214.897 2.647 0 4.816.06 4.82.134s-.417 1.681-.937 3.571l-.945 3.437h-24.42c-19.419.001-24.419-.044-24.416-.222.002-.123.426-1.71.941-3.527l.937-3.303 4.104-.105c6.254-.159 6.594-.359 7.997-4.717.907-2.815 9.072-32.088 9.006-32.286-.03-.09-7.164 9.807-15.852 21.996l-15.797 22.16-9.863.003-9.862.002-.09-.402c-.049-.22-1.616-10.004-3.483-21.74-1.866-11.737-3.457-21.576-3.534-21.865-.113-.426-.935 2.326-4.372 14.643-4.337 15.54-5.314 19.243-5.314 20.13 0 .783.313 1.198 1.22 1.616.756.348 1.197.39 4.717.445 2.781.043 3.884.12 3.884.267 0 .113-.417 1.713-.928 3.556l-.927 3.35H220.59c-15.285 0-19.25-.046-19.244-.223m-99.226-.089c.051-.172.462-1.639.913-3.26s.86-3.078.91-3.24c.077-.26.556-.305 3.965-.373 3.42-.069 4.004-.124 4.95-.468 1.39-.506 2.572-1.33 4.056-2.83.66-.667 8.74-10.454 17.954-21.749l16.755-20.536 14.68-.045c8.073-.025 14.68.005 14.68.066s1.933 9.322 4.296 20.577c4.486 21.36 4.692 22.188 5.89 23.643.879 1.065 1.738 1.248 6.286 1.34 2.137.044 3.883.132 3.882.196s-.43 1.643-.952 3.51l-.95 3.392-23.884.045-23.883.046.11-.502c.06-.275.493-1.863.961-3.527l.851-3.026 4.812-.097c2.647-.054 4.973-.167 5.17-.253.851-.37 1.338-.86 1.518-1.53.198-.732-.155-2.842-1.117-6.692l-.402-1.607-12.946-.045-12.946-.044-3.024 3.803c-1.663 2.092-3.099 4.028-3.19 4.303-.235.705.092 1.314.901 1.678.56.25 1.431.31 5.276.36 4.21.056 4.598.087 4.513.36-.134.43-1.46 5.157-1.7 6.058l-.2.76h-19.113c-18.118 0-19.108-.017-19.021-.313zm59.934-23.781c0-.091-.925-4.101-2.054-8.912-1.13-4.81-2.054-8.799-2.054-8.863s-.077-.07-.17-.011c-.182.112-14.49 17.347-14.717 17.728-.106.177 1.827.223 9.43.223 5.735 0 9.565-.066 9.565-.165M47.232 62.397c-15.644-.983-25.65-5.65-29.647-13.826-1.355-2.771-1.686-4.265-1.685-7.589.003-4.04.651-6.657 2.676-10.803 2.533-5.185 6.56-9.58 12.227-13.34 9.962-6.613 23.444-9.92 38.93-9.549 2.405.058 5.138.193 6.07.302 5.299.615 8.813 1.902 11.343 4.154l.959.854 1.572-2.058 1.573-2.057 6.473-.002c3.56 0 6.473.06 6.473.133-.001.074-1.237 4.554-2.746 9.955l-2.745 9.822-6.5.047-6.5.046.16-1.825c.32-3.612-.405-6.007-2.444-8.075-2.615-2.653-6.596-3.879-12.595-3.877-7.443.002-12.876 1.835-17.896 6.04-4.51 3.776-8.098 10.437-9.457 17.554-.494 2.59-.428 6.085.144 7.683 1.552 4.33 4.85 7.139 10.007 8.52 1.607.432 2.02.466 5.662.48 3.215.011 4.188-.046 5.357-.315 3.047-.7 5.174-2.193 6.196-4.349.604-1.272 1.929-6.35 1.929-7.39 0-.803-.388-1.284-1.4-1.74-.536-.24-1.448-.305-5.073-.355-2.431-.033-4.42-.095-4.42-.137 0-.091 1.122-4.116 1.626-5.834l.353-1.205h22.85c12.567 0 22.85.04 22.85.09 0 .102-1.087 4.01-1.626 5.847l-.354 1.206-3.162.003c-4.625.004-6.436.499-7.368 2.013-.463.752-1.396 3.743-3.379 10.84-.892 3.193-1.742 6.226-1.89 6.742l-.267.937H80.493l-.58-2.009c-.32-1.105-.636-2.07-.704-2.144s-.737.213-1.487.64c-5.571 3.176-14.082 4.808-24.686 4.735-1.965-.013-4.576-.087-5.804-.164m545.724-33.924c0-.066.085-.546.189-1.066.27-1.357.338-2.098.296-3.264-.054-1.491-.287-2.63-.77-3.758-.866-2.023-2.881-3.499-5.862-4.292-1.258-.334-2.565-.506-4.602-.605l-.868-.042V8.391h9.839c5.411 0 11.542.018 13.625.041l3.787.042.585 4.52c.952 7.362 1.648 12.982 1.648 13.31 0 .035-.106.08-.237.102-1.401.223-17.007 2.188-17.38 2.188-.204 0-.25-.022-.25-.12zm-11.567-.662-.005-5.445h3.072l-1.496 5.357a836 836 0 0 1-1.531 5.446c-.02.048-.037-2.363-.04-5.358"/></g></svg>