<svg xmlns="http://www.w3.org/2000/svg" data-name="Layer 1" viewBox="0 0 3839 1503.683"><path d="M2417.5 876.8v136.5l-174-136.5h-693.2l-86.6 163.5-94.7-163.5H371.8L0 1503.4h991.1c157.5 0 253.6-47.4 307.2-107.6l66.6 107.9h978v-136.8l175.9 136.8h1207V876.8Z" style="fill:url(#Dégradé_sans_nom)" transform="translate(0 -.017)"/><path d="M3839 16.6h-832.7c-61.3.3-122.8 17.9-178.4 52.6a401 401 0 0 0-62.2 48.4c-52.6-62.6-108.1-101-197.8-101H1156.6l-45.4 139.7L1088 16.6H780l-11.2 25.5L739 31.8C577.7-24.1 421.2-6.2 273.8 85c-153.3 94.9-224.6 243.4-206 429.4 11.2 111.8 82 211.4 189.5 266.3 77.5 39.7 164.7 51.3 251.3 36.6h275.2l67.3-149.2 26.2 149.2h1648.5c72.3 0 148.4-36.5 204.8-92.1 43.5 47.3 99.1 81.5 163.3 96.4 83.8 19.3 172.7 3.4 250-45 3.4-2.1 6.7-4.5 10-6.7l-7.5 47.4h335.7l47.3-313.8Z" style="fill:url(#Dégradé_sans_nom_2)" transform="translate(0 -.017)"/><path d="m1549 119.5-137.6 323.8-59.4-323.8h-120.1l-155.2 477.7-79.6-477.7H847.4L620.7 634.1 654.5 419H429.2L412 529.7h94.1L495.3 589c-54 21.5-145.7 13.4-184.9-56.7-24.8-44.4-47.8-143.7 56.6-234.8 85-74.2 232.1-87.7 317.1-48.6 0 0 10.8-62.1 18.9-120.1-163.2-56.7-290.1-9.5-375 43.2-115.7 71.6-171.4 180.8-156.5 329.1 17.2 172.2 240.1 280.7 429 171.4 1.7-1 3-1.8 4.3-2.5L587 710.4h126.8l79.6-176.7h140.3l31 176.7h206.4l105.2-330.6 67.5 330.6h81l157.9-365.6 16.1 365.6h121.4l-25.6-590.9zM842 419l51.3-114.6L915.5 419Z" style="fill:#fff" transform="translate(0 -.017)"/><path d="M1729.8 710.383h338.6l20.3-126.8h-211.9l16.8-105.2h184.3l20.3-126.8h-186.3l16.2-105.3h211.8l20.3-126.8h-336zM3504 119.483l-120.1 192.9-75.5-192.9h-139l143 311.6-44 279.3h121.4l37.3-246.9 218.6-344z" style="fill:#fff"/><path d="M3052.8 124.6c-134.6-31.1-274.2 76.1-311.9 239.6-37.8 163.3 40.8 320.9 175.4 352s274.2-76.1 311.9-239.5-40.8-321-175.4-352.1m47.5 347.3c-32.8 98.3-111.4 154.7-175.7 126-64.2-28.8-89.7-131.7-56.9-230 32.7-98.3 111.3-154.7 175.6-125.9 64.3 28.7 89.8 131.7 57 229.9" style="fill:#fff" transform="translate(0 -.017)"/><path d="M2571.3 122.8c-65.6-1.1-227.6 0-227.6 0h1.3l-93.7 586.4h273.1c112.5 0 277-165.8 127.2-301.1 154-159.4 1.4-283.9-80.3-285.3m-71 472.7h-107.1l18.8-117.9h101.7c96.4 0 93.7 117.9-13.4 117.9m14.7-238.4h-84.4l18.8-109.8h79c85.7 0 68.3 109.8-13.4 109.8" style="fill:#fff" transform="translate(0 -.017)"/><path d="m3500.9 492.8-44.4 294.7h-275l2.4-15.4c-4.8 3.3-9.4 6.7-14 10.3-7.1 5.6-13.7 11.8-20.7 17.5l-2.8 17.5h335.7l47.3-313.8Z" style="fill:url(#Dégradé_sans_nom_3)" transform="translate(0 -.017)"/><path d="m2731.6 682.2-22 21.7c-53 52.3-121.7 83.5-183.8 83.5H902.4l-2.1-11.7a321 321 0 0 1-27.3 17.2l4.3 24.4h1648.5c72.3 0 148.4-36.5 204.8-92.1Z" style="fill:url(#Dégradé_sans_nom_4)" transform="translate(0 -.017)"/><path d="M768.7 42.2 739 31.8C577.7-24.1 421.2-6.2 273.8 85c-153.3 94.9-224.6 243.4-206 429.4 11.2 111.8 82 211.4 189.5 266.3 77.5 39.7 164.7 51.3 251.3 36.6l-2.5-29.9-2.5.4a399.4 399.4 0 0 1-66.9 5.7c-59 0-114.8-13.3-165.8-39.4-98.4-50.3-163.2-141-173.4-242.7-8.7-87.1 3.3-165.5 35.7-233 32.3-67.3 84.9-123.9 156.3-168.1C375.9 57 466.1 29.9 557.7 29.9c56.1 0 113.8 10.2 171.5 30.2l55.7 19.4Z" style="fill:url(#Dégradé_sans_nom_5)" transform="translate(0 -.017)"/><path d="m3181.5 787.483-35 29.9h335.6l-25.7-29.9z" style="fill:url(#Dégradé_sans_nom_6)"/><path d="m3194.1 707.583-40.1 62.4-7.5 47.4 35-29.9z" style="fill:url(#Dégradé_sans_nom_7)"/><path d="m3839 16.583-54.4 29.9-283.7 446.3 28.6 10.7z" style="fill:url(#Dégradé_sans_nom_8)"/><path d="m1156.6 16.583-45.4 139.7-9.4 125.5 76.5-235.3z" style="fill:url(#Dégradé_sans_nom_9)"/><path d="m1088 16.583-25.3 29.9 39.1 235.3 9.4-125.5z" style="fill:url(#Dégradé_sans_nom_10)"/><path d="m780 16.583 19.4 29.9h263.3l25.3-29.9z" style="fill:url(#Dégradé_sans_nom_11)"/><path d="m780 16.583-11.3 25.6 16.2 37.3 14.5-33z" style="fill:url(#Dégradé_sans_nom_12)"/><path d="M764.5 787.483H506.1l2.5 29.9h275.2z" style="fill:url(#Dégradé_sans_nom_13)"/><path d="m851.2 668.083 12.6-100.6-99.3 220 19.3 29.9z" style="fill:url(#Dégradé_sans_nom_14)"/><path d="m902.4 787.483-25 29.9-26.2-149.3 12.6-100.6" style="fill:url(#Dégradé_sans_nom_15)"/><path d="M3133.7 747.6c-1.9 1.3-3.7 2.5-5.2 3.5l-.4.2c-50.6 31.7-107.2 48.4-163.6 48.4a284.3 284.3 0 0 1-63.8-7.2c-56.1-13-107.3-43.2-148.1-87.5l-20.9-22.8-1 43c43.5 47.3 99.1 81.5 163.3 96.4 83.8 19.3 172.7 3.4 250-45 3.4-2.1 6.7-4.5 10-6.7l40.1-62.4-56.6 37.5c-1.3.9-2.5 1.8-3.8 2.6" style="fill:url(#Dégradé_sans_nom_16)" transform="translate(0 -.017)"/><path d="M2765.7 117.7C2713.1 55 2657.6 16.6 2567.9 16.6H1156.6l21.7 29.9h1389.6c82.2 0 129.4 36.2 175 90.4l20.4 24.3Z" style="fill:url(#Dégradé_sans_nom_17)" transform="translate(0 -.017)"/><path d="M3839 16.6h-832.7c-61.3.3-122.8 17.9-178.4 52.6a401 401 0 0 0-62.2 48.4l-2.5 43.5 23-21.8a367.4 367.4 0 0 1 57.5-44.8c50-31.2 106.2-47.9 162.6-48.1h778.2Z" style="fill:url(#Dégradé_sans_nom_18)" transform="translate(0 -.017)"/><path d="m1614 981-3.5 6.3-145.5 264.4-154.4-264.6-3.5-6h-136.5l11.2 18.4 26.3 43.3c-42.1-40-106.6-61.7-190.5-61.7H742.9v343.7L539.5 987.3l-3.5-5.9H431l-3.5 6-231.4 389.9-10.9 18.3h91v.1h202.2v-91.6h-119l119.1-214.8 168.2 300 3.5 6.2h135.5l-.2-.4h208.2c179.5 0 270.6-70.1 270.6-208.4 0-24-3.1-46.2-9.1-66.3l162.9 268.9 3.5 5.8h79.3l3.5-6.1 226.1-389.9 10.6-18.2H1614Zm-640.8 317.6H862.7V1075h155.7c84.2 0 123.5 34.1 123.5 107.1 0 87-42.5 116.5-168.7 116.5" style="fill:#fff" transform="translate(0 -.017)"/><path d="M2533.8 980.983h-12.1v246.4l-311.4-243.8-3.3-2.6h-81.7v344l-203.7-337.9-3.6-5.9h-105l-3.5 5.9-231.4 389.9-10.9 18.4h123.4l.3-.4h169.8v-91.6h-119.1l119-214.3 168.1 300.1 3.5 6.2h135.6l-.1-.2h68.5v-249.8l310.2 247.1 3.3 2.7h81.5v-414.2z" style="fill:#fff"/><path d="M3023.8 981.1H2781c-85.2 0-113.9 26.4-113.9 104.5v205.2c0 77.9 28.7 104.3 113.9 104.3h242.8c85.3 0 114.1-26.4 114.1-104.3v-58.2l-12.1-.1-95.6-.2H3018v63.8h-231.4v-218.6H3018v57.5l12.2.1 95.5.3h12.2v-49.9c.1-79-27.7-104.4-114.1-104.4" style="fill:#fff" transform="translate(0 -.017)"/><path d="M3611.9 1298.583h-315.2v-72.5h188.1v-91.4h-188.1v-59.9h322.8v-93.7h-442.6v414.1h447.2v-96.6z" style="fill:#fff"/><path d="M1276.1 1376c-39.6 44.5-121.3 97.6-284.9 97.6l-709.1.2H52.5L0 1503.4l283.7.2 707.4-.2c157.5 0 253.6-47.4 307.2-107.6l4.3-49.8Z" style="fill:url(#Dégradé_sans_nom_19)" transform="translate(0 -.017)"/><path d="m1302.7 1345.983-4.3 49.8 66.6 107.9 16.6-29.9z" style="fill:url(#Dégradé_sans_nom_20)"/><path d="M2313.8 1473.783h-931.4l-16.7 29.9h978z" style="fill:url(#Dégradé_sans_nom_21)"/><path d="M2313.1 1305.883v167.9l29.9 29.9v-136.8z" style="fill:url(#Dégradé_sans_nom_22)"/><path d="m2313.1 1305.883 29.9 61 175.9 136.8 10.3-29.9z" style="fill:url(#Dégradé_sans_nom_23)"/><path d="M3696.1 1473.783H2529.2l-10.3 29.9h1207z" style="fill:url(#Dégradé_sans_nom_24)"/><path d="M3696.1 906.683v567.1l29.8 29.9v-626.9z" style="fill:url(#Dégradé_sans_nom_25)"/><path d="m2417.5 876.783 29.9 29.9h1248.7l29.8-29.9z" style="fill:url(#Dégradé_sans_nom_26)"/><path d="M2417.5 876.783v136.6l29.9 61.4v-168.1z" style="fill:url(#Dégradé_sans_nom_27)"/><path d="m2417.5 1013.383-173.9-136.6-10.4 29.9 214.2 168.1z" style="fill:url(#Dégradé_sans_nom_28)"/><path d="m1550.3 876.783 18 29.9h664.9l10.4-29.9z" style="fill:url(#Dégradé_sans_nom_29)"/><path d="m1550.3 876.783-86.6 163.6 1.2 61.6 103.4-195.3z" style="fill:url(#Dégradé_sans_nom_30)"/><path d="m1463.7 1040.383-94.7-163.6-17.2 29.9 113.1 195.3z" style="fill:url(#Dégradé_sans_nom_31)"/><path d="m371.8 876.783 17 29.9h963l17.2-29.9z" style="fill:url(#Dégradé_sans_nom_32)"/><path d="m52.4 1473.783-52.4 29.6 371.8-626.6 17 29.9" style="fill:url(#Dégradé_sans_nom_33)"/><g aria-label="2 PLAYERS" style="font-size:35.4187px;line-height:1.25;fill:red;stroke:#e6e6e6;stroke-width:10.5864;stroke-miterlimit:4;stroke-dasharray:none"><path d="M755.159 805.186v-36.894h36.894v36.894zm0 147.578v-73.789h36.894v-36.894h73.79v-73.789h-73.79v-36.894h147.578v36.894h36.894v73.789h-36.894v36.894h-73.789v36.895h110.683v36.894zM1345.469 842.08v-73.788h-73.789v73.789zM1197.89 952.765V731.398h184.472v36.894h36.895v73.789h-36.895v36.894H1271.68v73.789zM1493.046 952.764V731.398h73.79V915.87h147.577v36.894zM1788.201 952.764V768.292h36.895v73.789h73.788v-73.789h-73.788v-36.894h147.577v36.894h36.895v184.472h-110.684v-73.789h-73.788v73.789zM2157.145 952.764V842.08h-36.894v-36.895h-36.895v-73.788h73.79v73.788h73.788v-73.788h73.789v73.788h-36.895v36.895h-36.894v110.683zM2378.512 952.764V731.398h221.366v36.894H2452.3v36.894h110.683v36.895H2452.3v73.789h147.578v36.894zM2821.244 952.764V915.87h73.789v36.894zm0-110.683v-73.789h-73.789v73.789zm-147.578 110.683V731.398h184.472v36.894h36.895v73.789h-36.895v36.894h-36.894v36.895h-36.895v-36.895h-36.894v73.789zM2968.822 915.87v-36.895h36.894v36.895zm36.894 36.894V915.87h73.789v-73.79h-73.79v-36.894h-36.893v-36.894h36.894v-36.894h147.577v36.894H3042.61v36.894h110.683v36.895h36.895v73.789h-36.895v36.894z" style="font-size:295.155px;font-family:&quot;Early GameBoy&quot;;-inkscape-font-specification:&quot;Early GameBoy, Normal&quot;;stroke:#e6e6e6;stroke-width:10.5864;stroke-miterlimit:4;stroke-dasharray:none" transform="matrix(1.00838 0 0 .9917 -32.41 10.455)"/></g></svg>