<svg xmlns="http://www.w3.org/2000/svg" viewBox="0 0 983 292"><g fill="none" stroke="#8f80e6" stroke-width="2"><path d="m428.25 140.33-.81 5.09a.5.5 0 0 0 .49.58h43.5a.81.8-85.3 0 0 .79-.68l1-6.58a.81.81 0 0 1 .61-.67q3.41-.86 5.73-3.47a1.05 1.03 20.1 0 1 .79-.36q58.45.04 116.9-.02c16.59-.01 32.53-1.51 44.97-13.95a.46.45 51.1 0 1 .71.08l8.42 13.44a.99.98 73.8 0 0 .83.46h129.05a.48.48 0 0 0 .48-.48l.12-15.98q.01-1.99 1.58-.76L805.05 134a1.24 1.22 63.2 0 0 .74.25h159.96a.5.5 0 0 0 .5-.5V51.04a.51.51 0 0 0-.51-.51q-76.24-.07-152.48-.01c-4.92.01-13.91.47-20.96.05a.52.52 0 0 0-.55.52l.04 16.63a.42.42 0 0 1-.68.34l-21.52-16.97a2.76 2.69-25.2 0 0-1.7-.59h-91.23a1.1 1.08-75.8 0 0-.96.58l-10.75 20.44a.46.46 0 0 1-.8.01l-11.66-20.2a1.68 1.66-14.8 0 0-1.45-.83H513.06a.28.27-74 0 1-.23-.42l6.77-10.77a.36.36 0 0 0-.3-.55q-53.02-.03-105.75.01c-16.42.01-23.77 3.69-36.39 13.03a.56.55-40.1 0 1-.74-.06c-7.67-8.04-14.19-13.02-25.93-13.02q-93.81.03-187.69.03a.73.72 8.8 0 0-.69.5l-5.34 16.6a.43.42 49.6 0 1-.82-.07l-2.68-16.56a.56.55-4.2 0 0-.55-.47h-40.24a.73.73 0 0 0-.68.47l-.95 2.47a.58.58 0 0 1-.74.34q-36.41-13.26-66.69 6.7c-19.01 12.54-28.47 31.87-26.53 55.1 1.77 21.37 18.28 37.45 38.61 41.69q5.16 1.08 14.62.83 20.83-.56 41.76-.31a.76.75 12 0 0 .69-.44l8.54-18.97a.34.34 0 0 1 .64.09l3.01 18.84a.61.6-4.9 0 0 .61.51q105.9-.34 211.81-.34c14.74 0 24.23-1.89 34.26-11.79a.5.5 0 0 1 .7.01c13.85 13.94 35.06 17.72 52.34 7.77q1.63-.94 3.32-1.73.55-.26.45.34M776.05 173.41c-2.93-8.25-4.64-16.42-12.14-21.63-6.8-4.73-35.1-4.5-41.73.7q-5.7 4.46-7.69 11.85a.37.37 0 0 1-.72-.04q-1.15-8.32-8.09-12.68c-6.91-4.33-32.4-4.32-39.1.53q-2.44 1.77-4.3 4.23a.37.37 0 0 1-.59 0c-7.54-9.81-21.3-7.68-32.03-7.58-13.84.12-20.37 9.24-20.39 22.24q-.05 35.15 0 70.31c.01 7.16 3.12 14.29 9.33 18.19 6.38 4 32.09 4.05 38.23-.41q1.4-1.02 2.79-2.05.42-.3.7-.73l1.21-1.79a.49.49 0 0 1 .8 0c7.01 10.08 21.98 7.54 32.95 7.36 10.89-.18 21.75 1.43 32.11-.6 7.11-1.39 11.44-5.23 13.94-11.77a.86.85 10.4 0 1 .8-.55l2.15.01a.85.84 78.4 0 1 .78.52c2.86 6.7 7.89 10.82 15.16 12.04 8.78 1.48 21.46 1.48 30.03-1.1 2.26-.68 4-2.28 5.71-3.82a.72.71-52.4 0 1 .81-.11q18.27 9.62 38.62 6.46c3.21-.5 6.95-1.59 10.33-2.46 3.09-.79 5.53.37 8.51 1.03 8.44 1.86 19.9 1 28.29-.96 2.76-.64 4.45-2.34 6.59-4.03a.62.62 0 0 1 .78.01c2.12 1.73 3.81 3.32 6.53 4.08 8.58 2.37 17.78 1.83 29.38 1.6q17.61-.33 19.97-16.4c.7-4.79-1.25-11.98-4.75-15.43-8.03-7.94-15.17-17.83-22.39-26.54a.6.6 0 0 1 0-.76q7.99-9.66 16.2-19.13 6.41-7.38 7.79-11.15c2.68-7.34.19-16.31-6.56-20.85-3.27-2.2-9.76-3.21-13.66-3.23-7.37-.03-16.82-.99-23.91.66q-2.81.66-5.61 1.39-.49.12-.89.43l-3 2.33a.72.71 42.5 0 1-.83.03c-1.66-1.09-2.71-2.45-4.68-2.97-3.36-.87-6.53-1.85-10.05-1.88q-7.31-.05-14.63.02c-4.24.04-8.9 2.62-12.86 1.56-8.87-2.37-15.38-4.24-23.52-3.67-18.76 1.31-35.67 11.18-46.05 26.78a.18.18 0 0 1-.32-.04" vector-effect="non-scaling-stroke"/><path d="m178.47 89.07 8.57 41.72a.54.53-5.5 0 0 .51.42l10.16.14a.62.61 11.8 0 0 .56-.36q9.59-22.15 19.14-44.32.81-1.88 1.42-2.73.31-.43.33.09l2.04 46.58a.66.66 0 0 0 .66.64h14.81a.64.64 0 0 0 .64-.67L234.1 53.3a.57.56-.5 0 0-.56-.54l-18.6-.12a.72.72 0 0 0-.68.44l-17.61 41.25a.4.39 51.7 0 1-.75-.09l-7.47-40.86a.84.83 85.4 0 0-.81-.69l-14.89-.1a.68.67 8.9 0 0-.64.46l-20.19 61.76a.34.34 0 0 1-.66-.05l-10.25-61.45a.69.69 0 0 0-.68-.58l-18.73-.07a.93.92 11.6 0 0-.85.55l-29.18 66.05a.27.27 0 0 1-.52-.15l4.03-25.95a.57.57 0 0 0-.56-.66H65.66a.7.69 4.3 0 0-.69.59l-2.01 13.65a.6.6 0 0 0 .6.69l10.76-.13a.88.87-86.4 0 1 .88 1.01l-.98 6.36a.61.6 1.2 0 1-.54.51c-5.12.45-11.67 1.59-16.26-.41-13.17-5.75-12.69-23.04-5.36-33C62.48 67.6 82.9 64.29 98.83 69.55a.47.46 13.2 0 0 .61-.37l2.27-14.6a.6.6 0 0 0-.38-.65c-33.7-12.51-75.32 10.7-70.44 49.86 3 24.04 31.04 33.62 51.43 25.23q2.74-1.13 5.49-2.37.74-.33.39.4l-1.69 3.58a.42.42 0 0 0 .38.6l15.64.06a.99.97-76.9 0 0 .9-.57l10.22-22.2a.92.9 12 0 1 .83-.53l17.49.02a.56.55 85 0 1 .54.46l3.93 22.21a.7.7 0 0 0 .69.58l26.52.01a.68.67 8.9 0 0 .64-.46l13.33-41.79q.51-1.59.85.05M258.57 114.5a.31.31 0 0 1-.31-.36l2.29-13.38a.31.31 0 0 1 .3-.26h24.09a.31.31 0 0 0 .31-.26l2.48-16.32a.31.31 0 0 0-.31-.36h-24.1a.31.31 0 0 1-.31-.35l1.92-13.44a.31.31 0 0 1 .31-.27h27.88a.31.31 0 0 0 .31-.26l2.54-16.38a.31.31 0 0 0-.3-.36h-44.18a.31.31 0 0 0-.3.26l-12.43 78.13a.31.31 0 0 0 .3.36h44.5a.31.31 0 0 0 .3-.26l2.72-16.13a.31.31 0 0 0-.31-.36h-27.7M396.688 132.092a40.43 33.4 103.2 0 0 41.75-31.735 40.43 33.4 103.2 0 0-23.286-46.989 40.43 33.4 103.2 0 0-41.75 31.735 40.43 33.4 103.2 0 0 23.286 46.989" vector-effect="non-scaling-stroke"/><path d="m449.64 94.63-5.87 36.12a.48.48 0 0 0 .48.56l15.28-.08a.63.62 4.3 0 0 .62-.53q2.34-14.58 4.31-29.27.32-2.4 1.61-4.46 13.72-21.98 27.69-43.91a.37.37 0 0 0-.31-.57l-17.7.03a1.02 1-73.5 0 0-.85.47l-15.34 24.62q-.41.66-.69-.06l-9.61-24.64a.64.63 79.1 0 0-.59-.41h-17.64a.34.33 77.5 0 0-.3.48l18.76 40.6a1.77 1.76-53.4 0 1 .15 1.05M320.48 54.69q-6.09 37.98-12.09 76.02a.43.43 0 0 0 .43.5q16.06.05 32.17.06 6.3 0 9.93-1.19c16.66-5.49 25.82-24.43 11.31-38.46a.87.86 45.2 0 1 0-1.25c8.49-8.17 12.15-20.19 3.2-29.79-5.01-5.37-9.7-7.36-17.37-7.34q-12.96.03-27.05-.02a.52.52 0 0 0-.51.59q.05.42-.02.88M637.65 85.74q-.14-1.84.82-.26l20.41 33.76a1.09 1.08-15.7 0 0 .95.53l9.5-.06a.95.95 0 0 0 .8-.47l31.28-54.05q.48-.84-.48-.81-6.33.2-13.16.13c-1.97-.02-2.64-.53-3.76 1.49q-9.42 17.06-18.72 33.96a.4.4 0 0 1-.7.01l-20.32-35.02a.9.9 0 0 0-.78-.45h-17.02q-.78 0-.37.66l3.81 6.14a.2.2 0 0 1-.29.27q-9.78-7.01-22.13-7.06-19.09-.08-38.25.03a.49.49 0 0 0-.49.49v44.21a.29.28 29.9 0 1-.53.14q-12.96-21.6-26.01-43.07c-.71-1.16-.76-1.8-2.4-1.91q-6.55-.45-12.36.16a1.04 1.03 11.8 0 0-.77.5l-32.19 54.19a.33.33 0 0 0 .29.5h38.09a.63.63 0 0 0 .63-.63V108a.5.5 0 0 0-.5-.5h-14.76a.46.46 0 0 1-.4-.68l15.17-27.26a.37.37 0 0 1 .65 0l22.44 39.68a.91.89 75 0 0 .78.46q22.44.12 44.87.1c19.48-.02 38.28-6.64 36.2-30.36q-.2-2.38-.3-3.7M702.34 106.6l15.02-27.23q.25-.45.51 0l22.54 39.94a.87.86 75 0 0 .75.44h25.87a.77.77 0 0 0 .77-.77l-.07-31.96q0-.83.64-.31 19.91 15.87 39.29 31.66c2.72 2.22 9.42 1.45 12.35 1.14a.55.54-2.9 0 0 .49-.54V64.96a.54.53 89.5 0 0-.54-.54l-13.36.05a.61.61 0 0 0-.6.61v31.35a.44.44 0 0 1-.71.35l-41.06-32.19a1.72 1.69-25.6 0 0-1.05-.36l-9.51.06a.72.72 0 0 0-.72.72l.15 44.22a.26.26 0 0 1-.48.14l-26.95-44.5a1.2 1.19 74.3 0 0-1.02-.58l-12.57-.02a1.21 1.2 15.2 0 0-1.04.59l-32.1 54.25a.29.29 0 0 0 .24.44q13.02.48 26.04-.02c3.42-.13 7.97.49 12.08-.12a.61.6 85.6 0 0 .51-.6l-.09-11.07a.49.49 0 0 0-.49-.49h-14.51a.44.44 0 0 1-.38-.65M841.25 105.75v-28a.5.5 0 0 1 .5-.5h29.54a.77.77 0 0 1 .77.79l-.2 6.14a.56.56 0 0 0 .56.57h15.04a.6.6 0 0 0 .6-.58c.41-13.99-.99-19.76-16.31-19.86q-23.07-.14-35.69.25c-6.59.21-10.02 4.8-10.41 11.16q-1.01 16.45 0 32.94c.4 6.58 3.79 10.42 10.54 10.65q16.77.57 33.56.48c6.99-.04 15.38.07 17.55-8.05q1.21-4.54.7-13.14a.65.65 0 0 0-.63-.61l-14.8-.31a.51.51 0 0 0-.52.5l-.17 7.51a.57.57 0 0 1-.57.56h-29.56a.5.5 0 0 1-.5-.5M909.8 106.75a.57.57 0 0 1-.57-.57l.07-8.61a.57.57 0 0 1 .57-.57h24.06a.57.57 0 0 0 .57-.57V85.32a.57.57 0 0 0-.57-.57H909.8a.57.57 0 0 1-.57-.58l.07-6.62a.57.57 0 0 1 .57-.56l41.81.02a.57.57 0 0 0 .57-.57v-11.6a.57.57 0 0 0-.57-.57l-57.86-.03a.57.57 0 0 0-.57.57v54.12a.57.57 0 0 0 .57.57h58.72a.57.57 0 0 0 .57-.58l-.12-11.61a.57.57 0 0 0-.57-.56H909.8M479.73 124.21a7.8 7.8 0 0 0-7.8-7.8 7.8 7.8 0 0 0-7.8 7.8 7.8 7.8 0 0 0 7.8 7.8 7.8 7.8 0 0 0 7.8-7.8M127.23 78.46a.31.31 0 0 0-.58-.07l-6.27 13.67a.31.31 0 0 0 .28.44h8.93a.31.31 0 0 0 .31-.37l-2.67-13.67M399.832 116.859a24.96 16.74 104 0 0 22.28-20.17 24.96 16.74 104 0 0-10.204-28.268 24.96 16.74 104 0 0-22.28 20.17 24.96 16.74 104 0 0 10.204 28.268" vector-effect="non-scaling-stroke"/><path d="m334.7 69.98-2.4 13.71a.43.43 0 0 0 .4.5c6.76.39 14.71.9 18.01-3.33 2.57-3.3 2.62-8.14-1.49-10.17-3.39-1.66-10.24-.98-14.29-.91a.25.23-83.9 0 0-.23.2M329.6 101.06c-1.26 4.12-1.72 10.24-2.26 14.61a.47.46-85.4 0 0 .44.52q11.19.5 17.21-.43c5-.78 8.97-5.82 6.65-10.81-2.74-5.89-14.61-4.64-21.38-4.4a.72.72 0 0 0-.66.51M584.51 77.48l-.02 28.48a.58.58 0 0 0 .54.58q9.95.61 19.95-.15c11.51-.87 18.92-5.47 16.62-18.52-1.38-7.87-7.98-10.85-15.35-10.86q-10.74-.03-21.27 0a.47.47 0 0 0-.47.47M478.28 124.17a6.4 6.4 0 0 0-6.4-6.4 6.4 6.4 0 0 0-6.4 6.4 6.4 6.4 0 0 0 6.4 6.4 6.4 6.4 0 0 0 6.4-6.4" vector-effect="non-scaling-stroke"/><path d="m471.07 124.49.54.25a1.36 1.35-86.5 0 1 .72.82q.56 1.81 2.13 2.72 1.12.64.59-.54-.54-1.22-1.5-2.13a.55.55 0 0 1 .06-.85l1.65-1.14a1.14 1.11-18.3 0 0 .47-.91c.02-3.57-4.54-3.67-6.57-2.3a1.02 1.01-17.7 0 0-.45.86l.15 6.88a.36.35 88.4 0 0 .36.35h.29a.56.55-87.7 0 0 .54-.5l.34-3.13a.48.48 0 0 1 .68-.38" vector-effect="non-scaling-stroke"/><path d="M474.19 122.1a2.09 1.3.8 0 0-2.072-1.33 2.09 1.3.8 0 0-2.108 1.27 2.09 1.3.8 0 0 2.072 1.33 2.09 1.3.8 0 0 2.108-1.27M794.19 179.69c-12.15 14.19-13.11 38.89.84 52.82q20.3 20.28 48.24 9.95a.72.72 0 0 0 .46-.67l.06-21.5q.01-1.66-1.13-.45c-6.68 7.1-18.25 8.74-26.72 4.25-11.1-5.88-13.52-22.51-6.13-32 8.49-10.92 24.67-10.18 33.45-.38a.31.31 0 0 0 .54-.21l-.07-22.27a.86.86 0 0 0-.54-.78q-9.97-3.86-17.15-3.88-18.88-.05-31.85 15.12M647.82 196.55a.32.32 0 0 1-.32-.32v-29.16a.32.32 0 0 0-.32-.32h-19.61a.32.32 0 0 0-.32.32v76.67a.32.32 0 0 0 .32.32l19.61-.09a.32.32 0 0 0 .32-.32v-30.79a.32.32 0 0 1 .32-.32l28.38-.25a.32.32 0 0 1 .32.32l-.03 31.1a.32.32 0 0 0 .32.32l19.37-.04a.32.32 0 0 0 .32-.32v-76.6a.32.32 0 0 0-.32-.32h-19.36a.32.32 0 0 0-.32.32v29.14a.32.32 0 0 1-.32.32l-28.36.02M756.83 230.5a.5.5 0 0 1 .47.32l4.81 12.86a.5.5 0 0 0 .47.32h20.18a.5.5 0 0 0 .47-.68l-28.7-76.25a.5.5 0 0 0-.47-.32h-21.1a.5.5 0 0 0-.46.32l-29.35 76.29a.5.5 0 0 0 .47.68l20.09-.06a.5.5 0 0 0 .46-.31l5.09-12.85a.5.5 0 0 1 .47-.32h27.1M876.82 198.43a.3.3 0 0 1-.54-.18l-.05-31.2a.3.3 0 0 0-.3-.3h-19.21a.3.3 0 0 0-.3.3l-.11 76.7a.3.3 0 0 0 .3.3l19.34-.06a.3.3 0 0 0 .3-.3v-32.82a.3.3 0 0 1 .54-.19l25.69 33.23a.3.3 0 0 0 .24.12l25.05-.05a.3.3 0 0 0 .23-.49l-32.92-39.96a.3.3 0 0 1 0-.38l30.17-35.91a.3.3 0 0 0-.23-.49h-23.91a.3.3 0 0 0-.24.12l-24.05 31.56" vector-effect="non-scaling-stroke"/><path d="M824.58 202.6q-1.63 2.66-.23 5.44a.86.84 76 0 0 .75.46l2.62.01a1.37 1.36-65.7 0 0 .91-.35l2.64-2.33a.48.47-37.8 0 0 .08-.6q-2.2-3.3-6.11-3.02a.86.85 14.1 0 0-.66.39M735.06 214.83a.3.3 0 0 0 .28.39l15.98.06a.3.3 0 0 0 .29-.4l-7.91-23.83a.3.3 0 0 0-.57 0l-8.07 23.78" vector-effect="non-scaling-stroke"/></g><g fill="#fff"><path d="M983 46.81v91.75q-4.96 13.3-19.64 12.42a.78.78 0 0 0-.8.95c1.01 4.26 3.97 12.51 2.95 16.72-1.37 5.64-2.22 13.11-5.26 18.01q-5.59 9-13.2 16.43a.55.55 0 0 0-.05.74q4.08 5.14 8.52 9.96c3.04 3.31 7.83 9.12 8.88 13.49q1.73 7.12 3.39 14.28c1.03 4.43-2.15 13.36-3.24 18-1.07 4.58-6.73 12.03-10.56 14.78-3.27 2.34-6.35 5.24-10.37 6.19-6.61 1.56-13.19 3.7-20.03 3.72-7.84.02-17.07.92-24.66-1q-3.65-.92-7.33-1.73c-3.83-.83-8.36.95-12.12 1.85-6.53 1.56-13.79.88-20.48.87-4.84 0-8.78-2.65-13.65-1.5-9.69 2.29-17.28 3.93-28.35 2.49q-3.76-.49-17.09-3.9-2.18-.56-4.35-.07c-5.61 1.28-10.74 2.92-16.51 2.98q-5.97.06-11.94 0c-7.4-.07-14.89-2.58-22.11-4.22a1.29 1.28-12.7 0 1-.72-.45q-.81-1.02-1.66-.1a1.78 1.72-74.2 0 1-.89.52c-7.22 1.66-14.87 4.25-22.28 4.26q-7.36.01-14.73-.01c-2.13-.01-4.21-.98-6.65-.56-7.26 1.24-18.07 1.25-25.26-.47q-4.26-1.03-8.54-2.02c-3.94-.9-9.07 1.05-12.94 1.98-6.45 1.54-12.69 1.13-19.2 1.06-6.75-.06-13.23-2.16-19.78-3.69-4.36-1.02-11.93-6.67-14.54-10.31-2.51-3.49-5.85-7.08-6.82-11.36-1.49-6.52-3.73-13.15-3.73-19.87q-.02-33.83-.01-67.66c.01-6.58 2.43-13.33 3.62-19.86a.41.41 0 0 0-.4-.48h-101.5a.79.79 0 0 0-.74.52q-2.65 7.16-8.53 9.65-7.54 3.21-18.38 3.14-15.29-.09-30.57-.39-2.82-.05-5.02-.99c-5.07-2.16-6.82.14-11.73.79q-22.26 2.97-41.84-7.68a1.04 1.02 45.6 0 0-.94-.02q-13.07 6.47-27.73 6.99-21.61.77-43.24.85-86.07.31-172.15-.06-1.73-.01-4.03-.88-4.92-1.86-9.81-.08-2.45.89-4.2.91-23.13.35-46.26.26-4.63-.02-8.99-1c-14.35-3.24-25.81-7.95-36.53-18.32Q3.12 130.01 0 108.94v-23.5c1.98-6.83 3.54-14.33 6.39-20.32 9.15-19.27 26.67-33.36 46.58-40.43 3.51-1.24 8.5-2.24 12.74-3.47 8.19-2.38 19.32-1.73 27.78-1.08 3.6.28 8.11 2.63 11.08 2.53q11.41-.38 51.24-.5 97.72-.3 195.44-.14c8.86.02 19.54 1.57 26.18 7.71a.68.68 0 0 0 .79.09c11-6.3 20.56-7.76 34.35-7.79q52.29-.09 104.59-.02c8.39.01 15.37 1.49 18.12 10.48a.68.68 0 0 0 .65.48q56.67.03 113.31.03 7.36 0 14.36 4.67a.78.78 0 0 0 .85.01q7.29-4.62 16.12-4.65 61.84-.23 85.49.04 7.33.08 14.3 4.35a.83.82-44.1 0 0 .85.01c1.81-1.06 3.17-2.3 5.24-2.84q6.09-1.58 9.86-1.59 80.72-.02 161.44.04c11.52.01 21.44 1.34 25.25 13.76m-554.75 93.52-.81 5.09a.5.5 0 0 0 .49.58h43.5a.81.8-85.3 0 0 .79-.68l1-6.58a.81.81 0 0 1 .61-.67q3.41-.86 5.73-3.47a1.05 1.03 20.1 0 1 .79-.36q58.45.04 116.9-.02c16.59-.01 32.53-1.51 44.97-13.95a.46.45 51.1 0 1 .71.08l8.42 13.44a.99.98 73.8 0 0 .83.46h129.05a.48.48 0 0 0 .48-.48l.12-15.98q.01-1.99 1.58-.76L805.05 134a1.24 1.22 63.2 0 0 .74.25h159.96a.5.5 0 0 0 .5-.5V51.04a.51.51 0 0 0-.51-.51q-76.24-.07-152.48-.01c-4.92.01-13.91.47-20.96.05a.52.52 0 0 0-.55.52l.04 16.63a.42.42 0 0 1-.68.34l-21.52-16.97a2.76 2.69-25.2 0 0-1.7-.59h-91.23a1.1 1.08-75.8 0 0-.96.58l-10.75 20.44a.46.46 0 0 1-.8.01l-11.66-20.2a1.68 1.66-14.8 0 0-1.45-.83H513.06a.28.27-74 0 1-.23-.42l6.77-10.77a.36.36 0 0 0-.3-.55q-53.02-.03-105.75.01c-16.42.01-23.77 3.69-36.39 13.03a.56.55-40.1 0 1-.74-.06c-7.67-8.04-14.19-13.02-25.93-13.02q-93.81.03-187.69.03a.73.72 8.8 0 0-.69.5l-5.34 16.6a.43.42 49.6 0 1-.82-.07l-2.68-16.56a.56.55-4.2 0 0-.55-.47h-40.24a.73.73 0 0 0-.68.47l-.95 2.47a.58.58 0 0 1-.74.34q-36.41-13.26-66.69 6.7c-19.01 12.54-28.47 31.87-26.53 55.1 1.77 21.37 18.28 37.45 38.61 41.69q5.16 1.08 14.62.83 20.83-.56 41.76-.31a.76.75 12 0 0 .69-.44l8.54-18.97a.34.34 0 0 1 .64.09l3.01 18.84a.61.6-4.9 0 0 .61.51q105.9-.34 211.81-.34c14.74 0 24.23-1.89 34.26-11.79a.5.5 0 0 1 .7.01c13.85 13.94 35.06 17.72 52.34 7.77q1.63-.94 3.32-1.73.55-.26.45.34m347.8 33.08c-2.93-8.25-4.64-16.42-12.14-21.63-6.8-4.73-35.1-4.5-41.73.7q-5.7 4.46-7.69 11.85a.37.37 0 0 1-.72-.04q-1.15-8.32-8.09-12.68c-6.91-4.33-32.4-4.32-39.1.53q-2.44 1.77-4.3 4.23a.37.37 0 0 1-.59 0c-7.54-9.81-21.3-7.68-32.03-7.58-13.84.12-20.37 9.24-20.39 22.24q-.05 35.15 0 70.31c.01 7.16 3.12 14.29 9.33 18.19 6.38 4 32.09 4.05 38.23-.41q1.4-1.02 2.79-2.05.42-.3.7-.73l1.21-1.79a.49.49 0 0 1 .8 0c7.01 10.08 21.98 7.54 32.95 7.36 10.89-.18 21.75 1.43 32.11-.6 7.11-1.39 11.44-5.23 13.94-11.77a.86.85 10.4 0 1 .8-.55l2.15.01a.85.84 78.4 0 1 .78.52c2.86 6.7 7.89 10.82 15.16 12.04 8.78 1.48 21.46 1.48 30.03-1.1 2.26-.68 4-2.28 5.71-3.82a.72.71-52.4 0 1 .81-.11q18.27 9.62 38.62 6.46c3.21-.5 6.95-1.59 10.33-2.46 3.09-.79 5.53.37 8.51 1.03 8.44 1.86 19.9 1 28.29-.96 2.76-.64 4.45-2.34 6.59-4.03a.62.62 0 0 1 .78.01c2.12 1.73 3.81 3.32 6.53 4.08 8.58 2.37 17.78 1.83 29.38 1.6q17.61-.33 19.97-16.4c.7-4.79-1.25-11.98-4.75-15.43-8.03-7.94-15.17-17.83-22.39-26.54a.6.6 0 0 1 0-.76q7.99-9.66 16.2-19.13 6.41-7.38 7.79-11.15c2.68-7.34.19-16.31-6.56-20.85-3.27-2.2-9.76-3.21-13.66-3.23-7.37-.03-16.82-.99-23.91.66q-2.81.66-5.61 1.39-.49.12-.89.43l-3 2.33a.72.71 42.5 0 1-.83.03c-1.66-1.09-2.71-2.45-4.68-2.97-3.36-.87-6.53-1.85-10.05-1.88q-7.31-.05-14.63.02c-4.24.04-8.9 2.62-12.86 1.56-8.87-2.37-15.38-4.24-23.52-3.67-18.76 1.31-35.67 11.18-46.05 26.78a.18.18 0 0 1-.32-.04"/><path d="M178.47 89.07q-.34-1.64-.85-.05l-13.33 41.79a.68.67 8.9 0 1-.64.46l-26.52-.01a.7.7 0 0 1-.69-.58l-3.93-22.21a.56.55 85 0 0-.54-.46l-17.49-.02a.92.9 12 0 0-.83.53l-10.22 22.2a.99.97-76.9 0 1-.9.57l-15.64-.06a.42.42 0 0 1-.38-.6l1.69-3.58q.35-.73-.39-.4-2.75 1.24-5.49 2.37c-20.39 8.39-48.43-1.19-51.43-25.23-4.88-39.16 36.74-62.37 70.44-49.86a.6.6 0 0 1 .38.65l-2.27 14.6a.47.46 13.2 0 1-.61.37C82.9 64.29 62.48 67.6 52.06 81.77c-7.33 9.96-7.81 27.25 5.36 33 4.59 2 11.14.86 16.26.41a.61.6 1.2 0 0 .54-.51l.98-6.36a.88.87-86.4 0 0-.88-1.01l-10.76.13a.6.6 0 0 1-.6-.69l2.01-13.65a.7.69 4.3 0 1 .69-.59H94.5a.57.57 0 0 1 .56.66l-4.03 25.95a.27.27 0 0 0 .52.15l29.18-66.05a.93.92 11.6 0 1 .85-.55l18.73.07a.69.69 0 0 1 .68.58l10.25 61.45a.34.34 0 0 0 .66.05l20.19-61.76a.68.67 8.9 0 1 .64-.46l14.89.1a.84.83 85.4 0 1 .81.69l7.47 40.86a.4.39 51.7 0 0 .75.09l17.61-41.25a.72.72 0 0 1 .68-.44l18.6.12a.57.56-.5 0 1 .56.54l3.21 77.28a.64.64 0 0 1-.64.67h-14.81a.66.66 0 0 1-.66-.64l-2.04-46.58q-.02-.52-.33-.09-.61.85-1.42 2.73-9.55 22.17-19.14 44.32a.62.61 11.8 0 1-.56.36l-10.16-.14a.54.53-5.5 0 1-.51-.42zm-51.24-10.61a.31.31 0 0 0-.58-.07l-6.27 13.67a.31.31 0 0 0 .28.44h8.93a.31.31 0 0 0 .31-.37zM258.57 114.5h27.7a.31.31 0 0 1 .31.36l-2.72 16.13a.31.31 0 0 1-.3.26h-44.5a.31.31 0 0 1-.3-.36l12.43-78.13a.31.31 0 0 1 .3-.26h44.18a.31.31 0 0 1 .3.36l-2.54 16.38a.31.31 0 0 1-.31.26h-27.88a.31.31 0 0 0-.31.27l-1.92 13.44a.31.31 0 0 0 .31.35h24.1a.31.31 0 0 1 .31.36l-2.48 16.32a.31.31 0 0 1-.31.26h-24.09a.31.31 0 0 0-.3.26l-2.29 13.38a.31.31 0 0 0 .31.36M396.688 132.092a40.43 33.4 103.2 0 1-23.286-46.989 40.43 33.4 103.2 0 1 41.75-31.735 40.43 33.4 103.2 0 1 23.286 46.989 40.43 33.4 103.2 0 1-41.75 31.735m3.144-15.233a24.96 16.74 104 0 0 22.28-20.17 24.96 16.74 104 0 0-10.204-28.268 24.96 16.74 104 0 0-22.28 20.17 24.96 16.74 104 0 0 10.204 28.268"/><path d="m449.49 93.58-18.76-40.6a.34.33 77.5 0 1 .3-.48h17.64a.64.63 79.1 0 1 .59.41l9.61 24.64q.28.72.69.06l15.34-24.62a1.02 1-73.5 0 1 .85-.47l17.7-.03a.37.37 0 0 1 .31.57q-13.97 21.93-27.69 43.91-1.29 2.06-1.61 4.46-1.97 14.69-4.31 29.27a.63.62 4.3 0 1-.62.53l-15.28.08a.48.48 0 0 1-.48-.56l5.87-36.12a1.77 1.76-53.4 0 0-.15-1.05M320.48 54.69q.07-.46.02-.88a.52.52 0 0 1 .51-.59q14.09.05 27.05.02c7.67-.02 12.36 1.97 17.37 7.34 8.95 9.6 5.29 21.62-3.2 29.79a.87.86 45.2 0 0 0 1.25c14.51 14.03 5.35 32.97-11.31 38.46q-3.63 1.19-9.93 1.19-16.11-.01-32.17-.06a.43.43 0 0 1-.43-.5q6-38.04 12.09-76.02m14.22 15.29-2.4 13.71a.43.43 0 0 0 .4.5c6.76.39 14.71.9 18.01-3.33 2.57-3.3 2.62-8.14-1.49-10.17-3.39-1.66-10.24-.98-14.29-.91a.25.23-83.9 0 0-.23.2m-5.1 31.08c-1.26 4.12-1.72 10.24-2.26 14.61a.47.46-85.4 0 0 .44.52q11.19.5 17.21-.43c5-.78 8.97-5.82 6.65-10.81-2.74-5.89-14.61-4.64-21.38-4.4a.72.72 0 0 0-.66.51M637.65 85.74q.1 1.32.3 3.7c2.08 23.72-16.72 30.34-36.2 30.36q-22.43.02-44.87-.1a.91.89 75 0 1-.78-.46l-22.44-39.68a.37.37 0 0 0-.65 0l-15.17 27.26a.46.46 0 0 0 .4.68H533a.5.5 0 0 1 .5.5v11.12a.63.63 0 0 1-.63.63h-38.09a.33.33 0 0 1-.29-.5l32.19-54.19a1.04 1.03 11.8 0 1 .77-.5q5.81-.61 12.36-.16c1.64.11 1.69.75 2.4 1.91q13.05 21.47 26.01 43.07a.29.28 29.9 0 0 .53-.14V65.03a.49.49 0 0 1 .49-.49q19.16-.11 38.25-.03 12.35.05 22.13 7.06a.2.2 0 0 0 .29-.27l-3.81-6.14q-.41-.66.37-.66h17.02a.9.9 0 0 1 .78.45l20.32 35.02a.4.4 0 0 0 .7-.01q9.3-16.9 18.72-33.96c1.12-2.02 1.79-1.51 3.76-1.49q6.83.07 13.16-.13.96-.03.48.81l-31.28 54.05a.95.95 0 0 1-.8.47l-9.5.06a1.09 1.08-15.7 0 1-.95-.53l-20.41-33.76q-.96-1.58-.82.26m-53.14-8.26-.02 28.48a.58.58 0 0 0 .54.58q9.95.61 19.95-.15c11.51-.87 18.92-5.47 16.62-18.52-1.38-7.87-7.98-10.85-15.35-10.86q-10.74-.03-21.27 0a.47.47 0 0 0-.47.47M702.72 107.25h14.51a.49.49 0 0 1 .49.49l.09 11.07a.61.6 85.6 0 1-.51.6c-4.11.61-8.66-.01-12.08.12q-13.02.5-26.04.02a.29.29 0 0 1-.24-.44l32.1-54.25a1.21 1.2 15.2 0 1 1.04-.59l12.57.02a1.2 1.19 74.3 0 1 1.02.58l26.95 44.5a.26.26 0 0 0 .48-.14l-.15-44.22a.72.72 0 0 1 .72-.72l9.51-.06a1.72 1.69-25.6 0 1 1.05.36l41.06 32.19a.44.44 0 0 0 .71-.35V65.08a.61.61 0 0 1 .6-.61l13.36-.05a.54.53 89.5 0 1 .54.54v54.01a.55.54-2.9 0 1-.49.54c-2.93.31-9.63 1.08-12.35-1.14q-19.38-15.79-39.29-31.66-.64-.52-.64.31l.07 31.96a.77.77 0 0 1-.77.77h-25.87a.87.86 75 0 1-.75-.44l-22.54-39.94q-.26-.45-.51 0l-15.02 27.23a.44.44 0 0 0 .38.65M841.75 106.25h29.56a.57.57 0 0 0 .57-.56l.17-7.51a.51.51 0 0 1 .52-.5l14.8.31a.65.65 0 0 1 .63.61q.51 8.6-.7 13.14c-2.17 8.12-10.56 8.01-17.55 8.05q-16.79.09-33.56-.48c-6.75-.23-10.14-4.07-10.54-10.65q-1.01-16.49 0-32.94c.39-6.36 3.82-10.95 10.41-11.16q12.62-.39 35.69-.25c15.32.1 16.72 5.87 16.31 19.86a.6.6 0 0 1-.6.58h-15.04a.56.56 0 0 1-.56-.57l.2-6.14a.77.77 0 0 0-.77-.79h-29.54a.5.5 0 0 0-.5.5v28a.5.5 0 0 0 .5.5M909.8 106.75h42.62a.57.57 0 0 1 .57.56l.12 11.61a.57.57 0 0 1-.57.58h-58.72a.57.57 0 0 1-.57-.57V64.81a.57.57 0 0 1 .57-.57l57.86.03a.57.57 0 0 1 .57.57v11.6a.57.57 0 0 1-.57.57l-41.81-.02a.57.57 0 0 0-.57.56l-.07 6.62a.57.57 0 0 0 .57.58h24.13a.57.57 0 0 1 .57.57v11.11a.57.57 0 0 1-.57.57h-24.06a.57.57 0 0 0-.57.57l-.07 8.61a.57.57 0 0 0 .57.57M479.73 124.21a7.8 7.8 0 0 1-7.8 7.8 7.8 7.8 0 0 1-7.8-7.8 7.8 7.8 0 0 1 7.8-7.8 7.8 7.8 0 0 1 7.8 7.8m-1.45-.04a6.4 6.4 0 0 0-6.4-6.4 6.4 6.4 0 0 0-6.4 6.4 6.4 6.4 0 0 0 6.4 6.4 6.4 6.4 0 0 0 6.4-6.4"/><path d="m470.39 124.87-.34 3.13a.56.55-87.7 0 1-.54.5h-.29a.36.35 88.4 0 1-.36-.35l-.15-6.88a1.02 1.01-17.7 0 1 .45-.86c2.03-1.37 6.59-1.27 6.57 2.3a1.14 1.11-18.3 0 1-.47.91l-1.65 1.14a.55.55 0 0 0-.06.85q.96.91 1.5 2.13.53 1.18-.59.54-1.57-.91-2.13-2.72a1.36 1.35-86.5 0 0-.72-.82l-.54-.25a.48.48 0 0 0-.68.38m3.8-2.77a2.09 1.3.8 0 0-2.072-1.33 2.09 1.3.8 0 0-2.108 1.27 2.09 1.3.8 0 0 2.072 1.33 2.09 1.3.8 0 0 2.108-1.27M794.19 179.69q12.97-15.17 31.85-15.12 7.18.02 17.15 3.88a.86.86 0 0 1 .54.78l.07 22.27a.31.31 0 0 1-.54.21c-8.78-9.8-24.96-10.54-33.45.38-7.39 9.49-4.97 26.12 6.13 32 8.47 4.49 20.04 2.85 26.72-4.25q1.14-1.21 1.13.45l-.06 21.5a.72.72 0 0 1-.46.67q-27.94 10.33-48.24-9.95c-13.95-13.93-12.99-38.63-.84-52.82M647.82 196.55l28.36-.02a.32.32 0 0 0 .32-.32v-29.14a.32.32 0 0 1 .32-.32h19.36a.32.32 0 0 1 .32.32v76.6a.32.32 0 0 1-.32.32l-19.37.04a.32.32 0 0 1-.32-.32l.03-31.1a.32.32 0 0 0-.32-.32l-28.38.25a.32.32 0 0 0-.32.32v30.79a.32.32 0 0 1-.32.32l-19.61.09a.32.32 0 0 1-.32-.32v-76.67a.32.32 0 0 1 .32-.32h19.61a.32.32 0 0 1 .32.32v29.16a.32.32 0 0 0 .32.32M756.83 230.5h-27.1a.5.5 0 0 0-.47.32l-5.09 12.85a.5.5 0 0 1-.46.31l-20.09.06a.5.5 0 0 1-.47-.68l29.35-76.29a.5.5 0 0 1 .46-.32h21.1a.5.5 0 0 1 .47.32l28.7 76.25a.5.5 0 0 1-.47.68h-20.18a.5.5 0 0 1-.47-.32l-4.81-12.86a.5.5 0 0 0-.47-.32m-21.77-15.67a.3.3 0 0 0 .28.39l15.98.06a.3.3 0 0 0 .29-.4l-7.91-23.83a.3.3 0 0 0-.57 0zM876.82 198.43l24.05-31.56a.3.3 0 0 1 .24-.12h23.91a.3.3 0 0 1 .23.49l-30.17 35.91a.3.3 0 0 0 0 .38L928 243.49a.3.3 0 0 1-.23.49l-25.05.05a.3.3 0 0 1-.24-.12l-25.69-33.23a.3.3 0 0 0-.54.19v32.82a.3.3 0 0 1-.3.3l-19.34.06a.3.3 0 0 1-.3-.3l.11-76.7a.3.3 0 0 1 .3-.3h19.21a.3.3 0 0 1 .3.3l.05 31.2a.3.3 0 0 0 .54.18"/><path d="M824.58 202.6a.86.85 14.1 0 1 .66-.39q3.91-.28 6.11 3.02a.48.47-37.8 0 1-.08.6l-2.64 2.33a1.37 1.36-65.7 0 1-.91.35l-2.62-.01a.86.84 76 0 1-.75-.46q-1.4-2.78.23-5.44"/></g><g fill="#1f00cc"><path d="M427.8 139.99q-1.69.79-3.32 1.73c-17.28 9.95-38.49 6.17-52.34-7.77a.5.5 0 0 0-.7-.01c-10.03 9.9-19.52 11.79-34.26 11.79q-105.91 0-211.81.34a.61.6-4.9 0 1-.61-.51l-3.01-18.84a.34.34 0 0 0-.64-.09l-8.54 18.97a.76.75 12 0 1-.69.44q-20.93-.25-41.76.31-9.46.25-14.62-.83c-20.33-4.24-36.84-20.32-38.61-41.69-1.94-23.23 7.52-42.56 26.53-55.1q30.28-19.96 66.69-6.7a.58.58 0 0 0 .74-.34l.95-2.47a.73.73 0 0 1 .68-.47h40.24a.56.55-4.2 0 1 .55.47l2.68 16.56a.43.42 49.6 0 0 .82.07l5.34-16.6a.73.72 8.8 0 1 .69-.5q93.88 0 187.69-.03c11.74 0 18.26 4.98 25.93 13.02a.56.55-40.1 0 0 .74.06c12.62-9.34 19.97-13.02 36.39-13.03q52.73-.04 105.75-.01a.36.36 0 0 1 .3.55l-6.77 10.77a.28.27-74 0 0 .23.42h137.98a1.68 1.66-14.8 0 1 1.45.83l11.66 20.2a.46.46 0 0 0 .8-.01l10.75-20.44a1.1 1.08-75.8 0 1 .96-.58h91.23a2.76 2.69-25.2 0 1 1.7.59l21.52 16.97a.42.42 0 0 0 .68-.34l-.04-16.63a.52.52 0 0 1 .55-.52c7.05.42 16.04-.04 20.96-.05q76.24-.06 152.48.01a.51.51 0 0 1 .51.51v82.71a.5.5 0 0 1-.5.5H805.79a1.24 1.22 63.2 0 1-.74-.25l-21.64-16.97q-1.57-1.23-1.58.76l-.12 15.98a.48.48 0 0 1-.48.48H652.18a.99.98 73.8 0 1-.83-.46l-8.42-13.44a.46.45 51.1 0 0-.71-.08c-12.44 12.44-28.38 13.94-44.97 13.95q-58.45.06-116.9.02a1.05 1.03 20.1 0 0-.79.36q-2.32 2.61-5.73 3.47a.81.81 0 0 0-.61.67l-1 6.58a.81.8-85.3 0 1-.79.68h-43.5a.5.5 0 0 1-.49-.58l.81-5.09q.1-.6-.45-.34M178.47 89.07l8.57 41.72a.54.53-5.5 0 0 .51.42l10.16.14a.62.61 11.8 0 0 .56-.36q9.59-22.15 19.14-44.32.81-1.88 1.42-2.73.31-.43.33.09l2.04 46.58a.66.66 0 0 0 .66.64h14.81a.64.64 0 0 0 .64-.67L234.1 53.3a.57.56-.5 0 0-.56-.54l-18.6-.12a.72.72 0 0 0-.68.44l-17.61 41.25a.4.39 51.7 0 1-.75-.09l-7.47-40.86a.84.83 85.4 0 0-.81-.69l-14.89-.1a.68.67 8.9 0 0-.64.46l-20.19 61.76a.34.34 0 0 1-.66-.05l-10.25-61.45a.69.69 0 0 0-.68-.58l-18.73-.07a.93.92 11.6 0 0-.85.55l-29.18 66.05a.27.27 0 0 1-.52-.15l4.03-25.95a.57.57 0 0 0-.56-.66H65.66a.7.69 4.3 0 0-.69.59l-2.01 13.65a.6.6 0 0 0 .6.69l10.76-.13a.88.87-86.4 0 1 .88 1.01l-.98 6.36a.61.6 1.2 0 1-.54.51c-5.12.45-11.67 1.59-16.26-.41-13.17-5.75-12.69-23.04-5.36-33C62.48 67.6 82.9 64.29 98.83 69.55a.47.46 13.2 0 0 .61-.37l2.27-14.6a.6.6 0 0 0-.38-.65c-33.7-12.51-75.32 10.7-70.44 49.86 3 24.04 31.04 33.62 51.43 25.23q2.74-1.13 5.49-2.37.74-.33.39.4l-1.69 3.58a.42.42 0 0 0 .38.6l15.64.06a.99.97-76.9 0 0 .9-.57l10.22-22.2a.92.9 12 0 1 .83-.53l17.49.02a.56.55 85 0 1 .54.46l3.93 22.21a.7.7 0 0 0 .69.58l26.52.01a.68.67 8.9 0 0 .64-.46l13.33-41.79q.51-1.59.85.05m80.1 25.43a.31.31 0 0 1-.31-.36l2.29-13.38a.31.31 0 0 1 .3-.26h24.09a.31.31 0 0 0 .31-.26l2.48-16.32a.31.31 0 0 0-.31-.36h-24.1a.31.31 0 0 1-.31-.35l1.92-13.44a.31.31 0 0 1 .31-.27h27.88a.31.31 0 0 0 .31-.26l2.54-16.38a.31.31 0 0 0-.3-.36h-44.18a.31.31 0 0 0-.3.26l-12.43 78.13a.31.31 0 0 0 .3.36h44.5a.31.31 0 0 0 .3-.26l2.72-16.13a.31.31 0 0 0-.31-.36zm138.118 17.592a40.43 33.4 103.2 0 0 41.75-31.735 40.43 33.4 103.2 0 0-23.286-46.989 40.43 33.4 103.2 0 0-41.75 31.735 40.43 33.4 103.2 0 0 23.286 46.989M449.64 94.63l-5.87 36.12a.48.48 0 0 0 .48.56l15.28-.08a.63.62 4.3 0 0 .62-.53q2.34-14.58 4.31-29.27.32-2.4 1.61-4.46 13.72-21.98 27.69-43.91a.37.37 0 0 0-.31-.57l-17.7.03a1.02 1-73.5 0 0-.85.47l-15.34 24.62q-.41.66-.69-.06l-9.61-24.64a.64.63 79.1 0 0-.59-.41h-17.64a.34.33 77.5 0 0-.3.48l18.76 40.6a1.77 1.76-53.4 0 1 .15 1.05M320.48 54.69q-6.09 37.98-12.09 76.02a.43.43 0 0 0 .43.5q16.06.05 32.17.06 6.3 0 9.93-1.19c16.66-5.49 25.82-24.43 11.31-38.46a.87.86 45.2 0 1 0-1.25c8.49-8.17 12.15-20.19 3.2-29.79-5.01-5.37-9.7-7.36-17.37-7.34q-12.96.03-27.05-.02a.52.52 0 0 0-.51.59q.05.42-.02.88m317.17 31.05q-.14-1.84.82-.26l20.41 33.76a1.09 1.08-15.7 0 0 .95.53l9.5-.06a.95.95 0 0 0 .8-.47l31.28-54.05q.48-.84-.48-.81-6.33.2-13.16.13c-1.97-.02-2.64-.53-3.76 1.49q-9.42 17.06-18.72 33.96a.4.4 0 0 1-.7.01l-20.32-35.02a.9.9 0 0 0-.78-.45h-17.02q-.78 0-.37.66l3.81 6.14a.2.2 0 0 1-.29.27q-9.78-7.01-22.13-7.06-19.09-.08-38.25.03a.49.49 0 0 0-.49.49v44.21a.29.28 29.9 0 1-.53.14q-12.96-21.6-26.01-43.07c-.71-1.16-.76-1.8-2.4-1.91q-6.55-.45-12.36.16a1.04 1.03 11.8 0 0-.77.5l-32.19 54.19a.33.33 0 0 0 .29.5h38.09a.63.63 0 0 0 .63-.63V108a.5.5 0 0 0-.5-.5h-14.76a.46.46 0 0 1-.4-.68l15.17-27.26a.37.37 0 0 1 .65 0l22.44 39.68a.91.89 75 0 0 .78.46q22.44.12 44.87.1c19.48-.02 38.28-6.64 36.2-30.36q-.2-2.38-.3-3.7m64.69 20.86 15.02-27.23q.25-.45.51 0l22.54 39.94a.87.86 75 0 0 .75.44h25.87a.77.77 0 0 0 .77-.77l-.07-31.96q0-.83.64-.31 19.91 15.87 39.29 31.66c2.72 2.22 9.42 1.45 12.35 1.14a.55.54-2.9 0 0 .49-.54V64.96a.54.53 89.5 0 0-.54-.54l-13.36.05a.61.61 0 0 0-.6.61v31.35a.44.44 0 0 1-.71.35l-41.06-32.19a1.72 1.69-25.6 0 0-1.05-.36l-9.51.06a.72.72 0 0 0-.72.72l.15 44.22a.26.26 0 0 1-.48.14l-26.95-44.5a1.2 1.19 74.3 0 0-1.02-.58l-12.57-.02a1.21 1.2 15.2 0 0-1.04.59l-32.1 54.25a.29.29 0 0 0 .24.44q13.02.48 26.04-.02c3.42-.13 7.97.49 12.08-.12a.61.6 85.6 0 0 .51-.6l-.09-11.07a.49.49 0 0 0-.49-.49h-14.51a.44.44 0 0 1-.38-.65m138.91-.85v-28a.5.5 0 0 1 .5-.5h29.54a.77.77 0 0 1 .77.79l-.2 6.14a.56.56 0 0 0 .56.57h15.04a.6.6 0 0 0 .6-.58c.41-13.99-.99-19.76-16.31-19.86q-23.07-.14-35.69.25c-6.59.21-10.02 4.8-10.41 11.16q-1.01 16.45 0 32.94c.4 6.58 3.79 10.42 10.54 10.65q16.77.57 33.56.48c6.99-.04 15.38.07 17.55-8.05q1.21-4.54.7-13.14a.65.65 0 0 0-.63-.61l-14.8-.31a.51.51 0 0 0-.52.5l-.17 7.51a.57.57 0 0 1-.57.56h-29.56a.5.5 0 0 1-.5-.5m68.55 1a.57.57 0 0 1-.57-.57l.07-8.61a.57.57 0 0 1 .57-.57h24.06a.57.57 0 0 0 .57-.57V85.32a.57.57 0 0 0-.57-.57H909.8a.57.57 0 0 1-.57-.58l.07-6.62a.57.57 0 0 1 .57-.56l41.81.02a.57.57 0 0 0 .57-.57v-11.6a.57.57 0 0 0-.57-.57l-57.86-.03a.57.57 0 0 0-.57.57v54.12a.57.57 0 0 0 .57.57h58.72a.57.57 0 0 0 .57-.58l-.12-11.61a.57.57 0 0 0-.57-.56zm-430.07 17.46a7.8 7.8 0 0 0-7.8-7.8 7.8 7.8 0 0 0-7.8 7.8 7.8 7.8 0 0 0 7.8 7.8 7.8 7.8 0 0 0 7.8-7.8"/><ellipse rx="24.96" ry="16.74" transform="rotate(104 166.746 204.87)"/><path d="M334.7 69.98a.25.23-83.9 0 1 .23-.2c4.05-.07 10.9-.75 14.29.91 4.11 2.03 4.06 6.87 1.49 10.17-3.3 4.23-11.25 3.72-18.01 3.33a.43.43 0 0 1-.4-.5zM584.51 77.48a.47.47 0 0 1 .47-.47q10.53-.03 21.27 0c7.37.01 13.97 2.99 15.35 10.86 2.3 13.05-5.11 17.65-16.62 18.52q-10 .76-19.95.15a.58.58 0 0 1-.54-.58zM127.23 78.46l2.67 13.67a.31.31 0 0 1-.31.37h-8.93a.31.31 0 0 1-.28-.44l6.27-13.67a.31.31 0 0 1 .58.07M327.34 115.67c.54-4.37 1-10.49 2.26-14.61a.72.72 0 0 1 .66-.51c6.77-.24 18.64-1.49 21.38 4.4 2.32 4.99-1.65 10.03-6.65 10.81q-6.02.93-17.21.43a.47.46-85.4 0 1-.44-.52M478.28 124.17a6.4 6.4 0 0 1-6.4 6.4 6.4 6.4 0 0 1-6.4-6.4 6.4 6.4 0 0 1 6.4-6.4 6.4 6.4 0 0 1 6.4 6.4m-7.21.32.54.25a1.36 1.35-86.5 0 1 .72.82q.56 1.81 2.13 2.72 1.12.64.59-.54-.54-1.22-1.5-2.13a.55.55 0 0 1 .06-.85l1.65-1.14a1.14 1.11-18.3 0 0 .47-.91c.02-3.57-4.54-3.67-6.57-2.3a1.02 1.01-17.7 0 0-.45.86l.15 6.88a.36.35 88.4 0 0 .36.35h.29a.56.55-87.7 0 0 .54-.5l.34-3.13a.48.48 0 0 1 .68-.38"/><ellipse rx="2.09" ry="1.3" transform="rotate(.8 -8506.428 33872.158)"/><path d="M776.05 173.41a.18.18 0 0 0 .32.04c10.38-15.6 27.29-25.47 46.05-26.78 8.14-.57 14.65 1.3 23.52 3.67 3.96 1.06 8.62-1.52 12.86-1.56q7.32-.07 14.63-.02c3.52.03 6.69 1.01 10.05 1.88 1.97.52 3.02 1.88 4.68 2.97a.72.71 42.5 0 0 .83-.03l3-2.33q.4-.31.89-.43 2.8-.73 5.61-1.39c7.09-1.65 16.54-.69 23.91-.66 3.9.02 10.39 1.03 13.66 3.23 6.75 4.54 9.24 13.51 6.56 20.85q-1.38 3.77-7.79 11.15-8.21 9.47-16.2 19.13a.6.6 0 0 0 0 .76c7.22 8.71 14.36 18.6 22.39 26.54 3.5 3.45 5.45 10.64 4.75 15.43q-2.36 16.07-19.97 16.4c-11.6.23-20.8.77-29.38-1.6-2.72-.76-4.41-2.35-6.53-4.08a.62.62 0 0 0-.78-.01c-2.14 1.69-3.83 3.39-6.59 4.03-8.39 1.96-19.85 2.82-28.29.96-2.98-.66-5.42-1.82-8.51-1.03-3.38.87-7.12 1.96-10.33 2.46q-20.35 3.16-38.62-6.46a.72.71-52.4 0 0-.81.11c-1.71 1.54-3.45 3.14-5.71 3.82-8.57 2.58-21.25 2.58-30.03 1.1-7.27-1.22-12.3-5.34-15.16-12.04a.85.84 78.4 0 0-.78-.52l-2.15-.01a.86.85 10.4 0 0-.8.55c-2.5 6.54-6.83 10.38-13.94 11.77-10.36 2.03-21.22.42-32.11.6-10.97.18-25.94 2.72-32.95-7.36a.49.49 0 0 0-.8 0l-1.21 1.79q-.28.43-.7.73-1.39 1.03-2.79 2.05c-6.14 4.46-31.85 4.41-38.23.41-6.21-3.9-9.32-11.03-9.33-18.19q-.05-35.16 0-70.31c.02-13 6.55-22.12 20.39-22.24 10.73-.1 24.49-2.23 32.03 7.58a.37.37 0 0 0 .59 0q1.86-2.46 4.3-4.23c6.7-4.85 32.19-4.86 39.1-.53q6.94 4.36 8.09 12.68a.37.37 0 0 0 .72.04q1.99-7.39 7.69-11.85c6.63-5.2 34.93-5.43 41.73-.7 7.5 5.21 9.21 13.38 12.14 21.63m18.14 6.28c-12.15 14.19-13.11 38.89.84 52.82q20.3 20.28 48.24 9.95a.72.72 0 0 0 .46-.67l.06-21.5q.01-1.66-1.13-.45c-6.68 7.1-18.25 8.74-26.72 4.25-11.1-5.88-13.52-22.51-6.13-32 8.49-10.92 24.67-10.18 33.45-.38a.31.31 0 0 0 .54-.21l-.07-22.27a.86.86 0 0 0-.54-.78q-9.97-3.86-17.15-3.88-18.88-.05-31.85 15.12m-146.37 16.86a.32.32 0 0 1-.32-.32v-29.16a.32.32 0 0 0-.32-.32h-19.61a.32.32 0 0 0-.32.32v76.67a.32.32 0 0 0 .32.32l19.61-.09a.32.32 0 0 0 .32-.32v-30.79a.32.32 0 0 1 .32-.32l28.38-.25a.32.32 0 0 1 .32.32l-.03 31.1a.32.32 0 0 0 .32.32l19.37-.04a.32.32 0 0 0 .32-.32v-76.6a.32.32 0 0 0-.32-.32h-19.36a.32.32 0 0 0-.32.32v29.14a.32.32 0 0 1-.32.32zm109.01 33.95a.5.5 0 0 1 .47.32l4.81 12.86a.5.5 0 0 0 .47.32h20.18a.5.5 0 0 0 .47-.68l-28.7-76.25a.5.5 0 0 0-.47-.32h-21.1a.5.5 0 0 0-.46.32l-29.35 76.29a.5.5 0 0 0 .47.68l20.09-.06a.5.5 0 0 0 .46-.31l5.09-12.85a.5.5 0 0 1 .47-.32zm119.99-32.07a.3.3 0 0 1-.54-.18l-.05-31.2a.3.3 0 0 0-.3-.3h-19.21a.3.3 0 0 0-.3.3l-.11 76.7a.3.3 0 0 0 .3.3l19.34-.06a.3.3 0 0 0 .3-.3v-32.82a.3.3 0 0 1 .54-.19l25.69 33.23a.3.3 0 0 0 .24.12l25.05-.05a.3.3 0 0 0 .23-.49l-32.92-39.96a.3.3 0 0 1 0-.38l30.17-35.91a.3.3 0 0 0-.23-.49h-23.91a.3.3 0 0 0-.24.12zm-52.24 4.17q-1.63 2.66-.23 5.44a.86.84 76 0 0 .75.46l2.62.01a1.37 1.36-65.7 0 0 .91-.35l2.64-2.33a.48.47-37.8 0 0 .08-.6q-2.2-3.3-6.11-3.02a.86.85 14.1 0 0-.66.39"/><path d="m735.06 214.83 8.07-23.78a.3.3 0 0 1 .57 0l7.91 23.83a.3.3 0 0 1-.29.4l-15.98-.06a.3.3 0 0 1-.28-.39"/></g></svg>