<svg xmlns="http://www.w3.org/2000/svg" viewBox="0 0 650 250"><g fill="none" stroke-width="2"><path stroke="#9798c9" d="M448.54 96.75c17.8 12.73 42.15 5.72 50.16-14.74" vector-effect="non-scaling-stroke"/><path stroke="#b1ce80" d="M498.7 82.01q.88 8.22 1.78 16.5c1.17 10.77 13.18 6.06 19.45 3.11 5.77-2.71 13.52-.89 17.86-5.37" vector-effect="non-scaling-stroke"/><path stroke="#e4d380" d="M537.79 96.25q8.03 7.57 19.15 6.42c13.46-1.38 24.7-8.38 31.02-20.44" vector-effect="non-scaling-stroke"/><path stroke="#80bbb5" d="M587.96 82.23q.48 4.75-.28 6.46c-3.37 7.59-.83 17.32 9.33 15.85 7.47-1.09 6.19-11.61 5.92-17.02a.57.57 0 0 1 .94-.47q10.24 8.56 20.8 17.31c8.37 6.94 18.27-6.61 12.7-11.22q-10.2-8.45-20.93-17.05a.58.57 51.1 0 1 .1-.96q5.92-2.95 10.92-7.65c5.65-5.3 9.82-15.34 2.4-21.28-11.25-9.02-29.25-12.49-41.29-2.39-6.39 5.35-3.64 10.03-2.52 17.08" vector-effect="non-scaling-stroke"/><path stroke="#e4d380" d="M586.05 60.89c-10.13-12.93-26.07-16.28-40.4-8.56q-16.18 8.7-14.88 30.44" vector-effect="non-scaling-stroke"/><path stroke="#b1ce80" d="M530.77 82.77c-5.52-.96-11.18 1.73-16.49 3.13a.43.43 0 0 1-.53-.37q-1.27-12.33-1.14-24.71c.08-8.02-.7-18.68-8.14-23.08-5.02-2.98-10.36 1.07-10.94 6.23-.73 6.45 4.66 11.86 3.76 18.87" vector-effect="non-scaling-stroke"/><path stroke="#9798c9" d="M497.29 62.84q-5.21-10.37-16.13-14.48c-22.48-8.47-48.49 21.7-37.66 42.1" vector-effect="non-scaling-stroke"/><path stroke="#ca8096" d="M443.5 90.46c-8.48-1.39-22.88 2.81-29.84-2.83q-4.85-3.93-3.95-10.65c1.43-10.54 9.4-23.26 20.49-27.1a2.32 2.32 0 0 1 2.98 1.53c2.13 7.11 13.27 6.93 15.03-.89 3.12-13.81-14.1-16.97-23.45-14.32-11.17 3.17-21.4 16.9-26.31 26.97-5.56 11.39-5.01 26.85 4.64 35.75 8.6 7.93 19.93 5.21 32.16 6.3 6.41.57 12.26-1.05 13.29-8.47" vector-effect="non-scaling-stroke"/><path stroke="#61195f" d="M443.5 90.46q4.12 1.81 5.04 6.29" vector-effect="non-scaling-stroke"/><path stroke="#96a201" d="m530.77 82.77 7.02 13.48" vector-effect="non-scaling-stroke"/><path stroke="#49674a" d="m498.7 82.01-1.41-19.17" vector-effect="non-scaling-stroke"/><path stroke="#648e36" d="M587.96 82.23q.32-10.9-1.91-21.34" vector-effect="non-scaling-stroke"/><path stroke="#9798c9" d="m155.07 73.63-6.09-33.32a.68.68 0 0 0-.67-.56h-11.69a.85.85 0 0 0-.81.59l-16.03 49.4a.32.32 0 0 1-.62-.05l-8.2-49.36a.7.7 0 0 0-.69-.58H95.48a.99.98-78 0 0-.9.59L71.21 93.41a.27.27 0 0 1-.51-.15l3.43-20.8a.6.6 0 0 0-.6-.69l-23.09.31a.6.59 4.5 0 0-.59.5l-1.68 10.5a.59.58 4.2 0 0 .58.67h8.8a.48.47 4.6 0 1 .47.55l-.83 5.23a.94.94 0 0 1-.63.74c-9.63 3.25-19.58-1.65-21.21-12.11-2.1-13.5 10.66-23.89 22.92-25.9q10.4-1.7 18.53 1.3a.48.47 14.9 0 0 .64-.37l1.82-11.81a.6.59 13.7 0 0-.41-.66c-27.12-8.7-59.49 7.5-56.3 39.47 2.23 22.4 27.94 28.27 45.39 19.13q1.01-.53.53.51l-1.32 2.85a.4.4 0 0 0 .36.57h12.4a.81.8 11.7 0 0 .74-.48l8.15-18.04a.83.8-77.5 0 1 .74-.49l13.92.02a.66.65 84.7 0 1 .64.54l3.18 17.93a.63.63 0 0 0 .62.52h21.05a.74.73 8.6 0 0 .7-.51l10.72-33.82a.33.33 0 0 1 .64.03l6.86 33.6a.88.87-5.6 0 0 .86.7h7.41a.8.79-78.1 0 0 .73-.48l16.29-37.85a.26.26 0 0 1 .5.09l1.62 37.29a1.02 1.02 0 0 0 1.02.97l11.38-.06a.56.55-1.5 0 0 .56-.58l-2.62-62.34a.57.57 0 0 0-.57-.54h-14.53a.84.82 11 0 0-.77.51L155.6 73.69a.28.28 0 0 1-.53-.06M205.59 89.5a.43.43 0 0 1-.43-.5l1.71-10.39a.43.43 0 0 1 .43-.36h18.99a.43.43 0 0 0 .43-.36l2-12.64a.43.43 0 0 0-.42-.5h-18.9a.43.43 0 0 1-.42-.5l1.59-10.39a.43.43 0 0 1 .43-.36h21.93a.43.43 0 0 0 .43-.36l2.01-12.89a.43.43 0 0 0-.42-.5h-35.11a.43.43 0 0 0-.43.36l-9.94 62.64a.43.43 0 0 0 .42.5h35.37a.43.43 0 0 0 .43-.36L227.71 90a.43.43 0 0 0-.42-.5h-21.7M367 59.83a.38.38 0 0 1-.68-.06l-7.65-19.52a.8.78 78.9 0 0-.73-.5h-13.68a.48.48 0 0 0-.44.68l14.88 32.36a1.68 1.67-52.8 0 1 .13.96l-4.56 28.97a.46.46 0 0 0 .45.53h11.95a.58.58 0 0 0 .57-.49q1.91-11.48 3.44-23.1.31-2.41 1.59-4.45 11.01-17.49 22.19-34.96.33-.51-.28-.51l-14.28.02a.82.8-73.9 0 0-.69.39L367 59.83" vector-effect="non-scaling-stroke"/><path stroke="#9798c9" d="M316.557 103.672a32.4 26.74 102.9 0 0 33.298-25.612 32.4 26.74 102.9 0 0-18.832-37.552 32.4 26.74 102.9 0 0-33.298 25.612 32.4 26.74 102.9 0 0 18.832 37.552" vector-effect="non-scaling-stroke"/><path stroke="#9798c9" d="M288.6 70.39c8.83-9.17 9.28-22.99-3.67-28.67q-3.29-1.44-9.24-1.49-9.94-.08-19.98.2a.67.66-85.8 0 0-.64.56l-9.7 61.37a.43.43 0 0 0 .42.5q11.96.21 23.95.17 7.13-.03 10.86-1.47c12.7-4.9 19.21-19.95 8.02-30.47a.5.5 0 0 1-.02-.7M96.45 157a.45.45 0 0 1-.45-.45V120.2a.45.45 0 0 0-.45-.45h-37.1a.45.45 0 0 0-.45.45v100.35a.45.45 0 0 0 .45.45h37.1a.45.45 0 0 0 .45-.45v-36.6a.45.45 0 0 1 .45-.45h30.85a.45.45 0 0 1 .45.45v36.6a.45.45 0 0 0 .45.45h37.1a.45.45 0 0 0 .45-.45V120.2a.45.45 0 0 0-.45-.45h-37.1a.45.45 0 0 0-.45.45v36.35a.45.45 0 0 1-.45.45H96.45M242.91 208.25a.52.52 0 0 1 .5.39l3.04 11.97a.52.52 0 0 0 .5.39h38.48a.52.52 0 0 0 .5-.65l-26.3-100.21a.52.52 0 0 0-.5-.39h-60.26a.52.52 0 0 0-.5.39l-26.32 100.21a.52.52 0 0 0 .5.65h38.5a.52.52 0 0 0 .5-.39l3.04-11.97a.52.52 0 0 1 .5-.39h27.82" vector-effect="non-scaling-stroke"/><path stroke="#ca8096" d="M332.62 121.25c-21.43 5.19-39.3 23.89-40.36 46.5-1.16 24.92 16.68 45.98 40.32 51.74q6.17 1.5 18.97 1.52 17.67.03 35.43-.09a.52.52 0 0 0 .52-.52v-30.78a.38.38 0 0 0-.38-.38q-17.37.04-34.69-.01-8.83-.02-12.13-1.07c-11.8-3.74-17.61-17.29-10.17-28q6.04-8.69 17.64-8.67 19.58.04 39.22-.02a.51.51 0 0 0 .51-.51v-30.7a.5.49 90 0 0-.49-.5q-18.2-.04-36.37 0-12 .03-18.02 1.49" vector-effect="non-scaling-stroke"/><path stroke="#b1ce80" d="M431.75 151.82v-31.57a.5.5 0 0 0-.5-.5H394a.5.5 0 0 0-.5.5V220.5a.5.5 0 0 0 .5.5h37.25a.5.5 0 0 0 .5-.5v-28.75q0-.66.48-.2c12.44 12.02 24.83 29.48 43.96 29.46q12.38-.01 24.81-.04a.5.5 0 0 0 .5-.5v-30.5a.77.77 0 0 0-.79-.77c-3.84.1-18.39.93-20.84-1.49q-7.41-7.3-14.85-14.88a.67.66-50.2 0 1-.07-.85l36.27-51.78a.29.28-72.5 0 0-.23-.45h-45.71a1 .99-72 0 0-.81.42l-22.35 31.76a.2.2 0 0 1-.37-.11" vector-effect="non-scaling-stroke"/><path stroke="#80bbb5" d="M542.93 121.15c-22.89 7.55-31.49 37.48-11 52.72q7.83 5.82 15.72 11.56a.95.94 24.9 0 1 .36.97l-.43 1.76a.94.92-87.5 0 1-.74.69c-.96.15-1.91.41-2.87.41q-17.84-.04-35.72.02a.51.51 0 0 0-.5.51v30.67a.51.51 0 0 0 .51.51q26.37.07 52.74.01c10.07-.02 17.14-1.23 24.46-7.04 14.75-11.72 15.41-32.93.34-44.49q-4.46-3.42-18.88-14.2a1 1 0 0 1-.4-.8q0-2.93 2.79-2.93 19.69-.01 39.43-.05a.51.51 0 0 0 .51-.51v-30.67a.51.51 0 0 0-.51-.51q-26.96-.07-53.88-.01-7.79.01-11.93 1.38M617.6 58.05a1.21 1.21 0 0 0-.24-2.03c-4.64-2.28-8.97-1.4-13.85-2.04a.95.94-88.1 0 0-1.07 1.01l.62 8.56a.43.42 84.1 0 0 .47.39q7.95-.88 14.07-5.89" vector-effect="non-scaling-stroke"/><path stroke="#9798c9" d="M99.91 60.9a.34.34 0 0 0-.64-.07l-4.69 10.44a.34.34 0 0 0 .31.48h6.67a.34.34 0 0 0 .33-.4L99.91 60.9M318.957 91.491a20.05 13.42 103.8 0 0 17.816-16.27 20.05 13.42 103.8 0 0-8.25-22.672 20.05 13.42 103.8 0 0-17.816 16.27 20.05 13.42 103.8 0 0 8.25 22.672M266.35 54.61l-1.68 10.1a.43.43 0 0 0 .41.51c3.27.08 8.46.58 11.49-.53 3.85-1.41 5.9-6.97 2.55-9.69-2.54-2.06-8.32-1.2-11.56-1.37a1.17 1.17 0 0 0-1.21.98M262.51 78.61c-.64 3.81-1.32 7.61-1.83 11.49a.47.47 0 0 0 .44.53q9.99.58 13.38-.12c9.07-1.87 7.77-12.27-1.5-12.28q-5.05-.01-10.09.04a.41.4 4.1 0 0-.4.34M471.79 61.94c-6.73 1.16-13.08 6.19-14.15 13.24-2.83 18.58 31.01 18.26 25.48-3.37-1.58-6.17-4.08-11.12-11.33-9.87" vector-effect="non-scaling-stroke"/><path stroke="#e4d380" d="M567.94 64.14c-9.34-4.04-25.71 2.18-21.65 14.62 4.57 14.01 24.6 9.54 27.6-2.93 1.28-5.32-1.11-9.6-5.95-11.69" vector-effect="non-scaling-stroke"/><path stroke="#9798c9" d="m228.88 154.58-7.25 27.5a.54.53 7.4 0 0 .52.67h13.78a.48.48 0 0 0 .46-.6l-7.27-27.57a.12.12 0 0 0-.24 0" vector-effect="non-scaling-stroke"/></g><g fill="#fff"><path d="M404.66 36.83q17.35-17.86 41.1-9.09 8.14 3 11.85 11.58a.53.52-23.8 0 0 .71.27q12.33-5.66 25.19-1.45a.59.58-68.5 0 0 .72-.32c8.48-18.69 31-12.68 36.3 4.68q2.97 9.73 2.49 19.91-.02.5.17.04c9.01-21.01 32.27-29.58 53.34-21.82a.71.71 0 0 0 .79-.22c15.2-18.53 42.84-15.84 59.68-2.1 12.44 10.15 7.3 28.34-3.14 37.63a.44.44 0 0 0 .01.66c7.65 6.64 18.11 12.22 15.21 24.06-2.71 11.06-13.8 18.99-25.29 15.03a.33.33 0 0 0-.44.33c.16 1.97.9 3.78.9 5.67v26.63c-.01 13.12-7.92 18.9-20.51 18.1q-.49-.03-.17.35c6.97 8.37 9.59 23.31 7.14 33.69-5.09 21.53-24.14 35.47-46.51 35.52-18.85.04-37.69.11-56.55-.29-13.17-.29-28.16 2.09-41.21-.69q-11.09-2.37-20.26-9.46a.36.36 0 0 0-.56.17c-2.84 7.76-9.87 10.17-17.89 10.26-19.46.21-37.5-.61-54.79-.06-25.73.83-50.64 1.79-71.39-15.78a.31.31 0 0 0-.5.16c-.78 2.95-1.08 6.25-2.73 8.69q-4.62 6.82-12.77 6.91-29.04.32-37.31.09c-7.66-.21-14.41-4.52-16.08-12.14a.74.73 84.2 0 0-.72-.59h-4.87a.75.75 0 0 0-.73.59c-1.9 8.83-9.47 12.03-17.9 12.12-17.25.19-34.5-.46-51.75-.08q-16.34.37-26.68.04c-21.02-.67-16.86-23.57-16.74-37.16a.63.63 0 0 0-.99-.52c-.34.24-.77 1.04-.77 1.51.02 8.1.98 19.79-1.33 26.22-3.68 10.27-12.72 9.82-23.38 9.99q-16.18.27-26.8-.07c-14.09-.45-16.44-9.78-16.46-22.04q-.09-45.98-.02-91.94c.01-2.61 1.04-5.02 1.4-7.69a.57.56 11.6 0 0-.42-.62c-12.4-3.09-21.35-7.48-27.96-18.89-1.81-3.13-2.62-6.75-3.77-10.43-2.19-6.99-.83-14.81 1.42-22.1 6.27-20.42 24.23-31.49 44.57-34.15 9.2-1.21 20.1.54 28.06 5.02a.66.65 37.1 0 0 .79-.1q3.07-3.08 8.38-3.45c6.38-.44 17.09-1.31 21.78 2.16 4.02 2.98 4.49 9.66 5.1 14.35a.38.38 0 0 0 .75.05c2.18-8 3.19-15.76 13.38-16.56 7.8-.62 20.8-1.84 22.3 8.45q.07.48.33.07c3.09-5.02 5.11-8.5 11.8-8.7 5.75-.17 15.42-1.23 21.32 2.55a.73.71-46.6 0 0 .81-.03q3.4-2.5 7.26-2.53 15.95-.12 31.93-.04c5.36.02 11.8 1.51 12.84 7.94q.07.46.24.03 2.69-6.96 10.19-7.46 9.29-.62 23.47-.19 12.28.38 20.83 10.7a.48.48 0 0 0 .7.04q15.67-15.11 36.93-9.01a1.06 1.04 37.6 0 0 .83-.1c5.07-2.92 15.7-2.26 20.73-1.72q6.69.73 9.66 7.08.2.45.42.01 3.23-6.58 10.63-7.18c8.54-.69 21.7-1.91 24.46 7.3a.29.29 0 0 0 .48.12m43.88 59.92c17.8 12.73 42.15 5.72 50.16-14.74q.88 8.22 1.78 16.5c1.17 10.77 13.18 6.06 19.45 3.11 5.77-2.71 13.52-.89 17.86-5.37q8.03 7.57 19.15 6.42c13.46-1.38 24.7-8.38 31.02-20.44q.48 4.75-.28 6.46c-3.37 7.59-.83 17.32 9.33 15.85 7.47-1.09 6.19-11.61 5.92-17.02a.57.57 0 0 1 .94-.47q10.24 8.56 20.8 17.31c8.37 6.94 18.27-6.61 12.7-11.22q-10.2-8.45-20.93-17.05a.58.57 51.1 0 1 .1-.96q5.92-2.95 10.92-7.65c5.65-5.3 9.82-15.34 2.4-21.28-11.25-9.02-29.25-12.49-41.29-2.39-6.39 5.35-3.64 10.03-2.52 17.08-10.13-12.93-26.07-16.28-40.4-8.56q-16.18 8.7-14.88 30.44c-5.52-.96-11.18 1.73-16.49 3.13a.43.43 0 0 1-.53-.37q-1.27-12.33-1.14-24.71c.08-8.02-.7-18.68-8.14-23.08-5.02-2.98-10.36 1.07-10.94 6.23-.73 6.45 4.66 11.86 3.76 18.87q-5.21-10.37-16.13-14.48c-22.48-8.47-48.49 21.7-37.66 42.1-8.48-1.39-22.88 2.81-29.84-2.83q-4.85-3.93-3.95-10.65c1.43-10.54 9.4-23.26 20.49-27.1a2.32 2.32 0 0 1 2.98 1.53c2.13 7.11 13.27 6.93 15.03-.89 3.12-13.81-14.1-16.97-23.45-14.32-11.17 3.17-21.4 16.9-26.31 26.97-5.56 11.39-5.01 26.85 4.64 35.75 8.6 7.93 19.93 5.21 32.16 6.3 6.41.57 12.26-1.05 13.29-8.47M155.07 73.63l-6.09-33.32a.68.68 0 0 0-.67-.56h-11.69a.85.85 0 0 0-.81.59l-16.03 49.4a.32.32 0 0 1-.62-.05l-8.2-49.36a.7.7 0 0 0-.69-.58H95.48a.99.98-78 0 0-.9.59L71.21 93.41a.27.27 0 0 1-.51-.15l3.43-20.8a.6.6 0 0 0-.6-.69l-23.09.31a.6.59 4.5 0 0-.59.5l-1.68 10.5a.59.58 4.2 0 0 .58.67h8.8a.48.47 4.6 0 1 .47.55l-.83 5.23a.94.94 0 0 1-.63.74c-9.63 3.25-19.58-1.65-21.21-12.11-2.1-13.5 10.66-23.89 22.92-25.9q10.4-1.7 18.53 1.3a.48.47 14.9 0 0 .64-.37l1.82-11.81a.6.59 13.7 0 0-.41-.66c-27.12-8.7-59.49 7.5-56.3 39.47 2.23 22.4 27.94 28.27 45.39 19.13q1.01-.53.53.51l-1.32 2.85a.4.4 0 0 0 .36.57h12.4a.81.8 11.7 0 0 .74-.48l8.15-18.04a.83.8-77.5 0 1 .74-.49l13.92.02a.66.65 84.7 0 1 .64.54l3.18 17.93a.63.63 0 0 0 .62.52h21.05a.74.73 8.6 0 0 .7-.51l10.72-33.82a.33.33 0 0 1 .64.03l6.86 33.6a.88.87-5.6 0 0 .86.7h7.41a.8.79-78.1 0 0 .73-.48l16.29-37.85a.26.26 0 0 1 .5.09l1.62 37.29a1.02 1.02 0 0 0 1.02.97l11.38-.06a.56.55-1.5 0 0 .56-.58l-2.62-62.34a.57.57 0 0 0-.57-.54h-14.53a.84.82 11 0 0-.77.51L155.6 73.69a.28.28 0 0 1-.53-.06m50.52 15.87a.43.43 0 0 1-.43-.5l1.71-10.39a.43.43 0 0 1 .43-.36h18.99a.43.43 0 0 0 .43-.36l2-12.64a.43.43 0 0 0-.42-.5h-18.9a.43.43 0 0 1-.42-.5l1.59-10.39a.43.43 0 0 1 .43-.36h21.93a.43.43 0 0 0 .43-.36l2.01-12.89a.43.43 0 0 0-.42-.5h-35.11a.43.43 0 0 0-.43.36l-9.94 62.64a.43.43 0 0 0 .42.5h35.37a.43.43 0 0 0 .43-.36L227.71 90a.43.43 0 0 0-.42-.5zM367 59.83a.38.38 0 0 1-.68-.06l-7.65-19.52a.8.78 78.9 0 0-.73-.5h-13.68a.48.48 0 0 0-.44.68l14.88 32.36a1.68 1.67-52.8 0 1 .13.96l-4.56 28.97a.46.46 0 0 0 .45.53h11.95a.58.58 0 0 0 .57-.49q1.91-11.48 3.44-23.1.31-2.41 1.59-4.45 11.01-17.49 22.19-34.96.33-.51-.28-.51l-14.28.02a.82.8-73.9 0 0-.69.39zm-50.443 43.842a32.4 26.74 102.9 0 0 33.298-25.612 32.4 26.74 102.9 0 0-18.832-37.552 32.4 26.74 102.9 0 0-33.298 25.612 32.4 26.74 102.9 0 0 18.832 37.552M288.6 70.39c8.83-9.17 9.28-22.99-3.67-28.67q-3.29-1.44-9.24-1.49-9.94-.08-19.98.2a.67.66-85.8 0 0-.64.56l-9.7 61.37a.43.43 0 0 0 .42.5q11.96.21 23.95.17 7.13-.03 10.86-1.47c12.7-4.9 19.21-19.95 8.02-30.47a.5.5 0 0 1-.02-.7M96.45 157a.45.45 0 0 1-.45-.45V120.2a.45.45 0 0 0-.45-.45h-37.1a.45.45 0 0 0-.45.45v100.35a.45.45 0 0 0 .45.45h37.1a.45.45 0 0 0 .45-.45v-36.6a.45.45 0 0 1 .45-.45h30.85a.45.45 0 0 1 .45.45v36.6a.45.45 0 0 0 .45.45h37.1a.45.45 0 0 0 .45-.45V120.2a.45.45 0 0 0-.45-.45h-37.1a.45.45 0 0 0-.45.45v36.35a.45.45 0 0 1-.45.45zm146.46 51.25a.52.52 0 0 1 .5.39l3.04 11.97a.52.52 0 0 0 .5.39h38.48a.52.52 0 0 0 .5-.65l-26.3-100.21a.52.52 0 0 0-.5-.39h-60.26a.52.52 0 0 0-.5.39l-26.32 100.21a.52.52 0 0 0 .5.65h38.5a.52.52 0 0 0 .5-.39l3.04-11.97a.52.52 0 0 1 .5-.39zm89.71-87c-21.43 5.19-39.3 23.89-40.36 46.5-1.16 24.92 16.68 45.98 40.32 51.74q6.17 1.5 18.97 1.52 17.67.03 35.43-.09a.52.52 0 0 0 .52-.52v-30.78a.38.38 0 0 0-.38-.38q-17.37.04-34.69-.01-8.83-.02-12.13-1.07c-11.8-3.74-17.61-17.29-10.17-28q6.04-8.69 17.64-8.67 19.58.04 39.22-.02a.51.51 0 0 0 .51-.51v-30.7a.5.49 90 0 0-.49-.5q-18.2-.04-36.37 0-12 .03-18.02 1.49m99.13 30.57v-31.57a.5.5 0 0 0-.5-.5H394a.5.5 0 0 0-.5.5V220.5a.5.5 0 0 0 .5.5h37.25a.5.5 0 0 0 .5-.5v-28.75q0-.66.48-.2c12.44 12.02 24.83 29.48 43.96 29.46q12.38-.01 24.81-.04a.5.5 0 0 0 .5-.5v-30.5a.77.77 0 0 0-.79-.77c-3.84.1-18.39.93-20.84-1.49q-7.41-7.3-14.85-14.88a.67.66-50.2 0 1-.07-.85l36.27-51.78a.29.28-72.5 0 0-.23-.45h-45.71a1 .99-72 0 0-.81.42l-22.35 31.76a.2.2 0 0 1-.37-.11m111.18-30.67c-22.89 7.55-31.49 37.48-11 52.72q7.83 5.82 15.72 11.56a.95.94 24.9 0 1 .36.97l-.43 1.76a.94.92-87.5 0 1-.74.69c-.96.15-1.91.41-2.87.41q-17.84-.04-35.72.02a.51.51 0 0 0-.5.51v30.67a.51.51 0 0 0 .51.51q26.37.07 52.74.01c10.07-.02 17.14-1.23 24.46-7.04 14.75-11.72 15.41-32.93.34-44.49q-4.46-3.42-18.88-14.2a1 1 0 0 1-.4-.8q0-2.93 2.79-2.93 19.69-.01 39.43-.05a.51.51 0 0 0 .51-.51v-30.67a.51.51 0 0 0-.51-.51q-26.96-.07-53.88-.01-7.79.01-11.93 1.38"/><ellipse rx="20.05" ry="13.42" transform="rotate(103.8 133.635 162.932)"/><path d="M266.35 54.61a1.17 1.17 0 0 1 1.21-.98c3.24.17 9.02-.69 11.56 1.37 3.35 2.72 1.3 8.28-2.55 9.69-3.03 1.11-8.22.61-11.49.53a.43.43 0 0 1-.41-.51zM617.6 58.05q-6.12 5.01-14.07 5.89a.43.42 84.1 0 1-.47-.39l-.62-8.56a.95.94-88.1 0 1 1.07-1.01c4.88.64 9.21-.24 13.85 2.04a1.21 1.21 0 0 1 .24 2.03M99.91 60.9l1.98 10.45a.34.34 0 0 1-.33.4h-6.67a.34.34 0 0 1-.31-.48l4.69-10.44a.34.34 0 0 1 .64.07M457.64 75.18c1.07-7.05 7.42-12.08 14.15-13.24 7.25-1.25 9.75 3.7 11.33 9.87 5.53 21.63-28.31 21.95-25.48 3.37M546.29 78.76c-4.06-12.44 12.31-18.66 21.65-14.62 4.84 2.09 7.23 6.37 5.95 11.69-3 12.47-23.03 16.94-27.6 2.93M260.68 90.1c.51-3.88 1.19-7.68 1.83-11.49a.41.4 4.1 0 1 .4-.34q5.04-.05 10.09-.04c9.27.01 10.57 10.41 1.5 12.28q-3.39.7-13.38.12a.47.47 0 0 1-.44-.53M228.88 154.58a.12.12 0 0 1 .24 0l7.27 27.57a.48.48 0 0 1-.46.6h-13.78a.54.53 7.4 0 1-.52-.67z"/></g><g fill="#2e3192"><path d="M155.07 73.63a.28.28 0 0 0 .53.06l14.15-33.43a.84.82 11 0 1 .77-.51h14.53a.57.57 0 0 1 .57.54l2.62 62.34a.56.55-1.5 0 1-.56.58l-11.38.06a1.02 1.02 0 0 1-1.02-.97l-1.62-37.29a.26.26 0 0 0-.5-.09l-16.29 37.85a.8.79-78.1 0 1-.73.48h-7.41a.88.87-5.6 0 1-.86-.7l-6.86-33.6a.33.33 0 0 0-.64-.03l-10.72 33.82a.74.73 8.6 0 1-.7.51H107.9a.63.63 0 0 1-.62-.52L104.1 84.8a.66.65 84.7 0 0-.64-.54l-13.92-.02a.83.8-77.5 0 0-.74.49l-8.15 18.04a.81.8 11.7 0 1-.74.48h-12.4a.4.4 0 0 1-.36-.57l1.32-2.85q.48-1.04-.53-.51c-17.45 9.14-43.16 3.27-45.39-19.13-3.19-31.97 29.18-48.17 56.3-39.47a.6.59 13.7 0 1 .41.66l-1.82 11.81a.48.47 14.9 0 1-.64.37q-8.13-3-18.53-1.3c-12.26 2.01-25.02 12.4-22.92 25.9 1.63 10.46 11.58 15.36 21.21 12.11a.94.94 0 0 0 .63-.74l.83-5.23a.48.47 4.6 0 0-.47-.55h-8.8a.59.58 4.2 0 1-.58-.67l1.68-10.5a.6.59 4.5 0 1 .59-.5l23.09-.31a.6.6 0 0 1 .6.69l-3.43 20.8a.27.27 0 0 0 .51.15l23.37-53.07a.99.98-78 0 1 .9-.59h14.79a.7.7 0 0 1 .69.58l8.2 49.36a.32.32 0 0 0 .62.05l16.03-49.4a.85.85 0 0 1 .81-.59h11.69a.68.68 0 0 1 .67.56zM99.91 60.9a.34.34 0 0 0-.64-.07l-4.69 10.44a.34.34 0 0 0 .31.48h6.67a.34.34 0 0 0 .33-.4zM205.59 89.5h21.7a.43.43 0 0 1 .42.5l-2.02 12.89a.43.43 0 0 1-.43.36h-35.37a.43.43 0 0 1-.42-.5l9.94-62.64a.43.43 0 0 1 .43-.36h35.11a.43.43 0 0 1 .42.5l-2.01 12.89a.43.43 0 0 1-.43.36H211a.43.43 0 0 0-.43.36l-1.59 10.39a.43.43 0 0 0 .42.5h18.9a.43.43 0 0 1 .42.5l-2 12.64a.43.43 0 0 1-.43.36H207.3a.43.43 0 0 0-.43.36L205.16 89a.43.43 0 0 0 .43.5M367 59.83l12.21-19.68a.82.8-73.9 0 1 .69-.39l14.28-.02q.61 0 .28.51-11.18 17.47-22.19 34.96-1.28 2.04-1.59 4.45-1.53 11.62-3.44 23.1a.58.58 0 0 1-.57.49h-11.95a.46.46 0 0 1-.45-.53l4.56-28.97a1.68 1.67-52.8 0 0-.13-.96l-14.88-32.36a.48.48 0 0 1 .44-.68h13.68a.8.78 78.9 0 1 .73.5l7.65 19.52a.38.38 0 0 0 .68.06"/><path d="M316.557 103.672a32.4 26.74 102.9 0 1-18.832-37.552 32.4 26.74 102.9 0 1 33.298-25.612 32.4 26.74 102.9 0 1 18.832 37.552 32.4 26.74 102.9 0 1-33.298 25.612m2.4-12.18a20.05 13.42 103.8 0 0 17.816-16.27 20.05 13.42 103.8 0 0-8.25-22.673 20.05 13.42 103.8 0 0-17.816 16.27 20.05 13.42 103.8 0 0 8.25 22.672"/><path d="M288.62 71.09c11.19 10.52 4.68 25.57-8.02 30.47q-3.73 1.44-10.86 1.47-11.99.04-23.95-.17a.43.43 0 0 1-.42-.5l9.7-61.37a.67.66-85.8 0 1 .64-.56q10.04-.28 19.98-.2 5.95.05 9.24 1.49c12.95 5.68 12.5 19.5 3.67 28.67a.5.5 0 0 0 .02.7m-22.27-16.48-1.68 10.1a.43.43 0 0 0 .41.51c3.27.08 8.46.58 11.49-.53 3.85-1.41 5.9-6.97 2.55-9.69-2.54-2.06-8.32-1.2-11.56-1.37a1.17 1.17 0 0 0-1.21.98m-3.84 24c-.64 3.81-1.32 7.61-1.83 11.49a.47.47 0 0 0 .44.53q9.99.58 13.38-.12c9.07-1.87 7.77-12.27-1.5-12.28q-5.05-.01-10.09.04a.41.4 4.1 0 0-.4.34M497.29 62.84l1.41 19.17c-8.01 20.46-32.36 27.47-50.16 14.74q-.92-4.48-5.04-6.29c-10.83-20.4 15.18-50.57 37.66-42.1q10.92 4.11 16.13 14.48m-25.5-.9c-6.73 1.16-13.08 6.19-14.15 13.24-2.83 18.58 31.01 18.26 25.48-3.37-1.58-6.17-4.08-11.12-11.33-9.87M96.45 157h30.85a.45.45 0 0 0 .45-.45V120.2a.45.45 0 0 1 .45-.45h37.1a.45.45 0 0 1 .45.45v100.35a.45.45 0 0 1-.45.45h-37.1a.45.45 0 0 1-.45-.45v-36.6a.45.45 0 0 0-.45-.45H96.45a.45.45 0 0 0-.45.45v36.6a.45.45 0 0 1-.45.45h-37.1a.45.45 0 0 1-.45-.45V120.2a.45.45 0 0 1 .45-.45h37.1a.45.45 0 0 1 .45.45v36.35a.45.45 0 0 0 .45.45M242.91 208.25h-27.82a.52.52 0 0 0-.5.39l-3.04 11.97a.52.52 0 0 1-.5.39h-38.5a.52.52 0 0 1-.5-.65l26.32-100.21a.52.52 0 0 1 .5-.39h60.26a.52.52 0 0 1 .5.39l26.3 100.21a.52.52 0 0 1-.5.65h-38.48a.52.52 0 0 1-.5-.39l-3.04-11.97a.52.52 0 0 0-.5-.39m-14.03-53.67-7.25 27.5a.54.53 7.4 0 0 .52.67h13.78a.48.48 0 0 0 .46-.6l-7.27-27.57a.12.12 0 0 0-.24 0"/></g><g fill="#639d01"><path d="m530.77 82.77 7.02 13.48c-4.34 4.48-12.09 2.66-17.86 5.37-6.27 2.95-18.28 7.66-19.45-3.11q-.9-8.28-1.78-16.5l-1.41-19.17c.9-7.01-4.49-12.42-3.76-18.87.58-5.16 5.92-9.21 10.94-6.23 7.44 4.4 8.22 15.06 8.14 23.08q-.13 12.38 1.14 24.71a.43.43 0 0 0 .53.37c5.31-1.4 10.97-4.09 16.49-3.13M431.75 151.82a.2.2 0 0 0 .37.11l22.35-31.76a1 .99-72 0 1 .81-.42h45.71a.29.28-72.5 0 1 .23.45l-36.27 51.78a.67.66-50.2 0 0 .07.85q7.44 7.58 14.85 14.88c2.45 2.42 17 1.59 20.84 1.49a.77.77 0 0 1 .79.77v30.5a.5.5 0 0 1-.5.5q-12.43.03-24.81.04c-19.13.02-31.52-17.44-43.96-29.46q-.48-.46-.48.2v28.75a.5.5 0 0 1-.5.5H394a.5.5 0 0 1-.5-.5V120.25a.5.5 0 0 1 .5-.5h37.25a.5.5 0 0 1 .5.5z"/></g><g fill="#94012c"><path d="M443.5 90.46q4.12 1.81 5.04 6.29c-1.03 7.42-6.88 9.04-13.29 8.47-12.23-1.09-23.56 1.63-32.16-6.3-9.65-8.9-10.2-24.36-4.64-35.75 4.91-10.07 15.14-23.8 26.31-26.97 9.35-2.65 26.57.51 23.45 14.32-1.76 7.82-12.9 8-15.03.89a2.32 2.32 0 0 0-2.98-1.53c-11.09 3.84-19.06 16.56-20.49 27.1q-.9 6.72 3.95 10.65c6.96 5.64 21.36 1.44 29.84 2.83M292.26 167.75c1.06-22.61 18.93-41.31 40.36-46.5q6.02-1.46 18.02-1.49 18.17-.04 36.37 0a.5.49 90 0 1 .49.5v30.7a.51.51 0 0 1-.51.51q-19.64.06-39.22.02-11.6-.02-17.64 8.67c-7.44 10.71-1.63 24.26 10.17 28q3.3 1.05 12.13 1.07 17.32.05 34.69.01a.38.38 0 0 1 .38.38v30.78a.52.52 0 0 1-.52.52q-17.76.12-35.43.09-12.8-.02-18.97-1.52c-23.64-5.76-41.48-26.82-40.32-51.74"/></g><g fill="#00766a"><path d="M587.96 82.23q.32-10.9-1.91-21.34c-1.12-7.05-3.87-11.73 2.52-17.08 12.04-10.1 30.04-6.63 41.29 2.39 7.42 5.94 3.25 15.98-2.4 21.28q-5 4.7-10.92 7.65a.58.57 51.1 0 0-.1.96q10.73 8.6 20.93 17.05c5.57 4.61-4.33 18.16-12.7 11.22q-10.56-8.75-20.8-17.31a.57.57 0 0 0-.94.47c.27 5.41 1.55 15.93-5.92 17.02-10.16 1.47-12.7-8.26-9.33-15.85q.76-1.71.28-6.46m29.64-24.18a1.21 1.21 0 0 0-.24-2.03c-4.64-2.28-8.97-1.4-13.85-2.04a.95.94-88.1 0 0-1.07 1.01l.62 8.56a.43.42 84.1 0 0 .47.39q7.95-.88 14.07-5.89M531.93 173.87c-20.49-15.24-11.89-45.17 11-52.72q4.14-1.37 11.93-1.38 26.92-.06 53.88.01a.51.51 0 0 1 .51.51v30.67a.51.51 0 0 1-.51.51q-19.74.04-39.43.05-2.79 0-2.79 2.93a1 1 0 0 0 .4.8q14.42 10.78 18.88 14.2c15.07 11.56 14.41 32.77-.34 44.49-7.32 5.81-14.39 7.02-24.46 7.04q-26.37.06-52.74-.01a.51.51 0 0 1-.51-.51v-30.67a.51.51 0 0 1 .5-.51q17.88-.06 35.72-.02c.96 0 1.91-.26 2.87-.41a.94.92-87.5 0 0 .74-.69l.43-1.76a.95.94 24.9 0 0-.36-.97q-7.89-5.74-15.72-11.56"/></g><path fill="#c8a601" d="M586.05 60.89q2.23 10.44 1.91 21.34c-6.32 12.06-17.56 19.06-31.02 20.44q-11.12 1.15-19.15-6.42l-7.02-13.48q-1.3-21.74 14.88-30.44c14.33-7.72 30.27-4.37 40.4 8.56m-18.11 3.25c-9.34-4.04-25.71 2.18-21.65 14.62 4.57 14.01 24.6 9.54 27.6-2.93 1.28-5.32-1.11-9.6-5.95-11.69"/></svg>