<svg xmlns="http://www.w3.org/2000/svg" viewBox="0 0 754 325"><g fill="none" stroke-width="2"><path stroke="#8080c0" d="M313.82 71.87q.72 5.63 1.01 12.38 1.26 29.14 2.42 57.8a1.29 1.28-1.4 0 0 1.3 1.23l22.69-.12a.9.9 0 0 0 .89-.95c-1.77-37.92-3.92-76.03-4.68-114.03-.03-1.5-.35-3.04-.75-4.37a1.81 1.8-8.2 0 0-1.73-1.29l-27.12-.03a.72.71 11 0 0-.66.44q-13.09 31.34-27.23 62.21c-.09.2-.82.9-.99 1.14a.44.44 0 0 1-.79-.19q-4.26-27.31-9.7-54.34-.9-4.41-2.47-8.81a.67.67 0 0 0-.63-.44h-21.83a.85.85 0 0 0-.8.57q-16.09 47.08-30.99 94.55a.73.73 0 0 1-1.42-.11q-3.56-23.16-7.75-46.17c-2.38-13.03-4.26-27.72-6.91-41.53q-.65-3.41-2.13-6.8a.85.84-11.6 0 0-.78-.51H165a.82.8-77.2 0 0-.73.47q-22.13 48.04-42.82 96.72-.34.81-1.73 2.73-.31.42-.47-.08-.43-1.38-.14-3.42 2.5-17.22 5.14-34.51a1.01 1.01 0 0 0-1-1.16H79.98a.77.76 7.4 0 0-.74.57q-2.8 10.49-3.76 21.32a.55.54-87.1 0 0 .54.6l17.69.01a.45.45 0 0 1 .45.5c-.65 6.03-.35 12.65-7.91 13.76-24.6 3.61-42.76-17.31-33.99-41.33q2.08-5.7 7.13-12.54c15.88-21.5 45.46-26.03 69.64-18.12a.98.97 17.1 0 0 1.24-.65q3.2-10.86 4.11-22.16a.66.66 0 0 0-.42-.67c-29.02-10.93-57.83-4.53-82.4 13.27-21.42 15.53-27.52 37.39-25.48 62.97.83 10.54 8.77 22.62 15.98 29.42 18.39 17.34 49.44 17.89 70.52 5.45a.72.72 0 0 1 1.04.89l-2.2 5.56a.82.82 0 0 0 .76 1.12l23.08.04a1.45 1.43 18.3 0 0 1.15-.57q2.41-3.22 3.93-6.9c3.86-9.33 7.81-20.42 13.22-28.89a.88.88 0 0 1 .74-.4h26.71a.59.58-3.9 0 1 .58.5q2.59 17.5 6.7 34.7a2.03 2.02-6.7 0 0 1.97 1.55h38.92a.58.57 9 0 0 .55-.39q11-31.92 20.4-64.34a1.29 1.28 48.2 0 1 2.5.14q4.63 27 10.75 54.31.94 4.23 2.5 9.1a1.69 1.68-8.7 0 0 1.61 1.18h12.94a.82.81-76 0 0 .72-.44c11.76-22.79 21.18-47.15 31.1-71.15a.82.82 0 0 1 1.57.21M375.22 117.16a1.47 1.47 0 0 1-.94-1.61l3.1-19.77a.63.62 4.3 0 1 .62-.53h35.51a1.59 1.58 6.1 0 0 1.55-1.25q2.41-11.1 3.66-22.43.22-2.04-1.83-2.04l-34.92-.04a.61.6-85.5 0 1-.59-.7l3.13-20.08a.54.54 0 0 1 .53-.46h40.72a.89.88-74 0 0 .75-.42c3.45-5.63 4.3-17.47 4.9-23.89a1.32 1.32 0 0 0-1.31-1.44l-64.88.02a2.05 2.05 0 0 0-2.02 1.72q-9.42 57.59-18.5 115.9c-.41 2.65-.33 3.14 2.56 3.12q31.73-.19 63.58.03a1.97 1.96 7.1 0 0 1.92-1.49q2.79-11.04 4.07-22.36.22-1.92-1.71-1.92-19.25-.03-38.73-.03c-.17 0-1.03-.28-1.17-.33M585.29 26.95c-20 10.81-34.14 29.08-36.31 52.21-1.93 20.57 2.63 37.08 16.05 52.81 14.61 17.13 40.08 16.48 57.43 4.24 31.59-22.28 38.55-63.49 16.84-95.51-9.97-14.71-25.9-20.27-42.96-17.56q-5.67.9-11.05 3.81" vector-effect="non-scaling-stroke"/><path stroke="#8080c0" d="M730.19 29.9q2.18-3.36 3.99-6.67a.5.49 14.2 0 0-.44-.73h-26.48a1.07 1.07 0 0 0-.8.36q-1.63 1.82-2.96 3.89-10.54 16.36-20.38 33.14-.08.14-.16.26a1.55 1.55 0 0 1-2.75-.38q-6.15-18.44-14.13-36.17a1.89 1.88-12.1 0 0-1.72-1.11l-25.08.02a.9.9 0 0 0-.82 1.27q13.21 28.95 26.61 58.4c1.06 2.33 1.87 3.19 1.46 5.84q-4.11 26.66-8.37 53.85a1.14 1.13-85.6 0 0 1.12 1.31l21.91.1a.81.81 0 0 0 .79-.62c3.6-15.05 5.65-30.69 8.05-45.98q.39-2.49 1.58-4.62c11.92-21.24 25.3-41.76 38.58-62.16M469.88 25.17q-1.66 7.75-2.97 15.57-8.39 50.08-16.16 100.29a1.26 1.26 0 0 0 1.25 1.45q27.62.05 55.17 0c2.01-.01 5.14-.32 6.95-1.03 14.99-5.91 29.59-17.4 29.95-34.83.22-10.32-4.79-17.7-11.12-25.22a.83.83 0 0 1 .01-1.09c9.62-10.84 16.91-23.69 9.87-38.01-4.34-8.82-15.4-19.06-25.58-19.05q-22.97.01-46.72-.01a.52.52 0 0 0-.52.57q.05.54-.13 1.36" vector-effect="non-scaling-stroke"/><path stroke="#ff8080" d="M338.94 302.31q6.87.3 10.75.09a.57.56-88.9 0 0 .54-.52l.31-3.55a.53.53 0 0 0-.49-.57c-13.89-1.15-17.24-4.35-21.6-16.99q-17.41-50.49-34.75-101-2.77-8.05-5.16-18.22a.66.66 0 0 0-.73-.51l-7.66 1.01a.94.94 0 0 0-.78.63q-3.03 8.54-6.56 16.88-20.72 49.07-41.64 98.06c-2.75 6.46-6.38 14.39-12.78 17.92-3.18 1.75-7.54 2.09-11.31 2.54a.67.66-6.2 0 0-.58.72l.29 3.1a.57.57 0 0 0 .53.51c4.32.27 9.81-.13 12.87-.15q15.65-.13 32.31.32a1.18 1.18 0 0 0 1.21-1.11l.22-3.23a.49.49 0 0 0-.49-.52q-5.86 0-11.4-1.75c-7-2.21-3.37-10.77-1.63-15.3q5.62-14.6 11.22-28.8a.98.97 10.5 0 1 .91-.62h47.19a.7.69-9.3 0 1 .66.47q5.75 16.64 11.11 33.41c3.88 12.13-4.04 11.77-13.26 13.04a.57.56-7.3 0 0-.49.62l.31 3.25a.57.56-3.3 0 0 .58.51q29.68-.7 40.3-.24M429.29 297.93c-42.01-4.77-54.21-48.94-47.78-84.17 4.48-24.51 22.08-40.8 46.15-44.69 19.01-3.07 38.61 1.72 45.15 22.02.94 2.9 1.33 6.54 1.99 9.8a.62.62 0 0 0 .66.49l4.33-.41a.5.5 0 0 0 .46-.51q-.17-16.77 1.2-33.49a.61.61 0 0 0-.45-.64c-51.16-13.45-117.77.88-120.96 64.69-1.4 28.03 11.77 53.16 36.33 65.68 25.65 13.06 56.42 9.68 83.01 1.91a.8.78-5.5 0 0 .57-.68q1.82-17.36 6.05-34.29a.68.68 0 0 0-.52-.83l-4.04-.86a.79.79 0 0 0-.9.48c-9.76 24.04-23.38 38.66-51.25 35.5M652.9 299.65c18.17 5.41 37.28 8.82 55.32 1.63 16.47-6.56 27.7-21.66 26.01-39.65-2.17-23.11-24.29-31.77-42.32-40.27-14.71-6.94-24.82-12.54-24.65-29.35.18-17.98 15.82-25.73 32-22.26 14.64 3.13 22.03 14.47 23 29.04a.54.53 85.7 0 0 .57.5l4.59-.32a.63.63 0 0 0 .59-.64q-.17-15.67 1.23-31.27a.57.56-80 0 0-.42-.61c-22.77-5.92-56.24-10.34-72.15 12.57-7.47 10.75-8.28 25.69-1.19 37 5.27 8.43 14.08 14.63 22.98 18.81 10.39 4.87 23.33 9.59 31.58 17.64 11.38 11.12 10.26 31.28-2.9 40.38q-6.93 4.79-16.69 4.88c-21.81.19-31.39-15.96-38.44-34.34a.64.62-16.4 0 0-.73-.39l-4.51 1.06a.59.59 0 0 0-.43.72q4.34 16.84 5.98 34.16a.82.82 0 0 0 .58.71M90.28 233.82l76.77.23a.46.46 0 0 1 .45.46q-.01 23.65.01 47.3c0 12.83-4.63 15.46-16.43 16.35a.63.63 0 0 0-.59.69l.3 3.37a.66.66 0 0 0 .68.6q24.66-.85 49.32 0a.64.64 0 0 0 .66-.56l.43-3.7a.55.54-84.5 0 0-.5-.61c-7.78-.5-17.65-.45-17.66-11.2q-.03-38.51.06-77.02c.02-8.74-.4-17.74.15-27.22.64-11.08 6.87-12.96 16.65-13.6a.61.6 86.6 0 0 .56-.64l-.19-3.21a.46.45-2 0 0-.46-.42l-49.94-.06a.45.44 0 0 0-.45.44l-.03 3.56a.58.57-89.5 0 0 .56.58c7.87.19 16.81 1.12 16.84 10.34q.09 22.95.01 45.81a.44.44 0 0 1-.44.44H90.8a1.15 1.15 0 0 1-1.15-1.21c.66-14.47.17-28.39.24-42.57.05-10.17 7.76-12.88 16.38-12.96a.68.67 86.9 0 0 .67-.75l-.34-3.13a.72.71-3.1 0 0-.71-.63H56.42a.62.62 0 0 0-.62.59l-.2 3.57a.47.47 0 0 0 .46.5q5.82.14 10.67 1.37c6.47 1.62 6.75 6.8 6.78 12.47q.27 48.22.21 96.44c-.02 14.21-3.43 17.16-17.01 18.63a.62.61-2.7 0 0-.55.6l-.05 2.91a.63.62-82 0 0 .45.6q1.39.38 3.69.31 22.92-.7 45.89.43a1.04 1.04 0 0 0 1.1-1.04l.01-3.28a.6.59-88 0 0-.55-.6c-12.18-.85-17.27-1.76-17.02-15.27q.45-24.22.14-48.44a.46.46 0 0 1 .46-.47M550.94 238.56q11.79 13.05 39.14 46.61 7.84 9.62 12.84 16.92a.95.95 0 0 0 .8.41q16.04-.41 32.09.26a.61.61 0 0 0 .64-.57l.22-3.82a.5.5 0 0 0-.48-.53c-13.66-.44-20.73-8.62-30.5-19.54q-22.98-25.65-44.38-52.68a.7.69 42.6 0 1-.04-.82q1.29-1.94 2.94-3.59c12.93-12.98 25.57-26.29 38.97-38.78q12.98-12.1 30.69-13.54a.63.63 0 0 0 .58-.68l-.26-3.18a.48.47-2.6 0 0-.48-.43h-50.47a.51.5-87.5 0 0-.5.47l-.29 3.25a.55.55 0 0 0 .51.6q2.74.18 8.15 1.24c9.76 1.92 1.98 10.49-.87 13.82q-16.07 18.79-34.04 35.73c-5.16 4.85-9.35 7.56-15.81 9.02a.73.73 0 0 1-.88-.71q-.04-20.43.02-40.84c.04-13.93 4.51-17.63 18.02-18.28a.51.51 0 0 0 .48-.59l-.53-3.3a.5.48-4 0 0-.49-.41l-51.6-.03a.54.54 0 0 0-.54.51l-.17 3.08a1.02 1.01 1.9 0 0 1 1.06c8.71.14 17.68.88 17.72 12.06q.17 49.43.04 98.86c-.04 13.63-4.44 17.71-17.81 17.9a.56.55-90 0 0-.55.56l-.01 3.63a.62.61-.9 0 0 .64.61q25.78-.89 51.56.01a.66.66 0 0 0 .68-.64l.11-3.56a.57.56 9 0 0-.42-.57c-3.42-.99-6.8-.66-11.84-2.06-5.8-1.6-6.26-6.77-6.3-11.28q-.13-13.35.04-48.6a.61.6 84.9 0 1 .49-.6q6.99-1.28 10.89 3.02" vector-effect="non-scaling-stroke"/><path stroke="#8080c0" d="M164.96 83.49c1.17.68 8.86-.4 10.99.03a1.12 1.12 0 0 0 1.34-1.22q-1.06-9.95-3.82-19.54a.82.81 48.7 0 0-1.53-.1q-4.09 9.46-8.29 19.53c-.29.69-.02 1.14.74 1.14a1.1 1.07-28.5 0 1 .57.16M604.8 45.92c-17.9-.1-26.03 18.85-29.77 33.04-3.21 12.25-.9 38.38 15.15 41.79 11.7 2.49 19.9-2.93 26-12.28 6.72-10.27 12.07-24.49 9.97-36.77-2.08-12.12-6.35-25.7-21.35-25.78M490.3 49.91q-1.66 10.26-2.78 20.42a.5.48-85.6 0 0 .46.55q9.36.49 18.56-.29 11.82-1.02 11.61-12.79c-.22-12.08-17.86-10.04-26.99-9.41a.71.7 5.7 0 0-.64.52q-.14.5-.22 1M483.65 96.04q-3.03 11.42-3.84 23.22a.46.46 0 0 0 .45.49c9.73.09 35.83 2.81 37.73-11.22 2.26-16.68-24.36-13.58-33.52-13.15a.89.89 0 0 0-.82.66" vector-effect="non-scaling-stroke"/><path stroke="#ff8080" d="M278.7 187a.7.7 0 0 0-1.31-.04l-22.08 55.58a.7.7 0 0 0 .65.96h40.84a.7.7 0 0 0 .67-.92L278.7 187" vector-effect="non-scaling-stroke"/></g><g fill="#fff"><path d="m303.36 126.53-10.09 21.84a.44.43-63.5 0 0 .18.56c8.6 4.53 8.26 13.77 11.09 22.09q17.78 52.31 35.92 104.49 1.45 4.17 3.53 8.05a.91.91 0 0 0 .75.48c8.52.66 15.82 1.88 18.01 10.48 1.85 7.26.12 16.35-7.33 19.65q-2.77 1.22-9.92 1.27-20.24.13-40.51.05c-11.41-.04-18.95-1.4-20.03-13.99q-.89-10.27 7.23-14.78c1.56-.87 3.37-.98 5.15-1.75a.52.52 0 0 0 .29-.65l-6.45-19.56a.75.74 80.6 0 0-.7-.51l-29.19.01a.76.75-79.1 0 0-.7.48l-7.59 19.5a.38.37-78.2 0 0 .33.51c12.42.63 16.33 14.13 11.57 23.69-3 6.01-8.97 6.95-15.8 7-14.18.09-29.61 1.08-43.66-.3-2.52-.25-4.57.91-6.94.83q-23.4-.8-46.8-.16-5.1.14-9.03-3.2c-6.52-5.56-7.27-18.96-.23-24.34 3.1-2.37 7.64-3.06 11.5-3.7a.53.52-5.4 0 0 .43-.51l-.15-36.56a.48.48 0 0 0-.48-.47l-50.3-.12a.4.4 0 0 0-.4.4l-.26 36.26a1.18 1.18 0 0 0 1.15 1.19q7.14.18 11.54 3.84c7.66 6.37 6.06 21.95-3.38 25.92q-2.84 1.19-9.5 1.14-20.92-.15-41.87-.23-6.28-.02-8.91-1.1c-8.14-3.32-10.56-14.03-7.3-21.33 2.89-6.45 8.83-8.11 15.49-8.3a.5.5 0 0 0 .49-.5q-.04-37.07.25-74.13.11-13.04-.4-26.98a.65.65 0 0 0-.64-.62c-6.01-.1-11.12-1.32-14.81-6.37-5.16-7.07-2.07-21.07 7.07-23.64q.47-.13.03-.33c-19.99-9.36-37.55-29-39.06-51.7-1.9-28.73 5.63-53.63 28.9-71.6C69.77 7.26 104.54-.18 138.24 12.22c7.04 2.59 9.34 8.68 9.22 15.79q0 .49.17.04c1.57-3.97 3.89-9.24 5.64-11.99 3.49-5.49 8.1-6.4 14.8-6.52q19.59-.35 25.75.09c8.58.62 11.78 6.6 13.69 14.71q4.3 18.23 6.21 36.92.1.96.99 3.69.16.48.32 0 7.23-21.75 14.48-43.48 1.89-5.67 4.11-7.92c5.52-5.6 16.92-4.16 26.54-4.08 9.5.08 16.84 1.84 19.03 11.61q2.45 10.88 4.92 21.8.11.49.31.03 4.78-11.12 9.58-22.15 2.36-5.44 4.37-7.45c5.54-5.56 18.91-3.91 29.93-3.83 11.46.09 19.51 1.38 21.5 13.66a.27.27 0 0 0 .53-.01c1.61-11.17 8.81-13.54 19.2-13.58q26.83-.11 53.67-.03 9.96.02 13.4 1.6c7.2 3.31 8.3 10.2 7.42 17.86q-1.14 9.78-3.69 19.26c-1.86 6.91-4.96 11.07-11.81 12.68a.33.32 64.9 0 0-.18.51q3.86 5.23 3.4 10.31c-.98 10.87-2.47 28.18-9.6 33.73a.32.32 0 0 0 .04.54c6.2 3.56 8.43 8.9 7.51 16.08q-1.67 12.91-5.22 25.49c-.34 1.22-.95 1.64-1.64 2.61q-.3.41.19.3 8.01-1.71 16.2-1.89a.27.27 0 0 0 .23-.39q-2.32-4.51-1.94-6.96 5.77-36.99 15.71-97 2.09-12.64 4.41-22.95c1.42-6.29 5.36-10.49 11.81-10.92q10.14-.66 45.74-.06c17.83.3 29.38 10.06 38.75 24.28a.4.39 49.5 0 0 .62.05c9.65-10.44 23.39-21.15 37.53-23.96q18.23-3.63 35.96 3.6a.79.77 34 0 0 .83-.15q4.67-4.47 11.37-4.57 19.94-.28 25.33.04c10.71.64 14.86 13.22 18.48 22.49q.18.47.44.04 5.07-8.28 10.59-16.06 4.58-6.45 12.67-6.51 12.15-.08 24.3-.07c9.43.01 16.54 6.33 14.85 15.99q-.61 3.43-4.13 8.88c-13.21 20.41-26.4 40.93-38.57 62.01q-1.38 2.39-1.8 5.21c-2.39 16.04-4.33 32.18-8.68 46.57a.35.35 0 0 0 .36.45c12.26-.65 24.14 1.94 36.19 4.92 10.2 2.52 12.39 8.35 11.7 18.18q-.92 12.98-1.1 26.03c-.16 11.09-8.73 15-18.61 14.41-19.08-1.13-7.08-23.35-23.93-29.23-5.78-2.02-16.42-1.32-17.78 6.38q-2.06 11.59 9.08 16.68c23.44 10.71 46.48 19.25 54.86 42.54 5.36 14.89 3.04 33.26-6.7 46.24-16.43 21.88-45.24 27.27-71.03 21.47q-14.01-3.15-19.67-4.89a1.14 1.13 35.2 0 0-1.01.17l-3.31 2.44q-.39.29-.87.41c-3.01.72-5.63 1.53-8.78 1.45q-20.45-.49-27.37-.32c-12.45.29-14.86-8.59-21.25-16.49q-13.24-16.39-31.64-38.08-.25-.3-.25.1l.16 23.04a.42.41 89.3 0 0 .41.41c12.51.13 20.33 7.02 17.46 20.23-1.8 8.27-7.76 11.09-15.64 11.01q-23.3-.25-46.64-.01c-6 .07-10.26-.94-13.68-5.55-1.54-2.08-1.75-4.59-2.49-7.15q-.14-.47-.31-.01-2.14 5.85-7.13 7.47-13.37 4.34-30.13 6.73c-43.52 6.21-87.88-9.58-103.06-53.48-5-14.47-5.97-32.5-2.64-47.79q9.26-42.46 51.05-59.42.46-.19-.03-.19-40.72.22-54.44-.14c-7.98-.21-16.13.38-24.16.32-19.78-.15-17.11-16.04-17.88-29.94q-.01-.22-.1-.02m10.46-54.66q.72 5.63 1.01 12.38 1.26 29.14 2.42 57.8a1.29 1.28-1.4 0 0 1.3 1.23l22.69-.12a.9.9 0 0 0 .89-.95c-1.77-37.92-3.92-76.03-4.68-114.03-.03-1.5-.35-3.04-.75-4.37a1.81 1.8-8.2 0 0-1.73-1.29l-27.12-.03a.72.71 11 0 0-.66.44q-13.09 31.34-27.23 62.21c-.09.2-.82.9-.99 1.14a.44.44 0 0 1-.79-.19q-4.26-27.31-9.7-54.34-.9-4.41-2.47-8.81a.67.67 0 0 0-.63-.44h-21.83a.85.85 0 0 0-.8.57q-16.09 47.08-30.99 94.55a.73.73 0 0 1-1.42-.11q-3.56-23.16-7.75-46.17c-2.38-13.03-4.26-27.72-6.91-41.53q-.65-3.41-2.13-6.8a.85.84-11.6 0 0-.78-.51H165a.82.8-77.2 0 0-.73.47q-22.13 48.04-42.82 96.72-.34.81-1.73 2.73-.31.42-.47-.08-.43-1.38-.14-3.42 2.5-17.22 5.14-34.51a1.01 1.01 0 0 0-1-1.16H79.98a.77.76 7.4 0 0-.74.57q-2.8 10.49-3.76 21.32a.55.54-87.1 0 0 .54.6l17.69.01a.45.45 0 0 1 .45.5c-.65 6.03-.35 12.65-7.91 13.76-24.6 3.61-42.76-17.31-33.99-41.33q2.08-5.7 7.13-12.54c15.88-21.5 45.46-26.03 69.64-18.12a.98.97 17.1 0 0 1.24-.65q3.2-10.86 4.11-22.16a.66.66 0 0 0-.42-.67c-29.02-10.93-57.83-4.53-82.4 13.27-21.42 15.53-27.52 37.39-25.48 62.97.83 10.54 8.77 22.62 15.98 29.42 18.39 17.34 49.44 17.89 70.52 5.45a.72.72 0 0 1 1.04.89l-2.2 5.56a.82.82 0 0 0 .76 1.12l23.08.04a1.45 1.43 18.3 0 0 1.15-.57q2.41-3.22 3.93-6.9c3.86-9.33 7.81-20.42 13.22-28.89a.88.88 0 0 1 .74-.4h26.71a.59.58-3.9 0 1 .58.5q2.59 17.5 6.7 34.7a2.03 2.02-6.7 0 0 1.97 1.55h38.92a.58.57 9 0 0 .55-.39q11-31.92 20.4-64.34a1.29 1.28 48.2 0 1 2.5.14q4.63 27 10.75 54.31.94 4.23 2.5 9.1a1.69 1.68-8.7 0 0 1.61 1.18h12.94a.82.81-76 0 0 .72-.44c11.76-22.79 21.18-47.15 31.1-71.15a.82.82 0 0 1 1.57.21m61.4 45.29a1.47 1.47 0 0 1-.94-1.61l3.1-19.77a.63.62 4.3 0 1 .62-.53h35.51a1.59 1.58 6.1 0 0 1.55-1.25q2.41-11.1 3.66-22.43.22-2.04-1.83-2.04l-34.92-.04a.61.6-85.5 0 1-.59-.7l3.13-20.08a.54.54 0 0 1 .53-.46h40.72a.89.88-74 0 0 .75-.42c3.45-5.63 4.3-17.47 4.9-23.89a1.32 1.32 0 0 0-1.31-1.44l-64.88.02a2.05 2.05 0 0 0-2.02 1.72q-9.42 57.59-18.5 115.9c-.41 2.65-.33 3.14 2.56 3.12q31.73-.19 63.58.03a1.97 1.96 7.1 0 0 1.92-1.49q2.79-11.04 4.07-22.36.22-1.92-1.71-1.92-19.25-.03-38.73-.03c-.17 0-1.03-.28-1.17-.33m210.07-90.21c-20 10.81-34.14 29.08-36.31 52.21-1.93 20.57 2.63 37.08 16.05 52.81 14.61 17.13 40.08 16.48 57.43 4.24 31.59-22.28 38.55-63.49 16.84-95.51-9.97-14.71-25.9-20.27-42.96-17.56q-5.67.9-11.05 3.81m144.9 2.95q2.18-3.36 3.99-6.67a.5.49 14.2 0 0-.44-.73h-26.48a1.07 1.07 0 0 0-.8.36q-1.63 1.82-2.96 3.89-10.54 16.36-20.38 33.14-.08.14-.16.26a1.55 1.55 0 0 1-2.75-.38q-6.15-18.44-14.13-36.17a1.89 1.88-12.1 0 0-1.72-1.11l-25.08.02a.9.9 0 0 0-.82 1.27q13.21 28.95 26.61 58.4c1.06 2.33 1.87 3.19 1.46 5.84q-4.11 26.66-8.37 53.85a1.14 1.13-85.6 0 0 1.12 1.31l21.91.1a.81.81 0 0 0 .79-.62c3.6-15.05 5.65-30.69 8.05-45.98q.39-2.49 1.58-4.62c11.92-21.24 25.3-41.76 38.58-62.16m-260.31-4.73q-1.66 7.75-2.97 15.57-8.39 50.08-16.16 100.29a1.26 1.26 0 0 0 1.25 1.45q27.62.05 55.17 0c2.01-.01 5.14-.32 6.95-1.03 14.99-5.91 29.59-17.4 29.95-34.83.22-10.32-4.79-17.7-11.12-25.22a.83.83 0 0 1 .01-1.09c9.62-10.84 16.91-23.69 9.87-38.01-4.34-8.82-15.4-19.06-25.58-19.05q-22.97.01-46.72-.01a.52.52 0 0 0-.52.57q.05.54-.13 1.36M132.3 60.37c-2.81 1.78-7.32-.14-10.21-.91-7.06-1.88-14.5-2.3-21.54-1.68-19.58 1.75-39.51 16.57-37.14 38.16q.06.52.13.01c.93-6.49 2.22-16.77 6.93-21.62 3.92-4.03 10.25-4.27 15.78-4.28q25.18-.06 36.47.13c1.61.03 3.25.75 4.92.97a.66.66 0 0 0 .7-.39l4.4-10.01a.3.3 0 0 0-.44-.38M143 154c-8.16 3.89-17.5 2.38-26.19 2.29q-.49-.01-.22.4c4.49 6.78 4.73 16.55-1.69 22-2.95 2.5-7.43 3.09-11.3 3.68a.69.69 0 0 0-.59.68l-.24 28.82a.6.6 0 0 0 .6.61l50.74.11a.45.45 0 0 0 .45-.46l-.27-28.92a.85.85 0 0 0-.82-.84q-14.89-.71-16.41-13.75c-.32-2.73.62-5.63 1.31-8.34.73-2.92 2.39-4.54 4.63-6.28 6.8-4.15 21.33-2.6 35.77-2.43q.5.01.2-.4c-1.08-1.47-2.08-2.48-2.57-4.32q-3.53-13.29-5.82-26.81a.59.58 84.9 0 0-.59-.5l-7.89.03a.84.83-78 0 0-.76.5q-5.5 12.56-10.95 25.09-1.96 4.51-7.39 8.84m99.04-7.35c-4.75 13.58-20.25 9.11-30.4 9.75a.32.32 0 0 0-.26.47c3.35 5.94 4.23 14.69-.37 20.24-3.14 3.81-8.76 4.37-13.57 5.52a.82.82 0 0 0-.63.8q-.13 41.64-.03 83.83c.01 3.85.45 11.1.06 16.7a.46.46 0 0 0 .46.49c4.42-.05 12.36 2.2 15.81-1.33 3.05-3.13 5.63-9.61 7.06-12.94q14.69-34.33 43.07-101.68 1.72-4.07 4.37-11.73a.38.38 0 0 0-.34-.5q-7-.47-10.93-5.13c-4.11-4.86-5.8-16.16-7.54-23.14q-.12-.49-.28-.01-3.22 9.37-6.48 18.66m403.53-1c-.99-3.94.22-9.12 1.01-13.35q.09-.49-.24-.12-9.95 11.19-22.87 18.9-.43.26.07.28c6.28.25 14.8-1.05 20.03 4.53 3.21 3.43 3.93 8.91 3.9 13.56q0 .46.2.04c2.58-5.22 9.89-10.08 14.89-12.81q.43-.23-.06-.24c-7.58-.08-15-3.06-16.93-10.79m-97.19-13.09q-9.87 12.25-24.32 18.65a.3.3 0 0 0 .13.57q15.45-.43 30.83-.26c7.48.08 13.18 2.86 14.75 10.4a.33.32-46.7 0 0 .64-.02q.68-4.38 4.07-7.27.31-.27-.09-.38c-9.96-2.67-20.29-13.16-25.33-21.64a.42.41 48.9 0 0-.68-.05m-55.6 27.03 2.75-3.82q.08-.11-.05-.11l-6.68.03q-.47 0-.06.23 2.34 1.29 3.61 3.64a.26.26 0 0 0 .43.03M338.94 302.31q6.87.3 10.75.09a.57.56-88.9 0 0 .54-.52l.31-3.55a.53.53 0 0 0-.49-.57c-13.89-1.15-17.24-4.35-21.6-16.99q-17.41-50.49-34.75-101-2.77-8.05-5.16-18.22a.66.66 0 0 0-.73-.51l-7.66 1.01a.94.94 0 0 0-.78.63q-3.03 8.54-6.56 16.88-20.72 49.07-41.64 98.06c-2.75 6.46-6.38 14.39-12.78 17.92-3.18 1.75-7.54 2.09-11.31 2.54a.67.66-6.2 0 0-.58.72l.29 3.1a.57.57 0 0 0 .53.51c4.32.27 9.81-.13 12.87-.15q15.65-.13 32.31.32a1.18 1.18 0 0 0 1.21-1.11l.22-3.23a.49.49 0 0 0-.49-.52q-5.86 0-11.4-1.75c-7-2.21-3.37-10.77-1.63-15.3q5.62-14.6 11.22-28.8a.98.97 10.5 0 1 .91-.62h47.19a.7.69-9.3 0 1 .66.47q5.75 16.64 11.11 33.41c3.88 12.13-4.04 11.77-13.26 13.04a.57.56-7.3 0 0-.49.62l.31 3.25a.57.56-3.3 0 0 .58.51q29.68-.7 40.3-.24m90.35-4.38c-42.01-4.77-54.21-48.94-47.78-84.17 4.48-24.51 22.08-40.8 46.15-44.69 19.01-3.07 38.61 1.72 45.15 22.02.94 2.9 1.33 6.54 1.99 9.8a.62.62 0 0 0 .66.49l4.33-.41a.5.5 0 0 0 .46-.51q-.17-16.77 1.2-33.49a.61.61 0 0 0-.45-.64c-51.16-13.45-117.77.88-120.96 64.69-1.4 28.03 11.77 53.16 36.33 65.68 25.65 13.06 56.42 9.68 83.01 1.91a.8.78-5.5 0 0 .57-.68q1.82-17.36 6.05-34.29a.68.68 0 0 0-.52-.83l-4.04-.86a.79.79 0 0 0-.9.48c-9.76 24.04-23.38 38.66-51.25 35.5m223.61 1.72c18.17 5.41 37.28 8.82 55.32 1.63 16.47-6.56 27.7-21.66 26.01-39.65-2.17-23.11-24.29-31.77-42.32-40.27-14.71-6.94-24.82-12.54-24.65-29.35.18-17.98 15.82-25.73 32-22.26 14.64 3.13 22.03 14.47 23 29.04a.54.53 85.7 0 0 .57.5l4.59-.32a.63.63 0 0 0 .59-.64q-.17-15.67 1.23-31.27a.57.56-80 0 0-.42-.61c-22.77-5.92-56.24-10.34-72.15 12.57-7.47 10.75-8.28 25.69-1.19 37 5.27 8.43 14.08 14.63 22.98 18.81 10.39 4.87 23.33 9.59 31.58 17.64 11.38 11.12 10.26 31.28-2.9 40.38q-6.93 4.79-16.69 4.88c-21.81.19-31.39-15.96-38.44-34.34a.64.62-16.4 0 0-.73-.39l-4.51 1.06a.59.59 0 0 0-.43.72q4.34 16.84 5.98 34.16a.82.82 0 0 0 .58.71M90.28 233.82l76.77.23a.46.46 0 0 1 .45.46q-.01 23.65.01 47.3c0 12.83-4.63 15.46-16.43 16.35a.63.63 0 0 0-.59.69l.3 3.37a.66.66 0 0 0 .68.6q24.66-.85 49.32 0a.64.64 0 0 0 .66-.56l.43-3.7a.55.54-84.5 0 0-.5-.61c-7.78-.5-17.65-.45-17.66-11.2q-.03-38.51.06-77.02c.02-8.74-.4-17.74.15-27.22.64-11.08 6.87-12.96 16.65-13.6a.61.6 86.6 0 0 .56-.64l-.19-3.21a.46.45-2 0 0-.46-.42l-49.94-.06a.45.44 0 0 0-.45.44l-.03 3.56a.58.57-89.5 0 0 .56.58c7.87.19 16.81 1.12 16.84 10.34q.09 22.95.01 45.81a.44.44 0 0 1-.44.44H90.8a1.15 1.15 0 0 1-1.15-1.21c.66-14.47.17-28.39.24-42.57.05-10.17 7.76-12.88 16.38-12.96a.68.67 86.9 0 0 .67-.75l-.34-3.13a.72.71-3.1 0 0-.71-.63H56.42a.62.62 0 0 0-.62.59l-.2 3.57a.47.47 0 0 0 .46.5q5.82.14 10.67 1.37c6.47 1.62 6.75 6.8 6.78 12.47q.27 48.22.21 96.44c-.02 14.21-3.43 17.16-17.01 18.63a.62.61-2.7 0 0-.55.6l-.05 2.91a.63.62-82 0 0 .45.6q1.39.38 3.69.31 22.92-.7 45.89.43a1.04 1.04 0 0 0 1.1-1.04l.01-3.28a.6.59-88 0 0-.55-.6c-12.18-.85-17.27-1.76-17.02-15.27q.45-24.22.14-48.44a.46.46 0 0 1 .46-.47m460.66 4.74q11.79 13.05 39.14 46.61 7.84 9.62 12.84 16.92a.95.95 0 0 0 .8.41q16.04-.41 32.09.26a.61.61 0 0 0 .64-.57l.22-3.82a.5.5 0 0 0-.48-.53c-13.66-.44-20.73-8.62-30.5-19.54q-22.98-25.65-44.38-52.68a.7.69 42.6 0 1-.04-.82q1.29-1.94 2.94-3.59c12.93-12.98 25.57-26.29 38.97-38.78q12.98-12.1 30.69-13.54a.63.63 0 0 0 .58-.68l-.26-3.18a.48.47-2.6 0 0-.48-.43h-50.47a.51.5-87.5 0 0-.5.47l-.29 3.25a.55.55 0 0 0 .51.6q2.74.18 8.15 1.24c9.76 1.92 1.98 10.49-.87 13.82q-16.07 18.79-34.04 35.73c-5.16 4.85-9.35 7.56-15.81 9.02a.73.73 0 0 1-.88-.71q-.04-20.43.02-40.84c.04-13.93 4.51-17.63 18.02-18.28a.51.51 0 0 0 .48-.59l-.53-3.3a.5.48-4 0 0-.49-.41l-51.6-.03a.54.54 0 0 0-.54.51l-.17 3.08a1.02 1.01 1.9 0 0 1 1.06c8.71.14 17.68.88 17.72 12.06q.17 49.43.04 98.86c-.04 13.63-4.44 17.71-17.81 17.9a.56.55-90 0 0-.55.56l-.01 3.63a.62.61-.9 0 0 .64.61q25.78-.89 51.56.01a.66.66 0 0 0 .68-.64l.11-3.56a.57.56 9 0 0-.42-.57c-3.42-.99-6.8-.66-11.84-2.06-5.8-1.6-6.26-6.77-6.3-11.28q-.13-13.35.04-48.6a.61.6 84.9 0 1 .49-.6q6.99-1.28 10.89 3.02m1.75-34.64c0 .28-.19.66-.28.94q-.18.53.22.14 11.96-11.77 23.13-24.29a.57.57 0 0 0-.11-.86q-4.21-2.74-5.35-7.61-.11-.47-.23-.01c-2.22 8.16-9.47 9.58-16.79 10.16a.58.58 0 0 0-.54.58q.06 10.52-.05 20.95m-53.98 61.66q-3.3 13.01-4.87 26.34-.06.49.17.05c3.13-5.91 9.87-6.99 15.76-7.28a.62.62 0 0 0 .59-.62c.21-30.04.55-60.18-.08-90.18q-.12-5.42.22-10.84a.46.46 0 0 0-.46-.49c-6.3.01-12.13-1.28-15.85-6.58q-.29-.41-.31.09-.42 12.14-.52 24.21c-.09 11.73-11.59 15.61-21.27 13.51-12.56-2.73-8.57-13.85-13.15-22.17q-4.63-8.42-14.96-9.75c-15.13-1.95-30.35 2.48-40.34 14.1-12.34 14.34-12.21 36.67-8.61 54.17 2.65 12.87 9.74 23.69 21.06 30.23q7.53 4.36 12.91 4.38c6.22.03 13.2.68 18.76-1.33 10.3-3.73 15.07-13.17 19.55-23.22 2.67-6.01 4.65-9.52 10.84-10.91 5.68-1.27 15.76 1.48 18.9 6.69 1.45 2.42 2.36 6.83 1.66 9.6m110.74-70.87c-13.17 12.82-21.77 21.38-30.84 30.77a.58.57 47.8 0 0-.03.76c15.03 18.56 30.2 37.06 47.37 54.06q4.67 4.62 10.96 4.43a.43.43 0 0 0 .41-.51q-1.34-7.53-3.07-14.95-1.16-4.95-.55-7.73c1.68-7.54 6.94-9.22 13.77-10.84q4.16-.99 7.01-.26c5.28 1.36 7.91 4.42 10.21 9.65 5.21 11.83 9.81 23.98 24.87 24.54 8 .3 14.65-3.48 15.1-11.98.54-10.21-8.26-15.17-16.15-18.67-11.67-5.17-23.37-10.22-32.99-18.23-16.88-14.03-22.5-35.23-14.27-55.72q.18-.45-.26-.25-4 1.87-8.38 2.42c-9.32 1.16-16.26 5.79-23.16 12.51"/><path d="M575.03 78.96c3.74-14.19 11.87-33.14 29.77-33.04 15 .08 19.27 13.66 21.35 25.78 2.1 12.28-3.25 26.5-9.97 36.77-6.1 9.35-14.3 14.77-26 12.28-16.05-3.41-18.36-29.54-15.15-41.79m30.46-19.97c-10.02-.58-15.54 14.53-17.62 22.21-1.38 5.09-2.14 24.3 5.37 26.76 11.37 3.73 19.73-21.11 20.22-28.71.29-4.5-1.27-19.87-7.97-20.26M490.3 49.91q.08-.5.22-1a.71.7 5.7 0 1 .64-.52c9.13-.63 26.77-2.67 26.99 9.41q.21 11.77-11.61 12.79-9.2.78-18.56.29a.5.48-85.6 0 1-.46-.55q1.12-10.16 2.78-20.42M164.39 83.33c-.76 0-1.03-.45-.74-1.14q4.2-10.07 8.29-19.53a.82.81 48.7 0 1 1.53.1q2.76 9.59 3.82 19.54a1.12 1.12 0 0 1-1.34 1.22c-2.13-.43-9.82.65-10.99-.03a1.1 1.07-28.5 0 0-.57-.16M483.65 96.04a.89.89 0 0 1 .82-.66c9.16-.43 35.78-3.53 33.52 13.15-1.9 14.03-28 11.31-37.73 11.22a.46.46 0 0 1-.45-.49q.81-11.8 3.84-23.22M278.7 187l18.77 55.58a.7.7 0 0 1-.67.92h-40.84a.7.7 0 0 1-.65-.96l22.08-55.58a.7.7 0 0 1 1.31.04m-1.88 36.78-2.48 6.15a.33.33 0 0 0 .31.45l4.55.02a.29.29 0 0 0 .28-.38l-2.13-6.22q-.25-.73-.53-.02"/></g><g fill="navy"><path d="M313.82 71.87a.82.82 0 0 0-1.57-.21c-9.92 24-19.34 48.36-31.1 71.15a.82.81-76 0 1-.72.44h-12.94a1.69 1.68-8.7 0 1-1.61-1.18q-1.56-4.87-2.5-9.1-6.12-27.31-10.75-54.31a1.29 1.28 48.2 0 0-2.5-.14q-9.4 32.42-20.4 64.34a.58.57 9 0 1-.55.39h-38.92a2.03 2.02-6.7 0 1-1.97-1.55q-4.11-17.2-6.7-34.7a.59.58-3.9 0 0-.58-.5H154.3a.88.88 0 0 0-.74.4c-5.41 8.47-9.36 19.56-13.22 28.89q-1.52 3.68-3.93 6.9a1.45 1.43 18.3 0 1-1.15.57l-23.08-.04a.82.82 0 0 1-.76-1.12l2.2-5.56a.72.72 0 0 0-1.04-.89c-21.08 12.44-52.13 11.89-70.52-5.45-7.21-6.8-15.15-18.88-15.98-29.42-2.04-25.58 4.06-47.44 25.48-62.97 24.57-17.8 53.38-24.2 82.4-13.27a.66.66 0 0 1 .42.67q-.91 11.3-4.11 22.16a.98.97 17.1 0 1-1.24.65c-24.18-7.91-53.76-3.38-69.64 18.12q-5.05 6.84-7.13 12.54c-8.77 24.02 9.39 44.94 33.99 41.33 7.56-1.11 7.26-7.73 7.91-13.76a.45.45 0 0 0-.45-.5l-17.69-.01a.55.54-87.1 0 1-.54-.6q.96-10.83 3.76-21.32a.77.76 7.4 0 1 .74-.57h43.27a1.01 1.01 0 0 1 1 1.16q-2.64 17.29-5.14 34.51-.29 2.04.14 3.42.16.5.47.08 1.39-1.92 1.73-2.73 20.69-48.68 42.82-96.72a.82.8-77.2 0 1 .73-.47h27.77a.85.84-11.6 0 1 .78.51q1.48 3.39 2.13 6.8c2.65 13.81 4.53 28.5 6.91 41.53q4.19 23.01 7.75 46.17a.73.73 0 0 0 1.42.11q14.9-47.47 30.99-94.55a.85.85 0 0 1 .8-.57h21.83a.67.67 0 0 1 .63.44q1.57 4.4 2.47 8.81 5.44 27.03 9.7 54.34a.44.44 0 0 0 .79.19c.17-.24.9-.94.99-1.14q14.14-30.87 27.23-62.21a.72.71 11 0 1 .66-.44l27.12.03a1.81 1.8-8.2 0 1 1.73 1.29c.4 1.33.72 2.87.75 4.37.76 38 2.91 76.11 4.68 114.03a.9.9 0 0 1-.89.95l-22.69.12a1.29 1.28-1.4 0 1-1.3-1.23q-1.16-28.66-2.42-57.8-.29-6.75-1.01-12.38M164.96 83.49c1.17.68 8.86-.4 10.99.03a1.12 1.12 0 0 0 1.34-1.22q-1.06-9.95-3.82-19.54a.82.81 48.7 0 0-1.53-.1q-4.09 9.46-8.29 19.53c-.29.69-.02 1.14.74 1.14a1.1 1.07-28.5 0 1 .57.16M375.22 117.16c.14.05 1 .33 1.17.33q19.48 0 38.73.03 1.93 0 1.71 1.92-1.28 11.32-4.07 22.36a1.97 1.96 7.1 0 1-1.92 1.49q-31.85-.22-63.58-.03c-2.89.02-2.97-.47-2.56-3.12q9.08-58.31 18.5-115.9a2.05 2.05 0 0 1 2.02-1.72l64.88-.02a1.32 1.32 0 0 1 1.31 1.44c-.6 6.42-1.45 18.26-4.9 23.89a.89.88-74 0 1-.75.42h-40.72a.54.54 0 0 0-.53.46l-3.13 20.08a.61.6-85.5 0 0 .59.7l34.92.04q2.05 0 1.83 2.04-1.25 11.33-3.66 22.43a1.59 1.58 6.1 0 1-1.55 1.25H378a.63.62 4.3 0 0-.62.53l-3.1 19.77a1.47 1.47 0 0 0 .94 1.61M548.98 79.16c2.17-23.13 16.31-41.4 36.31-52.21q5.38-2.91 11.05-3.81c17.06-2.71 32.99 2.85 42.96 17.56 21.71 32.02 14.75 73.23-16.84 95.51-17.35 12.24-42.82 12.89-57.43-4.24-13.42-15.73-17.98-32.24-16.05-52.81m55.82-33.24c-17.9-.1-26.03 18.85-29.77 33.04-3.21 12.25-.9 38.38 15.15 41.79 11.7 2.49 19.9-2.93 26-12.28 6.72-10.27 12.07-24.49 9.97-36.77-2.08-12.12-6.35-25.7-21.35-25.78"/><path d="M730.19 29.9c-13.28 20.4-26.66 40.92-38.58 62.16q-1.19 2.13-1.58 4.62c-2.4 15.29-4.45 30.93-8.05 45.98a.81.81 0 0 1-.79.62l-21.91-.1a1.14 1.13-85.6 0 1-1.12-1.31q4.26-27.19 8.37-53.85c.41-2.65-.4-3.51-1.46-5.84q-13.4-29.45-26.61-58.4a.9.9 0 0 1 .82-1.27l25.08-.02a1.89 1.88-12.1 0 1 1.72 1.11q7.98 17.73 14.13 36.17a1.55 1.55 0 0 0 2.75.38q.08-.12.16-.26 9.84-16.78 20.38-33.14 1.33-2.07 2.96-3.89a1.07 1.07 0 0 1 .8-.36h26.48a.5.49 14.2 0 1 .44.73q-1.81 3.31-3.99 6.67M469.88 25.17q.18-.82.13-1.36a.52.52 0 0 1 .52-.57q23.75.02 46.72.01c10.18-.01 21.24 10.23 25.58 19.05 7.04 14.32-.25 27.17-9.87 38.01a.83.83 0 0 0-.01 1.09c6.33 7.52 11.34 14.9 11.12 25.22-.36 17.43-14.96 28.92-29.95 34.83-1.81.71-4.94 1.02-6.95 1.03q-27.55.05-55.17 0a1.26 1.26 0 0 1-1.25-1.45q7.77-50.21 16.16-100.29 1.31-7.82 2.97-15.57m20.42 24.74q-1.66 10.26-2.78 20.42a.5.48-85.6 0 0 .46.55q9.36.49 18.56-.29 11.82-1.02 11.61-12.79c-.22-12.08-17.86-10.04-26.99-9.41a.71.7 5.7 0 0-.64.52q-.14.5-.22 1m-6.65 46.13q-3.03 11.42-3.84 23.22a.46.46 0 0 0 .45.49c9.73.09 35.83 2.81 37.73-11.22 2.26-16.68-24.36-13.58-33.52-13.15a.89.89 0 0 0-.82.66"/></g><g fill="red"><path d="M338.94 302.31q-10.62-.46-40.3.24a.57.56-3.3 0 1-.58-.51l-.31-3.25a.57.56-7.3 0 1 .49-.62c9.22-1.27 17.14-.91 13.26-13.04q-5.36-16.77-11.11-33.41a.7.69-9.3 0 0-.66-.47h-47.19a.98.97 10.5 0 0-.91.62q-5.6 14.2-11.22 28.8c-1.74 4.53-5.37 13.09 1.63 15.3q5.54 1.75 11.4 1.75a.49.49 0 0 1 .49.52l-.22 3.23a1.18 1.18 0 0 1-1.21 1.11q-16.66-.45-32.31-.32c-3.06.02-8.55.42-12.87.15a.57.57 0 0 1-.53-.51l-.29-3.1a.67.66-6.2 0 1 .58-.72c3.77-.45 8.13-.79 11.31-2.54 6.4-3.53 10.03-11.46 12.78-17.92q20.92-48.99 41.64-98.06 3.53-8.34 6.56-16.88a.94.94 0 0 1 .78-.63l7.66-1.01a.66.66 0 0 1 .73.51q2.39 10.17 5.16 18.22 17.34 50.51 34.75 101c4.36 12.64 7.71 15.84 21.6 16.99a.53.53 0 0 1 .49.57l-.31 3.55a.57.56-88.9 0 1-.54.52q-3.88.21-10.75-.09M278.7 187a.7.7 0 0 0-1.31-.04l-22.08 55.58a.7.7 0 0 0 .65.96h40.84a.7.7 0 0 0 .67-.92zM381.51 213.76c-6.43 35.23 5.77 79.4 47.78 84.17 27.87 3.16 41.49-11.46 51.25-35.5a.79.79 0 0 1 .9-.48l4.04.86a.68.68 0 0 1 .52.83q-4.23 16.93-6.05 34.29a.8.78-5.5 0 1-.57.68c-26.59 7.77-57.36 11.15-83.01-1.91-24.56-12.52-37.73-37.65-36.33-65.68 3.19-63.81 69.8-78.14 120.96-64.69a.61.61 0 0 1 .45.64q-1.37 16.72-1.2 33.49a.5.5 0 0 1-.46.51l-4.33.41a.62.62 0 0 1-.66-.49c-.66-3.26-1.05-6.9-1.99-9.8-6.54-20.3-26.14-25.09-45.15-22.02-24.07 3.89-41.67 20.18-46.15 44.69M652.9 299.65a.82.82 0 0 1-.58-.71q-1.64-17.32-5.98-34.16a.59.59 0 0 1 .43-.72l4.51-1.06a.64.62-16.4 0 1 .73.39c7.05 18.38 16.63 34.53 38.44 34.34q9.76-.09 16.69-4.88c13.16-9.1 14.28-29.26 2.9-40.38-8.25-8.05-21.19-12.77-31.58-17.64-8.9-4.18-17.71-10.38-22.98-18.81-7.09-11.31-6.28-26.25 1.19-37 15.91-22.91 49.38-18.49 72.15-12.57a.57.56-80 0 1 .42.61q-1.4 15.6-1.23 31.27a.63.63 0 0 1-.59.64l-4.59.32a.54.53 85.7 0 1-.57-.5c-.97-14.57-8.36-25.91-23-29.04-16.18-3.47-31.82 4.28-32 22.26-.17 16.81 9.94 22.41 24.65 29.35 18.03 8.5 40.15 17.16 42.32 40.27 1.69 17.99-9.54 33.09-26.01 39.65-18.04 7.19-37.15 3.78-55.32-1.63M89.82 234.29q.31 24.22-.14 48.44c-.25 13.51 4.84 14.42 17.02 15.27a.6.59-88 0 1 .55.6l-.01 3.28a1.04 1.04 0 0 1-1.1 1.04q-22.97-1.13-45.89-.43-2.3.07-3.69-.31a.63.62-82 0 1-.45-.6l.05-2.91a.62.61-2.7 0 1 .55-.6c13.58-1.47 16.99-4.42 17.01-18.63q.06-48.22-.21-96.44c-.03-5.67-.31-10.85-6.78-12.47q-4.85-1.23-10.67-1.37a.47.47 0 0 1-.46-.5l.2-3.57a.62.62 0 0 1 .62-.59h49.47a.72.71-3.1 0 1 .71.63l.34 3.13a.68.67 86.9 0 1-.67.75c-8.62.08-16.33 2.79-16.38 12.96-.07 14.18.42 28.1-.24 42.57a1.15 1.15 0 0 0 1.15 1.21h76.24a.44.44 0 0 0 .44-.44q.08-22.86-.01-45.81c-.03-9.22-8.97-10.15-16.84-10.34a.58.57-89.5 0 1-.56-.58l.03-3.56a.45.44 0 0 1 .45-.44l49.94.06a.46.45-2 0 1 .46.42l.19 3.21a.61.6 86.6 0 1-.56.64c-9.78.64-16.01 2.52-16.65 13.6-.55 9.48-.13 18.48-.15 27.22q-.09 38.51-.06 77.02c.01 10.75 9.88 10.7 17.66 11.2a.55.54-84.5 0 1 .5.61l-.43 3.7a.64.64 0 0 1-.66.56q-24.66-.85-49.32 0a.66.66 0 0 1-.68-.6l-.3-3.37a.63.63 0 0 1 .59-.69c11.8-.89 16.43-3.52 16.43-16.35q-.02-23.65-.01-47.3a.46.46 0 0 0-.45-.46l-76.77-.23a.46.46 0 0 0-.46.47M550.94 238.56q-3.9-4.3-10.89-3.02a.61.6 84.9 0 0-.49.6q-.17 35.25-.04 48.6c.04 4.51.5 9.68 6.3 11.28 5.04 1.4 8.42 1.07 11.84 2.06a.57.56 9 0 1 .42.57l-.11 3.56a.66.66 0 0 1-.68.64q-25.78-.9-51.56-.01a.62.61-.9 0 1-.64-.61l.01-3.63a.56.55-90 0 1 .55-.56c13.37-.19 17.77-4.27 17.81-17.9q.13-49.43-.04-98.86c-.04-11.18-9.01-11.92-17.72-12.06a1.02 1.01 1.9 0 1-1-1.06l.17-3.08a.54.54 0 0 1 .54-.51l51.6.03a.5.48-4 0 1 .49.41l.53 3.3a.51.51 0 0 1-.48.59c-13.51.65-17.98 4.35-18.02 18.28q-.06 20.41-.02 40.84a.73.73 0 0 0 .88.71c6.46-1.46 10.65-4.17 15.81-9.02q17.97-16.94 34.04-35.73c2.85-3.33 10.63-11.9.87-13.82q-5.41-1.06-8.15-1.24a.55.55 0 0 1-.51-.6l.29-3.25a.51.5-87.5 0 1 .5-.47h50.47a.48.47-2.6 0 1 .48.43l.26 3.18a.63.63 0 0 1-.58.68q-17.71 1.44-30.69 13.54c-13.4 12.49-26.04 25.8-38.97 38.78q-1.65 1.65-2.94 3.59a.7.69 42.6 0 0 .04.82q21.4 27.03 44.38 52.68c9.77 10.92 16.84 19.1 30.5 19.54a.5.5 0 0 1 .48.53l-.22 3.82a.61.61 0 0 1-.64.57q-16.05-.67-32.09-.26a.95.95 0 0 1-.8-.41q-5-7.3-12.84-16.92-27.35-33.56-39.14-46.61"/></g></svg>