<svg xmlns="http://www.w3.org/2000/svg" viewBox="0 0 754 299"><defs><linearGradient id="a" x1="308.144" x2="308.144" y1="1410.964" y2="1515.981" gradientTransform="matrix(1.10561 0 0 1.10561 23.289 -1533.374)" gradientUnits="userSpaceOnUse"><stop offset="0" style="stop-color:#d9dde9"/><stop offset=".39" style="stop-color:#777489"/><stop offset=".98" style="stop-color:#d9dde9"/></linearGradient><linearGradient id="b" x1="220.795" x2="270.307" y1="1450.026" y2="1499.537" gradientTransform="matrix(1.10561 0 0 1.10561 23.289 -1533.374)" gradientUnits="userSpaceOnUse"><stop offset="0" style="stop-color:#d9dde9"/><stop offset=".39" style="stop-color:#777489"/><stop offset=".98" style="stop-color:#d9dde9"/></linearGradient><linearGradient id="c" x1="221.69" x2="269.721" y1="1450.804" y2="1498.835" gradientTransform="matrix(1.10561 0 0 1.10561 23.289 -1533.374)" gradientUnits="userSpaceOnUse"><stop offset="0" style="stop-color:#000"/><stop offset=".11" style="stop-color:#181c4e"/><stop offset=".22" style="stop-color:#181818"/><stop offset=".34" style="stop-color:#181c4e"/><stop offset=".47" style="stop-color:#000"/><stop offset=".59" style="stop-color:#181c4e"/><stop offset=".72" style="stop-color:#000"/><stop offset=".84" style="stop-color:#181c4e"/><stop offset=".98" style="stop-color:#000"/></linearGradient><linearGradient id="d" x1="449.509" x2="499.751" y1="1461.434" y2="1514.88" gradientTransform="matrix(1.10561 0 0 1.10561 23.289 -1533.374)" gradientUnits="userSpaceOnUse"><stop offset="0" style="stop-color:#d9dde9"/><stop offset=".39" style="stop-color:#777489"/><stop offset=".98" style="stop-color:#d9dde9"/></linearGradient><linearGradient id="e" x1="450.21" x2="498.416" y1="1462.18" y2="1513.46" gradientTransform="matrix(1.10561 0 0 1.10561 23.289 -1533.374)" gradientUnits="userSpaceOnUse"><stop offset="0" style="stop-color:#000"/><stop offset=".11" style="stop-color:#181c4e"/><stop offset=".22" style="stop-color:#181818"/><stop offset=".34" style="stop-color:#181c4e"/><stop offset=".47" style="stop-color:#000"/><stop offset=".59" style="stop-color:#181c4e"/><stop offset=".72" style="stop-color:#000"/><stop offset=".84" style="stop-color:#181c4e"/><stop offset=".98" style="stop-color:#000"/></linearGradient><linearGradient id="f" x1="300.5" x2="350.308" y1="1450.364" y2="1500.173" gradientTransform="matrix(1.10561 0 0 1.10561 23.289 -1533.374)" gradientUnits="userSpaceOnUse"><stop offset="0" style="stop-color:#d9dde9"/><stop offset=".39" style="stop-color:#777489"/><stop offset=".98" style="stop-color:#d9dde9"/></linearGradient><linearGradient id="g" x1="301.62" x2="349.578" y1="1451.46" y2="1499.419" gradientTransform="matrix(1.10561 0 0 1.10561 23.289 -1533.374)" gradientUnits="userSpaceOnUse"><stop offset="0" style="stop-color:#000"/><stop offset=".11" style="stop-color:#181c4e"/><stop offset=".22" style="stop-color:#181818"/><stop offset=".34" style="stop-color:#181c4e"/><stop offset=".47" style="stop-color:#000"/><stop offset=".59" style="stop-color:#181c4e"/><stop offset=".72" style="stop-color:#000"/><stop offset=".84" style="stop-color:#181c4e"/><stop offset=".98" style="stop-color:#000"/></linearGradient><linearGradient id="h" x1="141.228" x2="190.761" y1="1450.637" y2="1500.169" gradientTransform="matrix(1.10561 0 0 1.10561 23.289 -1533.374)" gradientUnits="userSpaceOnUse"><stop offset="0" style="stop-color:#d9dde9"/><stop offset=".39" style="stop-color:#777489"/><stop offset=".98" style="stop-color:#d9dde9"/></linearGradient><linearGradient id="i" x1="142.081" x2="190.206" y1="1451.468" y2="1499.594" gradientTransform="matrix(1.10561 0 0 1.10561 23.289 -1533.374)" gradientUnits="userSpaceOnUse"><stop offset="0" style="stop-color:#000"/><stop offset=".11" style="stop-color:#181c4e"/><stop offset=".22" style="stop-color:#181818"/><stop offset=".34" style="stop-color:#181c4e"/><stop offset=".47" style="stop-color:#000"/><stop offset=".59" style="stop-color:#181c4e"/><stop offset=".72" style="stop-color:#000"/><stop offset=".84" style="stop-color:#181c4e"/><stop offset=".98" style="stop-color:#000"/></linearGradient><linearGradient id="j" x1="64.992" x2="113.868" y1="1454.767" y2="1503.642" gradientTransform="matrix(1.10561 0 0 1.10561 23.289 -1533.374)" gradientUnits="userSpaceOnUse"><stop offset="0" style="stop-color:#d9dde9"/><stop offset=".39" style="stop-color:#777489"/><stop offset=".98" style="stop-color:#d9dde9"/></linearGradient><linearGradient id="k" x1="65.687" x2="113.198" y1="1455.464" y2="1502.976" gradientTransform="matrix(1.10561 0 0 1.10561 23.289 -1533.374)" gradientUnits="userSpaceOnUse"><stop offset="0" style="stop-color:#000"/><stop offset=".11" style="stop-color:#181c4e"/><stop offset=".22" style="stop-color:#181818"/><stop offset=".34" style="stop-color:#181c4e"/><stop offset=".47" style="stop-color:#000"/><stop offset=".59" style="stop-color:#181c4e"/><stop offset=".72" style="stop-color:#000"/><stop offset=".84" style="stop-color:#181c4e"/><stop offset=".98" style="stop-color:#000"/></linearGradient><linearGradient id="l" x1="350.523" x2="422.816" y1="-651.4" y2="-651.4" gradientTransform="matrix(1.10561 0 0 -1.10561 50.332 -617.446)" gradientUnits="userSpaceOnUse"><stop offset="0" style="stop-color:#d9dde9"/><stop offset=".39" style="stop-color:#777489"/><stop offset=".98" style="stop-color:#d9dde9"/></linearGradient><linearGradient id="m" x1="381.426" x2="430.443" y1="1450.132" y2="1499.149" gradientTransform="matrix(1.10561 0 0 1.10561 23.289 -1533.374)" gradientUnits="userSpaceOnUse"><stop offset="0" style="stop-color:#000"/><stop offset=".11" style="stop-color:#181c4e"/><stop offset=".22" style="stop-color:#181818"/><stop offset=".34" style="stop-color:#181c4e"/><stop offset=".47" style="stop-color:#000"/><stop offset=".59" style="stop-color:#181c4e"/><stop offset=".72" style="stop-color:#000"/><stop offset=".84" style="stop-color:#181c4e"/><stop offset=".98" style="stop-color:#000"/></linearGradient><linearGradient id="n" x1="491.636" x2="542.546" y1="1448.985" y2="1499.895" gradientTransform="matrix(1.10561 0 0 1.10561 23.289 -1533.374)" gradientUnits="userSpaceOnUse"><stop offset="0" style="stop-color:#d9dde9"/><stop offset=".39" style="stop-color:#777489"/><stop offset=".98" style="stop-color:#d9dde9"/></linearGradient><linearGradient id="o" x1="492.782" x2="541.799" y1="1450.132" y2="1499.149" gradientTransform="matrix(1.10561 0 0 1.10561 23.289 -1533.374)" gradientUnits="userSpaceOnUse"><stop offset="0" style="stop-color:#000"/><stop offset=".11" style="stop-color:#181c4e"/><stop offset=".22" style="stop-color:#181818"/><stop offset=".34" style="stop-color:#181c4e"/><stop offset=".47" style="stop-color:#000"/><stop offset=".59" style="stop-color:#181c4e"/><stop offset=".72" style="stop-color:#000"/><stop offset=".84" style="stop-color:#181c4e"/><stop offset=".98" style="stop-color:#000"/></linearGradient></defs><g fill="#fff" style="fill:#fff"><path d="M648.98 155.34c5.54 3.77 8.22 8.61 8.25 15.38q.04 13.3.02 26.6c-.03 13.12-7.91 18.89-20.5 18.11q-.49-.03-.18.35c4.34 5.21 6.17 11.63 7.38 18.2 4.31 23.52-12.44 43.98-34.29 49.48q-5.61 1.41-15.83 1.47-24.69.15-49.39.05-.43 0-5.33-.56c-2.77-.31-5.38.56-7.81.57-11.15.05-24.57 1.01-34.24-1.56q-9.71-2.58-17.87-8.9a.37.37 0 0 0-.57.16c-2.7 6.94-9.18 10.26-16.37 10.28-12.27.04-24.89.62-37.1-.51-3.04-.28-6.19.54-8.87.54q-20.77-.01-41.53.01-5.42.01-17.94-3.6-12.23-3.53-22.86-12.82-.48-.42-.27.19l.1.31q.08.24.06.5-.89 10.17-8.71 13.67-3.65 1.63-13.12 1.7-15.5.11-31.01.02-1.25-.01-4.89-.99c-5.76-1.55-9.63-5.17-10.95-11.16a.75.74-6.3 0 0-.73-.58h-4.86a.74.74 0 0 0-.72.58c-1.71 7.67-8.6 12.13-16.37 12.15-12.74.02-26.75 1.04-39.32-.56-2.78-.35-5.44.56-7.89.57q-25.41.11-32.52-.05c-21.27-.48-17.1-23.59-16.99-37.23a.53.53 0 0 0-.82-.45l-.54.35a.89.89 0 0 0-.4.76c.08 12.76 2.74 29.64-8.66 34.79q-3.82 1.73-14.02 1.82-11.37.09-22.73 0c-18.06-.15-22.52-4.88-22.56-22.49q-.13-66.72 0-91.99.04-7.58 5.61-12.96a.38.38 0 0 0-.08-.6q-15.36-8.65-30.77-17.29c-9.62-5.39-13.62-7.38-13.72-18.43q-.18-19.23-.09-38.47.04-9.2 7.93-13.6 18.61-10.36 37.16-20.82c3.58-2.03 7.5-2.59 12.02-2.59q95.92.03 191.84-.01a.87.86 15 0 0 .75-.43q8.45-14.74 17.14-29.22c2.58-4.29 7.9-6.84 12.45-6.84q48.19.02 96.37 0c4.33 0 9.57 3.11 11.79 6.83q8.87 14.89 17.52 29.91a.11.1-38.1 0 0 .17.02l.19-.19a.2.12-58.3 0 1 .12-.06H636.5c3.36 0 7.54 1.85 10.96 3.76q17.7 9.93 35.36 19.91 7.09 4.01 7.13 12.08.1 21.12.07 42.24-.01 8.13-6.89 12.08-16.48 9.48-33.09 18.7-.48.27-1 .42-.45.14-.06.4m-214-97.82-20.79-35.59a.87.86-15 0 0-.75-.43h-98.66a.9.89-74.7 0 0-.77.44l-20.57 35.31a1 1 0 0 1-.86.49q-100.24.03-200.42-.01-2.12 0-3.99 1.02Q68.9 69.22 49.76 80.17a1.01 1-15 0 0-.51.87v43.63a.83.83 0 0 0 .42.72q19.02 10.69 38.12 21.37 1.77.99 3.81.99h544.03q2.07 0 3.87-.99 19.24-10.59 38.32-21.54a.85.84 75.7 0 0 .43-.74V81.43a1.61 1.61 0 0 0-.83-1.41l-39.21-22.01a2.1 2.07-30.2 0 0-1.01-.26H435.38a.46.45-14.4 0 1-.4-.23M129.49 206a.49.49 0 0 1-.49-.49v-36.27a.49.49 0 0 0-.49-.49H91.49a.49.49 0 0 0-.49.49v100.27a.49.49 0 0 0 .49.49h37.02a.49.49 0 0 0 .49-.49v-36.52a.49.49 0 0 1 .49-.49h30.77a.49.49 0 0 1 .49.49v36.52a.49.49 0 0 0 .49.49h37.02a.49.49 0 0 0 .49-.49V169.24a.49.49 0 0 0-.49-.49h-37.02a.49.49 0 0 0-.49.49v36.27a.49.49 0 0 1-.49.49zm146.48 51.25a.44.44 0 0 1 .42.33l3.09 12.09a.44.44 0 0 0 .42.33h38.63a.44.44 0 0 0 .43-.55l-26.35-100.37a.44.44 0 0 0-.43-.33h-60.36a.44.44 0 0 0-.43.33l-26.37 100.37a.44.44 0 0 0 .43.55h38.65a.44.44 0 0 0 .43-.33l3.11-12.09a.44.44 0 0 1 .43-.33zm52.35-55.07c-13.08 33.49 14.99 67.28 48.69 67.81q10.51.16 42.97-.07a.52.52 0 0 0 .52-.52v-30.78a.38.38 0 0 0-.38-.38q-19.6.04-39.12.05c-28.04.01-27.85-37.76-.24-37.78q19.59 0 39.23-.03a.51.51 0 0 0 .51-.51v-30.72a.51.51 0 0 0-.51-.51q-18.77.03-37.57 0-10.1-.02-15.77 1.29c-16.93 3.91-31.99 15.94-38.33 32.15m136.82 38.2q9.52 9.36 18.96 18.76c7.45 7.42 15.64 10.88 26.32 10.89q11.73.01 23.58-.14a.5.5 0 0 0 .5-.5v-30.53a.5.5 0 0 0-.5-.5c-3.91-.03-18.71.74-21.19-1.7q-7.38-7.28-14.77-14.81a.67.67 0 0 1-.07-.86l36.23-51.81a.27.27 0 0 0-.22-.43h-45.67a1 .98-71.6 0 0-.8.41l-22.45 31.88a.17.17 0 0 1-.31-.1v-31.69a.5.5 0 0 0-.5-.5H427a.5.5 0 0 0-.5.5V269.5a.5.5 0 0 0 .5.5h37.25a.5.5 0 0 0 .5-.5v-28.95q0-.55.39-.17m110.83-70.26c-16.32 5.25-25.86 21.8-21.35 38.69 3.12 11.65 16.45 18.56 25.56 25.28 2.17 1.6.1 4.2-2.2 4.19q-18.27-.12-36.71.06a.52.52 0 0 0-.52.52v30.77a.37.37 0 0 0 .37.37q26.55.01 53.05-.01c11.55 0 20.16-2.24 27.86-10.22 11.49-11.91 10.04-31.35-3.35-41.46q-9.21-6.96-18.54-13.8a1.24 1.23 13.6 0 1-.49-.8c-.42-2.64 1.65-3.2 3.89-3.2q19.08 0 38.21-.04a.5.5 0 0 0 .5-.5v-30.68a.51.51 0 0 0-.51-.51q-26.97-.06-53.93-.02-7.66.02-11.84 1.36" style="fill:#fff"/><path d="M261.78 204.01q.2-.77.41 0l7.24 27.23a.41.4-7.5 0 1-.4.51h-14.06a.41.41 0 0 1-.4-.52z" style="fill:#fff"/></g><path d="m639.648 56.78-.253-.147H435.426l-21.03-36.177H313.842l-21.037 36.177H88.001L49.188 78.617v48.265l38.563 21.846.252.14h551.39l38.53-21.826.28-.16V78.619Z" style="stroke-width:1.10562"/><path fill="#ced1dd" d="M50.293 79.262v46.976l38 21.524H639.1l38-21.524V79.264l-38-21.526H434.79l-21.032-36.176h-99.28l-21.034 36.176H88.293Z" style="stroke-width:1.10562"/><path fill="url(#a)" d="m431.425 62.786-21.032-36.178h-92.827L296.53 62.787H90.954L55.34 82.769v39.966l35.614 19.98h546.047l35.613-19.98V82.769L637 62.789Z" style="fill:url(#a);stroke-width:1.10562"/><path fill="#202066" d="m392.437 36.454-7.884 24.02h3.892l7.901-23.195c.288-1.06 1.153-1.834 2.17-1.834 1.03 0 1.894.774 2.183 1.834l6.679 19.62h-10.48v3.574h15.595l-7.886-24.02a6.333 6.333 0 0 0-12.17 0m4.619 14.916 1.38-4.097 1.438 4.097zm-.572-11.761-7.061 20.865h4.552l2.922-8.648v4.087h9.17l-5.445-16.304c-.277-.908-1.102-3.518-2.071-3.518-.974 0-1.8 2.61-2.067 3.518m-24.93-3.19h13.648v-3.903h-13.974c-3.768 0-6.824 3.064-6.824 6.833v14.302a6.824 6.824 0 0 0 6.824 6.824h13.974v-18.21h-11.048v3.576h7.144v10.727h-9.744a3.243 3.243 0 0 1-3.246-3.248V39.665a3.243 3.243 0 0 1 3.246-3.246m2.6 10.4v3.904h2.271v.975h-2.272a.977.977 0 0 1-.976-.975v-8.456c0-.537.438-.976.976-.976H385.2v-3.897H372.53a3.253 3.253 0 0 0-3.256 3.249v11.703a3.253 3.253 0 0 0 3.256 3.248h7.8v-8.776Zm-25.022-10.4h13.648v-3.903h-13.976c-3.768 0-6.822 3.064-6.822 6.833v14.143c0 3.768 3.054 6.832 6.822 6.832h13.976V56.42h-13.648a3.25 3.25 0 0 1-3.248-3.248V39.668a3.25 3.25 0 0 1 3.248-3.249m10.719 9.423v-3.575h-9.096c0-.537.437-.976.976-.976h11.048v-3.897h-12.672a3.25 3.25 0 0 0-3.246 3.249v5.2zm0 1.304v3.575h-9.096c0 .537.437.976.976.976h11.048v3.894h-12.672a3.246 3.246 0 0 1-3.246-3.249v-5.2zm-33.393 4.872h-8.195v3.575h12.67a4.39 4.39 0 0 0-.16-8.777h-4.93c-1.994-.758-3.687-2.735-3.687-5.04 0-2.962 2.728-5.36 5.688-5.36h12.192v-3.9h-12.68c-5.02 0-9.094 4.079-9.094 9.102 0 5.03 4.4 9.103 9.421 9.103v-.042l.025.042h2.903a.648.648 0 0 1 0 1.296zm5.376-11.048h8.203v-3.576h-12.679a4.387 4.387 0 0 0-4.221 4.385 4.39 4.39 0 0 0 4.392 4.393h4.93c1.994.765 3.678 2.734 3.678 5.04 0 2.962-2.726 5.36-5.69 5.36h-12.182v3.903h12.67a9.103 9.103 0 0 0 9.103-9.101c0-5.023-4.399-9.104-9.423-9.104v.051l-.032-.05h-2.895a.648.648 0 0 1 0-1.296z" style="stroke-width:1.10562"/><path fill="url(#b)" d="M338.493 74.005v57.683h-19.424v-21.309l-37.228-21.185v42.494h-19.425V74.005h20.234l36.42 20.719v-20.72Z" style="fill:url(#b);stroke-width:1.10562"/><path fill="url(#c)" d="M337.42 74.804v55.826h-18.876v-20.624l-36.179-20.504v41.128h-18.876V74.804h19.662l35.393 20.05v-20.05Z" style="fill:url(#c);stroke-width:1.10562"/><path fill="url(#d)" d="M529.302 73.724h20.19v58.055h-20.19Z" style="fill:url(#d);stroke-width:1.10562"/><path fill="url(#e)" d="M529.816 74.804h19.162v55.899h-19.162z" style="fill:url(#e);stroke-width:1.10562"/><path fill="url(#f)" d="M405.108 85.334h-33.173v11.611h39.807l-19.074 11.611h-20.733v11.611h53.906l-19.074 11.612h-54.735V86.994l19.903-13.27h52.247z" style="fill:url(#f);stroke-width:1.10562"/><path fill="url(#g)" d="M404.508 85.982h-31.941v11.18h38.329l-18.366 11.18h-19.963v11.177h51.903l-18.363 11.183H353.4V87.58l19.166-12.776h50.307z" style="fill:url(#g);stroke-width:1.10562"/><path fill="url(#h)" d="M228.738 85.553h-32.987v11.541h39.585l-18.968 11.548H195.75v11.545h53.605l-18.97 11.546h-54.429V87.2l19.794-13.195h51.955z" style="fill:url(#h);stroke-width:1.10562"/><path fill="url(#i)" d="M228.28 86.04h-32.05v11.221h38.46l-18.43 11.219h-20.03v11.216h52.083l-18.428 11.217h-52.887v-43.27l19.232-12.82h50.48z" style="fill:url(#i);stroke-width:1.10562"/><path fill="url(#j)" d="m82.977 87.205 19.8-13.2h60.225l-18.976 11.552h-41.25v34.647h37.125v-14.025h-23.1l18.975-11.548h23.927v23.923L139.9 131.755H82.977Z" style="fill:url(#j);stroke-width:1.10562"/><path fill="url(#k)" d="m84.084 87.634 19.247-12.83h58.543l-18.446 11.227H103.33v33.683h36.087V106.08h-22.454l18.445-11.227h23.258v23.257l-19.25 12.83H84.085Z" style="fill:url(#k);stroke-width:1.10562"/><path fill="#c2c4d2" d="m516.961 120-19.35 11.779h-59.736l19.35-11.78h37.861v-11.777h-57.21V85.505l19.35-11.781h60.577l-19.35 11.781h-39.545V96.44h58.053Z" style="stroke-width:1.10562"/><path fill="url(#l)" d="M495.086 120v-11.778h-57.21V85.505l19.35-11.781h60.577l-19.35 11.781h-39.545V96.44h58.053V120l-19.35 11.779h-59.736l19.35-11.78z" style="fill:url(#l);stroke-width:1.10562"/><path fill="url(#m)" d="M494.445 119.358v-11.34h-55.084V86.145l18.63-11.34h58.327l-18.631 11.34h-38.075v10.531h55.896v22.683l-18.632 11.344h-57.515l18.63-11.344z" style="fill:url(#m);stroke-width:1.10562"/><path fill="#c2c4d2" d="m640.08 120-19.35 11.779h-59.738l19.352-11.78h37.861v-11.777h-57.213V85.505l19.352-11.781h60.576l-19.35 11.781h-39.544V96.44h58.054z" style="stroke-width:1.10562"/><path fill="url(#n)" d="M618.205 120v-11.778h-57.213V85.505l19.352-11.781h60.576l-19.35 11.781h-39.544V96.44h58.054V120l-19.35 11.779h-59.738l19.352-11.78z" style="fill:url(#n);stroke-width:1.10562"/><path fill="url(#o)" d="M617.564 119.358v-11.34h-55.087V86.145l18.634-11.34h58.326l-18.634 11.34H582.73v10.531h55.895v22.683l-18.633 11.344h-57.516l18.634-11.344z" style="fill:url(#o);stroke-width:1.10562"/><g fill="#0b0e25"><path d="M129.49 206h30.77a.49.49 0 0 0 .49-.49v-36.27a.49.49 0 0 1 .49-.49h37.02a.49.49 0 0 1 .49.49v100.27a.49.49 0 0 1-.49.49h-37.02a.49.49 0 0 1-.49-.49v-36.52a.49.49 0 0 0-.49-.49h-30.77a.49.49 0 0 0-.49.49v36.52a.49.49 0 0 1-.49.49H91.49a.49.49 0 0 1-.49-.49V169.24a.49.49 0 0 1 .49-.49h37.02a.49.49 0 0 1 .49.49v36.27a.49.49 0 0 0 .49.49M275.97 257.25h-27.9a.44.44 0 0 0-.43.33l-3.11 12.09a.44.44 0 0 1-.43.33h-38.65a.44.44 0 0 1-.43-.55l26.37-100.37a.44.44 0 0 1 .43-.33h60.36a.44.44 0 0 1 .43.33l26.35 100.37a.44.44 0 0 1-.43.55H279.9a.44.44 0 0 1-.42-.33l-3.09-12.09a.44.44 0 0 0-.42-.33m-14.19-53.24-7.21 27.22a.41.41 0 0 0 .4.52h14.06a.41.4-7.5 0 0 .4-.51l-7.24-27.23q-.21-.77-.41 0M377.01 269.99c-33.7-.53-61.77-34.32-48.69-67.81 6.34-16.21 21.4-28.24 38.33-32.15q5.67-1.31 15.77-1.29 18.8.03 37.57 0a.51.51 0 0 1 .51.51v30.72a.51.51 0 0 1-.51.51q-19.64.03-39.23.03c-27.61.02-27.8 37.79.24 37.78q19.52-.01 39.12-.05a.38.38 0 0 1 .38.38v30.78a.52.52 0 0 1-.52.52q-32.46.23-42.97.07M464.75 240.55v28.95a.5.5 0 0 1-.5.5H427a.5.5 0 0 1-.5-.5V169.25a.5.5 0 0 1 .5-.5h37.25a.5.5 0 0 1 .5.5v31.69a.17.17 0 0 0 .31.1l22.45-31.88a1 .98-71.6 0 1 .8-.41h45.67a.27.27 0 0 1 .22.43l-36.23 51.81a.67.67 0 0 0 .07.86q7.39 7.53 14.77 14.81c2.48 2.44 17.28 1.67 21.19 1.7a.5.5 0 0 1 .5.5v30.53a.5.5 0 0 1-.5.5q-11.85.15-23.58.14c-10.68-.01-18.87-3.47-26.32-10.89q-9.44-9.4-18.96-18.76-.39-.38-.39.17M554.62 208.81c-4.51-16.89 5.03-33.44 21.35-38.69q4.18-1.34 11.84-1.36 26.96-.04 53.93.02a.51.51 0 0 1 .51.51v30.68a.5.5 0 0 1-.5.5q-19.13.04-38.21.04c-2.24 0-4.31.56-3.89 3.2a1.24 1.23 13.6 0 0 .49.8q9.33 6.84 18.54 13.8c13.39 10.11 14.84 29.55 3.35 41.46-7.7 7.98-16.31 10.22-27.86 10.22q-26.5.02-53.05.01a.37.37 0 0 1-.37-.37v-30.77a.52.52 0 0 1 .52-.52q18.44-.18 36.71-.06c2.3.01 4.37-2.59 2.2-4.19-9.11-6.72-22.44-13.63-25.56-25.28"/></g></svg>