<svg xmlns="http://www.w3.org/2000/svg" viewBox="0 0 754 325"><g fill="none" stroke="#8080ff" stroke-width="2"><path d="M421.25 49v27.24a.5.5 0 0 1-.49.5q-10.16.05-20.32-.03c-7.75-.06-12.41-1.9-12.56-10.47q-.24-13.55-.13-27.12c.09-10.81 1.15-15.04 13.42-15.09q14.54-.06 29.13-.04a.49.49 0 0 0 .49-.5l-.06-8.46a.51.5 0 0 0-.51-.5q-15.83-.08-31.66 0c-10.85.05-15.82 3.64-19.26 13.86q-1.03 3.07-1.04 7.39l-.02 30c0 10.96 8.28 20.51 19.5 20.5q13.7-.01 26.95-.03a.66.66 0 0 1 .47 1.12q-5.23 5.43-11.5 9.61a1.42 1.38-9.4 0 0-.58.79c-5.01 17.48-7.48 36.64-10.36 54.67a1.57 1.56-85.6 0 0 1.54 1.81h50.97a.62.61 9.3 0 0 .58-.41c4.39-13.16 6.32-28.52 8.49-42.28a1.18 1.17-85.1 0 0-1.14-1.36l-14.97-.28a1.57 1.57 0 0 0-1.04.37l-17.48 14.2a.79.78 48.3 0 0-.06 1.16c.78.78 10.56.28 12.21.19a.5.49 2.4 0 1 .52.56l-1.6 11.04a.66.65 4 0 1-.65.56h-15.27a.61.61 0 0 1-.6-.69q2.55-19.07 6.7-37.84a.61.61 0 0 1 .6-.49l32.48-.15a.67.67 0 0 0 .54-1.07q-4.3-5.98-8.78-12.12c-1.67-2.28 4.17-18.81 5.09-18.67a.57.57 0 0 1 .48.47l.93 5.43a.78.78 0 0 0 .77.65l20.06-.05a1.12 1.11 81.1 0 0 1.06-1.46q-7.65-23.46-16.38-46.53a1.31 1.27 2.1 0 0-.69-.72c-3.88-1.74-7 9.44-7.88 11.97q-7.99 22.88-15.18 46.03a.89.89 0 0 1-.82.62l-1.51.04a.56.55-82.8 0 1-.55-.72q5.96-20.21 13.24-39.99c1.82-4.96 4.29-17.47 8.29-20 4.69-2.97 7.15-.33 8.74 4.08q8.74 24.33 17.05 48.9a.8.8 0 0 1-.75 1.06l-24.25.01a1.87 1.86-88 0 0-1.86 1.74c-.16 2.21-1.25 7.75 2.4 7.75q13.07 0 25.46.01a.86.85-66.1 0 1 .57 1.49l-10.92 9.96a1.77 1.67-16 0 0-.51.86c-4.46 17.95-6.78 37.01-9.46 55.3a.34.34 0 0 0 .34.38h46.46a.68.68 0 0 0 .65-.48q2.18-7.14 3.16-14.54a.7.7 0 0 0-.43-.73q-1.39-.56-3.57-.51-6.4.15-25.39-.07a.62.62 0 0 1-.62-.69l1.24-10.64a.61.6 3.3 0 1 .59-.52l28.91-.35a1.49 1.49 0 0 0 1.42-1.12q1.76-6.84 2.17-13.91a.61.61 0 0 0-.61-.65l-28.24-.05a1.09 1.09 0 0 1-1.07-1.27l1.6-9.6a.44.43 4.7 0 1 .43-.36l29.13.03a.71.71 0 0 0 .67-.47q2.33-6.4 2.83-13.24a1.47 1.47 0 0 0-1.47-1.58h-26.22a.64.64 0 0 1-.62-.47q-5.21-17.89-11.68-35.35c-3.49-9.47-6.4-30.12-17.33-33.42-16.86-5.08-22.08 9.83-25.59 21.71q-6.17 20.87-13.76 41.27a.76.75-83.3 0 1-.6.48l-.26.03a.47.47 0 0 1-.53-.47V39.25a.5.5 0 0 0-.5-.5h-26.16a1.38 1.38 0 0 0-1.38 1.33l-.29 7.74a.66.65-89.1 0 0 .65.68h17.68a.5.5 0 0 1 .5.5M292.24 63.4q-.83.51-1.75.51-15.32.03-30.72.15a.63.63 0 0 0-.62.51q-.87 4.17-.02 8.34a.67.67 0 0 0 .66.54q14.9.08 29.82.05c6.59-.01 9.36-1.59 11.54-7.62q2.05-5.65-1.45-9.33c-6.97-7.33-17.12-3.3-25.38-7.62-7.38-3.86-6.87-12.95-3-19.62 2.73-4.69 7.75-5.3 13.37-5.3q14.18-.01 28.55-.03a1.52 1.51-.2 0 0 1.52-1.52l-.01-6.48a1.45 1.45 0 0 0-1.45-1.45q-17.09-.07-34.05.08-10.09.09-14.68 7.46c-2.89 4.63-6.68 13.79-5.12 19.23 2.73 9.46 7.02 17.55 17.54 19.45.28.05 13.99-.43 15.47 1.33a.88.88 0 0 1-.22 1.32M373.5 82.94v-4.88a1.3 1.29 90 0 0-1.29-1.3h-32.46c-6.99 0-10.55-5.86-10.71-11.75q-.26-9.71.1-29.8c.12-6.78 4.17-11.29 10.95-11.25q15.96.1 31.9.02a1.5 1.5 0 0 0 1.49-1.5l.03-6.64a1.31 1.31 0 0 0-1.31-1.32q-15.85-.07-31.6.01-5.75.03-8.01.64c-16.14 4.32-13.25 31.31-13.07 45.99.16 12.68 4.85 24.9 19.58 24.81a.89.89 0 0 1 .6 1.55l-11.15 10.16a1.51 1.48-15.4 0 0-.47.81q-5.68 27.06-10.18 54.36a1.2 1.2 0 0 0 1.18 1.39l45.9.01a.8.79 13.3 0 0 .71-.43c2.09-4.03 2.81-9.91 3.47-14.55a.68.68 0 0 0-.39-.71q-1.28-.56-3.02-.56-13.16.01-25.93-.01a1 .99-85.3 0 1-.98-1.16l1.71-10.46a.55.55 0 0 1 .54-.45l28.25.12q1.95.01 2.27-1.91l1.93-11.64q.41-2.44-2.06-2.44l-27.02-.07a1.01 1.01 0 0 1-.97-1.27q1.23-4.61 1.31-9.36a.41.41 0 0 1 .41-.4l29.31-.16a.73.73 0 0 0 .69-.49q2.31-6.78 3.21-13.88a.6.6 0 0 0-.55-.67l-3.93-.33a.48.48 0 0 1-.44-.48" vector-effect="non-scaling-stroke"/><path d="M341.98 38.21q-.2-1.7 1.6-1.7 14.55.01 29.24-.06a.64.64 0 0 0 .64-.64l-.01-8.56q0-1.83-1.54-.83-.97.64-1.92.1-.48-.28-1.03-.28-13.13-.01-26.25.04c-13.85.04-10.92 12.64-10.59 21.63a.61.61 0 0 0 .61.59h33.52a.5.5 0 0 0 .5-.5v-8.3a.81.8.7 0 0-.8-.81l-23.43-.2a.54.54 0 0 1-.54-.48M401.85 63.84a1.66 1.65 5.5 0 1-1.34-1.62L400.5 37a.5.5 0 0 1 .5-.5h29.51a.32.31 90 0 0 .31-.32l-.1-9.4a.49.49 0 0 0-.49-.49q-14.28-.13-28.55.02c-5.68.06-10.73.92-10.9 7.43q-.19 6.85.12 33.2.07 6.61 6.59 6.61 10.41-.01 20.87-.07a.6.59-.5 0 0 .59-.59l.01-20.24a1.38 1.38 0 0 0-1.38-1.38l-13.57-.03a.85.83-79.2 0 0-.78.54q-1.55 4.06-.23 8.21a.96.95 87.2 0 0 .69.63l4.81 1.08a.91.9 84.9 0 1 .65.55c1.05 2.54-6.48 1.74-7.3 1.59M282.28 98.8l12.12-.03a.54.54 0 0 1 .54.62l-8.34 54.39a.41.41 0 0 0 .41.47h17.29a.66.65-84 0 0 .64-.52q6.9-34.1 12.01-68.51a1.49 1.49 0 0 0-1.47-1.71l-11.16-.02a.5.5 0 0 1-.32-.89c8.03-6.51 12.52-15.43 9.89-25.88-3.6-14.34-18.98-18.86-32.14-17.88a.57.57 0 0 1-.61-.55l-.06-1.22a.55.54 89 0 1 .54-.57l32.1-.01a1.02 1.02 0 0 0 1.02-1.02l.02-6.87a1.58 1.58 0 0 0-1.57-1.59q-15.9-.04-31.72.01c-11.15.04-14.09 16.7-2.99 20.5 10.32 3.54 29.03-1.15 26.19 17.46-1.21 7.94-8.81 11.49-16.19 11.57q-14.35.15-28.84.25a.66.65-88.1 0 0-.65.62l-.33 5.63a.48.47-88 0 1-.47.45h-9.23a1.48 1.43 24.5 0 0-.93.33l-16.96 13.65a1.5 1.49-14.3 0 0-.54.9l-9.62 54.91a.6.6 0 0 0 .56.71q9.32.55 18.64.08a.64.63-87.8 0 0 .59-.55c3.04-22.39 5.46-40 9.45-54a.65.64-82.6 0 1 .6-.47l11.67-.29a.56.56 0 0 1 .57.65l-9.28 53.81a.86.85-84.9 0 0 .84 1.01l16.35.02a.72.71-80.1 0 0 .67-.48q2.41-7.03 3.96-16.02 4.22-24.55 6.22-38.49a.55.54 3 0 1 .53-.47M332.19 52.67c-.39 6.15-2.74 20.71 7.14 20.78q16.67.11 33.4.03a.78.77-.4 0 0 .77-.77l-.02-7.6a1.11 1.11 0 0 0-1.11-1.11q-14.21.01-28.35-.01c-1.63 0-2.7-.79-2.36-2.49a.59.59 0 0 1 .58-.48l23.04-.06a1.47 1.47 0 0 0 1.46-1.47l.02-6.61a1.62 1.62 0 0 0-1.62-1.63h-31.43a1.52 1.52 0 0 0-1.52 1.42M112.17 137.46l6.44-37.95a.67.66 4.1 0 1 .65-.55l32.98-.28a.61.61 0 0 0 .48-.97l-10.33-13.72a1.11 1.1-18.1 0 0-.89-.45q-10.19-.08-20.38-.02c-4.52.02-14.45 9.43-18.02 12.55-3.15 2.76-3.59 7.77-4.4 11.92q-4.46 22.79-7.92 44.75a1.3 1.3 0 0 0 1.28 1.5l51.64.02a.88.87-83.8 0 0 .85-.69q4.4-20.82 7.5-41.88a1.22 1.22 0 0 0-1.18-1.4l-15.06-.37a1.52 1.52 0 0 0-1.02.37l-16.86 14.81a.52.52 0 0 0 .35.91l12.32-.06a.32.32 0 0 1 .31.39l-2.45 11.09a.73.73 0 0 1-.71.57l-15.14-.02a.45.44 4.9 0 1-.44-.52M199.85 99.47q-.54 5.15-2.33 9.99a.83.82-79.7 0 1-.77.54h-16.41a1.43 1.34-62.2 0 0-.84.29q-6.04 4.69-11.64 9.93c-2.33 2.18-5.7 3.31-6.95 7.29q-3.74 11.97-4.67 26.17a.54.53-88.5 0 0 .53.57h51.43a.66.65 8.3 0 0 .63-.46q.45-1.39.73-2.83 6.6-32.61 11.69-65.68a1.55 1.55 0 0 0-1.53-1.78h-35.67a1.41 1.39 23.3 0 0-.95.37l-15.01 13.94a.59.59 0 0 0 .4 1.03l30.86.08a.5.5 0 0 1 .5.55M570.93 99.51l-1.67 9.95a.71.71 0 0 1-.71.59l-17-.08a1.37 1.34-64.6 0 0-.87.32c-4.03 3.44-8.96 8.77-13.62 11.07-6.85 3.37-8.99 24.22-9.89 31.62a1.13 1.12 3.6 0 0 1.12 1.26l51.7.01a.62.62 0 0 0 .61-.51l12.26-68.53a1.45 1.45 0 0 0-1.42-1.71h-35.91a1.4 1.39-65.1 0 0-.9.33q-8.15 6.89-15.59 14.57a.31.31 0 0 0 .22.52l31.01-.19a.67.66-85.6 0 1 .66.78M631.37 126.35l-4.73 26.34a1.28 1.27-84.9 0 0 1.25 1.51l15.29.07a1.34 1.33 7.4 0 0 1.31-1q3.1-11.69 4.73-23.68a1.21 1.17-60.5 0 0-.23-.89l-6.98-9.12a.98.98 0 0 1 .06-1.26q3.51-3.8 7.96-6.56c4.15-2.57 5.68-21.44 6.11-26.53a1.6 1.6 0 0 0-1.6-1.73h-34.62a1.36 1.36 0 0 0-.92.36q-6.81 6.21-14.28 11.59a1.81 1.78-6.5 0 0-.63.78c-.89 2.08-1.84 4.34-2.35 6.58q-5.6 24.5-8.76 50.04a1.24 1.24 0 0 0 1.24 1.4l14.98-.03a1.78 1.77 3.9 0 0 1.76-1.53q1.8-13.27 4.98-26.23a.62.61-82.6 0 1 .59-.46l14.5-.05a.34.34 0 0 1 .34.4M476.5 219.22V181.5a.5.5 0 0 0-.5-.5h-31.75a.5.5 0 0 0-.5.5v95.59a.3.29 19.3 0 1-.48.23l-23.53-19.09a.39.38 38.3 0 0-.55.06c-16.39 20.84-47.74 14.42-53.25-11.94-5.67-27.15 24.41-46.45 47.13-30.43a.72.7 41.6 0 0 .87-.04l23.68-20.81a.56.56 0 0 0 0-.84q-9.11-7.86-20.1-12.25c-35.42-14.12-74.69 7.34-83.45 43.59-9.05 37.43 18.27 75.16 57.11 77.09q30.63 1.53 52.02-22.11.55-.61.55.22v17.73a.5.5 0 0 0 .5.5H476a.5.5 0 0 0 .5-.5v-38.02a.25.25 0 0 1 .45-.16l31.23 38.28a1.1 1.1 0 0 0 .85.4h37.7a.27.27 0 0 0 .21-.43l-46.02-61.27a.72.71-43.2 0 1 .03-.88l47.5-54.97a.27.27 0 0 0-.2-.45h-39.19a1.07 1.06-70.1 0 0-.82.39l-31.08 38.06q-.66.82-.66-.23M611.41 256.21c5.53 1 19.66 5.15 13.96 14.31-1.99 3.2-6.32 4.4-9.94 4.65-16.51 1.15-28.05-3.27-42.63-9.93a.61.61 0 0 0-.78.24l-14.32 24.05a.82.8-49.2 0 0 .06.91c1.11 1.44 2.84 1.68 4.09 2.25q29.41 13.47 61.17 8.53c23.96-3.74 39.76-17.96 36.05-44.12-3.78-26.67-37.03-29.66-57.52-35.04-5.05-1.33-10.52-3.02-10.08-8.71.95-12.56 26.01-7.17 32.27-5.06q8.48 2.85 16.35 6.64a.68.68 0 0 0 .88-.27l14.14-24.46a.5.5 0 0 0-.17-.68c-19.08-11.71-42.91-14.34-64.63-9.7-18.12 3.88-31.77 17.78-31.82 36.85-.04 13.93 6.58 25.53 19.79 30.58q14.64 5.6 33.13 8.96M114.5 254.91a.41.41 0 0 1 .41-.41h40.93a.41.41 0 0 1 .41.41v43.93a.41.41 0 0 0 .41.41h32.18a.41.41 0 0 0 .41-.41V181.41a.41.41 0 0 0-.41-.41h-32.18a.41.41 0 0 0-.41.41v44.18a.41.41 0 0 1-.41.41h-40.93a.41.41 0 0 1-.41-.41v-44.18a.41.41 0 0 0-.41-.41H82.16a.41.41 0 0 0-.41.41v117.43a.41.41 0 0 0 .41.41h31.93a.41.41 0 0 0 .41-.41v-43.93M246.22 283.01a.4.4 0 0 1 .38-.26h35.42a.4.4 0 0 1 .38.26l5.95 15.98a.4.4 0 0 0 .38.26h32.75a.4.4 0 0 0 .37-.54l-43.4-117.45a.4.4 0 0 0-.38-.26h-27.55a.4.4 0 0 0-.38.26l-43.42 117.45a.4.4 0 0 0 .37.54h32.75a.4.4 0 0 0 .38-.26l6-15.98M465.13 53.25l-3.11 9a.58.57 9.8 0 0 .54.76l6.2.08a.43.43 0 0 0 .42-.55c-.36-1.21-2.41-9.57-3.28-9.55a.87.3.6 0 0-.77.26M419.36 142.24q1.85-18.34 6-41.32.7-3.87 1.95-6.48a.78.77 12.7 0 1 .7-.44h27.41q.97 0 .37-.75l-3.63-4.53a1.27 1.26 70.4 0 0-.98-.47h-18.64a1.62 1.61 28.2 0 0-.88.26c-3.86 2.48-14.51 10.41-15.44 14.98q-4.58 22.67-8.02 45.33a.59.59 0 0 0 .58.68h43.68a.55.54 4.3 0 0 .54-.46l5.7-33.27a1.28 1.27-85 0 0-1.24-1.49l-7.62-.05a1.43 1.41 24.9 0 0-.9.32l-6.58 5.32a.64.64 0 0 0 .41 1.14l4.35-.01a.57.57 0 0 1 .57.61q-.72 10.18-3.6 19.94a1.68 1.68 0 0 1-1.61 1.21l-22.67-.01a.46.45-87.1 0 1-.45-.51M489.17 113.83q.33-9.47 2.9-18.59a1.7 1.7 0 0 1 1.64-1.24h28.41a.72.71 4.2 0 0 .71-.61l.62-4.64a.44.44 0 0 0-.44-.5h-25.42a1.84 1.8-60.2 0 0-.95.27c-5.54 3.43-14.67 11.58-15.53 18.05q-2.8 21.23-7.12 42.28a.54.54 0 0 0 .53.65h38.39a.49.48-85.9 0 0 .48-.42l.83-5.81a.46.45-86.1 0 0-.45-.52l-28.74-.01a1.02 1.02 0 0 1-1.02-1.11q.85-9.33 3.34-18.48c.7-2.58 2.22-2.15 4.32-2.15q13.05.03 26.19-.05a.51.51 0 0 0 .51-.47l.5-5.22a.92.91-87.4 0 0-.91-1l-28.39-.01a.4.4 0 0 1-.4-.42M338.59 113.74c.23-4.2.66-15.05 3.64-19.34a.94.94 0 0 1 .77-.4h28.59a.69.68 3.8 0 0 .68-.59l.59-4.5a.59.59 0 0 0-.59-.67l-25.6.02a1.68 1.62 27.5 0 0-.91.27c-7.45 4.87-14.93 12.35-15.82 20.88-1.41 13.31-4.03 26.57-6.57 39.67a.35.35 0 0 0 .34.42h38.42a.48.48 0 0 0 .47-.4l.91-5.77a.5.5 0 0 0-.49-.58h-28.33a1.21 1.21 0 0 1-1.21-1.31q.81-9.55 3.48-18.71.5-1.73 2.31-1.73h27.91a.61.6-4.8 0 0 .6-.7q-.39-2.46.64-4.7a.95.94 12.4 0 0-.86-1.34l-28.5-.02a.47.47 0 0 1-.47-.5" vector-effect="non-scaling-stroke"/><path d="m268.35 95.82-9.07 52.6a.93.93 0 0 0 .92 1.08h8a.59.58 3.9 0 0 .58-.5q3.7-24.19 8.54-48.19.64-3.13 1.88-6.28a.87.86 11.1 0 1 .8-.53l18.9.01a1.64 1.64 0 0 1 1.62 1.89q-4 26.55-9.02 52.92a.57.57 0 0 0 .56.68h8.96a.61.61 0 0 0 .6-.5l10.05-59.86a.77.76 5.1 0 0-.75-.89q-28.9-.01-57.96.01c-6.51.01-14.5 9.18-18.46 13.84a1.9 1.88-21 0 0-.41.91l-7.42 45.9a.51.51 0 0 0 .5.59h7.71a.69.68 8.6 0 0 .66-.48q1.69-5.12 2.64-10.44 3.85-21.47 6.79-42.97a1.86 1.84-85.9 0 1 1.84-1.61l20.03.04a1.53 1.53 0 0 1 1.51 1.78M108.49 142.75a1.32 1.32 0 0 1-1.31-1.5q2.99-21.88 6.93-42.83.44-2.3 1.33-3.97a.88.87-75.3 0 1 .76-.45h27.23q.96 0 .37-.76l-3.55-4.52a1.2 1.19 71.2 0 0-.95-.47q-7.9-.01-15.83 0c-7.01.01-14.81 9.51-19.03 14.42q-.64.74-1.02 3.02-3.62 21.77-7.08 43.24a.49.49 0 0 0 .48.57h43.52a.71.7-85.1 0 0 .69-.59l5.55-33.93a.63.62-85.3 0 0-.61-.73h-8.08a1.67 1.66 25 0 0-1.06.38l-6.61 5.67q-.58.5.18.57l5.49.52a.65.63-83.6 0 1 .57.73q-1.49 10.11-4.62 19.82a1.17 1.16 8.9 0 1-1.11.8l-22.24.01M201.74 114.25h-19.17a1.52 1.5-62 0 0-.86.27c-4.68 3.29-17.14 13-17.99 18.74q-1.14 7.72-2.49 15.64a.52.52 0 0 0 .51.6h27.92a.91.89 11.3 0 0 .83-.54q1.18-2.66 1.42-5.6a.55.54-87.6 0 0-.54-.6l-17.91-.03a1.39 1.38-86 0 1-1.36-1.57q1.33-9.74 3.96-19.19a1.32 1.3-81.9 0 1 1.27-.97l21.73.01a1.38 1.37-85.4 0 1 1.35 1.6l-4.32 26.12a.67.67 0 0 0 .66.77h8.15a.8.8 0 0 0 .79-.66l10.7-60.06a.45.45 0 0 0-.44-.53h-30.7a1.37 1.35-67.2 0 0-.96.4l-4.35 4.52a.48.48 0 0 0 .35.82l23.49.01a1.14 1.13-86 0 1 1.12 1.3l-2.6 18.46a.57.56-85.9 0 1-.56.49" vector-effect="non-scaling-stroke"/><path d="M180.09 126a.58.58 0 0 0-.58.5l-1.45 10.59a.58.58 0 0 0 .57.66h13.85a.58.58 0 0 0 .57-.49l1.6-10.59a.58.58 0 0 0-.57-.67h-13.99M576.34 95.89q-.89 8.98-3.65 17.52a1.2 1.2 0 0 1-1.16.84c-6.02 0-11.95-.22-17.89.44q-.53.06-.96.36-9.21 6.47-16.93 14.66a1.81 1.79-20.3 0 0-.47 1.01l-2.35 18.2a.51.51 0 0 0 .5.58h28.29a.55.54 3.6 0 0 .54-.47l.78-5.72a.49.49 0 0 0-.49-.56l-17.98-.01a.83.83 0 0 1-.83-.89c.34-4.46 1.36-17.46 4.43-20.51a1.21 1.18-66.6 0 1 .83-.34l20.99.01a1.51 1.51 0 0 1 1.49 1.73l-4 26.07a.6.59-85.4 0 0 .58.69h7.39a.9.9 0 0 0 .82-.53q.98-2.16 1.25-3.47 3.34-16.44 5.66-33.05c1.03-7.42 3.16-15.67 4.19-23.66a.46.46 0 0 0-.45-.51q-13.89-.09-27.75.01c-3.48.03-6.17 2.71-8.24 5.21q-.4.48.23.48l23.5.05a1.69 1.69 0 0 1 1.68 1.86" vector-effect="non-scaling-stroke"/><path d="M552.06 125.99a.85.85 0 0 0-.83.66l-2.3 10.06a.85.85 0 0 0 .83 1.04h13.53a.85.85 0 0 0 .82-.65l2.37-10.06a.85.85 0 0 0-.82-1.04l-13.6-.01M636.22 121.5q.14 2.32.01 3.26-1.7 12.02-3.99 24.08a.56.55 5.5 0 0 .55.66h8.01a.64.63-86.4 0 0 .63-.56l2.34-18.14a1.22 1.19 31.7 0 0-.22-.88c-2.79-3.91-6.64-8.96-6.49-12.8a1.05 1.05 0 0 1 .42-.8c4.25-3.14 10.47-8.45 11.5-13.87q1.29-6.78 2.21-13.67a.47.46-86.2 0 0-.46-.53H621.6a1.44 1.43-63 0 0-.85.28c-3.33 2.49-13.86 10.5-14.61 14.4q-4.17 21.64-7.72 45.18a1.22 1.21-85.7 0 0 1.2 1.4l6.73-.01a.67.67 0 0 0 .66-.58q1.74-13.76 4.94-27.25a.89.87 6.6 0 1 .86-.67h22.87a.54.54 0 0 1 .54.5" vector-effect="non-scaling-stroke"/><path d="M616.84 94.79q-2.71 8.64-3.86 17.68a1.56 1.56 0 0 0 1.55 1.76l21.92.02a1.18 1.17-79.9 0 0 1.12-.79q3.01-8.61 3.68-17.77a1.56 1.56 0 0 0-1.56-1.68L617.92 94a1.13 1.13 0 0 0-1.08.79" vector-effect="non-scaling-stroke"/><path d="M620.33 98.97a.31.31 0 0 0-.31.27l-1.52 10.44a.31.31 0 0 0 .31.35h15.03a.31.31 0 0 0 .3-.26l1.76-10.46a.31.31 0 0 0-.31-.36l-15.26.02M255.26 254.83a.32.32 0 0 0 .31.41l17.47.03a.32.32 0 0 0 .3-.41l-8.68-29.22a.32.32 0 0 0-.61 0l-8.79 29.19" vector-effect="non-scaling-stroke"/></g><g fill="#fff"><path d="M140.81 269.5h-10.88a.49.48-90 0 0-.48.49q.1 13.51.04 26.97c-.05 9.81-6.26 17.24-16.39 17.27q-14.08.04-28.17.02c-10.7-.02-18.15-5.45-18.16-16.88q-.06-57.55.01-115.11.01-7.75 5.9-12.58c3.36-2.74 8.01-3.31 12.33-3.98q.49-.08.06-.32c-6.24-3.57-7.99-8.69-6.91-15.82q4.37-28.9 10.31-54.57c1.33-5.76 7.71-10.65 13.05-14.7 8.11-6.14 11.78-9.63 20.93-9.77q15.83-.25 20.12.09c8.32.66 13.25 9.44 17.84 15.54a.45.44-40.5 0 0 .66.05q5.56-5.24 11.25-10.13c5.17-4.45 8.17-5.47 15.42-5.53q14.37-.12 28.75 0c7.8.06 12.79 1.22 16.27 8.12a.39.39 0 0 0 .58.14l8.55-6.61q.4-.31.9-.41l2.35-.46a.66.66 0 0 0 .52-.59c.53-6.37.05-10.37 4.46-15.63a.83.82-37.1 0 0 .12-.85c-2.32-5.42-5.1-12.75-3.97-18.69 4.29-22.52 13.74-34.06 37.46-34.06q14.89-.01 29.76.02 4.53.01 8.83 3.14a.93.91-37.2 0 0 .87.11q8.03-3.18 11.37-3.21 29.92-.27 39 .03 3.68.11 7.47 2.97a.87.85 51.6 0 0 .85.11q7.01-2.89 10.56-3.03c12.54-.48 25.01-.01 37.54-.13q9.48-.1 12.91 9.04.17.46.46.07c8.17-10.78 22.34-12.49 34.22-7.92 16.29 6.26 18.17 26.51 23.44 40.35q5.05 13.27 9.05 26.96a.75.75 0 0 0 .73.54c9.56-.22 23.86-2.58 29.43 7.56a.41.41 0 0 0 .62.12c4.51-3.8 8.89-7.66 15.22-7.7q27.92-.17 35.43.03 8.69.23 12.97 7.83a.4.4 0 0 0 .61.11c4.79-4.16 8.74-8 15.6-8q14.46.01 28.92-.01c8.95 0 15.92 1.14 18.7 9.98q1.19 3.74.39 10.68c-.98 8.55-2.58 23.3-8.51 29.33a.72.71 54.8 0 0-.13.8c1.57 3.26 2.58 6.37 2.03 10.15q-1.79 12.32-4.95 24.37c-1.89 7.23-7.21 11.15-14.66 11.63q-.47.03-.02.17 11.25 3.47 19.27 8.44 9.53 5.9 8.02 16-.57 3.78-4.19 10.03-6.01 10.38-12.07 20.77a.58.58 0 0 0 .14.74c2.48 1.99 5.52 3.86 7.6 5.84 14.23 13.62 15.99 35.62 10.02 53.58-4.74 14.25-18.06 25.06-32.02 29.46-27.22 8.59-53.9 5.48-80.09-4.6a.72.72 0 0 0-.8.2c-3.97 4.51-9.39 5.92-14.91 5.93q-15.6.02-31.2.01c-3.14 0-9.6-.88-12.11-2.89q-4.94-3.96-8.44-9.41a.49.49 0 0 0-.9.16c-1.63 7.8-8.81 12.08-16.59 12.11q-13.72.05-27.45.03c-5.08-.01-10-1.34-14.03-5.52a.65.63-36.3 0 0-.78-.11q-4.18 2.4-11.43 4.89c-31.84 10.94-66.52.97-86.98-25.88-.1-.14-.13-.28-.23 0a.37.23 50.5 0 0 .03.23c2.57 4.8 4.08 10.19 2.49 15.5-3.06 10.26-11.07 11.11-21.25 11.13q-11.44.03-22.85.01c-5.76-.01-11.05-1.48-14.9-5.98-2.27-2.66-3.22-6.6-4.62-10.06a.75.74-11.2 0 0-.69-.46h-14.45a.69.68-80.5 0 0-.65.47c-1.98 5.64-3.3 10.12-7.61 13.12-2.33 1.63-7.36 2.9-10.32 2.9-7.26.01-35.17 1.8-39.82-2.72a.69.69 0 0 0-.8-.12c-8.56 4.43-21.49 3.01-35.41 2.84-16.02-.2-20.95-5.43-21.1-21.24q-.12-11.56-.13-23.13a.38.37 0 0 0-.38-.37M421.25 49v27.24a.5.5 0 0 1-.49.5q-10.16.05-20.32-.03c-7.75-.06-12.41-1.9-12.56-10.47q-.24-13.55-.13-27.12c.09-10.81 1.15-15.04 13.42-15.09q14.54-.06 29.13-.04a.49.49 0 0 0 .49-.5l-.06-8.46a.51.5 0 0 0-.51-.5q-15.83-.08-31.66 0c-10.85.05-15.82 3.64-19.26 13.86q-1.03 3.07-1.04 7.39l-.02 30c0 10.96 8.28 20.51 19.5 20.5q13.7-.01 26.95-.03a.66.66 0 0 1 .47 1.12q-5.23 5.43-11.5 9.61a1.42 1.38-9.4 0 0-.58.79c-5.01 17.48-7.48 36.64-10.36 54.67a1.57 1.56-85.6 0 0 1.54 1.81h50.97a.62.61 9.3 0 0 .58-.41c4.39-13.16 6.32-28.52 8.49-42.28a1.18 1.17-85.1 0 0-1.14-1.36l-14.97-.28a1.57 1.57 0 0 0-1.04.37l-17.48 14.2a.79.78 48.3 0 0-.06 1.16c.78.78 10.56.28 12.21.19a.5.49 2.4 0 1 .52.56l-1.6 11.04a.66.65 4 0 1-.65.56h-15.27a.61.61 0 0 1-.6-.69q2.55-19.07 6.7-37.84a.61.61 0 0 1 .6-.49l32.48-.15a.67.67 0 0 0 .54-1.07q-4.3-5.98-8.78-12.12c-1.67-2.28 4.17-18.81 5.09-18.67a.57.57 0 0 1 .48.47l.93 5.43a.78.78 0 0 0 .77.65l20.06-.05a1.12 1.11 81.1 0 0 1.06-1.46q-7.65-23.46-16.38-46.53a1.31 1.27 2.1 0 0-.69-.72c-3.88-1.74-7 9.44-7.88 11.97q-7.99 22.88-15.18 46.03a.89.89 0 0 1-.82.62l-1.51.04a.56.55-82.8 0 1-.55-.72q5.96-20.21 13.24-39.99c1.82-4.96 4.29-17.47 8.29-20 4.69-2.97 7.15-.33 8.74 4.08q8.74 24.33 17.05 48.9a.8.8 0 0 1-.75 1.06l-24.25.01a1.87 1.86-88 0 0-1.86 1.74c-.16 2.21-1.25 7.75 2.4 7.75q13.07 0 25.46.01a.86.85-66.1 0 1 .57 1.49l-10.92 9.96a1.77 1.67-16 0 0-.51.86c-4.46 17.95-6.78 37.01-9.46 55.3a.34.34 0 0 0 .34.38h46.46a.68.68 0 0 0 .65-.48q2.18-7.14 3.16-14.54a.7.7 0 0 0-.43-.73q-1.39-.56-3.57-.51-6.4.15-25.39-.07a.62.62 0 0 1-.62-.69l1.24-10.64a.61.6 3.3 0 1 .59-.52l28.91-.35a1.49 1.49 0 0 0 1.42-1.12q1.76-6.84 2.17-13.91a.61.61 0 0 0-.61-.65l-28.24-.05a1.09 1.09 0 0 1-1.07-1.27l1.6-9.6a.44.43 4.7 0 1 .43-.36l29.13.03a.71.71 0 0 0 .67-.47q2.33-6.4 2.83-13.24a1.47 1.47 0 0 0-1.47-1.58h-26.22a.64.64 0 0 1-.62-.47q-5.21-17.89-11.68-35.35c-3.49-9.47-6.4-30.12-17.33-33.42-16.86-5.08-22.08 9.83-25.59 21.71q-6.17 20.87-13.76 41.27a.76.75-83.3 0 1-.6.48l-.26.03a.47.47 0 0 1-.53-.47V39.25a.5.5 0 0 0-.5-.5h-26.16a1.38 1.38 0 0 0-1.38 1.33l-.29 7.74a.66.65-89.1 0 0 .65.68h17.68a.5.5 0 0 1 .5.5M292.24 63.4q-.83.51-1.75.51-15.32.03-30.72.15a.63.63 0 0 0-.62.51q-.87 4.17-.02 8.34a.67.67 0 0 0 .66.54q14.9.08 29.82.05c6.59-.01 9.36-1.59 11.54-7.62q2.05-5.65-1.45-9.33c-6.97-7.33-17.12-3.3-25.38-7.62-7.38-3.86-6.87-12.95-3-19.62 2.73-4.69 7.75-5.3 13.37-5.3q14.18-.01 28.55-.03a1.52 1.51-.2 0 0 1.52-1.52l-.01-6.48a1.45 1.45 0 0 0-1.45-1.45q-17.09-.07-34.05.08-10.09.09-14.68 7.46c-2.89 4.63-6.68 13.79-5.12 19.23 2.73 9.46 7.02 17.55 17.54 19.45.28.05 13.99-.43 15.47 1.33a.88.88 0 0 1-.22 1.32m81.26 19.54v-4.88a1.3 1.29 90 0 0-1.29-1.3h-32.46c-6.99 0-10.55-5.86-10.71-11.75q-.26-9.71.1-29.8c.12-6.78 4.17-11.29 10.95-11.25q15.96.1 31.9.02a1.5 1.5 0 0 0 1.49-1.5l.03-6.64a1.31 1.31 0 0 0-1.31-1.32q-15.85-.07-31.6.01-5.75.03-8.01.64c-16.14 4.32-13.25 31.31-13.07 45.99.16 12.68 4.85 24.9 19.58 24.81a.89.89 0 0 1 .6 1.55l-11.15 10.16a1.51 1.48-15.4 0 0-.47.81q-5.68 27.06-10.18 54.36a1.2 1.2 0 0 0 1.18 1.39l45.9.01a.8.79 13.3 0 0 .71-.43c2.09-4.03 2.81-9.91 3.47-14.55a.68.68 0 0 0-.39-.71q-1.28-.56-3.02-.56-13.16.01-25.93-.01a1 .99-85.3 0 1-.98-1.16l1.71-10.46a.55.55 0 0 1 .54-.45l28.25.12q1.95.01 2.27-1.91l1.93-11.64q.41-2.44-2.06-2.44l-27.02-.07a1.01 1.01 0 0 1-.97-1.27q1.23-4.61 1.31-9.36a.41.41 0 0 1 .41-.4l29.31-.16a.73.73 0 0 0 .69-.49q2.31-6.78 3.21-13.88a.6.6 0 0 0-.55-.67l-3.93-.33a.48.48 0 0 1-.44-.48m-31.52-44.73q-.2-1.7 1.6-1.7 14.55.01 29.24-.06a.64.64 0 0 0 .64-.64l-.01-8.56q0-1.83-1.54-.83-.97.64-1.92.1-.48-.28-1.03-.28-13.13-.01-26.25.04c-13.85.04-10.92 12.64-10.59 21.63a.61.61 0 0 0 .61.59h33.52a.5.5 0 0 0 .5-.5v-8.3a.81.8.7 0 0-.8-.81l-23.43-.2a.54.54 0 0 1-.54-.48m59.87 25.63a1.66 1.65 5.5 0 1-1.34-1.62L400.5 37a.5.5 0 0 1 .5-.5h29.51a.32.31 90 0 0 .31-.32l-.1-9.4a.49.49 0 0 0-.49-.49q-14.28-.13-28.55.02c-5.68.06-10.73.92-10.9 7.43q-.19 6.85.12 33.2.07 6.61 6.59 6.61 10.41-.01 20.87-.07a.6.59-.5 0 0 .59-.59l.01-20.24a1.38 1.38 0 0 0-1.38-1.38l-13.57-.03a.85.83-79.2 0 0-.78.54q-1.55 4.06-.23 8.21a.96.95 87.2 0 0 .69.63l4.81 1.08a.91.9 84.9 0 1 .65.55c1.05 2.54-6.48 1.74-7.3 1.59M282.28 98.8l12.12-.03a.54.54 0 0 1 .54.62l-8.34 54.39a.41.41 0 0 0 .41.47h17.29a.66.65-84 0 0 .64-.52q6.9-34.1 12.01-68.51a1.49 1.49 0 0 0-1.47-1.71l-11.16-.02a.5.5 0 0 1-.32-.89c8.03-6.51 12.52-15.43 9.89-25.88-3.6-14.34-18.98-18.86-32.14-17.88a.57.57 0 0 1-.61-.55l-.06-1.22a.55.54 89 0 1 .54-.57l32.1-.01a1.02 1.02 0 0 0 1.02-1.02l.02-6.87a1.58 1.58 0 0 0-1.57-1.59q-15.9-.04-31.72.01c-11.15.04-14.09 16.7-2.99 20.5 10.32 3.54 29.03-1.15 26.19 17.46-1.21 7.94-8.81 11.49-16.19 11.57q-14.35.15-28.84.25a.66.65-88.1 0 0-.65.62l-.33 5.63a.48.47-88 0 1-.47.45h-9.23a1.48 1.43 24.5 0 0-.93.33l-16.96 13.65a1.5 1.49-14.3 0 0-.54.9l-9.62 54.91a.6.6 0 0 0 .56.71q9.32.55 18.64.08a.64.63-87.8 0 0 .59-.55c3.04-22.39 5.46-40 9.45-54a.65.64-82.6 0 1 .6-.47l11.67-.29a.56.56 0 0 1 .57.65l-9.28 53.81a.86.85-84.9 0 0 .84 1.01l16.35.02a.72.71-80.1 0 0 .67-.48q2.41-7.03 3.96-16.02 4.22-24.55 6.22-38.49a.55.54 3 0 1 .53-.47m49.91-46.13c-.39 6.15-2.74 20.71 7.14 20.78q16.67.11 33.4.03a.78.77-.4 0 0 .77-.77l-.02-7.6a1.11 1.11 0 0 0-1.11-1.11q-14.21.01-28.35-.01c-1.63 0-2.7-.79-2.36-2.49a.59.59 0 0 1 .58-.48l23.04-.06a1.47 1.47 0 0 0 1.46-1.47l.02-6.61a1.62 1.62 0 0 0-1.62-1.63h-31.43a1.52 1.52 0 0 0-1.52 1.42m-220.02 84.79 6.44-37.95a.67.66 4.1 0 1 .65-.55l32.98-.28a.61.61 0 0 0 .48-.97l-10.33-13.72a1.11 1.1-18.1 0 0-.89-.45q-10.19-.08-20.38-.02c-4.52.02-14.45 9.43-18.02 12.55-3.15 2.76-3.59 7.77-4.4 11.92q-4.46 22.79-7.92 44.75a1.3 1.3 0 0 0 1.28 1.5l51.64.02a.88.87-83.8 0 0 .85-.69q4.4-20.82 7.5-41.88a1.22 1.22 0 0 0-1.18-1.4l-15.06-.37a1.52 1.52 0 0 0-1.02.37l-16.86 14.81a.52.52 0 0 0 .35.91l12.32-.06a.32.32 0 0 1 .31.39l-2.45 11.09a.73.73 0 0 1-.71.57l-15.14-.02a.45.44 4.9 0 1-.44-.52m87.68-37.99q-.54 5.15-2.33 9.99a.83.82-79.7 0 1-.77.54h-16.41a1.43 1.34-62.2 0 0-.84.29q-6.04 4.69-11.64 9.93c-2.33 2.18-5.7 3.31-6.95 7.29q-3.74 11.97-4.67 26.17a.54.53-88.5 0 0 .53.57h51.43a.66.65 8.3 0 0 .63-.46q.45-1.39.73-2.83 6.6-32.61 11.69-65.68a1.55 1.55 0 0 0-1.53-1.78h-35.67a1.41 1.39 23.3 0 0-.95.37l-15.01 13.94a.59.59 0 0 0 .4 1.03l30.86.08a.5.5 0 0 1 .5.55m371.08.04-1.67 9.95a.71.71 0 0 1-.71.59l-17-.08a1.37 1.34-64.6 0 0-.87.32c-4.03 3.44-8.96 8.77-13.62 11.07-6.85 3.37-8.99 24.22-9.89 31.62a1.13 1.12 3.6 0 0 1.12 1.26l51.7.01a.62.62 0 0 0 .61-.51l12.26-68.53a1.45 1.45 0 0 0-1.42-1.71h-35.91a1.4 1.39-65.1 0 0-.9.33q-8.15 6.89-15.59 14.57a.31.31 0 0 0 .22.52l31.01-.19a.67.66-85.6 0 1 .66.78m60.44 26.84-4.73 26.34a1.28 1.27-84.9 0 0 1.25 1.51l15.29.07a1.34 1.33 7.4 0 0 1.31-1q3.1-11.69 4.73-23.68a1.21 1.17-60.5 0 0-.23-.89l-6.98-9.12a.98.98 0 0 1 .06-1.26q3.51-3.8 7.96-6.56c4.15-2.57 5.68-21.44 6.11-26.53a1.6 1.6 0 0 0-1.6-1.73h-34.62a1.36 1.36 0 0 0-.92.36q-6.81 6.21-14.28 11.59a1.81 1.78-6.5 0 0-.63.78c-.89 2.08-1.84 4.34-2.35 6.58q-5.6 24.5-8.76 50.04a1.24 1.24 0 0 0 1.24 1.4l14.98-.03a1.78 1.77 3.9 0 0 1.76-1.53q1.8-13.27 4.98-26.23a.62.61-82.6 0 1 .59-.46l14.5-.05a.34.34 0 0 1 .34.4M388.53 98.6q-.39 3.92-2.74 7.04a1.25 1.23-31.6 0 0-.23.93c.36 2.49 1.2 4.36.92 6.88-.63 5.58-1.84 15.98-5.21 19.45a.93.9 61.3 0 0-.23.84c.59 2.55 1.4 4.71.99 7.39-1.54 10.03-3.14 26.01-17.03 26.09q-21.44.11-42.86.28c-3.48.02-6.8-1.01-9.96-2.19a1.23 1.18-46.2 0 0-.92.04c-7.02 3.18-25.13 3.02-32.07-.41-.59-.29-1.37-.14-1.58.46a.51.51 0 0 0 .35.65c5.89 1.56 11.83 3.03 14.09 9.14q12.79 34.49 25.47 69.02.17.46.12-.02-.73-6.99.71-15.11c6.92-39.08 35.44-63.82 74.41-66.5q.49-.04.2-.44c-2.94-4.15-3.66-7.81-2.83-13.16q3.83-24.72 8.99-49.19a.37.37 0 0 0-.38-.44q-4.76.14-9.3-1.34a.7.7 0 0 0-.91.59m73.83 66.4-.66.19a.37.37 0 0 0 .12.72l1.29-.08q.5-.03.15-.39l-.28-.28a.61.61 0 0 0-.62-.16m-215.26.3c-10.01 2.95-22.27 3.39-31.13.31a1.46 1.43 43.8 0 0-.95.01c-5.9 2.16-11.5 1.81-19.95 1.72q-.5 0-.06.23c8.35 4.35 9.22 10.64 9.22 20.16q0 37.1.08 74.22 0 .5.17.03 15.35-41.77 30.84-83.47c2.7-7.25 6.03-11.24 13.69-11.98q.67-.07.1-.42l-1.13-.69a1.08 1.06-36.9 0 0-.88-.12m-93.8 1.23-2.65-.66q-.45-.11-.91 0c-9.37 2.31-19.34 1.7-28.95 1.71q-.49 0-.06.23 8.62 4.78 8.7 14.2.11 14.22.08 28.47a.53.52 0 0 0 .53.52h10.69a.53.53 0 0 0 .53-.53q-.09-11.52.04-23.02c.12-10.34 1.44-17.99 12-20.66q.51-.13 0-.26m422.85.97q-11.02-.03-22.1-.03-.75 0-.06.3 6.1 2.6 8.3 8.82a.37.37 0 0 0 .59.15q7.56-6.52 17.18-9.19.7-.2-.02-.31c-1.28-.19-2.97.26-3.89.26m-143.59 4.31q2.05-2.32 4.76-4 .61-.38-.1-.38l-14.96.08q-.4 0-.03.17l10.08 4.44a.16.15-63.4 0 0 .2-.07q.06-.1.05-.24m59.47 5.74c3.19-3.81 6.05-8.55 11.21-10.07q.55-.16-.03-.16l-21.16.12q-.82 0-.06.31 7.32 2.96 8.82 10.71a.28.28 0 0 0 .44.17c.4-.28.52-.77.78-1.08m-15.53 41.67V181.5a.5.5 0 0 0-.5-.5h-31.75a.5.5 0 0 0-.5.5v95.59a.3.29 19.3 0 1-.48.23l-23.53-19.09a.39.38 38.3 0 0-.55.06c-16.39 20.84-47.74 14.42-53.25-11.94-5.67-27.15 24.41-46.45 47.13-30.43a.72.7 41.6 0 0 .87-.04l23.68-20.81a.56.56 0 0 0 0-.84q-9.11-7.86-20.1-12.25c-35.42-14.12-74.69 7.34-83.45 43.59-9.05 37.43 18.27 75.16 57.11 77.09q30.63 1.53 52.02-22.11.55-.61.55.22v17.73a.5.5 0 0 0 .5.5H476a.5.5 0 0 0 .5-.5v-38.02a.25.25 0 0 1 .45-.16l31.23 38.28a1.1 1.1 0 0 0 .85.4h37.7a.27.27 0 0 0 .21-.43l-46.02-61.27a.72.71-43.2 0 1 .03-.88l47.5-54.97a.27.27 0 0 0-.2-.45h-39.19a1.07 1.06-70.1 0 0-.82.39l-31.08 38.06q-.66.82-.66-.23m134.91 36.99c5.53 1 19.66 5.15 13.96 14.31-1.99 3.2-6.32 4.4-9.94 4.65-16.51 1.15-28.05-3.27-42.63-9.93a.61.61 0 0 0-.78.24l-14.32 24.05a.82.8-49.2 0 0 .06.91c1.11 1.44 2.84 1.68 4.09 2.25q29.41 13.47 61.17 8.53c23.96-3.74 39.76-17.96 36.05-44.12-3.78-26.67-37.03-29.66-57.52-35.04-5.05-1.33-10.52-3.02-10.08-8.71.95-12.56 26.01-7.17 32.27-5.06q8.48 2.85 16.35 6.64a.68.68 0 0 0 .88-.27l14.14-24.46a.5.5 0 0 0-.17-.68c-19.08-11.71-42.91-14.34-64.63-9.7-18.12 3.88-31.77 17.78-31.82 36.85-.04 13.93 6.58 25.53 19.79 30.58q14.64 5.6 33.13 8.96m-496.91-1.3a.41.41 0 0 1 .41-.41h40.93a.41.41 0 0 1 .41.41v43.93a.41.41 0 0 0 .41.41h32.18a.41.41 0 0 0 .41-.41V181.41a.41.41 0 0 0-.41-.41h-32.18a.41.41 0 0 0-.41.41v44.18a.41.41 0 0 1-.41.41h-40.93a.41.41 0 0 1-.41-.41v-44.18a.41.41 0 0 0-.41-.41H82.16a.41.41 0 0 0-.41.41v117.43a.41.41 0 0 0 .41.41h31.93a.41.41 0 0 0 .41-.41zm131.72 28.1a.4.4 0 0 1 .38-.26h35.42a.4.4 0 0 1 .38.26l5.95 15.98a.4.4 0 0 0 .38.26h32.75a.4.4 0 0 0 .37-.54l-43.4-117.45a.4.4 0 0 0-.38-.26h-27.55a.4.4 0 0 0-.38.26l-43.42 117.45a.4.4 0 0 0 .37.54h32.75a.4.4 0 0 0 .38-.26zm315.14-28.12a.29.28 34.9 0 0-.07-.38c-14.1-10.21-18.97-27.48-17.45-44.24q.05-.5-.29-.13c-8.02 8.85-15.53 18.18-23.59 26.93a.56.55 47.7 0 0-.03.71l28.43 37.89a.18.18 0 0 0 .3-.02q5.9-10.66 12.7-20.76m-163.38-29.73c-10.83-2.22-19.67 8.01-17.46 18.31 1.99 9.27 11.58 15.38 20.63 10.97 4.07-1.98 7.22-7.37 11.52-9.48q7.59-3.7 15.67 1.21.41.25.41-.22v-22.43q0-.58-.45-.21c-4.75 3.82-10.01 8.71-16.81 7.28q-4.16-.87-7.83-2.89-3.96-2.18-5.68-2.54"/><path d="M465.13 53.25a.87.3.6 0 1 .77-.26c.87-.02 2.92 8.34 3.28 9.55a.43.43 0 0 1-.42.55l-6.2-.08a.58.57 9.8 0 1-.54-.76zM339.06 114.24l28.5.02a.95.94 12.4 0 1 .86 1.34q-1.03 2.24-.64 4.7a.61.6-4.8 0 1-.6.7h-27.91q-1.81 0-2.31 1.73-2.67 9.16-3.48 18.71a1.21 1.21 0 0 0 1.21 1.31h28.33a.5.5 0 0 1 .49.58l-.91 5.77a.48.48 0 0 1-.47.4h-38.42a.35.35 0 0 1-.34-.42c2.54-13.1 5.16-26.36 6.57-39.67.89-8.53 8.37-16.01 15.82-20.88a1.68 1.62 27.5 0 1 .91-.27l25.6-.02a.59.59 0 0 1 .59.67l-.59 4.5a.69.68 3.8 0 1-.68.59H343a.94.94 0 0 0-.77.4c-2.98 4.29-3.41 15.14-3.64 19.34a.47.47 0 0 0 .47.5M108.49 142.75l22.24-.01a1.17 1.16 8.9 0 0 1.11-.8q3.13-9.71 4.62-19.82a.65.63-83.6 0 0-.57-.73l-5.49-.52q-.76-.07-.18-.57l6.61-5.67a1.67 1.66 25 0 1 1.06-.38h8.08a.63.62-85.3 0 1 .61.73l-5.55 33.93a.71.7-85.1 0 1-.69.59H96.82a.49.49 0 0 1-.48-.57q3.46-21.47 7.08-43.24.38-2.28 1.02-3.02c4.22-4.91 12.02-14.41 19.03-14.42q7.93-.01 15.83 0a1.2 1.19 71.2 0 1 .95.47l3.55 4.52q.59.76-.37.76H116.2a.88.87-75.3 0 0-.76.45q-.89 1.67-1.33 3.97-3.94 20.95-6.93 42.83a1.32 1.32 0 0 0 1.31 1.5M202.3 113.76l2.6-18.46a1.14 1.13-86 0 0-1.12-1.3l-23.49-.01a.48.48 0 0 1-.35-.82l4.35-4.52a1.37 1.35-67.2 0 1 .96-.4h30.7a.45.45 0 0 1 .44.53l-10.7 60.06a.8.8 0 0 1-.79.66h-8.15a.67.67 0 0 1-.66-.77l4.32-26.12a1.38 1.37-85.4 0 0-1.35-1.6l-21.73-.01a1.32 1.3-81.9 0 0-1.27.97q-2.63 9.45-3.96 19.19a1.39 1.38-86 0 0 1.36 1.57l17.91.03a.55.54-87.6 0 1 .54.6q-.24 2.94-1.42 5.6a.91.89 11.3 0 1-.83.54h-27.92a.52.52 0 0 1-.51-.6q1.35-7.92 2.49-15.64c.85-5.74 13.31-15.45 17.99-18.74a1.52 1.5-62 0 1 .86-.27h19.17a.57.56-85.9 0 0 .56-.49M268.35 95.82a1.53 1.53 0 0 0-1.51-1.78L246.81 94a1.86 1.84-85.9 0 0-1.84 1.61q-2.94 21.5-6.79 42.97-.95 5.32-2.64 10.44a.69.68 8.6 0 1-.66.48h-7.71a.51.51 0 0 1-.5-.59l7.42-45.9a1.9 1.88-21 0 1 .41-.91c3.96-4.66 11.95-13.83 18.46-13.84q29.06-.02 57.96-.01a.77.76 5.1 0 1 .75.89L301.62 149a.61.61 0 0 1-.6.5h-8.96a.57.57 0 0 1-.56-.68q5.02-26.37 9.02-52.92a1.64 1.64 0 0 0-1.62-1.89L280 94a.87.86 11.1 0 0-.8.53q-1.24 3.15-1.88 6.28-4.84 24-8.54 48.19a.59.58 3.9 0 1-.58.5h-8a.93.93 0 0 1-.92-1.08zM419.81 142.75l22.67.01a1.68 1.68 0 0 0 1.61-1.21q2.88-9.76 3.6-19.94a.57.57 0 0 0-.57-.61l-4.35.01a.64.64 0 0 1-.41-1.14l6.58-5.32a1.43 1.41 24.9 0 1 .9-.32l7.62.05a1.28 1.27-85 0 1 1.24 1.49l-5.7 33.27a.55.54 4.3 0 1-.54.46h-43.68a.59.59 0 0 1-.58-.68q3.44-22.66 8.02-45.33c.93-4.57 11.58-12.5 15.44-14.98a1.62 1.61 28.2 0 1 .88-.26h18.64a1.27 1.26 70.4 0 1 .98.47l3.63 4.53q.6.75-.37.75h-27.41a.78.77 12.7 0 0-.7.44q-1.25 2.61-1.95 6.48-4.15 22.98-6 41.32a.46.45-87.1 0 0 .45.51M489.57 114.25l28.39.01a.92.91-87.4 0 1 .91 1l-.5 5.22a.51.51 0 0 1-.51.47q-13.14.08-26.19.05c-2.1 0-3.62-.43-4.32 2.15q-2.49 9.15-3.34 18.48a1.02 1.02 0 0 0 1.02 1.11l28.74.01a.46.45-86.1 0 1 .45.52l-.83 5.81a.49.48-85.9 0 1-.48.42h-38.39a.54.54 0 0 1-.53-.65q4.32-21.05 7.12-42.28c.86-6.47 9.99-14.62 15.53-18.05a1.84 1.8-60.2 0 1 .95-.27h25.42a.44.44 0 0 1 .44.5l-.62 4.64a.72.71 4.2 0 1-.71.61h-28.41a1.7 1.7 0 0 0-1.64 1.24q-2.57 9.12-2.9 18.59a.4.4 0 0 0 .4.42M576.34 95.89a1.69 1.69 0 0 0-1.68-1.86l-23.5-.05q-.63 0-.23-.48c2.07-2.5 4.76-5.18 8.24-5.21q13.86-.1 27.75-.01a.46.46 0 0 1 .45.51c-1.03 7.99-3.16 16.24-4.19 23.66q-2.32 16.61-5.66 33.05-.27 1.31-1.25 3.47a.9.9 0 0 1-.82.53h-7.39a.6.59-85.4 0 1-.58-.69l4-26.07a1.51 1.51 0 0 0-1.49-1.73L549 121a1.21 1.18-66.6 0 0-.83.34c-3.07 3.05-4.09 16.05-4.43 20.51a.83.83 0 0 0 .83.89l17.98.01a.49.49 0 0 1 .49.56l-.78 5.72a.55.54 3.6 0 1-.54.47h-28.29a.51.51 0 0 1-.5-.58l2.35-18.2a1.81 1.79-20.3 0 1 .47-1.01q7.72-8.19 16.93-14.66.43-.3.96-.36c5.94-.66 11.87-.44 17.89-.44a1.2 1.2 0 0 0 1.16-.84q2.76-8.54 3.65-17.52M635.68 121h-22.87a.89.87 6.6 0 0-.86.67q-3.2 13.49-4.94 27.25a.67.67 0 0 1-.66.58l-6.73.01a1.22 1.21-85.7 0 1-1.2-1.4q3.55-23.54 7.72-45.18c.75-3.9 11.28-11.91 14.61-14.4a1.44 1.43-63 0 1 .85-.28h29.13a.47.46-86.2 0 1 .46.53q-.92 6.89-2.21 13.67c-1.03 5.42-7.25 10.73-11.5 13.87a1.05 1.05 0 0 0-.42.8c-.15 3.84 3.7 8.89 6.49 12.8a1.22 1.19 31.7 0 1 .22.88l-2.34 18.14a.64.63-86.4 0 1-.63.56h-8.01a.56.55 5.5 0 1-.55-.66q2.29-12.06 3.99-24.08.13-.94-.01-3.26a.54.54 0 0 0-.54-.5m-18.84-26.21q-2.71 8.64-3.86 17.68a1.56 1.56 0 0 0 1.55 1.76l21.92.02a1.18 1.17-79.9 0 0 1.12-.79q3.01-8.61 3.68-17.77a1.56 1.56 0 0 0-1.56-1.68L617.92 94a1.13 1.13 0 0 0-1.08.79"/><path d="m620.33 98.97 15.26-.02a.31.31 0 0 1 .31.36l-1.76 10.46a.31.31 0 0 1-.3.26h-15.03a.31.31 0 0 1-.31-.35l1.52-10.44a.31.31 0 0 1 .31-.27M180.09 126h13.99a.58.58 0 0 1 .57.67l-1.6 10.59a.58.58 0 0 1-.57.49h-13.85a.58.58 0 0 1-.57-.66l1.45-10.59a.58.58 0 0 1 .58-.5M552.06 125.99l13.6.01a.85.85 0 0 1 .82 1.04l-2.37 10.06a.85.85 0 0 1-.82.65h-13.53a.85.85 0 0 1-.83-1.04l2.3-10.06a.85.85 0 0 1 .83-.66M255.26 254.83l8.79-29.19a.32.32 0 0 1 .61 0l8.68 29.22a.32.32 0 0 1-.3.41l-17.47-.03a.32.32 0 0 1-.31-.41"/></g><g fill="#00f"><path d="M420.75 48.5h-17.68a.66.65-89.1 0 1-.65-.68l.29-7.74a1.38 1.38 0 0 1 1.38-1.33h26.16a.5.5 0 0 1 .5.5v38.03a.47.47 0 0 0 .53.47l.26-.03a.76.75-83.3 0 0 .6-.48q7.59-20.4 13.76-41.27c3.51-11.88 8.73-26.79 25.59-21.71 10.93 3.3 13.84 23.95 17.33 33.42q6.47 17.46 11.68 35.35a.64.64 0 0 0 .62.47h26.22a1.47 1.47 0 0 1 1.47 1.58q-.5 6.84-2.83 13.24a.71.71 0 0 1-.67.47l-29.13-.03a.44.43 4.7 0 0-.43.36l-1.6 9.6a1.09 1.09 0 0 0 1.07 1.27l28.24.05a.61.61 0 0 1 .61.65q-.41 7.07-2.17 13.91a1.49 1.49 0 0 1-1.42 1.12l-28.91.35a.61.6 3.3 0 0-.59.52l-1.24 10.64a.62.62 0 0 0 .62.69q18.99.22 25.39.07 2.18-.05 3.57.51a.7.7 0 0 1 .43.73q-.98 7.4-3.16 14.54a.68.68 0 0 1-.65.48h-46.46a.34.34 0 0 1-.34-.38c2.68-18.29 5-37.35 9.46-55.3a1.77 1.67-16 0 1 .51-.86l10.92-9.96a.86.85-66.1 0 0-.57-1.49q-12.39-.01-25.46-.01c-3.65 0-2.56-5.54-2.4-7.75a1.87 1.86-88 0 1 1.86-1.74l24.25-.01a.8.8 0 0 0 .75-1.06q-8.31-24.57-17.05-48.9c-1.59-4.41-4.05-7.05-8.74-4.08-4 2.53-6.47 15.04-8.29 20q-7.28 19.78-13.24 39.99a.56.55-82.8 0 0 .55.72l1.51-.04a.89.89 0 0 0 .82-.62q7.19-23.15 15.18-46.03c.88-2.53 4-13.71 7.88-11.97a1.31 1.27 2.1 0 1 .69.72q8.73 23.07 16.38 46.53a1.12 1.11 81.1 0 1-1.06 1.46l-20.06.05a.78.78 0 0 1-.77-.65l-.93-5.43a.57.57 0 0 0-.48-.47c-.92-.14-6.76 16.39-5.09 18.67q4.48 6.14 8.78 12.12a.67.67 0 0 1-.54 1.07l-32.48.15a.61.61 0 0 0-.6.49q-4.15 18.77-6.7 37.84a.61.61 0 0 0 .6.69h15.27a.66.65 4 0 0 .65-.56l1.6-11.04a.5.49 2.4 0 0-.52-.56c-1.65.09-11.43.59-12.21-.19a.79.78 48.3 0 1 .06-1.16l17.48-14.2a1.57 1.57 0 0 1 1.04-.37l14.97.28a1.18 1.17-85.1 0 1 1.14 1.36c-2.17 13.76-4.1 29.12-8.49 42.28a.62.61 9.3 0 1-.58.41h-50.97a1.57 1.56-85.6 0 1-1.54-1.81c2.88-18.03 5.35-37.19 10.36-54.67a1.42 1.38-9.4 0 1 .58-.79q6.27-4.18 11.5-9.61a.66.66 0 0 0-.47-1.12q-13.25.02-26.95.03c-11.22.01-19.5-9.54-19.5-20.5l.02-30q.01-4.32 1.04-7.39c3.44-10.22 8.41-13.81 19.26-13.86q15.83-.08 31.66 0a.51.5 0 0 1 .51.5l.06 8.46a.49.49 0 0 1-.49.5q-14.59-.02-29.13.04c-12.27.05-13.33 4.28-13.42 15.09q-.11 13.57.13 27.12c.15 8.57 4.81 10.41 12.56 10.47q10.16.08 20.32.03a.5.5 0 0 0 .49-.5V49a.5.5 0 0 0-.5-.5m44.38 4.75-3.11 9a.58.57 9.8 0 0 .54.76l6.2.08a.43.43 0 0 0 .42-.55c-.36-1.21-2.41-9.57-3.28-9.55a.87.3.6 0 0-.77.26m-45.77 88.99q1.85-18.34 6-41.32.7-3.87 1.95-6.48a.78.77 12.7 0 1 .7-.44h27.41q.97 0 .37-.75l-3.63-4.53a1.27 1.26 70.4 0 0-.98-.47h-18.64a1.62 1.61 28.2 0 0-.88.26c-3.86 2.48-14.51 10.41-15.44 14.98q-4.58 22.67-8.02 45.33a.59.59 0 0 0 .58.68h43.68a.55.54 4.3 0 0 .54-.46l5.7-33.27a1.28 1.27-85 0 0-1.24-1.49l-7.62-.05a1.43 1.41 24.9 0 0-.9.32l-6.58 5.32a.64.64 0 0 0 .41 1.14l4.35-.01a.57.57 0 0 1 .57.61q-.72 10.18-3.6 19.94a1.68 1.68 0 0 1-1.61 1.21l-22.67-.01a.46.45-87.1 0 1-.45-.51m69.81-28.41q.33-9.47 2.9-18.59a1.7 1.7 0 0 1 1.64-1.24h28.41a.72.71 4.2 0 0 .71-.61l.62-4.64a.44.44 0 0 0-.44-.5h-25.42a1.84 1.8-60.2 0 0-.95.27c-5.54 3.43-14.67 11.58-15.53 18.05q-2.8 21.23-7.12 42.28a.54.54 0 0 0 .53.65h38.39a.49.48-85.9 0 0 .48-.42l.83-5.81a.46.45-86.1 0 0-.45-.52l-28.74-.01a1.02 1.02 0 0 1-1.02-1.11q.85-9.33 3.34-18.48c.7-2.58 2.22-2.15 4.32-2.15q13.05.03 26.19-.05a.51.51 0 0 0 .51-.47l.5-5.22a.92.91-87.4 0 0-.91-1l-28.39-.01a.4.4 0 0 1-.4-.42M292.24 63.4a.88.88 0 0 0 .22-1.32c-1.48-1.76-15.19-1.28-15.47-1.33-10.52-1.9-14.81-9.99-17.54-19.45-1.56-5.44 2.23-14.6 5.12-19.23q4.59-7.37 14.68-7.46 16.96-.15 34.05-.08a1.45 1.45 0 0 1 1.45 1.45l.01 6.48a1.52 1.51-.2 0 1-1.52 1.52q-14.37.02-28.55.03c-5.62 0-10.64.61-13.37 5.3-3.87 6.67-4.38 15.76 3 19.62 8.26 4.32 18.41.29 25.38 7.62q3.5 3.68 1.45 9.33c-2.18 6.03-4.95 7.61-11.54 7.62q-14.92.03-29.82-.05a.67.67 0 0 1-.66-.54q-.85-4.17.02-8.34a.63.63 0 0 1 .62-.51q15.4-.12 30.72-.15.92 0 1.75-.51M373.94 83.42l3.93.33a.6.6 0 0 1 .55.67q-.9 7.1-3.21 13.88a.73.73 0 0 1-.69.49l-29.31.16a.41.41 0 0 0-.41.4q-.08 4.75-1.31 9.36a1.01 1.01 0 0 0 .97 1.27l27.02.07q2.47 0 2.06 2.44l-1.93 11.64q-.32 1.92-2.27 1.91l-28.25-.12a.55.55 0 0 0-.54.45l-1.71 10.46a1 .99-85.3 0 0 .98 1.16q12.77.02 25.93.01 1.74 0 3.02.56a.68.68 0 0 1 .39.71c-.66 4.64-1.38 10.52-3.47 14.55a.8.79 13.3 0 1-.71.43l-45.9-.01a1.2 1.2 0 0 1-1.18-1.39q4.5-27.3 10.18-54.36a1.51 1.48-15.4 0 1 .47-.81l11.15-10.16a.89.89 0 0 0-.6-1.55c-14.73.09-19.42-12.13-19.58-24.81-.18-14.68-3.07-41.67 13.07-45.99q2.26-.61 8.01-.64 15.75-.08 31.6-.01a1.31 1.31 0 0 1 1.31 1.32l-.03 6.64a1.5 1.5 0 0 1-1.49 1.5q-15.94.08-31.9-.02c-6.78-.04-10.83 4.47-10.95 11.25q-.36 20.09-.1 29.8c.16 5.89 3.72 11.75 10.71 11.75h32.46a1.3 1.29 90 0 1 1.29 1.3v4.88a.48.48 0 0 0 .44.48m-35.35 30.32c.23-4.2.66-15.05 3.64-19.34a.94.94 0 0 1 .77-.4h28.59a.69.68 3.8 0 0 .68-.59l.59-4.5a.59.59 0 0 0-.59-.67l-25.6.02a1.68 1.62 27.5 0 0-.91.27c-7.45 4.87-14.93 12.35-15.82 20.88-1.41 13.31-4.03 26.57-6.57 39.67a.35.35 0 0 0 .34.42h38.42a.48.48 0 0 0 .47-.4l.91-5.77a.5.5 0 0 0-.49-.58h-28.33a1.21 1.21 0 0 1-1.21-1.31q.81-9.55 3.48-18.71.5-1.73 2.31-1.73h27.91a.61.6-4.8 0 0 .6-.7q-.39-2.46.64-4.7a.95.94 12.4 0 0-.86-1.34l-28.5-.02a.47.47 0 0 1-.47-.5"/><path d="m342.52 38.69 23.43.2a.81.8.7 0 1 .8.81V48a.5.5 0 0 1-.5.5h-33.52a.61.61 0 0 1-.61-.59c-.33-8.99-3.26-21.59 10.59-21.63q13.12-.05 26.25-.04.55 0 1.03.28.95.54 1.92-.1 1.54-1 1.54.83l.01 8.56a.64.64 0 0 1-.64.64q-14.69.07-29.24.06-1.8 0-1.6 1.7a.54.54 0 0 0 .54.48M401.85 63.84c.82.15 8.35.95 7.3-1.59a.91.9 84.9 0 0-.65-.55l-4.81-1.08a.96.95 87.2 0 1-.69-.63q-1.32-4.15.23-8.21a.85.83-79.2 0 1 .78-.54l13.57.03a1.38 1.38 0 0 1 1.38 1.38l-.01 20.24a.6.59-.5 0 1-.59.59q-10.46.06-20.87.07-6.52 0-6.59-6.61-.31-26.35-.12-33.2c.17-6.51 5.22-7.37 10.9-7.43q14.27-.15 28.55-.02a.49.49 0 0 1 .49.49l.1 9.4a.32.31-90 0 1-.31.32H401a.5.5 0 0 0-.5.5l.01 25.22a1.66 1.65 5.5 0 0 1.34 1.62M281.75 99.27q-2 13.94-6.22 38.49-1.55 8.99-3.96 16.02a.72.71-80.1 0 1-.67.48l-16.35-.02a.86.85-84.9 0 1-.84-1.01l9.28-53.81a.56.56 0 0 0-.57-.65l-11.67.29a.65.64-82.6 0 0-.6.47c-3.99 14-6.41 31.61-9.45 54a.64.63-87.8 0 1-.59.55q-9.32.47-18.64-.08a.6.6 0 0 1-.56-.71l9.62-54.91a1.5 1.49-14.3 0 1 .54-.9l16.96-13.65a1.48 1.43 24.5 0 1 .93-.33h9.23a.48.47-88 0 0 .47-.45l.33-5.63a.66.65-88.1 0 1 .65-.62q14.49-.1 28.84-.25c7.38-.08 14.98-3.63 16.19-11.57 2.84-18.61-15.87-13.92-26.19-17.46-11.1-3.8-8.16-20.46 2.99-20.5q15.82-.05 31.72-.01a1.58 1.58 0 0 1 1.57 1.59l-.02 6.87a1.02 1.02 0 0 1-1.02 1.02l-32.1.01a.55.54 89 0 0-.54.57l.06 1.22a.57.57 0 0 0 .61.55c13.16-.98 28.54 3.54 32.14 17.88 2.63 10.45-1.86 19.37-9.89 25.88a.5.5 0 0 0 .32.89l11.16.02a1.49 1.49 0 0 1 1.47 1.71q-5.11 34.41-12.01 68.51a.66.65-84 0 1-.64.52h-17.29a.41.41 0 0 1-.41-.47l8.34-54.39a.54.54 0 0 0-.54-.62l-12.12.03a.55.54 3 0 0-.53.47m-13.4-3.45-9.07 52.6a.93.93 0 0 0 .92 1.08h8a.59.58 3.9 0 0 .58-.5q3.7-24.19 8.54-48.19.64-3.13 1.88-6.28a.87.86 11.1 0 1 .8-.53l18.9.01a1.64 1.64 0 0 1 1.62 1.89q-4 26.55-9.02 52.92a.57.57 0 0 0 .56.68h8.96a.61.61 0 0 0 .6-.5l10.05-59.86a.77.76 5.1 0 0-.75-.89q-28.9-.01-57.96.01c-6.51.01-14.5 9.18-18.46 13.84a1.9 1.88-21 0 0-.41.91l-7.42 45.9a.51.51 0 0 0 .5.59h7.71a.69.68 8.6 0 0 .66-.48q1.69-5.12 2.64-10.44 3.85-21.47 6.79-42.97a1.86 1.84-85.9 0 1 1.84-1.61l20.03.04a1.53 1.53 0 0 1 1.51 1.78M332.19 52.67a1.52 1.52 0 0 1 1.52-1.42h31.43a1.62 1.62 0 0 1 1.62 1.63l-.02 6.61a1.47 1.47 0 0 1-1.46 1.47l-23.04.06a.59.59 0 0 0-.58.48c-.34 1.7.73 2.49 2.36 2.49q14.14.02 28.35.01a1.11 1.11 0 0 1 1.11 1.11l.02 7.6a.78.77-.4 0 1-.77.77q-16.73.08-33.4-.03c-9.88-.07-7.53-14.63-7.14-20.78M112.61 137.98l15.14.02a.73.73 0 0 0 .71-.57l2.45-11.09a.32.32 0 0 0-.31-.39l-12.32.06a.52.52 0 0 1-.35-.91l16.86-14.81a1.52 1.52 0 0 1 1.02-.37l15.06.37a1.22 1.22 0 0 1 1.18 1.4q-3.1 21.06-7.5 41.88a.88.87-83.8 0 1-.85.69l-51.64-.02a1.3 1.3 0 0 1-1.28-1.5q3.46-21.96 7.92-44.75c.81-4.15 1.25-9.16 4.4-11.92 3.57-3.12 13.5-12.53 18.02-12.55q10.19-.06 20.38.02a1.11 1.1-18.1 0 1 .89.45l10.33 13.72a.61.61 0 0 1-.48.97l-32.98.28a.67.66 4.1 0 0-.65.55l-6.44 37.95a.45.44 4.9 0 0 .44.52m-4.12 4.77a1.32 1.32 0 0 1-1.31-1.5q2.99-21.88 6.93-42.83.44-2.3 1.33-3.97a.88.87-75.3 0 1 .76-.45h27.23q.96 0 .37-.76l-3.55-4.52a1.2 1.19 71.2 0 0-.95-.47q-7.9-.01-15.83 0c-7.01.01-14.81 9.51-19.03 14.42q-.64.74-1.02 3.02-3.62 21.77-7.08 43.24a.49.49 0 0 0 .48.57h43.52a.71.7-85.1 0 0 .69-.59l5.55-33.93a.63.62-85.3 0 0-.61-.73h-8.08a1.67 1.66 25 0 0-1.06.38l-6.61 5.67q-.58.5.18.57l5.49.52a.65.63-83.6 0 1 .57.73q-1.49 10.11-4.62 19.82a1.17 1.16 8.9 0 1-1.11.8zM199.35 98.92l-30.86-.08a.59.59 0 0 1-.4-1.03l15.01-13.94a1.41 1.39 23.3 0 1 .95-.37h35.67a1.55 1.55 0 0 1 1.53 1.78q-5.09 33.07-11.69 65.68-.28 1.44-.73 2.83a.66.65 8.3 0 1-.63.46h-51.43a.54.53-88.5 0 1-.53-.57q.93-14.2 4.67-26.17c1.25-3.98 4.62-5.11 6.95-7.29q5.6-5.24 11.64-9.93a1.43 1.34-62.2 0 1 .84-.29h16.41a.83.82-79.7 0 0 .77-.54q1.79-4.84 2.33-9.99a.5.5 0 0 0-.5-.55m2.39 15.33h-19.17a1.52 1.5-62 0 0-.86.27c-4.68 3.29-17.14 13-17.99 18.74q-1.14 7.72-2.49 15.64a.52.52 0 0 0 .51.6h27.92a.91.89 11.3 0 0 .83-.54q1.18-2.66 1.42-5.6a.55.54-87.6 0 0-.54-.6l-17.91-.03a1.39 1.38-86 0 1-1.36-1.57q1.33-9.74 3.96-19.19a1.32 1.3-81.9 0 1 1.27-.97l21.73.01a1.38 1.37-85.4 0 1 1.35 1.6l-4.32 26.12a.67.67 0 0 0 .66.77h8.15a.8.8 0 0 0 .79-.66l10.7-60.06a.45.45 0 0 0-.44-.53h-30.7a1.37 1.35-67.2 0 0-.96.4l-4.35 4.52a.48.48 0 0 0 .35.82l23.49.01a1.14 1.13-86 0 1 1.12 1.3l-2.6 18.46a.57.56-85.9 0 1-.56.49M180.09 126a.58.58 0 0 0-.58.5l-1.45 10.59a.58.58 0 0 0 .57.66h13.85a.58.58 0 0 0 .57-.49l1.6-10.59a.58.58 0 0 0-.57-.67zM570.93 99.51a.67.66-85.6 0 0-.66-.78l-31.01.19a.31.31 0 0 1-.22-.52q7.44-7.68 15.59-14.57a1.4 1.39-65.1 0 1 .9-.33h35.91a1.45 1.45 0 0 1 1.42 1.71l-12.26 68.53a.62.62 0 0 1-.61.51l-51.7-.01a1.13 1.12 3.6 0 1-1.12-1.26c.9-7.4 3.04-28.25 9.89-31.62 4.66-2.3 9.59-7.63 13.62-11.07a1.37 1.34-64.6 0 1 .87-.32l17 .08a.71.71 0 0 0 .71-.59zm5.41-3.62q-.89 8.98-3.65 17.52a1.2 1.2 0 0 1-1.16.84c-6.02 0-11.95-.22-17.89.44q-.53.06-.96.36-9.21 6.47-16.93 14.66a1.81 1.79-20.3 0 0-.47 1.01l-2.35 18.2a.51.51 0 0 0 .5.58h28.29a.55.54 3.6 0 0 .54-.47l.78-5.72a.49.49 0 0 0-.49-.56l-17.98-.01a.83.83 0 0 1-.83-.89c.34-4.46 1.36-17.46 4.43-20.51a1.21 1.18-66.6 0 1 .83-.34l20.99.01a1.51 1.51 0 0 1 1.49 1.73l-4 26.07a.6.59-85.4 0 0 .58.69h7.39a.9.9 0 0 0 .82-.53q.98-2.16 1.25-3.47 3.34-16.44 5.66-33.05c1.03-7.42 3.16-15.67 4.19-23.66a.46.46 0 0 0-.45-.51q-13.89-.09-27.75.01c-3.48.03-6.17 2.71-8.24 5.21q-.4.48.23.48l23.5.05a1.69 1.69 0 0 1 1.68 1.86m-24.28 30.1a.85.85 0 0 0-.83.66l-2.3 10.06a.85.85 0 0 0 .83 1.04h13.53a.85.85 0 0 0 .82-.65l2.37-10.06a.85.85 0 0 0-.82-1.04zM631.03 125.95l-14.5.05a.62.61-82.6 0 0-.59.46q-3.18 12.96-4.98 26.23a1.78 1.77 3.9 0 1-1.76 1.53l-14.98.03a1.24 1.24 0 0 1-1.24-1.4q3.16-25.54 8.76-50.04c.51-2.24 1.46-4.5 2.35-6.58a1.81 1.78-6.5 0 1 .63-.78q7.47-5.38 14.28-11.59a1.36 1.36 0 0 1 .92-.36h34.62a1.6 1.6 0 0 1 1.6 1.73c-.43 5.09-1.96 23.96-6.11 26.53q-4.45 2.76-7.96 6.56a.98.98 0 0 0-.06 1.26l6.98 9.12a1.21 1.17-60.5 0 1 .23.89q-1.63 11.99-4.73 23.68a1.34 1.33 7.4 0 1-1.31 1l-15.29-.07a1.28 1.27-84.9 0 1-1.25-1.51l4.73-26.34a.34.34 0 0 0-.34-.4m5.19-4.45q.14 2.32.01 3.26-1.7 12.02-3.99 24.08a.56.55 5.5 0 0 .55.66h8.01a.64.63-86.4 0 0 .63-.56l2.34-18.14a1.22 1.19 31.7 0 0-.22-.88c-2.79-3.91-6.64-8.96-6.49-12.8a1.05 1.05 0 0 1 .42-.8c4.25-3.14 10.47-8.45 11.5-13.87q1.29-6.78 2.21-13.67a.47.46-86.2 0 0-.46-.53H621.6a1.44 1.43-63 0 0-.85.28c-3.33 2.49-13.86 10.5-14.61 14.4q-4.17 21.64-7.72 45.18a1.22 1.21-85.7 0 0 1.2 1.4l6.73-.01a.67.67 0 0 0 .66-.58q1.74-13.76 4.94-27.25a.89.87 6.6 0 1 .86-.67h22.87a.54.54 0 0 1 .54.5"/><path d="M616.84 94.79a1.13 1.13 0 0 1 1.08-.79l21.77.01a1.56 1.56 0 0 1 1.56 1.68q-.67 9.16-3.68 17.77a1.18 1.17-79.9 0 1-1.12.79l-21.92-.02a1.56 1.56 0 0 1-1.55-1.76q1.15-9.04 3.86-17.68m3.49 4.18a.31.31 0 0 0-.31.27l-1.52 10.44a.31.31 0 0 0 .31.35h15.03a.31.31 0 0 0 .3-.26l1.76-10.46a.31.31 0 0 0-.31-.36zM476.5 219.22q0 1.05.66.23l31.08-38.06a1.07 1.06-70.1 0 1 .82-.39h39.19a.27.27 0 0 1 .2.45l-47.5 54.97a.72.71-43.2 0 0-.03.88l46.02 61.27a.27.27 0 0 1-.21.43h-37.7a1.1 1.1 0 0 1-.85-.4l-31.23-38.28a.25.25 0 0 0-.45.16v38.02a.5.5 0 0 1-.5.5h-31.75a.5.5 0 0 1-.5-.5v-17.73q0-.83-.55-.22-21.39 23.64-52.02 22.11c-38.84-1.93-66.16-39.66-57.11-77.09 8.76-36.25 48.03-57.71 83.45-43.59q10.99 4.39 20.1 12.25a.56.56 0 0 1 0 .84l-23.68 20.81a.72.7 41.6 0 1-.87.04c-22.72-16.02-52.8 3.28-47.13 30.43 5.51 26.36 36.86 32.78 53.25 11.94a.39.38 38.3 0 1 .55-.06l23.53 19.09a.3.29 19.3 0 0 .48-.23V181.5a.5.5 0 0 1 .5-.5H476a.5.5 0 0 1 .5.5zM611.41 256.21q-18.49-3.36-33.13-8.96c-13.21-5.05-19.83-16.65-19.79-30.58.05-19.07 13.7-32.97 31.82-36.85 21.72-4.64 45.55-2.01 64.63 9.7a.5.5 0 0 1 .17.68l-14.14 24.46a.68.68 0 0 1-.88.27q-7.87-3.79-16.35-6.64c-6.26-2.11-31.32-7.5-32.27 5.06-.44 5.69 5.03 7.38 10.08 8.71 20.49 5.38 53.74 8.37 57.52 35.04 3.71 26.16-12.09 40.38-36.05 44.12q-31.76 4.94-61.17-8.53c-1.25-.57-2.98-.81-4.09-2.25a.82.8-49.2 0 1-.06-.91l14.32-24.05a.61.61 0 0 1 .78-.24c14.58 6.66 26.12 11.08 42.63 9.93 3.62-.25 7.95-1.45 9.94-4.65 5.7-9.16-8.43-13.31-13.96-14.31M114.5 254.91v43.93a.41.41 0 0 1-.41.41H82.16a.41.41 0 0 1-.41-.41V181.41a.41.41 0 0 1 .41-.41h31.93a.41.41 0 0 1 .41.41v44.18a.41.41 0 0 0 .41.41h40.93a.41.41 0 0 0 .41-.41v-44.18a.41.41 0 0 1 .41-.41h32.18a.41.41 0 0 1 .41.41v117.43a.41.41 0 0 1-.41.41h-32.18a.41.41 0 0 1-.41-.41v-43.93a.41.41 0 0 0-.41-.41h-40.93a.41.41 0 0 0-.41.41M246.22 283.01l-6 15.98a.4.4 0 0 1-.38.26h-32.75a.4.4 0 0 1-.37-.54l43.42-117.45a.4.4 0 0 1 .38-.26h27.55a.4.4 0 0 1 .38.26l43.4 117.45a.4.4 0 0 1-.37.54h-32.75a.4.4 0 0 1-.38-.26l-5.95-15.98a.4.4 0 0 0-.38-.26H246.6a.4.4 0 0 0-.38.26m9.04-28.18a.32.32 0 0 0 .31.41l17.47.03a.32.32 0 0 0 .3-.41l-8.68-29.22a.32.32 0 0 0-.61 0z"/></g></svg>