<svg xmlns="http://www.w3.org/2000/svg" version="1.0" viewBox="0 0 92.086 57.948"><g fill="#470135"><path d="m74.115 56.31-.026-1.667h-.794v-1.138l-.926-.873c-.476-.503-1.032-.9-1.191-.9h-.265v-.794h-.794v-.794h-1.322v-.794h-5.82v.794h-1.588v.794h-1.322v.794h-5.028v-.794h-1.588v-.794h-2.646v.794h-1.588v.794h-7.144v-.794h-1.588v-.794h-3.44v.794h-1.349l-.132.397-.159.397h-4.18v-.794h-.53v-.794h-.794v-.794h-.794v-.794h-.794v-.794h-1.588v-.794h-2.064l-.159-.397-.132-.397h-3.758l-.132.397-.159.397h-1.296l-.132.397-.159.397h-.74v.794H17.2v.74l-.423.159-.397.159.159.265.159.265h-1.6139999999999999v.794h-1.588v.794h-3.44v-.794H8.468v-.794H6.88v-.794h-.794v-.291c0-.159-.476-.767-1.058-1.323L3.97 46.704h2.91v-.794h1.588v-.794h1.588v-.794h.794v-.794h.794v-.794h.53v-1.322h.794v-6.614h-.794v-1.322h-.53v-1.588h-.794V30.3h-.794v-.794h-.794v-.794h-.265c-.159 0-.556-.291-.9-.661s-.741-.661-.926-.661H6.88v-.794H5.558v-.794H3.97v-.794H2.382v-.794H0l.529-.529c.291-.291.661-.529.794-.529h.265v-.794h.794v-.794h.794v-.794h.794v-.794h.794v-.794h.794v-.265c0-.344 1.508-1.852 1.852-1.852h.265v-.794h.794v-2.646h-.794v-.794h-.794v-.794h-.794l.529-.529c.291-.291.661-.529.794-.529h.265v-.794h.794v-.794h.794v-.794h.794v-.794h.794v-.794h.794v-.265c0-.344 1.508-1.852 1.852-1.852h.265v-.794h.794v-.794h.794v-.794h.794V1.72h.794V.926h.767l.106-.45.132-.476.026 1.27.026 1.244h.794v1.588h.794v.794h.265c.159 0 .556.291.9.661l.609.661h1.402v.794h1.322v.794h1.588V8.6h5.556v-.794h.794v-.794h.794v-.794h4.234v.794h.794v.794h.794V8.6h5.556v-.794h.794v-.794h.794v-.794h3.44v.794h.794v.794h.794V8.6h.794v.794h2.646V8.6h.794v-.794h.794l.026-3.096.026-3.122.132.476.106.45h.767v.794h.794v.794h.794v.794h.265c.159 0 .556.291.9.661s.741.661.926.661h.291v.794h.53v.794h.794V8.6h.794v.794h.794v.794h.794v3.704h.794v.794h.794v.794h.794v.74l.344.132.317.132-.317.026-.344.026v.794h-.794v.794h-.794v.794h-.794v5.556h.794v.794h.794v.794h.794v.794h2.382V24.21h-.53v-1.058h.53V21.3h-.53v-1.322h2.116v-2.064l.397-.159.397-.132v-2.4080000000000004h-.794v-2.91h.794v-1.826l-.45-.106-.476-.132.476-.026.45-.026V8.601h.53v1.561l.476.106.45.132-.45.026-.476.026v1.852h.794v2.91h-.794v2.4080000000000004l.397.132.397.159v2.858h1.852v-1.058h-.794v-1.8l.397-.159.397-.132.053-1.535.053-1.535.079 1.455.106 1.455.503.45.503.476h.8200000000000001v-5.556h-.794V11.8l.741-.079.714-.079.079-.609.079-.582h-.8200000000000001V8.599h.794V7.541h-.794v-.53h.794V5.953h-.794V4.895h.794V2.513h.53v2.382h.794v1.058h-.794v1.058h.794v.53h-.794v1.058h.794v1.852h-.8200000000000001l.079.609.079.582.741.079.714.079v1.032h-.794v5.556h.8200000000000001l.503-.476.503-.45.106-1.455.079-1.455.053 1.535.053 1.535.397.132.397.159v1.8h-.794v1.058h1.852v-2.858l.397-.159.397-.132v-2.4080000000000004h-.794v-2.91h.794v-1.826l-.45-.106-.476-.132.476-.026.45-.026V8.6h.53v1.561l.476.106.45.132-.45.026-.476.026v1.852h.794v2.91h-.794v2.4080000000000004l.397.132.397.159v2.064h2.116v1.322h-.794v1.6139999999999999l.397.132.397.159v.952l-.397.159-.397.132v3.546l1.296 1.27c.741.714 1.455 1.296 1.587 1.296h.291v.794h.794v1.588h.794v1.588h.794v4.234h-.794v1.27l-.397.159-.397.132v1.349h-.794v.794h-.794v.794h-.794v.794h-.794v.794h-.794v.265c0 .344-1.508 1.852-1.852 1.852h-.265v.794h-.794v.794h-.794v.794h-.794v.794h-.794v.794h-.794v.265c0 .344-1.508 1.852-1.852 1.852h-.265v.794h-.794v.794h-.794v.794h-.794v.794h-.794v.794h-.767l-.106.476-.132.45-.026-1.64zm-3.201-31.168v-.926h-1.058v1.852h1.058zm15.346 0v-.926h-1.058v1.852h1.058zm-15.346-2.91v-.926h-1.058v1.852h1.058zm15.293-.079.079-.847h-1.085v1.8780000000000001l.476-.079.45-.079.079-.873zM44.985 55.966v-.265h2.116v.53h-2.116z"/></g><g fill="#540a3b"><path d="m74.115 56.31-.026-1.667h-.794v-1.138l-.926-.873c-.476-.503-1.032-.9-1.191-.9h-.265v-.794h-.794v-.794h-1.322v-.794h-5.82v.794h-1.588v.794h-1.322v.794h-5.028v-.794h-1.588v-.794h-2.646v.794h-1.588v.794h-7.144v-.794h-1.588v-.794h-3.44v.794h-1.349l-.132.397-.159.397h-4.18v-.794h-.53v-.794h-.794v-.794h-.794v-.794h-.794v-.794h-1.588v-.794h-2.064l-.159-.397-.132-.397h-3.758l-.132.397-.159.397h-1.296l-.132.397-.159.397h-.74v.794H17.2v.74l-.423.159-.397.159.159.265.159.265h-1.614v.794h-1.588v.794h-3.44v-.794H8.468v-.794H6.88v-.794h-.794v-.291c0-.159-.476-.767-1.058-1.323L3.97 46.704h2.91v-.794h1.588v-.794h1.588v-.794h.794v-.794h.794v-.794h.53v-1.322h.794v-6.614h-.794v-1.322h-.53v-1.588h-.794V30.3h-.794v-.794h-.794v-.794h-.265c-.159 0-.556-.291-.9-.661s-.741-.661-.926-.661H6.88v-.794H5.558v-.794H3.97v-.794H2.382v-.794H0l.529-.529c.291-.291.661-.529.794-.529h.265v-.794h.794v-.794h.794v-.794h.794v-.794h.794v-.794h.794v-.265c0-.344 1.508-1.852 1.852-1.852h.265v-.794h.794v-2.646h-.794v-.794h-.794v-.794h-.794l.529-.529c.291-.291.661-.529.794-.529h.265v-.794h.794v-.794h.794v-.794h.794v-.794h.794v-.794h.794v-.265c0-.344 1.508-1.852 1.852-1.852h.265v-.794h.794v-.794h.794v-.794h.794V1.72h.794V.926h.767l.106-.45.132-.476.026 1.27.026 1.244h.794v1.588h.794v.794h.265c.159 0 .556.291.9.661l.609.661h1.402v.794h1.322v.794h1.588V8.6h5.556v-.794h.794v-.794h.794v-.794h4.234v.794h.794v.794h.794V8.6h5.556v-.794h.794v-.794h.794v-.794h3.44v.794h.794v.794h.794V8.6h.794v.794h2.646V8.6h.794v-.794h.794l.026-3.096.026-3.122.132.476.106.45h.767v.794h.794v.794h.794v.794h.265c.159 0 .556.291.9.661s.741.661.926.661h.291v.794h.53v.794h.794V8.6h.794v.794h.794v.794h.794v3.704h.794v.794h.794v.794h.794v.74l.344.132.317.132-.317.026-.344.026v.794h-.794v.794h-.794v.794h-.794v5.556h.794v.794h.794v.794h.794v.794h2.382V24.21h-.53v-1.058h.53V21.3h-.53v-1.322h2.116v-2.064l.397-.159.397-.132v-2.408h-.794v-2.91h.794v-1.826l-.45-.106-.476-.132.476-.026.45-.026V8.601h.53v1.561l.476.106.45.132-.45.026-.476.026v1.852h.794v2.91h-.794v2.408l.397.132.397.159v2.858h1.852v-1.058h-.794v-1.8l.397-.159.397-.132.053-1.535.053-1.535.079 1.455.106 1.455.503.45.503.476h.82v-5.556h-.794V11.8l.741-.079.714-.079.079-.609.079-.582h-.82V8.599h.794V7.541h-.794v-.53h.794V5.953h-.794V4.895h.794V2.513h.53v2.382h.794v1.058h-.794v1.058h.794v.53h-.794v1.058h.794v1.852h-.82l.079.609.079.582.741.079.714.079v1.032h-.794v5.556h.82l.503-.476.503-.45.106-1.455.079-1.455.053 1.535.053 1.535.397.132.397.159v1.8h-.794v1.058h1.852v-2.858l.397-.159.397-.132v-2.408h-.794v-2.91h.794v-1.826l-.45-.106-.476-.132.476-.026.45-.026V8.6h.53v1.561l.476.106.45.132-.45.026-.476.026v1.852h.794v2.91h-.794v2.408l.397.132.397.159v2.064h2.116v1.322h-.794v1.614l.397.132.397.159v.952l-.397.159-.397.132v3.546l1.296 1.27c.741.714 1.455 1.296 1.587 1.296h.291v.794h.794v1.588h.794v1.588h.794v4.234h-.794v1.27l-.397.159-.397.132v1.349h-.794v.794h-.794v.794h-.794v.794h-.794v.794h-.794v.265c0 .344-1.508 1.852-1.852 1.852h-.265v.794h-.794v.794h-.794v.794h-.794v.794h-.794v.794h-.794v.265c0 .344-1.508 1.852-1.852 1.852h-.265v.794h-.794v.794h-.794v.794h-.794v.794h-.794v.794h-.767l-.106.476-.132.45-.026-1.64zM37.153 35.99l.132-.397h1.349v-.265c0-.132.132-.265.265-.265.159 0 .503-.238.794-.529s.529-.635.529-.794v-.265h.794v-.794h.794v-.794h.794v-.53h-2.937l-.132-.397-.159-.397h-.74v-.794h-1.322l-.026-.45-.026-.476-.265.794-.291.767.317.106.291.106v1.27h-.74l-.132.529-.132.529h-.767l-.688-.609-.714-.609v-1.138l.317-.185.317-.185-.529-.212c-.265-.106-.714-.212-.952-.212l-.476-.026v.794h-.794v.794H28.85v.53h.794v.794h.794v.794h.794v.794h.794v.794h.794v.794h1.588v.53H37l.159-.397zm-25.056-9.657-.132-1.058.291-.185c.185-.106.529-.159.794-.132l.45.079v-.556h.979l.344.661.344.661h.714v.794h9.26v-.794h.53v-.794h2.382v-.476l-1.64-.106a60 60 0 0 0-3.704.026l-2.064.079.159.238.132.238-.159.291-.185.265-.344-.45-.317-.45.132-.503.106-.476h1.006v-4.498h.794v.53h.794v1.64l.529-.132.529-.132v1.561l.423.159.423.159.265-.423.238-.45h.767v-.794h.53v-.794h.794v-.53h-2.116v-.794h-1.588v-.794h-.794v-.794h-.794v-1.058l.476-.026.45-.026-.45-.132-.476-.106v-1.032h.794v-.794h1.534l.159-.397.132-.397H25.7l.397-.37c.212-.212.37-.503.37-.661v-.291h-2.116v-.794h-.714l-.185 1.085-.159 1.058.159.291.185.265-.847-.185-.82-.185v.582h-.794v-2.91h.794v-.53h-1.429c-.794 0-1.614-.079-1.852-.159l-.423-.159v.846h.794v4.762h-1.588v-1.058h.53v-1.322h-.53v-.794h-.794v-.794h-.53v3.704l-.847.37-.873.37 1.535.026 1.508.026v.794h-.794v2.382h-.794v1.058l-.529.529c-.291.291-.661.529-.794.529h-.265l.026-2.117c.053-1.164.026-2.17-.053-2.223-.053-.053-1.032-.026-2.143.026l-2.064.159v.45h1.322v4.498h-.794v.794h-.794v.291c0 .185-.212.476-.45.661l-.476.344.397.026h.423l.45.529c.238.291.45.661.45.794v.265h.794v.794h.873l-.159-1.058zm19.844.265.159-.82 3.334.079 3.334.079.079.741.079.714h2.884v-5.292h.794v-1.322h-1.349l-.132-.397-.159-.397h-1.218l-.132.37-.159.37-1.587.106-1.561.079-.291-.476-.291-.45.291-.556.291-.556.82.159.847.159.079.265.106.265h1.27v-.794h1.588V15.22h.794v-.794h2.382v-.53h-1.058v-.503l-.37.132-.37.132-.423-.582-.397-.582-.397.317-.37.317-2.223-.079-2.196-.079-.079-.609-.106-.635.503-.344.476-.37-1.773-.026h-1.799v2.116h-3.174v-.794h-.317c-.397 0-1.535.714-2.196 1.429l-.503.476.45.265.45.238v1.826h.265c.159 0 .265-.106.265-.265v-.265h1.588v3.704h2.858l.159-.397.132-.397h.82v2.646h-1.614l-.132-.397-.159-.397h-2.064v-.794h-1.322v7.408h2.672l.159-.794zm28.919.397v-.397h.794v-5.292h-.53v1.826l-.212.106c-.106.079-.503.079-.926 0l-.714-.132v-1.561l.397-.132.397-.159V19.72h.794v-1.322h.74l.106-.661.132-.661h-1.534l-.132-.397-.159-.397h-.74v-1.058h-.53v-.794h2.91v-.53h-.476c-.265 0-.556-.079-.661-.159l-.159-.159.159-.37.132-.37h.74v-.344c0-.185-.159-.661-.317-1.058l-.344-.714-.344.132c-.212.079-.794.132-1.323.159l-.979.026.661.185.661.185.079 1.032.079 1.058.423.317.45.344h-.423c-.238 0-.609-.079-.847-.159l-.423-.159v-.74h-.794l-.159-.661-.159-.661h-.767l-.132-.397-.159-.397h-.688l-.185 1.27-.185 1.244-.291.185-.317.212h-3.836v-.794h-.794v.45c0 .238-.159.847-.317 1.349l-.344.926.344.106.317.132v4.446h-1.588v-4.762l.344-.026.317-.026-.317-.132-.344-.132v-.503c0-.265-.185-.979-.45-1.587l-.423-1.111.317-.503c.397-.635.344-.688-.688-.9l-.82-.159-.106 2.328-.079 2.355.159.265.185.265-.132 2.858-.159 2.858-.741.159-.767.159v2.566h.74l.159.344.159.317.159-.317.159-.344h.74v-.794h.794V22.9h.794v-.794h1.588v1.588h-.794v2.116h.794v-.291c0-.185.291-.582.661-.926l.661-.609v-1.878h.794v-3.704h1.058v3.704h-.794v.265c0 .397.873 1.323 1.217 1.323.185 0 .397.159.476.344l.159.317.159-.317.159-.344h.74v-4.498h.794v4.498h-.794v.794h-.794v.794h-.794v.794h-.82l.159.265.159.265h1.244l.159-.397.132-.397h1.349v-.794h.794v-.794h.794v.265c0 .159.476.714 1.058 1.296.582.556 1.058 1.164 1.058 1.323v.291h.794v-.397zm10.054-1.852v-.926h-1.058v1.852h1.058zm15.346 0v-.926h-1.058v1.852h1.058zm-15.346-2.91v-.926h-1.058v1.852h1.058zm15.293-.079.079-.847h-1.085v1.878l.476-.079.45-.079.079-.873zM25.67 15.857v-.397l-.37-.397c-.212-.212-.503-.37-.635-.37-.291 0-.582.635-.582 1.217v.37h1.588zm-11.906-1.032v-.397h.53v-2.064l-.45-.185c-.265-.106-1.032-.238-1.72-.317l-1.27-.106v.556h.53v2.116h.794v.794h1.588v-.397z"/><path d="M34.137 34.667v-.397h-.53v-.794h-.794v-1.322h.265c.159 0 .265.132.265.265v.265h.794v.794h3.174v-.794h.53v-.794h1.058v1.588h-.794v.794h-.794v.794h-3.174v-.397zM31.756 23.686v-1.587H38.9v3.174h-7.144ZM32.655 15.087l-.159-.397h-2.064v-1.058h9.79v.794h-2.116v1.058h-5.318zM52.393 16.013v-1.587h3.174v.794h-.582l.159.397.132.397-.291.661-.291.661-.291.026c-.159 0-.688.053-1.138.132l-.873.106zM45.064 54.457a12.4 12.4 0 0 1 1.984 0l.979.106h-3.968z"/></g><g fill="#6e0252"><path d="m74.115 56.31-.026-1.667h-.794v-1.138l-.926-.873c-.476-.503-1.032-.9-1.191-.9h-.265v-.794h-.794v-.794h-1.322v-.794h-5.82v.794h-1.588v.794h-1.322v.794h-5.028v-.794h-1.588v-.794h-2.646v.794h-1.588v.794h-7.144v-.794h-1.588v-.794h-3.44v.794h-1.349l-.132.397-.159.397h-4.18v-.794h-.53v-.794h-.794v-.794h-.794v-.794h-.794v-.794h-1.588v-.794h-2.064l-.159-.397-.132-.397h-3.758l-.132.397-.159.397h-1.296l-.132.397-.159.397h-.74v.794H17.2v.74l-.423.159-.397.159.159.265.159.265h-1.614v.794h-1.588v.794h-3.44v-.794H8.468v-.794H6.88v-.794h-.794v-.291c0-.159-.476-.767-1.058-1.323L3.97 46.704h2.91v-.794h1.588v-.794h1.588v-.794h.794v-.794h.794v-.794h.53v-1.322h.794v-6.614h-.794v-1.322h-.53v-1.588h-.794V30.3h-.794v-.794h-.794v-.794h-.265c-.159 0-.556-.291-.9-.661s-.741-.661-.926-.661H6.88v-.794H5.558v-.794H3.97v-.794H2.382v-.794H0l.529-.529c.291-.291.661-.529.794-.529h.265v-.794h.794v-.794h.794v-.794h.794v-.794h.794v-.794h.794v-.265c0-.344 1.508-1.852 1.852-1.852h.265v-.794h.794v-2.646h-.794v-.794h-.794v-.794h-.794l.529-.529c.291-.291.661-.529.794-.529h.265v-.794h.794v-.794h.794v-.794h.794v-.794h.794v-.794h.794v-.265c0-.344 1.508-1.852 1.852-1.852h.265v-.794h.794v-.794h.794v-.794h.794V1.72h.794V.926h.767l.106-.45.132-.476.026 1.27.026 1.244h.794v1.588h.794v.794h.265c.159 0 .556.291.9.661l.609.661h1.402v.794h1.322v.794h1.588V8.6h5.556v-.794h.794v-.794h.794v-.794h4.234v.794h.794v.794h.794V8.6h5.556v-.794h.794v-.794h.794v-.794h3.44v.794h.794v.794h.794V8.6h.794v.794h2.646V8.6h.794v-.794h.794l.026-3.096.026-3.122.132.476.106.45h.767v.794h.794v.794h.794v.794h.265c.159 0 .556.291.9.661s.741.661.926.661h.291v.794h.53v.794h.794V8.6h.794v.794h.794v.794h.794v3.704h.794v.794h.794v.794h.794v.74l.344.132.317.132-.317.026-.344.026v.794h-.794v.794h-.794v.794h-.794v5.556h.794v.794h.794v.794h.794v.794h2.382V24.21h-.53v-1.058h.53V21.3h-.53v-1.322h2.116v-2.064l.397-.159.397-.132v-2.408h-.794v-2.91h.794v-1.826l-.45-.106-.476-.132.476-.026.45-.026V8.601h.53v1.561l.476.106.45.132-.45.026-.476.026v1.852h.794v2.91h-.794v2.408l.397.132.397.159v2.858h1.852v-1.058h-.794v-1.8l.397-.159.397-.132.053-1.535.053-1.535.079 1.455.106 1.455.503.45.503.476h.82v-5.556h-.794V11.8l.741-.079.714-.079.079-.609.079-.582h-.82V8.599h.794V7.541h-.794v-.53h.794V5.953h-.794V4.895h.794V2.513h.53v2.382h.794v1.058h-.794v1.058h.794v.53h-.794v1.058h.794v1.852h-.82l.079.609.079.582.741.079.714.079v1.032h-.794v5.556h.82l.503-.476.503-.45.106-1.455.079-1.455.053 1.535.053 1.535.397.132.397.159v1.8h-.794v1.058h1.852v-2.858l.397-.159.397-.132v-2.408h-.794v-2.91h.794v-1.826l-.45-.106-.476-.132.476-.026.45-.026V8.6h.53v1.561l.476.106.45.132-.45.026-.476.026v1.852h.794v2.91h-.794v2.408l.397.132.397.159v2.064h2.116v1.322h-.794v1.614l.397.132.397.159v.952l-.397.159-.397.132v3.546l1.296 1.27c.741.714 1.455 1.296 1.587 1.296h.291v.794h.794v1.588h.794v1.588h.794v4.234h-.794v1.27l-.397.159-.397.132v1.349h-.794v.794h-.794v.794h-.794v.794h-.794v.794h-.794v.265c0 .344-1.508 1.852-1.852 1.852h-.265v.794h-.794v.794h-.794v.794h-.794v.794h-.794v.794h-.794v.265c0 .344-1.508 1.852-1.852 1.852h-.265v.794h-.794v.794h-.794v.794h-.794v.794h-.794v.794h-.767l-.106.476-.132.45-.026-1.64zM37.047 36.122v-.265h1.852v-.291c0-.185.291-.582.661-.926s.661-.741.661-.9v-.265h.794v-.794h.794v-.794h.794v-.53h-2.937l-.132-.397-.159-.397h-.74v-.794h-1.322v-.794h-2.937l-.132.397-.159.397h-1.27v.794h-.794v.794h-3.174v.53h.794v.794h.794v.794h.794v.794h.794v.794h.794v.794h1.588v.53h2.646v-.265Zm-24.871-9.525v-.794h.291c.37 0 1.032-.661 1.032-1.032v-.291h.979l.344.661.344.661h.714v.794h9.26v-.794h.53v-.794h2.382v-.53h-2.91v-2.382h.794v-.794h.53v-.794h.794v-.53h-2.116v-.794h-1.588v-.794h-.794v-.794h-.794v-.794h4.762v-.159c0-.291-1.799-1.958-2.117-1.958h-.265v.53h-.794v.794h-1.588v-.794h.794v-.794h1.534l.159-.397.132-.397h1.112l.397-.37c.212-.212.37-.503.37-.661v-.291h-2.116v-.794h-.794v1.138l-.952.873c-.503.503-1.058.9-1.191.9h-.238v-2.91h.794v-.794h-3.704v.794h.794v4.498h-1.588v-.794h.794v-1.322h-.794V13.1h-.794v-.794h-.794v-.794h-.794v.794h.794v3.704h-1.322v.794h2.91v.794h-.794v2.382h-.794v1.058l-.529.529c-.291.291-.635.529-.794.529h-.265v-2.91h.794v-.265c0-.132-.238-.503-.529-.794l-.529-.529H9.743l.106.344.132.317.688.079.714.079v4.472h-.794v.794h-.794v.291c0 .185-.212.476-.45.661l-.476.344.397.026h.423l.45.529c.238.291.45.661.45.794v.265h.794v.794h.794v-.794zm19.764 0 .159-.82 3.334.079 3.334.079.079.741.079.714h2.884v-5.292h.794v-1.322h-1.349l-.132-.397-.159-.397h-1.27v.53h-3.174V19.19h1.588v.53h1.322v-.794h1.588v-3.704h.794v-.794h2.382v-.53h-.794v-.794h-.794v-.794h-.794v-.794h-.794v1.588h-4.498v-1.588h.794v-.794h-3.704v2.382h-3.174v-.794h-.794v-.794h-.794v1.322l-.529.529c-.291.291-.635.529-.794.529h-.265v2.116h.794v.794h.794v-.794h1.588v3.704h2.858l.159-.397.132-.397h.82v2.382h-1.852v-.53h-2.116v-.794h-1.588v7.408h2.937l.159-.794zm16.695.476a.83.83 0 0 0-.423-.423l-.317-.106v.846h.846zm12.224-.079v-.397h.794v-5.292h-.794v1.588h-1.588v-1.349l.397-.132.397-.159v-1.534h.794v-1.322h.794v-.794h.794v-.794h-2.382v-.794h-.794v-.794h-.53v-.794h2.91v-.238c0-.132-.185-.291-.397-.397-.212-.079-.397-.265-.397-.423v-.265h.794v-1.588h-.794v-.794h-5.292v2.858l-.423.159c-.238.079-1.244.159-2.249.159h-1.826v-.794h-.794v1.322h-.794v.794h-.794v-3.704h.794v-.794h-2.884l-.079 2.196-.079 2.17-.714.079-.741.079v.767h1.588v5.292h-1.588v3.174h.74l.159.344.159.317.159-.317.159-.344h.74v-.794h.794v-.794h.794v-.794h1.588v1.588h-.794v2.116h.794v-.291c0-.185.291-.582.661-.926l.661-.609v-1.878h.794v-3.704h1.058v3.704h-.794v.265c0 .397.873 1.323 1.217 1.323.185 0 .397.159.476.344l.159.317.159-.317.159-.344h.74v-4.498h.794v4.498h-.794v.794h-.794v.794h-.794v.794h-.82l.159.265.159.265h1.244l.159-.397.132-.397h1.349v-.794h.794v-.53h.291c.37 0 2.619 2.249 2.619 2.619v.291h.794v-.397zm10.054-1.852v-.926h-1.058v1.852h1.058zm15.346 0v-.926h-1.058v1.852h1.058zm-15.346-2.91v-.926h-1.058v1.852h1.058zm15.293-.079.079-.847H85.2v1.878l.476-.079.45-.079.079-.873zm-72.443-7.329v-.397h.53v-1.852l-.529-.529-.529-.529h-2.646v.794h.794v2.116h.794v.794h1.588v-.397z"/><path d="M34.137 34.667v-.397h-.53v-.794h-.794v-1.322h.265c.159 0 .265.132.265.265v.265h.794v.794h3.174v-.53h.794v-.794h.794v1.322h-.794v.794h-.794v.794h-3.174zM31.226 32.418v-.529h.794v1.058h-.794z"/><path d="m34.851 32.338-.714-.609v-1.164h.794v-.794h1.588v.794h.794v1.322h-.74l-.132.529-.132.529h-.767l-.688-.609zM39.428 32.285v-.423l.476.079.45.079-.053.265c-.026.159-.238.291-.45.344l-.423.079zM32.761 52.87c.476-.053 1.191-.053 1.587 0l.714.106h-3.174ZM44.799 52.87a20 20 0 0 1 2.514 0l1.244.079h-5.028zM57.103 52.87c.476-.053 1.191-.053 1.587 0l.714.106H56.23z"/></g><g fill="#7c0f54"><path d="M56.362 50.436c0-.159.132-.344.265-.423l.265-.159v-1.032h-.265a.266.266 0 0 1-.265-.265c0-.132-.238-.503-.529-.794s-.635-.529-.794-.529h-.265v-.794h-1.588v-.794h.794v-.53h.794v-6.8l-.026-6.826-.767-.661-.794-.635v-.688h.794v-.53h3.174v.53h.794v1.058h.74l.132.344.106.317.556-.503.556-.503.741.476.714.476.106-.291.106-.317h.74v.53h.794v.794h.53v-2.91h.74l.132-.397.159-.37.794.106c.45.053.926.159 1.085.265l.265.159v1.006l.397.397.397.397v.397c0 .556.106.529 1.191-.159l.926-.609v-1.1909999999999998h1.058v.767l1.217.185 1.244.185.106.476.132.503h4.974V30.3h1.322v-.53h1.588v-.794h.794v.794h-.794v.794h-.794v.794h-.291c-.159 0-.82.529-1.482 1.191l-1.191 1.191h-.74v.53h-1.588v.794h-3.174v-.794h-1.588v-.291c0-.159-.159-.45-.37-.635l-.344-.37-1.111.026h-1.085v.74h-2.116v.714l-.661.714-.635.688h-1.8780000000000001v-.794h-.794v-.794h-.794v-2.116h-.794v.794h-.53v2.7249999999999996l.847.767c.45.397.926.741 1.058.741h.212v.794h1.058v.794h1.322v.794h1.322v.794h2.646v.503l.979.079 1.005.079.079.476.079.45h-.8200000000000001v1.218l-.714.635-.741.635-.714-.079-.741-.079v.846h-2.646v-.794h-1.322v-.794h-.794v-.8200000000000001l-.37-.397-.397-.37h-.8200000000000001v-1.588h-.53v8.466h-.265c-.132 0-.503.238-.794.529l-.529.529v.794h-1.588v-.238zM44.852 49.616l-.185-.794h-.476v-.794h-.794v-.794h-.794v-.794h-1.588v-.794h.979l.185-1.032a10 10 0 0 1 .317-1.455l.159-.423h-2.964v-.794l-1.376-.053a89 89 0 0 0-2.143-.053l-.767-.026-.37-.503-.37-.529.132-.45.159-.45-.423-.159-.397-.132v-.8200000000000001h.794v.794h2.9370000000000003l.397-.397.397-.397h1.826v-.53l.661-.159.661-.159v-.424l.794-.185.794-.185v-.265c0-.132.159-.423.37-.635l.397-.37h.8200000000000001v-.794h.53v-.794h.265c.159 0 .503-.238.794-.529l.529-.529v-1.032l.37-.212.397-.212.106-.926c.053-.503.238-1.191.423-1.508l.317-.609h1.006l.317.926.344.926h.688v.794h.794v1.27l.397.159.397.132v2.698l-.37.132-.397.159-.159.767-.185.767h-.476v.794h-.794l-.053.344c0 .159-.053.45-.079.582-.053.159-.079.397-.106.582l-.026.291-.529-.132-.503-.132-.423.423c-.238.238-.609.423-.82.423h-.37v8.202h-.794v.794h-.794v.794h-.74l-.185-.794Z"/><path d="M70.914 49.086v-.529h1.322v-.53h1.588v-.661l1.191-.529 1.191-.503v-.688H77v-.794h.53v-.794h.794v-.53h.794v-.794h.74l.159-1.402.185-1.402-.185-.45-.159-.45h-1.534v.503l-.503.159-.529.159-.079.45-.079.45-1.191-.079c-.661-.053-1.402-.132-1.64-.212l-.476-.132v-.767h-1.588v-.53h-.794v-.794h-1.322v-1.058h4.498v-.794h2.09l.159-.265.159-.265h1.322l.132-.397.159-.397h.979l.952-.926c.503-.529.926-1.058.926-1.191v-.265h.794v-.794h.476l.159-.661.159-.661h.794v.794h.291c.37 0 1.032.661 1.032 1.032v.291h.794v.794h.794v1.588h.794l.159.688.185.661-.185 1.191-.159 1.191-.397.397c-.212.238-.397.556-.397.767v.344l-.397.159-.397.132v1.349h-.794v.291c0 .37-2.249 2.619-2.619 2.619h-.291v.794H81.5v.794h-1.296l-.291.529-.291.529H78.59v.53h-1.534l-.159.397-.132.397h-2.143v.794h-3.704v-.529zM83.005 48.187l-.159-.397.397-.317.397-.317.291.291.317.317h-.634v.794h-.238c-.132 0-.291-.159-.37-.37zM11.383 46.837v-.397H9.928l-.317-.661-.291-.661h.74v-.846l.397.317.423.344-.132.37-.132.344h1.561v-.794h1.112l1.402-1.455 1.376-1.455h.608v-1.588h.794v-2.09l.265-.159.265-.159v-5.82l.291-.529.265-.529 1.296 1.27c1.376 1.376 2.593 2.434 2.778 2.461h1.19v.794h2.116v.8200000000000001l-.397.132-.397.159v1.218l-.397.159-.397.132v1.349h-.794v.74l-.661.159-.661.159-.159.661-.159.661h-.476v.794h-.265c-.132 0-.9.635-1.667 1.429l-1.429 1.455-.688.159-.714.185v.476h-2.143l-.132.397-.159.397h-2.858zM28.845 46.837v-.397h-.291c-.37 0-2.619-2.249-2.619-2.619v-.291h-.794v-.74l.661-.159.661-.159v-.265c0-.159.132-.265.265-.265.159 0 .503-.238.794-.529l.529-.529v-5.028h1.058v.582l.741-.185.767-.159.317.397.344.397-.159.503-.159.503.159.45.159.423h.74v.794h.794v.74l.397.159.397.132v1.349h.53v2.382h-.53v1.322h-.794v.794h-.794v.794h-3.174v-.397zM34.19 37.048l-.212-.423-.582-.053-.582-.026v-.688h-.423c-.476 0-.979-.45-1.244-1.111l-.159-.476h-.556v-.794h-.794v-.53h-.794v.794h-.794v-.265c0-.132-.238-.503-.529-.794s-.635-.529-.794-.529h-.265v-1.058h.794v-.53h.794v-.794h.37c.212 0 .476.132.556.265l.159.265h2.6189999999999998v-.53h.74l.159-.397.132-.397h1.349v-.794h3.174v.794h2.064l.291.794.265.794H42.6v-.794h.794v.794h.794v.53h.794v1.058h-.794v.53h-.794v.794H42.6v-.53h-.714l-.344.661-.344.661h-.714v.794h-.265c-.132 0-.503.238-.794.529s-.529.661-.529.794v.265h-1.588v.794h-2.8840000000000003l-.238-.397zm2.858-.926v-.265H38.9v-.291c0-.185.291-.582.661-.926s.661-.741.661-.9v-.265h.794v-.794h.794v-.794h.794v-.53h-2.9370000000000003l-.132-.397-.159-.397h-.74v-.794h-1.322v-.794h-2.9370000000000003l-.132.397-.159.397h-1.27v.794h-.794v.794h-3.174v.53h.794v.794h.794v.794h.794v.794h.794v.794h.794v.794h1.588v.53h2.646v-.265z"/><path d="M35.116 31.994c-.106-.106-.185-.529-.185-.952v-.741h1.6139999999999999l-.079.873-.079.847-.529.079-.556.079zM45.514 31.624v-.529h1.058v1.058h-1.058zM38.74 28.29c-.106-.291-.397-.714-.661-.952l-.476-.476h-4.55l-.609.661-.609.661h-2.99v-.794h-.794v-1.322h-1.852l-.529.529-.529.529v.767l-2.037-.106c-1.138-.053-3.069-.185-4.313-.265l-2.249-.185-.714-.291-.741-.317v-.661h-.794v-.794h-.53v.794h-.794v1.322h-.794v.794h-.794v-.794h-.794v-.53h-.794v-.794h-.794v-.291c0-.185-.212-.476-.476-.661l-.45-.344.582-.529c.317-.317.714-.556.873-.556h.265v-.794h.794v-3.704h-.794v-.794h-.794v-1.058h.794v-.53h.767c.423 0 .952-.053 1.164-.159l.37-.132-.132-.661-.106-.635h-.476v-.794h-.794v-2.116h-.794v-.794h.794v-.794h3.174v.53h1.058v-.794h1.322v.794h.238c.132 0 .37-.185.556-.397.185-.212.503-.397.688-.397h.37V9.9l2.514.053 2.54.079.132.212c.079.106.37.212.661.212h.503v.794h2.17l.132.529.132.529h.74v.265c0 .159.132.265.265.265h.265v-1.322h.794v-.794h.8200000000000001l.397.37c.212.212.37.503.37.661v.291h2.116v-1.322h.794v-.794h3.968v.794h.794v.794h-.794v-.794h-3.704v2.382h-3.174v-.794h-.794v-.794h-.794v1.322l-.529.529c-.291.291-.661.529-.794.529h-.265v2.116h.794v.794h.794v-.794h1.588v3.704h2.858l.159-.397.132-.397h.8200000000000001v2.382h-1.852v-.53h-2.116v-.794H28.84v7.408h2.9370000000000003l.159-.794.159-.82 3.334.079 3.334.079.079.741.079.714h2.8840000000000003v-5.292h.794v-1.322h.74l.106.82.132.82-.344.132-.344.132-.185 2.328-.159 2.355-.37.132-.37.132v.8200000000000001h-.847c-.476 0-1.138.079-1.455.159l-.609.159-.159-.476zm-26.564-1.693v-.794h.291c.37 0 1.032-.661 1.032-1.032v-.291h.979l.344.661.344.661h.714v.794h9.26v-.794h.53v-.794h2.382v-.53h-2.91v-2.382h.794v-.794h.53v-.794h.794v-.53h-2.116v-.794h-1.588v-.794h-.794v-.794h-.794v-.794h4.762v-.159c0-.291-1.799-1.958-2.117-1.958h-.265v.53h-.794v.794h-1.588v-.794h.794v-.794h1.534l.159-.397.132-.397h1.112l.397-.37c.212-.212.37-.503.37-.661v-.291h-2.116v-.794h-.794v1.138l-.952.873c-.503.503-1.058.9-1.191.9h-.238v-2.91h.794v-.794h-3.704v.794h.794v4.498h-1.588v-.794h.794v-1.322h-.794V13.1h-.794v-.794h-.794v-.794h-.794v.794h.794v3.704h-1.322v.794h2.91v.794h-.794v2.382h-.794v1.058l-.529.529c-.291.291-.635.529-.794.529h-.265v-2.91h.794v-.265c0-.132-.238-.503-.529-.794l-.529-.529H9.743l.106.344.132.317.688.079.714.079v4.4719999999999995h-.794v.794h-.794v.291c0 .185-.212.476-.45.661l-.476.344.397.026h.423l.45.529c.238.291.45.661.45.794v.265h.794v.794h.794v-.794zm1.587-11.774v-.397h.53v-1.852l-.529-.529-.529-.529h-2.646v.794h.794v2.116h.794v.794h1.588v-.397zM47.895 27.92v-.529h.794v1.058h-.794zM52.393 27.787v-.397h-.794v-.794h.794v-.794h.794v-.53h.794v-.794h-2.116v.794h-.794v.794h-.794v.794h-.794v.265c0 .159-.106.265-.265.265-.344 0-1.323-.979-1.323-1.323v-.265h.794v-2.116h-.794v.794h-.794v-.794h.794v-.794h.794v-.794h1.588v1.588h-.794v2.116h.794v-.291c0-.185.291-.582.661-.926l.661-.609v-1.8780000000000001h.794v-3.704h1.058v3.704h-.794v.291c0 .185.291.582.661.926s.661.741.661.9v.265h.794v-.794h.794v-4.498h.794v4.498h-.794v.794h-.794v.794h-.794v.794h-.8200000000000001l.159.265.159.265h1.244l.159-.397.132-.397h1.349v-.794h.794v-.53h.291c.37 0 2.619 2.249 2.619 2.619v.291h.794v-.794h.794v-5.292h-.794v1.588h-1.588v-1.349l.397-.132.397-.159v-1.534h.794v-1.322h.794v-.794h.794v-.794h-2.382v-.8200000000000001l1.005.079.979.079.291-.37.291-.37.582.582.556.556-.317.529-.344.529h-.661v.794h-.794v1.402l-.45.344-.476.344.476.026h.45v.794h.794v5.0009999999999994l-.926.952c-.952.926-1.455 1.164-1.455.661v-.265h-.794v-.794h-.794v-.794h-.794v-.794h-.53v.794h-.74l-.159.397-.132.397h-.767l-.106.291-.106.291-1.032.37c-.582.185-1.217.37-1.376.37h-.344zM47.26 27.47c-.079-.079-.159-.317-.159-.529v-.344h.794v.37c0 .212-.106.45-.238.529l-.212.132z"/><path d="M45.514 25.777c0-.185-.291-.582-.661-.926l-.661-.609v-2.9370000000000003h.794v-.794h.53v-3.704h-.53v-.794h-.74l-.159-.397-.132-.397h-.661c-.344 0-.82.079-1.058.159l-.423.159v3.652h-.265a.285.285 0 0 0-.265.265v.265h1.322v.794h-1.588v-.53h-1.322v.53h-3.174v-1.322h1.588v.53h1.322v-.794h1.588v-3.704h.794v-.794h2.382v-.53h-.794v-.794h-.794v-.794h-.794v-.794h-.794v1.588h-4.498v-1.588h.794v.53h2.91v-.794h.794v-.53h.8200000000000001l.397.37.37.397v.8200000000000001h.794v.794h.794v.53h.794v.794h.53v-3.704h.794V9.93h3.174v.794h.794v1.058l.503.503.503.503 1.746.106 1.746.106v-2.4080000000000004l.212-.317.185-.317 2.99-.079 2.963-.079v.661h.53v1.058h.794v1.588h-.794v-1.588h-.794v-.794h-5.292v2.858l-.423.159c-.238.079-1.244.159-2.249.159h-1.826v-.794h-.794v1.322h-.794v.794h-.794v-3.704h.794v-.794h-2.8840000000000003l-.079 2.196-.079 2.17-.714.079-.741.079v.767h1.588v5.292h-1.588v3.174h.74l.132.344.132.317.265-.37.265-.37.45.185.45.159-.635.661c-.317.37-.767.661-.926.661h-.344v-.291zM69.353 24.956l-.026-1.005h.846l-.265.344c-.132.159-.317.609-.397.979l-.106.661zM71.919 25.353l-.476-.106v-1.032h1.058v.661c0 .37-.026.635-.053.635-.053-.026-.291-.079-.529-.159zM71.443 21.702v-.397h1.058v.794h-1.058zM76.735 21.041v-.529h2.382v1.058h-2.382zM83.614 19.453v-.529h1.058v1.058h-1.058zM71.708 17.336v-.794h.53v1.588h-.53Z"/><path d="M52.393 16.013v-1.587h3.174v.794h-.794v.794h-.794v.794h-.794v.794h-.794v-1.587zM76.999 14.823v-1.984h-.794v-.979l.926-.159.926-.159.926.159.926.159v.979h-.794v3.968h-2.116zM32.549 14.955v-.265h-2.116v-1.058h9.79v.794h-2.116v.794h-5.556v-.265zM58.743 13.368v-.265h-.794v-1.588h1.588v2.116h-.794v-.265zM77.476 7.626 77 7.52v-.503h.794V5.959H77V4.901h.794V2.519h.53v2.382h.794v1.058h-.794v1.058h.794v.265c0 .159-.106.265-.238.265s-.397.053-.609.106a1.64 1.64 0 0 1-.794-.026z"/></g><g fill="#941d5e"><path d="m44.852 49.616-.185-.794h-.476v-.794h-.794v-.794h-.794v-.794h-1.588v-.794h.8200000000000001l.397-.37.37-.397v-2.143h-2.91v-.794H37.31v-.714l-.952-.291-.952-.291-.397.159-.397.159.159-.529.185-.556-.423-.159-.397-.132v-.8200000000000001h.794v.794h2.9370000000000003l.397-.397.397-.397h1.826v-.53l.661-.159.661-.159v-.424l.794-.185.794-.185v-.265c0-.132.159-.423.37-.635l.397-.37h.8200000000000001v-.794h.53v-.794h.265c.159 0 .503-.238.794-.529l.529-.529v-1.085l.397-.132.397-.159v-1.27h.794v-1.588h.794v.794h.794v.794h.794v.794h.794v1.27l.397.159.397.132v2.698l-.37.132-.397.159-.159.767-.185.767h-.476v.794h-.794v.53h-.794v.794h-.794v.767l-.582.185c-.344.106-.688.317-.794.476l-.212.291v7.541h-.53v.794h-.794v.794h-.74l-.185-.794zM57.155 49.483v-.661h-.794v-.265c0-.132-.238-.503-.529-.794s-.635-.529-.794-.529h-.265v-.794h-1.588v-.794h.794v-.53h.794v-6.8l-.026-6.826-.767-.661-.794-.635v-.688h.794v-.53h3.174v.794h.794v.794h.794v.661l.661.503.661.503v.714h-.53v2.7249999999999996l.847.767c.45.397.926.741 1.058.741.106 0 .212.132.212.265 0 .159.238.503.529.794l.529.529h1.322v.794h1.322v.794h2.382v.794h2.382v.794h-.952l-.317.317-.317.317v.952h-.291c-.159 0-.45.185-.661.397l-.397.397H66.15v.53h-2.116v-.53h-1.588v-.794h-.794v-.8200000000000001l-.37-.397-.397-.37h-.8200000000000001v-1.588h-.503l-.079 4.048-.079 4.075-.847.82c-.45.476-.952.847-1.111.847h-.291zM70.914 49.219v-.397h1.322v-.794h1.588v-.794h1.588v-.794h.794v-.794H77v-.794h.53v-.794h.794v-.53h.794v-.794h.794v-1.588h.794v-1.588h-.794v-.53h-1.588v.503l-.503.159-.503.159-.132.529-.159.529-.529-.265-.529-.291h-2.143v-.794h-1.588v-.53h-.794v-.794h-1.322v-1.058h4.498v-.794h2.09l.159-.265.159-.265h1.322l.132-.397.159-.397h.979l.952-.926c.503-.529.926-1.058.926-1.191v-.265h.794v-.794h.476l.159-.661.159-.661h.794v.794h.291c.37 0 1.032.661 1.032 1.032v.291h.794v.794h.794v1.588h.794v3.968h-.53l-.159.635-.159.661-.37.132-.37.132v1.349h-.794v.291c0 .37-2.249 2.619-2.619 2.619h-.291v.794h-.794v.794H80.15l-.132.397-.159.397h-1.534v.794h-1.27l-.159.397-.132.397h-2.143v.794h-3.704v-.397zM11.383 46.837v-.397H9.928l-.317-.661-.291-.661h.74v-.846l.397.317.423.344-.132.37-.132.344h1.561v-.794h1.112l1.402-1.455 1.376-1.455h.608v-1.588h.794v-2.09l.265-.159.265-.159v-5.82l.291-.556.291-.529 1.138 1.191c.635.661 1.455 1.402 1.826 1.64l.688.45v.74h.291c.159 0 .45.185.661.397l.397.397h2.355v.265c0 .159-.185.344-.397.423l-.397.159v1.218l-.397.159-.397.132v1.349h-.794v.74l-.661.159-.661.159-.159.661-.159.661h-.476v.794h-.265c-.132 0-.9.635-1.667 1.429l-1.429 1.455-.688.159-.714.185v.476h-2.143l-.132.397-.159.397h-2.858z"/><path d="m34.19 37.048-.212-.423-.582-.053-.582-.026v-.688h-.794v-.794h-.265c-.344 0-1.323-.979-1.323-1.323v-.265h-.794v-.53h-.794v.53h-.291c-.37 0-1.826-1.455-1.826-1.826v-.291h.265c.159 0 .265.132.265.265v.265h.794v-.265a.266.266 0 0 0-.265-.265h-.265v-.794h.53v-.794h.794v.794h2.91v.238c0 .344-.714.556-1.879.556h-1.032v.53h.794v.794h.794v.794h.794v.794h.794v.794h.794v.794h1.588v.53h2.646v-.53H38.9v-.291c0-.185.291-.582.661-.926s.661-.741.661-.9v-.265h.794v-.794h.794v-.794h.794v-.53H39.8l-.45-.529c-.238-.291-.45-.661-.45-.794v-.265h.74l.159.397.132.397h2.6719999999999997v-.794h.794v.794h.794v.53h.794v1.058h-.794v.53h-.794v.794h-.794v-.53h-.714l-.344.661-.344.661h-.714v.794h-.265c-.132 0-.503.238-.794.529s-.529.661-.529.794v.265h-1.588v.794h-2.8840000000000003zM62.447 35.46v-.397h-.794v-.794h-.794v-3.174h.794v-.53h.794v.53h.794v.794h.53v-2.91h.291c.185 0 .45-.185.635-.45l.317-.423.556.556c.317.317.582.714.582.847v.265h.8200000000000001l.397.37.37.397v.8200000000000001h.794v1.058l-.529.529-.529.529h-1.852v.979l-.661.714-.635.688h-1.8780000000000001v-.397ZM72.237 34.667v-.397h-1.588v-.291c0-.185-.291-.582-.661-.926l-.661-.609v-2.143h.53v-1.322h1.058v.265c0 .132.212.503.45.794l.45.529h1.218v.53h5.556v-.794h1.322v-.53h1.588v-.794h.794v.794h-.794v.794h-.794v.794h-.291c-.159 0-.82.529-1.482 1.191l-1.191 1.191h-.74v.53h-1.588v.794h-3.174v-.397zM25.141 31.624v-.529h.794v1.058h-.794ZM11.383 27.787v-.397h-.794v-.53h-.794v-.794h.794v.53h.794v.794h.794v-1.588h.291c.37 0 1.032-.661 1.032-1.032v-.291h.979l.344.661.344.661h.714v.794h9.26v-.794h.794v-.53h2.116v-.794h-2.91v-2.382h.794v-.794h.794v-.53h.794v-1.058h-2.382v-.53h-1.588v-.794h-.794v-.794h-.794v-.794h4.762v-.212c0-.106-.344-.503-.794-.847l-.767-.661-.026-.317v-.344h-.846l.106-.317.132-.344.609-.079c.661-.106 1.323-.635 1.323-1.085v-.291h-2.116v-.794h-.794v1.138l-.952.873c-.503.503-1.058.9-1.191.9h-.238v-2.91h.794v-.794h-3.704v.794h.794v4.498h-1.588v-.794h.794v-1.322h-.794v-.794h-.794v-.794h-.794v-.794h-.794v.794h.794v3.704h-1.588v.794h3.174v.794h-.794v2.382h-.794v1.058l-.529.529c-.291.291-.582.529-.661.529s-.132-.661-.132-1.455v-1.455h.265c.423 0 .317-.476-.265-1.058l-.529-.529H9.794v-.794h3.968v-.794h-1.588v-.794h-.794v-.794h-.794v-2.116h-.794v-.794h.794v-.794h3.174v.794h1.322v-.794h.794v.794h.794v.794h.794v.265c0 .159.132.265.265.265h.265v-1.322h-.53v-.794h.794v-.794h3.704v.794h.794v.794h.794v-.794h.794v.794h2.382v.794h.794v.265c0 .159.132.265.265.265h.265v-1.322h.794v-.794h.794v.794h.794v.53h2.116v-1.322h.794V9.93h3.968v.794h.794v.794h-.794v-.794h-3.704v2.382h-3.174v-.794h-.794v-.794h-.794v1.322l-.529.529c-.291.291-.635.529-.794.529h-.265v2.116h.794v.794h.794v-.794h1.588v3.704h-1.588v7.672h2.91l.159-.661.159-.661h6.826v1.322h2.91v-5.292h.794v-1.322h.74l.106.82.132.82-.344.132-.317.106-.185 2.275-.212 2.275-.476.476-.503.503h-2.566l-.423-.476c-.265-.265-.45-.609-.45-.767v-.238h-2.646l-2.646.026v.265c0 .159-.238.476-.529.741l-.529.45h-2.91v-.794h-.794v-1.322h-1.8780000000000001l-.609.661-.609.661h-8.44l-.714-.317-.714-.344v-.661h-.794v-.794h-.53v.794h-.794v1.322h-.794v.794h-.794v-.397zm2.381-12.965v-.397h.794v-2.116h-.8200000000000001l-.132-.397-.159-.397h-2.858v.794h.794v2.116h.794v.794h1.588v-.397zM52.393 27.787v-.397h-.794v-.794h.794v-.794h.794v-.53h.794v-.794h-.794v-.794h-.794v.794h-.53v.794h-.794v.846l-.317-.106a.83.83 0 0 1-.423-.423l-.106-.317h.846v-1.058h.53v-2.116h.794v.794h.265c.344 0 1.323.979 1.323 1.323v.265h.794v-.794h.794v-4.498h.794v4.498h-.794v.794h-.794v.794h-.794v.794h-.8200000000000001l.159.265.159.265h1.244l.159-.397.132-.397h1.349v-.794h.794v-.53h.291c.37 0 2.619 2.249 2.619 2.619v.291h.794v-.794h.794v-5.292h-.794v1.588h-1.588v-1.349l.397-.132.397-.159v-1.534h.794v-1.322h.794v-.794h.794v-.794h.794v.794h-.794v.794h-.794v1.402l-.45.344-.476.344.476.026h.45v.794h.794v5.0009999999999994l-.926.952c-.952.926-1.455 1.164-1.455.661v-.265h-.794v-.794h-.794v-.794h-.794v-.794h-.53v.794h-.794v.53h-1.588v.794h-1.322v.794h-1.058zM47.26 27.47c-.079-.079-.159-.317-.159-.529v-.344h.794V26.2c0-.503.132-.503.9.026l.635.397.185-.265c.079-.159.265-.291.423-.291h.238v.794h-.794v.53h-.74l-.159-.397c-.079-.212-.265-.397-.423-.397h-.265v.37c0 .212-.106.45-.238.529l-.212.132zM83.878 26.2v-.397h.794v.794h-.794Z"/><path d="M45.514 25.777c0-.185-.291-.582-.661-.926l-.661-.609v-2.9370000000000003h.794v-.794h.53v-3.704h-.53v-.794h-.74l-.159-.397-.132-.397h-.661c-.344 0-.82.079-1.058.159l-.423.159v3.652h-.265a.285.285 0 0 0-.265.265v.265h1.322v.794h-1.588v-.794h-1.322v-.503l.609-.079.582-.079.079-1.905.079-1.931h.767v-.794h2.382v-.53h-.794v-.794h-.794v-.794h-.794v-.794h-.794v1.588h-4.498v-1.588h.794v.53h2.91v-.53h.794v-.794h.8200000000000001l.397.37.37.397v.8200000000000001h.794v.794h.794v.53h.794v.794h.53v-3.704h.794v-.794h3.174v.794h.794v.794h-.794v1.322h.794v-.53h.37c.212 0 .423.106.476.238l.079.238 1.799.106 1.773.106v-2.276h.794v-.794h5.292v.794h.794v.794h.794v1.588h-.794v-1.588h-.794v-.794h-5.292v2.858l-.423.159c-.238.079-1.244.159-2.249.159h-1.826v-.794h-.794v1.322h-.794v.794h-.794v-3.704h.794v-.794h-2.8840000000000003l-.079 2.196-.079 2.17-.714.079-.741.079v.767h1.322v5.292h-1.322v3.174h.74l.132.344.132.317.265-.37.265-.37.45.185.45.159-.635.661c-.317.37-.767.661-.926.661h-.344v-.291zM8.631 25.247l-.529-.503.582-.529c.317-.291.688-.529.847-.529h.265v-.794h.794v-3.704h-.794v-.794h-.794V17.6h.74l.159.397.132.397h1.349v4.498h-.794v.794h-.794v.291c0 .185-.212.476-.45.661l-.476.344.476.026h.45v.794l-.317-.026c-.185 0-.582-.238-.847-.529zM32.02 23.686v-1.587h6.88v3.174h-6.88zM71.443 24.877v-.397h.794v.794h-.794zM83.614 24.877v-.397h1.058v.794h-1.058zM15.087 24.083v-.397h.794v-.794h.794v-.794h.794v-.794h.794v-.794h.794v3.968h-3.968v-.397ZM20.643 24.083v-.397h.53v-4.498h.794v.53h.794v1.588h.794v1.588h.794v1.588h-3.704v-.397zM83.085 23.29v-.397h1.588v.794h-1.588zM71.443 21.702v-.397h.794v.794h-.794zM83.799 21.914a.56.56 0 0 1-.185-.397v-.212h1.058v.794h-.344c-.212 0-.45-.079-.529-.185M76.999 20.908v-.397h2.116v.794h-2.116zM80.703 20.882v-.423l.423.159c.238.079.767.159 1.191.159h.767v.53h-2.382v-.423zM71.443 19.453v-.529h.74l.159.423c.238.609.212.635-.37.635h-.529zM74.565 19.797l-.476-.106v-1.7730000000000001l.397-.159.397-.132.053-1.535.053-1.535.079 1.455.106 1.455.529.476.503.476v1.561l-.582-.026c-.344-.026-.82-.079-1.058-.159zM79.91 19.189v-.767l.503-.476.529-.476.106-1.455.079-1.455.053 1.535.053 1.535.397.132.397.159v1.746l-.582.159c-.344.079-.82.159-1.058.159h-.476v-.794Z"/><path d="M33.449 18.024c-.079-.212-.106-.714-.053-1.138l.079-.741 2.328-.079 2.302-.079v2.4080000000000004h-4.524zM83.614 18.024v-.423h1.112l-.106.344-.132.317-.423.079-.45.079zM21.966 15.617v-.397h.794v-.53h1.588v.53h-.794v.794h-1.588zM59.272 15.617v-.397h-.53v-.794h2.91v-.238c0-.132-.185-.291-.397-.397-.212-.079-.397-.265-.397-.423v-.265h.794v.53h.794v1.058h-.794v.53h-1.349l-.132.397-.159.397h-.74zM70.914 12.706v-.397h.794v-1.826l-.45-.106-.476-.132.476-.026.45-.026V8.605h.53v1.561l.476.106.45.132-.503.026-.503.026.159 1.323.159 1.323h-1.561v-.397z"/></g><g fill="#a03655"><path d="m44.826 49.483-.159-.661h-.476v-.794h-.794v-.794h-.794v-.794h-1.588v-.794h.8200000000000001l.397-.37.37-.397v-2.143h-2.91v-.794H37.31v-.794h-.291c-.159 0-.45-.185-.661-.397l-.397-.397h-1.032v-.794h2.9370000000000003l.397-.397.397-.397h1.826v-.53l.661-.159.661-.159v-.424l.794-.185.794-.185v-.265c0-.132.159-.423.37-.635l.397-.37h.8200000000000001v-.794h.53v-.794h.265c.159 0 .503-.238.794-.529l.529-.529v-1.085l.397-.132.397-.159v-1.27h.794v-1.588h.794v.794h.794v.794h.794v.794h.794v1.27l.397.159.397.132v2.698l-.37.132-.397.159-.159.767-.185.767h-.265c-.344 0-1.005.688-1.005 1.032v.291h-.794v.794h-.794v.794h-1.588v8.466h-.53v.794h-1.058v.265c0 .159-.106.265-.265.265h-.265l-.159-.661zM57.155 49.483v-.661h-.794v-.265c0-.132-.238-.503-.529-.794s-.635-.529-.794-.529h-.265v-.794h-1.588v-.794h.794v-.53h.794v-6.8l-.026-6.826-.767-.661-.794-.635v-.688h.794v-.53h3.174v.794h.794v.794h.794v.661l.661.503.661.503v.714h-.53v2.7249999999999996l.847.767c.45.397.926.741 1.058.741.106 0 .212.132.212.265 0 .159.238.503.529.794l.529.529h1.322v.794h1.322v.794h2.382v.794h2.116v.661l-.582.265-.609.265-.079.609-.079.582h-.265c-.159 0-.45.185-.661.397l-.397.397h-1.032v.53h-2.116v-.53h-1.588v-.794h-.794v-.8200000000000001l-.37-.397-.397-.37h-.8200000000000001v-1.588h-.503l-.079 4.048-.079 4.075-.847.82c-.45.476-.952.847-1.111.847h-.291v-.661zM70.914 49.219v-.397h1.588v-.794h1.322v-.794h1.588v-.794h.794v-.794H77v-.794h1.322V43.53h.794v-.794h.794v-1.588h.794V39.56h-.794v-.53h-1.588v.44999999999999996l-1.058.185-1.058.159v.53h-2.382v-.794h-1.588v-1.322H70.12V37.18h4.498v-.794h2.09l.159-.265.159-.265h1.322l.132-.397.159-.397h.979l.952-.926c.503-.529.926-1.058.926-1.191v-.265h.794v-.794h.476l.159-.661.159-.661h.794v.794h.291c.37 0 1.032.661 1.032 1.032v.291h.794v.794h.794v1.588h.794V38l-.397.397-.397.397v1.508l-.397.159-.397.132v1.349h-.794v.291c0 .37-2.249 2.619-2.619 2.619h-.291v.794h-.794v.794h-1.349l-.132.397-.159.397h-1.534v.794h-1.27l-.159.397-.132.397h-2.143v.794h-3.704zM11.383 46.837v-.397h-1.112l.106-.317.132-.344.82-.079.847-.079v-.767h1.138l.556-.609.582-.635.714-.185.714-.159v-1.322h.794v-1.588h.794v-2.143l.397-.132.397-.159V31.44l.185-.159.159-.185 1.296 1.323c.688.714 1.27 1.429 1.27 1.561v.291h1.058v.794h.291c.159 0 .45.185.661.397l.397.397h2.355v.265c0 .159-.185.344-.397.423l-.397.159v1.218l-.397.159-.397.132v1.349h-.794v.74l-.661.159-.661.159-.159.661-.159.661h-.476v.794h-.265c-.132 0-.9.635-1.667 1.429l-1.429 1.455-.688.159-.714.185v.476H14.53l-.132.397-.159.397h-2.858v-.397zM28.845 46.837v-.397h-.291c-.37 0-2.619-2.249-2.619-2.619v-.291h-.794v-.74l.661-.159.661-.159v-.265c0-.159.132-.265.265-.265.159 0 .503-.238.794-.529l.529-.529v-5.028h.8200000000000001l.397.37.37.397v.8200000000000001h.794v.794h.794v.53h.794v.794h.794v.74l.397.159.397.132v1.349h.53v2.382h-.53v1.322h-.794v.794h-.794v.794h-3.174v-.397z"/><path d="m34.19 37.048-.212-.423-.582-.053-.582-.026v-.688h-.794v-.794h-.265c-.344 0-1.323-.979-1.323-1.323v-.265h-.794v-.53h.794v.53h.794v.794h.794v.794h.794v.794h1.588v.53h2.646v-.53H38.9v.794h-1.588v.794h-2.8840000000000003zM62.447 35.46v-.397h-.794v-.794h-.794v-3.174h.794v-.53h.794v.53h.794v.794h.53v-2.91h.291c.185 0 .45-.185.635-.45l.317-.423.556.556c.317.317.582.714.582.847v.265h.8200000000000001l.397.37.37.397v.8200000000000001h.794v1.058l-.529.529-.529.529h-1.852v.979l-.661.714-.635.688h-1.8780000000000001v-.397Zm2.805-2.646.053-.688-.582.185c-.291.106-.609.212-.661.265-.132.132.609.873.9.9h.265l.026-.661zM72.237 34.667v-.397h-1.588v-.291c0-.185-.291-.582-.661-.926l-.661-.609v-2.143h.53v-1.322h1.058v.265c0 .132.212.503.45.794l.45.529h1.218v.53h5.556v-.53h1.322v-.794h1.588v-.794h.794v.794h-.794v.794h-.794v.794h-.291c-.159 0-.82.529-1.482 1.191l-1.191 1.191h-.74v.53h-1.588v.794h-3.174v-.397zM28.051 26.597v-.794h-2.116v-.53h2.116v-1.058h-2.91v-2.116h.794v-.794h.794v-.53h.794v-1.058h-2.382v-.794h-1.322v-.53h-1.058v-.794h-.794v-.794h4.762v-.212c0-.106-.344-.503-.794-.847l-.767-.661-.026-.317v-.344h-.846l.106-.317.132-.344.609-.079c.661-.106 1.323-.635 1.323-1.085v-.291H24.35v-.794h-.794v1.138l-.952.873c-.503.503-1.058.9-1.191.9h-.238v-2.91h.794v-.794h-3.704v.794h.794v4.498h-1.588v-.53h.794v-1.588h-.794v-.794h-.794v-.794h-.794v-.794h-.794v.794h.794v3.704h-1.588v.794h3.174v.794h-.794v2.382h-.794v1.058l-.529.529c-.291.291-.582.529-.661.529s-.132-.661-.132-1.455v-1.455h.265c.423 0 .317-.476-.265-1.058l-.529-.529H9.796v.794h-.794V17.6h.794v-.794h3.968v-.794h-1.588v-.794h-.794v-.794h-.794v-2.116h-.794v-.794h.794v-.794h3.174v.794h1.322v-.794h.794v.794h.794v.794h.794v.794h.794v-1.588h-.794v-.794h.794v-.794h3.704v.794h.794v.794h.794v-.794h.794v.794h2.382v.794h.794v.265c0 .159.132.265.265.265h.265v-1.322h.794v-.794h.794v.794h.794v.53h2.116v-1.322h.794V9.93h3.968v.794h.794v.794h-.794v-.794h-3.704v2.382h-3.174v-.794h-.794v-.794h-.794v1.322l-.529.529c-.291.291-.635.529-.794.529h-.265v2.116h.794v.794h1.058v-.794h1.322v3.704h-1.588v7.672h-.794v-.794ZM13.763 14.823v-.397h.794V12.31h-.8200000000000001l-.132-.397-.159-.397h-2.858v.794h.794v2.116h.794v.794h1.588v-.397z"/><path d="m44.667 24.639-.476-.344v-2.99h.794v-.794h.794v-3.704h-.794v-.794h-.74l-.159-.397-.132-.397h-.661c-.344 0-.82.079-1.058.159l-.423.159v3.386h-.53v-3.704h.53v-.794h2.382v-.53H43.4v-.794h-.794v-.794h-.794v-.794h-.794v1.588H36.52v-1.588h.794v.53h2.91v-.53h.794v-.794h.794v.794h.794v.794h.794v.794h.794v.53h.794v.794h.53v-3.704h.794v-.794h3.174v.794h.794v.794h-.794v1.322h.794v-.53h.37c.212 0 .423.106.476.238l.079.238 1.799.106 1.773.106v-2.276h.794v-.794h5.292v.794h.794v.794h.794v1.588h-.794v-1.588h-.794v-.794h-5.292v2.858l-.423.159c-.238.079-1.244.159-2.249.159h-1.826v-.794h-.794v1.322h-.794v.794h-.794v-3.704h.794v-.794h-2.8840000000000003l-.079 2.196-.079 2.17-.714.079-.741.079v.767h1.322v5.292h-1.322v3.174h.265c.159 0 .265.132.265.265 0 .344-.291.317-.847-.106zM70.914 14.188v-.556h1.6139999999999999l-.079.476-.079.45-.741.079-.714.079v-.529zM70.914 12.706v-.397h.794v-1.826l-.45-.106-.476-.132.476-.026.45-.026V8.605h.53v1.667c0 .9.079 1.905.159 2.249l.159.582h-1.64v-.397zM83.799 11.807l.159-1.296-.503-.132-.503-.132.476-.026.45-.026V8.607h.53v1.561l.476.106.45.132-.45.026-.476.026v1.852h.794v.794h-1.561l.159-1.296z"/></g><g fill="#ad2c65"><path d="m44.826 49.483-.159-.661h-.476v-.794h-.794v-.794h-.794v-.794h-1.588v-.794h.8200000000000001l.397-.37.37-.397v-2.143h-2.91v-.794H37.31v-.794h-.291c-.159 0-.45-.185-.661-.397l-.397-.397h-1.032v-.794h2.9370000000000003l.397-.397.397-.397h1.826v-.53l.661-.159.661-.159v-.424l.794-.185.794-.185v-.476h.794v-.794h.794v-.794h.794v-.291c0-.185.291-.582.661-.926l.661-.609v-1.112l.397-.132.397-.159v-1.27h.794v-1.588h.794v.794h.794v.794h.794v.794h.794v1.27l.397.159.397.132v2.698l-.37.132-.397.159-.159.767-.185.767h-.265c-.344 0-1.005.688-1.005 1.032v.291h-.794v.794h-.794v.794h-1.588v8.466h-.53v.794h-1.058v.265c0 .159-.106.265-.265.265h-.265l-.159-.661zM57.155 49.483v-.661h-.794v-.265c0-.132-.238-.503-.529-.794s-.635-.529-.794-.529h-.265v-.794h-1.588v-.794h.794v-.53h.794v-13.52l-.661-.609c-.37-.344-.661-.741-.661-.926v-.291h.53v-.794h3.174v.794h.794v.794h.794v.661l.661.503c.37.265.661.609.661.714v.238h-.794v3.174h.265c.159 0 .503.238.794.529s.529.661.529.794v.265h.291c.185 0 .582.291.926.661l.609.661h1.349v.794h1.322v.794h2.382v.794h2.116v.661l-.582.265-.609.265-.079.609-.079.582h-.265c-.159 0-.45.185-.661.397l-.397.397H66.15v.53h-1.8780000000000001l-.609-.661-.609-.661h-1.402v-.8200000000000001l-.37-.397-.397-.37h-.8200000000000001v-1.588h-.794v8.256l-.767.767c-.423.423-.9.767-1.058.767h-.291v-.661zM70.914 49.219v-.397h1.588v-.794h1.322v-.794h1.588v-.794h.794v-.794H77v-.794h1.322V43.53h.794v-.794h.794v-1.588h.794V39.56h-.794v-.794h-1.588v.714l-1.058.185-1.058.159v.53h-2.382v-.794h-1.588v-1.27l-.794-.185-.794-.185v-.212c0-.317 1.032-.529 2.593-.529h1.376v-.794h2.09l.159-.265.159-.265h1.322l.132-.397.159-.397h.979l.952-.926c.503-.529.926-1.058.926-1.191v-.265h.794v-.794h.476l.159-.661.159-.661h.794v.794h.291c.37 0 1.032.661 1.032 1.032v.291h.794v.794h.794v1.588h.794v2.9370000000000003l-.397.397-.397.397v1.508l-.397.159-.397.132v1.349H85.2v.291c0 .37-2.249 2.619-2.619 2.619h-.291v.794h-.794v.794h-1.349l-.132.397-.159.397h-1.534v.794h-1.27l-.159.397-.132.397h-2.143v.794h-3.704v-.397zM11.383 46.837v-.397h-1.112l.106-.317.132-.344.82-.079.847-.079v-.767h1.138l.556-.609.582-.635.714-.185.714-.159v-1.322h.794v-1.588h.794v-2.143l.397-.132.397-.159V31.44l.185-.159.159-.185 1.296 1.323c.688.714 1.27 1.429 1.27 1.561v.291h.794v.794h.8200000000000001l.397.397.397.397h2.355v.265c0 .159-.185.344-.397.423l-.397.159v1.218l-.397.159-.397.132v1.349h-.794v.74l-.661.159-.661.159-.159.661-.159.661h-.476v.794h-.265c-.132 0-.9.635-1.667 1.429l-1.429 1.455-.688.159-.714.185v.476h-2.143l-.132.397-.159.397h-2.858v-.397zM28.845 46.837v-.397h-.291c-.37 0-2.619-2.249-2.619-2.619v-.291h-.794v-.74l.661-.159.661-.159v-.265c0-.159.132-.265.265-.265.159 0 .503-.238.794-.529l.529-.529v-5.028h.794v.794h.794v.794h.794v.794h.794v.53h.794v.794h.794v.74l.397.159.397.132v1.349h.53v2.382h-.53v1.322h-.794v.794h-.794v.794h-3.174v-.397z"/><path d="m34.19 37.048-.212-.423-.582-.053-.582-.026v-.688h-.794v-.794h-.265c-.344 0-1.323-.979-1.323-1.323v-.265h-.794v-.53h.794v.53h.794v.794h.794v.794h.794v.794h1.322v.794h3.174v-.794h1.588v.794H37.31v.794h-2.8840000000000003l-.238-.397ZM72.237 34.667v-.397h-1.588v-.291c0-.185-.291-.582-.661-.926l-.661-.609v-1.8780000000000001h.794v-1.588h.794v.265c0 .132.212.503.45.794l.45.529h1.218v.794h5.318l.132-.397.159-.397h1.27v-.794H81.5v-.794h.794v.794H81.5v.794h-.794v.794h-.291c-.159 0-.82.529-1.482 1.191l-1.191 1.191h-.74v.53h-1.588v.794H72.24v-.397zM41.28 33.185c0-.37.661-1.032 1.032-1.032h.291v.53h.794v.794h-.794v-.53h-.794v.265c0 .159-.106.265-.265.265h-.265v-.291zM35.116 31.994c-.106-.106-.185-.476-.185-.82v-.609h1.6139999999999999l-.079.741-.079.714-.529.079-.556.079-.185-.185zM27.522 30.777c0-.132.132-.212.265-.212h.265v-.794h.794v.794h2.91v.556l-2.117-.079-2.117-.079zM32.02 30.169c0-.079.212-.37.45-.661l.45-.529h1.218v-.794h3.174v.794h1.032l.132.238.159.238-.423.159c-.238.079-.529.159-.661.159h-.238v-.794h-2.9370000000000003l-.132.397-.159.397h-1.27v.53h-.397c-.212 0-.397-.053-.397-.132zM11.383 27.787v-.397h.794v-1.322h.794v1.322h-.794v.794h-.794zM47.895 27.787v-.397h.794v.794h-.794zM60.066 27.787v-.397h.794v-.794h.794v-5.292h-.794v1.588h-1.588v-1.376l.529-.132.529-.132v-1.27h.265c.159 0 .265.132.265.265v.265h.794v.794h.794v5.0009999999999994l-.926.952c-.529.503-1.058.926-1.191.926h-.265zM47.26 27.47c-.079-.079-.159-.317-.159-.529v-.344h.794v-.846l.317.106c.159.053.37.265.423.423l.106.317h-.846v.37c0 .212-.106.45-.238.529l-.212.132zM28.051 26.597v-.794h-2.116v-.53h2.116v-1.058h-2.91v-2.116h.794v-.794h.794v-.53h.794v-1.058h-2.382v-.794h-1.322v-.53h-1.058v-.794h-.794v-.794h4.762v-.212c0-.106-.344-.503-.794-.847l-.767-.661-.026-.317v-.344h-.846l.106-.317.132-.344.609-.079c.661-.106 1.323-.635 1.323-1.085v-.291H24.35v-.794h-.794v1.138l-.952.873c-.503.503-1.058.9-1.191.9h-.238v-2.91h.794v-.794h-3.704v.794h.794v2.91h-.794v-.53h-.794v-.794h-.794v-.794h-.794v-.794h-.794v.794h.794v3.704h-1.588v.794h3.174v.794h-.794v2.382h-.794v1.058l-.529.529c-.291.291-.582.529-.661.529s-.132-.661-.132-1.455v-1.455h.53v-.794h-.53v-1.112l-.82.159c-.45.079-1.535.159-2.381.159H9.797v.794h-.794v-.794h.794v-.794h3.968v-.794h-1.588v-.794h-.794v-.794h-.794v-2.116h-.794v-.794h.794v-.794h3.174v.794h1.322v-.794h.794v.794h.794v.794h.794v.794h.794v-1.588h-.794v-.794h.794v-.794h3.704v.794h.794v.794h.794v-.794h.794v.794h2.382v.794h.794v.265c0 .159.132.265.265.265h.265v-1.322h.794v-.794h.794v.794h.794v.794h2.382v-1.588h.53v-.794h3.968v.794h.794v.794h-.794v.794h2.91v-.794h.794v-.794h.794v.794h.794v.794h.794v.794h.794v.53h.794v.794h.53v-3.704h.794v4.498h-1.322v.794h1.322v5.292h-1.322v3.122l.344.132.317.106-.185.185-.159.185-.556-.344-.556-.344v-3.043h.794v-.794h.794v-3.704h-.794v-.794h-.74l-.159-.397-.132-.397h-.661c-.344 0-.82.079-1.058.159l-.423.159v3.386h-.53V15.22h.53v-.794h2.382v-.53h-.794v-.794h-.794v-.794h-.794v-.794h-.794v1.588h-4.498v-1.588h.794v-.794h-3.704v2.382h-3.174v-.794h-.794v-.794h-.794v1.322l-.529.529c-.291.291-.635.529-.794.529h-.265v2.116h.794v.794h1.058v-.794h1.322v3.704h-1.588v7.672h-.794v-.794ZM13.763 14.823v-.397h.794V12.31h-.8200000000000001l-.132-.397-.159-.397h-2.858v.794h.794v2.116h.794v.794h1.588v-.397z"/><path d="M41.81 24.745v-2.646h.794v5.292h-.794zM54.827 26.279l.132-.344.688-.079.714-.079v-.503h.794v.794h-.794v.53h-1.64l.106-.317zM71.443 26.2v-.397h.794v.794h-.794zM50.462 25.882a.56.56 0 0 1-.185-.397v-.212h.794v.794h-.212a.56.56 0 0 1-.397-.185M9.001 25.538v-.265h.794v.53h-.794ZM48.689 24.745v-1.058h-.794v.794h-.794v-.794h.794v-.794h.794v-.794h1.588v1.588h-.794v2.116h-.794zM53.981 24.877v-.397h-.794v-.794h-.794v.794h-.53v-2.382h.53v.794h.265c.344 0 1.323.979 1.323 1.323v.265h.794v.794h-.794ZM32.02 23.554v-1.455h6.614v2.91H32.02zM15.351 23.951c0-.132.132-.265.265-.265h.265v-.794h.794v-.794h.794v-.794h.794v-.265c0-.132.132-.265.265-.265h.265v3.44h-3.44v-.265zM54.774 23.951v-.265h.794v-4.498h.794v4.498h-.794v.53h-.794zM9.795 23.29v-.397h.794v-3.968h-.265a.266.266 0 0 1-.265-.265v-.265h1.322v4.498h-.794v.794h-.794v-.397zM68.797 23.448c0-.132.185-.317.423-.397l.423-.159.238.159.238.132-.132.265-.159.238h-1.032zM71.496 23.369l.132-.344.688-.079.714-.079v.8200000000000001h-1.64zM83.085 23.29v-.397h1.322v.794h-1.322zM85.995 20.406v-.423h1.322v.265c0 .159-.106.265-.238.265s-.423.079-.661.159l-.423.159v-.423zM48.689 18.262v-2.249h1.588v4.498h-1.588zM61.045 19.532c-.106-.079-.185-.397-.185-.661v-.476h.794v-.794h.794v-.794h.794v.794h-.794v.794h-.794v1.322h-.212a.56.56 0 0 1-.397-.185M76.999 17.998v-.397h.794v.794h-.794zM78.322 17.998v-.397h.794v.794h-.794zM33.396 17.151l.079-1.005 2.196-.079 2.17-.079v2.143h-4.524l.079-.979zM32.814 14.823v-.397h-2.382v-.53h9.79v.53h-2.116v.794h-5.292zM48.689 13.368v-1.852h.794v-.794h-2.91v-.794h2.91v.794h.794v.794h-.794v1.322h.794v-.53h.37c.212 0 .423.106.476.238l.079.238 1.799.106 1.773.106V10.72h.794v-.794h5.292v.794h.794v.794h.794v1.588h-.794v-1.588h-.794v-.794h-5.292v2.858l-.423.159c-.238.079-1.244.159-2.249.159H51.07v-.794h-.794v1.322h-.794v.794h-.794v-1.852z"/><path d="M61.336 13.923c-.582-.582-.609-.82-.079-.82h.397v.53h.794v.794l-.317-.026c-.185 0-.556-.212-.794-.476zM70.914 12.706v-.397h.53v.794h-.53zM76.205 12.071v-.212l.926-.159.926-.159.926.159.926.159v.44999999999999996h-3.704zM83.482 10.457l-.529-.238h.476l.45-.026V8.605h.53v1.588l.476.026h.45l-.529.238c-.291.132-.582.238-.661.238s-.37-.106-.661-.238z"/></g><g fill="#b53e5d"><path d="m44.826 49.483-.159-.661h-.476v-.794h-.794v-.794h-.794v-.794h-.794v-.37c0-.212.185-.556.397-.794l.397-.397v-2.143h-2.91v-.794h-2.382v-.794h-.265c-.132 0-.503-.212-.794-.45l-.529-.45v-.688h2.143l.397-.397.397-.397h1.826v-.53l.661-.159.661-.159v-.424l.794-.185.794-.185v-.476h.794v-.794h.794v-.794h.794v-.291c0-.185.291-.582.661-.926l.661-.609v-1.112l.397-.132.397-.159v-1.27h.794v-1.588h.794v.794h.794v.794h.794v.794h.794v1.27l.397.159.397.132v2.698l-.37.132-.397.159-.159.767-.185.767h-.265c-.344 0-1.005.688-1.005 1.032v.291h-.794v.794h-.794v.794h-1.588v8.466h-1.322l-.159.661-.159.661h-.476l-.159-.661zM57.155 49.483v-.661h-.794v-.265c0-.132-.238-.503-.529-.794s-.635-.529-.794-.529h-.265v-.794h-.794v-1.322h.794v-13.52l-.661-.609c-.37-.344-.661-.741-.661-.926v-.291h.53v-.794h3.174v.794h.794v.794h.794v.661l.661.503c.37.265.661.609.661.714v.238h-.794v3.174h.265c.159 0 .503.238.794.529s.529.661.529.794v.265h.291c.185 0 .582.291.926.661l.609.661h1.349v.794h1.322v.794h2.382v.794h2.116v.74l-.45.159a9 9 0 0 0-1.058.503l-.609.317v1.218l-.794.159-.794.159v.44999999999999996h-1.8780000000000001l-.609-.661c-.344-.37-.741-.661-.926-.661h-.291v-.74l-.661-.159-.661-.159-.159-.661-.159-.661h-.74v-.794h-.794v8.256l-.767.767c-.423.423-.9.767-1.058.767h-.291v-.661zM72.66 48.928c-.079-.238-.159-.529-.159-.661v-.238h1.322v-.794h1.588v-.794h.794v-.794h.794v-.794h1.322v-1.322h.794v-.794h.794v-1.588h.794v-1.588h-.794v-.794h-1.588v.714l-1.058.185-1.058.159v.53h-2.382v-.794h-.291c-.185 0-.582-.291-.926-.661l-.582-.635-.688-.185c-1.508-.37-.423-.9 1.905-.9h1.376v-.794h2.09l.159-.265.159-.265h1.322l.132-.397.159-.397h.979l.952-.926c.503-.529.926-1.058.926-1.191v-.265h.794v-.794h.476l.159-.661.159-.661h.794v.794h.291c.37 0 1.032.661 1.032 1.032v.291h.794v.794h.794v1.588h.794V38l-.397.397-.397.397v1.508l-.397.159-.397.132v1.349h-1.032l-1.349 1.323-1.323 1.349v1.032h-.794v.794h-1.349l-.132.397-.159.397h-1.534v.794h-1.27l-.159.397-.132.397h-2.9370000000000003v.53h-1.006zM11.383 46.837v-.397h-1.112l.106-.317.132-.344.82-.079.847-.079v-.767h2.382v-.291c0-.185.291-.582.661-.926l.661-.609v-1.085h.794v-1.588h.794v-2.143l.397-.132.397-.159v-6.482l.185-.159.159-.185 1.296 1.323c.688.714 1.27 1.429 1.27 1.561v.291h.794v.794h.8200000000000001l.397.397.397.397h2.355v.265c0 .159-.185.344-.397.423l-.397.159v1.218l-.397.159-.397.132v1.349h-.794v.74l-.661.159-.661.159-.159.661-.159.661h-1.27v.794h-.238c-.132 0-.688.397-1.191.9l-.952.873v1.085l-.794.185-.794.185v.476h-2.143l-.132.397-.159.397h-2.858v-.397zM28.845 46.599v-.635l-.397-.159-.397-.132v-.8200000000000001l-.317-.026a3 3 0 0 0-.688 0l-.317.053-.397-.397c-.212-.212-.397-.503-.397-.661v-.291h-.794v-.794h2.116v-1.349l.397-.132.397-.159v-5.238h.794v.794h.794v.794h.794v.794h.794v.53h.794v.794h.794v1.402l.661.609.661.609v2.143h-.53v1.322h-.794v.794h-.794v.794h-3.174v-.635z"/><path d="M62.447 35.46v-.397h-.794v-.794h-.794v-2.91h.794v-.794h.794v.794h.794v.53h.794v-2.6719999999999997l.503-.529.503-.556.556.556c.317.317.556.688.556.82v.265h.794v.794h.794v.794h.794v1.058l-.529.529-.529.529h-1.852v.979l-.661.714-.635.688h-1.8780000000000001v-.397Zm2.805-2.646.053-.688-.582.185c-.291.106-.609.212-.661.265-.132.132.609.873.9.9h.265l.026-.661zM73.031 34.667v-.397h-2.382v-.291c0-.185-.291-.582-.661-.926l-.661-.609v-1.8780000000000001h.794v-1.588h.794v.265c0 .132.212.503.45.794l.45.529h1.218v.794h5.318l.132-.397.159-.397h1.27v1.032l-.926.952-.952.926h-1.826v.794h-.794v.794h-2.382v-.397zM28.051 24.612v-.397h-2.91v-2.116h.794v-.794h.794v-.53h.794v-1.058h-2.382v-.794h-1.058l-.529-.529-.503-.503.185-.106c.106-.053.926-.265 1.852-.45l1.64-.344v-.608l-.794-.635-.767-.661-.026-.476v-.476l.661-.609c.37-.344.661-.741.661-.926v-.291h-2.116v-.794h-.794v1.138l-.952.873c-.503.503-1.058.9-1.191.9h-.238v-2.91h.794v-.794h-3.704v.794h.794v2.91h-.794v-.53h-.794v-.794h-.794v-.794h-.794v-.794h-.794v.794h.794v3.704h-1.6139999999999999l.079.476.079.45 1.455.159c.794.079 1.323.159 1.191.185-.159.026-.476.397-.741.82l-.45.767.053.503v1.244l-.053.741-.397-.317-.397-.317v1.376h-.53v-2.91h.53v-.794h-.53v-1.006l-1.984.132-1.984.159v-.873h3.228l-.132-.582-.159-.582.132-.609.159-.609h.74v-2.116h-.8200000000000001l-.132-.397-.159-.397h-2.858v.794h-.794v-.794h.794v-.794h3.174v.794h1.322v-.794h.794v.794h.794v.794h.794v.794h.794v-1.588h-.794v-.794h.794v-.794h3.704v.794h.794v.794h.794v-.794h.794v.794h2.382v.794h.794v.265c0 .159.132.265.265.265h.265v-1.322h.794v-.794h.794v.794h.794v.794h2.382v-1.588h.53v-.794h3.968v.794h.794v.794h-.794v.794h2.91v-.794h.794v-.794h.794v.794h.794v.794h.794v.794h.794v.53h.794v.794h.53v-3.704h.794v4.498h-1.349l-.397-.37c-.212-.212-.37-.503-.37-.661v-.291H43.4v-.794h-.794v-.794h-.794v-.794h-.794v1.588H36.52v-1.588h.794v-.794H33.61v2.382h-3.174v-.794h-.794v-.794h-.794v1.322l-.529.529c-.291.291-.635.529-.794.529h-.265v2.116h.794v.794h1.058v-.53h1.006l.159.423c.079.238.159 1.005.159 1.72v1.296h-1.588v5.292h-.794v-.397zM74.089 18.818v-.9l.397-.159.397-.132.053-1.535.053-1.535.079 1.455.106 1.455.529.476.503.476v1.296H74.09v-.9zM77.343 13.712c-.185-.053-.344-.238-.344-.37v-.238h2.116v.238c0 .45-1.058.661-1.773.37zM76.999 9.293v-.635l.529-.132.529-.132.529.132.529.132v1.27h-2.116z"/></g><g fill="#b83169"><path d="m44.932 49.033-.079-1.138-.714.079-.741.079v-.8200000000000001h-.794v-.794h-.794v-.37c0-.212.185-.556.397-.794l.397-.397v-2.143h-2.91v-.794h-1.588v-.794h-1.322l-.529-.45-.529-.45v-.688h2.143l.397-.397.397-.397h1.826v-.53l.661-.159.661-.159v-.424l.794-.185.794-.185v-.476h.794v-.794h.794v-.794h.794v-.291c0-.185.291-.582.661-.926l.661-.609v-1.112l.397-.132.397-.159v-1.27h.794v-1.588h.794v.794h.794v.794h.794v.794h.794v1.27l.397.159.397.132v2.698l-.37.132-.397.159-.159.767-.185.767h-.265c-.344 0-1.005.688-1.005 1.032v.291h-1.588v.794h-.794v.794h-.794v8.466h-1.322l-.159.661-.159.661h-.44999999999999996l-.079-1.111zM57.155 48.742v-.609l-.873-.847-.873-.847h-1.428v-1.322h.794v-13.52l-.661-.609c-.37-.344-.661-.741-.661-.926v-.291h.53v-.794h3.174v.794h.794v.794h.794v.661l.661.503c.37.265.661.609.661.714v.238h-.794v3.174h.265c.159 0 .503.238.794.529s.529.661.529.794v.265h.291c.185 0 .582.291.926.661l.609.661h1.349v.8200000000000001l.37.397.397.37h2.9370000000000003v.794h2.116v.74l-.45.159a9 9 0 0 0-1.058.503l-.609.317v.661h-.291c-.185 0-.582.291-.926.661l-.609.661h-1.64l-.609-.661c-.344-.37-.741-.661-.926-.661h-.291v-.74l-.661-.159-.661-.159-.159-.661-.159-.661h-.74v-.794h-.794v7.672h-.291c-.185 0-.582.291-.926.661-.767.82-.9.82-.9.053zM72.66 48.928c-.079-.238-.159-.529-.159-.661v-.238h2.064l.317-.397c.185-.212.503-.397.688-.397h.37l.529-.529c.291-.291.529-.635.529-.794v-.265h.794v-.291c0-.37.661-1.032 1.032-1.032h.291v-.794h.794v-2.382h.794V39.56h-.794v-.794h-2.01l-.45.529-.45.529h-.794v.53h-1.588v-.794h-1.402l-.609-.661-.582-.635-.688-.185c-1.561-.37-.423-.9 2.037-.9h1.508v-.53h2.116v-.794h1.349l.132-.397.159-.397h.979l.952-.926c.503-.529.926-1.058.926-1.191v-.265h.794v-.53h.794v-.714h1.428l.344.344c.185.185.344.45.344.609v.291h.794v.794h.794v1.588h.794v3.174h-.53l-.159.661-.159.661h-.74v1.588h-.794v.291c0 .37-3.043 3.413-3.413 3.413h-.291v.794H80.7v.794h-1.588v.794h-.794v.794h-2.143l-.397.397-.397.397H73.82v.53h-1.006l-.159-.423zM11.383 46.837v-.397h-1.112l.106-.317.132-.344 1.217-.079 1.244-.079v-.44999999999999996l.794-.185.794-.185v-.265c0-.159.291-.556.661-.9l.661-.609v-1.085h.794v-1.588h.794v-1.349l.397-.132.397-.159v-7.276l.185-.159.159-.185 1.296 1.323c.688.714 1.27 1.429 1.27 1.561v.291h.794v.794h.8200000000000001l.397.397.397.397h2.355v.556l-.45.159c-.265.106-.635.317-.794.503l-.344.344v2.143h-1.588v.8200000000000001l-.37.397-.397.37h-.8200000000000001v.794h-.53v.794h-.265c-.132 0-.741.476-1.323 1.058s-1.164 1.058-1.323 1.058h-.265v.794h-1.588v.794h-1.349l-.132.397-.159.397H11.38v-.397zM28.845 46.599v-.635l-.397-.159-.397-.132v-.8200000000000001l-.317-.026a3 3 0 0 0-.688 0l-.317.053-.397-.397c-.212-.212-.397-.503-.397-.661v-.291h-.794v-.794h2.01l.45-.529.45-.529v-5.82h.794v.794h.794v.794h.794v.794h.794v.53h.794v.794h.794v1.402l.661.609.661.609v2.143h-.53v1.322h-.794v.794h-.794v.794h-3.174v-.635z"/><path d="M62.447 35.46v-.397h-.794v-1.588h-.794v-2.116h.794v-.794h.794v.794h.794v.291c0 .37 1.455 1.826 1.826 1.826h.291v.794h-.44999999999999996l-.159.794-.159.794h-2.143zM34.931 34.667v-.397h-.53v-.794h2.6189999999999998l.159.265.159.265-.397.159-.423.159v.74H34.93zM73.031 34.667v-.397h-1.058l-1.032-1.058c-.556-.582-1.164-1.058-1.323-1.058h-.291v-1.588h.794v-1.588h.794v.265c0 .132.212.503.45.794l.45.529h1.218v.794h5.318l.132-.397.159-.397h1.27v1.032l-.926.952-.952.926h-1.826v.794h-.794v.794h-2.382v-.397zM28.845 32.418v-.265h.794v.53h-.794zM34.931 31.227v-.661h1.322v.238c0 .132-.079.423-.159.661l-.159.423h-1.006v-.661zM28.845 30.83v-.265h2.91v.53h-2.91zM39.693 30.83v-.265h2.91v.53h-2.91ZM28.845 27.92v-.265h2.91v.53h-2.91zM38.899 27.92v-.265h2.91v.53h-2.91zM16.145 27.126v-.265h8.996v.53h-8.996zM32.02 26.729v-.661h6.614v1.322h-.53v-.794h-5.292v.794h-.794v-.661zM42.074 24.745v-2.646h.53v5.292h-.53zM9.795 26.332v-.265h.794v.53h-.794zM25.935 25.538v-.265h1.826l.159.265.159.265h-2.143zM28.051 24.612v-.397h-2.91v-2.116h.794v-.794h.794v-.53h.794v-1.058h-2.382v-.794h-1.058l-.529-.529-.503-.503.185-.106c.106-.053.926-.265 1.852-.45l1.64-.344v-.608l-.794-.635-.767-.661-.026-.476v-.476l.661-.609c.37-.344.661-.741.661-.926v-.291h-2.116v-.794h-.794v-.794h.794v.794h2.382v.794h.794v.265c0 .159.132.265.265.265h.265v-1.322h.794v-.794h.794v.794h.794v.794h2.382v-1.588h.53v-.794h3.968v.794h.794v.794h-.794v.794h2.91v-.794h.794v-.794h.794v.794h.794v.794h.794v.794h.794v.53h.794v.794h.53v-3.704h.794v4.498h-1.349l-.397-.37c-.212-.212-.37-.503-.37-.661v-.291h-.794v-.794h-.794v-.794h-.794v-.794h-.794v1.588h-4.498v-1.588h.794v-.794h-3.704v2.382h-3.174v-.794h-.794v-.794h-.794v1.322l-.529.529c-.291.291-.635.529-.794.529h-.265v2.116h.794v.794h1.058v-.53h1.006l.159.423c.079.238.159 1.005.159 1.72v1.296h-1.588v5.292h-.794v-.397z"/><path d="M32.02 23.686v-1.323h6.614v2.646H32.02zM51.864 23.29v-1.191h.53v1.058h.476l-.291.661c-.185.37-.397.661-.503.661h-.212v-1.191zM15.351 24.004c0-.106.37-.423.794-.661.45-.265.794-.582.794-.741v-.238h.794v-.794h.53v-.794h.53v3.44h-3.44v-.212zM20.643 23.951v-.265h.794v-4.498h.265c.159 0 .265.132.265.265v.265h.794v1.852h.794v1.588h.53v1.058h-3.44v-.265ZM85.995 23.29v-.397h.238c.45 0 1.085.317 1.085.556v.238h-1.322zM83.085 23.157v-.265h1.322v.53h-1.322zM59.854 22.046c-.185-.185-.317-.423-.317-.529v-.212h.794v-1.322h.265c.159 0 .265.132.265.265v.265h.794v.794h-.794v1.058h-.344c-.185 0-.476-.132-.661-.317zM14.558 20.644v-1.455h.53v-.794h-.53v-1.006l-1.984.132-1.984.159v-.873h3.228l-.159-.609-.132-.609.159-.582.132-.582h.74v-2.116h-.8200000000000001l-.132-.397-.159-.397h-2.858v.794h-.794v-.794h.794v-.794h3.174v.794h1.322v-.794h.794v.794h.794v.794h.794v.794h.794v-1.588h-.794v-.794h.794v-.794h3.704v.794h-3.704v.794h.794v2.91h-.794v-.53h-.794v-.794h-.794v-.794h-.794v-.794h-.794v.794h.794v3.704h-1.6139999999999999l.079.476.079.45 1.455.159c.794.079 1.323.159 1.191.185-.159.026-.476.397-.741.82l-.45.767.053.503v1.244l-.053.741-.397-.317-.397-.317v1.376h-.53v-1.455zM52.658 20.247v-1.852h.53v3.704h-.53Z"/><path d="m10.88 20.3-.026-1.138-.397-.132c-.212-.106-.397-.265-.397-.397v-.238h1.322l-.026.741a10.4 10.4 0 0 1-.238 1.508l-.212.794zM32.814 20.908v-.397h-2.382v-.53h3.174v-.794h.53v2.116h-1.322v-.397zM44.985 20.908v-.397h.794v-3.704h-.794v-.794h1.322v5.292h-1.322zM76.999 21.041v-.265h2.116v.53h-2.116zM36.518 19.85v-.661h1.588v.794h1.322v.53h-2.91v-.661zM41.28 20.247v-.265h1.322v.53H41.28zM48.795 18.897c.106-.873.265-1.773.344-1.984l.132-.397.317.106.291.106.079 1.879.079 1.905h-1.428l.185-1.614zM39.693 19.453v-.265h1.322v.53h-1.322zM74.089 18.792v-.926h.556l.238-.582.238-.609v.397l.026.423.529.45.529.45v1.322h-2.116v-.926ZM79.91 19.083v-.661l.423-.397c.45-.476.635-.503 1.27-.265l.423.159v1.8H79.91zM41.28 17.204v-1.72h.53v3.44h-.53zM35.195 17.627v-.503l-.529-.132-.529-.132v-.582h3.704v1.852h-2.646ZM52.658 16.146v-1.455h2.91v.53h-.794v.794h-.794v.794h-.794v.794h-.53v-1.455zM17.468 15.749v-.265h.794v-.794h.53v1.322H17.47v-.265zM22.231 15.749c0-.132.132-.265.265-.265h.265v-.794h1.588v.53h-.794v.794h-1.322v-.265zM59.272 15.617v-.397h-.265a.266.266 0 0 1-.265-.265v-.265h2.91v.53h-1.349l-.132.397-.159.397h-.74zM32.814 14.849v-.423h-2.382v-.53h9.79v.53h-2.01l-.265.265-.265.265-2.434.159-2.434.185v-.45zM48.98 14.532a72 72 0 0 0-.185-1.799l-.185-1.217h.873v-.794h-2.91v-.794h2.91v.794h.794v.794h-.794v1.322h.794v-.53h.37c.212 0 .423.106.476.238l.079.238 1.799.106 1.773.106V10.72h.794v-.794h5.292v.794h.794v.794h.794v.794h-.794v-.794h-.794v-.794h-5.292v2.858l-.423.159c-.238.079-1.244.159-2.249.159H51.07v-.794h-.794v1.322H49.27l-.132.344-.132.317-.026-.556z"/><path d="M58.743 13.368v-.265h-.794v-1.588h1.322v2.116h-.265a.266.266 0 0 1-.265-.265zM76.205 12.071v-.212l.926-.159.926-.159 1.005.185.979.159-1.058.185c-.582.132-1.455.212-1.905.212l-.873.026zM71.311 10.457l-.529-.238h.476l.45-.026V8.605h.53v2.116l-.185-.026c-.132 0-.45-.106-.741-.238zM76.999 9.293v-.635l.529-.132.529-.132.529.132.529.132v1.138l-.265-.397-.238-.37-.185.45-.159.45h-1.27v-.635z"/></g><g fill="#c3554f"><path d="M44.985 48.875v-.741l-.529-.45c-.291-.238-.661-.45-.794-.45h-.265v-.794h-1.588v-.37c0-.212.185-.556.397-.794.212-.212.397-.529.397-.688v-.291l.397-.132.397-.159v-1.218l.397-.159c.212-.079.397-.265.397-.423v-.265h-6.086v-.794h-1.322l-.529-.45-.529-.45v-.688h2.143l.397-.397.397-.397h1.826v-.53l.661-.159.661-.159v-.424l.794-.185.794-.185v-.476h.794v-.794h.794v-.794h.794v-.291c0-.185.291-.582.661-.926l.661-.609v-1.112l.397-.132.397-.159v-1.27h.794v-1.588h.794v.794h.794v.794h.794v.794h.794v1.27l.397.159.397.132v2.698l-.37.132-.397.159-.159.767-.185.767h-.74v.476l-.661.159-.661.159v.53h-.794v.794h-.794v.794h-.794v.794h-.53v7.672h-.74l-.159.397c-.079.212-.265.397-.423.397h-.265v-.741zM57.155 48.742v-.609l-.873-.847-.873-.847h-1.428v-1.322h.794v-13.52l-.661-.609c-.37-.344-.661-.741-.661-.926v-.291h.53v-.794h3.174v.794h.794v.794h.794v.661l.661.503c.37.265.661.609.661.714v.238h-.794v3.174h.265c.159 0 .503.238.794.529s.529.661.529.794v.265h.291c.185 0 .582.291.926.661l.609.661h1.349v.8200000000000001l.37.397.397.37h2.143v.794h2.382v.714l-.476.423c-.265.265-.635.45-.794.45h-.317v.794h-.291c-.159 0-.45.185-.661.397l-.397.397H63.8l-.397-.397c-.212-.212-.503-.397-.661-.397h-.291v-.74l-.661-.159-.661-.159-.159-.661-.159-.661h-.74v-.794h-.794v7.672h-.291c-.185 0-.582.291-.926.661-.767.82-.9.82-.9.053zM73.031 48.425v-.397h1.534l.317-.397c.185-.212.503-.397.688-.397h.37l.529-.529c.291-.291.529-.635.529-.794v-.265h.794v-.291c0-.37.661-1.032 1.032-1.032h.291v-.794h.794v-1.588h.794v-2.382h-.794v-.794h-2.01l-.45.529-.45.529h-.794v.53h-1.588v-.794h-1.402l-.609-.661-.582-.635-.688-.185c-1.561-.37-.423-.9 2.037-.9h1.508v-.53h2.116v-.794h1.349l.132-.397.159-.397h.979l.952-.926c.503-.529.926-1.058.926-1.191v-.265h.794v-.53h.794v-.794h.238c.106 0 .45.291.714.661l.503.661h.661v.794h.794v.794h.794v1.588h.794v2.382h-.53l-.159.661-.159.661h-.74v1.588h-.794v.291c0 .37-3.043 3.413-3.413 3.413h-.291v.794H80.7v.794h-1.588v.794h-.794v.794h-2.143l-.397.397-.397.397h-2.355v-.397ZM29.639 46.837v-.397h-.265c-.317 0-1.323-.847-1.323-1.111 0-.291-1.535-1.799-1.852-1.799h-.265v-.794h1.218l.45-.529.45-.529v-5.82h.794v.794h.794v.794h.794v.794h.794v.53h.794v.794h.794v1.349l.397.397.397.397v3.1479999999999997h-.794v.794h-.794v.794h-.794v.794H29.64v-.397zM10.377 46.123l.132-.344 1.217-.079 1.244-.079v-.44999999999999996l.794-.185.794-.185v-.265c0-.344 1.482-1.799 1.826-1.799h.291v-1.588h.794v-2.143l.397-.132.397-.159v-7.276l.185-.159.159-.185 1.296 1.323c.688.714 1.27 1.429 1.27 1.561v.291h.794v.794h.8200000000000001l.397.397.397.397h2.355v.556l-.45.159c-.265.106-.635.317-.794.503l-.344.344v2.143H22.76v.8200000000000001l-.37.397-.397.37h-.8200000000000001v.794h-.53v.794h-.265c-.159 0-.741.476-1.323 1.058s-1.164 1.058-1.323 1.058h-.265v.794h-1.588v.794h-5.61l.106-.317zM34.19 37.048l-.212-.423-.582-.053-.582-.026v-.688h1.322v.794h3.174v-.794h.794v.794h-.794v.794h-2.8840000000000003l-.238-.397ZM73.031 34.667v-.397h-1.058l-1.032-1.058c-.556-.582-1.164-1.058-1.323-1.058h-.291v-1.588h.794v-1.588h.794v.265c0 .132.212.503.45.794l.45.529h1.218v.794h5.318l.132-.397.159-.397h1.27v1.032l-.926.952-.952.926h-1.826v.794H74.62v.794h-1.588v-.397zM34.401 33.873v-.423l1.323.079 1.323.079.079.265.053.265-1.376.079-1.402.079zM76.999 16.463v-.344l1.058-.053 1.058-.079v.8200000000000001h-2.116zM44.535 14.823c-.185-.212-.344-.503-.344-.661v-.265h-.794v-.794h-.794v-.794h-.794v-.794h-.794v1.588h-4.498v-1.588h.794v-.794h-3.704v2.382h-3.174v-.794h-.794v-.794h-.794v1.322l-.556.556-.556.556-.767-.82-.741-.82h-1.8780000000000001v-.794h-.794v-.794h.794v.794h2.382v.794h.794v.265c0 .159.132.265.265.265h.265v-1.322h.794v-.794h.794v.794h.794v.794h2.382v-1.588h.53v-.794h3.968v.794h.794v.794h-.794v.794h2.91v-.794h.794v-.794h.794v.794h.794v.794h.794v.794h.794v.53h.794v.794h.53v-3.704h.794v4.498h-.714l-.741-.026-.317-.37zM83.799 14.505c-.106-.079-.185-.317-.185-.529v-.344h1.296l.185.291.185.291-.37.238c-.45.265-.873.291-1.111.053M18.262 14.161v-.265h-.794v-.794h-.794v-.794h-.794v-.794h-.794v.794h-1.349l-.132-.397-.159-.397h-2.858v.794h-.794v-.794h.794v-.794h3.174v.794h1.322v-.794h.794v.794h.794v.794h.794v.794h.794v-1.588h-.794v-.794h.794v-.794h3.704v.794H18.26v.794h.794v2.91h-.794v-.265zM49.483 13.5v-.397h-.794v-1.588h.794v-.794h-2.91v-.794h2.91v.794h.794v.794h-.794v1.322h.794v-.53h.37c.212 0 .423.106.476.238l.079.238 1.799.106 1.773.106v-2.276h.794v-.794h5.292v.794h.794v.794h.794v.794h-.794v-.794h-.794v-.794h-5.292v2.858l-.423.159c-.238.079-1.244.159-2.249.159H51.07v-.794h-.794v.794h-.794v-.397zM76.999 5.166v-.265h.794V2.519h.53v2.382h.794v.53h-2.116v-.265Z"/></g><g fill="#c86d38"><path d="M44.985 48.875v-.741l-.529-.45c-.291-.238-.661-.45-.794-.45h-.265v-.794h-1.322v-.265c0-.132.132-.265.265-.265h.265v-1.6139999999999999l.397-.132.397-.159v-1.218l.397-.159c.212-.079.397-.265.397-.423v-.265h-6.086v-.794h-1.322l-.529-.45c-.291-.265-.529-.556-.529-.661v-.212h2.9370000000000003l.132-.397.159-.397h2.064v-.794h.794v-.74l.794-.185.794-.185v-.476h.794v-.794h.794v-.794h.794v-.291c0-.185.291-.582.661-.926l.661-.609v-1.112l.397-.132.397-.159v-1.27h.794v-1.588h.794v.794h.794v.794h.794v.794h.794v1.27l.397.159.397.132v2.698l-.397.132-.397.159v.767l-.317-.053a4 4 0 0 0-.794 0l-.476.026v1.218l-.529.45c-.291.238-.661.45-.794.45h-.265v.794H47.9v.794h-.794v.794h-.794v7.408l-.45.529c-.265.291-.556.529-.661.529h-.212v-.741ZM57.155 48.742v-.609l-.873-.847-.873-.847h-1.164v-.265c0-.132.132-.265.265-.265h.265V31.595l-.661-.609c-.37-.344-.661-.741-.661-.926v-.291h.53v-.794h3.174v.794h.794v.794h.794v.661l.661.503c.37.265.661.609.661.714v.238h-.794v3.174h.265c.159 0 .503.238.794.529s.529.661.529.794v.265h.291c.185 0 .582.291.926.661l.609.661h1.349v.8200000000000001l.37.397.397.37h2.143v.794h2.382v.714l-.476.423c-.265.265-.635.45-.794.45h-.317v.794h-.291c-.159 0-.45.185-.661.397l-.397.397H63.8l-.397-.397c-.212-.212-.503-.397-.661-.397h-.291v-.8200000000000001l-.37-.397-.397-.37h-.8200000000000001v-.794h-.794v-.794h-.794v7.672h-.291c-.185 0-.582.291-.926.661-.767.82-.9.82-.9.053zM73.031 48.425v-.397h1.534l.317-.397c.185-.212.503-.397.688-.397h.37l.529-.529c.291-.291.529-.635.529-.794v-.265h.794v-.291c0-.37.661-1.032 1.032-1.032h.291v-.794h.794v-1.588h.794v-2.382h-.794v-.794h-2.01l-.45.529-.45.529h-.794v.53h-1.588v-.794h-1.402l-.609-.661-.582-.635-.688-.185-.688-.159v-.476h3.995l.132-.397.159-.397h2.064v-.794h1.349l.132-.397.159-.397h.979l.952-.926c.503-.529.926-1.058.926-1.191v-.265h.794v-.53h.794v-.794h.238c.106 0 .45.291.714.661l.503.661h.661v.794h.794v.794h.794v1.588h.794v2.116h-.794v1.588h-.794v1.588h-.794v.291c0 .37-3.043 3.413-3.413 3.413h-.291v.794h-.794v.794h-1.588v.794h-1.588v.53l-.714.159c-.397.106-.9.344-1.085.556l-.344.344h-2.355v-.397zM29.639 46.837v-.397h-.265c-.317 0-1.323-.847-1.323-1.111 0-.291-1.535-1.799-1.852-1.799h-.265v-.794h1.218l.45-.529.45-.529v-5.82h.794v.794h.794v.794h.794v.794h.794v.291c0 .159.159.45.37.661l.397.37h.8200000000000001v1.588h.53v3.704h-.53v.794h-.794v.794h-.794v.794h-1.588v-.397zM10.377 46.123l.132-.344 1.217-.079 1.244-.079v-.44999999999999996l.794-.185.794-.185v-.265c0-.344 1.482-1.799 1.826-1.799h.291v-1.588h.794v-2.143l.397-.132.397-.159v-7.276l.185-.159.159-.185 1.296 1.323c.688.714 1.27 1.429 1.27 1.561v.291h.794v.794h.8200000000000001l.397.397.397.397h2.355v.556l-.45.159c-.265.106-.635.317-.794.503l-.344.344v1.296l-.661.159-.661.159-.185.741c-.212.847-.688 1.376-1.244 1.376h-.423v.794h-.53v.794h-.265c-.159 0-.741.476-1.323 1.058s-1.164 1.058-1.323 1.058h-.265v.794H15.88v.794h-5.61l.106-.317zM65.199 32.021l-.503-.661h-.661v-2.143l.503-.529.503-.556.556.556c.317.317.556.688.556.82v.265h.794v.794h.794v.794h.397c.529 0 .503.159-.132.794l-.529.529h-1.7730000000000001l-.503-.661zM33.343 29.375v-.397h.794v-.794h3.174v.794h1.032l.132.238.159.238-.423.159c-.238.079-.529.159-.661.159h-.238v-.794h-2.9370000000000003l-.132.397-.159.397h-.74v-.397zM60.066 16.41v-.423l1.005.079.979.079v.53l-.979.079-1.005.079zM18.262 14.161v-.265h-.794v-.794h-.794v-.794h-.794v-.794h-.794v.794h-1.322v-.794h1.322v-.794h.794v.794h.794v.794h.794v.794h.794v-1.588h-.794v-.794h.794v-.794h3.704v.794h-3.704v.794h.794v2.91h-.794v-.265zM26.993 13.103l-.661-.767-.979-.026h-1.005v-.794h-.794v-.794h.794v.794h2.382v.794h.794v.265c0 .159.132.265.265.265h.265v-1.322h.794v-.794h.794v.794h.794v.794h2.382v-1.588h.53v2.382h-2.91v-.794h-.794v-.794h-.794v1.322l-.529.529c-.291.291-.556.529-.609.529s-.37-.344-.714-.794zM49.483 13.5v-.397h-.794v-1.588h.794v-.794h-2.91v-.794h2.91v.794h.794v.794h-.794v1.322h.794v-.53h.37c.212 0 .423.106.476.238l.079.238 1.799.106 1.773.106v-2.276h.794v-.794h5.292v.794h.794v.794h.794v.794h-.794v-.794h-.794v-.794h-5.292v2.382h-.794v.53H51.07v-.53h-.794v.794h-.794v-.397zM36.518 12.309v-.794h.794v-.794h-3.704v-.794h3.704v.794h.794v.794h-.794v.794h2.91v-.794h.794v-.794h.794v.794h.794v.794h.794v.794h-.794v-.794h-.794v-.794h-.794v1.588h-4.498Z"/></g><g fill="#bf4474"><path d="M73.031 21.041v-.265h.926c.503 0 1.005 0 1.111-.026.106 0 .238.106.291.265l.106.291h-2.434ZM80.703 21.041v-.265h2.382v.53h-2.382zM68.797 20.247v-.265h1.322v.53h-1.322ZM74.565 19.532a4.5 4.5 0 0 1 1.191 0l.582.106h-2.382zM80.439 18.633l-.317-.582.344-.212c.476-.291.794-.291 1.244 0l.37.212-.106.503-.079.503-.582.079-.582.079-.291-.582zM77.661 12.045l-.185-.291.132-.132.132-.159 1.164.265 1.138.265-.714.026c-.37.026-.873.106-1.085.185l-.397.132zM71.311 10.457l-.529-.238h.476l.45-.026V9.135h.53v1.588l-.185-.026c-.132 0-.45-.106-.741-.238z"/></g><g fill="#d3674f"><path d="M44.985 48.875v-.741l-.529-.45c-.291-.238-.661-.45-.794-.45h-.265v-.794h-1.322v-.265c0-.132.132-.265.265-.265h.265v-1.6139999999999999l.397-.132.397-.159v-1.218l.397-.159c.212-.079.397-.265.397-.423v-.265h-6.086v-.794h-1.322l-.529-.45c-.291-.265-.529-.556-.529-.661v-.212h2.9370000000000003l.132-.397.159-.397h2.064v-.794h.794v-.74l.794-.185.794-.185v-.476h.794v-.794h.794v-.794h.794v-.265c0-.132.212-.503.45-.794l.45-.529h.688v-.794h.53v-2.116h.794v-1.588h.794v.794h.794v.794h.794v.794h.794v1.322h.53v2.1959999999999997l-.661.609c-.37.344-.661.741-.661.9v.265h-.794v1.218l-.529.45c-.291.238-.661.45-.794.45h-.265v.794h-.794v.794h-.794v.794h-.794v7.408l-.45.529c-.265.291-.556.529-.661.529h-.212v-.741zM57.155 48.742v-.609l-.873-.847-.873-.847h-1.164v-.265c0-.132.132-.265.265-.265h.265V31.595l-.661-.609c-.37-.344-.661-.741-.661-.926v-.291h.53v-.794h3.174v.794h.794v.794h.794v.661l.661.503c.37.265.661.609.661.714v.238h-.794v3.174h.265c.159 0 .503.238.794.529s.529.661.529.794c0 .159.106.265.265.265.132 0 .503.212.794.45l.529.45v.688h.794v.53l.661.159.661.159v.476h2.382v.794h2.382v.344c0 .185-.132.476-.317.661l-.317.317h-.952v1.058h-.291c-.159 0-.45.185-.661.397l-.397.397h-2.592l-.397-.397c-.212-.212-.503-.397-.661-.397h-.291v-.8200000000000001l-.37-.397-.397-.37h-.8200000000000001v-.794h-.794v-.794h-.794v7.672h-.291c-.185 0-.582.291-.926.661-.767.82-.9.82-.9.053zM10.377 46.123l.132-.344 1.217-.079 1.244-.079v-.44999999999999996l.794-.185.794-.185v-.265c0-.344 1.482-1.799 1.826-1.799h.291v-1.588h.794v-2.143l.397-.132.397-.159v-6.826h.265c.159 0 .344.185.423.397l.159.397h1.164l.45.529c.238.291.45.661.45.794v.265h.767l.079.741.079.714 1.931.079 1.905.079v.53l-.45.159c-.265.106-.635.317-.794.503l-.344.344v1.296l-.661.159-.661.159-.185.741c-.212.847-.688 1.376-1.244 1.376h-.423v.794h-.53v.794h-.265c-.159 0-.741.476-1.323 1.058s-1.164 1.058-1.323 1.058h-.265v.794h-1.588v.794h-5.61l.106-.317zM37.312 29.375v-.397h-2.91v-.794h2.91v.794h1.032l.132.238.159.238-.423.159c-.238.079-.529.159-.661.159h-.238zM74.644 18.474c0-.423.106-.979.212-1.244l.212-.529.159.661c.106.344.185.9.185 1.244v.582h-.794ZM49.483 13.5v-.397h-.794v-1.588h.794v-.794h-2.91v-.794h2.91v.794h.794v.794h-.794v1.322h.794v-.53h.37c.212 0 .423.106.476.238l.079.238 1.799.106 1.773.106v-2.276h.794v-.794h5.292v.794h-5.292v2.382h-.794v.53H51.07v-.53h-.794v.794h-.794v-.397zM76.999 13.368v-.265h1.322v.53h-1.322zM77.714 12.124a.56.56 0 0 1-.185-.397v-.212h.794v.794h-.212a.56.56 0 0 1-.397-.185M83.878 9.664V8.606h.53v1.588l.476.026h.45l-.529.238c-.291.132-.609.238-.714.238l-.212.026V9.664z"/></g><g fill="#dc7d3c"><path d="M44.985 48.875v-.741l-.529-.45c-.291-.238-.661-.45-.794-.45h-.265v-.794h-1.322v-.265c0-.132.132-.265.265-.265h.265v-1.6139999999999999l.397-.132.397-.159v-1.218l.397-.159c.212-.079.397-.265.397-.423v-.265h-6.086v-.794h-1.322l-.529-.45c-.291-.265-.529-.556-.529-.661v-.212h2.9370000000000003l.132-.397.159-.397h2.064v-.794h.794v-.74l.794-.185.794-.185v-.476h.794v-.794h.794v-.794h.794v-.265c0-.132.212-.503.45-.794l.45-.529h.688v-.794h.53v-2.116h.794v-1.588h.794v.794h.794v.794h.794v.794h.53v1.322h.794v2.1959999999999997l-.661.609c-.37.344-.661.741-.661.9v.265h-.794v1.218l-.529.45c-.291.238-.661.45-.794.45h-.265v.794h-.794v.794h-.794v.794h-.794v7.408l-.45.529c-.265.291-.556.529-.661.529h-.212v-.741zM57.155 48.742v-.609l-.873-.847-.873-.847h-1.164v-.265c0-.132.132-.265.265-.265h.265V31.595l-.661-.609c-.37-.344-.661-.741-.661-.926v-.291h.53v-.794h3.174v.794h.794v.794h.794v.661l.661.503c.37.265.661.609.661.714v.238h-.794v3.174h.265c.159 0 .503.238.794.529s.529.661.529.794c0 .159.106.265.265.265.132 0 .503.212.794.45l.529.45v.688h.794v.53l.661.159.661.159v.476h2.382v.794h2.382v.344c0 .185-.132.476-.317.661l-.317.317h-.952v1.058h-.794v.53h-3.704v-.53h-.794v-.8200000000000001l-.37-.397-.397-.37h-.8200000000000001v-.794h-.794v-.794h-.794v7.672h-.291c-.185 0-.582.291-.926.661-.767.82-.9.82-.9.053zM73.031 48.425v-.397h1.534l.317-.397c.185-.212.503-.397.688-.397h.37l.529-.529c.291-.291.529-.635.529-.794v-.265h.794v-.291c0-.37.661-1.032 1.032-1.032h.291v-.794h.794v-1.588h.794v-2.382h-.794v-.794h-2.01l-.45.529-.45.529h-.794v.53h-1.588v-.794h-1.402l-.609-.661-.582-.635-.688-.185-.688-.159v-.476h3.995l.132-.397.159-.397h2.064v-.794h1.349l.132-.397.159-.397h.979l.952-.926c.503-.529.926-1.058.926-1.191v-.265h.794v-.53h.794v-.794h.238c.106 0 .45.291.714.661l.503.661h.661v.794h.794v.794h.794v1.588h.794v2.116h-.794v1.588h-.794v1.588h-.794v.53h-.794v.794h-.794v.8200000000000001l-.37.397-.397.37h-.8200000000000001v.794h-.53v.794H80.7v.794h-1.588v.794h-1.588v.53l-.714.159c-.397.106-.9.344-1.085.556l-.344.344h-2.355v-.397zM29.639 46.837v-.397h-.265c-.317 0-1.323-.847-1.323-1.111 0-.291-1.535-1.799-1.852-1.799h-.265v-.794h1.218l.45-.529.45-.529v-5.82h.794v.794h.794v.794h.794v.794h.794v.794h.53l.159.661.159.661h.74v.794h.53v3.704h-.53v.794h-.794v.794h-.794v.794H29.64v-.397zM10.377 46.123l.132-.344 1.217-.079 1.244-.079v-.44999999999999996l.794-.185.794-.185v-.476h.794v-.794h.794v-.794h.53v-1.588h.794v-2.143l.397-.132.397-.159v-6.826h.265c.159 0 .344.185.423.397l.159.397h1.164l.45.529c.238.291.45.661.45.794v.265h.767l.079.741.079.714 1.931.079 1.905.079v.53l-.45.159c-.265.106-.635.317-.794.503l-.344.344v1.296l-.661.159-.661.159-.185.741c-.212.847-.688 1.376-1.244 1.376h-.423v.794h-.53v.794h-.265c-.159 0-.741.476-1.323 1.058s-1.164 1.058-1.323 1.058h-.265v.794H15.88v.794h-5.61l.106-.317zM34.322 37.26a.56.56 0 0 1-.185-.397v-.212h3.174v-.794h.794v.794h-.794v.794H34.48l-.159-.185z"/><path d="M62.447 34.667v-.397h-.794v-.794h-.794V31.36h.794v-.794h.794v.794h.794v.291c0 .37 1.455 1.826 1.826 1.826h.291v.794h-.53v.794h-2.382v-.397zM73.031 34.667v-.397h-1.058l-1.032-1.058c-.556-.582-1.164-1.058-1.323-1.058h-.291v-1.588h.794v-1.588h.794v.265c0 .132.212.503.45.794l.45.529h1.218v.794h3.043c1.667 0 3.043.053 3.043.132 0 .053-.423.529-.926 1.058l-.952.926h-1.032v.794h-1.588v.794h-1.588v-.397zM34.401 28.581v-.397h2.91v.794h-2.91zM80.703 18.395v-.794h.794v1.588h-.794zM10.589 17.204v-.423l1.455.079 1.455.079v.53l-1.455.079-1.455.079zM18.024 13.844l-.37-.582.317-.106.291-.106v-1.534h-.794v-.794h.794v-.794h3.704v.794h-3.704v.794h.53v2.91h-.212c-.106 0-.344-.265-.556-.582M71.443 14.161v-.265h.794v.53h-.794zM49.483 13.5v-.397h-.794v-1.588h.794v-.794h-2.91v-.794h2.91v.794h.794v.794h-.794v1.588h.794v.794h-.794zM51.599 13.368v-.265h3.174v-2.382h.794v-.794h5.292v.794h-5.292v2.382h-.794v.53h-3.174zM36.518 12.309v-.794h.794v-.794h.794v.794h-.794v.794h2.91v-.794h.794v-.794h.794v.794h.794v.794h-.794v-.794h-.794v1.588h-4.498ZM30.433 12.574v-.265h-.794v-.794h-.794v-.794h.794v.794h.794v.794h2.382v-1.588h.53v2.116h-2.91v-.265zM9.795 11.912v-.397h.794v-.794h2.91v.794h-2.91v.794h-.794zM13.764 11.912v-.397h1.322v.794h-1.322zM24.347 11.912v-.397h-.794v-.794h.794v.794h2.116v.794h-2.116zM61.653 11.912v-.397h-.53v-.794h.53v.794h.794v.794h-.794zM71.655 10.59l-.132-.132.132-.661.106-.661h.476v1.588h-.212a.57.57 0 0 1-.37-.132z"/></g><g fill="#c66770"><path d="M77.528 9.293v-.661l.291-.185.291-.159.265.265.265.265-.185.556-.159.556h-.767v-.635zM77.476 7.626 77 7.52v-.503h2.116v.265c0 .159-.106.265-.238.265s-.397.053-.609.106a1.64 1.64 0 0 1-.794-.026z"/></g><g fill="#e78d36"><path d="M44.985 48.875v-.741l-.529-.45c-.291-.238-.661-.45-.794-.45h-.265v-.794h-1.322v-.265c0-.132.132-.265.265-.265h.265v-1.6139999999999999l.397-.132.397-.159v-1.218l.397-.159.397-.132v-.8200000000000001h-6.086v-.53h-1.322l-.529-.45c-.291-.265-.529-.556-.529-.661v-.212h2.9370000000000003l.132-.397.159-.397h2.064v-.794h.794v-.74l.794-.185.794-.185v-.476h.794v-.794h.794v-.794h.794v-.265c0-.132.212-.503.45-.794l.45-.529h.688v-.794h.53v-2.116h.794v-1.588h.794v.794h.794v.794h.794v.794h.53v1.322h.794v2.1959999999999997l-.661.609c-.37.344-.661.741-.661.9v.265h-.265c-.132 0-.503.238-.794.529l-.529.529v1.058h-.794v.794h-.794v.794h-.794v.794h-.794v7.408l-.45.529c-.265.291-.556.529-.661.529h-.212v-.741zM57.155 48.742v-.609l-.873-.847-.873-.847h-.582c-.688 0-.714-.159-.185-.688l.397-.397V31.358h-.688l-.45-.529c-.238-.291-.45-.661-.45-.794v-.265h1.322v-.794h2.382v1.588h1.588v.661l.661.503c.37.265.661.609.661.714v.238h-.794v3.174h.265c.344 0 1.323.979 1.323 1.323v.265h.794v1.27l.794.185.794.185v.476l.635.159.661.159.132.37.132.37h2.143v.53l.661.159.661.159v1.006l-.45.026c-.265.026-.582.026-.714 0l-.212-.053.132.423.159.397-.132.397-.159.397h-3.652v-.53h-.794v-.423c0-.212-.159-.556-.317-.767-.767-.794-1.27-1.482-1.27-1.72v-.265h-1.588v7.672h-.291c-.185 0-.582.291-.926.661-.767.82-.9.82-.9.053zM74.009 48.637a.56.56 0 0 1-.185-.397v-.212h.37c.185 0 .503-.185.688-.397s.503-.397.688-.397h.37l.529-.529c.291-.291.529-.635.529-.794v-.265h.794v-.291c0-.37.661-1.032 1.032-1.032h.291v-.74l.529-.132.529-.132v-1.376h.53v-2.382h-.794v-.794h-2.143l-.132.397-.159.397h-3.44l-.794-.794-.794-.794h-1.8v-.53h3.995l.132-.397.159-.397h2.064v-.794h1.349l.132-.397.159-.397h.582l.556-.026.661-.767.635-.794h1.218v-1.322h.794v-.794h.238c.106 0 .45.291.714.661l.503.661h.661v.794h.794v.794h.794v1.588h.53v2.116h-.53v1.588h-.794v1.588h-.794v.53h-.794v.794h-.794v.8200000000000001l-.37.397-.397.37h-.8200000000000001v.794h-.53v.794H80.7v.794h-1.588v.794h-1.588v.53l-.714.159c-.397.106-.9.344-1.085.556l-.344.344h-.609c-.317 0-.688-.079-.767-.185zM29.639 46.441v-.794h-1.588v-.265c0-.344-1.508-1.852-1.852-1.852h-.265v-.794h1.1909999999999998l.609-.635.582-.635V36.65h1.322v.794h.794v.794h.794v.794h.53l.159.661.159.661h.74v.794h.53v3.704h-.53v.794h-.794v.794h-.794v.794h-1.588v-.794zM12.176 46.229c0-.344 1.005-1.085 1.72-1.27l.661-.159v-.476h.794v-.794h.794v-.794h.53v-1.588h.794v-2.143l.397-.132.397-.159v-6.826h.212c.265 0 1.111 1.005 1.111 1.323v.265h1.588v.794h.767l.079.741.079.714 1.931.079 1.905.079v.53l-.45.159c-.265.106-.635.317-.794.503l-.344.344v1.296l-.661.159-.661.159v.53h-.8200000000000001l-.132.397-.159.397h-.74v1.588h-1.322l-.159.714-.185.714-.767.741c-.423.397-.873.741-1.005.741h-.265v.794h-1.588v.794h-3.704v-.212ZM73.031 34.667v-.397h-1.058l-1.032-1.058c-.556-.582-1.164-1.058-1.323-1.058h-.291v-1.588h.794v-.794h1.27l.159.397.132.397h1.349v.794h3.043c1.667 0 3.043.053 3.043.132 0 .053-.423.529-.926 1.058l-.952.926h-1.032v.794h-1.588v.794h-1.588z"/><path d="m62.262 34.428-.609-.291v-.661h-.794V31.36h.794v-.794h.794v.794h.794v.291c0 .37 1.455 1.826 1.826 1.826h.291v.291c0 .185-.212.476-.45.661l-.476.344-.794-.026c-.423 0-1.058-.132-1.376-.317zM65.199 32.021l-.503-.661h-.661v-2.382h2.116v.794h.794v.794h.794v.794h.397c.529 0 .503.159-.132.794l-.529.529h-1.7730000000000001zM11.383 17.204v-.423l1.138.079 1.111.079v.53l-1.111.079-1.138.079zM18.024 13.844l-.37-.582.317-.106.291-.106v-1.534h.53v2.91h-.212c-.106 0-.344-.265-.556-.582M45.778 12.574v-1.852h.53v3.704h-.53ZM51.599 13.368v-.265h3.174v.53h-3.174zM36.783 12.177v-.661h.53v.794h3.174v.53h-3.704v-.661zM10.589 11.119v-.397h2.91v.794h-2.91zM33.608 10.325v-.397h1.296q2.143 0 2.143.556v.238h-3.44zM46.572 10.325v-.397h2.91v.794h-2.91zM77.793 9.267v-.661h.53v1.322h-.53Z"/></g><g fill="#eea03d"><path d="M44.376 47.631c-.238-.212-.529-.397-.688-.397h-.291V45.62l1.005.079.979.079v2.064l-.291.106-.317.106zM63.638 43.715c.291-.212.926-.45 1.429-.529l.873-.185-.159.423c-.079.238-.159.476-.159.529s-.556.106-1.244.106h-1.244l.503-.344zM28.845 41.546v-.397h-.53v-4.498h1.322v.794h.794v1.058l.529.529c.291.291.661.529.794.529h.265v.794h.53v.794h-.53v.794h-3.174zM56.362 41.546v-.397h-.794V31.095h-1.349l-.397-.37c-.212-.212-.37-.503-.37-.661v-.291h1.322v-.794h2.382v1.588h.794v.291c0 .185.291.582.661.9l.635.609.079 2.09.079 2.064.741.079.714.079v.767h.794v1.27l.661.159c.37.106.9.37 1.191.609l.529.45v.688h-.794v.53h-2.382v-.794h-.794v-.794h-.794v-.265a.266.266 0 0 0-.265-.265h-.265v2.116H58l-.159.397-.132.397H56.36v-.397zM81.418 40.17c-.106-.079-.185-.397-.185-.661v-.476h-.53v-1.058h-2.01l-.635.794-.661.767-1.667.026h-1.693l-.794-.794-.794-.794h-.74v-.53h2.9370000000000003l.132-.397.159-.397h2.037l.344-.344c.185-.185.556-.423.82-.529l.45-.159v-.556h.609l.582-.026.661-.767.635-.794h1.218v-.794h.265c.159 0 .344.185.423.397l.159.397h.74v1.588h.794v3.174h-.794v.53h-.794v.794h-.794v.794h-.344c-.212 0-.45-.079-.529-.185zM42.603 39.429v-.397h-1.588v-.794h1.588v-.794h1.588v-1.058h.53l.159-.661.159-.661h1.534v-1.588h.794v-.794h.53v-2.116h.794v-1.588h.794v1.588h.794v.794h1.322v1.322h.794v2.1959999999999997l-.661.609c-.37.344-.661.741-.661.9v.265h-.265c-.132 0-.503.238-.794.529s-.529.661-.529.794v.265h-1.588v.794h-1.27l-.159.397-.132.397h-3.731v-.397ZM70.755 33.026l-.635-.582v-2.6719999999999997h1.27l.159.397.132.397h1.349v.794h.794v.53h1.588v.794h-.794v.74l-1.614.106-1.64.079zM64.828 30.169v-1.191h1.322v2.382h-1.322ZM30.433 12.574v-.265h2.382v-1.588h.53v2.116h-2.91v-.265zM33.608 10.325v-.397h2.91v.794h-2.91Z"/></g><g fill="#efaf46"><path d="M74.009 48.637a.56.56 0 0 1-.185-.397v-.212h.37c.185 0 .503-.185.688-.397l.317-.397h.952l.159-.397.132-.397h1.8780000000000001v-.794h1.588v-.794h.794v1.588h-1.588v.794h-1.588v.53l-.714.159c-.397.106-.9.344-1.085.556l-.344.344h-.609c-.317 0-.688-.079-.767-.185zM44.852 47.155l-.529-.714h-.9259999999999999v-.794h1.8780000000000001l.132.37c.079.212.106.714.053 1.111l-.079.714-.529-.688zM56.362 41.546v-.397h-.794V31.095h-1.349l-.397-.37c-.212-.212-.37-.503-.37-.661v-.291h1.322v-.794h2.382v1.588h.794v.291c0 .185.317.582.688.926l.661.635-.397.423-.423.397v2.143l.609.635.582.635h1.1909999999999998v1.588h.794v.476l.661.159c.714.185 1.72.926 1.72 1.27v.212h-.794v.794H60.86v-.794h-.794v-.794h-.794v-.265a.266.266 0 0 0-.265-.265h-.265v2.116h-.74l-.159.397-.132.397h-1.349zM81.497 39.561v-.794h-.794v-.794H78.56l-.132.397-.159.397h-1.534v.794h-2.698l-.794-.794-.794-.794h-.74v-.53h2.9370000000000003l.132-.397.159-.397h2.037l.344-.344c.185-.185.556-.423.82-.529l.45-.159v-.556h.609l.582-.026.661-.767.635-.794h1.218v-.794h.265c.159 0 .344.185.423.397l.159.397h.74v1.588h.794v3.174h-.794v.53h-.794v.794h-.794v.794h-.794v-.794zM42.603 39.165v-.397h-1.322v-.53h1.322v-.794h1.588v-.794h.794v-1.588h1.588v-.53h.794v-1.6669999999999998l.661-.609c.37-.344.661-.741.661-.9 0-.132.106-.265.238-.265h.212l-.132-.661-.106-.661h.582v.794h.794v.794h1.322V33.5l.397.132.397.159v1.085l-.661.609c-.37.344-.661.741-.661.9v.265h-.265c-.132 0-.503.238-.794.529s-.529.661-.529.794v.265h-1.588v.53h-1.322v.794h-3.968v-.397zM71.39 32.92c-.265-.265-.476-.609-.476-.767v-.265h-.794v-2.116h1.058l.529.529c.291.291.529.661.529.794v.265h1.588v.53h1.588v.794h-.794v.794l-1.376-.026-1.402-.026-.45-.503zM34.401 28.581v-.397h2.116v.794h-2.116zM25.009 11.78l.159-.265h1.296v.53H24.85zM10.589 11.119v-.397h2.382v.794h-2.382zM18.262 10.325v-.397h3.704v.794h-3.704zM47.101 10.325v-.397h2.382v.794h-2.382zM55.568 10.325v-.397h5.292v.794h-5.292Z"/></g><g fill="#f5bc4b"><path d="M57.155 48.742v-.609l-.794-.767-.794-.767v-.952h.794v.794h2.382v1.508l-.661.714c-.794.847-.926.847-.926.079zM29.639 46.044v-.397h-.794v-.794h3.174v.794h-.794v.794h-1.588v-.397zM28.845 41.546v-.397h-.53v-4.498h.53v.794h.794v.794h.291c.185 0 .582.291.926.661s.741.661.9.661h.265v.794h.53v.794h-.53v.794h-3.174v-.397zM56.362 41.546v-.397h-.794V31.095h-1.349l-.397-.37c-.212-.212-.37-.503-.37-.661v-.291h1.322v-.794h2.382v1.588h.794v.291c0 .185.317.582.688.926l.661.635-.397.423-.423.397v2.143l.609.635.582.635h1.1909999999999998v1.588h.794v.476l.661.159c.714.185 1.72.926 1.72 1.27v.212h-.794v.794H60.86v-.794h-.794v-.794h-.53v-.794h-1.058v2.116l-.45.529-.45.529H56.36v-.397zM81.497 39.561v-.794h-.794v-.794H78.56l-.132.397-.159.397h-1.534v.794h-2.698l-.794-.794-.794-.794h-.74v-.53h2.9370000000000003l.132-.397.159-.397h2.858v-.265c0-.132.212-.476.476-.741l.503-.503.82-.159.794-.159.317.37c.185.212.423.397.556.397h.238v-2.116h.794v-.794h.238c.132 0 .423.291.661.661l.423.635v1.085h.794v2.9370000000000003l-.37.397c-.212.212-.503.37-.661.37h-.291v.794h-.794v.794h-.794v-.794z"/></g><g fill="#fac950"><path d="m12.229 46.123.132-.344 1.323-.079 1.323-.079.159.423.159.397h-3.201l.106-.317zM43.397 46.044v-.397h.794v.794h-.794zM18.262 42.34v-.397h-.794v-1.588h.794v-8.466h.212c.265 0 1.111 1.005 1.111 1.323v.265h.794v.794h.794v.794h.74l.159.397.132.397h1.085l.529.529.529.529v1.006l-.397.159-.397.132v.291c0 .397-.661 1.058-1.058 1.058h-.291l-.132.397-.159.397h-.74v.794h-.794v.265c0 .132-.212.503-.45.794l-.45.529h-1.218v-.397zM28.845 41.546v-.397h-.53v-4.498h.53v.794h.794v.794h.265c.344 0 1.323.847 1.323 1.138 0 .317.714.979 1.032.979h.291v.794h-.794v.794h-2.91v-.397zM56.362 41.546v-.397h-.794V30.565h2.382v.291c0 .185.317.582.688.926l.661.635-.397.423-.423.397v2.143l.609.635.582.635h1.1909999999999998v1.588h.794v.794h1.322l.529.45c.291.265.529.556.529.661v.212h-.794v.794h-2.382v-.794h-.794v-.794h-.53v-.794h-1.058v2.116l-.45.529-.45.529h-1.218v-.397zM81.497 39.561v-.794h-.794v-.794H78.56l-.132.397-.159.397h-1.534v.794h-2.698l-.794-.794-.794-.794h-.74v-.53h2.9370000000000003l.132-.397.159-.397h2.858v-.582l.767.106.767.079.529-.503.556-.476.529.185.556.159v-2.143h.794v-.794h.238c.132 0 .423.291.661.661l.423.635v1.085h.794v2.91h-.794v.794h-.53v.794h-.794v.794h-.794v-.794zM42.603 39.165v-.397h-1.322v-.53h1.322v-.794h1.588v-.794h.794v-1.588h1.588v-.53h.794v-1.6669999999999998l.661-.609c.37-.344.661-.741.661-.9 0-.132.106-.265.238-.265h.212l-.132-.661-.106-.661h.582v.794h.794v.794h.53v.794h.794V33.5l.397.132.397.159v1.085l-.661.609c-.37.344-.661.741-.661.9v.265h-.265c-.132 0-.503.238-.794.529s-.529.661-.529.794v.265h-1.588v.53h-1.588v.794h-3.704v-.397zM61.653 32.471c0-.556.079-1.111.185-1.191l.159-.185.635.688.609.661v1.032h-1.588zM71.39 32.92c-.265-.265-.476-.609-.476-.767v-.265h-.794v-2.116h1.058l.529.529c.291.291.529.661.529.794v.265h1.588v.794h1.322v.265c0 .159-.106.265-.265.265h-.265v.794l-1.376-.026-1.402-.026-.45-.503ZM11.383 17.072v-.265h1.588v.53h-1.588z"/></g><g fill="#fed253"><path d="M29.639 46.044v-.397h-.265a.266.266 0 0 1-.265-.265v-.265h2.646v.265c0 .159-.106.265-.265.265h-.265v.794h-1.588v-.397zM78.587 46.176v-.265h1.322v.53h-1.322ZM64.035 43.795v-.265h1.322v.53h-1.322zM18.209 42.287c-.053-.873-.106-1.005-.344-1.376l-.238-.397.317-.106.317-.106v-8.414h.212c.265 0 1.111 1.005 1.111 1.323v.265h.794v.794h.794v.794h.74l.159.397.132.397h1.218l.317.979c.159.556.265 1.058.185 1.111-.053.053-.556.106-1.085.132l-1.005.026.053 1.138.053 1.111h-.767v.794h-.794v.265c0 .132-.212.503-.45.794l-.45.529H18.26l-.053-.45zM56.362 41.546v-.397h-.794v-2.328l.212-.106.212-.079-.185-2.249c-.106-1.244-.212-3.043-.212-4.022l-.026-1.799h2.382v.291c0 .185.317.582.688.926l.661.635-.397.423-.423.397v2.143l.609.635c.317.344.714.635.9.635h.317l-.106.344a6.6 6.6 0 0 0-.238 1.058l-.132.714.185.026c.106 0 .794.079 1.561.132l1.376.106.556.45c.291.265.529.556.529.661v.212h-.794v.794h-2.382v-.794h-.794v-.794h-.53v-.794h-1.058v2.116l-.45.529-.45.529h-1.218v-.397zM29.11 41.413v-.265h-.794V36.65h.53v.794h.794v.794h.265c.344 0 1.323.847 1.323 1.138 0 .317.714.979 1.032.979h.291v.794h-.794v.53h-2.646v-.265zM81.497 39.561v-.794h-.794v-.794H78.56l-.132.397-.159.397h-1.534v.794h-2.698l-.794-.794-.794-.794h-.74v-.53h2.8840000000000003l.291.529c.159.291.397.529.529.529h.265v-.714l.476-.423.503-.45h1.138v-.846l.767.106.767.079.529-.503.556-.476.529.185.556.159v-2.143h.794v-.794h.238c.132 0 .423.291.661.661l.423.635v1.085h.794v2.91h-.794v.794h-.53v.794h-.794v.794h-.794v-.794zM42.603 39.165v-.397h-1.322v-.53h1.322v-.794h1.376l.423.556.45.529.45-.159.45-.185-.053-.556c0-.317 0-1.032.026-1.561l.053-1.005h.794v-.53h.794v-1.6669999999999998l.661-.609c.37-.344.661-.741.661-.9 0-.132.106-.265.238-.265h.212l-.132-.661-.106-.661h.582v.794h.794v.794h.53v.794h.794v1.349l.397.132.397.159v1.085l-.661.609c-.37.344-.661.741-.661.9v.265h-.265c-.344 0-1.323.979-1.323 1.323v.265h-1.588v.53h-1.588v.794h-3.704v-.397zM34.931 36.916v-.265h1.588v.53h-1.588zM61.918 32.867v-.609l.661-.053.661-.053v1.322h-1.322v-.609zM71.39 32.92l-.476-.503v-1.058h2.91v.794h1.322v.265c0 .159-.106.265-.265.265h-.265v.794l-1.376-.026-1.402-.026-.45-.503ZM64.828 30.169v-1.191h.53v.794h.794v1.588H64.83v-1.191zM51.599 13.368v-.265h2.382v.53h-2.382zM37.312 12.574v-.265h3.174v.53h-3.174zM34.534 10.457l-.159-.265h2.143v.53h-1.826z"/></g><g fill="#fff4d8"><path d="m28.977 38.768-.159-.265.159-.265c.079-.132.265-.265.423-.265h.238v1.058H29.4a.5.5 0 0 1-.423-.265zM19.056 35.46v-1.191h.794v.794h.794v1.588h-1.588zM48.689 33.873v-.397h-.794v-1.218l.529-.45c.609-.503 1.058-.582 1.058-.185v.265h.794v1.588h-.794v.794h-.794zM70.914 31.756v-.397h1.322v.794h-1.322z"/></g><g fill="#fefbf3"><path d="M19.056 35.46v-.926h.265c.159 0 .265.132.265.265v.265h.794v1.322h-1.322v-.926zM81.497 35.064v-.794h1.588v1.588h-1.588zM48.689 33.873v-.397h-.794v-1.218l.529-.45c.291-.238.661-.45.794-.45h.265v.794h.476l-.265 1.058-.265 1.058h-.74v-.397ZM56.362 32.021v-.661h-.794v-.794h1.588v.794h.794v1.322h-1.588z"/></g></svg>