<svg xmlns="http://www.w3.org/2000/svg" viewBox="0 0 1920 784"><g fill="none" stroke="#81a3c9" stroke-width="2"><path d="M1122.25 173.5v109.96a.5.5 0 0 1-.5.5q-44.01.09-88.02.02-11.38-.02-16.68-1.49c-13.62-3.76-24.63-14.89-28.34-28.48q-1.45-5.32-1.46-16.67-.02-60.77.02-121.54 0-9.39 1.37-14.34c3.81-13.74 14.9-24.81 28.59-28.53q5.27-1.44 16.17-1.43 64.75.01 129.37 0a.49.48-90 0 0 .48-.49V30.78a.51.51 0 0 0-.51-.51q-64.96-.05-129.92 0-13.26.01-19.93 1.14c-34.68 5.88-60.93 33.38-66.73 67.41q-1.21 7.09-1.2 19.93.06 59.72.05 119.44 0 12.88 1.33 19.91c7.5 39.6 41.37 67.04 81.65 67.1q83.76.11 167.41-.01a.69.68-80.5 0 0 .65-.47q41.66-121.08 83.44-242.12 2.65-7.67 5.27-11c11.43-14.52 34.11-9.93 39.96 7.41q34.49 102.31 68.87 204.57a.32.31-9.7 0 1-.3.42h-108.04a.5.5 0 0 0-.5.5v40.25a.5.5 0 0 0 .5.5h164.98a.39.39 0 0 0 .37-.52q-41.33-122.79-82.83-245.53-4.46-13.21-7.36-18.57c-24.21-44.78-88.75-48.5-114.99-4.16q-3.43 5.8-7.48 17.71-37.58 110.39-75.3 220.83a.2.2 0 0 1-.39-.06V132.5a.5.5 0 0 0-.5-.5h-114.5a.5.5 0 0 0-.5.5v40a.5.5 0 0 0 .5.5h74.5a.5.5 0 0 1 .5.5M541.37 31.34c-42.5 6.39-75.25 39.85-81.04 82.43-7.96 58.51 36.54 108.89 95.18 109.53q16.2.18 32.41.21c8.95.02 8.58 10.24 1.3 10.24q-64.71-.01-129.45.02a.52.52 0 0 0-.52.52v39.93a.51.51 0 0 0 .51.51q63.48.05 126.95.01 10.02-.01 15.33-1.38c27.44-7.07 42.31-37.47 30.83-63.34-7.59-17.1-24.55-27.75-43.37-27.75q-13.65 0-27.29-.04-11.46-.04-17.18-1.32c-28.36-6.38-48.69-35.57-42.39-64.74 4.55-21.02 20.63-38.29 41.88-43.27q5.99-1.4 18.58-1.4h123.67a.49.48-90 0 0 .48-.49V30.79a.51.51 0 0 0-.51-.51q-62.74-.08-125.42 0-13 .02-19.95 1.06M778.18 282.6c-13.87-3.75-25.03-15.07-28.73-28.92q-1.42-5.33-1.43-16.12-.05-59.16 0-118.31.01-12.22 1.49-17.74c3.78-14.02 15.42-25.41 29.69-28.87q4.73-1.15 14.7-1.15 67.53.03 135.09-.01a.51.51 0 0 0 .51-.51V30.78a.51.51 0 0 0-.51-.51q-67.09-.04-134.19-.02-12.98.01-19.92 1.22c-33.37 5.81-60.13 31.71-66.52 65.2q-1.33 6.97-1.34 19.89-.04 61.48-.02 122.98.01 11.85 1.32 18.71c7.58 39.52 41.44 66.98 81.69 67q69.47.03 138.98-.02a.51.51 0 0 0 .51-.51V284.5a.51.51 0 0 0-.51-.51q-67.95.03-135.92-.01-9.78 0-14.89-1.38" vector-effect="non-scaling-stroke"/><path d="M1283.75 239.8v34.45a.5.5 0 0 0 .5.5h95.93a.22.22 0 0 0 .21-.29q-32.42-96.35-65.09-192.6c-3-8.82-11.99-12.59-19.95-6.96q-4.47 3.16-5.15 5.13-41.83 121.7-83.92 244.49a.55.55 0 0 0 .52.73h47.21a.75.75 0 0 0 .71-.51l28.7-84.99a.17.17 0 0 1 .33.05M544.57 82.05c-28.26 7.32-43.01 38.87-29.88 65.19 8.48 17.01 24.52 25.93 43.76 25.81 13.32-.08 29.59-1.12 41.21 1.21 37.33 7.5 57.41 48.86 37.35 82.41-11.53 19.29-29.77 27.4-52.06 27.37q-62.67-.09-125.26-.02a.44.44 0 0 0-.44.44v40.33a.45.45 0 0 0 .45.45q62.28.04 124.47-.01 13.1-.01 19.96-1.01c71.75-10.42 107.27-92.96 65.15-151.82-17.35-24.25-46.73-40.46-76.78-40.41q-17.38.03-34.76-.01c-7.48-.02-8.38-9.24.92-9.23q64.13.01 128.11 0a.49.48-90 0 0 .48-.49V81.04a.51.51 0 0 0-.51-.51q-61.54-.07-123.02 0-13.33.02-19.15 1.52M779.41 81.86C766 85.77 757.33 98.13 757.3 112q-.06 30.45-.04 60.8a.45.45 0 0 0 .45.45H899.5a.5.5 0 0 0 .5-.5V132.5a.5.5 0 0 0-.5-.5H799.43a.98.98 0 0 1-.95-1.2c1.48-6.32 5.5-8.04 11.89-8.04l117.62-.02a.52.51 90 0 0 .51-.52V81.01a.5.49 90 0 0-.49-.5q-66.34-.04-132.66.02-11.4.01-15.94 1.33M1070.75 224v8.21a.52.51-.6 0 1-.51.51q-10.45.09-20.89 0c-9.22-.08-11.85-4.01-11.85-13.14q.01-42.6-.01-85.19c0-9.63 3.17-12.65 13.09-12.65q56.19.03 112.41-.01a.51.51 0 0 0 .51-.51V81a.51.51 0 0 0-.51-.51q-65.07.03-130.13-.01-9.58 0-14.56 1.36-17.09 4.69-21.73 21.75-1.37 5.04-1.36 14.97.1 60.1.01 120.19c-.03 16.48 5.89 30.11 22.66 34.74q5.59 1.54 19.42 1.53 37.07-.02 74.2-.05a.5.5 0 0 0 .5-.5v-91.72a.5.5 0 0 0-.5-.5h-64.25a.5.5 0 0 0-.5.5V223a.5.5 0 0 0 .5.5h23a.5.5 0 0 1 .5.5M758.8 254.52c4.29 13.25 16.54 21.46 30.46 21.46q69.96.04 139.76.01a.48.48 0 0 0 .48-.48v-40.23a.52.51 0 0 0-.52-.51q-58.23-.04-116.47-.01c-7.23 0-11.42-1.52-13.94-8.27q-.74-1.99 1.38-1.99h99.55a.5.5 0 0 0 .5-.5v-40.25a.5.5 0 0 0-.5-.5H757.75a.49.48-90 0 0-.48.49q-.07 27.98.01 55.93.03 10.23 1.52 14.85" vector-effect="non-scaling-stroke"/><path d="M1287.37 227.91a.34.34 0 0 0 .32.45l26.99.28a.34.34 0 0 0 .33-.44l-13.08-40.12a.34.34 0 0 0-.64 0l-13.92 39.83" vector-effect="non-scaling-stroke"/></g><g fill="#fff"><path d="M952.9 35.88q26.93-24.76 62.61-29.09 6.65-.81 19.97-.8 75.26.03 150.27 0a.75.75 0 0 1 .75.75v144.93a.26.26 0 0 0 .5.08q14.22-42.51 28.51-84.5 4.23-12.43 7.47-18.51c34.59-65.04 129.56-63.08 161.21 3.28q2.49 5.22 7 18.7 46.5 139.03 93.03 278.08a.34.34 0 0 1-.32.45h-449.4q-13.21 0-19.95-.9-33.95-4.53-59.34-28.59a.27.27 0 0 0-.46.2v28.69a.57.56-90 0 1-.56.57q-84.5.06-168.93.02-6.84 0-16.13-1.88c-32.4-6.57-58.66-26.9-74.4-55.95a.31.3 48 0 0-.52-.03q-3.47 4.97-7.02 9.57c-25.2 32.64-58.97 48.34-99.93 48.32q-75.74-.04-151.55-.01a.46.46 0 0 1-.46-.46V209a.5.5 0 0 1 .5-.5h31.03a.31.31 0 0 0 .23-.51c-66.97-73.3-21.09-191.16 76.83-201.3q6.24-.65 19.97-.66 73.46-.07 146.93-.01a.52.52 0 0 1 .52.52l-.02 32.23a.28.28 0 0 0 .48.2q27.19-27.68 65.12-32.18 6.53-.78 19.97-.78Q874.4 5.99 952 6a.5.5 0 0 1 .5.5v29.21q0 .54.4.17m169.35 137.62v109.96a.5.5 0 0 1-.5.5q-44.01.09-88.02.02-11.38-.02-16.68-1.49c-13.62-3.76-24.63-14.89-28.34-28.48q-1.45-5.32-1.46-16.67-.02-60.77.02-121.54 0-9.39 1.37-14.34c3.81-13.74 14.9-24.81 28.59-28.53q5.27-1.44 16.17-1.43 64.75.01 129.37 0a.49.48-90 0 0 .48-.49V30.78a.51.51 0 0 0-.51-.51q-64.96-.05-129.92 0-13.26.01-19.93 1.14c-34.68 5.88-60.93 33.38-66.73 67.41q-1.21 7.09-1.2 19.93.06 59.72.05 119.44 0 12.88 1.33 19.91c7.5 39.6 41.37 67.04 81.65 67.1q83.76.11 167.41-.01a.69.68-80.5 0 0 .65-.47q41.66-121.08 83.44-242.12 2.65-7.67 5.27-11c11.43-14.52 34.11-9.93 39.96 7.41q34.49 102.31 68.87 204.57a.32.31-9.7 0 1-.3.42h-108.04a.5.5 0 0 0-.5.5v40.25a.5.5 0 0 0 .5.5h164.98a.39.39 0 0 0 .37-.52q-41.33-122.79-82.83-245.53-4.46-13.21-7.36-18.57c-24.21-44.78-88.75-48.5-114.99-4.16q-3.43 5.8-7.48 17.71-37.58 110.39-75.3 220.83a.2.2 0 0 1-.39-.06V132.5a.5.5 0 0 0-.5-.5h-114.5a.5.5 0 0 0-.5.5v40a.5.5 0 0 0 .5.5h74.5a.5.5 0 0 1 .5.5M541.37 31.34c-42.5 6.39-75.25 39.85-81.04 82.43-7.96 58.51 36.54 108.89 95.18 109.53q16.2.18 32.41.21c8.95.02 8.58 10.24 1.3 10.24q-64.71-.01-129.45.02a.52.52 0 0 0-.52.52v39.93a.51.51 0 0 0 .51.51q63.48.05 126.95.01 10.02-.01 15.33-1.38c27.44-7.07 42.31-37.47 30.83-63.34-7.59-17.1-24.55-27.75-43.37-27.75q-13.65 0-27.29-.04-11.46-.04-17.18-1.32c-28.36-6.38-48.69-35.57-42.39-64.74 4.55-21.02 20.63-38.29 41.88-43.27q5.99-1.4 18.58-1.4h123.67a.49.48-90 0 0 .48-.49V30.79a.51.51 0 0 0-.51-.51q-62.74-.08-125.42 0-13 .02-19.95 1.06M778.18 282.6c-13.87-3.75-25.03-15.07-28.73-28.92q-1.42-5.33-1.43-16.12-.05-59.16 0-118.31.01-12.22 1.49-17.74c3.78-14.02 15.42-25.41 29.69-28.87q4.73-1.15 14.7-1.15 67.53.03 135.09-.01a.51.51 0 0 0 .51-.51V30.78a.51.51 0 0 0-.51-.51q-67.09-.04-134.19-.02-12.98.01-19.92 1.22c-33.37 5.81-60.13 31.71-66.52 65.2q-1.33 6.97-1.34 19.89-.04 61.48-.02 122.98.01 11.85 1.32 18.71c7.58 39.52 41.44 66.98 81.69 67q69.47.03 138.98-.02a.51.51 0 0 0 .51-.51V284.5a.51.51 0 0 0-.51-.51q-67.95.03-135.92-.01-9.78 0-14.89-1.38m505.57-42.8v34.45a.5.5 0 0 0 .5.5h95.93a.22.22 0 0 0 .21-.29q-32.42-96.35-65.09-192.6c-3-8.82-11.99-12.59-19.95-6.96q-4.47 3.16-5.15 5.13-41.83 121.7-83.92 244.49a.55.55 0 0 0 .52.73h47.21a.75.75 0 0 0 .71-.51l28.7-84.99a.17.17 0 0 1 .33.05M544.57 82.05c-28.26 7.32-43.01 38.87-29.88 65.19 8.48 17.01 24.52 25.93 43.76 25.81 13.32-.08 29.59-1.12 41.21 1.21 37.33 7.5 57.41 48.86 37.35 82.41-11.53 19.29-29.77 27.4-52.06 27.37q-62.67-.09-125.26-.02a.44.44 0 0 0-.44.44v40.33a.45.45 0 0 0 .45.45q62.28.04 124.47-.01 13.1-.01 19.96-1.01c71.75-10.42 107.27-92.96 65.15-151.82-17.35-24.25-46.73-40.46-76.78-40.41q-17.38.03-34.76-.01c-7.48-.02-8.38-9.24.92-9.23q64.13.01 128.11 0a.49.48-90 0 0 .48-.49V81.04a.51.51 0 0 0-.51-.51q-61.54-.07-123.02 0-13.33.02-19.15 1.52m234.84-.19C766 85.77 757.33 98.13 757.3 112q-.06 30.45-.04 60.8a.45.45 0 0 0 .45.45H899.5a.5.5 0 0 0 .5-.5V132.5a.5.5 0 0 0-.5-.5H799.43a.98.98 0 0 1-.95-1.2c1.48-6.32 5.5-8.04 11.89-8.04l117.62-.02a.52.51 90 0 0 .51-.52V81.01a.5.49 90 0 0-.49-.5q-66.34-.04-132.66.02-11.4.01-15.94 1.33M1070.75 224v8.21a.52.51-.6 0 1-.51.51q-10.45.09-20.89 0c-9.22-.08-11.85-4.01-11.85-13.14q.01-42.6-.01-85.19c0-9.63 3.17-12.65 13.09-12.65q56.19.03 112.41-.01a.51.51 0 0 0 .51-.51V81a.51.51 0 0 0-.51-.51q-65.07.03-130.13-.01-9.58 0-14.56 1.36-17.09 4.69-21.73 21.75-1.37 5.04-1.36 14.97.1 60.1.01 120.19c-.03 16.48 5.89 30.11 22.66 34.74q5.59 1.54 19.42 1.53 37.07-.02 74.2-.05a.5.5 0 0 0 .5-.5v-91.72a.5.5 0 0 0-.5-.5h-64.25a.5.5 0 0 0-.5.5V223a.5.5 0 0 0 .5.5h23a.5.5 0 0 1 .5.5M758.8 254.52c4.29 13.25 16.54 21.46 30.46 21.46q69.96.04 139.76.01a.48.48 0 0 0 .48-.48v-40.23a.52.51 0 0 0-.52-.51q-58.23-.04-116.47-.01c-7.23 0-11.42-1.52-13.94-8.27q-.74-1.99 1.38-1.99h99.55a.5.5 0 0 0 .5-.5v-40.25a.5.5 0 0 0-.5-.5H757.75a.49.48-90 0 0-.48.49q-.07 27.98.01 55.93.03 10.23 1.52 14.85"/><path d="m1287.37 227.91 13.92-39.83a.34.34 0 0 1 .64 0l13.08 40.12a.34.34 0 0 1-.33.44l-26.99-.28a.34.34 0 0 1-.32-.45M95 625.47v148.06a.47.47 0 0 1-.47.47H.72a.47.47 0 0 1-.47-.47V410.72a.47.47 0 0 1 .47-.47h93.81a.47.47 0 0 1 .47.47v139.31a.47.47 0 0 0 .47.47h135.31a.47.47 0 0 0 .47-.47V410.72a.47.47 0 0 1 .47-.47h93.81a.47.47 0 0 1 .47.47v362.81a.47.47 0 0 1-.47.47h-93.81a.47.47 0 0 1-.47-.47V625.47a.47.47 0 0 0-.47-.47H95.47a.47.47 0 0 0-.47.47"/><rect width="94.74" height="363.74" x="387.26" y="410.26" rx=".43"/><path d="M639.6 559.47Q696.18 485 752.97 410.65a1 1 0 0 1 .8-.4h116.48a.28.28 0 0 1 .21.46L726.55 581.96a.73.73 0 0 0-.01.93L883.49 773.5a.3.3 0 0 1-.23.5H761.51a1.07 1.07 0 0 1-.84-.41l-121.68-157.3a.42.41-64.1 0 0-.74.26V773.5a.5.5 0 0 1-.5.5H544a.5.5 0 0 1-.5-.5V410.75a.5.5 0 0 1 .5-.5h93.75a.5.5 0 0 1 .5.5v148.79a.42.41-2 0 0 .45.41c.29-.02.71-.23.9-.48M985.99 774h-99.45a.54.54 0 0 1-.51-.73l139.48-362.67a.54.54 0 0 1 .5-.35h102.81a.54.54 0 0 1 .5.35l136.57 362.67a.54.54 0 0 1-.5.73h-99.96a.54.54 0 0 1-.51-.36l-87.47-250.54a.54.54 0 0 0-1.02 0L986.5 773.64a.54.54 0 0 1-.51.36M1390.74 634.32a.4.4 0 0 0-.74.22V773.5a.5.5 0 0 1-.5.5h-93.75a.5.5 0 0 1-.5-.5V410.7a.45.45 0 0 1 .45-.45q73.6-.01 147.3 0 13.22.01 30.25 3.2c49.79 9.32 83.38 41.35 88.84 92.74 5.81 54.72-19.73 107.77-77.79 118.57a.48.48 0 0 0-.3.77l113.8 148.2a.17.17 0 0 1-.13.27H1480.4a.94.91-16 0 1-.78-.42zm73.51-101.11c4.4-45.82-39.63-52.54-73.7-50.28a.59.59 0 0 0-.55.59v88.72a.61.6-88.5 0 0 .57.61c29.36 1.56 70.02-1.54 73.68-39.64M1642.93 745.82c-35.1-31.67-40.93-75.63-41.02-120.63q-.21-107.22-.13-214.43a.51.5-90 0 1 .5-.51h93.74a.49.49 0 0 1 .49.49q-.04 98.27.02 196.7c.01 17.62 1.24 37.39 6.93 55.04 10.9 33.82 43.94 42.82 75.72 35.96 24.1-5.21 36.4-23.31 41.38-46.2q3.89-17.85 3.9-33.56.06-103.95.05-207.91a.52.52 0 0 1 .52-.52h93.98a.48.48 0 0 1 .48.48q.05 105.18-.03 210.52c-.03 51.61-7.18 102.51-52.75 133.97-41.21 28.43-100.93 33.16-149.22 24.58-27.23-4.85-53.85-15.3-74.56-33.98"/></g><g fill="#034693"><path d="M1121.75 173h-74.5a.5.5 0 0 1-.5-.5v-40a.5.5 0 0 1 .5-.5h114.5a.5.5 0 0 1 .5.5v162.45a.2.2 0 0 0 .39.06q37.72-110.44 75.3-220.83 4.05-11.91 7.48-17.71c26.24-44.34 90.78-40.62 114.99 4.16q2.9 5.36 7.36 18.57 41.5 122.74 82.83 245.53a.39.39 0 0 1-.37.52h-164.98a.5.5 0 0 1-.5-.5V284.5a.5.5 0 0 1 .5-.5h108.04a.32.31-9.7 0 0 .3-.42q-34.38-102.26-68.87-204.57c-5.85-17.34-28.53-21.93-39.96-7.41q-2.62 3.33-5.27 11-41.78 121.04-83.44 242.12a.69.68-80.5 0 1-.65.47q-83.65.12-167.41.01c-40.28-.06-74.15-27.5-81.65-67.1q-1.33-7.03-1.33-19.91.01-59.72-.05-119.44-.01-12.84 1.2-19.93c5.8-34.03 32.05-61.53 66.73-67.41q6.67-1.13 19.93-1.14 64.96-.05 129.92 0a.51.51 0 0 1 .51.51v40.23a.49.48-90 0 1-.48.49q-64.62.01-129.37 0-10.9-.01-16.17 1.43c-13.69 3.72-24.78 14.79-28.59 28.53q-1.37 4.95-1.37 14.34-.04 60.77-.02 121.54.01 11.35 1.46 16.67c3.71 13.59 14.72 24.72 28.34 28.48q5.3 1.47 16.68 1.49 44.01.07 88.02-.02a.5.5 0 0 0 .5-.5V173.5a.5.5 0 0 0-.5-.5M460.33 113.77c5.79-42.58 38.54-76.04 81.04-82.43q6.95-1.04 19.95-1.06 62.68-.08 125.42 0a.51.51 0 0 1 .51.51v40.22a.49.48-90 0 1-.48.49H563.1q-12.59 0-18.58 1.4c-21.25 4.98-37.33 22.25-41.88 43.27-6.3 29.17 14.03 58.36 42.39 64.74q5.72 1.28 17.18 1.32 13.64.04 27.29.04c18.82 0 35.78 10.65 43.37 27.75 11.48 25.87-3.39 56.27-30.83 63.34q-5.31 1.37-15.33 1.38-63.47.04-126.95-.01a.51.51 0 0 1-.51-.51v-39.93a.52.52 0 0 1 .52-.52q64.74-.03 129.45-.02c7.28 0 7.65-10.22-1.3-10.24q-16.21-.03-32.41-.21c-58.64-.64-103.14-51.02-95.18-109.53M749.45 253.68c3.7 13.85 14.86 25.17 28.73 28.92q5.11 1.38 14.89 1.38 67.97.04 135.92.01a.51.51 0 0 1 .51.51v40.22a.51.51 0 0 1-.51.51q-69.51.05-138.98.02c-40.25-.02-74.11-27.48-81.69-67q-1.31-6.86-1.32-18.71-.02-61.5.02-122.98.01-12.92 1.34-19.89c6.39-33.49 33.15-59.39 66.52-65.2q6.94-1.21 19.92-1.22 67.1-.02 134.19.02a.51.51 0 0 1 .51.51v40.19a.51.51 0 0 1-.51.51q-67.56.04-135.09.01-9.97 0-14.7 1.15c-14.27 3.46-25.91 14.85-29.69 28.87q-1.48 5.52-1.49 17.74-.05 59.15 0 118.31.01 10.79 1.43 16.12"/><path d="M1283.75 239.8a.17.17 0 0 0-.33-.05l-28.7 84.99a.75.75 0 0 1-.71.51h-47.21a.55.55 0 0 1-.52-.73q42.09-122.79 83.92-244.49.68-1.97 5.15-5.13c7.96-5.63 16.95-1.86 19.95 6.96q32.67 96.25 65.09 192.6a.22.22 0 0 1-.21.29h-95.93a.5.5 0 0 1-.5-.5zm3.62-11.89a.34.34 0 0 0 .32.45l26.99.28a.34.34 0 0 0 .33-.44l-13.08-40.12a.34.34 0 0 0-.64 0zM514.69 147.24c-13.13-26.32 1.62-57.87 29.88-65.19q5.82-1.5 19.15-1.52 61.48-.07 123.02 0a.51.51 0 0 1 .51.51v41.22a.49.48-90 0 1-.48.49q-63.98.01-128.11 0c-9.3-.01-8.4 9.21-.92 9.23q17.38.04 34.76.01c30.05-.05 59.43 16.16 76.78 40.41 42.12 58.86 6.6 141.4-65.15 151.82q-6.86 1-19.96 1.01-62.19.05-124.47.01a.45.45 0 0 1-.45-.45v-40.33a.44.44 0 0 1 .44-.44q62.59-.07 125.26.02c22.29.03 40.53-8.08 52.06-27.37 20.06-33.55-.02-74.91-37.35-82.41-11.62-2.33-27.89-1.29-41.21-1.21-19.24.12-35.28-8.8-43.76-25.81M757.3 112c.03-13.87 8.7-26.23 22.11-30.14q4.54-1.32 15.94-1.33 66.32-.06 132.66-.02a.5.49 90 0 1 .49.5v41.21a.52.51 90 0 1-.51.52l-117.62.02c-6.39 0-10.41 1.72-11.89 8.04a.98.98 0 0 0 .95 1.2H899.5a.5.5 0 0 1 .5.5v40.25a.5.5 0 0 1-.5.5H757.71a.45.45 0 0 1-.45-.45q-.02-30.35.04-60.8M1070.25 223.5h-23a.5.5 0 0 1-.5-.5v-40.25a.5.5 0 0 1 .5-.5h64.25a.5.5 0 0 1 .5.5v91.72a.5.5 0 0 1-.5.5q-37.13.03-74.2.05-13.83.01-19.42-1.53c-16.77-4.63-22.69-18.26-22.66-34.74q.09-60.09-.01-120.19-.01-9.93 1.36-14.97 4.64-17.06 21.73-21.75 4.98-1.36 14.56-1.36 65.06.04 130.13.01a.51.51 0 0 1 .51.51v40.22a.51.51 0 0 1-.51.51q-56.22.04-112.41.01c-9.92 0-13.09 3.02-13.09 12.65q.02 42.59.01 85.19c0 9.13 2.63 13.06 11.85 13.14q10.44.09 20.89 0a.52.51-.6 0 0 .51-.51V224a.5.5 0 0 0-.5-.5M789.26 275.98c-13.92 0-26.17-8.21-30.46-21.46q-1.49-4.62-1.52-14.85-.08-27.95-.01-55.93a.49.48-90 0 1 .48-.49H899.5a.5.5 0 0 1 .5.5V224a.5.5 0 0 1-.5.5h-99.55q-2.12 0-1.38 1.99c2.52 6.75 6.71 8.27 13.94 8.27q58.24-.03 116.47.01a.52.51 0 0 1 .52.51v40.23a.48.48 0 0 1-.48.48q-69.8.03-139.76-.01"/></g></svg>