<svg xmlns="http://www.w3.org/2000/svg" xmlns:xlink="http://www.w3.org/1999/xlink" xml:space="preserve" viewBox="0 0 212.393 96.782"><defs><linearGradient id="a"><stop offset="0" style="stop-color:#ec2025;stop-opacity:1"/><stop offset="1" style="stop-color:#56296f;stop-opacity:1"/></linearGradient><linearGradient xlink:href="#a" id="b" x1="-220.577" x2="-220.786" y1="-89.632" y2="-100.533" gradientTransform="translate(-14.299 -5.736)" gradientUnits="userSpaceOnUse"/></defs><path fill="#5382a1" d="M-353.778-108.195s-3.7 2.151 2.632 2.879c7.67.875 11.59.75 20.042-.85 0 0 2.222 1.393 5.326 2.6-18.948 8.12-42.883-.47-28-4.629m-2.316-10.597s-4.148 3.071 2.188 3.726c8.193.846 14.663.915 25.86-1.241 0 0 1.548 1.57 3.983 2.428-22.909 6.7-48.425.529-32.03-4.913" style="display:inline;stroke-width:.260879" transform="translate(376.769 183.048)"/><path d="M-350.11-86.57c17.506 1.116 44.388-.62 45.025-8.867 0 0-1.224 3.127-14.468 5.61-14.941 2.8-33.37 2.473-44.299.678 0 0 2.237 1.844 13.743 2.579" style="display:inline;fill:#5382a1;fill-opacity:1;stroke-width:.469066" transform="translate(376.769 183.048)"/><path fill="#5382a1" d="M-311.515-100.357s2.737 2.256-3.015 4c-10.936 3.313-45.52 4.314-55.127.132-3.454-1.502 3.023-3.587 5.06-4.025 2.125-.46 3.339-.374 3.339-.374-3.841-2.706-24.825 5.312-10.66 7.608 38.633 6.265 70.424-2.82 60.403-7.34M-352-129.772s-17.591 4.178-6.23 5.695c4.798.642 14.361.497 23.27-.25 7.28-.613 14.59-1.92 14.59-1.92s-2.568 1.1-4.425 2.368c-17.863 4.699-52.373 2.513-42.438-2.293 8.402-4.061 15.233-3.6 15.233-3.6m31.557 17.639c18.16-9.437 9.763-18.505 3.903-17.283-1.437.299-2.077.558-2.077.558s.533-.835 1.552-1.197c11.593-4.076 20.51 12.022-3.743 18.397 0 0 .281-.25.365-.475" style="stroke-width:.260879" transform="translate(376.769 183.048)"/><path fill="#f8981d" d="M-336.575-136.768c4.669 5.375-1.227 10.212-1.227 10.212s11.855-6.12 6.41-13.783c-5.084-7.146-8.983-10.697 12.126-22.94 0 0-33.135 8.276-17.309 26.511" style="stroke-width:.260879;fill:#ec2025;fill-opacity:1" transform="translate(376.769 183.048)"/><path fill="#f8981d" d="M-331.391-183.048s10.057 10.06-9.539 25.53c-15.713 12.41-3.583 19.486-.007 27.57-9.172-8.276-15.903-15.561-11.387-22.341 6.628-9.953 24.99-14.778 20.932-30.759" style="display:inline;stroke-width:.260879;fill:#ec2025;fill-opacity:1" transform="translate(376.769 183.048)"/><path fill="#5382a1" d="M-247.74-126.087c-2.32 2.012-4.77 3.142-6.968 3.142-3.138 0-4.834-1.882-4.834-4.9 0-3.265 1.817-5.652 9.105-5.652h2.697zm6.4 7.222v-22.354c0-5.71-3.256-9.479-11.11-9.479-4.584 0-8.6 1.132-11.863 2.576l.942 3.957c2.57-.943 5.896-1.822 9.161-1.822 4.524 0 6.47 1.822 6.47 5.587v2.826h-2.258c-10.99 0-15.949 4.266-15.949 10.67 0 5.527 3.268 8.668 9.42 8.668 3.954 0 6.906-1.633 9.665-4.022l.5 3.393zm21.362 0h-7.983l-9.608-31.267h6.972l5.961 19.21 1.326 5.778c3.015-8.353 5.149-16.828 6.215-24.988h6.782c-1.817 10.296-5.086 21.597-9.665 31.267m30.624-7.222c-2.324 2.012-4.778 3.142-6.977 3.142-3.132 0-4.832-1.882-4.832-4.9 0-3.265 1.82-5.652 9.108-5.652h2.701zm6.4 7.222v-22.354c0-5.71-3.265-9.479-11.109-9.479-4.587 0-8.605 1.132-11.867 2.576l.94 3.957c2.571-.943 5.904-1.822 9.167-1.822 4.52 0 6.47 1.822 6.47 5.587v2.826h-2.262c-10.995 0-15.95 4.266-15.95 10.67 0 5.527 3.264 8.668 9.415 8.668 3.957 0 6.907-1.633 9.672-4.022l.502 3.393zm-90.01 5.31c-1.826 2.664-4.773 4.772-8 5.964l-3.16-3.719c2.457-1.26 4.563-3.295 5.541-5.19.847-1.687 1.197-3.86 1.197-9.056v-35.696h6.8v35.207c0 6.947-.555 9.753-2.379 12.49" style="display:inline;fill:#ec2025;fill-opacity:1;stroke-width:.368021" transform="translate(376.769 183.048)"/><g aria-label="J2ME" style="font-weight:700;font-size:22.5778px;line-height:1.25;-inkscape-font-specification:&quot;sans-serif, Bold&quot;;fill:url(#b);stroke-width:.264583" transform="translate(376.769 183.048)"><path d="M-257.47-88.38q-.655 0-1.151-.068-.497-.068-.858-.18v-2.846q.36.09.767.158.384.068.836.068.587 0 1.06-.226.498-.225.768-.858.271-.61.271-1.806v-15.104h3.41v15.082q0 2.077-.655 3.341-.632 1.287-1.784 1.852-1.151.587-2.664.587M-238.166-93.122h-11.266v-2.37l4.041-4.087q1.22-1.264 1.964-2.1.746-.858 1.084-1.535.339-.7.339-1.49 0-.971-.542-1.445-.52-.474-1.422-.474-.926 0-1.807.429t-1.851 1.219l-1.851-2.19q.677-.587 1.467-1.106.79-.542 1.806-.858 1.039-.34 2.484-.34 1.58 0 2.71.588 1.15.564 1.76 1.558.633.97.633 2.212 0 1.332-.542 2.439-.52 1.106-1.536 2.19-.993 1.084-2.415 2.393l-2.078 1.942v.158h7.022zM-228.57-93.122l-3.884-12.643h-.09l.068 1.354q.045.903.09 1.942t.045 1.851v7.496h-3.048v-16.12h4.651l3.816 12.327h.068l4.041-12.327h4.651v16.12h-3.183v-7.631q0-.768.022-1.761.045-.994.068-1.874l.068-1.355h-.09l-4.155 12.621zM-204.818-93.122h-9.28v-16.12h9.28v2.8h-5.87v3.544h5.463v2.8h-5.464v4.154h5.87z"/></g></svg>