<svg xmlns="http://www.w3.org/2000/svg" viewBox="0 -0.001 596.888 110.4"><text x="64.4" y="103.018" fill="#ef00eb" stroke="#0105ff" stroke-width="1.75" font-family="TrasksHand" font-size="1.4" transform="rotate(-10.82 -117.703 210.195)"><tspan x="64.4" y="103.018" fill="#fafafa" fill-opacity=".4" stroke="none">John Loreth 2022</tspan></text><g stroke-linecap="round"><path fill="#3362ba" d="M.724 18.914C12.752 7.712 31.94 1.446 43 .007c.548-.071.993.33.993.882v62.353c0 .552-.44 1.08-.984 1.182-18.643 3.5-30.502 8.97-42.155 16.06-.472.287-.853.074-.853-.478V20.603c0-.552.32-1.313.724-1.69z"/><path fill="#ef8b0f" fill-opacity=".941" d="M51.092 15.394v52.487c0 .552-.44 1.08-.982 1.181-21.49 4.013-35.533 10.2-48.98 18.159a.87.87 0 0 0 .966.796l68.059-10.01c.567-.083.987-.57.986-1.144l-.217-62.92a.882.882 0 0 0-.996-.873l-17.74 2.281q-.546.05-1.096.043"/><path fill="#4a994f" d="M58.023 97.826.318 91.744a.104.104 0 0 1 0-.207l57.705-5.916a.903.903 0 0 1 .994.898v10.412a.9.9 0 0 1-.994.895"/><path fill="#3362ba" d="M35.336 110.35.554 96.16a.126.126 0 0 1 .065-.241l34.588 4.76a1.155 1.155 0 0 1 .997 1.136l.052 7.912a.667.667 0 0 1-.92.622zm62.909-20.263H587.33l4.14 5.104H102.385z"/><path fill="#d4d0ce" d="M103.665 97.551h489.083l4.14 5.104H107.805z"/></g><path fill="#666" stroke-width="2.5" d="M158.983 67.521V51.295h9.61V67.52zm0-24.34v-8.123h9.61v8.123zm-28.829 32.454v-48.69h28.829v8.113h-19.22v8.123h19.22v8.114h-19.22V67.52h19.22v8.114zm47.394 0v-24.34h9.61v24.34zm0-32.454v-8.123h9.61v8.123zm47.382 24.34v-8.113h-19.22v8.113zm-28.83 8.114V35.058h9.61v16.237h28.829v24.34zm47.394 0V35.058h9.61v40.577zm18.553 0v-24.34h9.61v24.34zm0-32.454v-8.123h9.61v8.123zm28.163 32.454V67.52h19.22v8.114zm-9.61-8.114v-24.34h9.61v24.34zm28.83 0v-24.34h9.609v24.34zm-19.22-24.34v-8.123h19.22v8.123zm37.784 32.454V35.058h9.61v16.237h28.828v8.113h-28.829v8.113h28.83v8.114zm47.393 0V35.058h9.61v16.237h28.829v24.34h-9.61V59.408h-19.219v16.227zm76.223-24.34V43.18h-19.22v8.114zm-28.83 24.34V35.058h38.44v24.35h-28.83v8.113h28.83v8.114zm76.223-24.34V43.18h-19.22v8.114zm-28.829 24.34V35.058h38.439v24.35h-28.83v8.113h28.83v8.114zm76.223 0V67.52h9.61v8.114zm0-16.227v-8.113h9.61v8.113zm-28.83 16.227V35.058h9.61v24.35h19.22v8.113h-19.22v8.114z"/></svg>