<svg xmlns="http://www.w3.org/2000/svg" viewBox="0 0 1070 240"><g fill="none" stroke="gray" stroke-width="2"><path d="M674.14 153.82q-9 11.2-17.2 21.61-1.52 1.93-3.92 2.13c-.3.03-.47.16-.53.44a.5.5 0 0 0 .45.59c1.43.14 8.06.52 8.44-.33a.44.43 17.9 0 0-.32-.61l-1.78-.34a.71.71 0 0 1-.42-1.13l4.07-5.27a1.05 1.03 18.3 0 1 .83-.41h9.06a.69.68 84.9 0 1 .67.57l.8 4.71a1.01 1.01 0 0 1-.41 1q-1.39.99-3.18.79a.42.41 3.1 0 0-.46.41l.01.28a.51.51 0 0 0 .51.5l9.46-.03a.47.47 0 0 0 .16-.92c-2.34-.84-2.39-2.74-2.63-4.97q-1.04-9.76-2.36-18.69-.24-1.6-1.25-.33M426.96 175.59l.27-2.78a.4.39-63.8 0 0-.1-.31l-.22-.23a.43.43 0 0 0-.71.14l-1.96 5.15a.62.62 0 0 0 .37.8c7.26 2.57 17.5-.16 19.75-8.41 2.32-8.52-14.21-3.14-10.84-10.2q2.69-5.64 9.26-4.27 3.08.64 1.74 3.81a.46.45-72 0 0 .31.62c.96.24 2.35-3.68 2.57-4.64a.58.58 0 0 0-.36-.67q-9.14-3.52-15.04 2.81c-2.91 3.12-4.19 8.43 1.5 9.59q4.59.94 6.54 1.82a.84.84 0 0 1 .5.7c.62 6.99-8.04 9.49-13.17 6.83a.78.77-73.6 0 1-.41-.76M468.56 177.27a.61.6 24.8 0 1-.35-.95l4.08-5.42a1 1 0 0 1 .8-.4h9.54a.67.67 0 0 1 .67.63l.35 5.36a.75.74-5.9 0 1-.64.78l-2.95.45a.47.47 0 0 0-.32.72c.34.51 7.2.33 9.7.26q.46-.01.56-.39a.55.54-76.4 0 0-.39-.65c-1.14-.28-1.73-.62-1.91-1.89q-1.49-10.63-2.69-21.48a.84.84 0 0 0-1.5-.43q-8.47 10.57-17.14 21.52-1.61 2.04-4.21 2.38a.39.39 0 0 0-.28.58c.33.6 8.63.64 8.97-.01a.43.42 20.6 0 0-.28-.61l-2.01-.45M615.44 159.94c-3.4 3.39-5.8 9.45-3.84 14 3.82 8.85 22.26 4.52 20.86 1.96a.56.56 0 0 0-.72-.24c-5.48 2.45-16.14 2.99-16.42-5.73q-.09-2.65.72-4.61 5.03-12.16 19.21-9.36a1.47 1.46 15.1 0 1 1.1 1.91l-.6 1.77a.53.53 0 0 0 .46.7c1.03.09 2.15-3.16 2.89-4.9a.47.47 0 0 0-.28-.62q-13.65-4.6-23.38 5.12M176.41 156.49q-5.03 13.11-5.44 17.26c-.64 6.67 9.65 6.11 13.78 4.76 8.12-2.67 10.13-14.86 12.51-22.02q.53-1.58 2.91-1.26a1.17 1.16 26.7 0 0 .95-.31l.4-.38a.44.44 0 0 0-.3-.76c-1.2-.02-8.81-.51-8.94.71a.59.59 0 0 0 .46.63l2.03.42a.68.67-75.3 0 1 .5.87q-1.5 4.66-3.04 9.36c-2.67 8.13-4.98 12.6-14.32 10.7-2.68-.55-3.51-2-2.75-4.68q2.06-7.34 4.59-14.55c.98-2.81 4.02-1.24 4.39-2.85a.41.4 4.8 0 0-.42-.49c-1.4.06-10.42-.46-10.42.59a.74.72-84.6 0 0 .57.71l2.11.48a.61.61 0 0 1 .43.81M221.61 159.34a.6.6 0 0 1 1.1-.09l9.65 18.54a1.45 1.44 87.1 0 0 .76.69l2.17.88a.51.51 0 0 0 .68-.31l7.45-22.32a2.16 2.14-83.1 0 1 1.85-1.46q1.12-.1 1.99-.76 1.08-.81-.27-.79l-7.75.1a.46.45 56.3 0 0-.17.87l2.1.94a.58.57 20.9 0 1 .32.7l-5.61 17.48a.58.58 0 0 1-1.07.09l-9.95-19.63a.74.74 0 0 0-.68-.41l-5.38.03a.5.5 0 0 0-.37.16l-.19.21a.51.5 31.5 0 0 .2.82l1.71.61a.87.86-71.1 0 1 .53 1.09l-6.59 19.58a1.24 1.23 2.7 0 1-.87.79l-2.79.64a.31.31 0 0 0-.18.48c.52.7 8.01.72 8.51.07a.29.29 0 0 0-.12-.44l-2.02-.81a.65.64 20.2 0 1-.38-.8l5.37-16.95M270.61 158.19q-2.76 8.4-5.65 16.77c-.72 2.1-2.2 2.85-4.28 2.82a.45.45 0 0 0-.45.52c.11.71 7.67.47 10.71.41q.38-.01.51-.23a.34.33-64 0 0-.16-.48l-2.42-.98a.65.64 19.2 0 1-.38-.77q2.76-9.49 6.09-18.8c1.03-2.89 4.26-1.94 4.56-3a.45.45 0 0 0-.4-.56c-1.28-.08-10.55-.68-10.7.55a.49.48-86.2 0 0 .47.54c2.28.04 2.76 1.2 2.1 3.21M306.7 173.06l-1.44-16.41a.88.86 69.9 0 1 .36-.8c1.21-.88 3.06-.01 3.69-1.46a.45.45 0 0 0-.41-.63l-9.02-.02a.63.63 0 0 0-.63.63v.33a.52.51-87.6 0 0 .47.52q1.37.12 1.48 1.09 1.28 11.08 2.31 22.37a.69.69 0 0 0 1.11.49q1.18-.89 2.13-2.19 7.2-9.86 14.67-19.52c1.19-1.53 2.36-2.21 4.03-3.01a.36.36 0 0 0-.16-.68l-7.7.06a.45.45 0 0 0-.43.36l-.06.28a.6.59 13 0 0 .45.7l1.88.44a.58.58 0 0 1 .33.91l-12.33 16.75q-.64.87-.73-.21M353.36 155.67l8.12.11a.62.62 0 0 1 .61.64l-.12 2.85q-.08 2.05.81.19l2.44-5.11a.42.41-77 0 0-.37-.6h-17.9a.64.64 0 0 0-.64.63l-.02.47a.47.46 0 0 0 .48.47c1.38-.05 2.01.73 1.55 2.04q-3.28 9.41-6.4 18.92a1.3 1.29-7.9 0 1-.52.68l-1.48.98q-1.22.81.25.81h17.19a.84.84 0 0 0 .78-.53l1.95-5.01a.51.51 0 0 0-.43-.69c-.77-.08-2.36 2.98-2.8 3.67a.96.93 15.4 0 1-.78.43l-9.48.18a.61.61 0 0 1-.61-.7q.47-3.3 2.28-6.08a1.11 1.09-34 0 0 .16-.8c-.68-3.46 5.78-2.19 7.52-1.9a.66.65 11.1 0 1 .53.78l-.29 1.34a.62.61 14.7 0 0 .42.71l.25.08a.52.51-72.1 0 0 .64-.33l2.35-7.57a.43.43 0 0 0-.78-.36l-1.63 2.6a.92.9-73.7 0 1-.77.43h-6.48a.46.46 0 0 1-.44-.61l2.91-8.23a.73.72 9.9 0 1 .7-.49M390.36 156.38l-6.39 19.29a2.54 2.54 0 0 1-1.96 1.71l-2.35.44a.45.45 0 0 0 .08.89c1.4.03 10.15.29 10.61-.23a.35.35 0 0 0-.14-.55l-2.17-.87a.76.76 0 0 1-.44-.95l6.26-19.03a1.3 1.27 84.1 0 1 .54-.68c2.07-1.26 7.76-1.49 8.33 1.12 1.08 4.97-5.29 8.2-9.37 7.73a.79.79 0 0 0-.81 1.13l5.61 11.7a.9.9 0 0 0 .66.5q2.37.44 4.75-.03 1.25-.24.11-.8l-1.05-.52a1.7 1.68-89.6 0 1-.77-.79l-4.5-9.24a.82.82 0 0 1 .58-1.16c8.35-1.6 15.15-12.94.23-12.27q-5.2.24-10.45 0a.53.53 0 0 0-.49.76q.69 1.37 2.25.93a.72.72 0 0 1 .88.92M518.42 176.27q2.5-9.75 6.12-19.16c1.11-2.89 3.55-.91 4.24-2.69a.47.47 0 0 0-.43-.64c-1.25-.02-10.06-.44-10.27.59a.64.64 0 0 0 .41.74l1.81.67a.73.72-71.7 0 1 .44.89q-2.78 9.11-5.82 18.14-.77 2.27-2.91 3.04a.45.45 0 0 0 .15.88l17.91.03a.83.83 0 0 0 .77-.52l1.98-4.98a.58.58 0 0 0-.5-.79c-.87-.06-2.19 2.97-2.65 3.72a.97.97 0 0 1-.8.45l-10.04.16a.42.42 0 0 1-.41-.53M720.28 164.5q3.28-1.41 5.22-4.24c2.15-3.12.85-6.19-3.09-6.35-1.64-.06-13.87-.74-14.12.52a.65.64-75.4 0 0 .42.73l1.58.54a.69.69 0 0 1 .43.86c-1.24 4.03-5.31 19.67-8.58 21.34a.41.41 0 0 0 .17.78c4.53.12 10.22.62 14.04-.9 3.46-1.38 7.25-4.73 7.55-8.61q.26-3.44-3.6-4.38-.45-.11-.02-.29M753.35 156.95q-2.99 9.11-5.85 17.81-1.06 3.24-4.45 2.9a.42.42 0 0 0-.46.43c.02 1 10.87 1 11.44.1q.3-.47-.25-.42c-2.93.3-3.1-1.41-2.39-3.66q4.07-12.82 5.81-17.38.73-1.89 3.05-1.49a.9.89-68.8 0 0 .89-.4l.32-.49a.38.38 0 0 0-.31-.59c-1.38-.01-10.47-.48-10.61.73a.64.63-81.3 0 0 .51.7l1.43.27a1.15 1.15 0 0 1 .87 1.49M784.44 155.8a.52.52 0 0 1 .31.65q-3.13 9.53-6.39 18.96c-.96 2.8-3.81 1.74-4.07 2.54a.47.47 0 0 0 .39.61c.8.09 7.26.62 8.01-.19a.32.32 0 0 0-.14-.52l-1.86-.62a.74.73-71.8 0 1-.46-.92l5.53-17.27a.44.44 0 0 1 .81-.07l9.75 18.75a1.63 1.61 88.1 0 0 .77.73l2.13.96a.55.54 21.2 0 0 .74-.32l7.7-23.01a.8.8 0 0 1 .64-.53q1.63-.2 2.92-1.04 1.25-.81-.24-.79l-7.76.1a.49.49 0 0 0-.17.94l2.12.84a.59.59 0 0 1 .35.73l-5.49 16.99q-.6 1.87-1.49.11l-9.65-19.12a1.04 1.04 0 0 0-1.15-.55c-.98.22-5.28-.05-5.59.5a.57.57 0 0 0 .3.82l1.99.72M843.04 164.95l-5.64.36a.95.95 0 0 1-.96-1.25l2.62-7.9a.76.76 0 0 1 .73-.51l8.11.14a.61.61 0 0 1 .6.61l-.01 2.85a.35.35 0 0 0 .51.31c.97-.5 2.09-4.07 2.68-5.16a.44.44 0 0 0-.39-.65h-17.77a.63.62 8.9 0 0-.6.43l-.09.25a.45.45 0 0 0 .22.54l1.67.89a.73.71 23.4 0 1 .35.86l-6.51 19.4a1.61 1.59 80.2 0 1-.51.73l-1.39 1.11q-.99.79.28.79h16.56a.98.98 0 0 0 .86-.51c.61-1.12 2.73-5.31 1.9-5.67a.68.67 27.2 0 0-.83.26l-2.11 3.39a.99.99 0 0 1-.84.47l-9.45.09a.59.58 9 0 1-.56-.76l2.68-8.43a.94.93-79.8 0 1 .93-.65l6.21.24a.71.7-83.4 0 1 .66.85l-.33 1.62a.47.47 0 0 0 .42.57l.32.03a.53.52 11.7 0 0 .55-.36l2.3-6.93a.54.54 0 0 0-.34-.68q-.81-.28-1.08.52-.36 1.09-.94 1.75a1.23 1.2 17.9 0 1-.81.4M879.73 177.22a.53.53 0 0 1-.4-.68l6.52-20.18a.85.84-80.9 0 1 .8-.59l5.52-.03a.61.6-86.6 0 1 .6.68l-.32 2.62a.56.55 19.6 0 0 .27.55l.32.19a.49.49 0 0 0 .72-.26l1.76-5.16a.44.44 0 0 0-.42-.58l-20.42.01a.82.81 8.7 0 0-.78.56l-1.5 4.67a.58.58 0 0 0 .47.76c.78.12 2.16-3.02 2.78-3.69a1.08 1.06-68 0 1 .78-.34h5.2a.51.51 0 0 1 .49.66q-2.83 9.6-6.19 19.05c-1.03 2.9-4.23 1.59-4.41 2.57a.49.49 0 0 0 .45.58c1.31.08 9.76.52 10.31-.27a.41.4-67 0 0-.25-.63l-2.3-.49" vector-effect="non-scaling-stroke"/><path d="M672.19 159.86a.33.33 0 0 0-.58-.15l-6.8 8.58a.33.33 0 0 0 .27.54l8.31-.41a.33.33 0 0 0 .31-.39l-1.51-8.17M481.98 159.89a.52.52 0 0 0-.93-.28l-6.39 8.3a.52.52 0 0 0 .42.84h7.03a.52.52 0 0 0 .52-.56l-.65-8.3M714.66 156.46l-2.32 6.75a.46.45-75 0 0 .34.6q6.65 1.39 9.37-4.2c2.29-4.71-4.37-3.9-6.47-3.82a1.01 1.01 0 0 0-.92.67M711.28 166.48l-3.11 9.62a.53.53 0 0 0 .42.69q9.28 1.54 11.19-7.01c.91-4.07-5.16-3.99-7.45-4.04a1.08 1.08 0 0 0-1.05.74" vector-effect="non-scaling-stroke"/></g><path d="M86.75 119.47q16.23.07 31.96.02a1.13 1.13 0 0 1 1.02 1.62c-1.39 2.9-2.32 4.52-5.9 4.57q-26.96.36-53.88-.29c-16.3-.4-43.39-6.18-43.36-27.37q.01-4.23 2.58-11.22 6.21-16.88 13.23-33.7a1.77 1.77 0 0 1 1.64-1.1H61.5a.83.83 0 0 1 .77 1.15q-6.76 16.19-12.94 32.49c-1.81 4.76-4.06 11.04-3.57 15.72 1.68 16.3 29.02 18.06 40.99 18.11M157.73 58.16l-5.42-.21a1.07 1.07 0 0 1-.75-1.78l3.44-3.79a1.18 1.16-68.3 0 1 .86-.38h30.27c3.8 0 5 1.89 3.64 5.33q-11.88 29.89-20.29 60.99a.84.84 0 0 0 .79 1.06l6.93.17a.93.93 0 0 1 .71 1.51l-3.38 4.18a1.37 1.35-70.1 0 1-1.05.5q-15 .03-29.97-.05c-4.01-.03-5.07-2.52-4.12-6.11q8.07-30.31 19.54-59.6a1.34 1.34 0 0 0-1.2-1.82M199.09 125.72a1.02 1.02 0 0 1-.99-1.28q9.08-35.72 23.09-70.17c.6-1.48 3.58-2.25 5.35-2.26q23.42-.03 47.1 0a.95.95 0 0 1 .6 1.69l-4.88 3.95a1.64 1.64 0 0 1-1.01.37q-8.14.2-16.28.22c-1.39.01-3.06.92-3.51 2.08q-12.3 31.47-20.8 64.27a1.55 1.54-82.6 0 1-1.51 1.17zM314 53.03a1.64 1.63 10.8 0 1 1.52-1.03h27.26a1.03 1.03 0 0 1 .95 1.41q-13.52 33.34-22.76 68.29c-.84 3.2-3.96 4.02-7.18 4.03q-23.19.05-46.46 0a1 1 0 0 1-.76-1.65l3.53-4.1a1.32 1.3 19.5 0 1 .97-.45l18.6-.1a1.48 1.47-64.7 0 0 .94-.34c2.24-1.8 2.2-3.63 2.92-6.15q8.69-30.41 20.47-59.91M363.21 52.85a1.35 1.34 11 0 1 1.25-.84q39.95-.02 80.29-.01c8.21 0 16.04 5.08 16.42 13.51q.15 3.41-2.45 13.53c-4.98 19.38-13.47 46.39-38.53 46.53q-39.69.22-79.18.17a1.36 1.36 0 0 1-1.31-1.7q9.39-36.38 23.51-71.19m27.08 6.97q-11.28 28.67-19.37 58.65a.8.8 0 0 0 .76 1.01q12.41.07 24.77-.01c11.28-.07 17.86-.95 22.27-11.47q8.85-21.1 13.23-39.95c1.71-7.36-1.51-9.77-8.67-9.79q-16.03-.03-32.11 0a.68.66-77.6 0 0-.61.4c-.12.28-.18.93-.27 1.16M487.52 53.12a1.78 1.78 0 0 1 1.65-1.11l70.58-.04c20.62-.01 15.18 20.18 7 29.88a.87.87 0 0 0 .42 1.39c7.53 2.29 11.4 8.18 9.77 15.91-2.09 9.85-6.72 21.24-16.67 25.05q-4 1.53-14.33 1.54-15.21.02-30.41.01a1.26 1.23-17.3 0 1-1.02-.52l-2.94-4.16a1.12 1.11-17.7 0 1 .91-1.76c19.4-.12 31.86.18 35.13-23.06.89-6.34-5.45-8.17-10.35-8.22q-9.08-.08-18.16-.01c-3.95.04-5.15-1.52-5.97-5.07a1.04 1.04 0 0 1 .98-1.27q7.36-.29 15.11-.19c8.86.1 11.58-4.48 14.32-12.02 1.68-4.63 3.52-11.13-3.87-11.22q-11.99-.16-23.98.15a.66.64-79.7 0 0-.59.42q-12.69 32.21-21.37 65.74a1.59 1.59 0 0 1-1.54 1.19h-26.73a1.36 1.36 0 0 1-1.32-1.71q9.37-36.22 23.38-70.92M677.27 82.02c-.39.51-1.21.97-1.9.97q-24.18.02-48.42.01a1.09 1.08 9.3 0 0-1.03.73c-3.97 11.55-14.5 35.3 8.53 35.65q16.79.24 33.68.08a.92.92 0 0 1 .83 1.33q-1.35 2.72-3.65 4.65a1.3 1.29 25 0 1-.83.3q-23.88.06-47.72-.04c-18.71-.08-31.13-10.14-24.52-29.95q7.25-21.69 15.44-42.99a1.19 1.18 10.4 0 1 1.11-.76h83.77a.94.94 0 0 1 .67 1.6l-3.93 3.99a1.59 1.57-71.9 0 1-.89.46q-1.4.23-3.66.21-14.84-.12-49.08.06a.68.66 9.9 0 0-.63.43l-6.36 17.07a.71.71 0 0 0 .67.96l50.27-.04a1.11 1.11 0 0 1 .93 1.72q-1.18 1.8-2.82 3.1-.26.2-.46.46M779.1 88.25a.82.82 0 0 0-.66 1.13q5.83 13.99 11.57 27.86c1.12 2.71 7.07 2.41 9.35 2.23a.96.96 0 0 1 .82 1.56c-2.15 2.6-4.29 4.7-7.95 4.72q-10.87.06-21.72-.01c-5.71-.04-9.94-2.42-12.21-7.82q-6.51-15.52-12.86-31.1-1.08-2.67.6-4.24c2.05-1.91 16.85-1.08 20.21-1.03 9.7.13 15.51-8.84 15.94-17.83.16-3.54-1.71-5.51-5.36-5.48q-16.45.14-33.22-.3a1.03 1.03 0 0 0-.97.65q-12.7 32.28-21.44 65.85a1.78 1.77-82.5 0 1-1.71 1.32l-26.98-.02a1.03 1.03 0 0 1-1-1.29q9.42-36.78 23.73-71.92a.85.84-78.4 0 1 .78-.52q40.29-.02 80.87-.01c7.63 0 15.62 3.42 15.16 12.13-.5 9.58-6.37 19.34-16.07 22.68-4.78 1.65-11.52.85-16.88 1.44M847.49 117.02a2.54 2.52-8.9 0 0 1.95 1.41q15.8 2.08 31.31.07c3.74-.49 4.73-1.05 6.23-4.7q3.74-9.14 6.89-18.14a1.43 1.43 0 0 0-1.35-1.9l-9.61-.01a1.16 1.13-17.3 0 1-.94-.48l-2.92-4.09a1.06 1.06 0 0 1 .86-1.68l47.83.02a1.1 1.1 0 0 1 1.05 1.43q-3.05 9.49-6.85 19.14c-3.67 9.32-5.22 15.12-15.25 15.96-24.63 2.07-49.54 1.86-74.2.3-8.85-.56-17.95.02-15.04-11.44q8.05-31.77 19.06-56.12c1.71-3.78 6-4.77 10.22-4.77q43.11-.04 85.75-.02a1.16 1.16 0 0 1 .79 2.01l-4.11 3.78a1.28 1.27 23.4 0 1-.82.32c-20.01.24-40.14-.4-60.11.25a1.4 1.36 22.1 0 0-.88.36q-1.03.94-1.35 1.74-10.88 26.81-18.41 54.75-.35 1.29-.1 1.81M979.11 76.77l37.89-.03a.85.84-20.6 0 1 .63.28c1.43 1.58-3.96 4.99-5.04 5.71a1.54 1.51 27.2 0 1-.87.27h-35.18a1.05 1.04-80.7 0 0-.99.72q-6.72 20.22-12.16 40.81a1.64 1.64 0 0 1-1.59 1.23l-26.46-.02a1.73 1.72 5.3 0 1-1.7-2.04q.04-.24.12-.52 9.63-36.08 23.69-70.68a.77.76-79.3 0 1 .71-.49l27.99-.01a.85.85 0 0 1 .79 1.15l-8.6 22.49a.83.83 0 0 0 .77 1.13M1029.65 52.58a.94.93-78.6 0 1 .86-.58h27.43a1.23 1.22 11 0 1 1.14 1.68q-14.03 34.66-23.38 70.87a1.61 1.6-82.8 0 1-1.55 1.21l-26.9-.02a1.25 1.24 7.2 0 1-1.21-1.55q9.49-36.57 23.61-71.61"/><path d="M278.12 115.72c-7.74.46-16.69 1.7-18.26-7.36q-3.93-22.79-7.84-45.33a1.49 1.48 84.7 0 1 1.44-1.74q9.45-.09 18.8-.01c5 .04 6.87 2.78 7.8 7.54q4.37 22.25 8.79 45a1.57 1.57 0 0 1-1.45 1.86c-3.06.17-6.34-.13-9.28.04M119.91 175.12c.93 1.06 2.28.2 2.65-.96q4.92-15.65 10.58-31.22a.67.67 0 0 1 .63-.44h922.72a.58.58 0 0 1 .55.76l-11.6 34.79a.68.67-80.1 0 1-.63.45H939.73a.78.78 0 0 1-.74-1.03l7.42-22.38a.65.65 0 0 0-.51-.85l-1.4-.21a.82.82 0 0 0-.91.55l-10.88 32.7a1.05 1.05 0 0 1-1 .72H11.52a.56.55-80.8 0 1-.52-.73l11.29-34.39a.93.92 9.1 0 1 .88-.63H126.1a.48.48 0 0 1 .45.63l-6.91 20.97a1.31 1.3 33.2 0 0 .27 1.27m554.23-21.3q-9 11.2-17.2 21.61-1.52 1.93-3.92 2.13c-.3.03-.47.16-.53.44a.5.5 0 0 0 .45.59c1.43.14 8.06.52 8.44-.33a.44.43 17.9 0 0-.32-.61l-1.78-.34a.71.71 0 0 1-.42-1.13l4.07-5.27a1.05 1.03 18.3 0 1 .83-.41h9.06a.69.68 84.9 0 1 .67.57l.8 4.71a1.01 1.01 0 0 1-.41 1q-1.39.99-3.18.79a.42.41 3.1 0 0-.46.41l.01.28a.51.51 0 0 0 .51.5l9.46-.03a.47.47 0 0 0 .16-.92c-2.34-.84-2.39-2.74-2.63-4.97q-1.04-9.76-2.36-18.69-.24-1.6-1.25-.33m-247.18 21.77.27-2.78a.4.39-63.8 0 0-.1-.31l-.22-.23a.43.43 0 0 0-.71.14l-1.96 5.15a.62.62 0 0 0 .37.8c7.26 2.57 17.5-.16 19.75-8.41 2.32-8.52-14.21-3.14-10.84-10.2q2.69-5.64 9.26-4.27 3.08.64 1.74 3.81a.46.45-72 0 0 .31.62c.96.24 2.35-3.68 2.57-4.64a.58.58 0 0 0-.36-.67q-9.14-3.52-15.04 2.81c-2.91 3.12-4.19 8.43 1.5 9.59q4.59.94 6.54 1.82a.84.84 0 0 1 .5.7c.62 6.99-8.04 9.49-13.17 6.83a.78.77-73.6 0 1-.41-.76m41.6 1.68a.61.6 24.8 0 1-.35-.95l4.08-5.42a1 1 0 0 1 .8-.4h9.54a.67.67 0 0 1 .67.63l.35 5.36a.75.74-5.9 0 1-.64.78l-2.95.45a.47.47 0 0 0-.32.72c.34.51 7.2.33 9.7.26q.46-.01.56-.39a.55.54-76.4 0 0-.39-.65c-1.14-.28-1.73-.62-1.91-1.89q-1.49-10.63-2.69-21.48a.84.84 0 0 0-1.5-.43q-8.47 10.57-17.14 21.52-1.61 2.04-4.21 2.38a.39.39 0 0 0-.28.58c.33.6 8.63.64 8.97-.01a.43.42 20.6 0 0-.28-.61zm146.88-17.33c-3.4 3.39-5.8 9.45-3.84 14 3.82 8.85 22.26 4.52 20.86 1.96a.56.56 0 0 0-.72-.24c-5.48 2.45-16.14 2.99-16.42-5.73q-.09-2.65.72-4.61 5.03-12.16 19.21-9.36a1.47 1.46 15.1 0 1 1.1 1.91l-.6 1.77a.53.53 0 0 0 .46.7c1.03.09 2.15-3.16 2.89-4.9a.47.47 0 0 0-.28-.62q-13.65-4.6-23.38 5.12m-439.03-3.45q-5.03 13.11-5.44 17.26c-.64 6.67 9.65 6.11 13.78 4.76 8.12-2.67 10.13-14.86 12.51-22.02q.53-1.58 2.91-1.26a1.17 1.16 26.7 0 0 .95-.31l.4-.38a.44.44 0 0 0-.3-.76c-1.2-.02-8.81-.51-8.94.71a.59.59 0 0 0 .46.63l2.03.42a.68.67-75.3 0 1 .5.87q-1.5 4.66-3.04 9.36c-2.67 8.13-4.98 12.6-14.32 10.7-2.68-.55-3.51-2-2.75-4.68q2.06-7.34 4.59-14.55c.98-2.81 4.02-1.24 4.39-2.85a.41.4 4.8 0 0-.42-.49c-1.4.06-10.42-.46-10.42.59a.74.72-84.6 0 0 .57.71l2.11.48a.61.61 0 0 1 .43.81m45.2 2.85a.6.6 0 0 1 1.1-.09l9.65 18.54a1.45 1.44 87.1 0 0 .76.69l2.17.88a.51.51 0 0 0 .68-.31l7.45-22.32a2.16 2.14-83.1 0 1 1.85-1.46q1.12-.1 1.99-.76 1.08-.81-.27-.79l-7.75.1a.46.45 56.3 0 0-.17.87l2.1.94a.58.57 20.9 0 1 .32.7l-5.61 17.48a.58.58 0 0 1-1.07.09l-9.95-19.63a.74.74 0 0 0-.68-.41l-5.38.03a.5.5 0 0 0-.37.16l-.19.21a.51.5 31.5 0 0 .2.82l1.71.61a.87.86-71.1 0 1 .53 1.09l-6.59 19.58a1.24 1.23 2.7 0 1-.87.79l-2.79.64a.31.31 0 0 0-.18.48c.52.7 8.01.72 8.51.07a.29.29 0 0 0-.12-.44l-2.02-.81a.65.64 20.2 0 1-.38-.8zm49-1.15q-2.76 8.4-5.65 16.77c-.72 2.1-2.2 2.85-4.28 2.82a.45.45 0 0 0-.45.52c.11.71 7.67.47 10.71.41q.38-.01.51-.23a.34.33-64 0 0-.16-.48l-2.42-.98a.65.64 19.2 0 1-.38-.77q2.76-9.49 6.09-18.8c1.03-2.89 4.26-1.94 4.56-3a.45.45 0 0 0-.4-.56c-1.28-.08-10.55-.68-10.7.55a.49.48-86.2 0 0 .47.54c2.28.04 2.76 1.2 2.1 3.21m36.09 14.87-1.44-16.41a.88.86 69.9 0 1 .36-.8c1.21-.88 3.06-.01 3.69-1.46a.45.45 0 0 0-.41-.63l-9.02-.02a.63.63 0 0 0-.63.63v.33a.52.51-87.6 0 0 .47.52q1.37.12 1.48 1.09 1.28 11.08 2.31 22.37a.69.69 0 0 0 1.11.49q1.18-.89 2.13-2.19 7.2-9.86 14.67-19.52c1.19-1.53 2.36-2.21 4.03-3.01a.36.36 0 0 0-.16-.68l-7.7.06a.45.45 0 0 0-.43.36l-.06.28a.6.59 13 0 0 .45.7l1.88.44a.58.58 0 0 1 .33.91l-12.33 16.75q-.64.87-.73-.21m46.66-17.39 8.12.11a.62.62 0 0 1 .61.64l-.12 2.85q-.08 2.05.81.19l2.44-5.11a.42.41-77 0 0-.37-.6h-17.9a.64.64 0 0 0-.64.63l-.02.47a.47.46 0 0 0 .48.47c1.38-.05 2.01.73 1.55 2.04q-3.28 9.41-6.4 18.92a1.3 1.29-7.9 0 1-.52.68l-1.48.98q-1.22.81.25.81h17.19a.84.84 0 0 0 .78-.53l1.95-5.01a.51.51 0 0 0-.43-.69c-.77-.08-2.36 2.98-2.8 3.67a.96.93 15.4 0 1-.78.43l-9.48.18a.61.61 0 0 1-.61-.7q.47-3.3 2.28-6.08a1.11 1.09-34 0 0 .16-.8c-.68-3.46 5.78-2.19 7.52-1.9a.66.65 11.1 0 1 .53.78l-.29 1.34a.62.61 14.7 0 0 .42.71l.25.08a.52.51-72.1 0 0 .64-.33l2.35-7.57a.43.43 0 0 0-.78-.36l-1.63 2.6a.92.9-73.7 0 1-.77.43h-6.48a.46.46 0 0 1-.44-.61l2.91-8.23a.73.72 9.9 0 1 .7-.49m37 .71-6.39 19.29a2.54 2.54 0 0 1-1.96 1.71l-2.35.44a.45.45 0 0 0 .08.89c1.4.03 10.15.29 10.61-.23a.35.35 0 0 0-.14-.55l-2.17-.87a.76.76 0 0 1-.44-.95l6.26-19.03a1.3 1.27 84.1 0 1 .54-.68c2.07-1.26 7.76-1.49 8.33 1.12 1.08 4.97-5.29 8.2-9.37 7.73a.79.79 0 0 0-.81 1.13l5.61 11.7a.9.9 0 0 0 .66.5q2.37.44 4.75-.03 1.25-.24.11-.8l-1.05-.52a1.7 1.68-89.6 0 1-.77-.79l-4.5-9.24a.82.82 0 0 1 .58-1.16c8.35-1.6 15.15-12.94.23-12.27q-5.2.24-10.45 0a.53.53 0 0 0-.49.76q.69 1.37 2.25.93a.72.72 0 0 1 .88.92m128.06 19.89q2.5-9.75 6.12-19.16c1.11-2.89 3.55-.91 4.24-2.69a.47.47 0 0 0-.43-.64c-1.25-.02-10.06-.44-10.27.59a.64.64 0 0 0 .41.74l1.81.67a.73.72-71.7 0 1 .44.89q-2.78 9.11-5.82 18.14-.77 2.27-2.91 3.04a.45.45 0 0 0 .15.88l17.91.03a.83.83 0 0 0 .77-.52l1.98-4.98a.58.58 0 0 0-.5-.79c-.87-.06-2.19 2.97-2.65 3.72a.97.97 0 0 1-.8.45l-10.04.16a.42.42 0 0 1-.41-.53m201.86-11.77q3.28-1.41 5.22-4.24c2.15-3.12.85-6.19-3.09-6.35-1.64-.06-13.87-.74-14.12.52a.65.64-75.4 0 0 .42.73l1.58.54a.69.69 0 0 1 .43.86c-1.24 4.03-5.31 19.67-8.58 21.34a.41.41 0 0 0 .17.78c4.53.12 10.22.62 14.04-.9 3.46-1.38 7.25-4.73 7.55-8.61q.26-3.44-3.6-4.38-.45-.11-.02-.29m33.07-7.55q-2.99 9.11-5.85 17.81-1.06 3.24-4.45 2.9a.42.42 0 0 0-.46.43c.02 1 10.87 1 11.44.1q.3-.47-.25-.42c-2.93.3-3.1-1.41-2.39-3.66q4.07-12.82 5.81-17.38.73-1.89 3.05-1.49a.9.89-68.8 0 0 .89-.4l.32-.49a.38.38 0 0 0-.31-.59c-1.38-.01-10.47-.48-10.61.73a.64.63-81.3 0 0 .51.7l1.43.27a1.15 1.15 0 0 1 .87 1.49m31.09-1.15a.52.52 0 0 1 .31.65q-3.13 9.53-6.39 18.96c-.96 2.8-3.81 1.74-4.07 2.54a.47.47 0 0 0 .39.61c.8.09 7.26.62 8.01-.19a.32.32 0 0 0-.14-.52l-1.86-.62a.74.73-71.8 0 1-.46-.92l5.53-17.27a.44.44 0 0 1 .81-.07l9.75 18.75a1.63 1.61 88.1 0 0 .77.73l2.13.96a.55.54 21.2 0 0 .74-.32l7.7-23.01a.8.8 0 0 1 .64-.53q1.63-.2 2.92-1.04 1.25-.81-.24-.79l-7.76.1a.49.49 0 0 0-.17.94l2.12.84a.59.59 0 0 1 .35.73l-5.49 16.99q-.6 1.87-1.49.11l-9.65-19.12a1.04 1.04 0 0 0-1.15-.55c-.98.22-5.28-.05-5.59.5a.57.57 0 0 0 .3.82zm58.6 9.15-5.64.36a.95.95 0 0 1-.96-1.25l2.62-7.9a.76.76 0 0 1 .73-.51l8.11.14a.61.61 0 0 1 .6.61l-.01 2.85a.35.35 0 0 0 .51.31c.97-.5 2.09-4.07 2.68-5.16a.44.44 0 0 0-.39-.65h-17.77a.63.62 8.9 0 0-.6.43l-.09.25a.45.45 0 0 0 .22.54l1.67.89a.73.71 23.4 0 1 .35.86l-6.51 19.4a1.61 1.59 80.2 0 1-.51.73l-1.39 1.11q-.99.79.28.79h16.56a.98.98 0 0 0 .86-.51c.61-1.12 2.73-5.31 1.9-5.67a.68.67 27.2 0 0-.83.26l-2.11 3.39a.99.99 0 0 1-.84.47l-9.45.09a.59.58 9 0 1-.56-.76l2.68-8.43a.94.93-79.8 0 1 .93-.65l6.21.24a.71.7-83.4 0 1 .66.85l-.33 1.62a.47.47 0 0 0 .42.57l.32.03a.53.52 11.7 0 0 .55-.36l2.3-6.93a.54.54 0 0 0-.34-.68q-.81-.28-1.08.52-.36 1.09-.94 1.75a1.23 1.2 17.9 0 1-.81.4m36.69 12.27a.53.53 0 0 1-.4-.68l6.52-20.18a.85.84-80.9 0 1 .8-.59l5.52-.03a.61.6-86.6 0 1 .6.68l-.32 2.62a.56.55 19.6 0 0 .27.55l.32.19a.49.49 0 0 0 .72-.26l1.76-5.16a.44.44 0 0 0-.42-.58l-20.42.01a.82.81 8.7 0 0-.78.56l-1.5 4.67a.58.58 0 0 0 .47.76c.78.12 2.16-3.02 2.78-3.69a1.08 1.06-68 0 1 .78-.34h5.2a.51.51 0 0 1 .49.66q-2.83 9.6-6.19 19.05c-1.03 2.9-4.23 1.59-4.41 2.57a.49.49 0 0 0 .45.58c1.31.08 9.76.52 10.31-.27a.41.4-67 0 0-.25-.63z"/><path d="M714.66 156.46a1.01 1.01 0 0 1 .92-.67c2.1-.08 8.76-.89 6.47 3.82q-2.72 5.59-9.37 4.2a.46.45-75 0 1-.34-.6zM672.19 159.86l1.51 8.17a.33.33 0 0 1-.31.39l-8.31.41a.33.33 0 0 1-.27-.54l6.8-8.58a.33.33 0 0 1 .58.15M481.98 159.89l.65 8.3a.52.52 0 0 1-.52.56h-7.03a.52.52 0 0 1-.42-.84l6.39-8.3a.52.52 0 0 1 .93.28M711.28 166.48a1.08 1.08 0 0 1 1.05-.74c2.29.05 8.36-.03 7.45 4.04q-1.91 8.55-11.19 7.01a.53.53 0 0 1-.42-.69z"/><g fill="#fff"><path d="M674.14 153.82q1.01-1.27 1.25.33 1.32 8.93 2.36 18.69c.24 2.23.29 4.13 2.63 4.97a.47.47 0 0 1-.16.92l-9.46.03a.51.51 0 0 1-.51-.5l-.01-.28a.42.41 3.1 0 1 .46-.41q1.79.2 3.18-.79a1.01 1.01 0 0 0 .41-1l-.8-4.71a.69.68 84.9 0 0-.67-.57h-9.06a1.05 1.03 18.3 0 0-.83.41l-4.07 5.27a.71.71 0 0 0 .42 1.13l1.78.34a.44.43 17.9 0 1 .32.61c-.38.85-7.01.47-8.44.33a.5.5 0 0 1-.45-.59c.06-.28.23-.41.53-.44q2.4-.2 3.92-2.13 8.2-10.41 17.2-21.61m-1.95 6.04a.33.33 0 0 0-.58-.15l-6.8 8.58a.33.33 0 0 0 .27.54l8.31-.41a.33.33 0 0 0 .31-.39zM427.37 176.35c5.13 2.66 13.79.16 13.17-6.83a.84.84 0 0 0-.5-.7q-1.95-.88-6.54-1.82c-5.69-1.16-4.41-6.47-1.5-9.59q5.9-6.33 15.04-2.81a.58.58 0 0 1 .36.67c-.22.96-1.61 4.88-2.57 4.64a.46.45-72 0 1-.31-.62q1.34-3.17-1.74-3.81-6.57-1.37-9.26 4.27c-3.37 7.06 13.16 1.68 10.84 10.2-2.25 8.25-12.49 10.98-19.75 8.41a.62.62 0 0 1-.37-.8l1.96-5.15a.43.43 0 0 1 .71-.14l.22.23a.4.39-63.8 0 1 .1.31l-.27 2.78a.78.77-73.6 0 0 .41.76M468.56 177.27l2.01.45a.43.42 20.6 0 1 .28.61c-.34.65-8.64.61-8.97.01a.39.39 0 0 1 .28-.58q2.6-.34 4.21-2.38 8.67-10.95 17.14-21.52a.84.84 0 0 1 1.5.43q1.2 10.85 2.69 21.48c.18 1.27.77 1.61 1.91 1.89a.55.54-76.4 0 1 .39.65q-.1.38-.56.39c-2.5.07-9.36.25-9.7-.26a.47.47 0 0 1 .32-.72l2.95-.45a.75.74-5.9 0 0 .64-.78l-.35-5.36a.67.67 0 0 0-.67-.63h-9.54a1 1 0 0 0-.8.4l-4.08 5.42a.61.6 24.8 0 0 .35.95m13.42-17.38a.52.52 0 0 0-.93-.28l-6.39 8.3a.52.52 0 0 0 .42.84h7.03a.52.52 0 0 0 .52-.56zM615.44 159.94q9.73-9.72 23.38-5.12a.47.47 0 0 1 .28.62c-.74 1.74-1.86 4.99-2.89 4.9a.53.53 0 0 1-.46-.7l.6-1.77a1.47 1.46 15.1 0 0-1.1-1.91q-14.18-2.8-19.21 9.36-.81 1.96-.72 4.61c.28 8.72 10.94 8.18 16.42 5.73a.56.56 0 0 1 .72.24c1.4 2.56-17.04 6.89-20.86-1.96-1.96-4.55.44-10.61 3.84-14M175.98 155.68l-2.11-.48a.74.72-84.6 0 1-.57-.71c0-1.05 9.02-.53 10.42-.59a.41.4 4.8 0 1 .42.49c-.37 1.61-3.41.04-4.39 2.85q-2.53 7.21-4.59 14.55c-.76 2.68.07 4.13 2.75 4.68 9.34 1.9 11.65-2.57 14.32-10.7q1.54-4.7 3.04-9.36a.68.67-75.3 0 0-.5-.87l-2.03-.42a.59.59 0 0 1-.46-.63c.13-1.22 7.74-.73 8.94-.71a.44.44 0 0 1 .3.76l-.4.38a1.17 1.16 26.7 0 1-.95.31q-2.38-.32-2.91 1.26c-2.38 7.16-4.39 19.35-12.51 22.02-4.13 1.35-14.42 1.91-13.78-4.76q.41-4.15 5.44-17.26a.61.61 0 0 0-.43-.81M221.61 159.34l-5.37 16.95a.65.64 20.2 0 0 .38.8l2.02.81a.29.29 0 0 1 .12.44c-.5.65-7.99.63-8.51-.07a.31.31 0 0 1 .18-.48l2.79-.64a1.24 1.23 2.7 0 0 .87-.79l6.59-19.58a.87.86-71.1 0 0-.53-1.09l-1.71-.61a.51.5 31.5 0 1-.2-.82l.19-.21a.5.5 0 0 1 .37-.16l5.38-.03a.74.74 0 0 1 .68.41l9.95 19.63a.58.58 0 0 0 1.07-.09l5.61-17.48a.58.57 20.9 0 0-.32-.7l-2.1-.94a.46.45 56.3 0 1 .17-.87l7.75-.1q1.35-.02.27.79-.87.66-1.99.76a2.16 2.14-83.1 0 0-1.85 1.46l-7.45 22.32a.51.51 0 0 1-.68.31l-2.17-.88a1.45 1.44 87.1 0 1-.76-.69l-9.65-18.54a.6.6 0 0 0-1.1.09M270.61 158.19c.66-2.01.18-3.17-2.1-3.21a.49.48-86.2 0 1-.47-.54c.15-1.23 9.42-.63 10.7-.55a.45.45 0 0 1 .4.56c-.3 1.06-3.53.11-4.56 3q-3.33 9.31-6.09 18.8a.65.64 19.2 0 0 .38.77l2.42.98a.34.33-64 0 1 .16.48q-.13.22-.51.23c-3.04.06-10.6.3-10.71-.41a.45.45 0 0 1 .45-.52c2.08.03 3.56-.72 4.28-2.82q2.89-8.37 5.65-16.77M307.43 173.27l12.33-16.75a.58.58 0 0 0-.33-.91l-1.88-.44a.6.59 13 0 1-.45-.7l.06-.28a.45.45 0 0 1 .43-.36l7.7-.06a.36.36 0 0 1 .16.68c-1.67.8-2.84 1.48-4.03 3.01q-7.47 9.66-14.67 19.52-.95 1.3-2.13 2.19a.69.69 0 0 1-1.11-.49q-1.03-11.29-2.31-22.37-.11-.97-1.48-1.09a.52.51-87.6 0 1-.47-.52v-.33a.63.63 0 0 1 .63-.63l9.02.02a.45.45 0 0 1 .41.63c-.63 1.45-2.48.58-3.69 1.46a.88.86 69.9 0 0-.36.8l1.44 16.41q.09 1.08.73.21M352.66 156.16l-2.91 8.23a.46.46 0 0 0 .44.61h6.48a.92.9-73.7 0 0 .77-.43l1.63-2.6a.43.43 0 0 1 .78.36l-2.35 7.57a.52.51-72.1 0 1-.64.33l-.25-.08a.62.61 14.7 0 1-.42-.71l.29-1.34a.66.65 11.1 0 0-.53-.78c-1.74-.29-8.2-1.56-7.52 1.9a1.11 1.09-34 0 1-.16.8q-1.81 2.78-2.28 6.08a.61.61 0 0 0 .61.7l9.48-.18a.96.93 15.4 0 0 .78-.43c.44-.69 2.03-3.75 2.8-3.67a.51.51 0 0 1 .43.69l-1.95 5.01a.84.84 0 0 1-.78.53h-17.19q-1.47 0-.25-.81l1.48-.98a1.3 1.29-7.9 0 0 .52-.68q3.12-9.51 6.4-18.92c.46-1.31-.17-2.09-1.55-2.04a.47.46 0 0 1-.48-.47l.02-.47a.64.64 0 0 1 .64-.63h17.9a.42.41-77 0 1 .37.6l-2.44 5.11q-.89 1.86-.81-.19l.12-2.85a.62.62 0 0 0-.61-.64l-8.12-.11a.73.72 9.9 0 0-.7.49M390.36 156.38a.72.72 0 0 0-.88-.92q-1.56.44-2.25-.93a.53.53 0 0 1 .49-.76q5.25.24 10.45 0c14.92-.67 8.12 10.67-.23 12.27a.82.82 0 0 0-.58 1.16l4.5 9.24a1.7 1.68-89.6 0 0 .77.79l1.05.52q1.14.56-.11.8-2.38.47-4.75.03a.9.9 0 0 1-.66-.5l-5.61-11.7a.79.79 0 0 1 .81-1.13c4.08.47 10.45-2.76 9.37-7.73-.57-2.61-6.26-2.38-8.33-1.12a1.3 1.27 84.1 0 0-.54.68l-6.26 19.03a.76.76 0 0 0 .44.95l2.17.87a.35.35 0 0 1 .14.55c-.46.52-9.21.26-10.61.23a.45.45 0 0 1-.08-.89l2.35-.44a2.54 2.54 0 0 0 1.96-1.71zM518.83 176.8l10.04-.16a.97.97 0 0 0 .8-.45c.46-.75 1.78-3.78 2.65-3.72a.58.58 0 0 1 .5.79l-1.98 4.98a.83.83 0 0 1-.77.52l-17.91-.03a.45.45 0 0 1-.15-.88q2.14-.77 2.91-3.04 3.04-9.03 5.82-18.14a.73.72-71.7 0 0-.44-.89l-1.81-.67a.64.64 0 0 1-.41-.74c.21-1.03 9.02-.61 10.27-.59a.47.47 0 0 1 .43.64c-.69 1.78-3.13-.2-4.24 2.69q-3.62 9.41-6.12 19.16a.42.42 0 0 0 .41.53M720.3 164.79q3.86.94 3.6 4.38c-.3 3.88-4.09 7.23-7.55 8.61-3.82 1.52-9.51 1.02-14.04.9a.41.41 0 0 1-.17-.78c3.27-1.67 7.34-17.31 8.58-21.34a.69.69 0 0 0-.43-.86l-1.58-.54a.65.64-75.4 0 1-.42-.73c.25-1.26 12.48-.58 14.12-.52 3.94.16 5.24 3.23 3.09 6.35q-1.94 2.83-5.22 4.24-.43.18.02.29m-5.64-8.33-2.32 6.75a.46.45-75 0 0 .34.6q6.65 1.39 9.37-4.2c2.29-4.71-4.37-3.9-6.47-3.82a1.01 1.01 0 0 0-.92.67m-3.38 10.02-3.11 9.62a.53.53 0 0 0 .42.69q9.28 1.54 11.19-7.01c.91-4.07-5.16-3.99-7.45-4.04a1.08 1.08 0 0 0-1.05.74M753.35 156.95a1.15 1.15 0 0 0-.87-1.49l-1.43-.27a.64.63-81.3 0 1-.51-.7c.14-1.21 9.23-.74 10.61-.73a.38.38 0 0 1 .31.59l-.32.49a.9.89-68.8 0 1-.89.4q-2.32-.4-3.05 1.49-1.74 4.56-5.81 17.38c-.71 2.25-.54 3.96 2.39 3.66q.55-.05.25.42c-.57.9-11.42.9-11.44-.1a.42.42 0 0 1 .46-.43q3.39.34 4.45-2.9 2.86-8.7 5.85-17.81M784.44 155.8l-1.99-.72a.57.57 0 0 1-.3-.82c.31-.55 4.61-.28 5.59-.5a1.04 1.04 0 0 1 1.15.55l9.65 19.12q.89 1.76 1.49-.11l5.49-16.99a.59.59 0 0 0-.35-.73l-2.12-.84a.49.49 0 0 1 .17-.94l7.76-.1q1.49-.02.24.79-1.29.84-2.92 1.04a.8.8 0 0 0-.64.53l-7.7 23.01a.55.54 21.2 0 1-.74.32l-2.13-.96a1.63 1.61 88.1 0 1-.77-.73l-9.75-18.75a.44.44 0 0 0-.81.07l-5.53 17.27a.74.73-71.8 0 0 .46.92l1.86.62a.32.32 0 0 1 .14.52c-.75.81-7.21.28-8.01.19a.47.47 0 0 1-.39-.61c.26-.8 3.11.26 4.07-2.54q3.26-9.43 6.39-18.96a.52.52 0 0 0-.31-.65M843.85 164.55q.58-.66.94-1.75.27-.8 1.08-.52a.54.54 0 0 1 .34.68l-2.3 6.93a.53.52 11.7 0 1-.55.36l-.32-.03a.47.47 0 0 1-.42-.57l.33-1.62a.71.7-83.4 0 0-.66-.85l-6.21-.24a.94.93-79.8 0 0-.93.65l-2.68 8.43a.59.58 9 0 0 .56.76l9.45-.09a.99.99 0 0 0 .84-.47l2.11-3.39a.68.67 27.2 0 1 .83-.26c.83.36-1.29 4.55-1.9 5.67a.98.98 0 0 1-.86.51h-16.56q-1.27 0-.28-.79l1.39-1.11a1.61 1.59 80.2 0 0 .51-.73l6.51-19.4a.73.71 23.4 0 0-.35-.86l-1.67-.89a.45.45 0 0 1-.22-.54l.09-.25a.63.62 8.9 0 1 .6-.43h17.77a.44.44 0 0 1 .39.65c-.59 1.09-1.71 4.66-2.68 5.16a.35.35 0 0 1-.51-.31l.01-2.85a.61.61 0 0 0-.6-.61l-8.11-.14a.76.76 0 0 0-.73.51l-2.62 7.9a.95.95 0 0 0 .96 1.25l5.64-.36a1.23 1.2 17.9 0 0 .81-.4M879.73 177.22l2.3.49a.41.4-67 0 1 .25.63c-.55.79-9 .35-10.31.27a.49.49 0 0 1-.45-.58c.18-.98 3.38.33 4.41-2.57q3.36-9.45 6.19-19.05a.51.51 0 0 0-.49-.66h-5.2a1.08 1.06-68 0 0-.78.34c-.62.67-2 3.81-2.78 3.69a.58.58 0 0 1-.47-.76l1.5-4.67a.82.81 8.7 0 1 .78-.56l20.42-.01a.44.44 0 0 1 .42.58l-1.76 5.16a.49.49 0 0 1-.72.26l-.32-.19a.56.55 19.6 0 1-.27-.55l.32-2.62a.61.6-86.6 0 0-.6-.68l-5.52.03a.85.84-80.9 0 0-.8.59l-6.52 20.18a.53.53 0 0 0 .4.68"/></g></svg>