<svg xmlns="http://www.w3.org/2000/svg" viewBox="0 0 1070 240"><g fill="none" stroke="gray" stroke-width="2"><path d="m658.66 176.52 4.15-5.56a1.15 1.13 17.9 0 1 .92-.46h9.19a.53.53 0 0 1 .52.43l.91 4.76a.97.95 63 0 1-.28.88q-1.33 1.23-3.17.89a.52.52 0 0 0-.61.44l-.04.32a.47.47 0 0 0 .47.53h9.08a.76.75 24.3 0 0 .49-.18l.22-.2a.39.39 0 0 0-.12-.66l-1.03-.41a1.2 1.19-89 0 1-.7-.73q-1.46-4.29-1.3-8.81.03-.63-.32-1.01a1.3 1.27 23.7 0 1-.34-.84q-.13-5.74-1.3-11.42-.42-2.03-1.69-.39-8.81 11.37-17.29 21.85c-.99 1.23-2.32 1.51-3.77 1.76a.51.51 0 0 0-.41.62c.16.65 6.16.44 8.43.38.26-.01.68-.3.74-.5a.51.51 0 0 0-.44-.66l-1.93-.18q-.96-.09-.38-.85M431.73 157.73c-2.86 3.07-3.64 8.07 1.63 9.18q4.4.92 6.14 1.49a1.33 1.3 82.9 0 1 .74.59q1.15 1.89.11 3.58-4.5 7.27-12.95 3.95a.7.69-76.8 0 1-.44-.72l.3-3.05a.22.22 0 0 0-.22-.25h-.36a.83.82 10.4 0 0-.79.54l-1.66 4.56a.61.61 0 0 0 .39.79q11.53 3.6 18.67-5.62 2.83-3.66.05-7.07a1.6 1.6 0 0 0-.8-.51c-2.67-.67-11.51-.84-8.94-5.63q3.03-5.64 9.59-3.96 2.8.72 1.11 3.4a.42.42 0 0 0 .3.64l.62.1a.66.66 0 0 0 .72-.42l1.58-4a.49.49 0 0 0-.26-.63q-9.03-3.94-15.53 3.04M468.57 177.28a.6.6 0 0 1-.37-.96l4.13-5.4a1.07 1.07 0 0 1 .85-.42h9.48a.68.68 0 0 1 .68.66l.16 5.47a.64.63-4 0 1-.56.64l-2.97.36a.44.44 0 0 0-.36.59c.32.82 6.96.56 9.9.5.15-.01.51-.29.56-.4a.51.51 0 0 0-.3-.67l-1.4-.5a.92.92 0 0 1-.6-.75q-.9-7.04-1.6-14.12-.43-4.31-1.33-8.1a.81.8 57.5 0 0-1.41-.32l-17.78 22.49a1.64 1.62-79.2 0 1-.78.54l-3.23 1a.39.39 0 0 0 .1.76c1.49.06 8.93.37 9.3-.23a.49.49 0 0 0-.33-.74l-2.14-.4M614.19 161.44c-2.63 3.13-4.28 8.3-2.75 12.29 3.09 8.04 21.56 5.79 21.22 2.32a.59.58-3.6 0 0-.61-.53c-1.1.03-1.7.74-2.66 1.01-20.73 5.64-16.54-20.05.12-21.29q3.62-.27 6.63 1.67a.64.64 0 0 1 .25.75l-.76 2.05q-.26.71.48.57l.4-.07a1.1 1.09 6.3 0 0 .79-.63l1.88-4.24a.38.38 0 0 0-.23-.52q-15-4.98-24.76 6.62M175.85 175.7a1.99 1.98-70.7 0 1-1.13-2.36q2.22-7.95 4.73-15.74c.95-2.96 4.59-1.72 4.75-3.29a.5.49 2.6 0 0-.5-.54l-9.62.06a.59.58 90 0 0-.58.59v.27a.57.56-84.5 0 0 .45.56l2.01.38a.53.53 0 0 1 .4.7q-4.74 13.07-5.35 16.91-.62 3.88 2.57 5.18c5.84 2.39 15.3.47 18.12-5.73q1.49-3.27 5.63-16.44a.87.86-88.7 0 1 .62-.6c.71-.19 3.65-.41 3.49-1.4a.6.59-4.5 0 0-.59-.5l-8.09.09a.58.57 52.1 0 0-.14 1.13l2.32.62a.45.45 0 0 1 .32.56q-2.13 7.3-4.79 14.49c-2.3 6.23-8.86 7.54-14.62 5.06M221.75 159.02a.48.47 41 0 1 .88-.06q4.74 9.77 10 19.11 1.18 2.09 3.12.98a1.29 1.27 84.1 0 0 .59-.74q3.15-10.09 6.61-20.07.51-1.47 1.18-2.33a1.45 1.39 9.8 0 1 .73-.49l2.06-.6a.47.47 0 0 0-.13-.93h-7.4q-1.41 0-.3.87.84.65 2.01.68a.48.48 0 0 1 .44.63l-5.68 17.72a.53.53 0 0 1-.98.08l-10-19.54a.94.92 78.2 0 0-.75-.5c-1-.09-6.01-.69-5.94.94a.51.51 0 0 0 .54.48q1.22-.07 1.63.76c.66 1.36-5.12 16.99-6 19.42-.64 1.78-1.85 2.41-3.65 2.09a.33.32 14 0 0-.36.21l-.12.33a.41.41 0 0 0 .35.56c1.16.09 7.78.46 8.38-.17a.35.34-59.9 0 0-.15-.57l-2.08-.61a.72.72 0 0 1-.48-.91l5.5-17.34M269.01 177.31a.82.82 0 0 1-.64-1.07l6.5-19.86a1.18 1.16 89.6 0 1 .72-.74c.51-.18 3.48-.55 3.42-1.26a.63.62 86.6 0 0-.64-.58l-9.71.2q-2.43.05-.16.9l2.16.81a.55.54 18.5 0 1 .34.66q-2.69 9.24-5.94 18.33c-.82 2.3-2.14 3.19-4.53 2.99a.26.26 0 0 0-.28.26v.26a.51.51 0 0 0 .51.51c1.28.02 10.53.33 10.82-.4a.47.47 0 0 0-.36-.63l-2.21-.38M306.7 173.28l-1.38-16.57a1.14 1.13 83.6 0 1 .97-1.22l2.49-.37a.57.56 85.4 0 0 .48-.57l-.01-.3a.51.51 0 0 0-.51-.5h-8.9a.57.56 4.1 0 0-.56.48l-.04.28a.33.33 0 0 0 .18.35q1.71.82 1.83 1.89 1.22 10.86 2.27 21.89a.65.65 0 0 0 .78.57c1.9-.41 15.15-19.15 17.33-22 .9-1.19 2.35-1.77 3.32-3q.31-.41-.2-.41l-7.48.07a.46.46 0 0 0-.16.89l2.31.88a.6.6 0 0 1 .27.92l-12.39 16.88a.34.33-29.4 0 1-.6-.16M349.71 164.46l2.92-8.21a.76.75-80.1 0 1 .71-.5h7.91a.69.68.8 0 1 .69.7l-.06 2.58a.66.65 14.5 0 0 .36.6l.26.13a.34.33 23.6 0 0 .45-.17l2.23-5.28a.4.4 0 0 0-.37-.56h-17.97a.57.57 0 0 0-.56.48l-.04.29a.69.68 11.4 0 0 .52.77l1.42.34a.6.6 0 0 1 .43.77q-3.07 9.67-6.42 19.26c-.43 1.25-1.14 1.64-2.2 2.24a.45.45 0 0 0 .22.85l16.76-.01a1.43 1.42-79 0 0 1.32-.9l1.87-4.74a.39.39 0 0 0-.15-.46l-.25-.15a.52.52 0 0 0-.72.18l-2.22 3.55a.99.99 0 0 1-.84.47l-9.67.09a.49.49 0 0 1-.47-.64l2.84-8.43a.94.93-80.1 0 1 .9-.64l6.5.08a.59.58-81.3 0 1 .55.76l-.5 1.65a.54.53-81.8 0 0 .51.69h.33a.52.51-80.1 0 0 .5-.36l2.43-7.27a.43.42 25.5 0 0-.18-.5l-.25-.15a.53.53 0 0 0-.75.21l-1.18 2.35a.87.86 13.5 0 1-.77.47h-6.68a.4.4 0 0 1-.38-.54M388.83 177.51a1.37 1.36-76.6 0 1-1.06-1.73q2.81-9.4 5.72-17.27c.5-1.36.53-2.66 2.32-2.93 12.38-1.9 6.33 10.56-2.81 9.62a.53.53 0 0 0-.53.76l5.63 12.14a.91.88-7.7 0 0 .69.51c.99.12 5.02.43 5.21-.22a.55.54 18.8 0 0-.34-.68c-2.21-.77-4.26-6.18-6.25-10.53a.5.49 65.7 0 1 .24-.66c3.52-1.61 7.04-2.71 8.82-6.51 2.32-4.96-3.13-6.59-6.72-6.34q-5.82.41-11.63.09a.56.56 0 0 0-.59.5l-.04.39a.72.72 0 0 0 .66.8l1.88.16a.44.44 0 0 1 .38.57l-6.7 20.28a1.08 1.07-85.9 0 1-.84.73l-2.95.54a.39.39 0 0 0-.29.54c.33.75 7.25.51 10.38.45.13 0 .51-.28.55-.37a.41.41 0 0 0-.3-.58l-1.43-.26M518.18 176.11l6.48-19.58a1.26 1.26 0 0 1 .78-.78l3-1.05a.53.52 34.5 0 0-.19-1.02l-9.65.31q-.76.03-.36.67.62.98 1.83.96a.74.74 0 0 1 .72.95q-2.88 9.55-6.55 19.53c-.34.94-1.12 1.39-2.01 1.65a.32.32 0 0 0-.22.35l.04.27a.45.44 85.5 0 0 .44.38h17.52a.83.82 11.2 0 0 .76-.5l2.16-5.09a.45.44-75.5 0 0-.36-.62l-.28-.03a.8.79-72.8 0 0-.75.4l-1.9 3.34a1.01.98 14.2 0 1-.87.5h-10.13a.49.49 0 0 1-.46-.64M719.58 164.99a.34.34 0 0 1-.07-.67q6.19-1.27 7.16-7.41a1.27 1.24-60 0 0-.25-.98c-2.55-3.27-11.13-2.25-17.13-2.15a.93.91 13 0 0-.8.49l-.14.28a.52.52 0 0 0 .35.75l1.55.33a.62.61-75.5 0 1 .45.78q-2.87 9.62-6.26 19.09c-.47 1.29-1.26 1.98-2.46 2.45a.38.38 0 0 0 .13.73c7.81.22 15.47 1.34 20.7-6.02 1.16-1.64 1.06-3.44.93-5.36a1.35 1.33-71.7 0 0-.45-.91q-1.54-1.39-3.71-1.4M753.44 156.43q-2.78 8.81-5.69 17.57-1.2 3.63-4.24 3.55a1.05 1.04-65.7 0 0-.7.27l-.22.2a.42.42 0 0 0 .28.72c1.5.01 10.79.36 11.22-.56q.24-.49-.3-.41-1.86.26-2.51-.9c-.92-1.64 5.19-18.02 6.16-20.76a.97.95 2.2 0 1 .66-.6c.9-.22 3.32.02 3.2-1.25a.56.55-2.2 0 0-.56-.51h-9.36a.63.62 0 0 0-.63.62l-.01.39a.54.54 0 0 0 .44.53l1.78.34a.63.62-76.4 0 1 .48.8M805.47 156.15l-5.58 17.65a.54.54 0 0 1-1 .08l-10.1-19.72a.81.81 0 0 0-.74-.45l-5.6.14a.64.63 52.9 0 0-.17 1.24l2.12.66a.55.54-72.7 0 1 .36.69l-6.51 19.55a1.91 1.89 2.9 0 1-1.41 1.26l-2.43.53a.48.48 0 0 0 .09.94c1.1.02 7.99.31 8.31-.38a.36.35 12.1 0 0-.33-.5c-2.13-.01-2.44-1.07-1.84-2.9q2.64-8.04 5.17-16.02a.41.41 0 0 1 .76-.05c1.93 3.94 8.86 19.73 12.62 20.59a.77.77 0 0 0 .9-.51q3.44-10.62 6.92-20.97.99-2.96 3.8-3.1a.38.37 75.3 0 0 .31-.54c-.52-1.08-6.66-.3-7.88-.16q-1.8.22-.07.75l1.98.61a.49.49 0 0 1 .32.61M832.41 176.1l2.74-8.5a.93.91-79.3 0 1 .92-.64l6.52.34a.45.45 0 0 1 .42.54l-.41 1.94a.4.39-89.5 0 0 .46.47l.32-.06a.8.8 0 0 0 .6-.52l2.42-7.13a.33.33 0 0 0-.14-.39l-.28-.17a.52.51-60 0 0-.73.2l-1.39 2.58a1.05 1.04 15.3 0 1-.97.55l-6.13-.28a.58.58 0 0 1-.52-.77l2.89-8.08a.66.65-79.6 0 1 .61-.43h7.99a.66.66 0 0 1 .64.49c.18.65-.11 3.14.28 3.33a.64.64 0 0 0 .87-.33l2.07-4.78a.51.51 0 0 0-.47-.71h-17.87a.5.5 0 0 0-.5.5v.28a.48.48 0 0 0 .27.43l1.63.82a.69.69 0 0 1 .35.82q-3.02 9.7-6.4 19.27c-.38 1.07-1.16 1.49-2.05 2.02a.46.46 0 0 0 .24.85l16.87.01a1.01.99-78.3 0 0 .94-.63l1.96-4.74a.65.64-68.8 0 0-.36-.84c-.91-.35-2.57 3.19-3.15 3.84a1.07 1.07 0 0 1-.81.37h-9.36a.5.49-81 0 1-.47-.65M882.2 156.41l-6.47 19.8a1.19 1.17 1.7 0 1-.84.78l-3.15.77a.3.29 87.1 0 0-.21.24l-.05.32a.38.37-86 0 0 .37.43h9.57a1.12 1.1-64.6 0 0 .71-.26l.32-.28q.55-.49-.18-.56l-1.65-.18a1.27 1.27 0 0 1-1.07-1.66l6.31-19.41a.95.94 8.9 0 1 .9-.65h5.4a.59.58-86.9 0 1 .58.65l-.31 2.69a.58.56 8 0 0 .48.62l.25.04a.69.69 0 0 0 .76-.47l1.62-4.92a.47.46-80.9 0 0-.44-.61h-20.54a.7.69-79.6 0 0-.65.45c-.33.92-2.05 4.99-1.17 5.6a.54.54 0 0 0 .79-.19l1.77-3.3a1.09 1.09 0 0 1 .95-.56h5.47a.51.5-81.1 0 1 .48.66" vector-effect="non-scaling-stroke"/><path d="M672.19 159.73a.31.31 0 0 0-.55-.13l-6.92 8.73a.31.31 0 0 0 .26.5l8.43-.42a.31.31 0 0 0 .29-.37l-1.51-8.31M481.78 159.89a.42.42 0 0 0-.75-.19l-6.74 8.51a.42.42 0 0 0 .36.68l8.06-.54a.42.42 0 0 0 .39-.49l-1.32-7.97M714.73 156.16l-2.47 7.01a.52.52 0 0 0 .39.68q7.25 1.41 9.92-5.14a2.09 2.09 0 0 0-1.82-2.88l-5.09-.29a.93.93 0 0 0-.93.62M711.36 166.33l-3.3 9.84a.45.45 0 0 0 .33.59q7.77 1.65 10.91-5.19 1.01-2.21-.19-4.61a1.15 1.15 0 0 0-.9-.63l-5.77-.68a1.01 1.01 0 0 0-1.08.68" vector-effect="non-scaling-stroke"/></g><g fill="#fff"><path d="M119.37 119.45a.8.79 12.8 0 1 .71 1.12q-1.25 2.79-3.46 4.82a1.23 1.17-65.3 0 1-.81.32q-38.94.32-53.56-.19c-16.85-.6-45.7-5.2-45.66-27.57q.01-4.24 2.54-11.11 6.37-17.33 13.56-34.29a.9.9 0 0 1 .83-.55l28.11.01a.8.8 0 0 1 .74 1.12q-8.05 18.63-14.71 37.7-2.3 6.59-1.98 10.14c1.47 16.46 27.99 18.36 40.04 18.28q16.54-.12 33.65.2M169.27 118.66a.42.42 0 0 0 .39.53l7.85.22a.64.63-77.1 0 1 .56.9q-1.34 2.93-3.72 5.13a1.17 1.15 23.6 0 1-.78.3q-15.29.02-30.56.01c-4.46-.01-4.21-3.98-3.33-7.25q8.05-29.97 19.34-58.84a1 1 0 0 0-.9-1.37l-5.64-.16a1.22 1.22 0 0 1-.88-2.03l3.26-3.66a1.31 1.29-68.9 0 1 .97-.44q14.96.02 29.9-.02c3.08-.01 5.66 1.13 4.25 4.73q-11.95 30.43-20.71 61.95M248.85 59.64q-12.65 32.01-21.18 65.37a1.02 1.02 0 0 1-.99.76l-27.21-.06a1.31 1.31 0 0 1-1.26-1.63q8.95-35.22 22.82-69.52c.68-1.68 3.37-2.54 5.3-2.55q23.52-.03 47.31 0a.95.94 25.5 0 1 .6 1.68l-5.22 4.21a1.58 1.55 25.1 0 1-.99.35h-17.14a2.2 2.19-79.2 0 0-2.04 1.39M314.18 52.59a.94.93 10.5 0 1 .87-.59h27.98a.85.85 0 0 1 .79 1.17q-13.57 33.78-22.99 68.85-.92 3.43-5.4 3.49-23.46.27-47.07.23a2.53 2.51-20.6 0 1-1.85-.83c-.62-.7 3.29-4.58 3.94-5.16a1.48 1.45-65.4 0 1 .92-.35l18.66-.21a1.41 1.38-65.2 0 0 .87-.33c1.81-1.55 1.98-3.37 2.59-5.53q8.64-30.64 20.69-60.74M363.23 52.79a1.27 1.26 11.1 0 1 1.17-.78q39.55-.02 79.6 0c7.16 0 14.84 3.26 16.76 10.68q.87 3.34-.54 9.96c-4.45 20.82-13.07 52.72-40.28 52.89q-39.41.26-79.17.18a1.16 1.15 7.2 0 1-1.12-1.44q9.41-36.54 23.58-71.49m27.06 7.03Q378.91 88.88 370.77 119a.29.29 0 0 0 .28.37q13.42-.19 26.83-.12c9.05.05 15.98-.83 19.84-9.01q9.01-19.05 14.34-42.81c1.51-6.75-1.99-9.14-8.43-9.16q-16.22-.05-32.46 0a.66.65 11.6 0 0-.6.39c-.13.27-.19.94-.28 1.16M531.25 81.51c11.07.03 18.23-23.29 10.1-23.26q-12.68.05-25.39-.07a.8.8 0 0 0-.74.5q-12.89 32.52-21.66 66.4a.91.9 6.9 0 1-.88.68l-27.39-.05a1.21 1.2 7.1 0 1-1.17-1.5q9.42-36.74 23.75-71.84a.59.58 11.6 0 1 .54-.36l71.09-.04c21.3-.02 15.37 20.57 6.86 30.23a.36.36 0 0 0 .13.57c7.99 3.41 12.32 7.58 10.36 17-2.09 10.04-7.42 21.71-17.71 24.88q-3.47 1.07-13 1.08-13.5.02-26.99.06c-3.75.01-7.07-1.26-7.54-5.16a1.23 1.23 0 0 1 1.23-1.37c11.37.16 25.93 1.16 31.38-11.02 3.53-7.9 7.55-19.63-5.73-20.1q-11.27-.4-22.56-.42a.95.95 0 0 1-.83-.49l-2.08-3.9a1.23 1.23 0 0 1 1.08-1.81q8.61-.04 17.15-.01M628.91 76.75h51.06a.84.84 0 0 1 .74 1.23c-1.5 2.84-3.57 5.02-7.1 5.02H626.9a1.04 1.04 0 0 0-.98.7c-2.48 7.25-6.71 17.65-6.01 24.35 1.08 10.27 10.03 11.2 19.14 11.19q14.16 0 28.69.04 2.6 0 1.03 2.08l-2.99 3.96a1.08 1.07 18.2 0 1-.86.43q-22.6.01-45.17.07c-21.49.05-34.68-8.82-26.83-32.17q6.99-20.83 14.9-41.31a.53.52-79.4 0 1 .49-.34h84.54a.75.75 0 0 1 .52 1.29l-4.76 4.65a1.11 1.1 22.7 0 1-.77.31h-51.97a.83.83 0 0 0-.78.54l-6.59 17.37a.44.44 0 0 0 .41.59M790.97 118.52c2.42 1.32 6.03.58 8.8.96a.81.8 21.5 0 1 .55 1.26c-1.98 2.81-4.12 4.94-7.86 5q-19.17.32-24.69-.23c-5.2-.51-7.99-3.82-10.02-8.75q-6.03-14.63-12.01-29.27c-1.4-3.42-.41-6.13 3.56-5.99 5.64.21 18.78 1.17 23.48-1.4 5.96-3.26 9.33-10.26 9.47-16.86.08-3.69-2.37-4.98-5.83-4.99q-15.94-.01-33.06.01a.88.86-79.1 0 0-.81.56q-12.69 32.26-21.37 65.84a1.45 1.44-82.8 0 1-1.4 1.09h-27.19a1.14 1.13 7.3 0 1-1.1-1.42q9.53-36.68 23.72-71.82a.79.79 0 0 1 .73-.49q38.24-.05 76.65 0c12.27.02 22.36 1.97 18.42 17.45q-3.36 13.16-15 17.32c-4.84 1.73-11.95.91-17.42 1.32a.5.5 0 0 0-.42.69l12.06 28.91a1.59 1.58 2.8 0 0 .74.81M836.19 57.69c1.56-3.66 4.58-5.59 8.56-5.6q44.26-.1 88.24-.08a.87.87 0 0 1 .61 1.49l-4.41 4.32a1.51 1.49-66.9 0 1-1.05.43h-59.39c-1.13 0-2.37 1.31-2.83 2.45Q854.9 88 847.45 116.58a1.05 1.05 0 0 0 .6 1.23q1.54.66 3.45.86 14.38 1.45 30.19-.25c2.44-.27 3.61-.99 4.63-3.34q4.14-9.52 7.49-19.46a1.42 1.41 9.4 0 0-1.34-1.86l-9.74-.01a1.04 1.03-16.7 0 1-.83-.44l-2.85-4.06a1.11 1.11 0 0 1 .91-1.75l47.73.01a1.15 1.11-5.5 0 1 1.12.89q.02.11-.19.76-4.27 13.37-9.65 26.32c-1.73 4.16-5.23 7.54-9.46 8.02-28.78 3.25-58.71 2.57-86.45-.08-4.52-.43-7.2-3.99-6.1-8.47q7.07-28.8 19.23-57.26M978.64 76.75h38.21a1.15 1.15 0 0 1 .73 2.03l-4.74 3.93a1.26 1.24-64.5 0 1-.8.29h-35.8a.64.63-80.3 0 0-.6.43q-6.89 20.5-12.33 41.43a1.2 1.2 0 0 1-1.16.9l-26.92-.03a1.44 1.44 0 0 1-1.39-1.8q9.42-36.46 23.56-71.35a.94.93-78.6 0 1 .86-.58h27.36a1.2 1.2 0 0 1 1.12 1.63l-8.55 22.47a.48.48 0 0 0 .45.65M1029.86 52.29a.47.46-78.6 0 1 .43-.29h27.76a.69.69 0 0 1 .68.57q.25 1.38-.4 3-13.56 34.01-22.83 69.5a.9.89 7 0 1-.87.67c-8.95.01-19.11.81-28.07-.32a.69.69 0 0 1-.58-.86q9.44-36.96 23.88-72.27"/><path d="M271.25 61.27c4.56.04 7.95 1.79 8.8 6.38q3.9 21.19 8.02 42.34.57 2.93.55 4.87a.53.53 0 0 1-.51.52q-9.75.35-19.43.23c-4.93-.05-7.87-1.71-8.72-6.6q-4.02-23.25-7.91-46.09a1.4 1.39-5.3 0 1 1.36-1.63q8.99-.09 17.84-.02M945.7 154.34l-1.1-.46a.63.63 0 0 0-.84.38l-11.06 33.03a1.06 1.04 9.2 0 1-1 .71H11.52a.52.52 0 0 1-.49-.68l11.23-34.55a.76.75 9 0 1 .72-.52h103.3a.38.37 9 0 1 .36.49l-7.1 21.43a.77.76-72.8 0 0 .51.98l1.31.38a.66.65 17.4 0 0 .81-.42l10.7-32.09a.75.74-80.6 0 1 .7-.51c307.74-.01 615.24.01 923.24-.01a.36.35-80.5 0 1 .33.47l-11.71 35.11a.62.62 0 0 1-.59.43l-105.64-.01a.4.39-80.8 0 1-.37-.52l7.42-22.44a.96.96 0 0 0-.55-1.2m-287.04 22.18 4.15-5.56a1.15 1.13 17.9 0 1 .92-.46h9.19a.53.53 0 0 1 .52.43l.91 4.76a.97.95 63 0 1-.28.88q-1.33 1.23-3.17.89a.52.52 0 0 0-.61.44l-.04.32a.47.47 0 0 0 .47.53h9.08a.76.75 24.3 0 0 .49-.18l.22-.2a.39.39 0 0 0-.12-.66l-1.03-.41a1.2 1.19-89 0 1-.7-.73q-1.46-4.29-1.3-8.81.03-.63-.32-1.01a1.3 1.27 23.7 0 1-.34-.84q-.13-5.74-1.3-11.42-.42-2.03-1.69-.39-8.81 11.37-17.29 21.85c-.99 1.23-2.32 1.51-3.77 1.76a.51.51 0 0 0-.41.62c.16.65 6.16.44 8.43.38.26-.01.68-.3.74-.5a.51.51 0 0 0-.44-.66l-1.93-.18q-.96-.09-.38-.85m-226.93-18.79c-2.86 3.07-3.64 8.07 1.63 9.18q4.4.92 6.14 1.49a1.33 1.3 82.9 0 1 .74.59q1.15 1.89.11 3.58-4.5 7.27-12.95 3.95a.7.69-76.8 0 1-.44-.72l.3-3.05a.22.22 0 0 0-.22-.25h-.36a.83.82 10.4 0 0-.79.54l-1.66 4.56a.61.61 0 0 0 .39.79q11.53 3.6 18.67-5.62 2.83-3.66.05-7.07a1.6 1.6 0 0 0-.8-.51c-2.67-.67-11.51-.84-8.94-5.63q3.03-5.64 9.59-3.96 2.8.72 1.11 3.4a.42.42 0 0 0 .3.64l.62.1a.66.66 0 0 0 .72-.42l1.58-4a.49.49 0 0 0-.26-.63q-9.03-3.94-15.53 3.04m36.84 19.55a.6.6 0 0 1-.37-.96l4.13-5.4a1.07 1.07 0 0 1 .85-.42h9.48a.68.68 0 0 1 .68.66l.16 5.47a.64.63-4 0 1-.56.64l-2.97.36a.44.44 0 0 0-.36.59c.32.82 6.96.56 9.9.5.15-.01.51-.29.56-.4a.51.51 0 0 0-.3-.67l-1.4-.5a.92.92 0 0 1-.6-.75q-.9-7.04-1.6-14.12-.43-4.31-1.33-8.1a.81.8 57.5 0 0-1.41-.32l-17.78 22.49a1.64 1.62-79.2 0 1-.78.54l-3.23 1a.39.39 0 0 0 .1.76c1.49.06 8.93.37 9.3-.23a.49.49 0 0 0-.33-.74zm145.62-15.84c-2.63 3.13-4.28 8.3-2.75 12.29 3.09 8.04 21.56 5.79 21.22 2.32a.59.58-3.6 0 0-.61-.53c-1.1.03-1.7.74-2.66 1.01-20.73 5.64-16.54-20.05.12-21.29q3.62-.27 6.63 1.67a.64.64 0 0 1 .25.75l-.76 2.05q-.26.71.48.57l.4-.07a1.1 1.09 6.3 0 0 .79-.63l1.88-4.24a.38.38 0 0 0-.23-.52q-15-4.98-24.76 6.62M175.85 175.7a1.99 1.98-70.7 0 1-1.13-2.36q2.22-7.95 4.73-15.74c.95-2.96 4.59-1.72 4.75-3.29a.5.49 2.6 0 0-.5-.54l-9.62.06a.59.58 90 0 0-.58.59v.27a.57.56-84.5 0 0 .45.56l2.01.38a.53.53 0 0 1 .4.7q-4.74 13.07-5.35 16.91-.62 3.88 2.57 5.18c5.84 2.39 15.3.47 18.12-5.73q1.49-3.27 5.63-16.44a.87.86-88.7 0 1 .62-.6c.71-.19 3.65-.41 3.49-1.4a.6.59-4.5 0 0-.59-.5l-8.09.09a.58.57 52.1 0 0-.14 1.13l2.32.62a.45.45 0 0 1 .32.56q-2.13 7.3-4.79 14.49c-2.3 6.23-8.86 7.54-14.62 5.06m45.9-16.68a.48.47 41 0 1 .88-.06q4.74 9.77 10 19.11 1.18 2.09 3.12.98a1.29 1.27 84.1 0 0 .59-.74q3.15-10.09 6.61-20.07.51-1.47 1.18-2.33a1.45 1.39 9.8 0 1 .73-.49l2.06-.6a.47.47 0 0 0-.13-.93h-7.4q-1.41 0-.3.87.84.65 2.01.68a.48.48 0 0 1 .44.63l-5.68 17.72a.53.53 0 0 1-.98.08l-10-19.54a.94.92 78.2 0 0-.75-.5c-1-.09-6.01-.69-5.94.94a.51.51 0 0 0 .54.48q1.22-.07 1.63.76c.66 1.36-5.12 16.99-6 19.42-.64 1.78-1.85 2.41-3.65 2.09a.33.32 14 0 0-.36.21l-.12.33a.41.41 0 0 0 .35.56c1.16.09 7.78.46 8.38-.17a.35.34-59.9 0 0-.15-.57l-2.08-.61a.72.72 0 0 1-.48-.91zm47.26 18.29a.82.82 0 0 1-.64-1.07l6.5-19.86a1.18 1.16 89.6 0 1 .72-.74c.51-.18 3.48-.55 3.42-1.26a.63.62 86.6 0 0-.64-.58l-9.71.2q-2.43.05-.16.9l2.16.81a.55.54 18.5 0 1 .34.66q-2.69 9.24-5.94 18.33c-.82 2.3-2.14 3.19-4.53 2.99a.26.26 0 0 0-.28.26v.26a.51.51 0 0 0 .51.51c1.28.02 10.53.33 10.82-.4a.47.47 0 0 0-.36-.63zm37.69-4.03-1.38-16.57a1.14 1.13 83.6 0 1 .97-1.22l2.49-.37a.57.56 85.4 0 0 .48-.57l-.01-.3a.51.51 0 0 0-.51-.5h-8.9a.57.56 4.1 0 0-.56.48l-.04.28a.33.33 0 0 0 .18.35q1.71.82 1.83 1.89 1.22 10.86 2.27 21.89a.65.65 0 0 0 .78.57c1.9-.41 15.15-19.15 17.33-22 .9-1.19 2.35-1.77 3.32-3q.31-.41-.2-.41l-7.48.07a.46.46 0 0 0-.16.89l2.31.88a.6.6 0 0 1 .27.92l-12.39 16.88a.34.33-29.4 0 1-.6-.16m43.01-8.82 2.92-8.21a.76.75-80.1 0 1 .71-.5h7.91a.69.68.8 0 1 .69.7l-.06 2.58a.66.65 14.5 0 0 .36.6l.26.13a.34.33 23.6 0 0 .45-.17l2.23-5.28a.4.4 0 0 0-.37-.56h-17.97a.57.57 0 0 0-.56.48l-.04.29a.69.68 11.4 0 0 .52.77l1.42.34a.6.6 0 0 1 .43.77q-3.07 9.67-6.42 19.26c-.43 1.25-1.14 1.64-2.2 2.24a.45.45 0 0 0 .22.85l16.76-.01a1.43 1.42-79 0 0 1.32-.9l1.87-4.74a.39.39 0 0 0-.15-.46l-.25-.15a.52.52 0 0 0-.72.18l-2.22 3.55a.99.99 0 0 1-.84.47l-9.67.09a.49.49 0 0 1-.47-.64l2.84-8.43a.94.93-80.1 0 1 .9-.64l6.5.08a.59.58-81.3 0 1 .55.76l-.5 1.65a.54.53-81.8 0 0 .51.69h.33a.52.51-80.1 0 0 .5-.36l2.43-7.27a.43.42 25.5 0 0-.18-.5l-.25-.15a.53.53 0 0 0-.75.21l-1.18 2.35a.87.86 13.5 0 1-.77.47h-6.68a.4.4 0 0 1-.38-.54m39.12 13.05a1.37 1.36-76.6 0 1-1.06-1.73q2.81-9.4 5.72-17.27c.5-1.36.53-2.66 2.32-2.93 12.38-1.9 6.33 10.56-2.81 9.62a.53.53 0 0 0-.53.76l5.63 12.14a.91.88-7.7 0 0 .69.51c.99.12 5.02.43 5.21-.22a.55.54 18.8 0 0-.34-.68c-2.21-.77-4.26-6.18-6.25-10.53a.5.49 65.7 0 1 .24-.66c3.52-1.61 7.04-2.71 8.82-6.51 2.32-4.96-3.13-6.59-6.72-6.34q-5.82.41-11.63.09a.56.56 0 0 0-.59.5l-.04.39a.72.72 0 0 0 .66.8l1.88.16a.44.44 0 0 1 .38.57l-6.7 20.28a1.08 1.07-85.9 0 1-.84.73l-2.95.54a.39.39 0 0 0-.29.54c.33.75 7.25.51 10.38.45.13 0 .51-.28.55-.37a.41.41 0 0 0-.3-.58zm129.35-1.4 6.48-19.58a1.26 1.26 0 0 1 .78-.78l3-1.05a.53.52 34.5 0 0-.19-1.02l-9.65.31q-.76.03-.36.67.62.98 1.83.96a.74.74 0 0 1 .72.95q-2.88 9.55-6.55 19.53c-.34.94-1.12 1.39-2.01 1.65a.32.32 0 0 0-.22.35l.04.27a.45.44 85.5 0 0 .44.38h17.52a.83.82 11.2 0 0 .76-.5l2.16-5.09a.45.44-75.5 0 0-.36-.62l-.28-.03a.8.79-72.8 0 0-.75.4l-1.9 3.34a1.01.98 14.2 0 1-.87.5h-10.13a.49.49 0 0 1-.46-.64m201.4-11.12a.34.34 0 0 1-.07-.67q6.19-1.27 7.16-7.41a1.27 1.24-60 0 0-.25-.98c-2.55-3.27-11.13-2.25-17.13-2.15a.93.91 13 0 0-.8.49l-.14.28a.52.52 0 0 0 .35.75l1.55.33a.62.61-75.5 0 1 .45.78q-2.87 9.62-6.26 19.09c-.47 1.29-1.26 1.98-2.46 2.45a.38.38 0 0 0 .13.73c7.81.22 15.47 1.34 20.7-6.02 1.16-1.64 1.06-3.44.93-5.36a1.35 1.33-71.7 0 0-.45-.91q-1.54-1.39-3.71-1.4m33.86-8.56q-2.78 8.81-5.69 17.57-1.2 3.63-4.24 3.55a1.05 1.04-65.7 0 0-.7.27l-.22.2a.42.42 0 0 0 .28.72c1.5.01 10.79.36 11.22-.56q.24-.49-.3-.41-1.86.26-2.51-.9c-.92-1.64 5.19-18.02 6.16-20.76a.97.95 2.2 0 1 .66-.6c.9-.22 3.32.02 3.2-1.25a.56.55-2.2 0 0-.56-.51h-9.36a.63.62 0 0 0-.63.62l-.01.39a.54.54 0 0 0 .44.53l1.78.34a.63.62-76.4 0 1 .48.8m52.03-.28-5.58 17.65a.54.54 0 0 1-1 .08l-10.1-19.72a.81.81 0 0 0-.74-.45l-5.6.14a.64.63 52.9 0 0-.17 1.24l2.12.66a.55.54-72.7 0 1 .36.69l-6.51 19.55a1.91 1.89 2.9 0 1-1.41 1.26l-2.43.53a.48.48 0 0 0 .09.94c1.1.02 7.99.31 8.31-.38a.36.35 12.1 0 0-.33-.5c-2.13-.01-2.44-1.07-1.84-2.9q2.64-8.04 5.17-16.02a.41.41 0 0 1 .76-.05c1.93 3.94 8.86 19.73 12.62 20.59a.77.77 0 0 0 .9-.51q3.44-10.62 6.92-20.97.99-2.96 3.8-3.1a.38.37 75.3 0 0 .31-.54c-.52-1.08-6.66-.3-7.88-.16q-1.8.22-.07.75l1.98.61a.49.49 0 0 1 .32.61m26.94 19.95 2.74-8.5a.93.91-79.3 0 1 .92-.64l6.52.34a.45.45 0 0 1 .42.54l-.41 1.94a.4.39-89.5 0 0 .46.47l.32-.06a.8.8 0 0 0 .6-.52l2.42-7.13a.33.33 0 0 0-.14-.39l-.28-.17a.52.51-60 0 0-.73.2l-1.39 2.58a1.05 1.04 15.3 0 1-.97.55l-6.13-.28a.58.58 0 0 1-.52-.77l2.89-8.08a.66.65-79.6 0 1 .61-.43h7.99a.66.66 0 0 1 .64.49c.18.65-.11 3.14.28 3.33a.64.64 0 0 0 .87-.33l2.07-4.78a.51.51 0 0 0-.47-.71h-17.87a.5.5 0 0 0-.5.5v.28a.48.48 0 0 0 .27.43l1.63.82a.69.69 0 0 1 .35.82q-3.02 9.7-6.4 19.27c-.38 1.07-1.16 1.49-2.05 2.02a.46.46 0 0 0 .24.85l16.87.01a1.01.99-78.3 0 0 .94-.63l1.96-4.74a.65.64-68.8 0 0-.36-.84c-.91-.35-2.57 3.19-3.15 3.84a1.07 1.07 0 0 1-.81.37h-9.36a.5.49-81 0 1-.47-.65m49.79-19.69-6.47 19.8a1.19 1.17 1.7 0 1-.84.78l-3.15.77a.3.29 87.1 0 0-.21.24l-.05.32a.38.37-86 0 0 .37.43h9.57a1.12 1.1-64.6 0 0 .71-.26l.32-.28q.55-.49-.18-.56l-1.65-.18a1.27 1.27 0 0 1-1.07-1.66l6.31-19.41a.95.94 8.9 0 1 .9-.65h5.4a.59.58-86.9 0 1 .58.65l-.31 2.69a.58.56 8 0 0 .48.62l.25.04a.69.69 0 0 0 .76-.47l1.62-4.92a.47.46-80.9 0 0-.44-.61h-20.54a.7.69-79.6 0 0-.65.45c-.33.92-2.05 4.99-1.17 5.6a.54.54 0 0 0 .79-.19l1.77-3.3a1.09 1.09 0 0 1 .95-.56h5.47a.51.5-81.1 0 1 .48.66"/><path d="M714.73 156.16a.93.93 0 0 1 .93-.62l5.09.29a2.09 2.09 0 0 1 1.82 2.88q-2.67 6.55-9.92 5.14a.52.52 0 0 1-.39-.68zM672.19 159.73l1.51 8.31a.31.31 0 0 1-.29.37l-8.43.42a.31.31 0 0 1-.26-.5l6.92-8.73a.31.31 0 0 1 .55.13M481.78 159.89l1.32 7.97a.42.42 0 0 1-.39.49l-8.06.54a.42.42 0 0 1-.36-.68l6.74-8.51a.42.42 0 0 1 .75.19M712.44 165.65l5.77.68a1.15 1.15 0 0 1 .9.63q1.2 2.4.19 4.61-3.14 6.84-10.91 5.19a.45.45 0 0 1-.33-.59l3.3-9.84a1.01 1.01 0 0 1 1.08-.68"/></g><path d="m659.04 177.37 1.93.18a.51.51 0 0 1 .44.66c-.06.2-.48.49-.74.5-2.27.06-8.27.27-8.43-.38a.51.51 0 0 1 .41-.62c1.45-.25 2.78-.53 3.77-1.76q8.48-10.48 17.29-21.85 1.27-1.64 1.69.39 1.17 5.68 1.3 11.42a1.3 1.27 23.7 0 0 .34.84q.35.38.32 1.01-.16 4.52 1.3 8.81a1.2 1.19-89 0 0 .7.73l1.03.41a.39.39 0 0 1 .12.66l-.22.2a.76.75 24.3 0 1-.49.18h-9.08a.47.47 0 0 1-.47-.53l.04-.32a.52.52 0 0 1 .61-.44q1.84.34 3.17-.89a.97.95 63 0 0 .28-.88l-.91-4.76a.53.53 0 0 0-.52-.43h-9.19a1.15 1.13 17.9 0 0-.92.46l-4.15 5.56q-.58.76.38.85m13.15-17.64a.31.31 0 0 0-.55-.13l-6.92 8.73a.31.31 0 0 0 .26.5l8.43-.42a.31.31 0 0 0 .29-.37zM431.73 157.73q6.5-6.98 15.53-3.04a.49.49 0 0 1 .26.63l-1.58 4a.66.66 0 0 1-.72.42l-.62-.1a.42.42 0 0 1-.3-.64q1.69-2.68-1.11-3.4-6.56-1.68-9.59 3.96c-2.57 4.79 6.27 4.96 8.94 5.63a1.6 1.6 0 0 1 .8.51q2.78 3.41-.05 7.07-7.14 9.22-18.67 5.62a.61.61 0 0 1-.39-.79l1.66-4.56a.83.82 10.4 0 1 .79-.54h.36a.22.22 0 0 1 .22.25l-.3 3.05a.7.69-76.8 0 0 .44.72q8.45 3.32 12.95-3.95 1.04-1.69-.11-3.58a1.33 1.3 82.9 0 0-.74-.59q-1.74-.57-6.14-1.49c-5.27-1.11-4.49-6.11-1.63-9.18M468.57 177.28l2.14.4a.49.49 0 0 1 .33.74c-.37.6-7.81.29-9.3.23a.39.39 0 0 1-.1-.76l3.23-1a1.64 1.62-79.2 0 0 .78-.54l17.78-22.49a.81.8 57.5 0 1 1.41.32q.9 3.79 1.33 8.1.7 7.08 1.6 14.12a.92.92 0 0 0 .6.75l1.4.5a.51.51 0 0 1 .3.67c-.05.11-.41.39-.56.4-2.94.06-9.58.32-9.9-.5a.44.44 0 0 1 .36-.59l2.97-.36a.64.63-4 0 0 .56-.64l-.16-5.47a.68.68 0 0 0-.68-.66h-9.48a1.07 1.07 0 0 0-.85.42l-4.13 5.4a.6.6 0 0 0 .37.96m13.21-17.39a.42.42 0 0 0-.75-.19l-6.74 8.51a.42.42 0 0 0 .36.68l8.06-.54a.42.42 0 0 0 .39-.49zM614.19 161.44q9.76-11.6 24.76-6.62a.38.38 0 0 1 .23.52l-1.88 4.24a1.1 1.09 6.3 0 1-.79.63l-.4.07q-.74.14-.48-.57l.76-2.05a.64.64 0 0 0-.25-.75q-3.01-1.94-6.63-1.67c-16.66 1.24-20.85 26.93-.12 21.29.96-.27 1.56-.98 2.66-1.01a.59.58-3.6 0 1 .61.53c.34 3.47-18.13 5.72-21.22-2.32-1.53-3.99.12-9.16 2.75-12.29M175.85 175.7c5.76 2.48 12.32 1.17 14.62-5.06q2.66-7.19 4.79-14.49a.45.45 0 0 0-.32-.56l-2.32-.62a.58.57 52.1 0 1 .14-1.13l8.09-.09a.6.59-4.5 0 1 .59.5c.16.99-2.78 1.21-3.49 1.4a.87.86-88.7 0 0-.62.6q-4.14 13.17-5.63 16.44c-2.82 6.2-12.28 8.12-18.12 5.73q-3.19-1.3-2.57-5.18.61-3.84 5.35-16.91a.53.53 0 0 0-.4-.7l-2.01-.38a.57.56-84.5 0 1-.45-.56v-.27a.59.58 90 0 1 .58-.59l9.62-.06a.5.49 2.6 0 1 .5.54c-.16 1.57-3.8.33-4.75 3.29q-2.51 7.79-4.73 15.74a1.99 1.98-70.7 0 0 1.13 2.36M221.75 159.02l-5.5 17.34a.72.72 0 0 0 .48.91l2.08.61a.35.34-59.9 0 1 .15.57c-.6.63-7.22.26-8.38.17a.41.41 0 0 1-.35-.56l.12-.33a.33.32 14 0 1 .36-.21c1.8.32 3.01-.31 3.65-2.09.88-2.43 6.66-18.06 6-19.42q-.41-.83-1.63-.76a.51.51 0 0 1-.54-.48c-.07-1.63 4.94-1.03 5.94-.94a.94.92 78.2 0 1 .75.5l10 19.54a.53.53 0 0 0 .98-.08l5.68-17.72a.48.48 0 0 0-.44-.63q-1.17-.03-2.01-.68-1.11-.87.3-.87h7.4a.47.47 0 0 1 .13.93l-2.06.6a1.45 1.39 9.8 0 0-.73.49q-.67.86-1.18 2.33-3.46 9.98-6.61 20.07a1.29 1.27 84.1 0 1-.59.74q-1.94 1.11-3.12-.98-5.26-9.34-10-19.11a.48.47 41 0 0-.88.06M269.01 177.31l2.21.38a.47.47 0 0 1 .36.63c-.29.73-9.54.42-10.82.4a.51.51 0 0 1-.51-.51v-.26a.26.26 0 0 1 .28-.26c2.39.2 3.71-.69 4.53-2.99q3.25-9.09 5.94-18.33a.55.54 18.5 0 0-.34-.66l-2.16-.81q-2.27-.85.16-.9l9.71-.2a.63.62 86.6 0 1 .64.58c.06.71-2.91 1.08-3.42 1.26a1.18 1.16 89.6 0 0-.72.74l-6.5 19.86a.82.82 0 0 0 .64 1.07M306.7 173.28a.34.33-29.4 0 0 .6.16l12.39-16.88a.6.6 0 0 0-.27-.92l-2.31-.88a.46.46 0 0 1 .16-.89l7.48-.07q.51 0 .2.41c-.97 1.23-2.42 1.81-3.32 3-2.18 2.85-15.43 21.59-17.33 22a.65.65 0 0 1-.78-.57q-1.05-11.03-2.27-21.89-.12-1.07-1.83-1.89a.33.33 0 0 1-.18-.35l.04-.28a.57.56 4.1 0 1 .56-.48h8.9a.51.51 0 0 1 .51.5l.01.3a.57.56 85.4 0 1-.48.57l-2.49.37a1.14 1.13 83.6 0 0-.97 1.22zM350.09 165h6.68a.87.86 13.5 0 0 .77-.47l1.18-2.35a.53.53 0 0 1 .75-.21l.25.15a.43.42 25.5 0 1 .18.5l-2.43 7.27a.52.51-80.1 0 1-.5.36h-.33a.54.53-81.8 0 1-.51-.69l.5-1.65a.59.58-81.3 0 0-.55-.76l-6.5-.08a.94.93-80.1 0 0-.9.64l-2.84 8.43a.49.49 0 0 0 .47.64l9.67-.09a.99.99 0 0 0 .84-.47l2.22-3.55a.52.52 0 0 1 .72-.18l.25.15a.39.39 0 0 1 .15.46l-1.87 4.74a1.43 1.42-79 0 1-1.32.9l-16.76.01a.45.45 0 0 1-.22-.85c1.06-.6 1.77-.99 2.2-2.24q3.35-9.59 6.42-19.26a.6.6 0 0 0-.43-.77l-1.42-.34a.69.68 11.4 0 1-.52-.77l.04-.29a.57.57 0 0 1 .56-.48h17.97a.4.4 0 0 1 .37.56l-2.23 5.28a.34.33 23.6 0 1-.45.17l-.26-.13a.66.65 14.5 0 1-.36-.6l.06-2.58a.69.68.8 0 0-.69-.7h-7.91a.76.75-80.1 0 0-.71.5l-2.92 8.21a.4.4 0 0 0 .38.54M388.83 177.51l1.43.26a.41.41 0 0 1 .3.58c-.04.09-.42.37-.55.37-3.13.06-10.05.3-10.38-.45a.39.39 0 0 1 .29-.54l2.95-.54a1.08 1.07-85.9 0 0 .84-.73l6.7-20.28a.44.44 0 0 0-.38-.57l-1.88-.16a.72.72 0 0 1-.66-.8l.04-.39a.56.56 0 0 1 .59-.5q5.81.32 11.63-.09c3.59-.25 9.04 1.38 6.72 6.34-1.78 3.8-5.3 4.9-8.82 6.51a.5.49 65.7 0 0-.24.66c1.99 4.35 4.04 9.76 6.25 10.53a.55.54 18.8 0 1 .34.68c-.19.65-4.22.34-5.21.22a.91.88-7.7 0 1-.69-.51l-5.63-12.14a.53.53 0 0 1 .53-.76c9.14.94 15.19-11.52 2.81-9.62-1.79.27-1.82 1.57-2.32 2.93q-2.91 7.87-5.72 17.27a1.37 1.36-76.6 0 0 1.06 1.73M518.64 176.75h10.13a1.01.98 14.2 0 0 .87-.5l1.9-3.34a.8.79-72.8 0 1 .75-.4l.28.03a.45.44-75.5 0 1 .36.62l-2.16 5.09a.83.82 11.2 0 1-.76.5h-17.52a.45.44 85.5 0 1-.44-.38l-.04-.27a.32.32 0 0 1 .22-.35c.89-.26 1.67-.71 2.01-1.65q3.67-9.98 6.55-19.53a.74.74 0 0 0-.72-.95q-1.21.02-1.83-.96-.4-.64.36-.67l9.65-.31a.53.52 34.5 0 1 .19 1.02l-3 1.05a1.26 1.26 0 0 0-.78.78l-6.48 19.58a.49.49 0 0 0 .46.64M719.58 164.99q2.17.01 3.71 1.4a1.35 1.33-71.7 0 1 .45.91c.13 1.92.23 3.72-.93 5.36-5.23 7.36-12.89 6.24-20.7 6.02a.38.38 0 0 1-.13-.73c1.2-.47 1.99-1.16 2.46-2.45q3.39-9.47 6.26-19.09a.62.61-75.5 0 0-.45-.78l-1.55-.33a.52.52 0 0 1-.35-.75l.14-.28a.93.91 13 0 1 .8-.49c6-.1 14.58-1.12 17.13 2.15a1.27 1.24-60 0 1 .25.98q-.97 6.14-7.16 7.41a.34.34 0 0 0 .07.67m-4.85-8.83-2.47 7.01a.52.52 0 0 0 .39.68q7.25 1.41 9.92-5.14a2.09 2.09 0 0 0-1.82-2.88l-5.09-.29a.93.93 0 0 0-.93.62m-3.37 10.17-3.3 9.84a.45.45 0 0 0 .33.59q7.77 1.65 10.91-5.19 1.01-2.21-.19-4.61a1.15 1.15 0 0 0-.9-.63l-5.77-.68a1.01 1.01 0 0 0-1.08.68M752.96 155.63l-1.78-.34a.54.54 0 0 1-.44-.53l.01-.39a.63.62 0 0 1 .63-.62h9.36a.56.55-2.2 0 1 .56.51c.12 1.27-2.3 1.03-3.2 1.25a.97.95 2.2 0 0-.66.6c-.97 2.74-7.08 19.12-6.16 20.76q.65 1.16 2.51.9.54-.08.3.41c-.43.92-9.72.57-11.22.56a.42.42 0 0 1-.28-.72l.22-.2a1.05 1.04-65.7 0 1 .7-.27q3.04.08 4.24-3.55 2.91-8.76 5.69-17.57a.63.62-76.4 0 0-.48-.8M805.15 155.54l-1.98-.61q-1.73-.53.07-.75c1.22-.14 7.36-.92 7.88.16a.38.37 75.3 0 1-.31.54q-2.81.14-3.8 3.1-3.48 10.35-6.92 20.97a.77.77 0 0 1-.9.51c-3.76-.86-10.69-16.65-12.62-20.59a.41.41 0 0 0-.76.05q-2.53 7.98-5.17 16.02c-.6 1.83-.29 2.89 1.84 2.9a.36.35 12.1 0 1 .33.5c-.32.69-7.21.4-8.31.38a.48.48 0 0 1-.09-.94l2.43-.53a1.91 1.89 2.9 0 0 1.41-1.26l6.51-19.55a.55.54-72.7 0 0-.36-.69l-2.12-.66a.64.63 52.9 0 1 .17-1.24l5.6-.14a.81.81 0 0 1 .74.45l10.1 19.72a.54.54 0 0 0 1-.08l5.58-17.65a.49.49 0 0 0-.32-.61M832.88 176.75h9.36a1.07 1.07 0 0 0 .81-.37c.58-.65 2.24-4.19 3.15-3.84a.65.64-68.8 0 1 .36.84l-1.96 4.74a1.01.99-78.3 0 1-.94.63l-16.87-.01a.46.46 0 0 1-.24-.85c.89-.53 1.67-.95 2.05-2.02q3.38-9.57 6.4-19.27a.69.69 0 0 0-.35-.82l-1.63-.82a.48.48 0 0 1-.27-.43v-.28a.5.5 0 0 1 .5-.5h17.87a.51.51 0 0 1 .47.71l-2.07 4.78a.64.64 0 0 1-.87.33c-.39-.19-.1-2.68-.28-3.33a.66.66 0 0 0-.64-.49h-7.99a.66.65-79.6 0 0-.61.43l-2.89 8.08a.58.58 0 0 0 .52.77l6.13.28a1.05 1.04 15.3 0 0 .97-.55l1.39-2.58a.52.51-60 0 1 .73-.2l.28.17a.33.33 0 0 1 .14.39l-2.42 7.13a.8.8 0 0 1-.6.52l-.32.06a.4.39-89.5 0 1-.46-.47l.41-1.94a.45.45 0 0 0-.42-.54l-6.52-.34a.93.91-79.3 0 0-.92.64l-2.74 8.5a.5.49-81 0 0 .47.65M881.72 155.75h-5.47a1.09 1.09 0 0 0-.95.56l-1.77 3.3a.54.54 0 0 1-.79.19c-.88-.61.84-4.68 1.17-5.6a.7.69-79.6 0 1 .65-.45h20.54a.47.46-80.9 0 1 .44.61l-1.62 4.92a.69.69 0 0 1-.76.47l-.25-.04a.58.56 8 0 1-.48-.62l.31-2.69a.59.58-86.9 0 0-.58-.65h-5.4a.95.94 8.9 0 0-.9.65l-6.31 19.41a1.27 1.27 0 0 0 1.07 1.66l1.65.18q.73.07.18.56l-.32.28a1.12 1.1-64.6 0 1-.71.26h-9.57a.38.37-86 0 1-.37-.43l.05-.32a.3.29 87.1 0 1 .21-.24l3.15-.77a1.19 1.17 1.7 0 0 .84-.78l6.47-19.8a.51.5-81.1 0 0-.48-.66"/></svg>