<svg xmlns="http://www.w3.org/2000/svg" xml:space="preserve" viewBox="0 -0.001 570 160"><linearGradient id="a" x1="558.128" x2="11.77" y1="955.598" y2="955.598" gradientTransform="translate(1.504 -874.874)" gradientUnits="userSpaceOnUse"><stop offset="0" style="stop-color:#013a67"/><stop offset="1" style="stop-color:#6cd1ff"/></linearGradient><path d="m492.875 28.198 45.586.284 21.172-22.02-77.998-.284-73.289 73.575-10.262.567.286-70.783-41.205 42.054-9.856 1.169V9.91l-84.36 83.468-10.49 1.116.892-85.881-73.73 74.863-9.682.047-1.135-71.898-39.778 40.06-11.064.568.42-42.778L13.274 115.43l34.618-.567 45.39-44.052h8.704l-.42 44.264 36.152-36.997h8.644v37.687l-39.787 39.5 38.127-.565 75.017-75.866h10.104v37.27l46.757.285L321.8 70.889l8.728-.567-.135 43.013 36.131-36.132h8.536l.566 36.435-.738 1.896h109.175l20.901-21.183-67.88-1.154-.618-9.852 10.576-11.14 25.611-.002L494.9 49.669l-13.447-.568v-9.483z" style="fill:url(#a)"/><linearGradient id="b" x1="64.71" x2="60.765" y1="938.789" y2="934.845" gradientTransform="translate(1.504 -874.874)" gradientUnits="userSpaceOnUse"><stop offset="0" style="stop-color:#08406f"/><stop offset="1" style="stop-color:#60c5f5"/></linearGradient><path d="M116.376 13.749 15.261 114.864l-11.47 4.313s-.605.039-.272-.445c0 0 117.26-117.292 117.472-117.471.212-.181.467-.028.467-.028z" style="fill:url(#b)"/><linearGradient id="c" x1="123.295" x2="119.67" y1="1013.91" y2="1010.285" gradientTransform="translate(1.504 -874.874)" gradientUnits="userSpaceOnUse"><stop offset="0" style="stop-color:#08406f"/><stop offset="1" style="stop-color:#60c5f5"/></linearGradient><path d="m147.498 116.333-37.518 37.52-11.065 4.458s-.576.065-.236-.407l43.93-43.75z" style="fill:url(#c)"/><linearGradient id="d" x1="25.724" x2="25.724" y1="994.051" y2="989.738" gradientTransform="translate(1.504 -874.874)" gradientUnits="userSpaceOnUse"><stop offset="0" style="stop-color:#08406f"/><stop offset="1" style="stop-color:#60c5f5"/></linearGradient><path d="M50.666 119.177H3.79l11.497-4.313h32.606z" style="fill:url(#d)"/><linearGradient id="e" x1="121.186" x2="121.186" y1="1033.182" y2="1028.725" gradientTransform="translate(1.504 -874.874)" gradientUnits="userSpaceOnUse"><stop offset="0" style="stop-color:#08406f"/><stop offset="1" style="stop-color:#60c5f5"/></linearGradient><path d="M146.465 158.307h-47.55l11.065-4.457h33.872z" style="fill:url(#e)"/><linearGradient id="f" x1="427.694" x2="427.694" y1="994.023" y2="989.557" gradientTransform="translate(1.504 -874.874)" gradientUnits="userSpaceOnUse"><stop offset="0" style="stop-color:#08406f"/><stop offset="1" style="stop-color:#60c5f5"/></linearGradient><path d="m486.471 119.149-114.545-.03 3.81-4.435 107.477-.002z" style="fill:url(#f)"/><linearGradient id="g" x1="251.065" x2="251.065" y1="994.894" y2="990.416" gradientTransform="translate(1.504 -874.874)" gradientUnits="userSpaceOnUse"><stop offset="0" style="stop-color:#08406f"/><stop offset="1" style="stop-color:#60c5f5"/></linearGradient><path d="m278.737 120.02-51.527-.03c-.333.006-.81-.334-.81-.334l4.561-4.115h45.054z" style="fill:url(#g)"/><linearGradient id="h" x1="522.281" x2="522.281" y1="882.188" y2="877.324" gradientTransform="translate(1.504 -874.874)" gradientUnits="userSpaceOnUse"><stop offset="0" style="stop-color:#08406f"/><stop offset="1" style="stop-color:#60c5f5"/></linearGradient><path d="M479.066 2.449h88.652c.785 0 .785.313.785.313l-10.572 4.55h-75.164z" style="fill:url(#h)"/><linearGradient id="i" x1="515.013" x2="515.013" y1="906.715" y2="902.505" gradientTransform="translate(1.504 -874.874)" gradientUnits="userSpaceOnUse"><stop offset="0" style="stop-color:#08406f"/><stop offset="1" style="stop-color:#60c5f5"/></linearGradient><path d="M540.726 31.84h-46.345l-2.072-4.21h45.302z" style="fill:url(#i)"/><linearGradient id="j" x1="459.37" x2="459.37" y1="950.231" y2="946.512" gradientTransform="translate(1.504 -874.874)" gradientUnits="userSpaceOnUse"><stop offset="0" style="stop-color:#08406f"/><stop offset="1" style="stop-color:#60c5f5"/></linearGradient><path d="M475.273 75.356h-24.679l-4.119-3.718 25.611-.002z" style="fill:url(#j)"/><linearGradient id="k" x1="490.161" x2="490.161" y1="925.111" y2="919.557" gradientTransform="translate(1.504 -874.874)" gradientUnits="userSpaceOnUse"><stop offset="0" style="stop-color:#08406f"/><stop offset="1" style="stop-color:#60c5f5"/></linearGradient><path d="M493.484 50.236h-13.58l-1.193-5.548h25.467c.346-.043.441.146.441.146z" style="fill:url(#k)"/><linearGradient id="l" x1="74.389" x2="70.846" y1="968.825" y2="965.282" gradientTransform="translate(1.504 -874.874)" gradientUnits="userSpaceOnUse"><stop offset="0" style="stop-color:#08406f"/><stop offset="1" style="stop-color:#60c5f5"/></linearGradient><path d="m98.556 71.17-47.89 48.009-2.773-4.313L94.494 68.5c2-2.313 4.675-1.731 4.675-1.731z" style="fill:url(#l)"/><linearGradient id="m" x1="120.255" x2="114.889" y1="904.369" y2="904.369" gradientTransform="translate(1.504 -874.874)" gradientUnits="userSpaceOnUse"><stop offset="0" style="stop-color:#08406f"/><stop offset="1" style="stop-color:#60c5f5"/></linearGradient><path d="M116.394 52.205V13.729l5.063-12.5s.303.076.303.572v53.647l-.315 2.31c0 .002-4.496.026-5.05-5.553" style="fill:url(#m)"/><linearGradient id="n" x1="173.081" x2="166.421" y1="919.961" y2="919.961" gradientTransform="translate(1.504 -874.874)" gradientUnits="userSpaceOnUse"><stop offset="0" style="stop-color:#08406f"/><stop offset="1" style="stop-color:#60c5f5"/></linearGradient><path d="M174.586 89.379s-6.539 1.95-6.62-5.625c-.08-7.313-.014-69.291-.014-69.291L173.166.567s.182-.027.182.725l-.017 81.793z" style="fill:url(#n)"/><linearGradient id="o" x1="255.988" x2="249.995" y1="925.216" y2="925.216" gradientTransform="translate(1.504 -874.874)" gradientUnits="userSpaceOnUse"><stop offset="0" style="stop-color:#08406f"/><stop offset="1" style="stop-color:#60c5f5"/></linearGradient><path d="M257.493 99.446s-5.889.577-5.96-6.088l-.033-80.063 4.651-12.071s.583.153.583.907l-.016 91.14z" style="fill:url(#o)"/><linearGradient id="p" x1="349.277" x2="343.576" y1="904.625" y2="904.625" gradientTransform="translate(1.504 -874.874)" gradientUnits="userSpaceOnUse"><stop offset="0" style="stop-color:#08406f"/><stop offset="1" style="stop-color:#60c5f5"/></linearGradient><path d="M350.781 57.96s-4.868.453-5.7-4.562V13.675l4.392-12.147s.563.134.563.886V52.08Z" style="fill:url(#p)"/><linearGradient id="q" x1="400.96" x2="395.164" y1="918.446" y2="918.446" gradientTransform="translate(1.504 -874.874)" gradientUnits="userSpaceOnUse"><stop offset="0" style="stop-color:#08406f"/><stop offset="1" style="stop-color:#60c5f5"/></linearGradient><path d="M402.465 85.869s-4.938.643-5.797-4.373V13.79l4.85-12.544s.268.22.268 1.708V80.18Z" style="fill:url(#q)"/><linearGradient id="r" x1="101.765" x2="96.654" y1="968.938" y2="968.938" gradientTransform="translate(1.504 -874.874)" gradientUnits="userSpaceOnUse"><stop offset="0" style="stop-color:#08406f"/><stop offset="1" style="stop-color:#60c5f5"/></linearGradient><path d="M99.443 121.356s-.833-.07-.809-1.15l-.078-49.035s-1.218-1.577.613-4.4c.547.13 3.495.727 4.101 4.256v40.37z" style="fill:url(#r)"/><linearGradient id="s" x1="121.249" x2="117.696" y1="973.838" y2="970.286" gradientTransform="translate(1.504 -874.874)" gradientUnits="userSpaceOnUse"><stop offset="0" style="stop-color:#08406f"/><stop offset="1" style="stop-color:#60c5f5"/></linearGradient><path d="M142.527 79.134s-41.489 41.548-41.883 41.938c-.346.379-1.202.282-1.202.282l3.827-9.963 36.06-36.088s1.34-1.727 3.83-1.637z" style="fill:url(#s)"/><linearGradient id="t" x1="553.436" x2="549.767" y1="892.5" y2="888.831" gradientTransform="translate(1.504 -874.874)" gradientUnits="userSpaceOnUse"><stop offset="0" style="stop-color:#08406f"/><stop offset="1" style="stop-color:#60c5f5"/></linearGradient><path d="M568.293 4.175 540.727 31.84l-3.115-4.211 20.312-20.324 10.582-4.542s.35.847-.213 1.412" style="fill:url(#t)"/><linearGradient id="u" x1="145.994" x2="140.596" y1="969.879" y2="969.879" gradientTransform="translate(1.504 -874.874)" gradientUnits="userSpaceOnUse"><stop offset="0" style="stop-color:#08406f"/><stop offset="1" style="stop-color:#60c5f5"/></linearGradient><path d="m142.608 114.152-.079-35.025s-1.3-2.633.631-5.456c.593-.007 3.7.42 4.34 4.146l-.002 38.52z" style="fill:url(#u)"/><linearGradient id="v" x1="148.777" x2="144.289" y1="907.01" y2="902.522" gradientTransform="translate(1.504 -874.874)" gradientUnits="userSpaceOnUse"><stop offset="0" style="stop-color:#08406f"/><stop offset="1" style="stop-color:#60c5f5"/></linearGradient><path d="m167.953 14.462-41.462 41.463c-1.987 1.986-5.045 1.836-5.045 1.836-1.795-3.531.315-6.065.315-6.065s50.503-50.49 50.867-50.87c.331-.417.541-.264.541-.264z" style="fill:url(#v)"/><linearGradient id="w" x1="215.846" x2="211.688" y1="922.321" y2="918.164" gradientTransform="translate(1.504 -874.874)" gradientUnits="userSpaceOnUse"><stop offset="0" style="stop-color:#08406f"/><stop offset="1" style="stop-color:#60c5f5"/></linearGradient><path d="m251.5 13.298-74.377 74.375c-1.55 1.55-2.537 1.703-2.537 1.703-3.78-1.878-1.213-6.255-1.213-6.255S254.025 2.486 254.39 2.106c.943-1.093 1.761-.883 1.761-.883z" style="fill:url(#w)"/><linearGradient id="x" x1="304.316" x2="299.932" y1="927.811" y2="923.426" gradientTransform="translate(1.504 -874.874)" gradientUnits="userSpaceOnUse"><stop offset="0" style="stop-color:#08406f"/><stop offset="1" style="stop-color:#60c5f5"/></linearGradient><path d="m345.08 13.675-84.163 84.16c-1.429 1.433-3.424 1.609-3.424 1.609-3.115-1.556-.776-6.175-.776-6.175s90.61-90.5 90.974-90.881c.941-1.098 1.781-.862 1.781-.862z" style="fill:url(#x)"/><linearGradient id="y" x1="376.971" x2="372.763" y1="906.861" y2="902.653" gradientTransform="translate(1.504 -874.874)" gradientUnits="userSpaceOnUse"><stop offset="0" style="stop-color:#08406f"/><stop offset="1" style="stop-color:#60c5f5"/></linearGradient><path d="m396.668 13.79-42.513 42.514c-1.429 1.432-3.374 1.657-3.374 1.657-2.932-1.908-.588-5.983-.588-5.983s49.584-49.69 49.947-50.07c1.047-1.033 1.377-.66 1.377-.66z" style="fill:url(#y)"/><linearGradient id="z" x1="488.738" x2="485.282" y1="935.265" y2="931.809" gradientTransform="translate(1.504 -874.874)" gradientUnits="userSpaceOnUse"><stop offset="0" style="stop-color:#08406f"/><stop offset="1" style="stop-color:#60c5f5"/></linearGradient><path d="m504.642 45.989-29.369 29.367-3.188-3.722 21.4-21.398 11.134-5.401s.414.294.023 1.154" style="fill:url(#z)"/><linearGradient id="A" x1="499.808" x2="495.849" y1="979.377" y2="975.418" gradientTransform="translate(1.504 -874.874)" gradientUnits="userSpaceOnUse"><stop offset="0" style="stop-color:#08406f"/><stop offset="1" style="stop-color:#60c5f5"/></linearGradient><path d="m515.318 90.496-28.848 28.65-3.258-4.464 20.05-20.05 12.288-5.38c.001.004.397.436-.232 1.244" style="fill:url(#A)"/><linearGradient id="B" x1="441.837" x2="437.555" y1="921.613" y2="917.331" gradientTransform="translate(1.504 -874.874)" gradientUnits="userSpaceOnUse"><stop offset="0" style="stop-color:#08406f"/><stop offset="1" style="stop-color:#60c5f5"/></linearGradient><path d="m482.767 7.313-76.912 76.913c-1.43 1.432-3.395 1.644-3.395 1.644-2.449-3.092-.686-5.98-.686-5.98l77.29-77.44z" style="fill:url(#B)"/><linearGradient id="C" x1="486.859" x2="481.745" y1="916.649" y2="911.535" gradientTransform="translate(1.504 -874.874)" gradientUnits="userSpaceOnUse"><stop offset="0" style="stop-color:#08406f"/><stop offset="1" style="stop-color:#60c5f5"/></linearGradient><path d="m494.381 31.84-12.676 12.786c-2.77 2.282-1.8 5.608-1.8 5.608-2.25-.21-3.126-2.065-3.413-3.695-.285-1.63.303-3.422 1.348-4.467l14.47-14.44z" style="fill:url(#C)"/><linearGradient id="D" x1="185.977" x2="182.335" y1="992.33" y2="988.688" gradientTransform="translate(1.504 -874.874)" gradientUnits="userSpaceOnUse"><stop offset="0" style="stop-color:#08406f"/><stop offset="1" style="stop-color:#60c5f5"/></linearGradient><path d="m143.854 153.852 77.913-77.943s1.437-1.873 4.267-1.771l-.456 5.223s-78.666 78.506-79.113 78.948z" style="fill:url(#D)"/><linearGradient id="E" x1="303.028" x2="299.387" y1="969.14" y2="965.499" gradientTransform="translate(1.504 -874.874)" gradientUnits="userSpaceOnUse"><stop offset="0" style="stop-color:#08406f"/><stop offset="1" style="stop-color:#60c5f5"/></linearGradient><path d="m276.014 115.54 47.643-47.66s1.437-1.87 4.267-1.77l-.857 5.62-48.325 48.29z" style="fill:url(#E)"/><linearGradient id="F" x1="349.889" x2="346.38" y1="973.085" y2="969.576" gradientTransform="translate(1.504 -874.874)" gradientUnits="userSpaceOnUse"><stop offset="0" style="stop-color:#08406f"/><stop offset="1" style="stop-color:#60c5f5"/></linearGradient><path d="m331.81 110.786 36.778-36.79c.842-.842 1.78-1.77 3.396-1.77l-.107 5.5-43.08 43.044c-.57.563-1.02.399-1.02.399z" style="fill:url(#F)"/><linearGradient id="G" x1="370.804" x2="366.381" y1="993.64" y2="989.217" gradientTransform="translate(1.504 -874.874)" gradientUnits="userSpaceOnUse"><stop offset="0" style="stop-color:#08406f"/><stop offset="1" style="stop-color:#60c5f5"/></linearGradient><path d="m363.668 118.593 7.25-7.281 5.557 2.326-.734 1.047-3.813 4.437-.272.3h-7.72c-.34.014-.52-.271-.52-.271s-.156-.147.252-.558" style="fill:url(#G)"/><linearGradient id="H" x1="229.457" x2="223.419" y1="971.769" y2="971.769" gradientTransform="translate(1.504 -874.874)" gradientUnits="userSpaceOnUse"><stop offset="0" style="stop-color:#08406f"/><stop offset="1" style="stop-color:#60c5f5"/></linearGradient><path d="m225.667 117.874-.09-38.515s-1.738-2.016.457-5.223c.673-.01 4.202.478 4.928 4.707v36.694l-4.562 4.115c0 .003-.73-.475-.733-1.778" style="fill:url(#H)"/><linearGradient id="I" x1="330.304" x2="325.092" y1="968.519" y2="968.519" gradientTransform="translate(1.504 -874.874)" gradientUnits="userSpaceOnUse"><stop offset="0" style="stop-color:#08406f"/><stop offset="1" style="stop-color:#60c5f5"/></linearGradient><path d="m327.133 120.48-.08-48.75s-1.472-2.68.871-5.62c.596-.01 3.243.472 3.885 4.702v39.975l-4.028 10.39c-.004-.002-.605-.143-.648-.696" style="fill:url(#I)"/><linearGradient id="J" x1="374.97" x2="368.725" y1="967.807" y2="967.807" gradientTransform="translate(1.504 -874.874)" gradientUnits="userSpaceOnUse"><stop offset="0" style="stop-color:#08406f"/><stop offset="1" style="stop-color:#60c5f5"/></linearGradient><path d="M370.918 111.31V78.683s-2.113-3.38 1.064-6.456c.693-.008 4.132.24 4.492 4.323v37.088z" style="fill:url(#J)"/><linearGradient id="K" x1="440.637" x2="436.219" y1="959.675" y2="955.257" gradientTransform="translate(1.504 -874.874)" gradientUnits="userSpaceOnUse"><stop offset="0" style="stop-color:#08406f"/><stop offset="1" style="stop-color:#60c5f5"/></linearGradient><path d="m450.594 75.356-13.45 13.479-3.845 4.809c-3.896-2.458-1.953-6.874-.912-7.925l14.088-14.08z" style="fill:url(#K)"/><linearGradient id="L" x1="472.92" x2="472.92" y1="969.51" y2="963.708" gradientTransform="translate(1.504 -874.874)" gradientUnits="userSpaceOnUse"><stop offset="0" style="stop-color:#08406f"/><stop offset="1" style="stop-color:#60c5f5"/></linearGradient><path d="M503.264 94.634h-66.39c-2.503-.196-3.575-.992-3.575-.992-.012-3.571 3.844-4.81 3.844-4.81l77.746.002c.543-.001.662.422.662.422z" style="fill:url(#L)"/><path d="M1.684 142.59v-9.52H4.56l1.728 6.494 1.708-6.494h2.883v9.52H9.094v-7.495l-1.89 7.496h-1.85l-1.884-7.496v7.496zm17.224-9.522h1.922v5.155c0 .816.024 1.35.071 1.592.083.39.278.7.588.938q.464.355 1.27.354.818.001 1.234-.334.415-.334.5-.821.084-.486.084-1.616v-5.268H26.5v5c0 1.145-.052 1.95-.155 2.424q-.156.708-.575 1.193t-1.12.773-1.832.289q-1.364 0-2.068-.313-.704-.315-1.114-.818a2.6 2.6 0 0 1-.539-1.057c-.125-.545-.188-1.353-.188-2.416zm15.801 9.523v-9.443h1.922v7.84h4.78v1.604zm15.36 0v-7.91h-2.825v-1.61h7.566v1.61h-2.819v7.91zm12.053 0v-9.521h1.922v9.52zm9.886 0v-9.521h3.085q1.754 0 2.286.144a2.5 2.5 0 0 1 1.37.935q.552.72.552 1.854 0 .875-.318 1.477a2.6 2.6 0 0 1-.809.938 2.8 2.8 0 0 1-.997.452q-.689.135-1.994.136H73.93v3.594zm1.922-7.91v2.7h1.052q1.136-.001 1.52-.15a1.245 1.245 0 0 0 .818-1.206q0-.52-.305-.856a1.35 1.35 0 0 0-.773-.422q-.343-.064-1.383-.063zm13.132 7.91v-9.443h1.922v7.84h4.78v1.604zm14.204 0v-9.521h7.06v1.609h-5.138v2.108h4.78v1.604h-4.78v2.592h5.32v1.604zm90.384 0h-2.09l-.832-2.164h-3.806l-.786 2.164h-2.039l3.708-9.521h2.032zm-3.539-3.77-1.313-3.531-1.286 3.532zm10.697 3.77v-9.521h4.046q1.527 0 2.218.258c.461.17.83.477 1.107.912q.416.657.416 1.5 0 1.071-.63 1.77-.629.699-1.883.88.623.364 1.03.799.405.436 1.093 1.548l1.162 1.856h-2.299l-1.39-2.072q-.74-1.11-1.013-1.398a1.54 1.54 0 0 0-.578-.396q-.305-.105-.968-.104h-.389v3.978h-1.922zm1.922-5.496h1.422q1.383.001 1.727-.115.345-.117.54-.402c.13-.188.194-.43.194-.714q0-.481-.256-.776-.255-.29-.724-.371-.233-.031-1.403-.031h-1.5zm19.9 1.993 1.863.593q-.428 1.561-1.425 2.313-.996.756-2.53.757-1.896 0-3.117-1.296c-.814-.86-1.22-2.044-1.22-3.542q0-2.376 1.227-3.69 1.227-1.313 3.228-1.312 1.747 0 2.838 1.03.649.61.974 1.755l-1.903.452q-.169-.737-.705-1.168-.535-.427-1.302-.428-1.058-.001-1.718.76-.66.76-.66 2.46 0 1.807.65 2.573t1.688.767q.766 0 1.318-.486c.37-.33.633-.84.793-1.538m18.23 3.503h-2.092l-.832-2.164h-3.806l-.786 2.164h-2.039l3.708-9.521h2.033zm-3.54-3.77-1.313-3.531-1.286 3.532zm10.684-5.753h3.514q1.188 0 1.812.183a3.2 3.2 0 0 1 1.435.877c.398.419.702.936.91 1.542q.312.912.312 2.25 0 1.175-.292 2.026c-.238.69-.578 1.254-1.02 1.682q-.5.487-1.35.762-.637.203-1.702.203h-3.617v-9.521zm1.922 1.613v6.307h1.435q.805 0 1.163-.092.468-.117.776-.396c.206-.188.374-.49.503-.92q.195-.639.195-1.743c0-.733-.065-1.301-.195-1.692-.13-.396-.312-.701-.545-.924a1.8 1.8 0 0 0-.89-.447c-.269-.063-.795-.09-1.578-.09zm13.821 7.91v-9.521h7.06v1.609h-5.138v2.108h4.78v1.604h-4.78v2.592h5.32v1.604zm23.117 0v-9.521h2.877l1.73 6.494 1.706-6.494h2.883v9.52h-1.785v-7.495l-1.89 7.496h-1.855l-1.887-7.496v7.496zm25.821 0h-2.09l-.832-2.164h-3.809l-.782 2.164h-2.04l3.71-9.521h2.028zm-3.539-3.77-1.313-3.531-1.286 3.532zm16.784.267 1.863.593q-.428 1.561-1.425 2.313-.998.757-2.53.757-1.897 0-3.115-1.296c-.813-.86-1.223-2.044-1.223-3.542q0-2.376 1.23-3.69 1.227-1.313 3.228-1.312c1.165 0 2.108.344 2.84 1.03q.65.61.976 1.755l-1.902.452a2.04 2.04 0 0 0-.704-1.168q-.534-.427-1.303-.428-1.057-.001-1.718.76-.66.76-.66 2.46.001 1.807.648 2.573c.434.51.994.767 1.688.767q.764 0 1.313-.486c.37-.33.633-.84.794-1.538m9.651 3.503v-9.521h1.923v3.748h3.766v-3.748h1.924v9.52h-1.924v-4.163h-3.766v4.164zm15.672 0v-9.521h1.923v9.52zm9.903 0v-9.521h1.871l3.896 6.357v-6.357h1.786v9.52h-1.929l-3.839-6.208v6.209zm15.718 0v-9.521h7.06v1.609h-5.138v2.108h4.78v1.604h-4.78v2.592h5.32v1.604zm23.901 0v-9.521h7.06v1.609h-5.137v2.108h4.78v1.604h-4.78v2.592h5.32v1.604zm14.978 0v-9.521h2.877l1.728 6.494 1.71-6.494h2.882v9.52h-1.783v-7.495l-1.893 7.496h-1.852l-1.884-7.496v7.496zm17.223-9.523h1.922v5.155c0 .816.023 1.35.07 1.592.082.39.273.7.588.938.311.236.73.354 1.27.354q.82.001 1.234-.334.415-.334.5-.821t.084-1.616v-5.268h1.924v5c0 1.145-.053 1.95-.156 2.424q-.157.708-.574 1.193-.418.486-1.12.773t-1.83.289q-1.365 0-2.069-.313-.707-.315-1.109-.818a2.6 2.6 0 0 1-.537-1.057c-.127-.545-.189-1.353-.189-2.416v-5.077zm15.801 9.523v-9.443h1.922v7.84h4.781v1.604zm22.79 0h-2.093l-.83-2.164h-3.807l-.785 2.164h-2.039l3.707-9.521h2.033zm-3.54-3.77-1.313-3.531-1.285 3.532zm11.848 3.77v-7.91h-2.826v-1.61h7.564v1.61h-2.816v7.91zm11.48-4.703q0-1.456.438-2.44.322-.726.885-1.308.563-.58 1.23-.854.89-.376 2.053-.376c1.402 0 2.525.438 3.367 1.305q1.263 1.304 1.264 3.633 0 2.303-1.254 3.605-1.254 1.301-3.352 1.302-2.123 0-3.377-1.296c-.836-.863-1.254-2.057-1.254-3.571m1.983-.066q0 1.618.746 2.45.748.835 1.896.834 1.151.001 1.887-.825.737-.83.736-2.485 0-1.634-.717-2.44-.718-.803-1.906-.804-1.188 0-1.916.813-.727.814-.726 2.457m14.89 4.769v-9.521h4.047q1.526 0 2.217.258c.461.17.83.477 1.107.912q.416.657.416 1.5 0 1.071-.63 1.77t-1.884.88c.416.242.76.51 1.021.799.271.29.645.808 1.102 1.548l1.156 1.856h-2.296l-1.39-2.072q-.739-1.11-1.013-1.398a1.6 1.6 0 0 0-.578-.396q-.303-.105-.97-.104h-.392v3.978h-1.92v-.006h.004v-.002h.003zm1.922-5.496h1.424q1.383.001 1.727-.115.345-.117.541-.402c.13-.188.193-.43.193-.714q0-.481-.258-.776-.254-.29-.723-.371-.234-.031-1.402-.031h-1.502z"/></svg>