<svg xmlns="http://www.w3.org/2000/svg" xml:space="preserve" viewBox="0 -0.002 529.675 194.698"><path fill="#17569b" d="M126.595 91.361h39.796c16.265 0 29.5-13.238 29.5-29.5 0-16.261-13.235-29.42-29.5-29.42h-10.376a1.466 1.466 0 0 1-1.474-1.471c0-.898.654-1.551 1.474-1.551h39.716l.082-12.423h-39.798c-7.683 0-13.894 6.212-13.894 13.894 0 7.764 6.209 14.056 13.894 14.056h10.376c9.316 0 16.918 7.602 16.918 16.917 0 9.317-7.602 16.834-16.918 16.834h-39.796z"/><path fill="#17569b" d="M126.595 75.835h39.796c7.765 0 13.977-6.292 13.977-13.974s-6.211-13.974-13.977-13.974h-10.376c-9.315 0-16.835-7.682-16.835-16.998s7.52-16.834 16.835-16.834h39.796l-.082-12.585H156.01c-16.261 0-29.418 13.156-29.418 29.5 0 16.262 13.156 29.42 29.418 29.42h10.297c.816 0 1.472.654 1.472 1.471s-.655 1.471-1.472 1.471h-39.716zM226.7 78.776c-6.861 0-12.5-5.475-12.5-12.503V26.311c0-6.7 5.64-12.339 12.5-12.339h42.496V1.47H226.7c-13.81 0-25.005 11.196-25.005 25.007v39.796c0 13.812 11.194 25.008 25.005 25.008h42.333V78.778Z"/><path fill="#17569b" d="M217.222 26.475c0-5.23 4.249-9.562 9.479-9.562h42.495v12.504h-36.61c-2.943 0-2.943 2.94-2.943 2.94h30.563v12.504h-42.984zm9.478 49.28c-5.228 0-9.478-4.25-9.478-9.48v-18.39h42.983v12.502h-30.562c0 2.942 2.94 2.942 2.94 2.942h36.448v12.423zm72.324 3.021c-6.946 0-12.586-5.64-12.586-12.503V26.477c0-6.866 5.642-12.505 12.506-12.505h41.188V1.47H298.86c-13.811 0-25.005 11.196-25.005 25.007v39.796c0 13.812 11.274 25.008 25.088 25.008h41.188v-58.92h-35.387v12.502h22.883v33.914Z"/><path fill="#17569b" d="M289.378 66.273c0 5.23 4.334 9.563 9.563 9.563h25.74V47.805h-19.937V60.39h7.437v2.942h-7.353c-1.637 0-2.943-1.387-2.943-2.942V32.359s0-2.943 2.943-2.943h35.3V16.912h-41.186c-5.23 0-9.563 4.332-9.563 9.563zm89.405-49.52c.57-1.634 2.043-2.778 3.842-2.778 1.797 0 3.27 1.146 3.844 2.778l19.938 59.166h-29.171V62.025h9.808l-4.414-13.159-14.385 42.414h-14.71z"/><path fill="#17569b" d="M410.492 78.776H377.23v12.503h50.585l-26.313-78.042c-2.291-7.6-9.891-13.239-18.881-13.239-8.986 0-16.586 5.558-18.877 13.239l-26.563 78.042h13.24l25.739-75.917c1.063-2.534 3.514-4.25 6.455-4.25 2.862 0 5.316 1.716 6.377 4.25z"/><g fill="red"><path d="M86.576 172.835H55.698v-3.498q1.676-.044 4.31-.347 2.636-.29 3.621-.838 1.53-.93 2.241-2.142.714-1.206.713-3.029v-50.82h-.738L42.009 171.7h-2.461l-22.704-60.77h-.64v41.711q0 6.056.763 9.208.764 3.153 2.341 4.527c.723.688 2.214 1.352 4.479 1.976q3.398.938 4.433.981v3.496H0v-3.496a36 36 0 0 0 4.653-.735q2.437-.539 3.768-1.625c1.15-.915 1.938-2.33 2.364-4.236.429-1.899.64-5.088.64-9.554v-35.756q0-3.1-.738-5.069t-2.117-3.2c-1.018-.888-2.265-1.543-3.743-1.973a19.2 19.2 0 0 0-4.382-.738v-3.495h23.836l19.993 52.4 17.091-43.832a43 43 0 0 0 1.601-5.048q.666-2.637.714-3.52h22.801v3.495q-1.38.052-3.521.444-2.142.4-3.127.737c-1.115.393-1.872 1.055-2.267 1.972q-.592 1.38-.591 3.003v50.38q0 1.723.591 2.905c.395.785 1.149 1.48 2.267 2.064q.888.5 3.153.914c1.509.275 2.708.437 3.594.465v3.5h-.004z"/><path d="M130.284 171.946a70 70 0 0 1-4.062 1.356q-1.75.517-3.965.516c-2.563 0-4.604-.596-6.132-1.796q-2.29-1.794-2.93-5.244h-.296c-2.134 2.361-4.424 4.172-6.871 5.416-2.446 1.252-5.393 1.871-8.84 1.871-3.645 0-6.64-1.109-8.987-3.35q-3.521-3.343-3.52-8.765 0-2.81.788-5.024a12 12 0 0 1 2.363-3.988q1.233-1.47 3.25-2.634 2.02-1.151 3.792-1.847 2.22-.836 8.988-3.104 6.772-2.258 9.135-3.544v-4.874q.001-.64-.271-2.462a10.3 10.3 0 0 0-1.158-3.449q-.984-1.816-2.783-3.175c-1.197-.9-2.896-1.354-5.096-1.354q-2.267 0-4.211.762c-1.297.514-2.208 1.044-2.732 1.602 0 .66.156 1.625.468 2.905q.469 1.919.468 3.545 0 1.725-1.553 3.15c-1.033.96-2.47 1.428-4.308 1.428-1.641 0-2.848-.578-3.621-1.747-.77-1.16-1.156-2.468-1.156-3.915q0-2.264 1.601-4.335 1.6-2.067 4.163-3.69c1.478-.916 3.267-1.702 5.367-2.34q3.153-.963 6.156-.962 4.135.001 7.215.565a13.3 13.3 0 0 1 5.59 2.44q2.51 1.824 3.816 4.947 1.305 3.13 1.305 8.053-.001 7.043-.147 12.482-.148 5.445-.146 11.896 0 1.921.664 3.056.665 1.136 2.045 1.918.737.446 2.34.492 1.599.052 3.273.053v3.146zm-17.186-26.003c-2.792.823-5.236 1.623-7.338 2.413a29.4 29.4 0 0 0-5.859 2.955q-2.463 1.676-3.893 3.962c-.949 1.526-1.428 3.347-1.428 5.442 0 2.73.714 4.728 2.143 6.01 1.429 1.277 3.24 1.92 5.441 1.92q3.496-.001 6.156-1.7c1.772-1.134 3.268-2.466 4.481-4.015z"/><path d="M156.707 149.047c1.346 1.182 2.381 2.546 3.104 4.084q1.084 2.32 1.083 5.664c0 4.502-1.685 8.177-5.046 11.033-3.366 2.854-7.727 4.285-13.076 4.285q-4.237-.002-7.807-1.529-3.573-1.523-5.098-2.807l-.984 3.202h-3.693l-.492-16.896h3.397c.263 1.28.82 2.778 1.674 4.48a21.5 21.5 0 0 0 3.104 4.628c1.28 1.448 2.814 2.66 4.604 3.646 1.789.982 3.801 1.48 6.033 1.48q4.727 0 7.29-2.146 2.56-2.139 2.562-6.133c0-1.379-.27-2.563-.813-3.566-.542-1-1.339-1.876-2.389-2.637-1.083-.756-2.413-1.433-3.989-2.043a79 79 0 0 0-5.27-1.799c-1.545-.459-3.259-1.088-5.146-1.896q-2.832-1.21-4.852-2.833c-1.444-1.146-2.626-2.563-3.546-4.235q-1.38-2.51-1.38-5.909.001-5.958 4.433-10.097 4.434-4.138 11.87-4.138 2.853 0 5.836.735c1.984.497 3.602 1.085 4.851 1.773l1.133-2.56h3.545l.738 15.608h-3.397q-1.034-5.217-4.458-8.496-3.424-3.272-8.35-3.273c-2.69 0-4.811.676-6.353 2.021q-2.314 2.025-2.314 4.876-.001 2.22.763 3.693c.51.986 1.271 1.82 2.291 2.513q1.475.99 3.718 1.847c1.494.574 3.34 1.228 5.542 1.945a48 48 0 0 1 6.131 2.412q2.879 1.4 4.751 3.068"/><path d="M187.71 170.713a75 75 0 0 1-6.058 2.242c-1.904.61-4.236.91-6.993.91-4.072 0-6.937-1.02-8.594-3.076-1.659-2.05-2.488-4.95-2.488-8.69v-32.896h-8.767v-4.73h8.964v-15.118h8.963v15.118h13.937v4.73h-13.838v27.133q0 3.058.222 5.101c.147 1.362.5 2.558 1.058 3.57q.788 1.429 2.364 2.165 1.576.738 4.234.738 1.23.001 3.621-.226 2.388-.217 3.374-.565z"/><path d="M225.261 161.41q-3.052 5.811-8.175 9.257c-3.414 2.3-7.338 3.444-11.77 3.444q-5.859 0-10.27-2.067c-2.937-1.377-5.358-3.252-7.264-5.613q-2.855-3.543-4.26-8.27c-.937-3.155-1.403-6.48-1.403-9.997a29.5 29.5 0 0 1 1.502-9.285c1.002-3.032 2.471-5.768 4.408-8.198q2.808-3.492 6.968-5.64 4.163-2.143 9.334-2.142c3.545 0 6.582.562 9.109 1.674q3.793 1.677 6.156 4.578 2.266 2.766 3.374 6.504c.737 2.494 1.108 5.205 1.108 8.123v3.251h-32.157q0 4.78.909 8.67.912 3.89 2.882 6.847 1.918 2.857 5.022 4.506c2.067 1.104 4.53 1.646 7.387 1.646q4.382.002 7.559-2.047c2.12-1.354 4.163-3.813 6.132-7.357zm-10.884-18.518q0-2.758-.467-5.909-.469-3.152-1.502-5.27a10.07 10.07 0 0 0-3.104-3.694q-1.97-1.425-5.071-1.427-5.173 0-8.595 4.311-3.42 4.309-3.717 11.988z"/><path d="M257.691 130.53q0 2.51-1.23 4.456c-.82 1.3-2.083 1.944-3.79 1.944q-2.76 0-4.214-1.43-1.451-1.425-1.452-3.149 0-1.084.172-1.97.172-.892.319-1.774-2.315 0-5.417 1.871-3.101 1.874-5.271 5.317v28.268c0 1.154.224 2.088.666 2.811q.664 1.086 2.092 1.625 1.233.495 3.176.734c1.299.17 2.422.281 3.376.348v3.25h-25.61v-3.25c.756-.065 1.536-.127 2.339-.195q1.207-.093 2.094-.397 1.379-.443 2.043-1.549.664-1.108.664-2.879V134.57q0-1.527-.713-3.004a6 6 0 0 0-1.996-2.364c-.622-.396-1.359-.678-2.215-.862q-1.28-.266-2.758-.367v-3.202l16.152-1.084.689.69v6.845h.246q3.057-3.99 6.797-6.057 3.743-2.07 6.845-2.069 3.104.001 5.049 2.021 1.948 2.016 1.947 5.413m52.452 10.244c1.476 1.646 2.565 3.441 3.271 5.395q1.063 2.934 1.063 6.82c0 6.176-2.286 11.266-6.848 15.268-4.563 4.008-10.226 6.006-16.989 6.006-3.12 0-6.236-.479-9.356-1.45-3.119-.966-5.812-2.144-8.077-3.52l-2.117 3.596h-3.938l-.689-23.935h3.988c.821 2.953 1.782 5.625 2.882 8.002 1.102 2.385 2.554 4.604 4.359 6.674a19.7 19.7 0 0 0 5.981 4.63q3.425 1.724 7.951 1.722c2.267 0 4.242-.294 5.936-.886q2.538-.891 4.112-2.513a10.3 10.3 0 0 0 2.34-3.815q.766-2.189.765-5.05c0-2.784-.787-5.392-2.361-7.807q-2.361-3.62-7.045-5.49a358 358 0 0 0-7.338-2.832q-4.135-1.549-7.14-2.933-5.909-2.656-9.186-6.968c-2.184-2.87-3.273-6.626-3.273-11.256q0-3.983 1.624-7.436c1.084-2.296 2.625-4.352 4.629-6.156 1.904-1.704 4.154-3.045 6.747-4.014a23 23 0 0 1 8.125-1.452c3.218 0 6.099.49 8.644 1.48 2.543.981 4.869 2.135 6.967 3.442l2.021-3.349h3.94l.396 23.195h-3.988a88 88 0 0 0-2.438-7.636c-.901-2.427-2.073-4.629-3.521-6.598a16.2 16.2 0 0 0-5.168-4.559c-2.037-1.13-4.533-1.699-7.485-1.699-3.117 0-5.778 1.005-7.979 3.003q-3.3 3.01-3.3 7.338 0 4.533 2.118 7.512 2.118 2.98 6.155 4.898a76 76 0 0 0 7.063 2.976q3.473 1.261 6.723 2.687a50 50 0 0 1 5.688 2.908c1.815 1.094 3.399 2.357 4.748 3.802"/><path d="M307.755 188.692c0-1.64.447-2.979 1.354-4.016q1.349-1.551 3.373-1.55c1.049 0 1.951.191 2.709.591a7.8 7.8 0 0 1 2.02 1.524c.492.49 1.021 1.167 1.576 2.02a56 56 0 0 1 1.328 2.118c1.645-.887 3.604-3.203 5.889-6.942 2.277-3.745 3.936-7.022 4.947-9.853a2605 2605 0 0 0-8.471-20.88 3251 3251 0 0 0-7.928-19.062c-.623-1.506-1.676-2.685-3.152-3.522-1.477-.838-2.955-1.369-4.434-1.602v-3.25h22.164v3.447q-1.48.052-3.547.615-2.068.568-2.068 1.305-.001.296.223.985c.147.461.317.938.519 1.427 1.247 3.251 3.147 7.941 5.712 14.062 2.564 6.128 4.548 11.023 5.958 14.702 1.479-3.515 3.015-7.147 4.604-10.907 1.594-3.76 3.379-8.199 5.346-13.322.23-.62.563-1.48.982-2.583q.641-1.65.643-2.832c0-.852-.744-1.65-2.24-2.39-1.496-.736-2.913-1.19-4.262-1.356v-3.15h18.025v3.056c-.986.167-2.287.731-3.892 1.697q-2.416 1.457-3.597 4.112c-3.908 9.063-7.385 17.32-10.416 24.772q-4.558 11.182-6.918 16.446c-2.07 4.603-3.916 8.185-5.541 10.763-1.625 2.58-3.213 4.604-4.754 6.08q-2.267 2.073-4.109 2.785a10.5 10.5 0 0 1-3.813.714q-3.844 0-6.035-1.819c-1.466-1.21-2.195-2.61-2.195-4.185"/><path d="M382.687 149.047c1.342 1.182 2.379 2.546 3.102 4.084q1.083 2.32 1.082 5.664c0 4.502-1.684 8.177-5.045 11.033-3.369 2.854-7.726 4.285-13.078 4.285-2.82 0-5.428-.512-7.803-1.529q-3.575-1.523-5.1-2.807l-.986 3.202h-3.693l-.491-16.896h3.397c.26 1.28.817 2.778 1.676 4.48a21.4 21.4 0 0 0 3.104 4.628c1.278 1.448 2.812 2.66 4.604 3.646 1.787.982 3.798 1.48 6.031 1.48q4.727 0 7.289-2.146c1.703-1.426 2.561-3.47 2.561-6.133 0-1.379-.271-2.563-.813-3.566-.543-1-1.34-1.876-2.392-2.637-1.08-.756-2.411-1.433-3.985-2.043a79 79 0 0 0-5.272-1.799c-1.546-.459-3.261-1.088-5.146-1.896-1.892-.806-3.504-1.752-4.851-2.833a13.9 13.9 0 0 1-3.548-4.235q-1.381-2.51-1.379-5.909.001-5.958 4.436-10.097c2.956-2.758 6.906-4.138 11.867-4.138 1.902 0 3.852.246 5.834.735 1.984.497 3.605 1.085 4.854 1.773l1.135-2.56h3.543l.738 15.608h-3.397c-.688-3.479-2.177-6.309-4.452-8.496-2.287-2.18-5.064-3.273-8.352-3.273-2.692 0-4.813.676-6.354 2.021q-2.315 2.025-2.313 4.876-.002 2.22.763 3.693c.51.986 1.272 1.82 2.29 2.513q1.48.99 3.722 1.847c1.488.574 3.339 1.228 5.539 1.945a48 48 0 0 1 6.134 2.412q2.873 1.4 4.749 3.068"/><path d="M413.686 170.713a74 74 0 0 1-6.06 2.242c-1.901.61-4.23.91-6.989.91-4.071 0-6.937-1.02-8.595-3.076-1.658-2.05-2.487-4.95-2.487-8.69v-32.896h-8.765v-4.73h8.959v-15.118h8.966v15.118h13.937v4.73h-13.84v27.133q0 3.058.223 5.101c.148 1.363.502 2.558 1.064 3.57.521.952 1.313 1.675 2.357 2.165q1.577.738 4.234.738 1.231.001 3.62-.226 2.39-.217 3.374-.565z"/><path d="M451.238 161.41q-3.05 5.811-8.176 9.257c-3.414 2.3-7.338 3.444-11.771 3.444-3.898 0-7.326-.688-10.266-2.067-2.938-1.377-5.357-3.252-7.268-5.613-1.9-2.362-3.324-5.119-4.26-8.27-.938-3.155-1.401-6.48-1.401-9.997 0-3.15.504-6.246 1.501-9.285 1.001-3.032 2.473-5.768 4.408-8.198q2.805-3.492 6.968-5.64c2.772-1.429 5.886-2.142 9.329-2.142 3.549 0 6.584.562 9.111 1.674q3.793 1.677 6.156 4.578 2.267 2.766 3.375 6.504c.734 2.494 1.104 5.205 1.104 8.123v3.251h-32.154q.001 4.78.91 8.67.905 3.89 2.883 6.847c1.275 1.905 2.957 3.406 5.02 4.506 2.066 1.104 4.527 1.646 7.389 1.646 2.924 0 5.439-.68 7.561-2.047 2.117-1.354 4.162-3.813 6.135-7.357zm-10.885-18.518q.001-2.758-.467-5.909c-.309-2.102-.813-3.857-1.502-5.27-.752-1.508-1.785-2.735-3.102-3.694q-1.973-1.425-5.074-1.427c-3.445 0-6.313 1.436-8.594 4.311-2.279 2.873-3.521 6.868-3.718 11.988z"/><path d="M529.667 172.835h-23.689v-3.254q1.134-.094 2.291-.193 1.154-.096 2.041-.396 1.379-.445 2.045-1.55c.445-.737.666-1.7.666-2.88v-25.068q0-5.12-2.342-7.903c-1.561-1.854-3.502-2.782-5.832-2.782q-2.415-.002-4.531.736a14.2 14.2 0 0 0-3.889 2.068c-.957.726-1.752 1.501-2.395 2.34-.639.837-1.123 1.537-1.453 2.091v28.021q0 1.729.594 2.834c.396.736 1.064 1.307 2.02 1.7a16 16 0 0 0 2.045.664c.605.146 1.402.256 2.387.32v3.25h-23.189v-3.25c.756-.064 1.479-.13 2.188-.196a8.2 8.2 0 0 0 1.941-.398q1.382-.443 2.045-1.55.669-1.106.67-2.882v-25.066q0-5.119-2.346-7.903c-1.557-1.854-3.504-2.783-5.83-2.783-1.609 0-3.123.256-4.533.766a15 15 0 0 0-3.891 2.094 11.8 11.8 0 0 0-2.412 2.437c-.656.908-1.148 1.586-1.48 2.044v27.825q.001 1.677.691 2.807c.459.76 1.146 1.331 2.063 1.727.689.33 1.398.572 2.117.735.729.167 1.527.281 2.414.347v3.252H446.48v-3.252l2.344-.195q1.2-.091 2.092-.396c.918-.295 1.602-.813 2.041-1.552q.664-1.103.664-2.88v-30.188c0-1.048-.232-1.994-.713-2.83q-.715-1.26-1.992-2.146-.937-.594-2.313-.959a15 15 0 0 0-2.857-.47v-3.2L462 123.688l.688.688v6.943h.346c.82-.816 1.822-1.79 3.004-2.906 1.186-1.11 2.283-2.02 3.301-2.707 1.148-.786 2.588-1.44 4.314-1.97 1.721-.522 3.586-.789 5.588-.789q4.724.002 8.125 2.535 3.405 2.54 4.875 6.133l3.129-3.028q1.355-1.303 3.57-2.782c1.25-.854 2.715-1.543 4.408-2.069 1.688-.52 3.566-.788 5.639-.788 4.104 0 7.354 1.352 9.754 4.037q3.59 4.042 3.592 12.415v24.671c0 1.151.195 2.092.596 2.832.395.735 1.064 1.31 2.02 1.698q1.132.444 2.238.667c.74.145 1.566.254 2.488.317v3.252h-.006v-.002z"/></g></svg>