<svg xmlns="http://www.w3.org/2000/svg" version="1.0" viewBox="0 0 923 592.5"><g fill="#fff"><path d="m2.7 591.7-.7-.6v-18.700000000000003h12v18.8l-1.6.6c-2.1.8-8.9.8-9.7-.1M31.7 591.8l-.7-.7v-18.700000000000003h12.1l-.3 9.8-.3 9.7-5 .3-5.1.3zM60.7 591.7l-.7-.6v-18.700000000000003h12v18.8l-1.6.6c-2.1.8-8.9.8-9.7-.1M81.5 591.7c-1.1-.3-2.6-1.2-3.2-2.1L77 588v-15.6h13v2h31.1l-.3 3.8-.3 3.7-15.5.5-15.5.5 1.5.7 1.5.8 15.5.2 15.5.3.3 2.9.4 2.9-1.4.8-1.3.9-19-.1c-10.4-.1-19.9-.3-21-.6M128.7 591.8l-.7-.7v-18.700000000000003h12.1l-.3 9.8-.3 9.7-5 .3-5.1.3zM143.7 591.7c-.4-.3-.7-2.1-.7-4v-3.3h24v-12h12.1l-.3 8.7-.3 8.7-2.5 1.3-2.5 1.3h-29.2zM186.7 591.7l-.7-.6v-28.700000000000003h13v28.8l-1.6.6c-.9.3-3.5.6-5.8.6h-4.3zM209.3 591.7l-1.3-.5v-18.9l6.3.3 6.2.3.3 8.9.3 8.9-1.3.9-1.3.8-4-.1c-2.2 0-4.6-.3-5.2-.6M247.7 591.8c-.4-.4-.7-1.6-.7-2.6v-1.8h-24v-8h24v-7h12.1l-.3 9.8-.3 9.7-5 .3-5.1.3zM288 591.1l-2.5-1.3-.3-8.7-.3-8.7h11.7l1 1 .9.9 15 .3 15 .3v7l-15.8.3-15.8.3.6.9.6 1H331v6.8l-1.6.6-1.6.6h-37.3zM338.4 591.1c-.3-.8-.4-5.2-.2-9.8l.3-8.4 6.3-.3 6.2-.3v18.9l-1.6.6c-.9.3-3.6.6-6 .6h-4.5zM378.3 591.7l-1.3-.5v-18.8h13v18.8l-1.6.6c-1.8.7-8.3.7-10.1-.1M397.7 591.8l-.7-.7v-18.700000000000003h12.1l-.3 9.8-.3 9.7-5 .3-5.1.3zM436 589.9l-.9-2.4-11.8-.3-11.8-.3-.3-3.7-.3-3.7 12.3-.3 12.3-.3.3-3.2.3-3.3H448v18.8l-1.6.6c-.9.3-3.3.6-5.5.6H437ZM455.7 591.8l-.7-.7v-18.700000000000003h12.1l-.3 9.8-.3 9.7-5 .3-5.1.3zM495.3 591.8l-1.3-.6v-3.8h-24l-.6-2.5-.6-2.5.5-1.5.6-1.4 11.8-.3 11.8-.3.3-3.2.3-3.3h12l-.3 9.8-.3 9.7-4.5.2c-2.5.1-5.1 0-5.7-.3M513.7 591.7l-.7-.6v-18.700000000000003h13v18.8l-1.6.6c-.9.3-3.5.6-5.8.6h-4.3zM552.7 591.8l-.7-.7v-18.700000000000003h12.1l-.3 9.8-.3 9.7-5 .3-5.1.3zM575.1 591.1l-2.5-1.2-.8-3.3-.9-3.4.3-5.1.3-5.2 6.2-.3 6.2-.3.3 5.8.3 5.8 19.3.3 19.2.2v6.8l-1.6.6-1.6.6h-42.3zM633 591.1l-2.5-1.3-.3-8.7-.3-8.7h11.7l1 1 .9.9 15 .3 15 .3v7l-15.8.3-15.8.3.6.9.6 1H676v6.8l-1.6.6-1.6.6h-37.3zM684.3 591.7l-1.3-.5v-18.8h13v18.8l-1.6.6c-1.8.7-8.3.7-10.1-.1M713.7 591.7l-.7-.6v-18.700000000000003h12v18.8l-1.6.6c-2.1.8-8.9.8-9.7-.1M745.3 591.8l-1.3-.6v-18.8h12.1l-.3 9.8-.3 9.7-4.5.2c-2.5.1-5.1 0-5.7-.3M767 591.1l-2.5-1.3-.3-8.7-.3-8.7h12l.6 1 .6 1H807v8h-31.1l.6 1 .6 1H810v6.8l-1.6.6-1.6.6h-37.3zM818.3 591.7l-1.3-.5v-18.8h13v18.8l-1.6.6c-1.8.7-8.3.7-10.1-.1M857.3 591.8l-1.3-.6v-18.8h12.1l-.3 9.8-.3 9.7-4.5.2c-2.5.1-5.1 0-5.7-.3M893.7 591.8l-.7-.7v-18.700000000000003h12.1l-.3 9.8-.3 9.7-5 .3-5.1.3zM2 565.9v-3.5h67.9l1.1 1.9c.5 1.1 1 2.7 1 3.5v1.6H2zM77 565.9v-3.5h47v7H77ZM128 565.9v-3.5h48.6l1.2 1.2 1.2 1.2v4.6h-51ZM208 568.1c0-.7.7-2.3 1.6-3.5l1.5-2.2h45.5l1.2 1.2 1.2 1.2v4.6h-51ZM285 565.9v-3.5h46v7h-46zM338.4 568c-.3-.8-.4-2.3-.2-3.3l.3-1.8 24.1-.3 24.1-.2 1 1.2c.6.7 1.4 2.3 1.7 3.6l.7 2.2h-51.2zM397 565.9v-3.5h12v7h-12zM436 565.9v-3.5h12v7h-12zM455 567.8c0-.8.5-2.4 1-3.5l1.1-1.9h46.8l1.1 1.9c.5 1.1 1 2.7 1 3.5v1.6h-51ZM513 565.9v-3.5h48.6l1.2 1.2 1.2 1.2v4.6h-51ZM572 567.1v-2.3l1.2-1.2 1.2-1.2H623v7h-51ZM630 565.9v-3.5h46v7h-46zM683 565.9v-3.5h70.6l1.2 1.2 1.2 1.2v4.6h-73ZM764 565.9v-3.5h46v7h-46zM817 565.9v-3.5h48.6l1.2 1.2 1.2 1.2v4.6h-51ZM876 565.9v-3.5h46v7h-46zM1 416.4v-51h61l-.2 50.8-.3 50.7-30.2.3-30.3.2zM147.5 466.2c-.3-.7-.4-23.6-.3-50.8l.3-49.5h61v101l-30.3.3-30.3.2zM294.7 466.7l-.7-.6V365.4h61l-.2 50.8-.3 50.7-29.6.3-29.5.2zM380.5 466.1c-.3-.7-.4-9.4-.3-19.2l.3-18 95.6-.5 95.6-.5 1.6-1.4 1.7-1.3v-5.9l-3.5-1.5-3.4-1.4H400.7l-4.1-1.2-4.1-1.3-3.6-3.6-3.7-3.7-2.2-5.8-2.3-5.9-.5-14.7-.4-14.8h60.8l1.2 4.5 1.2 4.4 2.7 1.8 2.7 1.8 82.1.5 82 .5 5.5 2.6 5.5 2.6 3.3 3.3 3.3 3.2 2.4 4.8 2.5 4.9 1.1 7.3 1.2 7.3-.6 14-.6 14-1.5 5-1.5 5-3 4.7-3 4.7-4.3 2.3-4.3 2.3-118.8.3-118.7.2ZM679.9 466.5l-3.6-.7-3.6-2.3-3.7-2.3-2.5-4.1-2.4-4.2-1.5-6-1.6-5.9v-75.6l30.3.2 30.2.3.5 28 .5 28 1.3 2.2c.7 1.3 2.1 2.7 3.2 3.3l1.9 1h119.2l2.8-1.5 2.9-1.4 1.1-3.2 1.1-3.2v-53.7h61.1l-.3 40.3-.3 40.2-2.3 5.5-2.2 5.6-3.7 3.6c-2.1 1.9-4.9 4.2-6.3 4.9l-2.5 1.4-108 .1-108 .2zM1 334.4v-19h336.1l3.2 1.3 3.2 1.4 3.7 4.1 3.7 4.1 1.6 5.3 1.7 5.3.5 8.3.6 8.2H1ZM380.3 345.2l.5-8.3 1.7-5.2 1.8-5.2 2.9-3.6 3-3.6 3.9-1.9 3.8-2H624v38H379.7ZM661 334.4v-19h61l-.2 18.8-.3 18.7-30.2.3-30.3.2zM856 334.4v-19h61v38h-61ZM0 256.3c0-.6 5.9-11.1 13.1-23.2 7.3-12.2 18-30.3 23.9-40.2l10.6-18 3.5-1.7 3.4-1.8H85v11.7l.6.6.7.6 2.7-4.2c1.5-2.3 3.7-5.1 5-6.2l2.2-2 20.9-.3 20.9-.3v86.1h-24v-66.2l-1.1.4-1.2.4-19.2 32.4-19.3 32.5-14.6.3-14.6.3v-.9c0-.4 8.1-14.5 18-31.2s18-30.7 18-31.2v-.8H67.3l-1.5 1.8c-.8.9-9.5 15.3-19.4 32l-17.8 30.2H0ZM154 225.9v-31.6l6.2-10.5 6.2-10.5 1.8-1 1.7-.9 31.8.2 31.8.3.3 9.3.3 9.2h-46.8l-2 2.3c-2.6 3-6.3 9.5-6.3 11.2v1.5l27.4.2 27.5.3-5 8.8-5.1 8.7H179v15l27.3.2 27.2.3.3 9.3.3 9.2H154ZM245.1 254.8l-3.1-2.6v-53.4l7.5-12.7 7.5-12.6 2-1.1 1.9-1 32.8.2 32.8.3v18l-24.7.5-24.7.5-.9 1c-.5.6-3 4.6-5.6 9l-4.6 8v29.5h41v-14h-18v-1.1c0-.6 2.3-4.9 5.1-9.5l5-8.4H331v23.3l-.1 23.2-1.2 1.6c-.7.9-2.2 2.1-3.4 2.7l-2.2 1.2h-75.9zM344 214.4v-43h46.7l3.4 2.3 3.4 2.3 12.1 20.4c6.6 11.3 17.2 29 23.4 39.4 6.1 10.5 11.4 19.6 11.7 20.3l.5 1.4-14.8-.3-14.8-.3-4.4-7.2-4.3-7.3h-27.8l-4.7-8c-2.6-4.4-5.1-8-5.6-8h-.8v31h-24zm51 8.4c0-1.3-16.9-29-18.7-30.6l-2-1.8H368v31.700000000000003l.7.6.6.7H395zM484 214.4v-43h68.69999999999999l4.2 2.3 4.3 2.2 5.2 8.5c2.8 4.7 7.5 12.6 10.4 17.5l5.2 9.1v7.5l-10 16.9-10.1 16.9-3.2 2.3-3.2 2.3-35.7.3-35.8.3zm62.8 13.3 6.2-10.8v-5l-6.3-10.5-6.3-10.5-16.2-.3-16.2-.2v48h32.5zM585 214.4v-43.1l35.8.3 35.9.3 3.5 2.7 3.6 2.7 4.6 7.9 4.6 7.9v7.2l-7.4 12.5-7.4 12.5 8.9 15.1c4.9 8.3 8.9 15.5 8.9 16v1h-28.700000000000003l-12.6-21.2-12.6-21.3 6.5-.5 6.5-.5 5.1-8.7 5-8.7-1.8-3-1.8-3.1H609v67h-24zM692 214.4v-43h24v86h-24zM739.7 232.5 725 207.7l.2-17.9.3-17.9h24l.5 14.2.5 14.1 11.5 19.6c6.3 10.7 11.8 19.6 12.1 19.6s5.7-8.7 12-19.2l11.4-19.3.5-14.5.5-14.5h24l.3 18.1.2 18.1-12.6 21.4c-7 11.8-13.6 22.9-14.7 24.7l-1.9 3.2h-39.4zM837 225.8v-31.6l6.5-10.8 6.5-10.8 1.6-.6 1.6-.6H917v19l-23.7.2-23.8.3-3.7 5.5-3.7 5.5-.1 1.7v1.8l27.5.2 27.5.3-5.1 8.8-5.1 8.7H862v15l27.3.2 27.2.3.3 9.3.3 9.2H837ZM274.2 110.2l.3-8.3 29-.5 29-.5 3.1-1.7c1.7-.9 4.5-3.3 6.1-5.2l3.1-3.4 1.2-3.7 1.2-3.7-.4-4.8-.5-4.8-2.7-4.6-2.7-4.5-4.7-2.8-4.6-2.8-12.6-.5-12.5-.5-3-1.7c-3.6-1.9-5.7-4.2-7.9-8.5l-1.6-3.2v-8.2l1.4-3.2 1.3-3.2 3.6-3.2 3.7-3.2 3.9-1.1 3.9-1 25.9.2 25.8.3.3 8.2.3 8.3-26.3.2-26.3.3v3l12.5.5 12.5.6 5.7 2.8 5.7 2.7 4.6 4.5 4.6 4.5 3.2 6.7 3.2 6.7v19l-3.2 6.6-3.3 6.6-5 4.7-5.1 4.7-5.7 2.7-5.7 2.7-30.8.3-30.8.3zM393.2 116.5l-5.3-1.8-3.7-3-3.7-2.9-3.2-4.8-3.3-4.8-1-3.9-1.1-3.9.3-33.2.3-33.3L375 20l2.5-4.8 5.2-4.8 5.2-4.8 4.7-1.6 4.8-1.6h62.7l-.3 7.8-.3 7.7-30.5.5-30.5.5-2.8 1.9c-1.5 1-3.8 3.3-5 5l-2.2 3.1-.3 29.8-.3 29.8 2.1 4.4 2.1 4.3 2.7 1.9 2.7 1.8 31 .5 31 .5v16l-30.5.2-30.5.2zM488.3 117c-2.3-.8-5.7-2.3-7.7-3.5l-3.5-2.2-4.1-4.6-4-4.6-2.1-6.8-2-6.7.3-30.8.3-30.9 2.6-5.6 2.7-5.7 3.9-3.9 4-4 4.9-2.4 4.9-2.4 31.8-.3 31.7-.3v16.1h-56.6l-4.4 2.3-4.5 2.2-2.2 4.5-2.3 4.4v56.7l1.4 3.2 1.4 3.2 3.1 3 3.2 3 22 .3 21.9.3v-43l-14.7-.3-14.8-.3v-15l22.8-.3 22.7-.2v61.4l.9-.9c.4-.6 5.1-13.8 10.4-29.5 5.4-15.7 12.1-35.6 15.1-44.3l5.3-15.8 3-3.7 3-3.7 5.2-2.9 5.3-2.9h6.4l6.3-.1 5.8 3 5.7 2.9 3.1 4.1 3.1 4.1L646.8 65c9.5 28 17.2 51.5 17.2 52.2v1.2l-32.2-.2-32.3-.3v-16l21.2-.3 21.2-.2L628 60.1l-13.9-41.2-2.2-1.7-2.1-1.8h-6.4l-2.1 1.5-2.1 1.5-2.6 6.7c-1.4 3.8-9 25.8-17 49-8 23.3-14.8 42.7-15.1 43.3l-.6 1-35.7-.1h-35.7z"/><path d="M569 117.1c0-.8 3.9-12.6 8.6-26.3s11-31.9 13.9-40.4 6.3-18.4 7.5-22l2.2-6.5 2-1.8c2.4-2 3.8-2.1 6.1-.4l1.7 1.2 13 38.4c7.1 21.1 13 38.5 13 38.7s-8.5.4-19 .4h-19v-5.7l-.1-5.8-1.3 2.5c-.7 1.4-3.3 8.5-5.7 15.8l-4.3 13.2H569zm41.3-37.3.5-.6-1.9-5.6c-1.1-3.2-2.2-6.4-2.5-7.2l-.6-1.5-2.4 6.9c-1.3 3.9-2.4 7.4-2.4 7.8v.8h4.3c2.4 0 4.6-.3 5-.6M398.3 97.3l-4.1-2-1.6-3.4-1.6-3.3V62.4h57v16h-38.9l-.5.9-.6.9 1.3 1.1 1.4 1.1 24.4.2 24.4.3.3 7.4.3 7.4-1.3.8-1.3.9h-55ZM274 90.4v-8l26.2-.2 26.3-.3.3-1.7.3-1.8h-19.6l-5.3-1.4-5.2-1.4-4.4-2.6-4.4-2.5-4.5-5.1-4.6-5.1-2.2-5.7-2.3-5.7v-9l-.1-9 3.1-6.5 3.1-6.5 4.6-4.7 4.7-4.7 5.8-2.8 5.7-2.8 31.3-.3 31.2-.3v16l-28.7.3-28.8.3-4.7 2.8-4.7 2.8-2.7 4.5-2.7 4.6-.5 4.8-.4 4.8 1.2 3.7 1.2 3.7 3.1 3.4 3 3.5 4.1 2.1 4.1 2.1 11.5.4 11.5.4 2.7 1.1 2.8 1 3.4 3.9 3.5 3.8.7 3.6.6 3.6-.5 4.1-.5 4-2.9 3.6-2.9 3.5-3.4 1.8-3.5 1.9H274ZM490.5 96.2l-2.7-2.1-1.4-3.3-1.4-3.3V32.2l1.7-3.5 1.7-3.6 4.2-1.9 4.3-1.8 27.3.2 27.3.3v16l-23.4.3-23.4.2-1.4 1.1-1.3 1.1v37.6l.6 1.6.6 1.6H515v-2.9l-4.7-.3-4.8-.3-.3-7.7-.3-7.7 2.3-.6 2.3-.6 10.5.3 10.5.3.3 18.3.2 18.2h-37.7zM391.7 57.7l-.7-.6V31.7l2.3-3.4 2.2-3.4 3.5-1.7 3.5-1.8H459v17h-48.6l-1.2 1.2c-.7.7-1.2 1.6-1.2 2v.8h40v16h-55.7z"/></g><path fill="red" d="M2.4 530.1c-.2-.7-.3-6.7-.2-13.3l.3-11.9 460.2-.3 460.3-.2v27H2.9Z"/></svg>