<svg xmlns="http://www.w3.org/2000/svg" viewBox="0 0 3840 1508"><defs><linearGradient id="b" x1="576.657" x2="576.657" y1="666.064" y2="1466.53" gradientTransform="matrix(7.5 0 0 -7.5 .232 11310)" gradientUnits="userSpaceOnUse" spreadMethod="pad"><stop offset="0" style="stop-opacity:1;stop-color:#23bfd4"/><stop offset=".703" style="stop-opacity:1;stop-color:#3f4da0"/><stop offset="1" style="stop-opacity:1;stop-color:#3f4da0"/></linearGradient><linearGradient id="d" x1="1368.95" x2="1368.95" y1="666.064" y2="1466.53" gradientTransform="matrix(7.5 0 0 -7.5 .232 11310)" gradientUnits="userSpaceOnUse" spreadMethod="pad"><stop offset="0" style="stop-opacity:1;stop-color:#23bfd4"/><stop offset=".703" style="stop-opacity:1;stop-color:#3f4da0"/><stop offset="1" style="stop-opacity:1;stop-color:#3f4da0"/></linearGradient><linearGradient id="f" x1="1973.99" x2="1973.99" y1="666.064" y2="1466.53" gradientTransform="matrix(7.5 0 0 -7.5 .232 11310)" gradientUnits="userSpaceOnUse" spreadMethod="pad"><stop offset="0" style="stop-opacity:1;stop-color:#23bfd4"/><stop offset=".703" style="stop-opacity:1;stop-color:#3f4da0"/><stop offset="1" style="stop-opacity:1;stop-color:#3f4da0"/></linearGradient><linearGradient id="h" x1="2563.92" x2="2563.92" y1="666.064" y2="1466.53" gradientTransform="matrix(7.5 0 0 -7.5 .232 11310)" gradientUnits="userSpaceOnUse" spreadMethod="pad"><stop offset="0" style="stop-opacity:1;stop-color:#23bfd4"/><stop offset=".703" style="stop-opacity:1;stop-color:#3f4da0"/><stop offset="1" style="stop-opacity:1;stop-color:#3f4da0"/></linearGradient><linearGradient id="j" x1="3155.5" x2="3155.5" y1="666.064" y2="1466.53" gradientTransform="matrix(7.5 0 0 -7.5 .232 11310)" gradientUnits="userSpaceOnUse" spreadMethod="pad"><stop offset="0" style="stop-opacity:1;stop-color:#23bfd4"/><stop offset=".703" style="stop-opacity:1;stop-color:#3f4da0"/><stop offset="1" style="stop-opacity:1;stop-color:#3f4da0"/></linearGradient><linearGradient id="l" x1="3618.09" x2="3618.09" y1="1466.53" y2="666.054" gradientTransform="matrix(7.5 0 0 -7.5 .232 11310)" gradientUnits="userSpaceOnUse" spreadMethod="pad"><stop offset="0" style="stop-opacity:1;stop-color:#1c639e"/><stop offset="1" style="stop-opacity:1;stop-color:#26b3cf"/></linearGradient><clipPath id="a" clipPathUnits="userSpaceOnUse"><path d="m4325.47 2997.73-875.24 2343.75c-16.48 40.51-51.01 77.27-104.25 110.28-53.25 32.22-112.5 48.75-177.74 48.75-56.99 0-116.25-16.53-177.77-48.75-61.49-33.01-98.24-69.77-110.24-110.28L1117.73 311.25h-813L2195.47 5647.5c32.26 85.51 75.78 168.01 128.28 247.5 53.24 79.49 119.22 150.74 198.75 214.49 79.49 63.01 172.5 113.24 278.24 150s228.75 54.77 367.5 54.77 258.75-18.01 360.74-54.77c102-36.76 192-86.99 269.26-150 77.23-63.01 143.99-135 198.75-214.49 54.73-79.49 102.74-161.99 143.99-247.5l183.75-367.5 183.75 367.5c45 85.51 94.49 168.01 150 247.5 54.76 79.49 120 150.74 195.74 214.49 75.78 63.01 164.26 113.24 266.25 150 102.03 36.76 222.03 54.77 360.78 54.77 135 0 255.74-18.01 363.75-54.77 107.97-36.76 201.72-86.99 281.25-150 79.49-63.01 146.99-135 201.72-214.49 54.76-79.49 96.76-161.99 125.27-247.5L8343.98 311.25h-813.75l-1762.5 5030.23c-11.99 40.51-48.75 77.27-110.23 110.28-61.52 32.22-120.78 48.75-177.77 48.75-65.24 0-124.5-16.53-177.74-48.75-53.24-33.01-87.77-69.77-104.26-110.28zm0-2686.48L3168.98 3395.23 2152.73 311.25h-813.75l1676.25 4877.27c8.25 24.72 28.52 45.74 61.49 64.49 32.26 18.01 63.01 27.73 91.52 27.73 28.48 0 58.48-8.98 88.48-27.73 30.78-18.01 50.27-39.77 58.51-64.49l1009.5-2784.77 1009.49 2784.77c8.28 24.72 27.77 45.74 58.51 64.49 30.75 18.01 60 27.73 88.52 27.73 28.48 0 59.22-8.98 91.48-27.73 32.27-18.01 53.25-39.77 61.49-64.49L7311.25 311.25h-783.01L5481.99 3395.23Z"/></clipPath><clipPath id="c" clipPathUnits="userSpaceOnUse"><path d="M9117.23 414.77c-212.23 68.98-388.48 178.472-529.5 327.73-141.01 149.262-244.49 340.51-311.99 575.23q-101.25 352.155-101.25 841.53v2306.99c0 338.24 33.75 625.51 101.25 859.49 67.5 234.77 170.98 425.28 311.99 572.27 141.02 146.99 317.27 252.73 529.5 318.01 212.26 65.23 465 98.24 759.02 98.24h782.95c297.8 0 553.5-33.01 768-98.24 214.5-65.28 390.8-171.02 529.5-318.01 138.8-146.99 240.8-337.5 306-572.27 65.3-234.72 98.3-521.25 98.3-859.49V2159.26c0-326.25-33-606.76-98.3-841.53-65.2-234.72-167.2-426.71-306-575.23-138.7-149.258-315-258.008-529.5-327.73-214.5-69.77-470.2-104.258-768-104.258h-782.95c-294.02.738-547.5 35.23-759.02 104.258M10744.7 1125c155.3 0 285.8 21.76 391.6 64.49 105.7 42.78 192.7 102.78 260.2 180.74 67.5 77.27 116.2 169.54 147 275.28 30.7 105.74 45.7 220.51 45.7 342.73v2649.77c0 122.22-15 236.25-45.7 342.73-30.8 105.74-79.5 198.01-147 275.28-67.5 77.22-155.2 137.96-263.3 180.74-108 42.73-240 64.49-394.4 64.49h-942.82c-155.24 0-286.49-21.76-394.5-64.49-108-42.78-195.74-102.78-263.24-180.74-67.5-77.27-116.25-169.54-146.99-275.28-30.78-106.48-45.78-220.51-45.78-342.73V1987.5c0-122.27 15-236.99 45.78-342.73 30.74-106.53 79.49-198.01 146.99-275.28 67.5-77.22 153.75-138.01 260.24-180.74 105.74-42.73 236.25-64.49 391.52-64.49h954.7zm-875.21 220.51c-142.5 0-260.27 13.47-351.76 39.72-91.48 26.25-163.51 70.51-214.49 131.25-51.01 61.53-86.99 139.54-107.26 235.51-20.24 96.02-30.75 215.28-30.75 357.78V4515c0 105.74 10.51 206.25 30.75 300 20.27 93.75 56.99 175.51 110.27 244.49 53.24 69.03 125.23 123.01 217.5 161.99 91.48 39.03 209.22 58.52 351.72 58.52h783.03c142.5 0 260.3-19.49 351.7-58.52 91.5-38.98 164.3-92.96 217.5-161.99 53.3-69.72 90-150.74 110.3-244.49 20.2-93.75 30.8-193.52 30.8-300V2109.77c0-142.5-10.6-262.5-30.8-357.78-20.3-95.97-56.3-174.72-107.3-235.51-51-61.48-122.2-105-214.4-131.25-91.6-26.25-209.3-39.72-351.8-39.72zm594.01 813.75c48.7 0 80.3 14.26 94.5 42.73 14.2 28.52 21.7 67.5 21.7 116.25v1989.03c0 48.75-7.5 87.73-21.7 116.25-14.2 28.47-45.8 42.73-94.5 42.73H10072c-48.8 0-80.28-14.26-94.5-42.73-14.26-28.52-21.76-67.5-21.76-116.25V2318.24c0-48.75 6.76-87.73 21.76-116.25 14.22-28.47 45.7-42.73 94.5-42.73z"/></clipPath><clipPath id="e" clipPathUnits="userSpaceOnUse"><path d="M15610 1189.49c105.7 42.78 192.7 102.78 260.2 180.74 67.5 77.27 116.3 169.54 147 275.28 30.8 105.74 45.8 220.51 45.8 342.73v2649.77c0 122.22-15 236.25-45.8 342.73-30.7 105.74-79.5 198.01-147 275.28-67.5 77.22-155.2 137.96-263.2 180.74-108 42.73-240 64.49-394.5 64.49h-2436v813.01h2355.7c297.8 0 553.5-33.01 768-98.24 214.5-65.28 390.8-171.02 529.5-318.01 138.8-146.99 240.8-337.5 306-572.27 65.3-234.72 98.3-521.25 98.3-859.49V2159.26c0-326.25-33-606.76-98.3-841.53-65.2-234.72-167.2-426.71-306-575.23-138.7-149.258-315-258.008-529.5-327.73-214.5-69.77-470.2-104.258-768-104.258h-2355.7V4270.51h771V1125h1671c154.5 0 285 21.76 391.5 64.49m-2833.5 3276.76V5280h2355.7c142.5 0 260.3-19.49 351.8-58.52 91.5-38.98 164.2-92.96 217.5-161.99 53.2-69.72 90-150.74 110.2-244.49 20.3-93.75 30.8-193.52 30.8-300V2109.77c0-142.5-10.5-262.5-30.8-357.78-20.2-95.97-56.2-174.72-107.2-235.51-51-61.48-122.3-105-214.5-131.25-91.5-26.25-209.3-39.72-351.8-39.72h-1371v2925h856.6V2318.24c0-106.48 50.9-158.98 152.9-158.98h135c48.8 0 88.5 14.26 119.3 42.73 30.7 28.52 45.7 67.5 45.7 116.25v1989.03c0 48.75-15 87.73-45.7 116.25-30.8 28.47-70.5 42.73-119.3 42.73z"/></clipPath><clipPath id="g" clipPathUnits="userSpaceOnUse"><path d="M17219.5 4466.25c0 257.27 46.5 498.75 141 725.23 93.7 226.53 219 422.27 376.5 587.27 156.8 165 338.2 295.51 544.5 391.48 206.2 96.02 419.2 144.03 639.8 144.03h2318.9v-813.75h-2221.4c-155.3 0-294.1-30.74-416.3-91.53-122.3-61.48-225.8-140.97-309-238.47-84-98.24-147.8-209.26-192.8-333.75s-67.5-247.5-67.5-370.51V2159.26c0-122.27 22.5-246.02 67.5-370.51s109.5-235.51 192.8-333.75c83.2-98.24 186.7-177.73 309-238.52 122.2-61.48 261-91.48 416.3-91.48h2221.4V311.25h-2319.7c-220.5 0-433.5 48.012-639.8 143.98-206.2 96.02-387.7 226.532-544.4 391.532-156.8 164.998-282.8 360.738-376.6 587.218-93.7 226.53-140.9 468.01-140.9 725.28v2306.99zm1034.3-1052.27v930c0 105.79 17.2 215.28 51.7 327.78s87 213.01 156 303.01 156.7 163.47 263.2 220.46c105.8 57.04 230.3 85.51 373.5 85.51h2142v-813.75H19117c-24.8 0-50.3-14.26-76.5-42.73-26.3-28.52-39.8-67.5-39.8-116.25v-85.51h1774.5v-807.73h-2521.4zm0-202.5h2521.4v-813.75h-1774.5v-79.49c0-48.75 13.5-87.73 39.8-116.25 26.2-28.47 51.7-42.73 76.5-42.73h2123.2v-813.75h-2142c-142.5 0-266.9 28.47-373.5 85.51-106.5 56.99-193.4 130.46-263.2 220.46s-121.5 190.51-156 303.01-51.7 221.25-51.7 327.78z"/></clipPath><clipPath id="i" clipPathUnits="userSpaceOnUse"><path d="M25676.5 311.25h-2319.8c-220.4 0-433.5 48.012-639.7 143.98q-309.45 144.031-544.5 391.532c-156.8 164.998-282.8 360.738-376.5 587.218-93.8 226.53-141 468.01-141 725.28v4155h815.2v-4155c0-122.27 22.5-246.02 67.5-370.51s109.5-235.51 192.8-333.75 186.7-177.73 309-238.52c122.2-61.48 261-91.48 416.2-91.48h2221.5V311.25Zm-2031.8 1848.01h2031.8v-813.75h-2141.3c-142.5 0-267 28.47-373.5 85.51-106.5 56.99-193.5 130.46-263.2 220.46s-121.5 190.51-156 303.01-51.8 221.25-51.8 327.78v4031.99h838.5V2318.24c0-48.75 13.5-86.99 39.8-113.24 26.2-26.25 51.7-39.77 76.5-39.77v-5.97z"/></clipPath><clipPath id="k" clipPathUnits="userSpaceOnUse"><path d="M28488.2 311.25h-813.7v4155c0 122.27-22.5 246.02-67.5 370.51s-108.8 235.51-192.8 333.75c-83.2 98.24-186.7 177.73-309 238.47-122.2 61.53-261 91.53-416.2 91.53h-906v813.75h1004.2c220.5 0 433.5-48.01 639.8-144.03 206.2-95.97 387.7-226.48 544.5-391.48 156.7-165 282.7-360.74 376.5-587.27 93.7-226.48 141-467.96 141-725.23v-4155zm-1780.5 2006.99v1989.03c0 48.75-13.5 87.73-39.7 116.25-26.3 28.47-51.7 42.73-76.5 42.73H25783V5280h826.5c142.5 0 267-28.52 373.5-85.51s193.5-130.51 263.3-220.51c69.7-90 121.4-190.46 155.9-302.96s51.8-221.25 51.8-327.78V2538.75m0 368.98V311.25h-746.3v2086.48"/></clipPath></defs><path d="M15475.4 8701.39c-99.9 316.94-399.1 543.78-743.6 543.78-344.6 0-643.8-226.84-743.1-543.78l-263-779.25v1277.65h-1377.6c-244.6 0-471.4-99.91-643.7-263.02v263.02h-1413.8c-263 0-498.39-108.49-670.66-289.96v289.96H8278.55c-570.8 0-1042.22-471.46-1042.22-1042.22 0-272.22 108.49-525.39 280.77-706.86h-280.77V6236.18h1341.39c380.71 0 706.88 199.25 897.54 507.64 153.88-299.19 462.27-507.64 824.54-507.64h1423v262.41c163.1-163.07 389.9-263.01 643.7-263.01H16300Z" style="fill:#fff;fill-opacity:1;fill-rule:nonzero;stroke:none" transform="matrix(.16311 0 0 -.16311 0 1508)"/><path d="M10493.5 8848.52h-1386v-432.78h1386c266.2 0 488.2 221.99 488.2 488.24s-222 488.29-488.2 488.29h-354.7c-321.81 0-588.06 266.25-588.06 587.96 0 321.77 266.25 587.97 588.06 587.97h1374.7v431.3h-1386c-565.51 0-1020-454.5-1020-1020.01s454.49-1020 1020-1020h354.7c33 0 55.5-22.5 55.5-55.51 0-33.75-21.7-55.46-44.2-55.46" style="fill:#034693;fill-opacity:1;fill-rule:nonzero;stroke:none" transform="matrix(.13333 0 0 -.13333 0 1508)"/><path d="M10127.5 10023.8h1386v443.2h-1386c-266.25 0-488.28-222-488.28-488.25s222.03-488.24 488.28-488.24h354.7c321.8 0 588-266.25 588-588.01s-266.2-588.01-588-588.01H9107.5v-432.73h1386c565.5 0 1020 454.49 1020 1020s-454.5 1020-1020 1020h-354.7c-33.1 0-55.6 22.5-55.6 55.51 0 24.03 21.8 46.53 44.3 46.53" style="fill:#034693;fill-opacity:1;fill-rule:nonzero;stroke:none" transform="matrix(.13333 0 0 -.13333 0 1508)"/><path d="M14880 10310.4c-185.4 0-328-141.8-328-327.99V8617.17c0-185.43 141.9-328.03 328-328.03h885.1v961.87h-677.5v-426.26h251.2v-98.27h-251.2c-54.6 0-98.2 43.6-98.2 98.27v961.88c0 54.68 43.6 98.28 98.2 98.28H16300v426.29h-1420z" style="fill:#034693;fill-opacity:1;fill-rule:nonzero;stroke:none" transform="matrix(.13536 0 0 -.13536 0 1508)"/><path d="M15427.4 7280.17h872.6l-595 1764.73c-19.4 48.02-57.7 86.31-114.8 86.31-48 0-96-38.29-114.8-76.57l-767.6-2235.12h441.2l268.6 796.1v-335.45zm153.7 805.83 124.6-383.47h-258.9z" style="fill:#034693;fill-opacity:1;fill-rule:nonzero;stroke:none" transform="matrix(.15413 0 0 -.15413 0 1508)"/><path d="M15553.4 8776.28c-73.6 239.71-295.2 424.46-563 424.46s-489.4-175.39-553.6-415.09l-673.6-1974.99v1448.77h-1014.9v-360.15h664.1v-978.11h-830.8c-202.9 0-360.1 166.03-360.1 360.15v1153.54c0 202.87 166 360.15 360.1 360.15H13772v359.53h-1199.8c-396.9 0-719.6-322.69-719.6-719.68V7281.32c0-396.98 322.7-719.72 719.6-719.72h1485.6l747.9 2168.49c27.4 83.03 101.7 138.59 193.5 138.59 92.3 0 166-55.56 193.5-138.59l609.2-1808.92h-960.1v-360.19H16300Z" style="fill:#034693;fill-opacity:1;fill-rule:nonzero;stroke:none" transform="matrix(.1602 0 0 -.1602 0 1508)"/><path d="M12589 8316.02c-243.8 0-432.7 199.49-432.7 432.73v1386.05c0 243.7 199.4 432.7 432.7 432.7h1485.7v432H12589c-477 0-864.8-387.7-864.8-864.7V8748.75c0-476.99 387.8-864.77 864.8-864.77h1485.7v432.78H12589Z" style="fill:#034693;fill-opacity:1;fill-rule:nonzero;stroke:none" transform="matrix(.13333 0 0 -.13333 0 1508)"/><path d="M12688.8 8948.24h1075.4v432.78H12256V8737.5c0-188.24 144-333.01 333-333.01h1485.7v432.78h-1286.2c-55.5 11.25-99.7 55.46-99.7 110.97M13764.2 9923.98h-1075.4c0 55.51 44.2 99.82 99.7 99.82h1275v443.2H12589c-188.3 0-333-144-333-333v-642.75h1508.2z" style="fill:#034693;fill-opacity:1;fill-rule:nonzero;stroke:none" transform="matrix(.13333 0 0 -.13333 0 1508)"/><path d="M16108 1545.16h-1156.5v2416.06c0 105.4-85.6 191.02-191 191.02h-2891.3c-165.6 0-327.5-36.22-481.8-108.22-150.6-70.11-285.1-166.56-399.4-287.01-114.4-120.44-206.6-263.94-274.4-426.74-3.7-8.48-6.6-17.42-9.8-25.87-6.6 30.58-13.7 60.2-21.2 88.43-49.4 176.44-128.9 324.19-237.2 439-109.6 116.21-249.3 200.43-414.9 251.26-152.02 46.09-332.69 69.62-537.37 69.62H8015.27c-105.4 0-191.02-85.62-191.02-191.02v-419.22c-47.06 111.5-108.69 208.91-184.92 289.36-109.62 116.21-249.37 200.43-414.98 251.26-151.98 46.09-332.67 69.62-537.34 69.62h-491.19c-202.32 0-381.6-23.53-532.17-69.62-163.72-50.36-302.98-134.59-413.55-249.87-109.64-114.31-191.05-262.06-241.39-438.5-47.05-163.75-70.57-362.75-70.57-591.91v-1193.2l-708.12 1995.42c-23.53 70.11-57.88 137.87-102.09 201.85-45.19 64.95-100.23 123.76-164.68 175.05-66.82 53.15-145.39 95.5-233.85 125.15-87.52 29.62-184.9 44.7-289.83 44.7-108.69 0-206.56-15.54-291.25-45.66-84.69-30.58-160.44-73.39-224.89-127.5-60.24-50.33-112.92-108.22-157.16-172.2-17.42-25.42-34.35-51.3-50.82-78.1-15.51 26.34-32.47 52.68-49.87 78.1-44.23 63.98-98.34 122.33-160.9 173.62-65.41 53.15-140.69 95.5-224.92 125.62-84.69 30.58-182.56 45.65-291.24 45.65-107.76 0-206.57-15.07-292.66-45.19-86.57-30.09-164.21-71.97-231.01-125.15-65.41-52.22-120.93-111.96-164.68-177.83-40.94-61.66-74.82-126.58-100.23-193.41-1.42-.46-1188.961-3350.95-1188.961-3350.95C-9.732 200.432-.785 135.519 34.966 84.692 70.721 33.864 129.07 3.776 190.701 3.776H1350.51c82.33 0 155.26 52.685 181.14 131.248l467.69 1420.006 535.43-1427.527c27.77-74.323 99.3-123.727 178.79-123.727 79.53 0 150.57 49.404 178.8 123.727l537.8 1435.057 484.62-1428.928c26.35-77.634 98.81-129.39 180.68-129.39h1140.03c62.12 0 119.98 30.117 155.76 80.915 21.64 30.583 33.4 66.83 34.8 103.512 71.06-45.164 149.16-81.876 233.85-109.611 151.5-49.404 331.71-74.816 535.43-74.816h491.22c206.09 0 388.17 24.917 540.61 74.32 165.15 53.181 303.95 139.762 413.12 256.923 75.75 80.915 136.91 178.299 183.97 290.292V195.261c0-105.399 85.62-191.02 191.02-191.02h1477.86c206.09 0 388.17 24.918 540.57 74.322 165.2 53.18 304 139.761 413.2 256.922 107.7 115.74 187.2 263.485 236.2 439.926 7 25.878 13.6 53.15 19.7 80.915 3.8-9.873 7.6-20.244 11.3-30.117 67.8-163.254 160-306.76 274.3-427.205 114.8-120.938 249.4-217.392 399.5-287.011 153.8-71.534 316.2-108.217 481.8-108.217H13325c105.4 0 191 85.62 191 191.022v591.881c65.9-146.787 151.5-277.106 256.4-387.21 114.8-120.94 249.4-217.394 399.5-287.01 153.8-71.537 316.2-108.217 481.8-108.217H16109c105.4 0 191 85.62 191 191.019V1354.6c-1 105.4-86.6 190.56-192 190.56m-2884.2 1065.7h171.3v-1065.7h-171.3z" style="fill:#fff;fill-opacity:1;fill-rule:nonzero;stroke:none" transform="matrix(.21254 0 0 -.21254 0 1508)"/><path d="M15119.3 3.828c-95.1 0-172.4 77.262-172.4 172.371V2355.97h-351.1c-95.1 0-172.4 77.26-172.4 172.38v1046.16c0 45.83 18.2 89.57 50.5 121.84 32.3 32.26 76 50.53 121.9 50.53h568.5c149.4 0 295.5-32.68 434.7-97.66 135.9-63.26 257.3-150.3 360.5-259.4 103.2-108.69 186.4-238.19 247.5-385.53 61.6-148.6 93-308.65 93-476.36V175.781c0-95.112-77.3-172.373-172.4-172.373z" style="fill:#fff;fill-opacity:1;fill-rule:nonzero;stroke:none" transform="matrix(.23553 0 0 -.23553 0 1508)"/><g clip-path="url(#a)" transform="matrix(.13333 0 0 -.13333 0 1508)"><path d="m4325.47 2997.73-875.24 2343.75c-16.48 40.51-51.01 77.27-104.25 110.28-53.25 32.22-112.5 48.75-177.74 48.75-56.99 0-116.25-16.53-177.77-48.75-61.49-33.01-98.24-69.77-110.24-110.28L1117.73 311.25h-813L2195.47 5647.5c32.26 85.51 75.78 168.01 128.28 247.5 53.24 79.49 119.22 150.74 198.75 214.49 79.49 63.01 172.5 113.24 278.24 150s228.75 54.77 367.5 54.77 258.75-18.01 360.74-54.77c102-36.76 192-86.99 269.26-150 77.23-63.01 143.99-135 198.75-214.49 54.73-79.49 102.74-161.99 143.99-247.5l183.75-367.5 183.75 367.5c45 85.51 94.49 168.01 150 247.5 54.76 79.49 120 150.74 195.74 214.49 75.78 63.01 164.26 113.24 266.25 150 102.03 36.76 222.03 54.77 360.78 54.77 135 0 255.74-18.01 363.75-54.77 107.97-36.76 201.72-86.99 281.25-150 79.49-63.01 146.99-135 201.72-214.49 54.76-79.49 96.76-161.99 125.27-247.5L8343.98 311.25h-813.75l-1762.5 5030.23c-11.99 40.51-48.75 77.27-110.23 110.28-61.52 32.22-120.78 48.75-177.77 48.75-65.24 0-124.5-16.53-177.74-48.75-53.24-33.01-87.77-69.77-104.26-110.28zm0-2686.48L3168.98 3395.23 2152.73 311.25h-813.75l1676.25 4877.27c8.25 24.72 28.52 45.74 61.49 64.49 32.26 18.01 63.01 27.73 91.52 27.73 28.48 0 58.48-8.98 88.48-27.73 30.78-18.01 50.27-39.77 58.51-64.49l1009.5-2784.77 1009.49 2784.77c8.28 24.72 27.77 45.74 58.51 64.49 30.75 18.01 60 27.73 88.52 27.73 28.48 0 59.22-8.98 91.48-27.73 32.27-18.01 53.25-39.77 61.49-64.49L7311.25 311.25h-783.01L5481.99 3395.23Z" style="fill:url(#b);fill-opacity:1;fill-rule:nonzero;stroke:none"/></g><g clip-path="url(#c)" transform="matrix(.13333 0 0 -.13333 0 1508)"><path d="M9117.23 414.77c-212.23 68.98-388.48 178.472-529.5 327.73-141.01 149.262-244.49 340.51-311.99 575.23q-101.25 352.155-101.25 841.53v2306.99c0 338.24 33.75 625.51 101.25 859.49 67.5 234.77 170.98 425.28 311.99 572.27 141.02 146.99 317.27 252.73 529.5 318.01 212.26 65.23 465 98.24 759.02 98.24h782.95c297.8 0 553.5-33.01 768-98.24 214.5-65.28 390.8-171.02 529.5-318.01 138.8-146.99 240.8-337.5 306-572.27 65.3-234.72 98.3-521.25 98.3-859.49V2159.26c0-326.25-33-606.76-98.3-841.53-65.2-234.72-167.2-426.71-306-575.23-138.7-149.258-315-258.008-529.5-327.73-214.5-69.77-470.2-104.258-768-104.258h-782.95c-294.02.738-547.5 35.23-759.02 104.258M10744.7 1125c155.3 0 285.8 21.76 391.6 64.49 105.7 42.78 192.7 102.78 260.2 180.74 67.5 77.27 116.2 169.54 147 275.28 30.7 105.74 45.7 220.51 45.7 342.73v2649.77c0 122.22-15 236.25-45.7 342.73-30.8 105.74-79.5 198.01-147 275.28-67.5 77.22-155.2 137.96-263.3 180.74-108 42.73-240 64.49-394.4 64.49h-942.82c-155.24 0-286.49-21.76-394.5-64.49-108-42.78-195.74-102.78-263.24-180.74-67.5-77.27-116.25-169.54-146.99-275.28-30.78-106.48-45.78-220.51-45.78-342.73V1987.5c0-122.27 15-236.99 45.78-342.73 30.74-106.53 79.49-198.01 146.99-275.28 67.5-77.22 153.75-138.01 260.24-180.74 105.74-42.73 236.25-64.49 391.52-64.49h954.7zm-875.21 220.51c-142.5 0-260.27 13.47-351.76 39.72-91.48 26.25-163.51 70.51-214.49 131.25-51.01 61.53-86.99 139.54-107.26 235.51-20.24 96.02-30.75 215.28-30.75 357.78V4515c0 105.74 10.51 206.25 30.75 300 20.27 93.75 56.99 175.51 110.27 244.49 53.24 69.03 125.23 123.01 217.5 161.99 91.48 39.03 209.22 58.52 351.72 58.52h783.03c142.5 0 260.3-19.49 351.7-58.52 91.5-38.98 164.3-92.96 217.5-161.99 53.3-69.72 90-150.74 110.3-244.49 20.2-93.75 30.8-193.52 30.8-300V2109.77c0-142.5-10.6-262.5-30.8-357.78-20.3-95.97-56.3-174.72-107.3-235.51-51-61.48-122.2-105-214.4-131.25-91.6-26.25-209.3-39.72-351.8-39.72zm594.01 813.75c48.7 0 80.3 14.26 94.5 42.73 14.2 28.52 21.7 67.5 21.7 116.25v1989.03c0 48.75-7.5 87.73-21.7 116.25-14.2 28.47-45.8 42.73-94.5 42.73H10072c-48.8 0-80.28-14.26-94.5-42.73-14.26-28.52-21.76-67.5-21.76-116.25V2318.24c0-48.75 6.76-87.73 21.76-116.25 14.22-28.47 45.7-42.73 94.5-42.73z" style="fill:url(#d);fill-opacity:1;fill-rule:nonzero;stroke:none"/></g><g clip-path="url(#e)" transform="matrix(.13333 0 0 -.13333 0 1508)"><path d="M15114.8 1151.76c102.4 41.42 186.7 99.52 252 175.01 65.4 74.81 112.6 164.16 142.4 266.55 29.7 102.38 44.2 213.51 44.2 331.85v2565.72c0 118.34-14.5 228.76-44.2 331.86-29.8 102.39-77 191.73-142.4 266.55-65.3 74.77-150.3 133.58-254.9 175.01-104.6 41.37-232.4 62.44-381.9 62.44h-2358.8v787.22h2281c288.4 0 536-31.96 743.7-95.13 207.7-63.21 378.3-165.59 512.7-307.92 134.3-142.33 233.1-326.79 296.3-554.12 63.1-227.27 95.1-504.71 95.1-832.22V2090.77c0-315.9-32-587.52-95.1-814.84-63.2-227.27-162-413.174-296.3-556.982-134.4-144.524-305-249.824-512.7-317.335-207.7-67.557-455.3-100.951-743.7-100.951h-2281V4135.05h746.6V1089.31h1617.9c149.6 0 276 21.08 379.1 62.45m-2743.6 3172.82v787.94h2281c138 0 252-18.87 340.6-56.67 88.6-37.74 159.1-90.01 210.6-156.85 51.6-67.51 87.2-145.96 106.8-236.73 19.6-90.78 29.8-187.38 29.8-290.49V2042.85c0-137.98-10.2-254.18-29.8-346.43-19.6-92.93-54.5-169.18-103.9-228.04-49.4-59.53-118.3-101.67-207.6-127.09-88.7-25.42-202.7-38.46-340.6-38.46h-1327.6v2832.22h829.4V2244.71c0-103.11 49.3-153.94 148.1-153.94h130.7c47.2 0 85.7 13.8 115.5 41.37 29.8 27.62 44.3 65.36 44.3 112.57v1925.93c0 47.2-14.5 84.95-44.3 112.56-29.8 27.57-68.3 41.38-115.5 41.38z" style="fill:url(#f);fill-opacity:1;fill-rule:nonzero;stroke:none" transform="scale(1.03276)"/></g><g clip-path="url(#g)" transform="matrix(.13333 0 0 -.13333 0 1508)"><path d="M13214.4 3427.45c0 197.43 35.7 382.75 108.2 556.55 72 173.85 168.1 324.06 289 450.68 120.3 126.62 259.5 226.78 417.8 300.43 158.3 73.68 321.8 110.53 491 110.53H16300v-624.48h-1704.8c-119.1 0-225.6-23.6-319.4-70.25-93.9-47.18-173.3-108.18-237.2-183-64.4-75.39-113.3-160.59-147.9-256.12-34.5-95.54-51.8-189.94-51.8-284.34V1657.04c0-93.83 17.3-188.8 51.8-284.33 34.6-95.54 84-180.73 147.9-256.13 63.9-75.39 143.3-136.389 237.2-183.039 93.8-47.181 200.3-70.203 319.4-70.203H16300V238.857h-1780.2c-169.2 0-332.7 36.845-490.9 110.492q-237.45 110.531-417.9 300.466c-120.3 126.623-217 276.835-288.9 450.635-72 173.85-108.2 359.16-108.2 556.59v1770.41zm793.7-807.52v713.69c0 81.18 13.3 165.21 39.7 251.54 26.5 86.34 66.8 163.47 119.8 232.54 52.9 69.06 120.3 125.44 202 169.18 81.1 43.77 176.7 65.62 286.6 65.62H16300v-624.48h-1629.4c-19 0-38.6-10.94-58.7-32.79-20.2-21.89-30.5-51.8-30.5-89.21v-65.62h1361.8v-619.87h-1935.1zm0-155.4h1935.1v-624.48h-1361.8v-61c0-37.42 10.3-67.33 30.5-89.22 20.1-21.85 39.7-32.79 58.7-32.79H16300v-624.48h-1643.8c-109.3 0-204.9 21.85-286.6 65.62-81.7 43.74-148.5 100.12-202 169.19-53.6 69.06-93.3 146.2-119.8 232.53-26.4 86.33-39.7 169.79-39.7 251.54z" style="fill:url(#h);fill-opacity:1;fill-rule:nonzero;stroke:none" transform="scale(1.30308)"/></g><g clip-path="url(#i)" transform="matrix(.13333 0 0 -.13333 0 1508)"><path d="M16299.5 197.583h-1472.6c-139.9 0-275.1 30.478-406.1 91.399q-196.35 91.432-345.6 248.545c-99.5 104.743-179.5 228.998-239 372.769-59.5 143.804-89.5 297.094-89.5 460.414v2637.61h517.5V1370.71c0-77.62 14.3-156.18 42.8-235.2 28.6-79.03 69.5-149.506 122.4-211.871 52.9-62.362 118.5-112.824 196.2-151.413 77.5-39.028 165.6-58.072 264.2-58.072H16300V197.583ZM15009.8 1370.71h1289.7V854.136h-1359.2c-90.5 0-169.5 18.072-237.2 54.28-67.6 36.179-122.8 82.818-167.1 139.954-44.2 57.13-77.1 120.93-99 192.35-21.9 71.41-32.8 140.45-32.8 208.07v2559.53h532.2V1471.63c0-30.95 8.6-55.22 25.3-71.89 16.6-16.66 32.8-25.24 48.5-25.24v-3.79z" style="fill:url(#j);fill-opacity:1;fill-rule:nonzero;stroke:none" transform="scale(1.57529)"/></g><g clip-path="url(#k)" transform="matrix(.13333 0 0 -.13333 0 1508)"><path d="M16299.6 178.082H15834V2555.37c0 69.96-12.9 140.76-38.6 211.99-25.8 71.22-62.3 134.74-110.3 190.95-47.7 56.21-106.9 101.69-176.8 136.44-70 35.21-149.3 52.37-238.2 52.37h-518.3v465.59h574.5c126.2 0 248.1-27.47 366.1-82.41 118-54.9 221.8-129.58 311.5-223.98 89.7-94.41 161.8-206.4 215.4-336.01 53.7-129.58 80.7-267.74 80.7-414.94V178.082ZM15280.9 1326.38v1138.03c0 27.89-7.8 50.19-22.8 66.51-15 16.29-29.6 24.45-43.8 24.45h-462.5v465.59h472.8c81.6 0 152.8-16.32 213.7-48.93 61-32.6 110.8-74.67 150.7-126.16 39.9-51.5 69.5-108.97 89.2-173.34s29.6-126.59 29.6-187.54V1452.55m0 211.11V178.082h-426.9V1371.86" style="fill:url(#l);fill-opacity:1;fill-rule:nonzero;stroke:none" transform="scale(1.74779)"/></g></svg>