<svg xmlns="http://www.w3.org/2000/svg" viewBox="0 0 272.67 135"><rect width="253.17" height="116.83" x="9.5" y="9.167" rx="0" ry="0"/><path fill="#fdfdfd" d="M0 0h272.67v135H0zm262.67 9.083H9.42v116.92h253.25zm-90.275 112.98c-2.536-1.775-3.766-4.198-3.952-9.463-.168-4.727.463-7.085 1.814-9.215 1.327-2.092 3.192-2.822 5.695-2.64 1.236.088 2.283.372 2.961.855 1.083.772 2.157 2.734 2.695 4.496.101.331.294 1.046.294 1.046s-.805.358-1.948.786l-1.784.67-.294-.884c-.432-1.3-1.297-2.034-2.206-2.034-2.216 0-2.942 1.508-2.942 6.317 0 3.84.69 5.273 2.12 5.772 1.55.54 2.34-.674 2.916-1.91.287-.615.395-1.397.46-2.072l3.84 1.71c-.588 3.79-1.512 4.95-2.52 5.916-.872.835-1.638 1.24-3.748 1.319-1.856.07-2.625-.126-3.4-.67m-158.73-21.088h5.628l2.27 12.543 2.2-12.543h5.569v21.33h-3.389V106.75l-2.753 15.557h-3.131l-2.693-15.81v15.81h-3.7zm18.667 0h11.333v4.428h-7.167v3.523h6.834v4.747h-6.834v3.919h7.5v4.714H32.331zm14 0 4.686-.03c3.86.1 3.917.292 4.94 1.022.665.475 1.484 1.566 2 2.667.829 1.767 1.266 2.138 1.266 7.197 0 5.182-.766 6.268-1.337 7.257-1.377 2.386-1.85 3.19-6.997 3.218h-4.558zm7.217 16.2c1.843-1.29 1.932-9.034.123-10.671-.325-.294-1.134-.623-1.799-.73l-1.208-.023v11.913h1.093c.6 0 1.407-.22 1.791-.489m8.116-16.2H66v21.33h-4.334zm11.36 0h4.584l5.165 21.33h-4.368l-.837-3.331-4.734.018-.686 3.314h-4.403zm3.627 13.214-1.399-7.288-1.481 7.288zm28.346-13.224 3.993.014 5.313 11.597.028-11.58h3.666v21.333l-3.833-.01-5-11.482-.183 11.492h-3.984zm16.333.032h4.134v7.598h4.866v-7.598h4.334v21.333h-4.334v-8.598h-4.866v8.598h-4.134zm129.33 5.333h-4.333v-5.333h13v5.333h-4.667v16h-4zm-159.68-5.364h11.333v4.428h-7.167v3.523h6.834v4.747h-6.834v3.919h7.5v4.714H90.98zm50.408.073h4.584l5.166 21.33h-4.368l-.837-3.331-4.734.018-.686 3.314h-4.403zm3.628 13.214-1.399-7.288-1.482 7.288zm7.72-13.295 3.993.014 5.313 11.597.027-11.58h3.667v21.333l-3.833-.01-5-11.482-.183 11.492h-3.984zm31.649-.054h11.333v4.428h-7.167v3.523h6.834v4.747h-6.834v3.92h7.5v4.714h-11.667zm32.394.146h11.333v4.428h-7.167V109h6.834v4.747h-6.834v3.919h7.5v4.714H216.78zm-18.504 0h5.628l2.27 12.544 2.2-12.543h5.569v21.33h-3.389v-15.556l-2.753 15.557h-3.131l-2.693-15.81v15.81h-3.7zm32.54-.036 3.993.015 5.313 11.597.027-11.58h3.667v21.333l-3.833-.01-5-11.482-.183 11.492h-3.984z"/><path fill="#1d57a1" d="M114.67 73.358h34.704c3.668 0 5.435-.922 6.594-1.592 4.727-2.732 6.975-6.798 6.954-11.734-.02-4.934-2.687-9.896-7.846-12.301-1.861-.868-1.993-1.064-10.073-1.064-1.55 0-3.588.03-5.148 0-6.463-.123-11.716-5.096-11.676-10.282.044-5.601 2.468-10.908 12.784-10.908h32.373v9.189h-33.49c-1.854 0-2.08.676-2.08 1.297 0 .683.258 1.722 2.02 1.722h6.198c7.613 0 9.116.186 13.001 1.755 6.04 2.44 11.515 8.3 13.445 14.392.979 3.088 1.042 8.76.128 11.5-2.472 7.416-8.195 13.289-14.953 15.943-1.71.671-5.156 1.068-8.825 1.07h-34.11zm0-12.348h33.529c1.122 0 2.1-.307 2.1-1.496 0-.934-.916-1.507-1.952-1.507h-6.751c-7.779 0-9.42-.256-13.151-1.992-6.597-3.07-11.775-9.079-13.262-15.387-.655-2.775-.647-6.844.018-9.414.624-2.414 2.403-6.08 4.02-8.282 1.795-2.445 5.541-5.723 8.024-7.02 4.363-2.28 9.164-2.638 13.601-2.644h32.491V22h-32.354c-9.958 0-15.397 6.46-15.438 13.605.164 6.41 4.55 13.395 13.806 13.395 1.66 0 7.938-.028 9.702 0 4.26.066 8.174 2.54 10.173 5.916 1.547 2.61 1.526 6.355.233 9.1-1.372 2.912-4.146 5.331-7.6 5.958-.36.065-1.218.265-2.525.265H114.67z"/><path fill="#13ae16" d="M209.83 83.297c-7.771-.992-15.354-4.767-21.009-10.457-4.507-4.536-10.483-14.005-10.492-24.318V12.993l27.107.174v30.88c0 4.663 3.43 10.585 11.568 12.034l-.174 27.45-2.333.016c-1.284.01-3.384-.086-4.667-.25zm9.5-27.244c.523-.039 1.747-.205 2.177-.32l6.06 27.474c-2.33.261-6 .324-8.042.324zm3.09-.614c.783-.237 1.918-.788 2.388-1.087l14.986 24.72c-2.047 1.264-6.265 2.948-8.966 3.594zm3.506-1.853c.43-.353 1.456-1.298 1.748-1.64L248.83 72.04c-1.72 1.916-4.896 4.565-7.117 5.958zm2.691-2.81c.467-.568 1.017-1.473 1.182-1.93l25.16 14.015c-.48 1.285-3.566 6.231-4.829 7.647zm1.745-3.588c.176-.459.387-1.578.442-2.042l26.943 7.572c-.262 2.178-1.29 6.34-2.139 8.3zm.517-3.992c.038-.377.067-.997.07-1.342l27.297-.02-.04 2.5c-.031 2.026-.152 5.111-.265 6.03zM230.997 13h27.25v27.333h-27.25z"/><path fill="#fc0100" d="M13.333 87h246v9.667h-246zm.062-4.583L65.903 14v56l43.283-56v68.417z"/></svg>