<svg xmlns="http://www.w3.org/2000/svg" viewBox="0 0 564.2 203"><text x="265.466" y="141.852" fill="#ef00eb" stroke="#0105ff" stroke-width="2.5" font-family="TrasksHand" font-size="2"><tspan x="265.466" y="141.852" fill="#fafafa" fill-opacity=".4" stroke="none">John Loreth 2022</tspan></text><path fill="#221f1f" d="M0 0h564.2v203H0z"/><path fill="#fff" d="M345.062 7.822h207.955V193.15H345.062zM33.211 115.954 55.918 25.61h21.055l10.941 39.434L99.267 25.61h19.817l18.578 66.557 45.329-.086c4.758-.047 5.05-9.992-.353-9.99l-26.397-.356c-11.336.111-23.29-12.284-22.707-28.793.12-15.142 13.185-27.067 29.896-27.062l67.33-.062 17.134 23.577 16.72-23.785 27.867.208-30.55 43.399 33.028 47.056-27.722-.086-19.222-27.002-18.287 27.002-28.28-.026 32.202-46.527-14.037-20.656-58.529.086c-6.387.06-6.153 10.216.05 10.026l24.661.381c10.422.068 25.1 11.015 24.736 28.106.159 19.87-17.546 28.946-26.07 28.462l-64.551.087-10.734-40.65-10.734 40.563H78.066L66.859 75.685l-9.848 40.416zm8.592 13.292v12.66H29.02v8.07h12.826v24.004c.306 3.621 3.997 5.257 7.606 4.928h27.686v-8.039H63.316c-1.66-.093-2.988 1.066-3.063-4.598V150h16.83v-8.205H60.037v-12.82zm45.833 13.017v30.18c.005 5.445 2.278 6.822 7.49 6.688h38.927v-37.116H116.03v27.523h-11.085v-27.491zm77.291 36.645v-25.636c-.017-3.216-.614-3.32 2.646-3.207h14.45v-8.014h-23.526c-3.944.065-11.24 2.307-11.19 8.03v29.05zm25.613-49.918v49.918h34.401c.05 0 12.841 3.474 12.532-10.748v-14.672c0-14.538-12.649-11.472-12.649-11.472h-16.81V128.99zm17.474 20.551h10.898v20.512h-10.898zm52.748-7.525a11.83 11.83 0 0 0-11.856 11.855v13.18a11.83 11.83 0 0 0 11.856 11.857h21.54a11.83 11.83 0 0 0 11.858-11.857v-13.18a11.83 11.83 0 0 0-11.857-11.855zm5.273 7.525h10.899v20.512h-10.899z"/><path fill="#221f1f" d="M391.633 26.027v152.881h33.896v-61.254h50.623v61.254h35.15v-62.222l-36.599-27.788h28.295V51.793l-34.264-25.766zm33.258 31.614h42.17v28.502h-42.17z"/></svg>