<svg xmlns="http://www.w3.org/2000/svg" version="1.0" viewBox="0 0 800 110"><path d="M649.09 6.283c-14.654 0-26.882 12.228-26.882 26.882v46.96c0 14.655 12.228 26.883 26.882 26.883h85.108c14.655 0 26.883-12.228 26.883-26.883v-46.96c0-14.654-12.228-26.882-26.883-26.882zm6.09 28.555h72.297v43.614H655.18zM8.199 8.29v98.83H41.17V36.845h62.249v70.273h32.34V35.173c0-14.654-12.227-26.882-26.881-26.882H8.199zm149.871 0v25.99h89.57v7.028h-69.938c-14.655 0-26.883 12.34-26.883 26.994v11.935c0 14.654 12.228 26.882 26.883 26.882h102.286V35.173c0-14.654-12.228-26.882-26.882-26.882H158.07zm26.436 59.342h63.134v14.055h-63.134zM300.29 8.29v98.83h33.017V36.845h33.91v70.273h33.017V36.846h34.578v70.273h32.348V35.173c0-14.654-12.228-26.882-26.882-26.882H300.29zm212.938-2.007c-14.654 0-26.882 12.228-26.882 26.882v46.96c0 14.655 12.228 26.883 26.882 26.883h90.352V78.452h-83.63V34.838h83.63V6.283z" style="opacity:1;fill:#a51e23;fill-opacity:1;fill-rule:nonzero;stroke:none;stroke-width:8;stroke-linecap:round;stroke-linejoin:round;stroke-miterlimit:4;stroke-dasharray:none;stroke-opacity:1"/><path d="M782.224 7.195q6.463 0 11.106 4.633 4.643 4.632 4.643 11.137 0 6.504-4.622 11.147t-11.127 4.643q-6.525 0-11.168-4.632-4.643-4.633-4.643-11.158c0-6.525 1.55-8.066 4.653-11.148q4.654-4.622 11.158-4.622m-.042 28.967q5.417 0 9.297-3.88t3.88-9.317c0-5.437-1.29-6.724-3.87-9.297q-3.869-3.858-9.307-3.859t-9.296 3.86q-3.86 3.857-3.859 9.296 0 5.437 3.859 9.317t9.296 3.88m7.111-4.455h-3.137l-1.317-3.702q-1.192-3.325-4.497-3.325h-2.154v7.027h-2.74V14.745h6.379q6.735 0 6.734 4.664 0 4.497-4.413 4.832 2.26.69 3.347 3.22zm-11.105-9.39h3.43q4.035 0 4.036-2.657 0-2.614-4.162-2.614h-3.304v5.27z" style="font-size:12px;font-style:normal;font-variant:normal;font-weight:400;font-stretch:normal;text-align:start;line-height:100%;writing-mode:lr-tb;text-anchor:start;fill:#a51e23;fill-opacity:1;stroke:none;stroke-width:1px;stroke-linecap:butt;stroke-linejoin:miter;stroke-opacity:1;font-family:Microsoft Sans Serif;-inkscape-font-specification:Microsoft Sans Serif"/></svg>