<svg xmlns="http://www.w3.org/2000/svg" fill-rule="evenodd" stroke-linejoin="bevel" stroke-width=".501" overflow="visible" viewBox="0 0 417.6 86.4"><g fill="none" font-family="'Times New Roman'" font-size="16"><path fill="#000" d="M72.677 79.447V3.386H60.033l.208 48.91L1.798 4.008l.206 76.267h10.985V30.951zm8.081 1.242 9.74-16.579h-8.912V52.504h14.715l26.736-48.496 42.692 76.681H150.6l-8.704-16.579h-37.925L94.85 80.689zm28.393-28.393h27.356l-13.678-25.075zm164.761 28.393h-12.436V4.216l42.28 49.117L346.447 3.18v77.509h-13.264l-.206-41.657-29.43 35.44-29.635-35.232zm96.576 0 .208-78.34h12.642l-.208 78.34z"/><path fill="red" d="M165.315 43.178c0-23.004 18.652-41.657 41.657-41.657s41.657 18.653 41.657 41.657c0 23.005-18.653 41.657-41.657 41.657-23.005 0-41.657-18.652-41.657-41.657m41.657 29.221c16.165 0 29.221-13.056 29.221-29.221 0-15.957-13.056-29.015-29.221-29.015-15.958 0-29.016 13.058-29.016 29.015 0 16.165 13.058 29.221 29.016 29.221"/></g></svg>