<svg xmlns="http://www.w3.org/2000/svg" xml:space="preserve" baseProfile="tiny" version="1.2" viewBox="0 0 566.929 96.834"><g fill="#605439"><path d="M353.812 58.21h2.244c2.096 0 5.68.432 7.157 1.297q2.215 1.29 2.92 2.89.707 1.602.709 7.053v14.266c0 4.305-4.55 6.498-6.74 6.974-2.202.475-4.34.713-6.422.713-6.006 0-11.191-1.563-15.563-4.69-4.365-3.13-7.529-8.02-9.492-14.69-1.959-6.662-2.936-14.405-2.936-23.25q0-10.945 2.685-21.345 2.693-10.4 9.155-16.215c4.309-3.874 9.71-5.812 16.193-5.812 6.787 0 10.758 1.718 15.753 6.91 5.109 5.306 10.01 11.336 12.87 20.188h4.179v-32.5h-2.378c-.857 2.604-1.793 4.372-2.816 5.305-1.027.937-2.139 1.403-3.328 1.403q-1.157 0-7.463-2.539c-4.2-1.694-7.244-2.723-9.118-3.085-3.455-.721-6.14-1.085-10.448-1.085q-20.871 0-34.638 14.342c-9.178 9.569-13.765 21.281-13.765 35.147 0 7.748 1.489 14.75 4.48 21.004 2.345 4.85 5.601 9.207 9.761 13.086 4.162 3.873 8.967 7 14.405 9.385q8.164 3.564 20.52 3.566c6.447 0 12.661-.666 18.662-1.998a82.6 82.6 0 0 0 17.326-5.932V69.427q0-5.041.572-6.331 1.022-2.453 2.909-3.513c1.255-.707 4.685-1.165 7.881-1.395v-3.139H353.8v3.139z"/><path d="M457.91 83.04c-5.16 3.951-12.03 5.926-20.596 5.926h-4.883c-2.617 0-4.507-.356-5.683-1.076-1.166-.72-1.973-1.641-2.399-2.764q-.643-1.686-.643-9.228V50.149c4.4 0 9.553.573 11.865 1.723q3.467 1.718 6.083 6.716c1.75 3.33 2.894 7.008 3.439 12.229h3.713V23.432h-3.713c-.729 7.12-2.404 11.899-5.035 15.546q-3.947 5.472-12.717 5.472h-3.64V12.666c-.028-5.525 4.895-4.885 4.895-4.885h5.754q10.432 0 14.224 1.219 6.506 2.022 10.062 6.339c2.374 2.88 4.211 7.623 5.522 14.236h3.115V2.508h-77.42v3.707h2.441q4.464 0 7.031 1.886c1.22.854 2.055 2.072 2.503 3.643q.343 1.411.342 7.615v57.264q0 6.873-.747 8.496c-.63 1.525-1.535 2.604-2.705 3.234q-2.437 1.417-6.421 1.416h-2.444v4.307h78.73l4.732-29.117h-4.318q-3.383 12.159-11.13 18.083"/><path d="M518.827 1.072c-13.193-.545-24.313 3.754-33.342 12.907-9.047 9.145-13.556 20.581-13.556 34.291q-.002 18.321 10.423 31.67c8.793 11.258 21.238 16.895 37.338 16.895 16.047 0 28.479-5.902 37.276-17.713 6.64-8.888 9.963-19.2 9.963-30.92 0-13.71-4.455-25.131-13.354-34.26-8.908-9.13-20.48-13.419-34.732-12.87m21.045 73.285c-2.157 6.376-5.166 11.02-9.037 13.918q-4.552 3.408-11.351 3.406c-6.73 0-11.96-2.635-15.705-7.896-5.365-7.532-8.05-19.17-8.05-34.924q-.001-19.881 5.212-30.497 6.399-12.93 18.664-12.93 6.665.001 11.777 3.746c3.409 2.495 6.214 6.775 8.41 12.83 2.202 6.064 3.301 15.19 3.301 27.406q.001 15.384-3.234 24.953M226.502 96.302c16.047 0 28.477-5.904 37.276-17.713 6.639-8.899 9.962-19.2 9.962-30.92 0-13.711-4.455-25.13-13.356-34.26-8.906-9.13-20.48-13.417-34.73-12.87-13.193-.543-24.313 3.756-33.342 12.909-9.045 9.144-13.556 20.581-13.556 34.29 0 12.215 3.471 22.77 10.425 31.67 8.79 11.258 21.236 16.895 37.337 16.895M207.626 17.88q6.396-12.93 18.668-12.93 6.662 0 11.775 3.744 5.112 3.746 8.412 12.831c2.2 6.062 3.3 15.19 3.3 27.397q0 15.386-3.234 24.953-3.23 9.566-9.037 13.925-4.551 3.405-11.351 3.405c-6.73 0-11.96-2.633-15.708-7.897-5.364-7.533-8.05-19.17-8.05-34.923q-.001-19.882 5.212-30.497"/><path d="M180.004 64.225h-4.321c-2.255 8.104-5.966 14.135-11.127 18.082-5.162 3.951-12.03 5.926-20.588 5.926h-4.884c-2.617 0-4.505-.36-5.681-1.074-1.17-.722-1.973-1.644-2.4-2.766q-.643-1.688-.643-9.23V49.414c4.399 0 9.553.575 11.867 1.724 2.31 1.143 4.34 3.386 6.083 6.716 1.748 3.331 2.894 7.008 3.438 12.23h3.714V22.698h-3.714c-.728 7.117-2.405 11.899-5.036 15.546-2.626 3.649-6.87 5.47-12.715 5.47h-3.64V11.932c-.03-5.526 4.898-4.885 4.898-4.885h5.749q10.44 0 14.235 1.216 6.506 2.024 10.063 6.341 3.558 4.32 5.524 14.234h3.112V1.749h-77.42v3.73h2.44q4.463.002 7.033 1.884c1.217.854 2.05 2.072 2.5 3.644q.34 1.412.341 7.613v57.265q0 6.875-.744 8.488c-.63 1.526-1.536 2.61-2.702 3.237q-2.437 1.417-6.428 1.416h-2.44v4.307h78.73l4.732-29.118zM31.413 88.977h-2.09q-4.496 0-7.99-2.762c-2.323-1.843-3.487-5.384-3.487-10.64V20.269L77.753 94.95l3.885.006v-76.17c0-4.332.36-5.589 1.074-7.37.714-1.783 1.714-3.07 2.99-3.86q1.918-1.182 7.51-1.927V1.754h-29.72V5.63c4.9-.09 8.398 1.172 10.472 3.79 1.519 1.94 2.278 3.861 2.278 9.368v39.89L29.605 1.754H1.228v3.074c2.697.09 2.794.993 4.23 1.756l7.601 7.651-.01 61.332q0 7.273-2.871 10.302Q7.304 88.898 0 88.966v3.707h31.399v-3.707z"/><path stroke="#000" stroke-width=".124" d="M299.304 48.417c0 6.086-4.934 11.018-11.016 11.018-6.087 0-11.02-4.936-11.02-11.018 0-6.087 4.936-11.018 11.02-11.018 6.087 0 11.016 4.934 11.016 11.018z"/></g></svg>