<svg xmlns="http://www.w3.org/2000/svg" viewBox="0 0 320 120"><clipPath id="a"><path d="M119.727 98.466h25.126v22.907h-25.126zm8.782 14.68v3.208h1.494v-3.208z"/></clipPath><path fill="#f90706" d="M0 0h320v120H0z"/><text x="38.678" y="94.454" fill="#ef00eb" stroke="#0105ff" stroke-width="2" font-family="TrasksHand" font-size="1.6"><tspan x="38.678" y="94.454" fill="#fafafa" fill-opacity=".4" stroke="none">John Loreth 2022</tspan></text><g fill="#fff"><path d="M32.374 106.438V94.633h17.393q1.798 0 3.073.876 1.276.876 1.276 2.075v8.854h-4.349V99.06q0-.6-.637-1.037-.638-.439-1.537-.439H45.42v8.854h-4.348v-8.854h-4.349v8.854zm27.27 0q-1.612 0-2.738-.853-1.1-.876-1.1-2.098v-8.854h3.838v7.378q0 .623.537 1.061.589.415 1.382.415h5.758v-8.854h3.838v11.805zm17.266 0q-1.612 0-2.738-.853-1.1-.876-1.1-2.098v-8.854h3.838v7.378q0 .623.538 1.061.588.415 1.381.415h5.617l.01 2.951zm10.373 0v-8.854h-5.758v-2.95h15.354v2.95H91.12v8.854zm10.242 0V94.633h3.838v11.805zm21.535 0-6.761-11.805h3.38l5.071 8.854 5.071-8.854h3.38l-6.76 11.805zm11.983 0V94.633h3.381v11.805z"/><path d="M134.18 113.146q.782 0 1.337-.453.555-.48.555-1.16v-3.227q0-.655-.555-1.134-.555-.48-1.336-.48h-5.672v6.454zm-9.453 3.227v-12.907h11.345q1.563 0 2.672.958t1.109 2.269v6.453q0 1.362-1.11 2.294-1.108.933-2.671.933z" clip-path="url(#a)" transform="scale(1.09334 .91463)"/><path d="M157.714 106.438q-1.383 0-2.348-.853-.944-.876-.944-2.098v-8.854h13.171v2.951h-9.879v1.476h9.88v2.951h-9.88v1.476h9.88v2.951zm21.484-2.951q.804 0 1.375-.415.57-.438.57-1.06V99.06q0-.6-.57-1.038-.571-.438-1.375-.438h-3.89q-.804 0-1.4.438-.546.439-.546 1.038v2.951q0 .623.545 1.061.597.415 1.4.415zm-5.836 2.951q-1.634 0-2.775-.853-1.115-.876-1.115-2.098v-5.903q0-1.222 1.115-2.075 1.141-.876 2.775-.876h7.781q1.608 0 2.75.876 1.14.876 1.14 2.075v5.903q0 1.245-1.14 2.098-1.142.853-2.75.853zm20.11 0v-2.951h11.466v-1.476h-9.555q-.815 0-1.376-.415-.535-.438-.535-1.06v-2.952q0-1.222 1.096-2.075 1.12-.876 2.726-.876h11.466v2.951h-11.466v1.476h9.555q.79 0 1.35.438t.56 1.038v2.951q0 1.245-1.12 2.098t-2.701.853zm23.322 0v-2.951h-1.945q-1.634 0-2.775-.853-1.115-.876-1.115-2.098v-5.903h3.89v4.427q0 .623.545 1.06.596.416 1.4.416h3.89q.805 0 1.375-.415.57-.438.57-1.06v-4.428h3.891v5.903q0 1.245-1.141 2.098t-2.75.853h-1.944v2.951zm10.678 0v-2.951h10.578v-1.476h-8.815q-.752 0-1.27-.415-.493-.438-.493-1.06v-2.952q0-1.222 1.01-2.075 1.035-.876 2.516-.876h10.578v2.951h-10.578v1.476h8.815q.73 0 1.246.438.517.438.517 1.038v2.951q0 1.245-1.034 2.098t-2.492.853zm21.289 0v-8.854h-5.29v-2.95h14.106v2.95h-5.29v8.854zm13.952 0q-1.361 0-2.312-.853-.93-.876-.93-2.098v-8.854h12.966v2.951h-9.724v1.476h9.724v2.951h-9.724v1.476h9.724v2.951zm12.146 0V94.633h16.548q1.71 0 2.924.876t1.213 2.075v8.854h-4.137V99.06q0-.6-.607-1.037-.606-.439-1.461-.439h-2.069v8.854h-4.137v-8.854h-4.137v8.854zM36.123 89.295H13.14l42.35-73.572c.216-1.202 4.106-3.143 6.956-2.884h13.489c3.137 0 4.882 4.331 4.97 6.939v31.755l20.431-34.93c2.118-3.934 4.97-3.727 7.778-3.764h13.326c5.884.135 4.433 5.784 4.648 9.872v66.823h-20.7V49.647L85.544 84.85c-2.629 4.61-5.223 4.334-7.82 4.446H65.618c-2.568.052-5.526 1.107-5.396-5.77L60.05 49.97zm90.562-76.455h21.068l17.232 44.155 16.188-44.156h21.88l-25.79 72.008c-.882 2.343-.754 4.448-3.932 4.448h-16.406c-3.369.49-3.162-1.64-4.191-4.484zm87.241 0h46.572c8.114.577 9.47 3.825 11.78 6.696l7.937 13.116h-21.648c-.748-1.347-.64-3.04-5.046-2.913H224.17c-3.066 0-3.082.004-2.969 3.923l.149 5.344c.093 1.527.506 1.284 1.576 1.333h52.724c7.284.659 12.057 3.58 14.91 8.23l14.167 23.26c3.458 5.943-1.276 17.466-9.468 17.466H230.13c-20.075 0-29.889-13.68-29.587-22.914h20.86c.233 2.72.942 3.769 6.808 3.93h48.088l2.486-2.969-4.943-8.561h-55.76c-9.946-.241-17.478-8.488-17.539-12.503V25.612c.157-6.345 8.332-12.796 13.615-12.773"/></g></svg>