<svg xmlns="http://www.w3.org/2000/svg" viewBox="0 0 505 150"><g fill="#fff"><path d="M59.02 21.76q-.07-.58-.58-.87-.42-.24-.42-.73c-.05-3.51-.82-10.11 1.3-12.94 3.33-4.42 8.91-4.31 12.76-.57q.35.34.56-.1 3.87-8.24 11.81-5.32c7.23 2.65 4.86 9.15 2.35 14.26q-.5 1.01.49.49c6.96-3.63 13.08.25 13.98 7.53q.08.65.39.06 2.91-5.62 9.45-4.48.48.09.59-.39 2.31-10.11 12.97-7.38.46.12.77.46l3.62 3.96q.47.5 1.09.2c7.75-3.77 20.42-14.3 26.54-1.61q5.99 12.41 8.12 17.63.21.52.71.78l8.64 4.36q.62.32.92-.32 10.07-22.04 32.15-27.34 5.96-1.43 18.29-1.43Q336.56 7.99 447.6 8q13.3 0 19.16 1.49c25.8 6.58 43.15 34.93 32.88 60.66-6.96 17.43-23.83 30.85-43.59 30.84q-33.29-.02-66.6.03-.84 0-.27.62c3.92 4.21 12.94 12.13 7.11 18.52-3.68 4.05-12.01 4.15-17.42 3.77q-.57-.04-.9.43-1.79 2.57-4.88 3.49-.53.15-1.07.1-1.28-.11-2.27.7-.44.35-.99.35h-4.97q-.5 0-.83.39-1.96 2.35-4.81 3.54-.43.19-.9.1-2.31-.42-4.38.53-.45.2-.81-.13c-1.5-1.35-4.3.64-5.51 1.37q-.4.24-.86.17-1-.15-1.64.58-.4.45-1.01.45h-8.29q-.55 0-.75-.51-.3-.75-1.16-.4-.43.17-.63.6-1.77 3.81-6.14 4.33c-.74.09-1 .27-1.49.76q-.37.37-.88.25-1.73-.39-3.08.66-.41.31-.93.31h-.3q-.52 0-.97.25-3.1 1.75-6.23-.19-.49-.3-.88.12c-7.19 7.5-20.02 6.89-22.27-5q-.09-.49-.53-.73c-3.46-1.87-3.83-4.09-4.82-7.57q-4.59-16.26-6.16-22.64-.71-2.85-1.64-4.74-.24-.49-.79-.49-24.05-.04-48.07 0-13.91.03-19.9-1.4-18.59-4.41-29.3-21.5c-.4-.65-.75-2.35-2.12-2.07a1.68 1.67 2.6 0 0-1.27 1.15q-1.91 6.25-6.84 10.55-.32.28-.19.69c1.78 5.7 1.76 14.08-5.12 16.31-3.28 1.07-7.56.21-9.59-2.66q-1.9-2.69-2.6-3.13c-5.36-3.33-10.24-2.52-14 2.32-4.04 5.2-13.07 5.07-18.12 1.64a.35.34 9.7 0 0-.53.37c1.85 6.82-2.26 17.56-11.32 14.18-2.41-.9-4.54-3.16-6.36-5.08a1.42 1.41 55.3 0 0-1.63-.3l-17.92 8.47q-.35.16-.48.53-2.39 6.96-7.45 12.24-.38.4-.18.91c3.54 9.37-4.58 18.88-14.35 13.09q-.41-.25-.57-.7c-.36-1.03-.27-1.3-1.19-2-4.27-3.24-9.22-3.2-12.56 1.19-2.66 3.5-8.06 4.12-11.89 3.68q-11.4-1.31-11.8-12.67-.02-.52-.33-.93c-1.04-1.41-1.6-2.6-3.21-3.6q-3.63-2.26-4.33-6.68-.09-.56-.53-.92l-1.85-1.52q-.5-.41-.5-1.05v-7.07q0-.43-.26-.77-2.15-2.76-1.71-6.22.07-.53.46-.9.59-.55-.13-1.36-.39-.44-.36-1.02.11-1.7-.65-3.2-.24-.48-.08-1Q8.73 92.75 4.6 86.3c-3.08-4.81-2.1-9.88 3.05-12.73a1.15 1.15 0 0 0 .08-1.96C2.3 67.96.1 59.1 7.27 56q.48-.21.54-.74c.81-7.94 8.89-12.65 15.34-6.74q.38.34.89.29c3.35-.38 6.93-1.62 10.15-.14q.44.21.8-.12 1.58-1.48 3.66-2.33c.9-.36 1.6.09 2.39-.87q.31-.38.65-.04l.39.39q.43.43.69-.11l2.03-4.09q.25-.51.2-1.08-.57-5.8 3.37-10.26.3-.34.39-.79 1.4-7.02 8.67-7.75.29-.02.56.09l.68.31q.41.18.35-.26M81.74 8.75a.74.52 0 0 0-.74-.52.74.52 0 0 0-.74.52.74.52 0 0 0 .74.52.74.52 0 0 0 .74-.52m-15.574 9.56a3.02.74 89.5 0 0 .714-3.026 3.02.74 89.5 0 0-.766-3.014 3.02.74 89.5 0 0-.714 3.027 3.02.74 89.5 0 0 .766 3.013M314.21 93.25l.25 26.5-.75.5-7.12-25.35q-3.39-.6-5.94.76-.48.26-.34.78l3.51 13.02a.9.9 0 0 1-.63 1.1c-1.32.35-8.32 2.66-9.19 1.9q-1.03-6.57-3.34-13.12-3.24-.89-6.06.74-.35.2-.25.59l7.52 28.13q.13.51.62.72 1.53.64 3.01-.31l1.81-.6q.53-.18.77-.68.52-1.05-.33-1.93l-1-5.46 8.62-2.37q1.63 1.95 1.9 4.51.06.57.6.76 2.59.91 4.67-.94l.74.01q.6 0 .67-.59l.09-.67 1.46-.54h.25q1.88.1 3.5-1l13.77-5.17a.81.81 0 0 0 .42-1.15l-10.73-19.64q.03-.12.06-.25.05-.23.29-.23l8.2-.05q-1.15 10.32 3.14 19.76 3.39-.13 5.88-1.81.42-.28.22-.75c-1.61-3.64-4.82-16.41 1-17.46l4.53.25q.51.03.88.39c1.16 1.12.99 2.95 3.09 2.94l5.46-.79 1.91 6.91q.13.49.58.73l.89.47 13.98-5.02q.5-.18.36-.69-.17-.61-.89-.9L370 94.71l.29-1.46q37.45.04 74.88-.04 14.13-.03 19.88-1.51 16.74-4.31 25.42-20.38c1.9-3.52 4.17-11.23 4.12-15.06-.26-22.95-17.57-40.47-40.66-40.48q-116.56-.07-233.12.11c-54.52.09-54.5 76.97-.8 77.19q47.09.2 94.2.17M101.79 37.5q-4.53-2.79-8.21-6.76-.34-.37-.29-.86c.21-1.97 1.73-8.03-2.29-7.07a.7.69-16.4 0 0-.5.91c.5 1.48 1.62 3.3 1.05 4.77q-.67 1.72-2.77 1-8.65-2.96-12.83-3.86-.34-.08-.19-.4l3.18-6.93a.41.41 0 0 0-.66-.46l-1.32 1.32q-.38.38-.47.91c-.61 3.29-1.15 6.95-4.51 8.6q-.73.36-.73-.46v-.71q0-.51-.48-.33-1.33.5-1.28 1.84c.15 3.74-2.52 2.42-4.79 2.85q-.56.11-.61.68l-.14 1.36q-.08.81-.87.63l-3.18-.72q-.67-.15-.64-.83.07-2.12-1.53-3.44-.65-.54-.89.27-.21.7.05 1.36.17.45-.1.84l-4.04 5.84q-.34.49.09.91c2.53 2.48-.73 6.11-2.2 8.29q-.3.45-.1.94 1.54 3.71-.86 7.08-.31.44-.78.18-1.1-.6-2.11.25-.34.29-.77.2-3.13-.6-4.64 2.27-.31.6-.99.66l-6.31.52q-.51.05-.85-.34l-2.93-3.29a.95.95 0 0 0-1.64.44l-.15.77q-.13.64.51.71 2.14.25 2.53 2.13.11.53-.37.79l-8.93 4.89q-.48-2.56-1.81-4.7-.72-1.17-.66.2.11 2.78 2.47 4.5.89 2.88-1.38 3.51-.7.19-.18.69 2.1 1.99-.2 3.58-.47.32-.34.87l.39 1.6q-.87 1.14-2.29 1.54-.97-.9-2.2-1.23-.63-.17-.65.48-.03.97 1.14 1.46-2.47 2.1-5.73 2.88-.92.22-.1.71l.4.24q.41.25.62.68l5.67 11.89-1.68-.34q-.75-.15-.4.53c1.16 2.28-.92 4.79-.82 7.51q.02.52.45.8c2.32 1.56.74 4.82.17 6.91q-.13.48.21.86c2.04 2.21 1.58 4.87 1.17 8.3q-.07.57.42.86 2.76 1.66 2.85 4.91.01.49.43.74l4.21 2.51q.45.27.29.77l-.1.34q-.21.64.45.81l4.13 1.08a1.68 1.68 0 0 1 .93 2.62c-1.64 2.26-4.29 5.76-.51 7.81 4.48 2.42 6.77-2.74 7.18-6.26q.06-.52.58-.48l4.59.31q.51.04.71.51.11.25.1.54-.03.79.52.22c1.75-1.79 4.75-1.67 8.18-1.91q.56-.03 1.02.27 1.71 1.14 3.81.86.6-.07.95.41l.63.83q.46.63 1.04.1l1.94-1.75q.43-.39.41-.97c-.1-3.77 2.79-5.18 6.03-6.38q.46-.17.73-.59 3.42-5.4 5.36-11.81 12.57-6.37 25.58-11.82.88.82 2.19.42.65-.2 1.03.36l.69 1q.38.55.93.17 3-2.09 2.91-5.95 6.23-2.82 12.29-6 .41-.21.96.25c.75 2.72 3.41 4.36 6.05 2.75q3.51-2.16 3.53-6.82 0-.57.56-.53l5.86.42q.32.03.3.35-.01.2-.02.36-.02.62.53.34 3.91-2.03 8.27-1.85c2 .08 3.57 1.35 6.02 1.1q.55-.05.87.41l.76 1.1q.38.55.91.15l2.2-1.65q.44-.33.46-.89.11-3.26 2.37-5.54.37-.37.88-.5c5.43-1.37 7.47-7.06 9.16-12.59l4.15-2.09q.57-.29.2-.82-1.27-1.78-1.31-3.95c5.79-12.86 2.03-20.45-11.48-23.4l-11.1-23.19q-.4-.83-1.23-.44l-25.52 12.15q-.19.09-.32-.08l-.24-.32q-.42-.58-.79.03l-.5.84q-.28.47-.79.7-6.9 3.06-13.49 6.69-2.12 1.17-4.46 1.27M119.9 19c.3 1.09 1.46 1.26 1.68-.05q.12-.77-.65-.71l-.53.04a.57.57 0 0 0-.5.72m-9.43 12.75a.34.33 21.4 0 0 .6-.26q-.45-2.42-1.92-4.4-.39-.52-.35.13.16 2.54 1.67 4.53m-4.16 2.89q1.25-.13 1.4-1.28a.59.59 0 0 0-.93-.55l-.91.66a.65.65 0 0 0 .44 1.17M41.153 54.578a.69.62 136.1 0 0 .927-.031.69.62 136.1 0 0 .067-.925.69.62 136.1 0 0-.927.031.69.62 136.1 0 0-.067.925M17.01 53.83q-1.87-.08-.27 1.11.14.1.24-.04l.33-.44q.44-.6-.3-.63m-2.765 12.443a2.36.63 40.5 0 0-1.386-2.012 2.36.63 40.5 0 0-2.204-1.054 2.36.63 40.5 0 0 1.386 2.012 2.36.63 40.5 0 0 2.204 1.054M160.04 92.56q-1.07-.55-1.96.09-.55.39-.33 1.03l.98 2.85q.28.81.6.02l1.14-2.82a.93.92 24.9 0 0-.43-1.17m-32.62 4.94q1.5.12 2.44-.97.43-.5-.23-.53-1.34-.05-2.42.68a.45.45 0 0 0 .21.82m234.04 9.5h-.42q-2.77-.88-5.42.6-.42.23-.36.71c.67 5.38-2.54 14.14-9.01 7.15q-.86-2.17-2.75-3.42-2.95-.23-5.32 1.54-.45.33-.37.88l.19 1.25-.71-.21c-1.45-1.81-2.28-.38-3.51.05q-7.57 2.65-15.03 5.58-.37.14-.56.49l-.36.7q-.23.44-.72.42-3.07-.09-5.62 1.63-.41.28-.3.77c.37 1.61 1.74 9.18 3.56 9.15l.26.23q.3.28.69.17l8.58-2.27q.55-.15.52-.72l-.36-7.92q-.02-.5.46-.62l8.35-2.2 3.58 6.41q.26.46.77.62 2.5.77 4.9-.53l1.2-.22q.53-.1.25-.56l-.74-1.18-1.96-3.29-2.46-4.96c5.17 4.91 7.33 9.01 15.46 7.96 7.82-2.2 7.54-7.9 8.21-14.71q1.62 3.53 2.49 7.32c.61 2.64 1.86 4 4.59 2.43q1.28.02 2.25-.69.42-.3.28-.8c-1.65-5.77-4.13-10.29-1.3-16.38l12.04 14.15q3.67-.34 6.66-1.57.49-.21.31-.71-.31-.89-1.24-1.25c-3.25-3.98-9.77-12.82-12.36-13.84q-.48-.19-.96-.01l-13.47 4.95q-.43.16-.4.62zm-252.13-.93-1.3-.04a.42.42 0 0 0-.43.4v.13a3.13.93-88 0 0 .82 3.16l.28.01a3.13.93-88 0 0 1.03-3.09l.01-.13a.42.42 0 0 0-.41-.44M301 138.46l2.75-.64q.57-.14.39-.7l-2.35-7.62c-1.07-1.5-4.43-.04-5.86.54q-.53.22-.4.77c.53 2.19 1.61 10.09 5.47 7.65m-236.55-.73c-3-.65-1.96 2.29-.99 3.45q.4.47.61-.11l.9-2.38a.72.72 0 0 0-.52-.96m-29.46 4.06q1.03.38 1.91-.37.37-.32-.11-.4-1.04-.19-1.85.41-.3.23.05.36"/><path d="M373.29 84q.53-2.49 2.15-6.56.33-.83-.69-.9l-.39-.24q-.39-.26-.85-.14l-5.45 1.48q-.62.17-.75.79-.66 3.11-2.33 5.74-2.9-.49-5.19.08-.45-1.8-1.75-3-2.83-.85-5.48.65-.3.17-.23.52l.18.96q.13.62-.51.62l-14 .04q-58.76-.06-117.49-.05-23.62.01-30.58-21.84c-.96-3-1.2-10.44-.37-13.63q4.89-18.95 23.94-22.73c3.98-.78 9.44-.77 13.79-.77q104.36-.04 208.71.18c9.07.02 20.46-1.1 28.77 1.72 31.59 10.69 23.94 56.65-10.58 56.86q-40.45.25-80.9.22m99.9-43.26a7.11 7.11 0 0 0-7.11-7.11 7.11 7.11 0 0 0-7.11 7.11 7.11 7.11 0 0 0 7.11 7.11 7.11 7.11 0 0 0 7.11-7.11M221.45 72.5a.33.33 0 0 0 .33-.33l-.06-24.65a.33.33 0 0 1 .61-.17l15.42 24.79a.33.33 0 0 0 .28.16l10.4.01a.33.33 0 0 0 .33-.33l-.02-35.15a.33.33 0 0 0-.33-.33h-9.84a.33.33 0 0 0-.33.33l.01 24.71a.33.33 0 0 1-.61.17l-15.52-25.05a.33.33 0 0 0-.28-.16h-10.5a.33.33 0 0 0-.33.33l-.03 35.34a.33.33 0 0 0 .33.33zm44.779-35.778a.26.26 0 0 0-.261-.26l-10.06.036a.26.26 0 0 0-.26.26l.023 6.5a.26.26 0 0 0 .261.26l10.06-.036a.26.26 0 0 0 .26-.26zM417.5 49.47a.37.37 0 0 1-.57.32c-11.27-6.89-24.37 5.32-17.75 17.02 3.43 6.08 11.04 8.24 17.37 4.47q.51-.3.81.21l.3.51q.3.5.88.5h8.75q.47 0 .47-.48l-.01-35.05q0-.47-.47-.47l-9.25-.01q-.53 0-.53.54zM321.61 45a.36.36 0 0 1-.36-.36v-4.02a.36.36 0 0 0-.36-.36l-9.78-.03a.36.36 0 0 0-.37.35l-.06 4.07a.36.36 0 0 1-.36.35h-5.12a.36.36 0 0 0-.36.31l-.34 2.53a.36.36 0 0 0 .36.41h5.55a.36.36 0 0 1 .36.36l-.05 23.53a.36.36 0 0 0 .36.36h9.81a.36.36 0 0 0 .36-.36V48.59a.36.36 0 0 1 .36-.36l5.29.07a.36.36 0 0 0 .36-.37l-.03-2.58a.36.36 0 0 0-.36-.35zm141.86 15.355a15.74 13.38-.2 0 0-15.787-13.325 15.74 13.38-.2 0 0-15.693 13.435 15.74 13.38-.2 0 0 15.787 13.325 15.74 13.38-.2 0 0 15.693-13.435M341.76 47.24c-14.96.16-22.61 18.37-6.94 25.2 7.82 3.4 18.22.85 22.3-7.31q.31-.63-.39-.63h-9.43q-.48 0-.44.48c.48 4.72-4.36 8.87-8.21 4.61-1.84-2.03-1.18-5.66-1.3-8.44q-.03-.65.62-.65h19.52q.49 0 .46-.49c-.47-8.11-8.73-12.85-16.19-12.77m-58.77 2.95.06-.71q.05-.74-.69-.74l-9.26.01q-.39 0-.39.4l.06 22.76q0 .38.39.38l9.66.03a.21.21 0 0 0 .21-.21l.04-15.79q0-.6.34-1.1c2.39-3.49 7.15-4.51 9.62-.73 1.57 2.41.72 13.96.73 17.35q0 .42.42.43l9.59.24q.46.01.47-.45c.04-5.42.89-13.9-1.28-18.19-3.62-7.18-12.86-7.99-19-3.16a.6.6 0 0 1-.97-.52m89.23.24.12-1.2q.06-.58-.52-.57l-9.59.13q-.48.01-.48.48v22.48q0 .75.75.75h9.23q.61 0 .6-.61c-.08-3.55-1.41-16.51 2.07-18.71q4.89-3.09 8.09 1.74.26.38.26.85v15.98q0 .75.75.75h9.48q.51 0 .51-.5c.05-9.46 2.19-23.2-11.1-24.46q-4.72-.45-9.43 3.3-.85.68-.74-.41m-106.03-1.45a.26.26 0 0 0-.26-.259l-9.96.018a.26.26 0 0 0-.26.26l.04 23.1a.26.26 0 0 0 .26.26l9.96-.018a.26.26 0 0 0 .26-.26z"/><path d="M472.05 40.77a6 6 0 0 1-6 6 6 6 0 0 1-6-6 6 6 0 0 1 6-6 6 6 0 0 1 6 6m-7.4.38a.53.53 0 0 1 .96-.27c.4.55 2.41 3.9 2.94 3.61q.64-.35.18-.92l-1.29-1.61q-.38-.46.16-.71 2.33-1.09 1.39-3.67-.25-.66-.95-.71l-3.36-.24q-1.65-.12-1.47 1.53c.13 1.11-.27 6.67.76 6.59q.43-.03.46-.46z"/><path d="M467.57 37.72a.53.53 0 0 1 .48.58l-.08.86a1.56 1.47 5.6 0 1-1.7 1.31l-.34-.03a1.56 1.47 5.6 0 1-1.41-1.62l.09-.85a.53.53 0 0 1 .58-.48z"/><rect width="9.04" height="21.38" x="443.12" y="49.69" rx="4.33"/><path d="M338.09 57.24a.6.6 0 0 1-.61-.59l-.01-1.65a5.19 4.64 89.4 0 1 4.58-5.24h.24a5.19 4.64 89.4 0 1 4.7 5.14l.01 1.65a.6.6 0 0 1-.59.61zM156.216 64.12a.5.5 0 0 1-.237.666l-13.532 6.425a.5.5 0 0 1-.666-.237l-6.417-13.514a.5.5 0 0 1 .237-.666l13.532-6.425a.5.5 0 0 1 .666.237zm-4.746-3.35a5.7 5.7 0 0 0-5.7-5.7 5.7 5.7 0 0 0-5.7 5.7 5.7 5.7 0 0 0 5.7 5.7 5.7 5.7 0 0 0 5.7-5.7"/><rect width="8.96" height="18.38" x="-4.48" y="-9.19" rx="4.25" transform="rotate(.5 -6722.798 47358.54)"/><path d="M140.114 71.68a.52.52 0 0 1-.247.692l-13.46 6.391a.52.52 0 0 1-.692-.247l-6.409-13.495a.52.52 0 0 1 .247-.693l13.46-6.391a.52.52 0 0 1 .692.247zm-4.714-3.3a5.7 5.7 0 0 0-5.7-5.7 5.7 5.7 0 0 0-5.7 5.7 5.7 5.7 0 0 0 5.7 5.7 5.7 5.7 0 0 0 5.7-5.7M118.675 77.348a4.51 4.51 0 0 1-2.15 6.005l-33.107 15.65a4.51 4.51 0 0 1-6.005-2.15l-1.068-2.26a4.51 4.51 0 0 1 2.15-6.006l33.107-15.65a4.51 4.51 0 0 1 6.005 2.15zm-6.438.701a1.43 1.43 0 0 0-1.908-.668l-10.254 4.935a1.43 1.43 0 0 0-.669 1.909l.677 1.406a1.43 1.43 0 0 0 1.908.668l10.255-4.935a1.43 1.43 0 0 0 .668-1.909zm-17.47 8.015a1.38 1.38 0 0 0-1.841-.648l-10.353 4.96a1.38 1.38 0 0 0-.648 1.84l.708 1.48a1.38 1.38 0 0 0 1.841.648l10.353-4.96a1.38 1.38 0 0 0 .648-1.84zM62.66 101.69l3.1 6.76a.62.62 0 0 1-.3.82l-13.39 6.38a.62.62 0 0 1-.82-.29l-3.38-6.78a.62.62 0 0 0-.82-.28l-6.77 3.16a.62.62 0 0 1-.82-.3l-6.39-13.45a.62.62 0 0 1 .29-.83l6.79-3.27a.62.62 0 0 0 .29-.83l-3.16-6.72a.62.62 0 0 1 .3-.82l13.44-6.38a.62.62 0 0 1 .82.29l3.32 6.75a.62.62 0 0 0 .82.29l6.74-3.2a.62.62 0 0 1 .83.29l6.43 13.43a.62.62 0 0 1-.29.82l-6.74 3.34a.62.62 0 0 0-.29.82m-20.97-8.53a.7.7 0 0 1-.32.93L35.36 97a.7.7 0 0 0-.33.93l5.53 11.64a.7.7 0 0 0 .93.33l5.94-2.86a.7.7 0 0 1 .93.33l2.92 6.03a.7.7 0 0 0 .93.33l11.68-5.59a.7.7 0 0 0 .33-.93l-2.85-5.91a.7.7 0 0 1 .33-.93l6.03-2.89a.7.7 0 0 0 .33-.93l-5.55-11.61a.7.7 0 0 0-.93-.33l-5.97 2.83a.7.7 0 0 1-.93-.34l-2.84-6.04a.7.7 0 0 0-.93-.33L39.2 86.24a.7.7 0 0 0-.33.93zM320.79 103.75q2.98 4.38 5.05 9.24.21.49-.27.71-2.13 1.02-4.52 1.1z"/></g><g fill="#ff151f"><path d="m370.29 93.25 3-9.25q40.45.03 80.9-.22c34.52-.21 42.17-46.17 10.58-56.86-8.31-2.82-19.7-1.7-28.77-1.72q-104.35-.22-208.71-.18c-4.35 0-9.81-.01-13.79.77q-19.05 3.78-23.94 22.73c-.83 3.19-.59 10.63.37 13.63q6.96 21.85 30.58 21.84 58.73-.01 117.49.05c-.89 2.06-3.9 2.09-3.93 3.56q-.01.5-.25.94l-2.56 4.68-8.2.05q-.24 0-.29.23-.03.13-.06.25-.51-1.47-1.96-1.96-4-1.88-6.54 1.46-47.11.03-94.2-.17c-53.7-.22-53.72-77.1.8-77.19q116.56-.18 233.12-.11c23.09.01 40.4 17.53 40.66 40.48.05 3.83-2.22 11.54-4.12 15.06q-8.68 16.07-25.42 20.38-5.75 1.48-19.88 1.51-37.43.08-74.88.04"/><path d="M473.19 40.74a7.11 7.11 0 0 1-7.11 7.11 7.11 7.11 0 0 1-7.11-7.11 7.11 7.11 0 0 1 7.11-7.11 7.11 7.11 0 0 1 7.11 7.11m-1.14.03a6 6 0 0 0-6-6 6 6 0 0 0-6 6 6 6 0 0 0 6 6 6 6 0 0 0 6-6M221.45 72.5h-10.14a.33.33 0 0 1-.33-.33l.03-35.34a.33.33 0 0 1 .33-.33h10.5a.33.33 0 0 1 .28.16l15.52 25.05a.33.33 0 0 0 .61-.17l-.01-24.71a.33.33 0 0 1 .33-.33h9.84a.33.33 0 0 1 .33.33l.02 35.15a.33.33 0 0 1-.33.33l-10.4-.01a.33.33 0 0 1-.28-.16l-15.42-24.79a.33.33 0 0 0-.61.17l.06 24.65a.33.33 0 0 1-.33.33"/><rect width="10.58" height="7.02" x="-5.29" y="-3.51" rx=".26" transform="rotate(-.2 11586.754 -74736.597)"/><path d="M417.5 49.47V37.03q0-.54.53-.54l9.25.01q.47 0 .47.47l.01 35.05q0 .48-.47.48h-8.75q-.58 0-.88-.5l-.3-.51q-.3-.51-.81-.21c-6.33 3.77-13.94 1.61-17.37-4.47-6.62-11.7 6.48-23.91 17.75-17.02a.37.37 0 0 0 .57-.32m.043 6.1a4.25 4.25 0 0 0-4.213-4.288l-.46-.004a4.25 4.25 0 0 0-4.287 4.213l-.086 9.88a4.25 4.25 0 0 0 4.213 4.287l.46.004a4.25 4.25 0 0 0 4.287-4.213zM464.65 41.15l-.22 3.14q-.03.43-.46.46c-1.03.08-.63-5.48-.76-6.59q-.18-1.65 1.47-1.53l3.36.24q.7.05.95.71.94 2.58-1.39 3.67-.54.25-.16.71l1.29 1.61q.46.57-.18.92c-.53.29-2.54-3.06-2.94-3.61a.53.53 0 0 0-.96.27m2.92-3.43-2.38-.23a.53.53 0 0 0-.58.48l-.09.85a1.56 1.47 5.6 0 0 1.41 1.62l.34.03a1.56 1.47 5.6 0 0 1.7-1.31l.08-.86a.53.53 0 0 0-.48-.58M321.61 45h5.26a.36.36 0 0 1 .36.35l.03 2.58a.36.36 0 0 1-.36.37l-5.29-.07a.36.36 0 0 0-.36.36v23.55a.36.36 0 0 1-.36.36h-9.81a.36.36 0 0 1-.36-.36l.05-23.53a.36.36 0 0 0-.36-.36h-5.55a.36.36 0 0 1-.36-.41l.34-2.53a.36.36 0 0 1 .36-.31h5.12a.36.36 0 0 0 .36-.35l.06-4.07a.36.36 0 0 1 .37-.35l9.78.03a.36.36 0 0 1 .36.36v4.02a.36.36 0 0 0 .36.36M463.47 60.355a15.74 13.38-.2 0 1-15.693 13.435 15.74 13.38-.2 0 1-15.787-13.325 15.74 13.38-.2 0 1 15.693-13.435 15.74 13.38-.2 0 1 15.787 13.325m-11.31-6.335a4.33 4.33 0 0 0-4.33-4.33h-.38a4.33 4.33 0 0 0-4.33 4.33v12.72a4.33 4.33 0 0 0 4.33 4.33h.38a4.33 4.33 0 0 0 4.33-4.33z"/><path d="M334.82 72.44c-15.67-6.83-8.02-25.04 6.94-25.2 7.46-.08 15.72 4.66 16.19 12.77q.03.49-.46.49h-19.52q-.65 0-.62.65c.12 2.78-.54 6.41 1.3 8.44 3.85 4.26 8.69.11 8.21-4.61q-.04-.48.44-.48h9.43q.7 0 .39.63c-4.08 8.16-14.48 10.71-22.3 7.31m3.27-15.2 8.32-.08a.6.6 0 0 0 .59-.61l-.01-1.65a5.19 4.64 89.4 0 0-4.7-5.14h-.24a5.19 4.64 89.4 0 0-4.58 5.24l.01 1.65a.6.6 0 0 0 .61.59M282.99 50.19a.6.6 0 0 0 .97.52c6.14-4.83 15.38-4.02 19 3.16 2.17 4.29 1.32 12.77 1.28 18.19q-.01.46-.47.45l-9.59-.24q-.42-.01-.42-.43c-.01-3.39.84-14.94-.73-17.35-2.47-3.78-7.23-2.76-9.62.73q-.34.5-.34 1.1l-.04 15.79a.21.21 0 0 1-.21.21l-9.66-.03q-.39 0-.39-.38l-.06-22.76q0-.4.39-.4l9.26-.01q.74 0 .69.74zM372.96 50.84q4.71-3.75 9.43-3.3c13.29 1.26 11.15 15 11.1 24.46q0 .5-.51.5h-9.48q-.75 0-.75-.75V55.77q0-.47-.26-.85-3.2-4.83-8.09-1.74c-3.48 2.2-2.15 15.16-2.07 18.71q.01.61-.6.61h-9.23q-.75 0-.75-.75V49.27q0-.47.48-.48l9.59-.13q.58-.01.52.57l-.12 1.2q-.11 1.09.74.41"/><rect width="10.48" height="23.62" x="-5.24" y="-11.81" rx=".26" transform="rotate(-.1 34817.341 -149494.488)"/><circle cx="145.81" cy="60.81" r="4.26"/><circle cx="129.7" cy="68.38" r="5.7"/><path d="M364.98 84.17q.11 4.53-3.02 8.33l-2.17-8.25q2.29-.57 5.19-.08"/></g><g fill="#010101"><path d="M101.79 37.5c-.21.29-.52.7-.86.86Q46.55 64.18 21.2 75.97q-.4.18-.66-.47l-.39-1.6q-.13-.55.34-.87 2.3-1.59.2-3.58-.52-.5.18-.69 2.27-.63 1.38-3.51l8.93-4.89q.48-.26.37-.79-.39-1.88-2.53-2.13-.64-.07-.51-.71l.15-.77a.95.95 0 0 1 1.64-.44l2.93 3.29q.34.39.85.34l6.31-.52q.68-.06.99-.66 1.51-2.87 4.64-2.27.43.09.77-.2 1.01-.85 2.11-.25.47.26.78-.18 2.4-3.37.86-7.08-.2-.49.1-.94c1.47-2.18 4.73-5.81 2.2-8.29q-.43-.42-.09-.91l4.04-5.84q.27-.39.1-.84-.26-.66-.05-1.36.24-.81.89-.27 1.6 1.32 1.53 3.44-.03.68.64.83l3.18.72q.79.18.87-.63l.14-1.36q.05-.57.61-.68c2.27-.43 4.94.89 4.79-2.85q-.05-1.34 1.28-1.84.48-.18.48.33v.71q0 .82.73.46c3.36-1.65 3.9-5.31 4.51-8.6q.09-.53.47-.91l1.32-1.32a.41.41 0 0 1 .66.46l-3.18 6.93q-.15.32.19.4 4.18.9 12.83 3.86 2.1.72 2.77-1c.57-1.47-.55-3.29-1.05-4.77a.7.69-16.4 0 1 .5-.91c4.02-.96 2.5 5.1 2.29 7.07q-.05.49.29.86 3.68 3.97 8.21 6.76M63.06 66.25c.73 3.26 3.88 3.81 6.77 2.41q15.8-7.65 31.67-15.18c3.15-1.5 4.99-3.77 2.33-6.94a.39.39 0 0 1 .14-.6l44.43-20.85q.55-.26.8.29l19.36 40.74q.29.62-.33.91L39.16 127.88q-.67.31-.98-.35l-19.34-40.8q-.25-.54.29-.79l42.86-20.22a.77.76 71 0 1 1.07.53m86.74-15.644a.5.5 0 0 0-.667-.237l-13.532 6.425a.5.5 0 0 0-.237.666l6.417 13.514a.5.5 0 0 0 .666.237l13.532-6.425a.5.5 0 0 0 .237-.666zm-40.987 6.052a3.32 3.32 0 0 0-4.42-1.583L69.278 71.674a3.32 3.32 0 0 0-1.583 4.42l.052.108a3.32 3.32 0 0 0 4.42 1.583l35.115-16.598a3.32 3.32 0 0 0 1.583-4.42zm24.892 1.526a.52.52 0 0 0-.692-.247l-13.46 6.39a.52.52 0 0 0-.247.694l6.409 13.495a.52.52 0 0 0 .692.247l13.46-6.39a.52.52 0 0 0 .247-.694zm-20.61 7.578a3.36 3.36 0 0 0-4.474-1.602L73.596 80.716a3.36 3.36 0 0 0-1.601 4.474l.05.108A3.36 3.36 0 0 0 76.52 86.9l35.025-16.556a3.36 3.36 0 0 0 1.601-4.474zm4.512 9.326a4.51 4.51 0 0 0-6.005-2.15l-33.107 15.65a4.51 4.51 0 0 0-2.15 6.004l1.068 2.26a4.51 4.51 0 0 0 6.005 2.15l33.107-15.65a4.51 4.51 0 0 0 2.15-6.004zM62.66 101.69a.62.62 0 0 1 .29-.82l6.74-3.34a.62.62 0 0 0 .29-.82l-6.43-13.43a.62.62 0 0 0-.83-.29l-6.74 3.2a.62.62 0 0 1-.82-.29l-3.32-6.75a.62.62 0 0 0-.82-.29l-13.44 6.38a.62.62 0 0 0-.3.82l3.16 6.72a.62.62 0 0 1-.29.83l-6.79 3.27a.62.62 0 0 0-.29.83l6.39 13.45a.62.62 0 0 0 .82.3l6.77-3.16a.62.62 0 0 1 .82.28l3.38 6.78a.62.62 0 0 0 .82.29l13.39-6.38a.62.62 0 0 0 .3-.82zM106.31 34.64a.65.65 0 0 1-.44-1.17l.91-.66a.59.59 0 0 1 .93.55q-.15 1.15-1.4 1.28M160.23 39.85c13.51 2.95 17.27 10.54 11.48 23.4h-.25q-.09 0-.13-.08-6.02-11.46-11.1-23.32"/><ellipse rx=".69" ry=".62" transform="rotate(136.1 9.924 35.443)"/><path d="M22.25 65.25q-2.36-1.72-2.47-4.5-.06-1.37.66-.2 1.33 2.14 1.81 4.7M168.67 70.11c-1.69 5.53-3.73 11.22-9.16 12.59q-.51.13-.88.5-2.26 2.28-2.37 5.54-.02.56-.46.89l-2.2 1.65q-.53.4-.91-.15l-.76-1.1q-.32-.46-.87-.41c-2.45.25-4.02-1.02-6.02-1.1q-4.36-.18-8.27 1.85-.55.28-.53-.34.01-.16.02-.36.02-.32-.3-.35l-5.86-.42q-.56-.04-.56.53-.02 4.66-3.53 6.82c-2.64 1.61-5.3-.03-6.05-2.75-.1-.74 44.34-21.35 48.71-23.39M18.25 77.04q-.36 1.12-1.71.71-1.17-.49-1.14-1.46.02-.65.65-.48 1.23.33 2.2 1.23"/><rect width="14.24" height="4.42" x="-7.12" y="-2.21" rx="1.43" transform="rotate(-25.7 232.465 -191.772)"/><path d="m41.69 93.16-2.82-5.99a.7.7 0 0 1 .33-.93l11.71-5.51a.7.7 0 0 1 .93.33l2.84 6.04a.7.7 0 0 0 .93.34l5.97-2.83a.7.7 0 0 1 .93.33l5.55 11.61a.7.7 0 0 1-.33.93l-6.03 2.89a.7.7 0 0 0-.33.93l2.85 5.91a.7.7 0 0 1-.33.93l-11.68 5.59a.7.7 0 0 1-.93-.33l-2.92-6.03a.7.7 0 0 0-.93-.33l-5.94 2.86a.7.7 0 0 1-.93-.33l-5.53-11.64a.7.7 0 0 1 .33-.93l6.01-2.91a.7.7 0 0 0 .32-.93m15.16 4.08a5.43 5.43 0 0 0-5.43-5.43 5.43 5.43 0 0 0-5.43 5.43 5.43 5.43 0 0 0 5.43 5.43 5.43 5.43 0 0 0 5.43-5.43"/><rect width="14.24" height="4.4" x="-7.12" y="-2.2" rx="1.38" transform="rotate(-25.6 242.154 -150.267)"/><path d="M341.5 92.96c-5.82 1.05-2.61 13.82-1 17.46q.2.47-.22.75-2.49 1.68-5.88 1.81l4.88-1.93q.56-.23.32-.78c-2.05-4.82-5.33-18.4 3.13-18.77q.87-.04.08.33-.83.4-1.31 1.13M160.04 92.56a.93.92 24.9 0 1 .43 1.17l-1.14 2.82q-.32.79-.6-.02l-.98-2.85q-.22-.64.33-1.03.89-.64 1.96-.09M17.4 94.15l18.21 38.11q.22.45.67.24l37.1-17.43q-1.94 6.41-5.36 11.81-.27.42-.73.59c-3.24 1.2-6.13 2.61-6.03 6.38q.02.58-.41.97l-1.94 1.75q-.58.53-1.04-.1l-.63-.83q-.35-.48-.95-.41-2.1.28-3.81-.86-.46-.3-1.02-.27c-3.43.24-6.43.12-8.18 1.91q-.55.57-.52-.22.01-.29-.1-.54-.2-.47-.71-.51l-4.59-.31q-.52-.04-.58.48c-.41 3.52-2.7 8.68-7.18 6.26-3.78-2.05-1.13-5.55.51-7.81a1.68 1.68 0 0 0-.93-2.62l-4.13-1.08q-.66-.17-.45-.81l.1-.34q.16-.5-.29-.77l-4.21-2.51q-.42-.25-.43-.74-.09-3.25-2.85-4.91-.49-.29-.42-.86c.41-3.43.87-6.09-1.17-8.3q-.34-.38-.21-.86c.57-2.09 2.15-5.35-.17-6.91q-.43-.28-.45-.8c-.1-2.72 1.98-5.23.82-7.51q-.35-.68.4-.53zM306.59 94.9l7.12 25.35.33 1-.09.67q-.07.59-.67.59l-.74-.01c1.14-1.55.21-2.17-.11-3.49q-3.26-13.55-5.32-19.84-.83-2.54-.52-4.27M106.71 99.25q.09 3.86-2.91 5.95-.55.38-.93-.17l-.69-1q-.38-.56-1.03-.36-1.31.4-2.19-.42zM320.79 103.75l.26 11.05c-1.67.27-.79-1.06-.82-1.8q-.18-4.69-.83-10.23a.57.57 0 0 1 .88-.54q.64.43.51 1.52M370.77 102.38c-2.83 6.09-.35 10.61 1.3 16.38q.14.5-.28.8-.97.71-2.25.69l1.39-1.36q.37-.36.21-.86-2.29-7.33-2.86-10.79-.5-3.12 2.49-4.86M109.33 106.07a.42.42 0 0 1 .41.44l-.01.13a3.13.93-88 0 1-1.03 3.09l-.28-.01a3.13.93-88 0 1-.82-3.16v-.13a.42.42 0 0 1 .43-.4zM361.04 107h.42l1 3.5c-.67 6.81-.39 12.51-8.21 14.71 7.84-4.55 7.32-10.02 6.79-18.21M318.5 119.46l.75.25q-1.62 1.1-3.5 1zM296.25 120.46l.5.08 1 5.46q-1.9-2.46-1.5-5.54M333.25 120.96l-8.35 2.2q-.48.12-.46.62l.36 7.92q.03.57-.52.72l-8.58 2.27q-.39.11-.69-.17l-.26-.23 8.27-2.12a1.3 1.29 81.5 0 0 .97-1.32l-.38-7.1q-.03-.61.54-.83 4.49-1.8 9.1-1.96M64.45 137.73a.72.72 0 0 1 .52.96l-.9 2.38q-.21.58-.61.11c-.97-1.16-2.01-4.1.99-3.45"/></g><g fill="#b7b6b8"><ellipse rx="3.02" ry=".74" transform="rotate(89.5 25.358 41.005)"/><path d="M160.23 39.85q5.08 11.86 11.1 23.32.04.08.13.08h.25q.04 2.17 1.31 3.95.37.53-.2.82l-4.15 2.09c-4.37 2.04-48.81 22.65-48.71 23.39q-.55-.46-.96-.25-6.06 3.18-12.29 6l-7.75 4q-13.01 5.45-25.58 11.82l-37.1 17.43q-.45.21-.67-.24L17.4 94.15l-5.67-11.89q-.21-.43-.62-.68l-.4-.24q-.82-.49.1-.71 3.26-.78 5.73-2.88 1.35.41 1.71-.71 1.42-.4 2.29-1.54.26.65.66.47 25.35-11.79 79.73-37.61c.34-.16.65-.57.86-.86q2.34-.1 4.46-1.27 6.59-3.63 13.49-6.69.51-.23.79-.7l.5-.84q.37-.61.79-.03l.24.32q.13.17.32.08l25.52-12.15q.83-.39 1.23.44zm-90.4 28.81c-2.89 1.4-6.04.85-6.77-2.41a.77.76 71 0 0-1.07-.53L19.13 85.94q-.54.25-.29.79l19.34 40.8q.31.66.98.35l129.07-60.85q.62-.29.33-.91L149.2 25.38q-.25-.55-.8-.29l-44.43 20.85a.39.39 0 0 0-.14.6c2.66 3.17.82 5.44-2.33 6.94q-15.87 7.53-31.67 15.18M121.58 18.95c-.22 1.31-1.38 1.14-1.68.05a.57.57 0 0 1 .5-.72l.53-.04q.77-.06.65.71M110.47 31.75q-1.51-1.99-1.67-4.53-.04-.65.35-.13 1.47 1.98 1.92 4.4a.34.33 21.4 0 1-.6.26M17.31 54.46l-.33.44q-.1.14-.24.04-1.6-1.19.27-1.11.74.03.3.63"/><rect width="45.48" height="6.76" x="-22.74" y="-3.38" rx="3.32" transform="rotate(-25.3 192.129 -163.45)"/><ellipse rx="2.36" ry=".63" transform="rotate(40.5 -81.518 49.244)"/><rect width="45.46" height="6.84" x="-22.73" y="-3.42" rx="3.36" transform="rotate(-25.3 214.546 -168.457)"/><path d="M127.42 97.5a.45.45 0 0 1-.21-.82q1.08-.73 2.42-.68.66.03.23.53-.94 1.09-2.44.97M314.46 119.75l1.04.96-1.46.54-.33-1z"/></g><g fill="#2d2a2a"><ellipse cx="81" cy="8.75" rx=".74" ry=".52"/><path d="M374.75 76.54q1.02.07.69.9-1.62 4.07-2.15 6.56l-3 9.25-.29 1.46q-.54-.25-.81-.76-.24-.45-.07-.93zM358.04 81.25q1.3 1.2 1.75 3l2.17 8.25q.43.93.26 1.79a.35.35 0 0 1-.67.05q-2.29-6.44-3.51-13.09M355.46 95.75l-5.46.79q1.47-.96 3.31-1.06a.86.86 0 0 0 .71-1.27l-2.79-5.19q-.46-.86.2-.14 2.79 2.99 4.03 6.87"/><circle cx="51.42" cy="97.24" r="5.43"/><path d="M320.75 91.79q1.45.49 1.96 1.96l10.73 19.64a.81.81 0 0 1-.42 1.15l-13.77 5.17-.75-.25 13.88-5.22a.74.73 65.1 0 0 .38-1.05zM372.29 97.25q.72.29.89.9.14.51-.36.69l-13.98 5.02q5.89-3.04 12.16-4.86.82-.24 1.29-1.75M290.66 99.34q2.31 6.55 3.34 13.12-.13.03-.3.04-.3.03-.35-.26c-.67-3.31-3.28-9.89-2.69-12.9M343.5 112.04q1.89 1.25 2.75 3.42-2.12-1.01-2.75-3.42M388.54 113q.93.36 1.24 1.25.18.5-.31.71-2.99 1.23-6.66 1.57c1.35-.6 6.42-1.1 5.73-3.53M337.29 115.5l.71.21.79 1.54 2.46 4.96q-2.46-3.08-3.96-6.71M305.37 118.17l-8.62 2.37-.5-.08q4.2-1.91 9.12-2.29M343.21 125.5l.74 1.18q.28.46-.25.56l-1.2.22zM297.75 126q.85.88.33 1.93-.24.5-.77.68l-1.81.6-.26-.25q-.33-.3.12-.31 2.6-.08 2.39-2.65M301.79 129.5l2.35 7.62q.18.56-.39.7l-2.75.64 2.11-1.24q.51-.3.29-.84-1.32-3.32-1.61-6.88M34.99 141.79q-.35-.13-.05-.36.81-.6 1.85-.41.48.08.11.4-.88.75-1.91.37"/></g><g fill="#ff210b"><path d="M151.47 60.77a5.7 5.7 0 0 1-5.7 5.7 5.7 5.7 0 0 1-5.7-5.7 5.7 5.7 0 0 1 5.7-5.7 5.7 5.7 0 0 1 5.7 5.7m-1.4.04a4.26 4.26 0 0 0-4.26-4.26 4.26 4.26 0 0 0-4.26 4.26 4.26 4.26 0 0 0 4.26 4.26 4.26 4.26 0 0 0 4.26-4.26M374.75 76.54l-5.63 16.48q-.17.48.07.93.27.51.81.76l2.29 2.54q-.47 1.51-1.29 1.75-6.27 1.82-12.16 4.86l-.89-.47q-.45-.24-.58-.73l-1.91-6.91q-1.24-3.88-4.03-6.87-.66-.72-.2.14l2.79 5.19a.86.86 0 0 1-.71 1.27q-1.84.1-3.31 1.06c-2.1.01-1.93-1.82-3.09-2.94q-.37-.36-.88-.39l-4.53-.25q.48-.73 1.31-1.13.79-.37-.08-.33c-8.46.37-5.18 13.95-3.13 18.77q.24.55-.32.78l-4.88 1.93q-4.29-9.44-3.14-19.76l2.56-4.68q.24-.44.25-.94c.03-1.47 3.04-1.5 3.93-3.56l14-.04q.64 0 .51-.62l-.18-.96q-.07-.35.23-.52 2.65-1.5 5.48-.65 1.22 6.65 3.51 13.09a.35.35 0 0 0 .67-.05q.17-.86-.26-1.79 3.13-3.8 3.02-8.33 1.67-2.63 2.33-5.74.13-.62.75-.79l5.45-1.48q.46-.12.85.14zM320.75 91.79l12.01 21.4a.74.73 65.1 0 1-.38 1.05l-13.88 5.22-2.75 1.25h-.25l-1.04-.96-.25-26.5q2.54-3.34 6.54-1.46m.3 23.01q2.39-.08 4.52-1.1.48-.22.27-.71-2.07-4.86-5.05-9.24.13-1.09-.51-1.52a.57.57 0 0 0-.88.54q.65 5.54.83 10.23c.03.74-.85 2.07.82 1.8M306.59 94.9q-.31 1.73.52 4.27 2.06 6.29 5.32 19.84c.32 1.32 1.25 1.94.11 3.49q-2.08 1.85-4.67.94-.54-.19-.6-.76-.27-2.56-1.9-4.51-4.92.38-9.12 2.29-.4 3.08 1.5 5.54.21 2.57-2.39 2.65-.45.01-.12.31l.26.25q-1.48.95-3.01.31-.49-.21-.62-.72l-7.52-28.13q-.1-.39.25-.59 2.82-1.63 6.06-.74c-.59 3.01 2.02 9.59 2.69 12.9q.05.29.35.26.17-.01.3-.04c.87.76 7.87-1.55 9.19-1.9a.9.9 0 0 0 .63-1.1l-3.51-13.02q-.14-.52.34-.78 2.55-1.36 5.94-.76M388.54 113c.69 2.43-4.38 2.93-5.73 3.53l-12.04-14.15q-2.99 1.74-2.49 4.86.57 3.46 2.86 10.79.16.5-.21.86l-1.39 1.36c-2.73 1.57-3.98.21-4.59-2.43q-.87-3.79-2.49-7.32l-1-3.5-.11-2.28q-.03-.46.4-.62l13.47-4.95q.48-.18.96.01c2.59 1.02 9.11 9.86 12.36 13.84M361.04 107c.53 8.19 1.05 13.66-6.79 18.21-8.13 1.05-10.29-3.05-15.46-7.96l-.79-1.54-.19-1.25q-.08-.55.37-.88 2.37-1.77 5.32-1.54.63 2.41 2.75 3.42c6.47 6.99 9.68-1.77 9.01-7.15q-.06-.48.36-.71 2.65-1.48 5.42-.6M337.29 115.5q1.5 3.63 3.96 6.71l1.96 3.29-.71 1.96q-2.4 1.3-4.9.53-.51-.16-.77-.62l-3.58-6.41q-4.61.16-9.1 1.96-.57.22-.54.83l.38 7.1a1.3 1.29 81.5 0 1-.97 1.32l-8.27 2.12c-1.82.03-3.19-7.54-3.56-9.15q-.11-.49.3-.77 2.55-1.72 5.62-1.63.49.02.72-.42l.36-.7q.19-.35.56-.49 7.46-2.93 15.03-5.58c1.23-.43 2.06-1.86 3.51-.05M301.79 129.5q.29 3.56 1.61 6.88.22.54-.29.84l-2.11 1.24c-3.86 2.44-4.94-5.46-5.47-7.65q-.13-.55.4-.77c1.43-.58 4.79-2.04 5.86-.54"/></g></svg>