<svg xmlns="http://www.w3.org/2000/svg" viewBox="0 0 984 177"><g fill="#fff"><path d="M105.06 0h2.75c8.62 1.51 14.59 3.63 21.75 8.71a.6.6 0 0 0 .77-.06c5.5-5.3 11.11-6.06 17.66-7.93 4.51-1.28 16.32 2.62 19.64 5.96a.45.44 41.7 0 0 .65-.03C171.35 2.89 182.83.64 187.81 0h1.5q14.27 1.63 24.96 10.87a.42.42 0 0 0 .63-.1c3.64-6.04 10.63-9.23 17.57-9.25q15.99-.04 31.99-.02c9.15.01 17.26 3.02 20.86 11.58q.19.45.42.01C291.25 2.44 302.22.26 313.28 1.78q2.85.39 5.41.04 12.11-1.64 22.07 1.4c8.06 2.46 11.9 13.85 14.78 21.08a.47.47 0 0 0 .88-.01c2.13-5.68 4.86-13.08 8.97-17 6.84-6.54 16.91-5.99 25.82-5.73 18.37.52 36.84.07 55.22 0 5.9-.03 12.91 2.74 16.44 7.67a.51.51 0 0 0 .83 0c6.68-9.46 23.67-8.82 33.44-6.63 4.92 1.1 8.11 3.53 10.83 7.51a.53.52-32.7 0 0 .71.15c19.48-11.92 45.74-10.94 63.88 3.99a.58.57-46.2 0 0 .75-.02C581.33 6.97 591 4.05 601.39 2.26c11.35-1.96 23.96 1.61 34.13 6.59a.47.47 0 0 0 .63-.24q.47-1.2 1.46-2.02c7.77-6.49 24.49-6.5 33.9-3.36 8.17 2.74 12.1 13.57 15.12 21.77q.17.46.35 0c4.84-13.1 9.53-23.5 24.29-23.44q23.55.08 36.88-.05c7.8-.09 14.11 1.54 21.12 3.99a1.17 1.14 41.2 0 0 .91-.05c7.49-3.71 26.24-5.42 33.18.27a.58.58 0 0 0 .75-.01c3.04-2.6 11.01-3.47 14.99-3.47 33.84.06 67.81.56 101.64.03 11.68-.18 20.46-.64 28.89 1.14 20.51 4.36 30.28 17.86 33.84 37.85q.73 4.09-.46 8.45c-2.13 7.86-3.46 14.04-9.52 20.93a.71.69 51.3 0 0-.08.81q2.95 5.14 5.9 10.23c2.1 3.62 2.75 7.38 4.08 11.34a1.33 1.3 51 0 1-.1 1.03q-2.47 4.46-.62 9.17a1.63 1.6-50.5 0 1 .08.93c-1.49 7.07-2.76 12.46-9.56 16.04-9.24 4.84-16.97 8.81-26.92 8.81H750.82a.5.5 0 0 0-.5.53c.36 5.75.18 12.71-.44 17.6-1.53 12.01-10.44 22.01-21.94 25.29q-4.62 1.32-16.49 1.33c-12.66.01-31.21 3.27-36.6-12.29a.69.68-9.5 0 0-.65-.46h-9.62a.73.73 0 0 0-.68.47c-3.82 10.32-13.74 12.51-23.9 12.47q-34.87-.16-69.75-.15-2.46 0-10.28-2.85a1.56 1.54 47.1 0 0-.97-.04c-5.73 1.58-10.95 2.87-17.11 2.85q-32.94-.1-65.89.06c-9.83.05-19.5-2.08-23.37-12.35a.7.7 0 0 0-.66-.46h-34.22a1.22 1.2 20 0 0-.92.42c-11.84 13.81-26.56 12.41-43.19 12.32-2.94-.01-5.56-.68-8.4-1.26a1.84 1.75 39.9 0 0-.95.06q-3.33 1.16-4.79 1-20.34-2.26-40.68-4.37-2.24-.24-9.31-2.02a.98.94-57 0 0-.87.2c-8.1 7.01-17.7 6.38-28.15 6.15-3.06-.07-5.69-.92-8.75-1.53-3.84-.77-8.92 1.77-13.22 1.77q-9.76 0-19.52-.05c-18.72-.09-24.67-13.23-20.96-29.9a1.08 1.06 33.4 0 0-.19-.88c-5.64-7.61-6.59-16.31-4.38-25.42q.12-.49-.01-.97-2.43-8.64-.17-17 .52-1.93-.06-3.55a1.09 1.06 87.5 0 0-.71-.67l-3.76-1.11a.58.58 0 0 0-.69.33c-5.69 13.45-16.08 20.06-30.21 22.4-7.32 1.21-15.72-1.52-22.43-4.31a.47.46-69.6 0 0-.62.29q-6.53 20.25-13.2 40.42-2.36 7.14-4.96 10.72c-16.53 22.77-51.83 12.53-54.04-15.43-.69-8.66 4.74-21.97 7.71-30.14a.97.97 0 0 0-.77-1.29q-8.39-1.21-16.09-4.71a.42.42 0 0 0-.58.25q-6.8 20.89-13.68 41.74-2.05 6.21-4.5 9.55c-7.25 9.9-20.71 15.35-33.17 11.23C8.22 170.84.59 159.62.19 145.47q-.07-2.64 2.48-10.37 18.36-55.66 36.7-111.32C44.13 9.31 52.15 3.07 67.05.67c4.77-.77 14.97 2.66 18.73 5.74a.59.58 43.7 0 0 .76-.01c4.34-3.78 12.97-5.36 18.52-6.4m20.35 37.19a19.11 19.11 0 0 0-19.11-19.11 19.11 19.11 0 0 0-19.11 19.11A19.11 19.11 0 0 0 106.3 56.3a19.11 19.11 0 0 0 19.11-19.11m81.95-.01a19.12 19.12 0 0 0-19.12-19.12 19.12 19.12 0 0 0-19.12 19.12 19.12 19.12 0 0 0 19.12 19.12 19.12 19.12 0 0 0 19.12-19.12M80.134 34.437a12.04 12.04 0 0 0-7.677-15.198l-.342-.113a12.04 12.04 0 0 0-15.198 7.677l-38.211 116.22a12.04 12.04 0 0 0 7.677 15.198l.342.113a12.04 12.04 0 0 0 15.198-7.678zm81.98.046a12.06 12.06 0 0 0-7.69-15.223l-.36-.119a12.06 12.06 0 0 0-15.224 7.69l-38.174 116.106a12.06 12.06 0 0 0 7.69 15.223l.36.119a12.06 12.06 0 0 0 15.224-7.69zM244.09 63.25h24.41a.5.5 0 0 0 .5-.5v-13a.5.5 0 0 0-.5-.5H244a.5.5 0 0 1-.5-.5v-15.1a.66.66 0 0 1 .66-.66l24.3.01a.47.47 0 0 0 .47-.46l.27-12.82a.44.44 0 0 0-.44-.45q-12.94-.11-25.82.16c-3.15.06-8.2-.52-12.39.16a.66.65-4.7 0 0-.55.64v71.64a.63.63 0 0 0 .63.63h12.35a.56.55 0 0 0 .56-.55l-.04-28.11a.59.59 0 0 1 .59-.59m58.88-44.02a.37.37 0 0 0-.3.16l-51.2 72.53a.37.37 0 0 0 .3.58h14.82a.37.37 0 0 0 .31-.16l7.5-11.18a.37.37 0 0 1 .31-.16h25.17a.37.37 0 0 1 .37.37v10.77a.37.37 0 0 0 .37.37l12.51-.02a.37.37 0 0 0 .37-.37V19.66a.37.37 0 0 0-.37-.37zm29.65 37.97q1.4 1.86 3.13 5.81 6.35 14.53 12.83 29.03a.79.78 77.6 0 0 .71.46h12.88a.84.82 12 0 0 .76-.48l16.18-35.17q.64-1.38.64.14V92a.5.5 0 0 0 .5.5H393a.5.5 0 0 0 .5-.5V19.89a.61.6 0 0 0-.61-.6l-14.48.03a.91.89-77.8 0 0-.82.54l-21.42 47.88a.31.31 0 0 1-.57 0l-21.37-48.07a.75.75 0 0 0-.7-.45l-14.17.11a.63.63 0 0 0-.63.63l.03 71.92a.62.62 0 0 0 .62.62h12.64a.51.51 0 0 0 .51-.52l-.11-34.72q0-.32.2-.06M412 19.79a.48.48 0 0 0-.48-.48h-13.3a.48.48 0 0 0-.48.48v72.22a.48.48 0 0 0 .48.48h13.3a.48.48 0 0 0 .48-.48zm18.66 59.46a.41.41 0 0 1-.41-.41V19.72a.41.41 0 0 0-.41-.41l-13.64.01a.41.41 0 0 0-.41.41l-.06 72.36a.41.41 0 0 0 .41.41h31.99a.41.41 0 0 0 .41-.41l-.05-12.43a.41.41 0 0 0-.41-.41zm62.38-59.99-14.37.02a.98.98 0 0 0-.88.55l-13.87 28.66a.41.41 0 0 1-.74 0l-14.31-28.81a.87.86 76.5 0 0-.77-.48l-14.5.16a.51.5-13.8 0 0-.45.73Q444.3 42.2 455.52 64.3q1 1.98.99 4.19-.04 11.74.02 23.5a.51.51 0 0 0 .51.51h12.4a.87.86-1.3 0 0 .87-.9q-.53-11.98-.1-23.53.09-2.49 1.23-4.76 11.04-21.88 21.98-43.41a.44.43-76.4 0 0-.38-.64m216.92 37.68a.31.31 0 0 1 .59.13l-.08 35.12a.31.31 0 0 0 .31.31h13.16a.31.31 0 0 0 .31-.31v-72.6a.31.31 0 0 0-.31-.31l-15.06-.02a.31.31 0 0 0-.28.18l-21.59 48.34a.31.31 0 0 1-.56 0l-21.34-48.32a.31.31 0 0 0-.28-.18l-15.02-.04a.31.31 0 0 0-.31.31v72.64a.31.31 0 0 0 .31.31h13.13a.31.31 0 0 0 .31-.31V57.02a.31.31 0 0 1 .59-.13l15.79 35.43a.31.31 0 0 0 .28.18h13.51a.31.31 0 0 0 .28-.18zm33.28 10.58c4.96-.46 10.48.14 14.75-.98 19.22-5 24.01-30.37 8.26-42.17-9.96-7.47-27.45-5.26-36.76-4.86a.51.51 0 0 0-.49.51V92a.5.5 0 0 0 .5.5h12.76a.51.51 0 0 0 .51-.51l-.03-23.92a.56.55-2.9 0 1 .5-.55m-97.83-10.8a37.4 37.4 0 0 0-37.4-37.4 37.4 37.4 0 0 0-37.4 37.4 37.4 37.4 0 0 0 37.4 37.4 37.4 37.4 0 0 0 37.4-37.4M507.23 35.96q-7.59 11.28-6.47 23.88c3.32 36.97 52.06 46.43 70.14 14.37a.3.3 0 0 0-.26-.45l-15.69-.01a1.39 1.37-63.2 0 0-.83.28c-12.47 9.67-28.82 7.24-36.39-6.5-4.87-8.87-2.86-20.66 4.61-27.71 8.78-8.3 22.06-8.26 31.37-.61a1.36 1.36 0 0 0 .84.29l15.89-.01a.3.29-14.7 0 0 .26-.44c-13.5-24.12-47.77-26.38-63.47-3.09M827.8 20.8a.81.81 0 0 0-.81-.81l-12.69.02a.56.56 0 0 0-.56.56q.03 24.72 0 49.5c-.02 13.97-20.03 13.78-20-.33q.05-24.55-.04-49.18a.56.56 0 0 0-.56-.56l-13.03.01a.38.38 0 0 0-.38.38q.07 24.2-.02 48.35c-.12 28.78 38.17 35.39 46.84 9.43q1.5-4.5 1.49-14.48-.02-21.18-.24-42.89m13.9 13.57q.41 9.56.31 19.12c-.14 13.9.14 25.83-.08 38.92A1.07 1.06-89.7 0 0 843 93.5l12.34-.01a.4.4 0 0 0 .4-.4l.03-57.66a1.73 1.73 0 0 1 1.79-1.73l10.04.33a.87.87 0 0 0 .9-.87V20.62a.63.62 0 0 0-.63-.62h-37.3a.68.68 0 0 0-.68.67l-.18 11.27a1.94 1.93-90 0 0 1.97 1.98l9.37-.16a.64.64 0 0 1 .65.61m30.08-13.63c-.25 23.83-.22 47.87.4 71.91a.87.87 0 0 0 .87.85h36.59a.58.58 0 0 0 .58-.58l.03-12.47a.62.62 0 0 0-.61-.63l-23.53-.1a.62.61.5 0 1-.61-.61v-14a.64.64 0 0 1 .64-.64l23.33.09a.78.78 0 0 0 .78-.78V51.63a.63.63 0 0 0-.63-.63h-23.37a.75.75 0 0 1-.75-.75V34a.5.5 0 0 1 .5-.5h23.5a.75.75 0 0 0 .75-.75v-12a.75.75 0 0 0-.75-.75l-36.98.01a.74.74 0 0 0-.74.73m55.67 35.51a.71.71 0 0 1 1.33-.36l21.66 37.07a1.1 1.09 74.5 0 0 .94.54h13.63q.7 0 .35-.6l-15.04-25.75a.58.58 0 0 1 .26-.82c24.72-10.92 17.11-46.12-9.84-46.28q-13.34-.07-26.68-.04a.31.31 0 0 0-.31.31v72.55a.63.63 0 0 0 .63.63h12.51a.64.64 0 0 0 .64-.64zM111.17 80.49a19.12 19.12 0 0 0-19.12-19.12 19.12 19.12 0 0 0-19.12 19.12 19.12 19.12 0 0 0 19.12 19.12 19.12 19.12 0 0 0 19.12-19.12m81.92.01a19.12 19.12 0 0 0-19.12-19.12 19.12 19.12 0 0 0-19.12 19.12 19.12 19.12 0 0 0 19.12 19.12 19.12 19.12 0 0 0 19.12-19.12m771.41 23.71c-244.65.33-489.31.13-733.96.03a.54.54 0 0 0-.54.54v5.94a.53.53 0 0 0 .53.53h717.14c5.52 0 12.2-4.04 16.9-6.78q.44-.26-.07-.26M267.9 131.4q.82 3.99-.56 7.93c-2.45 6.95-7.17 8.21-14.44 8.17q-8.8-.05-17.66.07a.56.56 0 0 0-.55.58l.32 7.06a.66.65 89.5 0 0 .63.63q11.57.35 23.15.03c6.01-.17 10.91-3.65 13.83-8.59 3.87-6.56 3.56-17.83 3.15-25.93a.37.36 88.3 0 0-.36-.35h-44.66a.5.5 0 0 0-.5.5l.07 8.91a.59.59 0 0 0 .59.59h36.5a.5.5 0 0 1 .49.4m103.332-9.627a.79.79 0 0 0-.792-.789l-6.62.012a.79.79 0 0 0-.788.791l.036 20.84a.79.79 0 0 0 .792.789l6.62-.012a.79.79 0 0 0 .788-.791zm29.488 10.967c-.06 5.92-3.66 14.82-10.71 14.78q-9.76-.06-19.49.01a.55.55 0 0 0-.55.53l-.29 7.16a.67.66-88.3 0 0 .64.69q10.6.33 21.33-.13c6.7-.28 11.78-4.15 14.25-10.18 2.45-5.98 1.43-16.68 1.59-23.98a.59.59 0 0 0-.6-.61l-5.44.11a.7.7 0 0 0-.69.7q.02 5.5-.04 10.92m105.17-1.62a.61.61 0 0 1 .61.61v15.16a.61.61 0 0 1-.61.61h-36.03a.61.61 0 0 0-.61.61v7.28a.61.61 0 0 0 .61.61h43.52a.61.61 0 0 0 .61-.61l.03-33.78a.61.61 0 0 0-.61-.61H471.1a.61.61 0 0 0-.61.61l.05 8.84a.61.61 0 0 0 .61.61zm37.326-9.316a.85.85 0 0 0-.853-.847l-24.62.086a.85.85 0 0 0-.847.853l.028 8.16a.85.85 0 0 0 .853.847l24.62-.086a.85.85 0 0 0 .847-.853zM517.57 155.76q14.46.45 27.37.11c7.27-.2 12.67-3.81 15.37-10.4 2.44-5.95 1.46-16.48 1.42-23.85a.59.59 0 0 0-.59-.58h-5.29a.58.58 0 0 0-.58.58c.06 10.89 1.11 26.09-13.29 25.93q-12.31-.15-24.69.02a.55.54-.5 0 0-.54.54v6.81a.84.84 0 0 0 .82.84m53.74-15.45c12.35-.09 24.78.25 37.12-.34a.62.62 0 0 0 .59-.63l-.08-5.96a.68.68 0 0 0-.75-.67l-2.36.24a.51.51 0 0 1-.51-.27c-.18-.35-.06-.58.21-.88 5.9-6.69-4.27-13.72-8.75-7.49q-3 4.17.93 7.84a.31.31 0 0 1-.12.52c-2.4.8-1.88-2.16-4.29-2.19q-11.08-.12-22.25-.04a.54.54 0 0 1-.55-.54v-8.11a.48.47-89.4 0 0-.46-.48l-5.52-.21a.47.46 1.2 0 0-.49.46q-.09 11.89.01 23.71c.06 5.72 2.03 10.77 8.71 10.75q17.54-.05 35.13-.01a.62.62 0 0 0 .62-.62v-7.23a.64.64 0 0 0-.63-.64q-14.69-.07-29.37.01c-4.88.03-7.89-1.46-7.72-6.71a.53.53 0 0 1 .53-.51m151.65 4.4a.61.61 0 0 1 .23 1.18q-4.16 1.66-8.45 1.63-11.43-.07-22.95.04a.55.55 0 0 0-.54.55v7.35a.53.52.6 0 0 .52.52q13.03.05 26.03 0c10-.03 14.69-5.27 14.72-15.13q.04-9.54-.14-19.09a.55.55 0 0 0-.55-.54l-37.32.05a.47.46-.6 0 0-.47.47c.1 5.99-.4 8.23-5.58 11.5a.83.83 0 0 0-.39.72l.24 8.73a.43.43 0 0 0 .5.41c5.81-.9 9.24-5.5 10.95-10.79a.71.71 0 0 1 .66-.48q10.58-.22 21.14-.14 3.29.03 3.5 2.68a.82.81 87.7 0 1-.81.88h-22.84a.59.59 0 0 0-.59.59l-.1 8.31a.67.66 0 0 0 .68.67zm-361.416-18.06a.26.26 0 0 0-.23-.287l-44.12-4.793a.26.26 0 0 0-.287.23l-.911 8.39a.26.26 0 0 0 .23.287l44.12 4.793a.26.26 0 0 0 .287-.23zm-54.354 12.41a.49.49 0 0 1-.22.93l-13.15.02a1.27 1.26 2 0 0-1.25 1.16l-.34 4.63a1.84 1.83 2.2 0 1-1.83 1.69l-12.03.01a.63.62 90 0 0-.62.63v6.98a.63.63 0 0 0 .62.63l13.36.02c4.23.01 6.72-2.08 6.92-6.23a1.4 1.4 0 0 1 1.47-1.33c14.89.78 15.15-5.7 14.26-18.62a.62.62 0 0 0-.62-.58h-35.44a.69.69 0 0 0-.69.67l-.18 7.14a1.2 1.19.5 0 0 1.21 1.22q12.24-.11 24.34.02 2.21.02 4.19 1.01m325.58.44a.55.55 0 0 1 .55.54l.11 6.9a.55.55 0 0 1-.55.56H611.1a.55.55 0 0 0-.55.55l-.07 7.22a.55.55 0 0 0 .55.55l35.65.11a.55.55 0 0 0 .55-.55l.03-7.31a.55.55 0 0 0-.55-.55l-6.16-.03a.55.55 0 0 1-.55-.55v-16.06a.55.55 0 0 0-.55-.55l-25.03.17a.55.55 0 0 0-.55.56l.13 7.9a.55.55 0 0 0 .55.54zm-271.283-2.754a.26.26 0 0 0-.23-.286l-44.061-4.787a.26.26 0 0 0-.287.23l-.916 8.43a.26.26 0 0 0 .23.287l44.061 4.787a.26.26 0 0 0 .287-.23zm91.523-1.656a.59.59 0 0 0-.59-.59h-41.58a.59.59 0 0 0-.59.59v7.58a.59.59 0 0 0 .59.59h41.58a.59.59 0 0 0 .59-.59zm232.74.23a.82.82 0 0 0-.82-.82h-41.6a.82.82 0 0 0-.82.82v7.12a.82.82 0 0 0 .82.82h41.6a.82.82 0 0 0 .82-.82zm-324.248 11.846a.27.27 0 0 0-.24-.297l-44.05-4.707a.27.27 0 0 0-.297.24l-.897 8.392a.27.27 0 0 0 .24.297l44.05 4.707a.27.27 0 0 0 .297-.24z"/><circle cx="608.02" cy="56.73" r="23.56"/><path d="M756.63 34.71c6.68 3.68 7.17 14.16-.77 17.73-3.13 1.41-8.69.85-12.34.77a.45.45 0 0 1-.44-.45l-.3-18.59a.65.65 0 0 1 .65-.66c4.22 0 9.68-.73 13.2 1.2M942.25 33.99c11.67.03 13.3 19.61-1.25 19.74q-6.36.06-12.8.01a.71.71 0 0 1-.7-.71v-18.5a.5.5 0 0 1 .49-.5q7.17-.05 14.26-.04M300.26 46.83l-.02 20.18a.33.33 0 0 1-.33.33l-14.58-.12a.33.33 0 0 1-.26-.53l14.59-20.06a.33.33 0 0 1 .6.2"/><circle cx="601.54" cy="127.63" r="3"/></g><g fill="#ea2c27"><path d="m243.5 63.84.04 28.11a.56.55 0 0 1-.56.55h-12.35a.63.63 0 0 1-.63-.63V20.23a.66.65-4.7 0 1 .55-.64c4.19-.68 9.24-.1 12.39-.16q12.88-.27 25.82-.16a.44.44 0 0 1 .44.45l-.27 12.82a.47.47 0 0 1-.47.46l-24.3-.01a.66.66 0 0 0-.66.66v15.1a.5.5 0 0 0 .5.5h24.5a.5.5 0 0 1 .5.5v13a.5.5 0 0 1-.5.5h-24.41a.59.59 0 0 0-.59.59M302.97 19.23l10.16.06a.37.37 0 0 1 .37.37v72.46a.37.37 0 0 1-.37.37l-12.51.02a.37.37 0 0 1-.37-.37V81.37a.37.37 0 0 0-.37-.37h-25.17a.37.37 0 0 0-.31.16l-7.5 11.18a.37.37 0 0 1-.31.16h-14.82a.37.37 0 0 1-.3-.58l51.2-72.53a.37.37 0 0 1 .3-.16m-2.71 27.6a.33.33 0 0 0-.6-.2l-14.59 20.06a.33.33 0 0 0 .26.53l14.58.12a.33.33 0 0 0 .33-.33zM332.42 57.26l.11 34.72a.51.51 0 0 1-.51.52h-12.64a.62.62 0 0 1-.62-.62l-.03-71.92a.63.63 0 0 1 .63-.63l14.17-.11a.75.75 0 0 1 .7.45l21.37 48.07a.31.31 0 0 0 .57 0l21.42-47.88a.91.89-77.8 0 1 .82-.54l14.48-.03a.61.6 0 0 1 .61.6V92a.5.5 0 0 1-.5.5h-12.75a.5.5 0 0 1-.5-.5V56.99q0-1.52-.64-.14l-16.18 35.17a.84.82 12 0 1-.76.48h-12.88a.79.78 77.6 0 1-.71-.46q-6.48-14.5-12.83-29.03-1.73-3.95-3.13-5.81-.2-.26-.2.06"/><rect width="14.26" height="73.18" x="397.74" y="19.31" rx=".48"/><path d="M430.66 79.25h17.42a.41.41 0 0 1 .41.41l.05 12.43a.41.41 0 0 1-.41.41h-31.99a.41.41 0 0 1-.41-.41l.06-72.36a.41.41 0 0 1 .41-.41l13.64-.01a.41.41 0 0 1 .41.41v59.12a.41.41 0 0 0 .41.41M493.04 19.26a.44.43-76.4 0 1 .38.64q-10.94 21.53-21.98 43.41-1.14 2.27-1.23 4.76-.43 11.55.1 23.53a.87.86-1.3 0 1-.87.9h-12.4a.51.51 0 0 1-.51-.51q-.06-11.76-.02-23.5.01-2.21-.99-4.19-11.22-22.1-22.37-44.21a.51.5-13.8 0 1 .45-.73l14.5-.16a.87.86 76.5 0 1 .77.48l14.31 28.81a.41.41 0 0 0 .74 0l13.87-28.66a.98.98 0 0 1 .88-.55zM709.96 56.94 693.7 92.32a.31.31 0 0 1-.28.18h-13.51a.31.31 0 0 1-.28-.18l-15.79-35.43a.31.31 0 0 0-.59.13v35.17a.31.31 0 0 1-.31.31h-13.13a.31.31 0 0 1-.31-.31V19.55a.31.31 0 0 1 .31-.31l15.02.04a.31.31 0 0 1 .28.18l21.34 48.32a.31.31 0 0 0 .56 0l21.59-48.34a.31.31 0 0 1 .28-.18l15.06.02a.31.31 0 0 1 .31.31v72.6a.31.31 0 0 1-.31.31h-13.16a.31.31 0 0 1-.31-.31l.08-35.12a.31.31 0 0 0-.59-.13M742.74 68.07l.03 23.92a.51.51 0 0 1-.51.51H729.5a.5.5 0 0 1-.5-.5V20.02a.51.51 0 0 1 .49-.51c9.31-.4 26.8-2.61 36.76 4.86 15.75 11.8 10.96 37.17-8.26 42.17-4.27 1.12-9.79.52-14.75.98a.56.55-2.9 0 0-.5.55m13.12-15.63c7.94-3.57 7.45-14.05.77-17.73-3.52-1.93-8.98-1.2-13.2-1.2a.65.65 0 0 0-.65.66l.3 18.59a.45.45 0 0 0 .44.45c3.65.08 9.21.64 12.34-.77M645.41 56.72a37.4 37.4 0 0 1-37.4 37.4 37.4 37.4 0 0 1-37.4-37.4 37.4 37.4 0 0 1 37.4-37.4 37.4 37.4 0 0 1 37.4 37.4m-13.83.01a23.56 23.56 0 0 0-23.56-23.56 23.56 23.56 0 0 0-23.56 23.56 23.56 23.56 0 0 0 23.56 23.56 23.56 23.56 0 0 0 23.56-23.56"/><path d="M507.23 35.96c15.7-23.29 49.97-21.03 63.47 3.09a.3.29-14.7 0 1-.26.44l-15.89.01a1.36 1.36 0 0 1-.84-.29c-9.31-7.65-22.59-7.69-31.37.61-7.47 7.05-9.48 18.84-4.61 27.71 7.57 13.74 23.92 16.17 36.39 6.5a1.39 1.37-63.2 0 1 .83-.28l15.69.01a.3.3 0 0 1 .26.45c-18.08 32.06-66.82 22.6-70.14-14.37q-1.12-12.6 6.47-23.88M827.8 20.8q.22 21.71.24 42.89.01 9.98-1.49 14.48c-8.67 25.96-46.96 19.35-46.84-9.43q.09-24.15.02-48.35a.38.38 0 0 1 .38-.38l13.03-.01a.56.56 0 0 1 .56.56q.09 24.63.04 49.18c-.03 14.11 19.98 14.3 20 .33q.03-24.78 0-49.5a.56.56 0 0 1 .56-.56l12.69-.02a.81.81 0 0 1 .81.81M841.05 33.76l-9.37.16a1.94 1.93-90 0 1-1.97-1.98l.18-11.27a.68.68 0 0 1 .68-.67h37.3a.63.62 0 0 1 .63.62v12.54a.87.87 0 0 1-.9.87l-10.04-.33a1.73 1.73 0 0 0-1.79 1.73l-.03 57.66a.4.4 0 0 1-.4.4L843 93.5a1.07 1.06-89.7 0 1-1.07-1.09c.22-13.09-.06-25.02.08-38.92q.1-9.56-.31-19.12a.64.64 0 0 0-.65-.61M872.18 92.65c-.62-24.04-.65-48.08-.4-71.91a.74.74 0 0 1 .74-.73L909.5 20a.75.75 0 0 1 .75.75v12a.75.75 0 0 1-.75.75H886a.5.5 0 0 0-.5.5v16.25a.75.75 0 0 0 .75.75h23.37a.63.63 0 0 1 .63.63v12.15a.78.78 0 0 1-.78.78l-23.33-.09a.64.64 0 0 0-.64.64v14a.62.61.5 0 0 .61.61l23.53.1a.62.62 0 0 1 .61.63l-.03 12.47a.58.58 0 0 1-.58.58h-36.59a.87.87 0 0 1-.87-.85M927.45 56.25l.08 36.61a.64.64 0 0 1-.64.64h-12.51a.63.63 0 0 1-.63-.63V20.32a.31.31 0 0 1 .31-.31q13.34-.03 26.68.04c26.95.16 34.56 35.36 9.84 46.28a.58.58 0 0 0-.26.82l15.04 25.75q.35.6-.35.6h-13.63a1.1 1.09 74.5 0 1-.94-.54l-21.66-37.07a.71.71 0 0 0-1.33.36M941 53.73c14.55-.13 12.92-19.71 1.25-19.74q-7.09-.01-14.26.04a.5.5 0 0 0-.49.5v18.5a.71.71 0 0 0 .7.71q6.44.05 12.8-.01M230.54 104.24c244.65.1 489.31.3 733.96-.03q.51 0 .07.26c-4.7 2.74-11.38 6.78-16.9 6.78H230.53a.53.53 0 0 1-.53-.53v-5.94a.54.54 0 0 1 .54-.54M267.41 131h-36.5a.59.59 0 0 1-.59-.59l-.07-8.91a.5.5 0 0 1 .5-.5h44.66a.37.36 88.3 0 1 .36.35c.41 8.1.72 19.37-3.15 25.93-2.92 4.94-7.82 8.42-13.83 8.59q-11.58.32-23.15-.03a.66.65 89.5 0 1-.63-.63l-.32-7.06a.56.56 0 0 1 .55-.58q8.86-.12 17.66-.07c7.27.04 11.99-1.22 14.44-8.17q1.38-3.94.56-7.93a.5.5 0 0 0-.49-.4"/><rect width="8.2" height="22.42" x="-4.1" y="-11.21" rx=".79" transform="rotate(-.1 75928.576 -210295.301)"/><path d="M400.72 132.74q.06-5.42.04-10.92a.7.7 0 0 1 .69-.7l5.44-.11a.59.59 0 0 1 .6.61c-.16 7.3.86 18-1.59 23.98-2.47 6.03-7.55 9.9-14.25 10.18q-10.73.46-21.33.13a.67.66-88.3 0 1-.64-.69l.29-7.16a.55.55 0 0 1 .55-.53q9.73-.07 19.49-.01c7.05.04 10.65-8.86 10.71-14.78M505.89 131.12l-34.74-.06a.61.61 0 0 1-.61-.61l-.05-8.84a.61.61 0 0 1 .61-.61h42.31a.61.61 0 0 1 .61.61l-.03 33.78a.61.61 0 0 1-.61.61h-43.52a.61.61 0 0 1-.61-.61v-7.28a.61.61 0 0 1 .61-.61h36.03a.61.61 0 0 0 .61-.61v-15.16a.61.61 0 0 0-.61-.61"/><rect width="26.32" height="9.86" x="-13.16" y="-4.93" rx=".85" transform="rotate(-.2 36341.286 -151790.75)"/><path d="M517.57 155.76a.84.84 0 0 1-.82-.84v-6.81a.55.54-.5 0 1 .54-.54q12.38-.17 24.69-.02c14.4.16 13.35-15.04 13.29-25.93a.58.58 0 0 1 .58-.58h5.29a.59.59 0 0 1 .59.58c.04 7.37 1.02 17.9-1.42 23.85-2.7 6.59-8.1 10.2-15.37 10.4q-12.91.34-27.37-.11M570.78 140.82c-.17 5.25 2.84 6.74 7.72 6.71q14.68-.08 29.37-.01a.64.64 0 0 1 .63.64v7.23a.62.62 0 0 1-.62.62q-17.59-.04-35.13.01c-6.68.02-8.65-5.03-8.71-10.75q-.1-11.82-.01-23.71a.47.46 1.2 0 1 .49-.46l5.52.21a.48.47-89.4 0 1 .46.48v8.11a.54.54 0 0 0 .55.54q11.17-.08 22.25.04c2.41.03 1.89 2.99 4.29 2.19a.31.31 0 0 0 .12-.52q-3.93-3.67-.93-7.84c4.48-6.23 14.65.8 8.75 7.49-.27.3-.39.53-.21.88a.51.51 0 0 0 .51.27l2.36-.24a.68.68 0 0 1 .75.67l.08 5.96a.62.62 0 0 1-.59.63c-12.34.59-24.77.25-37.12.34a.53.53 0 0 0-.53.51m33.76-13.19a3 3 0 0 0-3-3 3 3 0 0 0-3 3 3 3 0 0 0 3 3 3 3 0 0 0 3-3M722.96 144.71l-21.56.11a.67.66 0 0 1-.68-.67l.1-8.31a.59.59 0 0 1 .59-.59h22.84a.82.81 87.7 0 0 .81-.88q-.21-2.65-3.5-2.68-10.56-.08-21.14.14a.71.71 0 0 0-.66.48c-1.71 5.29-5.14 9.89-10.95 10.79a.43.43 0 0 1-.5-.41l-.24-8.73a.83.83 0 0 1 .39-.72c5.18-3.27 5.68-5.51 5.58-11.5a.47.46-.6 0 1 .47-.47l37.32-.05a.55.55 0 0 1 .55.54q.18 9.55.14 19.09c-.03 9.86-4.72 15.1-14.72 15.13q-13 .05-26.03 0a.53.52.6 0 1-.52-.52v-7.35a.55.55 0 0 1 .54-.55q11.52-.11 22.95-.04 4.29.03 8.45-1.63a.61.61 0 0 0-.23-1.18"/><rect width="44.9" height="8.96" x="-22.45" y="-4.48" rx=".26" transform="rotate(6.2 -1016.219 3191.814)"/><path d="M307.19 139.06q-1.98-.99-4.19-1.01-12.1-.13-24.34-.02a1.2 1.19.5 0 1-1.21-1.22l.18-7.14a.69.69 0 0 1 .69-.67h35.44a.62.62 0 0 1 .62.58c.89 12.92.63 19.4-14.26 18.62a1.4 1.4 0 0 0-1.47 1.33c-.2 4.15-2.69 6.24-6.92 6.23l-13.36-.02a.63.63 0 0 1-.62-.63v-6.98a.63.62-90 0 1 .62-.63l12.03-.01a1.84 1.83 2.2 0 0 1.83-1.69l.34-4.63a1.27 1.26 2 0 1 1.25-1.16l13.15-.02a.49.49 0 0 0 .22-.93M632.77 139.5h-18.22a.55.55 0 0 1-.55-.54l-.13-7.9a.55.55 0 0 1 .55-.56l25.03-.17a.55.55 0 0 1 .55.55v16.06a.55.55 0 0 0 .55.55l6.16.03a.55.55 0 0 1 .55.55l-.03 7.31a.55.55 0 0 1-.55.55l-35.65-.11a.55.55 0 0 1-.55-.55l.07-7.22a.55.55 0 0 1 .55-.55h21.78a.55.55 0 0 0 .55-.56l-.11-6.9a.55.55 0 0 0-.55-.54"/><rect width="44.84" height="9" x="-22.42" y="-4.5" rx=".26" transform="rotate(6.2 -1109.664 3196.597)"/><rect width="42.76" height="8.76" x="410.25" y="134.5" rx=".59"/><rect width="43.24" height="8.76" x="642.51" y="134.5" rx=".82"/><rect width="44.84" height="8.98" x="-22.42" y="-4.49" rx=".27" transform="rotate(6.1 -1228.63 3253.372)"/></g><circle cx="106.3" cy="37.19" r="19.11"/><circle cx="188.24" cy="37.18" r="19.12"/><rect width="24.44" height="146.42" x="-12.22" y="-73.21" rx="12.04" transform="rotate(18.2 -252.27 198.635)"/><rect width="24.5" height="146.34" x="-12.25" y="-73.17" rx="12.06" transform="rotate(18.2 -211.223 454.503)"/><circle cx="92.05" cy="80.49" r="19.12"/><circle cx="173.97" cy="80.5" r="19.12"/></svg>