<svg xmlns="http://www.w3.org/2000/svg" xmlns:xlink="http://www.w3.org/1999/xlink" viewBox="0 0 619.844 619.844"><defs><radialGradient xlink:href="#a" id="s" cx="207.156" cy="-78.608" r="253.077" fx="207.156" fy="-78.608" gradientTransform="matrix(.32814 .604 -.64174 .34865 105.831 -190.867)" gradientUnits="userSpaceOnUse"/><radialGradient xlink:href="#a" id="r" cx="207.156" cy="-78.608" r="253.077" fx="207.156" fy="-78.608" gradientTransform="matrix(.32814 .604 -.64174 .34865 105.831 -190.867)" gradientUnits="userSpaceOnUse"/><radialGradient xlink:href="#f" id="u" cx="511.372" cy="319.662" r="253.077" fx="511.372" fy="319.662" gradientTransform="matrix(.14258 -1.1334 1.11056 .1397 100.396 827.656)" gradientUnits="userSpaceOnUse"/><radialGradient xlink:href="#f" id="t" cx="511.372" cy="319.662" r="253.077" fx="511.372" fy="319.662" gradientTransform="matrix(.14258 -1.1334 1.11056 .1397 100.396 827.656)" gradientUnits="userSpaceOnUse"/><radialGradient xlink:href="#i" id="o" cx="604.225" cy="514.849" r="234.286" fx="604.225" fy="514.849" gradientTransform="matrix(-.17717 .84128 -.86694 -.18257 1178.258 296.363)" gradientUnits="userSpaceOnUse"/><radialGradient xlink:href="#k" id="p" cx="802.726" cy="949.264" r="234.286" fx="802.726" fy="949.264" gradientTransform="matrix(.10317 -1.29516 1.23872 .09868 -455.036 1865.72)" gradientUnits="userSpaceOnUse"/><radialGradient xlink:href="#m" id="v" cx="209.465" cy="1044.887" r="232.766" fx="209.465" fy="1044.887" gradientTransform="matrix(1.61789 1.55324 -1.767 1.84053 1606.293 -1841.854)" gradientUnits="userSpaceOnUse"/><radialGradient xlink:href="#n" id="q" cx="159.133" cy="1165.827" r="173.746" fx="159.133" fy="1165.827" gradientTransform="matrix(.45912 .01896 -.0365 .88397 130.74 126.282)" gradientUnits="userSpaceOnUse"/><linearGradient id="n"><stop offset="0" style="stop-color:#9ea3aa;stop-opacity:1"/><stop offset="1" style="stop-color:#fff;stop-opacity:1"/></linearGradient><linearGradient id="m"><stop offset="0" style="stop-color:#fff;stop-opacity:1"/><stop offset="1" style="stop-color:#b3b3b3;stop-opacity:1"/></linearGradient><linearGradient id="k"><stop offset="0" style="stop-color:#fff;stop-opacity:1"/><stop offset=".493" style="stop-color:#a0a5ac;stop-opacity:1"/><stop offset="1" style="stop-color:#a6abb1;stop-opacity:0"/></linearGradient><linearGradient id="i"><stop offset="0" style="stop-color:#fff;stop-opacity:1"/><stop offset=".657" style="stop-color:#fff;stop-opacity:1"/><stop offset="1" style="stop-color:#9da2a9;stop-opacity:1"/></linearGradient><linearGradient id="f"><stop offset="0" style="stop-color:#fff;stop-opacity:1"/><stop offset=".684" style="stop-color:#000;stop-opacity:1"/><stop offset="1" style="stop-color:#000;stop-opacity:0"/></linearGradient><linearGradient id="a"><stop offset="0" style="stop-color:#fff;stop-opacity:1"/><stop offset="1" style="stop-color:#000;stop-opacity:1"/></linearGradient></defs><path d="M902.857 772.362a234.286 234.286 0 1 1-468.571 0 234.286 234.286 0 1 1 468.571 0" style="color:#000;fill:url(#o);fill-opacity:1;stroke:none;stroke-width:3;marker:none;visibility:visible;display:inline;overflow:visible" transform="translate(-479.607 -602.176)scale(1.18092)"/><path d="M902.857 772.362a234.286 234.286 0 1 1-468.571 0 234.286 234.286 0 1 1 468.571 0" style="color:#000;fill:url(#p);fill-opacity:1;stroke:none;stroke-width:1.51965654;marker:none;visibility:visible;display:inline;overflow:visible" transform="translate(-479.607 -602.176)scale(1.18092)"/><path d="M466.69 1046.301a173.746 173.746 0 1 1-347.492 0 173.746 173.746 0 1 1 347.492 0" style="color:#000;fill:url(#q);fill-opacity:1;stroke:none;stroke-width:1.5;marker:none;visibility:visible;display:inline;overflow:visible" transform="translate(-56.856 -1000.09)scale(1.25204)"/><g style="fill:url(#r);fill-opacity:1" transform="matrix(.8756 0 0 .8756 -7.496 211.064)"><path d="M362.558-140.174c-139.786 0-253.124 113.337-253.124 253.103 0 57.976 19.58 111.454 52.422 154.165V18.166h13.373c3.847 0 7.956-.2 10.634 4.997 1.472 2.816 1.965 5.242 1.965 5.242 6.591-10.798 16.533-11.51 25.48-11.51 23.12 0 33.035 16.107 33.035 46.347v110.72c0 25.003-12.065 42.142-33.036 42.142-7.638 0-15.317-1.083-22.555-9.839v92.495c45.162 41.751 105.499 67.22 171.811 67.22 139.771 0 253.026-113.296 253.026-253.051-.005-139.771-113.26-253.103-253.031-253.103m-15.712 197.03v158.053h-15.657c-1.903 0-4.421.205-7.52-3.566-1.82-2.18-2.796-6.591-2.796-6.591-6.545 7.982-13.096 10.788-21.98 10.788-22.767 0-30.523-13.174-30.523-39.838v-35.796c0-32.933 22.52-44.131 51.329-54.842v-27.66c0-13.845-4.715-18.488-11.511-18.488-8.208 0-13.528 2.693-13.528 16.744V69.75c0 5.51-2.123 8.45-11.51 8.29h-13.656V58.558c0-26.587 12.798-41.51 38.119-41.51 26.788 0 39.227 12.348 39.227 38.617v1.19zm55.806 158.053H373.69V-6.918c0-1.703-1.934-2.863-3.714-2.863h-8.105v-23.77h40.786v248.46zm137.047 0V56.26c0-13.973-6.063-16.908-12.645-16.908-8.895 0-14.41 4.448-14.41 24.449v151.113H484.34V56.265c0-13.973-6.064-16.907-12.655-16.907-8.885 0-14.369 4.447-14.369 24.448v151.113H428.43V18.172h15.949c3.498 0 4.688 0 7.064 1.708 3.324 2.498 3.775 9.208 3.775 9.208 6.063-8.336 14.4-12.03 23.443-12.03 10.952 0 20.52 3.099 26.229 15.8 6.15-11.157 17.102-15.8 26.228-15.8 25.557 0 36.909 17.062 36.909 47.39v150.47h-28.327zm-244.146-72.335v27.818c0 13.374 1.057 23.213 10.931 23.213 8.536 0 13.215-5.243 13.215-28.773v-57.577c-16.308 7.936-24.146 13.368-24.146 35.319m-91.351 50.554c7.52.082 13.573-2.304 13.573-23.218V60.897c0-20.637-5.037-23.135-12.44-23.135-9.254 0-14.583 7.187-14.583 24.285v113.1c0 11.235 7.238 17.863 13.45 17.98" style="fill:url(#s);fill-opacity:1;fill-rule:evenodd"/></g><g style="fill:url(#t);fill-opacity:1" transform="matrix(.8756 0 0 .8756 -7.496 211.064)"><path d="M362.558-140.174c-139.786 0-253.124 113.337-253.124 253.103 0 57.976 19.58 111.454 52.422 154.165V18.166h13.373c3.847 0 7.956-.2 10.634 4.997 1.472 2.816 1.965 5.242 1.965 5.242 6.591-10.798 16.533-11.51 25.48-11.51 23.12 0 33.035 16.107 33.035 46.347v110.72c0 25.003-12.065 42.142-33.036 42.142-7.638 0-15.317-1.083-22.555-9.839v92.495c45.162 41.751 105.499 67.22 171.811 67.22 139.771 0 253.026-113.296 253.026-253.051-.005-139.771-113.26-253.103-253.031-253.103m-15.712 197.03v158.053h-15.657c-1.903 0-4.421.205-7.52-3.566-1.82-2.18-2.796-6.591-2.796-6.591-6.545 7.982-13.096 10.788-21.98 10.788-22.767 0-30.523-13.174-30.523-39.838v-35.796c0-32.933 22.52-44.131 51.329-54.842v-27.66c0-13.845-4.715-18.488-11.511-18.488-8.208 0-13.528 2.693-13.528 16.744V69.75c0 5.51-2.123 8.45-11.51 8.29h-13.656V58.558c0-26.587 12.798-41.51 38.119-41.51 26.788 0 39.227 12.348 39.227 38.617v1.19zm55.806 158.053H373.69V-6.918c0-1.703-1.934-2.863-3.714-2.863h-8.105v-23.77h40.786v248.46zm137.047 0V56.26c0-13.973-6.063-16.908-12.645-16.908-8.895 0-14.41 4.448-14.41 24.449v151.113H484.34V56.265c0-13.973-6.064-16.907-12.655-16.907-8.885 0-14.369 4.447-14.369 24.448v151.113H428.43V18.172h15.949c3.498 0 4.688 0 7.064 1.708 3.324 2.498 3.775 9.208 3.775 9.208 6.063-8.336 14.4-12.03 23.443-12.03 10.952 0 20.52 3.099 26.229 15.8 6.15-11.157 17.102-15.8 26.228-15.8 25.557 0 36.909 17.062 36.909 47.39v150.47h-28.327zm-244.146-72.335v27.818c0 13.374 1.057 23.213 10.931 23.213 8.536 0 13.215-5.243 13.215-28.773v-57.577c-16.308 7.936-24.146 13.368-24.146 35.319m-91.351 50.554c7.52.082 13.573-2.304 13.573-23.218V60.897c0-20.637-5.037-23.135-12.44-23.135-9.254 0-14.583 7.187-14.583 24.285v113.1c0 11.235 7.238 17.863 13.45 17.98" style="fill:url(#u);fill-opacity:1;fill-rule:evenodd"/></g><g style="fill:#4d4d4d"><path d="m-122.719 1287.813-2.156 1.03c-8.19 3.986-14.465 7.424-18.719 12.845-4.254 5.42-6.281 12.69-6.281 23.843v27.813c0 6.726.242 12.623 1.875 17.125.816 2.25 2.008 4.182 3.781 5.531s4.064 2.062 6.781 2.062c4.576 0 8.696-1.696 11.157-6.375 2.46-4.678 3.562-12.041 3.562-23.906v-59.969m-3 4.906v55.062c0 11.666-1.206 18.675-3.219 22.5-2.012 3.826-4.539 4.782-8.5 4.782-2.22 0-3.766-.524-4.968-1.438s-2.1-2.307-2.781-4.187c-1.365-3.762-1.688-9.447-1.688-16.094v-27.813c0-10.796 1.914-17.232 5.656-22 3.358-4.278 8.64-7.373 15.5-10.812M34.75 1198.5c-8.472 0-16.376 3.394-22.5 10.313-.083-.412-.035-.389-.156-.844-.569-2.14-1.505-4.727-3.656-6.344h-.032v-.031c-1.284-.923-2.435-1.46-3.687-1.719-1.253-.259-2.501-.25-4.25-.25H-17v199.75h31.906V1246.75c0-9.863 1.414-15.701 3.594-18.875s5.09-4.062 9.281-4.062c3.074 0 5.71.653 7.688 2.75s3.468 5.886 3.468 12.656v160.156H70.22V1246.75c0-9.862 1.436-15.7 3.625-18.875 2.188-3.174 5.084-4.062 9.281-4.062 3.068 0 5.742.622 7.719 2.718s3.437 5.918 3.437 12.688v160.156h31.313v-151.969c0-15.35-2.836-27.528-9.156-35.969-6.32-8.44-16.138-12.937-29.25-12.937-8.977 0-19.492 4.36-26.094 14.375-2.827-5.234-6.402-8.866-10.563-11.062-4.773-2.52-10.164-3.313-15.781-3.313m0 3c5.335 0 10.2.764 14.375 2.969s7.724 5.83 10.469 11.937l1.25 2.75 1.437-2.625c5.872-10.652 16.29-15.031 24.907-15.031 12.444 0 21.098 4.047 26.843 11.719s8.563 19.21 8.563 34.187v148.969H97.28v-157.156c0-7.204-1.55-11.886-4.25-14.75s-6.392-3.656-9.906-3.656c-4.697 0-8.957 1.293-11.75 5.343s-4.156 10.456-4.156 20.594v149.625H41.938v-157.156c0-7.204-1.58-11.855-4.282-14.719s-6.356-3.687-9.875-3.687c-4.692 0-8.998 1.324-11.781 5.374s-4.094 10.426-4.094 20.563v149.625H-14v-193.75H.469c1.749 0 2.845.02 3.656.188.803.166 1.429.451 2.5 1.218 1.173.881 2.105 2.88 2.594 4.719s.594 3.375.594 3.375l.28 4.125 2.407-3.344c5.803-7.977 13.615-11.406 22.25-11.406M-83.531 1147.906v26.75h9.594c.564 0 1.234.231 1.656.531s.562.56.562.844v223.313h30.5l1.469-.031v-251.40699999999998h-43.781zm3 3h37.781v245.438h-25.969V1176.03c0-1.42-.822-2.576-1.812-3.281a5.9 5.9 0 0 0-3.406-1.094h-6.594z" style="font-size:medium;font-style:normal;font-variant:normal;font-weight:400;font-stretch:normal;text-indent:0;text-align:start;text-decoration:none;line-height:normal;letter-spacing:normal;word-spacing:normal;text-transform:none;direction:ltr;block-progression:tb;writing-mode:lr-tb;text-anchor:start;baseline-shift:baseline;color:#000;fill:#4d4d4d;fill-opacity:1;stroke:none;stroke-width:3;marker:none;visibility:visible;display:inline;overflow:visible;font-family:Sans;-inkscape-font-specification:Sans" transform="matrix(.8756 0 0 .8756 381.91 -824.095)"/><path d="M-136.312 1198.5c-12.955 0-22.97 3.87-29.657 11.281s-9.969 18.184-9.969 31.719v21h15.157c4.852.082 8.093-.6 10.25-2.375 2.156-1.776 2.781-4.49 2.781-7.437v-14.094c0-6.836 1.297-10.58 3.25-12.594s4.842-2.625 8.781-2.625c3.057 0 5.31.907 7.063 3.406s2.937 6.81 2.937 13.563v26.625c-14.047 5.254-26.687 10.7-35.969 19-9.5 8.495-15.343 20.066-15.343 36.875v35.812c0 13.478 1.91 23.733 7 30.781 5.09 7.05 13.327 10.563 25 10.563 8.36 0 15.033-2.795 21.25-9.437l.031.093c.5 1.459 1.198 3.223 2.344 4.594 1.684 2.05 3.365 3.14 4.906 3.657 1.541.515 2.884.437 3.781.437h17.156v-160.719c0-13.371-3.204-23.516-10.03-30.25-6.827-6.733-17.095-9.875-30.72-9.875zm0 3c13.163 0 22.534 3.024 28.625 9.031 6.09 6.008 9.124 15.196 9.124 28.094v157.718h-14.156c-1.005 0-1.875.044-2.844-.28-.968-.325-2.117-.998-3.53-2.72-.677-.808-1.37-2.363-1.813-3.655a28 28 0 0 1-.688-2.313l-.656-3.031-1.937 2.406c-6.344 7.736-12.275 10.25-20.844 10.25-11.094 0-18.083-3.108-22.563-9.312-4.48-6.205-6.437-15.845-6.437-29.032v-35.812c0-16.125 5.382-26.61 14.344-34.625s21.635-13.472 36-18.813l.968-.344v-28.718c0-7.093-1.166-11.999-3.469-15.281s-5.79-4.688-9.53-4.688c-4.269 0-8.18.686-10.938 3.531-2.76 2.845-4.094 7.473-4.094 14.688v14.093c0 2.562-.435 4.094-1.687 5.125-1.253 1.032-3.778 1.765-8.313 1.688h-12.187000000000001v-18c0-13.053 3.145-23.022 9.187-29.719 6.042-6.696 15.072-10.281 27.438-10.281M-238.344 1218.719c-5.028 0-9.322 2.107-12.062 6.437s-4.063 10.709-4.063 19.438V1358c0 11.91 7.664 19.393 14.938 19.531h.031c3.934.043 8.03-.673 10.844-4.344 2.813-3.67 4.281-9.805 4.281-20.437v-109.312c0-10.47-1.206-16.534-3.719-20.22s-6.37-4.5-10.25-4.5m0 3c3.543 0 5.913.446 7.781 3.187 1.87 2.741 3.188 8.306 3.188 18.532v109.312c0 10.342-1.58 15.877-3.687 18.625s-4.799 3.196-8.407 3.156c-5.185-.098-12-5.91-12-16.531v-113.406c0-8.417 1.341-14.252 3.594-17.813s5.28-5.062 9.531-5.062" style="font-size:medium;font-style:normal;font-variant:normal;font-weight:400;font-stretch:normal;text-indent:0;text-align:start;text-decoration:none;line-height:normal;letter-spacing:normal;word-spacing:normal;text-transform:none;direction:ltr;block-progression:tb;writing-mode:lr-tb;text-anchor:start;baseline-shift:baseline;color:#000;fill:#4d4d4d;fill-opacity:1;stroke:none;stroke-width:3;marker:none;visibility:visible;display:inline;overflow:visible;font-family:Sans;-inkscape-font-specification:Sans" transform="matrix(.8756 0 0 .8756 381.91 -824.095)"/><path d="M-230.375 1197.813c-4.526 0-9.408.153-14.125 1.78-3.963 1.368-7.732 3.913-10.906 8.032-.314-.852-.617-1.684-1.156-2.719-.004-.01.004-.023 0-.03h-.032c-1.488-2.864-3.556-4.485-5.718-5.188-2.174-.707-4.347-.625-6.25-.625h-14.907v249.407c1 1.57 2 2.871 3 4.108v-250.515h11.907c1.955 0 3.79 0 5.312.5 1.523.495 2.835 1.397 4.031 3.718 1.377 2.633 1.844 4.844 1.844 4.844l.75 3.75 2-3.25c3.138-5.14 6.93-7.75 11.094-9.187s8.71-1.625 13.156-1.625c11.244 0 18.918 3.751 24.031 11.187 5.114 7.436 7.625 18.782 7.625 33.781v111.032c0 12.295-2.98 22.534-8.375 29.625-5.395 7.09-13.174 11.125-23.281 11.125-7.518 0-14.472-.886-21.437-9.313l-2.657-3.219v95.675c.8.796 1.386 1.337 3 2.585v-90.26c6.83 6.522 14.206 7.532 21.094 7.532 10.924 0 19.744-4.542 25.656-12.313 5.913-7.77 9-18.66 9-31.437V1245.78c0-15.327-2.501-27.246-8.156-35.468s-14.559-12.5-26.5-12.5z" style="font-size:medium;font-style:normal;font-variant:normal;font-weight:400;font-stretch:normal;text-indent:0;text-align:start;text-decoration:none;line-height:normal;letter-spacing:normal;word-spacing:normal;text-transform:none;direction:ltr;block-progression:tb;writing-mode:lr-tb;text-anchor:start;baseline-shift:baseline;color:#000;fill:#4d4d4d;fill-opacity:1;stroke:none;stroke-width:3;marker:none;visibility:visible;display:inline;overflow:visible;font-family:Sans;-inkscape-font-specification:Sans" transform="matrix(.8756 0 0 .8756 381.91 -824.095)"/></g><path d="M372.591 80.257c-153.287 0-277.553 124.303-277.553 277.59S219.304 635.4 372.591 635.4s277.59-124.266 277.59-277.553-124.303-277.59-277.59-277.59zm0 1.808c152.318 0 275.782 123.465 275.782 275.782S524.91 633.592 372.591 633.592 96.81 510.164 96.81 357.847 220.274 82.065 372.59 82.065z" style="font-size:medium;font-style:normal;font-variant:normal;font-weight:400;font-stretch:normal;text-indent:0;text-align:start;text-decoration:none;line-height:normal;letter-spacing:normal;word-spacing:normal;text-transform:none;direction:ltr;block-progression:tb;writing-mode:lr-tb;text-anchor:start;baseline-shift:baseline;color:#000;fill:url(#v);fill-opacity:1;fill-rule:nonzero;stroke:#6f7c91;stroke-width:1.81811047;marker:none;visibility:visible;display:inline;overflow:visible;font-family:Sans;-inkscape-font-specification:Sans" transform="translate(-62.688 -47.906)"/></svg>