<svg xmlns="http://www.w3.org/2000/svg" xml:space="preserve" version="1.2" viewBox="14.968 80.666 545 82"><path fill="#F9F9F9" d="M210.313 141.697h-35.514c-11.838 0-19.73-7.958-19.73-15.784s7.892-15.784 19.73-15.784h35.514v-7.893h-35.514c-15.784 0-27.622 10.26-27.622 23.677s11.838 23.676 27.622 23.676h35.514z"/><path fill="#020202" d="M210.313 151.123h-35.514c-8.224 0-15.491-2.674-20.73-7.178-5.239-4.496-8.432-10.865-8.426-18.032-.006-7.168 3.187-13.537 8.426-18.033 5.24-4.504 12.507-7.179 20.73-7.179h37.049v10.962h-37.049c-5.574.001-10.14 1.869-13.304 4.586-3.167 2.723-4.896 6.275-4.891 9.664-.005 3.388 1.724 6.94 4.891 9.663 3.165 2.718 7.73 4.585 13.304 4.586h35.514v1.535-1.535h1.535v10.961zm-54.244-40.916c-4.625 3.988-7.352 9.457-7.358 15.706.006 6.249 2.733 11.718 7.358 15.706 4.626 3.979 11.169 6.435 18.729 6.435h33.98v-4.822h-33.98c-12.514-.001-21.219-8.433-21.264-17.318.045-8.886 8.75-17.317 21.264-17.318h33.98v-4.823l-33.98-.001c-7.56-.001-14.103 2.457-18.729 6.435"/><path fill="#F9F9F9" d="M418.575 102.236h-23.676c-15.785 0-27.622 10.26-27.622 23.677s11.837 23.676 27.622 23.676h23.676c15.784 0 27.621-10.26 27.621-23.676 0-13.417-11.837-23.677-27.621-23.677m0 39.461h-23.676c-11.838 0-19.73-7.958-19.73-15.784s7.893-15.784 19.73-15.784h23.676c11.838 0 19.729 7.958 19.729 15.784s-7.891 15.784-19.729 15.784"/><path fill="#020202" d="M394.899 151.123c-8.224 0-15.492-2.673-20.729-7.178-5.241-4.496-8.433-10.865-8.427-18.032-.006-7.168 3.186-13.537 8.427-18.033 5.237-4.504 12.506-7.178 20.729-7.178h23.676v3.069h-23.676c-7.563 0-14.104 2.457-18.73 6.435-4.625 3.989-7.352 9.457-7.357 15.707.006 6.249 2.732 11.718 7.357 15.706 4.626 3.979 11.168 6.436 18.73 6.436h23.676c7.56 0 14.104-2.457 18.729-6.436 4.625-3.988 7.353-9.457 7.358-15.706-.006-6.25-2.733-11.718-7.358-15.707-4.626-3.978-11.17-6.435-18.729-6.435v-3.069c8.223 0 15.491 2.674 20.73 7.178 5.239 4.496 8.431 10.865 8.426 18.033.005 7.167-3.187 13.536-8.426 18.032-5.239 4.505-12.508 7.178-20.73 7.178zm0-7.892c-12.514-.001-21.221-8.434-21.266-17.318.045-8.886 8.752-17.317 21.266-17.319h23.676c12.514.002 21.219 8.434 21.264 17.319-.045 8.885-8.75 17.317-21.264 17.318v-3.069c5.573-.001 10.14-1.868 13.303-4.586 3.168-2.722 4.897-6.275 4.893-9.663.005-3.389-1.725-6.941-4.893-9.664-3.163-2.717-7.729-4.585-13.303-4.586h-23.676c-5.575.001-10.141 1.869-13.305 4.586-3.167 2.723-4.896 6.275-4.892 9.664-.005 3.388 1.725 6.941 4.892 9.663 3.164 2.718 7.729 4.585 13.305 4.586h23.676v3.069z"/><path fill="#F9F9F9" d="M253.72 102.236h-35.515v47.353h35.515c15.784 0 27.621-10.26 27.621-23.676 0-13.417-11.837-23.677-27.621-23.677m0 39.461h-27.622v-31.568h27.622c11.838 0 19.729 7.958 19.729 15.784s-7.891 15.784-19.729 15.784"/><path fill="#020202" d="M230.931 151.123h-14.26v-50.422h37.047v3.07h-24.464l-9.515-.001v44.283l11.192.001h22.788c7.561-.001 14.104-2.457 18.73-6.436 4.626-3.988 7.353-9.457 7.357-15.706-.004-6.249-2.73-11.718-7.357-15.706-4.625-3.979-11.169-6.436-18.73-6.437v-3.068c8.224-.001 15.493 2.674 20.729 7.178 5.242 4.496 8.434 10.865 8.428 18.033.006 7.167-3.186 13.536-8.428 18.032-5.237 4.504-12.506 7.178-20.729 7.178zm-4.833-7.892h-1.535v-34.637h29.156c12.516.001 21.22 8.433 21.265 17.318-.045 8.886-8.749 17.317-21.265 17.318v-3.069c5.574-.001 10.142-1.868 13.304-4.586 3.167-2.723 4.896-6.275 4.892-9.663.004-3.389-1.725-6.941-4.892-9.664-3.163-2.717-7.73-4.585-13.304-4.586h-26.087v28.499h26.087v3.069z"/><path fill="#F9F9F9" d="M352.369 125.913c3.946 0 7.893-5.7 7.893-9.646 0-7.892-3.946-14.03-11.839-14.03h-47.352v47.353h7.893v-19.73h35.514c3.946 0 7.892 3.947 7.892 7.893v11.838h7.893v-11.838c0-7.893-7.894-11.84-7.894-11.84m-7.891-3.946h-35.514v-11.838h35.514c3.945 0 7.892 2.192 7.892 6.138-.001 3.946-3.947 5.7-7.892 5.7"/><path fill="#020202" d="M350.836 151.123v-1.534c-.002 0-.002-7.893 0-11.838.01-1.452-.768-3.1-2.018-4.341-1.241-1.249-2.889-2.028-4.341-2.018h-33.979v19.73h-10.962V100.7h48.887c4.344-.02 7.854 1.758 10.089 4.646 2.245 2.88 3.281 6.725 3.284 10.92-.021 2.476-1.142 5.081-2.786 7.24-.887 1.135-1.942 2.173-3.152 2.898.491.396 1.016.854 1.544 1.382 2.143 2.137 4.395 5.479 4.395 9.964v13.372zm7.891-3.068.001-10.304c-.001-3.198-1.487-5.653-3.162-7.448-1.666-1.781-3.488-2.812-3.829-2.989l-.053-.028.686-1.373-.686 1.373.686-2.907c1.202.042 2.908-1.025 4.211-2.745 1.314-1.678 2.168-3.895 2.147-5.366.002-3.696-.934-6.866-2.635-9.028-1.71-2.154-4.12-3.447-7.67-3.468h-45.816v44.284h4.822v-19.73h37.049c2.493.011 4.792 1.206 6.511 2.915 1.711 1.719 2.904 4.019 2.915 6.512v10.304h4.823zm-34.965-24.553h-16.333v-14.908h37.049c2.255.005 4.506.608 6.309 1.87 1.799 1.238 3.134 3.295 3.117 5.803.028 2.512-1.362 4.521-3.182 5.629-1.822 1.138-4.047 1.6-6.244 1.606v-3.069c1.748.005 3.471-.409 4.608-1.135 1.14-.755 1.724-1.597 1.75-3.031-.017-1.438-.655-2.449-1.815-3.293-1.158-.823-2.852-1.315-4.543-1.311h-33.98v8.77h33.98v3.069z"/><path fill="#F9F9F9" d="M289.892 129.858a3.946 3.946 0 1 1 0-7.891h2.959a3.946 3.946 0 0 1 0 7.891z"/><path fill="#020202" d="M289.891 131.393v-3.068l2.96-.001a2.413 2.413 0 0 0 2.411-2.41 2.414 2.414 0 0 0-2.411-2.412l-2.96.001a2.414 2.414 0 0 0-2.411 2.411 2.413 2.413 0 0 0 2.411 2.41za5.48 5.48 0 0 1-5.479-5.479 5.48 5.48 0 0 1 5.479-5.48h2.96a5.48 5.48 0 1 1 0 10.959z"/><path fill="#F9F9F9" d="M481.712 110.129v39.46h7.892v-39.46h7.893c3.945 0 11.837 0 11.837 7.892v31.568h7.893v-35.514c0-7.893-7.893-11.839-15.784-11.839h-31.568c-7.893 0-15.784 3.946-15.784 11.839v35.514h7.892v-31.568c0-7.892 7.893-7.892 11.839-7.892z"/><path fill="#020202" d="M507.798 151.123v-33.102c-.004-1.723-.413-2.84-1.003-3.664-.594-.82-1.429-1.397-2.471-1.816-2.078-.843-4.871-.887-6.828-.876l-6.358-.001v39.46h-10.961v-39.459h-6.358c-1.473-.003-3.402.007-5.16.382-1.775.376-3.263 1.088-4.139 2.311-.591.824-.999 1.941-1.005 3.664v33.102h-10.961v-37.048c-.02-4.483 2.326-7.994 5.616-10.157 3.291-2.185 7.504-3.211 11.703-3.216h31.568c4.198.005 8.41 1.031 11.702 3.216 3.29 2.163 5.637 5.674 5.616 10.157v37.048h-10.961zm7.893-3.068v-33.979c-.022-3.41-1.621-5.817-4.25-7.603-2.628-1.761-6.308-2.706-10-2.702h-31.568c-3.694-.004-7.374.941-10.001 2.702-2.63 1.785-4.229 4.192-4.249 7.603v33.979h4.823c-.002-5.372-.002-23.355 0-30.034-.006-2.224.572-4.065 1.584-5.46 1.011-1.399 2.395-2.302 3.82-2.87 2.855-1.129 5.981-1.086 7.968-1.096h7.892v1.534-1.534h1.535v39.46h4.822v-39.46h9.429c1.484.001 3.624-.009 5.797.448 2.155.457 4.46 1.411 5.989 3.518 1.013 1.395 1.591 3.236 1.585 5.46v30.034z"/><path fill="#F9F9F9" d="M537.763 108.902h2.937c5.259 0 9.062-2.685 9.062-8.726 0-3.883-2.46-8.39-7.766-8.39h-16.397v6.04h11.896c1.696 0 3.598.281 3.598 2.35 0 1.958-1.512 2.685-3.262 2.685h-4.916c-8.827 0-9.896 6.299-9.896 11.219v3.884h26.305v-6.479H531.82c-.002-3.02 3.354-2.583 5.943-2.583"/><path fill="#020202" d="M522.139 118.84v-4.76c.005-2.52.255-5.478 1.772-7.919 1.514-2.459 4.391-4.201 9-4.176h4.918c.758.003 1.399-.169 1.777-.445.369-.283.588-.607.606-1.363-.039-.757-.219-.902-.664-1.159-.46-.229-1.257-.317-2.056-.313H524.72V90.91h17.273c2.904-.01 5.146 1.271 6.559 3.071 1.422 1.8 2.082 4.071 2.085 6.195.008 3.196-1.03 5.675-2.854 7.284-1.82 1.611-4.313 2.318-7.085 2.318h-3.062c-.564-.003-1.142-.022-1.691-.022-1.02-.007-1.956.084-2.486.343-.275.153-.466.278-.587.508h17.327v8.232h-28.06zm3.258-11.749c-1.224 1.938-1.51 4.59-1.504 6.989v3.007h24.554v-4.726H530.94v-.877c-.043-1.423.749-2.54 1.778-2.975 1.007-.459 2.133-.5 3.227-.507.634 0 1.255.022 1.817.022h2.937c2.488 0 4.524-.635 5.921-1.877 1.393-1.242 2.256-3.128 2.263-5.972.005-1.76-.567-3.681-1.702-5.106-1.143-1.424-2.787-2.396-5.186-2.406h-15.521v4.287h11.019c.896.005 1.896.057 2.813.483.929.401 1.698 1.431 1.661 2.742.017 1.202-.518 2.221-1.34 2.79-.815.576-1.806.768-2.798.772h-4.918c-4.217.027-6.287 1.434-7.514 3.354m12.366 1.811v-.877z"/><g fill="#d40000"><path d="M71.937 102.174q1.852-3.787 5.565-5.267c1.983-.79 5.013-1.167 7.435-1.623.714-.134 1.45-.244 2.153-.182 2.723.236 4.876 2.471 4.726 5.274q-.058 1.057-.477 3.006-.019.082-.1.099l-8.28 1.57a.192.194.2 0 1-.226-.227l.326-1.626a.166.166 0 0 0-.196-.196l-2.905.575a.27.27 0 0 0-.214.216l-.24 1.264a.147.147 0 0 0 .145.175q10.7-.062 21.303 1.373.095.013.182-.024 3.209-1.368 6.403-2.762c.517-.227.95.352.463.74q-1.599 1.267-3.222 2.532a.074.074 0 0 0 .034.132c7.854 1.279 27.027 5.604 29.138 15.083 1.774 7.973-10.352 13.305-16.04 15.248-10.044 3.432-20.586 5.115-31.116 5.712q-2.743.156-5.49.324-.093.006-.153.08-2.613 3.214-6.398 4.573c-2.048.731-4.986 1.144-7.426 1.6-1.98.37-2.548-.752-2.241-2.51q.486-2.78.904-5.57c.043-.282.194-.526.31-.78a.054.052 5.9 0 0-.06-.073q-15.742 3.017-31.472 5.998c-1.428.272-2.273-.696-2.064-2.036q.608-3.895 1.26-7.774a.13.13 0 0 0-.078-.141c-4.782-1.95-12.414-6.043-12.124-12.237.488-10.422 22.032-15.539 29.728-16.99a.227.225-1 0 0 .183-.188l.97-6.032q.012-.086.092-.12c.17-.07.557-.085.676-.11q5.853-1.129 11.712-2.227c3.004-.562 5.41.126 6.758 3.121a.032.032 0 0 0 .056 0m6.002 11.515c-.462.065-.642-.357-.577-.745q.754-4.373 1.45-8.76c.106-.672.18-1.258.856-1.388q1.837-.35 3.674-.704c1.003-.193.482 1.439.405 1.861a.09.09 0 0 0 .105.103l6.659-1.268a.192.19-2 0 0 .154-.164c.123-.975.384-2.147.29-3.009-.204-1.882-1.779-3.387-3.604-3.689q-.763-.126-2.234.147-4.329.804-5.578 1.065c-3.768.783-6.84 3.676-7.463 7.517q-.778 4.802-1.544 9.603c-.267 1.662-.274 2.908.772 4.114 1.975 2.276 4.193 1.485 6.756 1.05q.393-.066.702-.306 2.903-2.246 5.741-4.448.14-.108.09-.277l-1.058-3.594a.194.192 75 0 0-.229-.134l-.591.145q-.123.03-.123.154c-.002 1.018-.065 1.869-1.204 2.113q-1.715.366-3.45.614m-3.994 24.93q.305-.06.09.166c-1.717 1.797-3.997 1.915-6.304 2.343-.91.169-.847.564-.98 1.329q-.468 2.741-.895 5.495c-.188 1.221.501 1.244 1.448 1.067q2.526-.471 5.046-.962c5.691-1.108 9.912-5.372 10.783-11.145q.006-.04.047-.048l10.837-2.057a.18.18 0 0 0 .14-.143l1.528-9.429q.018-.11.128-.128l1.757-.29q.138-.023.116.117l-1.5 9.345q-.017.104.087.083l7.906-1.498a.23.229-.7 0 0 .184-.188l.177-1.042q.017-.099.102-.048 1.57.89 3.464.532 5.673-1.067 11.342-2.174c.469-.091.642-.376.709-.811q.56-3.58 1.17-7.149.021-.115-.089-.15l-.048-.017q-.102-.034-.065-.133.476-1.299.746-3.301.378-2.825-1.824-4.313-1.459-.984-3.02-.774-1.547.209-7.198 1.38c-2.045.424-3.484 1.192-4.73 2.767a.106.106 0 0 1-.151.017c-1.62-1.337-2.904-1.318-5.066-.909q-3.685.698-7.382 1.406a.14.14 76.7 0 0-.108.176l.613 2.085a.145.145 0 0 0 .167.102q3.838-.746 7.728-1.485c1.772-.337 3.097.313 2.732 2.436q-.603 3.508-1.508 9.408-.015.1-.113.12l-2.515.483q-.245.047-.206-.2l1.375-8.58q.013-.088-.02-.168-.225-.545-.741-.464-1.576.25-6.373 1.242-.09.018-.106.112l-1.505 9.36q-.019.122-.142.146l-2.618.523q-.106.02-.088-.085l1.765-10.98q.02-.126-.077-.21l-2.998-2.61q-.067-.06-.147-.025l-8.187 3.532q-.24.103.017.054l3.335-.642a.078.078 0 0 1 .093.088q-1.024 6.445-2.074 12.92-.43 2.661-.785 3.633c-1.297 3.549-4.502 6.028-8.193 6.763q-1.492.296-3.015.544-.106.016-.09-.088l.459-2.72a.14.143.1 0 1 .115-.118c1.096-.182 2.32-.357 3.296-.715q4.796-1.751 5.416-7.09.013-.114-.1-.094-3.28.572-6.544 1.227c-1.31.264-2.475.344-3.002-1.02q-.166-.428-.063-1.076.541-3.445 1.101-6.888c.173-1.072.992-2.03 1.925-2.767q2.395-1.89 4.81-3.726a.045.045 0 0 0-.035-.08c-3.042.558-5.842.744-7.926 3.433q-.067.086-.147.013-1.75-1.582-3.94-1.163-3.786.724-7.473 1.413-.186.035-.156-.151l1.037-6.445q.016-.1.108-.147.162-.082.35-.116c2.337-.426 5.203-.759 7.191-1.665q3.832-1.748 5.077-5.826c.467-1.531.689-3.8.983-5.646.376-2.35-.78-4.4-3.106-5.001-1.052-.274-1.99-.09-3.094.119q-5.743 1.089-11.516 2.192a.112.11-1.4 0 0-.09.093l-2.328 14.44a.182.18-.9 0 1-.145.15q-6.298 1.198-12.442 2.377c-.55.106-.822.268-.914.826q-1.969 12.183-3.917 24.37c-.086.534-.304 1.131.033 1.552q.266.335.704.251 11.405-2.164 22.787-4.335a.093.095-.7 0 0 .073-.076l1.528-9.464q.015-.09.102-.106l1.802-.353a.09.09 0 0 1 .108.104l-1.506 9.365a.093.095-.8 0 0 .11.108l7.914-1.508q.1-.018.119-.119l.203-1.09q.022-.118.126-.06c2.036 1.14 4.12.408 6.196.004m17.323-22.123 13.803-10.678a.02.02 0 0 0-.02-.035l-16.178 6.99q-.087.037-.16-.026l-5.075-4.414a.04.04 0 0 0-.064.04l1.852 6.323q.024.078-.04.128l-13.749 10.63a.035.035 0 0 0 .035.059l16.092-6.96q.087-.036.16.025l5.029 4.385q.152.132.095-.061l-1.832-6.243q-.03-.1.052-.163m-11.509-9.422c5.905.015 11.42.302 17.59.931q1.234.125 2.341-.685.091-.065-.02-.08-9.84-1.24-19.764-1.215-.115 0-.13.113l-.106.834q-.013.102.09.102m52.298 15.666c1.316 6.538-9.723 11.287-14.293 12.903-10.983 3.879-23.015 5.557-34.627 5.983q-.164.006-.244.148l-.478.846q-.065.114.065.108 5.851-.245 12.12-.947c8.998-1.005 18.1-2.866 26.443-6.306 3.97-1.637 8.697-4.22 11.048-7.842 4.373-6.738-3.898-12.044-8.869-14.28-6.117-2.752-13.063-4.488-19.555-5.51q-.09-.013-.162.041l-.912.67a.106.106 0 0 0 .047.19c7.627 1.12 15.56 3.067 22.412 6.674 2.764 1.453 6.36 4.11 7.005 7.322m-107.585 5.174c-2.797-4.685 2.144-8.941 5.654-11.007 6.194-3.648 13.613-5.783 20.663-7.154a.182.184-1.2 0 0 .147-.155l.119-.843q.015-.104-.088-.084-7.541 1.4-14.947 4.216c-4.805 1.826-13.971 6.34-13.43 12.698.438 5.131 6.887 8.519 11.017 10.387a.091.09-73.9 0 0 .126-.07l.116-.886q.013-.099-.079-.138c-3.372-1.422-7.346-3.693-9.298-6.964m62.304-17.912a.058.058 0 0 0-.026.1l2.268 1.96a.058.058 0 0 0 .095-.035l.398-2.453a.058.058 0 0 0-.067-.065zm-7.311 15.771c-2.127.382-4.249.799-6.373 1.2q-.504.096-.8.315-.084.062-.1.164-.42 2.594-.85 5.196c-.133.804.172 1.123.987.964q2.775-.543 5.558-1.05.275-.05.54-.165.089-.039.104-.134l1.021-6.406q.015-.102-.087-.084"/><path d="M59.484 106.624c1.323-.16 2.687-.499 4.005-.75.8-.153.815.3.722.918q-.277 1.844-.588 3.683c-.076.445-.309.701-.774.798q-2.133.449-4.28.836-.101.018-.086-.084l.831-5.24a.195.194 1.5 0 1 .17-.161M108.41 124.724c-.053.508-.618 2.125.6 1.9q4.527-.841 9.076-1.722.161-.031.137.13l-.394 2.655q-.015.098-.114.117-4.965.955-9.916 1.887-.87.164-1.375.007c-1.339-.413-1.348-1.533-1.134-2.79q.367-2.15.91-5.674.374-2.418 2.284-3.525.75-.434 2.498-.778 2.568-.506 5.142-.98c1.35-.248 2.343-.472 3.082.714.428.687.076 1.96-.07 2.736-.408 2.148-1.808 3.571-4.002 3.994q-3.315.636-6.652 1.249a.091.093-2.4 0 0-.073.08m7.083-5.792c-1.818.208-3.884.694-5.762 1.08-.724.146-.778.991-.79 1.62q-.001.095.092.077 3.251-.62 6.5-1.25c1.19-.23.9-1.635-.04-1.527M49.877 137.975l-.44 2.78a.06.06 0 0 1-.05.053l-12.901 2.464a.063.063 0 0 1-.075-.073l3.494-21.8a.06.06 0 0 1 .05-.051l10.953-2.072a.063.063 0 0 1 .074.073l-.484 2.782a.06.06 0 0 1-.05.05l-8.113 1.566a.06.06 0 0 0-.05.052l-1.009 6.307a.063.063 0 0 0 .075.073l6.073-1.17a.063.063 0 0 1 .074.073l-.426 2.788a.06.06 0 0 1-.052.054l-6.198 1.195a.06.06 0 0 0-.05.052l-1.052 6.553a.063.063 0 0 0 .075.073l10.009-1.895a.063.063 0 0 1 .073.073M83.57 134.156l1.983-12.313a.1.1 0 0 1 .082-.086l2.63-.517a.104.104 0 0 1 .122.117l-1.999 12.34a.1.1 0 0 1-.083.085l-2.613.493a.104.104 0 0 1-.121-.12"/><path d="m44.329 127.043.193-1.19a.07.07 0 0 1 .054-.056l7.44-1.412a.067.067 0 0 1 .08.076l-1.732 10.797a.07.07 0 0 1-.054.055l-7.43 1.422a.067.067 0 0 1-.08-.074l.209-1.43a.07.07 0 0 1 .054-.055l6.186-1.173a.07.07 0 0 0 .054-.056l1.28-7.924a.067.067 0 0 0-.08-.077l-6.094 1.173a.067.067 0 0 1-.08-.076M56.517 130.244l-1.522 9.378q-.02.125-.147.149l-2.565.48q-.145.028-.123-.119l1.973-12.274q.013-.082.097-.099 5.094-1.027 10.204-1.98c1.28-.238 2.546.675 2.327 2.047q-.787 4.936-1.558 9.85-.02.118-.138.143l-2.61.526q-.112.023-.096-.09.62-4.043 1.286-8.065c.088-.53.207-1.422-.696-1.266q-3.164.55-6.31 1.193-.105.023-.122.127M76.23 130.367l-1.922.374a.065.065 0 0 1-.077-.077l.282-1.442a.07.07 0 0 1 .052-.05l1.835-.339a.065.065 0 0 1 .076.073l-.194 1.405a.065.065 0 0 1-.052.056"/></g><g fill="#fff"><path d="M77.362 112.944c-.065.388.115.81.577.745q1.734-.248 3.449-.614c1.139-.244 1.202-1.095 1.204-2.113q0-.124.123-.154l.591-.145a.194.192 75 0 1 .23.134l1.056 3.594q.05.169-.089.277-2.838 2.202-5.741 4.448-.31.24-.702.305c-2.563.436-4.781 1.227-6.756-1.05-1.046-1.205-1.039-2.45-.772-4.113q.766-4.801 1.544-9.603c.624-3.841 3.695-6.734 7.463-7.517q1.25-.26 5.578-1.065 1.47-.273 2.234-.147c1.825.302 3.4 1.807 3.605 3.689.093.862-.168 2.034-.29 3.01a.192.19-2 0 1-.155.163l-6.66 1.268a.09.09 0 0 1-.104-.103c.077-.422.598-2.054-.405-1.86q-1.837.353-3.674.703c-.676.13-.75.716-.856 1.388q-.696 4.387-1.45 8.76"/><path d="M73.945 138.619c-2.075.404-4.16 1.135-6.196-.004q-.104-.058-.126.06l-.203 1.09q-.019.1-.12.12l-7.913 1.507a.093.095-.8 0 1-.11-.108l1.506-9.365a.09.09 0 0 0-.108-.104l-1.802.353q-.087.017-.102.106l-1.528 9.464a.093.095-.7 0 1-.073.076q-11.382 2.17-22.787 4.335-.438.084-.704-.251c-.337-.42-.119-1.018-.033-1.552q1.948-12.187 3.917-24.37c.092-.558.363-.72.914-.826q6.144-1.179 12.442-2.377a.182.18-.9 0 0 .145-.15l2.328-14.44a.112.11-1.4 0 1 .09-.093q5.773-1.103 11.516-2.192c1.104-.209 2.042-.393 3.094-.12 2.326.602 3.482 2.653 3.106 5.002-.294 1.846-.516 4.115-.983 5.646q-1.245 4.078-5.077 5.826c-1.988.906-4.854 1.24-7.191 1.665q-.188.034-.35.116-.092.046-.108.147l-1.037 6.445q-.03.186.156.15 3.687-.688 7.473-1.412 2.19-.419 3.94 1.163.08.073.147-.013c2.084-2.689 4.884-2.875 7.926-3.433a.045.045 0 0 1 .036.08q-2.416 1.836-4.811 3.726c-.933.737-1.752 1.695-1.925 2.767q-.56 3.443-1.101 6.888-.103.648.063 1.076c.527 1.364 1.692 1.284 3.002 1.02q3.264-.655 6.544-1.227.113-.02.1.093-.62 5.34-5.416 7.091c-.977.358-2.2.533-3.296.715a.14.143.1 0 0-.115.117l-.458 2.721q-.017.104.09.088 1.522-.248 3.014-.544c3.691-.735 6.896-3.214 8.193-6.763q.356-.972.785-3.633 1.05-6.475 2.074-12.92a.078.078 0 0 0-.093-.088l-3.335.642q-.257.049-.017-.054l8.187-3.532q.08-.035.147.024l2.998 2.611q.097.084.077.21l-1.765 10.98q-.018.106.088.085l2.618-.523q.123-.024.142-.147l1.505-9.36q.015-.093.106-.111 4.797-.992 6.373-1.242.516-.081.74.464.034.08.021.167l-1.375 8.58q-.04.248.206.201l2.515-.484q.098-.018.113-.119.905-5.9 1.508-9.408c.365-2.123-.96-2.773-2.732-2.436q-3.89.739-7.728 1.485a.145.145 0 0 1-.167-.102l-.613-2.085a.14.14 76.7 0 1 .108-.176q3.697-.708 7.382-1.406c2.162-.41 3.447-.428 5.066.909a.106.106 0 0 0 .15-.017c1.247-1.575 2.686-2.343 4.731-2.768q5.65-1.17 7.198-1.379 1.561-.21 3.02.774 2.202 1.488 1.824 4.313-.27 2.002-.746 3.301-.037.099.065.133l.048.016q.11.036.09.151-.61 3.57-1.171 7.149c-.067.435-.24.72-.71.811q-5.668 1.107-11.34 2.174-1.896.357-3.465-.532-.085-.05-.102.048l-.177 1.042a.23.229-.7 0 1-.184.188l-7.906 1.498q-.104.02-.088-.083l1.5-9.345q.023-.14-.115-.117l-1.757.29q-.11.019-.128.128l-1.528 9.429a.18.18 0 0 1-.14.143l-10.837 2.057q-.041.007-.047.048c-.87 5.773-5.092 10.037-10.783 11.145q-2.52.491-5.046.962c-.947.177-1.636.154-1.448-1.067q.427-2.754.896-5.495c.132-.765.068-1.16.979-1.33 2.307-.427 4.587-.545 6.303-2.342q.216-.226-.09-.166m-10.456-32.745c-1.318.251-2.682.59-4.005.75a.195.194 1.5 0 0-.17.16l-.831 5.241q-.015.102.085.084 2.148-.387 4.28-.836c.466-.097.699-.353.775-.798q.31-1.84.588-3.683c.093-.618.078-1.07-.722-.918m44.92 18.85a.091.093-2.4 0 1 .073-.08q3.337-.613 6.652-1.25c2.194-.422 3.594-1.845 4.001-3.993.147-.776.499-2.05.07-2.736-.738-1.186-1.732-.962-3.081-.715q-2.574.475-5.142.981-1.748.344-2.498.778-1.91 1.107-2.284 3.525-.543 3.523-.91 5.675c-.214 1.256-.205 2.376 1.134 2.79q.506.156 1.375-.008 4.95-.932 9.916-1.887.099-.019.114-.117l.394-2.654q.024-.162-.137-.13-4.55.88-9.075 1.72c-1.22.226-.654-1.391-.602-1.9m-58.532 13.25a.063.063 0 0 0-.073-.072l-10.01 1.895a.063.063 0 0 1-.074-.073l1.052-6.553a.06.06 0 0 1 .05-.052l6.198-1.195a.06.06 0 0 0 .052-.054l.426-2.788a.063.063 0 0 0-.074-.072l-6.073 1.169a.063.063 0 0 1-.075-.073l1.009-6.307a.06.06 0 0 1 .05-.052l8.113-1.566a.06.06 0 0 0 .05-.05l.484-2.782a.063.063 0 0 0-.074-.073l-10.953 2.072a.06.06 0 0 0-.05.052l-3.494 21.8a.063.063 0 0 0 .075.072l12.901-2.464a.06.06 0 0 0 .05-.053zm33.694-3.818a.104.104 0 0 0 .12.119l2.614-.493a.1.1 0 0 0 .083-.086l2-12.34a.104.104 0 0 0-.124-.116l-2.63.517a.1.1 0 0 0-.081.086zm-39.242-7.113a.067.067 0 0 0 .08.076l6.095-1.173a.067.067 0 0 1 .08.077l-1.28 7.924a.07.07 0 0 1-.055.056l-6.186 1.173a.07.07 0 0 0-.054.056l-.208 1.429a.067.067 0 0 0 .08.074l7.43-1.422a.07.07 0 0 0 .053-.055l1.731-10.797a.067.067 0 0 0-.078-.076l-7.44 1.412a.07.07 0 0 0-.055.056zm12.31 3.074q3.146-.644 6.31-1.193c.903-.156.784.735.696 1.266q-.666 4.022-1.286 8.064-.016.114.095.091l2.611-.526q.118-.025.138-.144.77-4.913 1.558-9.849c.22-1.372-1.046-2.285-2.327-2.047q-5.11.953-10.204 1.98-.084.017-.097.099l-1.973 12.274q-.022.147.123.12l2.565-.481q.126-.024.147-.149l1.522-9.378q.017-.104.121-.127"/><path d="m91.216 116.66 1.832 6.242q.057.193-.095.061l-5.03-4.385q-.072-.061-.16-.024l-16.09 6.959a.035.035 0 0 1-.036-.06l13.748-10.629q.065-.05.041-.128l-1.852-6.322a.04.04 0 0 1 .064-.041l5.075 4.414q.073.063.16.026l16.177-6.99a.02.02 0 0 1 .02.035l-13.802 10.678q-.082.063-.052.163"/><path d="M97.349 108.005c-6.17-.63-11.685-.916-17.59-.93q-.102 0-.09-.103l.107-.834q.015-.113.13-.113Q89.83 106 99.67 107.24q.111.015.02.08-1.107.81-2.341.685M132.057 122.74c-.646-3.213-4.241-5.869-7.005-7.322-6.851-3.607-14.785-5.554-22.412-6.674a.106.106 0 0 1-.047-.19l.912-.67q.073-.054.162-.04c6.492 1.02 13.438 2.757 19.555 5.51 4.971 2.235 13.242 7.541 8.869 14.279-2.351 3.621-7.078 6.205-11.048 7.842-8.344 3.44-17.445 5.3-26.443 6.306q-6.269.702-12.12.947-.13.006-.065-.108l.478-.846q.08-.142.244-.148c11.612-.426 23.644-2.104 34.627-5.983 4.57-1.616 15.609-6.365 14.293-12.903M30.126 116.907c-3.51 2.066-8.451 6.322-5.654 11.007 1.952 3.271 5.926 5.542 9.298 6.964q.092.04.079.138l-.116.886a.091.09-73.9 0 1-.126.07c-4.13-1.868-10.58-5.256-11.017-10.387-.541-6.357 8.625-10.872 13.43-12.698q7.406-2.816 14.947-4.216.103-.02.088.084l-.12.843a.182.184-1.2 0 1-.146.155c-7.05 1.371-14.469 3.506-20.663 7.154M86.776 110.002l2.668-.493a.058.058 0 0 1 .067.065l-.398 2.453a.058.058 0 0 1-.095.035l-2.268-1.96a.058.058 0 0 1 .026-.1"/><path d="M109.73 120.011c1.879-.385 3.945-.87 5.763-1.08.94-.107 1.23 1.298.04 1.529q-3.249.629-6.5 1.249-.093.018-.091-.077c.01-.629.065-1.474.789-1.62M73.092 126.974c2.124-.402 4.246-.82 6.373-1.2q.102-.02.087.083l-1.021 6.406q-.015.095-.105.134-.264.115-.54.166-2.782.506-5.557 1.05c-.815.158-1.12-.16-.988-.965q.432-2.602.85-5.196.017-.102.101-.164.296-.22.8-.314m3.138 3.393a.065.065 0 0 0 .052-.056l.194-1.405a.065.065 0 0 0-.076-.073l-1.835.339a.07.07 0 0 0-.052.05l-.282 1.442a.065.065 0 0 0 .077.077z"/></g></svg>