<svg xmlns="http://www.w3.org/2000/svg" viewBox="0 0 695.172 97.877"><g style="display:inline"><path d="M-188.573 230.736c-4.403.059-12.535-1.274-16.483.687-3.371 1.673-3.188 12.46-2.193 15.567.984 3.073 4.734 2.419 7.273 2.42 4.952.002 22.27-2.712 23.998 3.12 3.488 11.775.33 29.156.33 41.471 0 3.315 1.4 10.915-1.763 13.048-4.526 3.055-16.447.79-21.805.79-2.31 0-6.65-.796-7.904 1.783-1.54 3.166-1.713 14.698 1.878 16.205 5.82 2.443 14.975.1 21.23.533 10.71.741 21.235-.381 31.931-.036 9.14.295 19.743 1.422 28.845-.147 4.237-.73 4.88-15.134 1.867-17.547-1.862-1.492-5.692-.79-7.904-.79-8.155 0-26.755 3.726-25.658-8.457.145-1.616.12-3.703 1.146-5.049 3.724-4.88 21.17-1.102 26.792-1.102h44.095c10.25 0 22.443-.35 31.17-6.548 16.34-11.607 14.096-46.58-6.082-53.081-15.04-4.846-32.253-2.644-47.896-2.644-27.603 0-55.278-.595-82.867-.223m161.737.244c-3.24 2.651-1.623 14.645 1.83 16.56 7.56 4.191 20.034-2.905 26.926 1.891 3.206 2.232 1.85 9.662 1.85 13.049 0 12.996.175 26.24-.003 39.21-.188 13.545-23.776 1.388-30.708 6.94-2.141 1.714-1.223 6.784-1.22 9.204.004 1.9-.255 4.2.565 5.975 1.448 3.133 5.754 2.481 8.559 2.482 8.325.003 16.785-.434 25.088.19 24.694 1.852 50.441-.19 75.265-.19 13.335 0 28.673-.097 39.464-9.517 21.382-18.666 22.243-66.02-5.253-79.564-12.196-6.007-25.56-5.935-38.773-6.263-19.395-.48-39.037.012-58.539.012-10.824 0-21.893.679-32.69-.07-3.245-.224-9.534-2.221-12.36.091m174.292 1.516c1.108 4.086-1.184 14.298 2.523 16.776 7.94 5.306 28.526-7.916 30.038 7.057 1.193 11.812.13 24.26.13 36.134 0 3.628 1.284 10.464-.782 13.594-1.743 2.642-6.425 1.782-9.101 1.782-10.565 0-22.297-3.712-22.029 9.983.038 1.949-.403 4.932.459 6.72 2.17 4.506 14.48 2.36 18.529 2.49 16.692.539 33.485-.741 50.176-.741 4.07 0 14.932 1.98 17.057-2.42.841-1.742.991-4.13 1.121-6.037.158-2.33.82-6.803-.714-8.762-1.518-1.938-5.45-1.233-7.58-1.233-7.264 0-14.812.605-22.044-.045-5.384-.483-6.446-9.836-3.347-13.549 2.038-2.44 5.23-1.395 7.904-1.143 5.944.56 12.26.14 18.246.13 13.407-.022 26.854-.768 40.293-.769 7.371 0 16.44 1.43 23.568-.606 11.853-3.387 21.31-11.91 22.675-24.764 1.425-13.408-3.47-28.35-16.593-33.728-10.373-4.253-22.562-2.371-33.421-2.656-25.394-.667-50.677.25-76.055.25-12.26 0-29.655-3.326-41.053 1.537m259.248-1.865c-5.467 1.588-7.497 13.042-2.832 16.582 7.098 5.387 19.832-2.65 26.827 2.218 3.206 2.232 1.85 9.662 1.85 13.049v29.983c0 3.755 1.048 9.465-.458 12.956-2.198 5.088-20.55 2.42-25.39 2.42-2.21 0-7.385-.964-8.342 1.783-1.156 3.317-.345 14.507 3.132 16.098 4.551 2.082 12.44.57 17.374.57 13.762 0 28.115-1.187 41.813.132 6.56.63 17.19 2.673 23.395-.156 3.77-1.719 3.85-15.237.6-17.52-4.737-3.33-17.57-.907-23.235-.907-3.015 0-7.289.676-9.101-2.42-2.256-3.852-.782-11.667-.782-16.031v-39.21c0-4.552 1.965-15.47-2.493-18.313-5.394-3.44-18.59-.906-24.876-.906-5.263 0-12.491-1.779-17.482-.328M27.383 248.975c5.747-1.741 13.74-.334 19.721-.334 16.305 0 43.103-4.874 57.019 5.22 14.753 10.7 11.822 45.868-6.082 51.864-16.403 5.494-37.641 2.115-54.738 2.115-3.893 0-14.948 1.91-17.719-1.233-1.92-2.178-.527-9.017-.527-11.837 0-11.141.915-22.737-.129-33.828-.346-3.68-2.378-10.503 2.455-11.967m-174.142.655c14.516-1.732 30.19.549 44.855.549 9.731 0 21.687-1.91 31.17.303 11.796 2.754 8.902 19.502-.76 22.796-5.87 2-13.626.734-19.767.734h-41.053c-5.374 0-16.173 2.115-20.928-.464-2.853-1.547-3.287-19.498-1.614-22.136 1.208-1.906 6.1-1.544 8.097-1.782m357.317 0c14.822-1.769 30.686-.22 45.615-.22 9.35 0 20.566-1.424 29.648 1.102 9.786 2.722 8.75 18.771 0 21.879-6.258 2.222-12.592.855-19.005.852-13.643-.005-27.424-.573-41.053.03-5.8.257-18.157 2.836-23.326.275-3.246-1.608-2.983-19.669-.544-22.136 1.833-1.854 6.235-1.492 8.665-1.782m123.163 26.26c-4.587.826-7.585 10.655-2.803 13.034 7.611 3.787 23.192.118 31.689.495 3.303.146 7.346 1.623 10.53.167 4.084-1.866 3.401-11.645-.692-13.092-9.717-3.436-28.634-2.419-38.724-.603" style="fill:#fff;stroke:none;stroke-width:.764516" transform="translate(208.16 -229.849)"/></g></svg>