<svg xmlns="http://www.w3.org/2000/svg" data-name="Layer 1" viewBox="0 0 3839.022 1806.826"><path d="M1167.3 785.3c-24.6-1.4-24 65.1 1.5 61.9 27.7-3.6 18.3-60.8-1.5-61.9M1025.1 827.9c-12.2 13.3 46.1 67.3 59 47.8 14-21.2-46.8-61.1-59-47.8M973.9 919.8c-11.1 20.2 41.2 59.3 54.8 34.7 14.8-26.9-48.4-46.3-54.8-34.7M1319.3 797.5c-23-17.6-66.5 47.8-39.5 61.5 29.3 14.8 58.1-47.3 39.5-61.5M1433.3 880.1c-7.7-24.6-84.6 6.1-71.2 29.4 14.6 25.4 77.4-9.6 71.2-29.4" style="fill:#e3c820"/><path d="M3260 1176.9c-261.9 0-398.6 134.7-398.6 244.1v22.3c0 68.1 86.2 202 417.3 202 250.5 0 362.3-123.8 362.3-214.6V1343c-.1-88.6-109.7-166.1-381-166.1m299.5 238.8a136.654 136.654 0 0 1-136.6 136.6h-328.6a136.654 136.654 0 0 1-136.6-136.6v-61.2a136.654 136.654 0 0 1 136.6-136.6h328.6a136.654 136.654 0 0 1 136.6 136.6Z" style="fill:#d42027"/><path d="M2993.9 971c-38.5 26.8 50.2 154.2 101.9 130 26.3-12.3-64.7-155.8-101.9-130M3428.6 969.8c-43.9-14.6-141.2 111.9-105.7 134.3 43.4 27.4 163.2-115.1 105.7-134.3M3733.5 1089.1c-12-13.1-187.1 57.6-153.4 99.1 30.8 38 182-67.9 153.4-99.1M3838.4 1404.1c13-43.7-181.9-61.3-190.1-15.9-6.7 37.2 177.5 58.2 190.1 15.9M3724.3 1664c29.3-32.9-126.4-132.2-152.3-95.6-21.1 29.9 123.9 127.5 152.3 95.6M2688.3 1156.1c29.2-33.3 175.9 44 158 96.5-14.6 42.7-189.2-60.9-158-96.5M2947.4 1591.6c26.2 43-113 145.2-145.6 100.9-23.1-31.5 126.8-131.7 145.6-100.9M3165.3 1657.7c38.7 18.3-40.3 164.5-75.1 147.8-37.9-18.2 38.6-165.1 75.1-147.8M3371.7 1650.7c54.9-23.1 112.5 140.2 63.8 154.4-44 12.8-104.1-137.5-63.8-154.4M2638.4 1457.1c6.3-36.1 179.9-53.1 184.9-2.1 3 29.9-190.5 34.4-184.9 2.1M3253.2 1254.1c-.8 1-74.2 26.7-63.3 45.4 6.3 10.9 16.7 4.8 25-1.2 31.5-23 47.6 9 27.4 20.7-42.8 24.7-93.8 2.5-93.3-25.7.6-28.5 34.1-50 34.1-50M3406.1 1279.8c-.8 1-93.3 5.4-80 31.5 5.7 11.2 14.4.6 24.2-2.3 16.7-4.8 31.9 24.5 8.8 27.9-27.2 4.1-79.3-3.4-79.3-35 0-28.5 34.1-50 34.1-50" style="fill:#e3c820"/><path d="M3117 1403.1s63.7 35 118.2 35h70.7c17.4 0 52.2-.8 71.2-6.3" style="fill:none;stroke:#e3c820;stroke-linecap:round;stroke-miterlimit:10;stroke-width:36.42359924316406px"/><path d="M3489.6 1354.4c-19.8 27.6-28.8 77.6-53.2 98.5-56.3 48.2-112.5 56.2-189.4 56.2-138.2 0-192.6-34-232.1-90.1-18.6-26.4-2.9-54.7 11.9-75.6 21.2-29.9 52-86.3 207.2-86.3 126.9 0 184 38.1 205.8 53.7 19.1 13.7 29.8 20.6 42.1 23.3a12.922 12.922 0 0 1 7.7 20.3m-255.8-203.6c-261.9 0-398.6 134.7-398.6 244.1v22.3c0 68.1 86.2 202 417.3 202 250.5 0 362.3-123.8 362.3-214.6v-87.8c0-88.5-109.6-166-381-166" style="fill:#e3c820"/><path d="M413.9 1077.4c-324.4-19.7-305.4 100.4-304.6 134.5 0 0-83.1-11.3-83.1 28.1 0 61.5 58.3 96.9 63.7 177.6 2.8 42.6 30.7 241.8 181.7 260.3 70.2 8.6 139.4-11.5 137-94.5-1.1-37.6-37.1-77.7-41.7-103.2a6.8 6.8 0 0 1 6.8-8c286.5.1 357.8-104.9 366.6-184.5 8.5-78.9-40.6-192.9-326.4-210.3m90.8 282.2h-264v-218.2h264.1v218.2ZM1344.8 1546.7c14.1-91.3 33.8-195.8-101.2-195.8-91.3 0-140.4 36.7-155.4 101.4-6.3 27.2 6.2 84.3 1 108.2-7.6 34.8-24.1 106.9 9.7 153.4 38.6 53.2 206.8 81.7 246.2-51 11.3-38.5-7.8-67.8-.3-116.2M1725.8 1448.6a33.55 33.55 0 0 1 10.5-24.9c93.5-88.4 276.4-191.3 493.6-191.3 68.2 0 151.1 47.1 151.1 70.5 0 46.1-68.1 40.4-147.7 58.3-115.9 25.9-257 63.6-257 136.6 0 37.6 4.9 91.2 110.1 91.2 129.4 0 181-76.5 318.7-81.4 42.8-1.5 93.9 14.4 93.9 56 0 39-139.6 139.3-303.1 139.3h-175.6c-87 0-293.3-68-293.3-182.3Z" style="fill:#d42027"/><path d="M387.7 1051.2c-324.4-19.7-305.4 100.4-304.6 134.5 0 0-83.1-11.3-83.1 28.1 0 61.5 58.3 96.9 63.7 177.6 2.8 42.6 30.7 241.8 181.7 260.3 70.2 8.6 139.4-11.5 137-94.5-1.1-37.6-37.1-77.7-41.7-103.2a6.8 6.8 0 0 1 6.8-8c286.5.1 357.8-104.9 366.6-184.5 8.6-78.8-40.5-192.9-326.4-210.3m86.6 187.7c-30.9 57.7-124.6 70-163.2 72.6a22.72 22.72 0 0 1-22.8-14.5l-27.4-70.6a16.09 16.09 0 0 1 8.7-20.6c46.7-20.1 76.6-34.3 117.6-25.7 22.3 4.6 101.4 32.3 87.1 58.8M1318.6 1520.5c14.1-91.3 33.8-195.8-101.2-195.8-91.3 0-140.4 36.7-155.4 101.4-6.3 27.2 6.2 84.3 1 108.2-7.6 34.8-24.1 106.9 9.7 153.4 38.6 53.2 206.8 81.7 246.2-51 11.4-38.4-7.7-67.8-.3-116.2M1699.6 1422.4a33.55 33.55 0 0 1 10.5-24.9c93.5-88.4 276.4-191.3 493.6-191.3 68.2 0 151.1 47.1 151.1 70.5 0 46.1-68.1 40.4-147.7 58.3-115.9 25.9-257 63.6-257 136.6 0 37.6 4.9 91.2 110.1 91.2 129.4 0 181-76.5 318.7-81.4 42.8-1.5 93.9 14.4 93.9 56 0 39-139.6 139.3-303.1 139.3h-175.6c-87 0-293.3-68-293.3-182.3ZM1214.8 870.5c-138.6-4.7-163.1 97.6-163.1 126.4 0 72.7 94.4 78.1 98.4 107.1 2.2 16 4 51.4 50.3 59.6a4.155 4.155 0 0 1 .7 8c-18.7 6.6-43.4 18.1-43.4 32.7 0 23.5 28.8 32.5 74.9 32.5 0 0 42 2.6 42-11.4 0-8.1-17.6-14.3-32.5-18.1a4.156 4.156 0 0 1 .1-8.1c17.7-4.1 40.4-11.6 40.4-23.4 0-11.4-19.2-18.5-35-22.5a4.157 4.157 0 0 1 .2-8.1l15-3a15.42 15.42 0 0 0 12.1-13.4c8.3-64.5 89-52.4 89-141.8 0-28.7-32.7-112.6-149.1-116.5m68.3 158c-17.1 12.7-33.2 29.9-45.6 60.9a9.13 9.13 0 0 1-7.5 5.6c-5.8.5-13.3-.1-18.4-.6a8.71 8.71 0 0 1-7.2-5.4c-8.2-23.6-39.8-49.4-62.2-61.2-30.7-16.1-35.8-33-35.8-42.1 0-16.9 1.7-62.5 99.4-60.8 2.4 0 4.8 0 7.2.1 80.2 2.7 86.4 53.9 86.4 61-.1 11.4 3.8 27.5-16.3 42.5" style="fill:#e3c820"/><ellipse cx="1216.5" cy="1261.5" rx="19.9" ry="18.2" style="fill:#e3c820"/><path d="M2842.4 135.1C2817.6 56.3 2743.2 0 2657.7 0c-85.6 0-159.9 56.3-184.7 135.1l-65.3 193.7V11.3h-342.3c-60.8 0-117.1 24.8-159.9 65.3V11.3h-351.3c-65.3 0-123.8 27-166.6 72v-72h-333.3c-141.9 0-259 117.1-259 259A256.7 256.7 0 0 0 865.1 446h-69.8v301.7h333.3c94.6 0 175.6-49.6 223-126.1 38.3 74.3 114.9 126.1 204.9 126.1H1910v-65.3c40.5 40.5 96.8 65.3 159.9 65.3h977.3Z" style="fill:#fff"/><path d="M1128.7 499.9H847.2v87.8h281.5c54 0 99.1-45 99.1-99.1s-45-99.1-99.1-99.1h-72.1c-65.3 0-119.4-54-119.4-119.4s54.1-119.3 119.4-119.3h279.2V63.1h-281.4a207.2 207.2 0 1 0 0 414.4h72c6.7 0 11.3 4.5 11.3 11.3 0 6.6-4.5 11.1-9 11.1" style="fill:#174991"/><path d="M1054.4 261.3h281.5v-90.1h-281.5c-54 0-99.1 45-99.1 99.1s45 99.1 99.1 99.1h72c65.3 0 119.4 54 119.4 119.4s-54 119.4-119.4 119.4H847.2V696h281.5a207.2 207.2 0 0 0 0-414.4h-72.1c-6.7 0-11.3-4.5-11.3-11.3.1-4.6 4.6-9 9.1-9M2065.5 171.2c-38.3 0-67.6 29.3-67.6 67.6v281.5c0 38.3 29.3 67.6 67.6 67.6h182.4V389.6h-139.6v87.8h51.8v20.3h-51.8a20.19 20.19 0 0 1-20.3-20.3V279.3a20.19 20.19 0 0 1 20.3-20.3h249.9v-87.8ZM2619.4 587.7h204.9l-139.6-414.4c-4.5-11.3-13.5-20.3-27-20.3-11.3 0-22.5 9-27 18l-180.1 524.7h103.6l63.1-186.9v78.8h2.1Zm36-189.1 29.3 90.1h-60.8Z" style="fill:#174991"/><path d="M2792.8 155.4c-18-58.5-72-103.6-137.4-103.6-65.3 0-119.4 42.8-135.1 101.4L2356 635V281.5h-247.7v87.8h162.1V608h-202.7c-49.6 0-87.8-40.5-87.8-87.8V238.7c0-49.6 40.5-87.8 87.8-87.8h290.5V63.1h-292.8c-96.8 0-175.6 78.8-175.6 175.6v281.5c0 96.8 78.8 175.6 175.6 175.6H2428l182.4-529.2c6.7-20.3 24.8-33.8 47.3-33.8s40.5 13.5 47.3 33.8l148.6 441.3h-234.2v87.8h355.8ZM1554.3 608c-49.6 0-87.8-40.5-87.8-87.8V238.7c0-49.6 40.5-87.8 87.8-87.8H1856V63.1h-301.7c-96.8 0-175.6 78.8-175.6 175.6v281.5c0 96.8 78.8 175.6 175.6 175.6H1856V608Z" style="fill:#174991"/><path d="M1574.6 479.6H1793v-87.8h-306.2v130.6c0 38.3 29.3 67.6 67.6 67.6h301.7v-87.9h-261.2c-11.3-2.2-20.3-11.2-20.3-22.5M1793 281.5h-218.4a20.19 20.19 0 0 1 20.3-20.3h259v-90h-299.5c-38.3 0-67.6 29.3-67.6 67.6v130.6H1793Z" style="fill:#174991"/></svg>