<svg xmlns="http://www.w3.org/2000/svg" xml:space="preserve" viewBox="0 0 3840 1224"><defs><linearGradient id="b" x1="637.737" x2="637.737" y1="1985.53" y2="2587.07" gradientTransform="matrix(7.5 0 0 7.5 11426.3 -14877.3)" gradientUnits="userSpaceOnUse" spreadMethod="pad"><stop offset="0" style="stop-opacity:1;stop-color:#48407d"/><stop offset="1" style="stop-opacity:1;stop-color:#6a93c9"/></linearGradient><linearGradient id="d" x1="-867.471" x2="-867.471" y1="1985.53" y2="2587.07" gradientTransform="matrix(7.5 0 0 7.5 11426.3 -14877.3)" gradientUnits="userSpaceOnUse" spreadMethod="pad"><stop offset="0" style="stop-opacity:1;stop-color:#48407d"/><stop offset="1" style="stop-opacity:1;stop-color:#6a93c9"/></linearGradient><linearGradient id="f" x1="31.095" x2="31.095" y1="1985.63" y2="2587.07" gradientTransform="matrix(7.5 0 0 7.5 11426.3 -14877.3)" gradientUnits="userSpaceOnUse" spreadMethod="pad"><stop offset="0" style="stop-opacity:1;stop-color:#48407d"/><stop offset="1" style="stop-opacity:1;stop-color:#6a93c9"/></linearGradient><linearGradient id="h" x1="1240.98" x2="1240.98" y1="1985.63" y2="2587.07" gradientTransform="matrix(7.5 0 0 7.5 11426.3 -14877.3)" gradientUnits="userSpaceOnUse" spreadMethod="pad"><stop offset="0" style="stop-opacity:1;stop-color:#48407d"/><stop offset="1" style="stop-opacity:1;stop-color:#6a93c9"/></linearGradient><linearGradient id="j" x1="1895.91" x2="1895.91" y1="1984.63" y2="2735.93" gradientTransform="matrix(7.5 0 0 7.5 11426.3 -14877.3)" gradientUnits="userSpaceOnUse" spreadMethod="pad"><stop offset="0" style="stop-opacity:1;stop-color:#48407d"/><stop offset="1" style="stop-opacity:1;stop-color:#6a93c9"/></linearGradient><clipPath id="a" clipPathUnits="userSpaceOnUse"><path d="M16209 4525.51c-1846.5 0-2699.2-1194.77-2699.2-2311.53V14.262h957V2213.98c0 807.78 432.7 1548.75 1742.2 1548.75s1742.3-741.71 1742.3-1548.75V14.262h956.9V2213.98c0 1117.5-851.9 2311.53-2699.2 2311.53"/></clipPath><clipPath id="c" clipPathUnits="userSpaceOnUse"><path d="M7141.48 4525.51c-1058.98 0-1789.49-393.01-2221.48-937.5-431.99 545.23-1162.5 938.24-2220.74 938.24C852.73 4525.51 0 3331.48 0 2213.98V14.262h956.988V2213.98c0 807.78 432.782 1548.75 1742.272 1548.75s1742.22-741.71 1742.22-1548.75V14.262h957.04V2213.98c0 807.78 432.73 1548.75 1742.22 1548.75s1742.27-741.71 1742.27-1548.75V14.262H9840V2213.98c.74 1117.5-851.99 2311.53-2698.52 2311.53"/></clipPath><clipPath id="e" clipPathUnits="userSpaceOnUse"><path d="M11181 15h956.992v2942.27H11181Zm0 3747.73h956.992v762.781H11181Z"/></clipPath><clipPath id="g" clipPathUnits="userSpaceOnUse"><path d="M20255.2 15h957.039v2942.27H20255.2Zm0 3747.73h957.039v762.781H20255.2Z"/></clipPath><clipPath id="i" clipPathUnits="userSpaceOnUse"><path d="M27866.3 5642.27c-1846.5 0-2699.3-1194.77-2699.3-2311.53V2318.98c0-807.73-432.7-1548.75-1742.2-1548.75h-926.3V7.5h926.3c1846.5 0 2699.2 1194.77 2699.2 2311.48v1011.76c0 807.78 432.8 1548.75 1742.3 1548.75h926.2v762.78z"/></clipPath></defs><path d="M12546.5 5234.99V4230.43h-154.6v1159.19h3753.5v849.45h-3753.5v154.63H16300V5234.99z" style="fill:#fff;fill-opacity:1;fill-rule:nonzero;stroke:none" transform="matrix(.19142 0 0 -.19142 0 1224)"/><path d="M5391.02 9180h5611.48V7515.74H5613.01V6073.52h-221.99v1664.21h5390.28v1220.28H5391.02z" style="fill:#fff;fill-opacity:1;fill-rule:nonzero;stroke:none" transform="matrix(.13333 0 0 -.13333 0 1224)"/><path d="M13325.4 8822.11V6050.08h-2751.8v-213.34h2975.3v2772.04H16300v213.33z" style="fill:#fff;fill-opacity:1;fill-rule:nonzero;stroke:none" transform="matrix(.13874 0 0 -.13874 0 1224)"/><g clip-path="url(#a)" transform="matrix(.13333 0 0 -.13333 0 1224)"><path d="M13973.1 3901.25c-1591.8 0-2326.9-1029.96-2326.9-1992.67V12.294h825V1908.58c0 696.35 373 1335.11 1501.9 1335.11s1501.9-639.4 1501.9-1335.11V12.294h825V1908.58c0 963.35-734.5 1992.67-2326.9 1992.67" style="fill:url(#b);fill-opacity:1;fill-rule:nonzero;stroke:none" transform="scale(1.16001)"/></g><g clip-path="url(#c)" transform="matrix(.13333 0 0 -.13333 0 1224)"><path d="M7141.48 4525.51c-1058.98 0-1789.49-393.01-2221.48-937.5-431.99 545.23-1162.5 938.24-2220.74 938.24C852.73 4525.51 0 3331.48 0 2213.98V14.262h956.988V2213.98c0 807.78 432.782 1548.75 1742.272 1548.75s1742.22-741.71 1742.22-1548.75V14.262h957.04V2213.98c0 807.78 432.73 1548.75 1742.22 1548.75s1742.27-741.71 1742.27-1548.75V14.262H9840V2213.98c.74 1117.5-851.99 2311.53-2698.52 2311.53" style="fill:url(#d);fill-opacity:1;fill-rule:nonzero;stroke:none"/></g><g clip-path="url(#e)" transform="matrix(.13333 0 0 -.13333 0 1224)"><path d="M11181 15h956.992v2942.27H11181Zm0 3747.73h956.992v762.781H11181Z" style="fill:url(#f);fill-opacity:1;fill-rule:nonzero;stroke:none"/></g><g clip-path="url(#g)" transform="matrix(.13333 0 0 -.13333 0 1224)"><path d="M15564.6 11.526h735.4V2272.43h-735.4zm0 3465.984v-586.14h735.4v586.14z" style="fill:url(#h);fill-opacity:1;fill-rule:nonzero;stroke:none" transform="scale(1.30137)"/></g><g clip-path="url(#i)" transform="matrix(.13333 0 0 -.13333 0 1224)"><path d="M15775.6 3194.2c-1045.3 0-1528.1-676.38-1528.1-1308.6v-572.78c0-457.272-244.9-876.777-986.3-876.777h-524.3V4.246h524.3c1045.4 0 1528.1 676.382 1528.1 1308.574v572.78c0 457.3 245 876.78 986.3 876.78h524.4v431.82z" style="fill:url(#j);fill-opacity:1;fill-rule:nonzero;stroke:none" transform="scale(1.76641)"/></g></svg>