<svg xmlns="http://www.w3.org/2000/svg" viewBox="0 0 833 436"><path fill="none" stroke="#e90004" stroke-opacity=".945" stroke-width="2" d="M409.04 343.25q-1.08 3.98-.08 8" vector-effect="non-scaling-stroke"/><g fill="#0060a8"><path d="M577.83 218.11C598 162.93 617.87 107.18 638.46 51.5q2.71-7.33 5.62-11.48c20.16-28.77 68.05-29.39 88.26-.07q2.92 4.23 5.79 12.18 34.11 94.38 68 188.83.19.54-.39.54h-130.1a1.72 1.55 55 0 1-.7-.16c-1.77-.82-.63-2.22-.65-3.6q-.18-13.17.02-26.34.01-.66.67-.66l85.29.03a.51.51 0 0 0 .48-.68q-26.49-73.25-52.85-146.43c-1.4-3.87-2.85-8.47-5.21-11.49-6.95-8.9-20.95-9.06-28.28-.93q-2.29 2.53-4.18 7.73-33 90.91-65.95 181.8a1.12 1.1 9.6 0 1-1.05.73q-64.64 0-129.23-.05c-24.09-.02-44.6-7.88-58.94-27.26-9.76-13.2-11.06-25.66-11.06-43.2q.01-40.25-.01-80.49 0-13.5 1.37-19.89c5.3-24.62 26.12-42.87 50.53-47.58q6.39-1.23 19.92-1.25 50.34-.08 100.69-.01.5 0 .5.5v29.47q0 .61-.61.61-52.86-.18-105.63-.18-16.25 0-26.44 11.39c-5.95 6.65-7.3 13.91-7.3 23.49q-.03 43.02-.02 86.03 0 11.22 1.39 15.72c3.04 9.86 11.5 17.58 21.34 20.55q4.51 1.35 13.82 1.37 34.05.07 69.93.05a1.02 1.02 0 0 0 1.02-1.02v-81.47q0-.29-.29-.29l-58.97-.01q-.49 0-.49-.49V97.75a.5.5 0 0 1 .5-.5h91.25q.5 0 .5.5l.01 120.22a.42.42 0 0 0 .82.14M122.23 135.19c19.04-.06 37.33 13.89 37.32 33.77-.01 15.96-10.89 28.92-26.15 33.12q-5.02 1.38-14.57 1.39-49.54.07-99.1.02-.56 0-.56-.56L19 173.95q-.01-.95.94-.95h101.09c6.97 0 7.35-6.97 1.78-6.97-13.12-.01-28.63.48-40-1.31-27.05-4.26-51.44-22.94-60.22-49.36C8.08 71.75 39.3 30.31 82.15 22.96q6.74-1.16 19.93-1.18 48.71-.07 97.43-.01a.45.44 0 0 1 .45.44l.06 29.73q0 .55-.55.55-49.26.03-98.45.02-10.85 0-16.38 1.38c-32.24 8.08-44.93 47.7-18.09 70.28q12.69 10.68 29.46 10.9 13.1.17 26.22.12M272.02 240.64c-26.38-3.12-49.17-21.63-55.13-47.78q-1.38-6.03-1.38-17.48l-.02-85.64q-.01-13.52 1.41-19.88c5.35-24.14 26.64-42.2 50.26-46.77q6.63-1.29 19.91-1.31 52.17-.07 104.31-.01a.37.37 0 0 1 .37.37l.04 29.64q0 .45-.45.45-54.81.04-109.59.07c-14.32.01-28.34 8.13-32.52 22.17q-1.21 4.06-1.22 12.32-.02 44.3-.01 88.59 0 9.11 1.41 13.6c4.36 13.92 17.97 21.98 32.41 22.02q54.53.15 109.07-.25a.29.29 0 0 1 .29.29l.31 29.33q.01 1.13-1.13 1.13-51.75 0-104.36-.03-7.02 0-13.98-.83"/><path d="M674.27 178.47a.42.42 0 0 0-.81-.15l-22.55 62.61q-.21.56-.81.56l-37.08.01a.6.6 0 0 1-.56-.8q32.75-90.56 65.52-180.96c2.69-7.44 11.36-9.67 17.39-4.68 2.19 1.81 3.18 4.77 4.14 7.44q25.36 70.43 50.79 140.85a.3.3 0 0 1-.28.4l-74.3.28q-1.81 0-1.78-1.81zm2.5-9.16a.31.31 0 0 0 .29.42l22.15.04a.31.31 0 0 0 .29-.42l-11.02-30.91a.31.31 0 0 0-.59 0zM20.29 241.67q-1.36-.04-1.35-1.41l.32-29.05q0-.46.47-.46 51.26.01 102.51-.02 19.87-.01 32.93-13.04c23.44-23.4 10.7-59.45-19.51-67.79-9.14-2.52-22.7-1.87-33.92-2.04q-10.03-.15-14.36-1.12c-35.89-8.14-36.84-56.47-1.43-65.75q5.61-1.46 19.87-1.47 46.81-.04 93.71-.01a.47.47 0 0 1 .47.47v29.54a.8.8 0 0 1-.8.8q-51.36-.32-102.89-.2c-5.61.01-5.6 7.54 1.24 7.39q12.33-.25 24.68-.22c31.74.1 61.79 17.63 73.31 47.67 17.07 44.49-15.15 88.59-59.42 95.48q-6.44 1.01-19.94 1.03-33.35.06-66.72.03c-6.6-.01-19.31.44-29.17.17M289.01 97.25h78.74a.5.5 0 0 1 .5.5v29.72a.53.53 0 0 1-.53.53H257.03a1.2 1.2 0 0 1-1.2-1.21q.32-21.5.12-43.54c-.08-9.81 6.81-19.36 16.29-22.39q4.18-1.33 14.29-1.34 52.46-.05 104.73-.01a.51.5 0 0 1 .51.5l-.03 29.75a.49.48-90 0 1-.48.49q-46.59.01-93.11-.01c-5.22 0-8.88.93-9.6 6.49q-.07.52.46.52M449.78 69.01c6.71-8.24 13.69-9.47 24.83-9.48q50.94-.07 101.93-.01.56 0 .57.56l.2 29.3a.62.62 0 0 1-.62.62h-91.94c-6.11.01-7.51 4.33-7.51 9.81q.02 31.29 0 62.58c0 5.36 1.16 10.12 7.09 10.54q4.1.3 19.26-.02.47-.01.47-.48v-6.15q0-.53-.53-.53h-18.28q-.5 0-.5-.5V135.5a.44.43 0 0 1 .44-.43l50.76-.1a.8.8 0 0 1 .8.8V203a.83.83 0 0 1-.84.83q-29.11-.38-57.83-.04c-14.2.17-26.92-1.8-32.13-16.74q-1.24-3.55-1.23-9.25.07-48.41.02-96.8 0-5.79 5.04-11.99M288.61 166.31c-.31 4.5 4.43 6.68 8.31 6.68q47.06.02 94.19.01a.29.29 0 0 1 .29.29l-.19 29.78q0 .42-.41.42-54.56.03-109.04.03c-10.31 0-20.79-5.55-24.43-15.62q-1.31-3.63-1.3-10.58.03-19.66-.27-40.29a2 2 0 0 1 2-2.03h109.96a.53.53 0 0 1 .53.53v29.59q0 .63-.62.63h-78.42q-.56 0-.6.56"/></g><g fill="red"><path d="M241.19 384.68c5.24-8.84-.25-17.29-9-20.63-12.13-4.63-29.86-6.26-39.06-17.72q-8.49-10.58-1.21-24.38.29-.55-.28-.31c-2.22.92-7.35 12.12-8.87 15.37q-14.92 31.91-30.14 63.68c-5.63 11.74-13.81 25.69-25.05 31.64q-11.57 6.12-21.83-.34c-7.05-4.45-6.06-14.76 1.62-17.01 6.9-2.02 13.7 3.27 16.97 9.15a1.97 1.96-35.4 0 0 3.03.51c4.15-3.72 21.27-24.87 18.93-30.05q-7.9-17.52-29.04-62.88c-4.3-9.22-6.95-12.91-17.42-15.04q-.51-.11-.55-.63c-1.41-21.51-18.07-42.8-42.11-37.16-10.96 2.58-18.11 10.76-15.71 22.35 2.27 10.93 11.83 15.67 21.98 19.25 19.69 6.95 48.72 13.66 50.42 37.08.8 11.07-1.59 19.24-9.31 27.37q-6.94 7.31-15.86 10.29c-19.24 6.43-37.83 3.68-55.55-4.3a1.39 1.38 28.8 0 0-1.73.5l-2.68 4.07q-.42.64-1.18.64l-6.76.03q-.54.01-.57-.54l-1.77-40.46q-.03-.66.63-.66h6.92a1.58 1.57-6.8 0 1 1.53 1.2c3.32 13.67 12.25 26.64 25.08 32.37 13.89 6.21 39.24 5.63 42.03-14.57 1.92-13.82-7.19-23.02-19.25-27.32-13.37-4.76-31.87-8.93-42.77-18.7-16.22-14.53-12.05-39.24 6.21-49.89 18.42-10.74 38.62-8.7 56.6 1.55q.57.33.89-.24l2.79-5.03q.2-.36.61-.36l7.09-.01q.58 0 .59.57l.65 36.39a.39.39 0 0 0 .39.38l34.2-.04q.6 0 .6.6v5.09q0 .62-.62.67c-2.81.21-7.99.42-10 2.62q-.37.41-.19.92c6.54 18.25 15.6 34.75 23.94 53.8q.22.51.51.03 1.75-2.88 3.22-5.94 9.27-19.29 17.91-38.87 1.52-3.42 1.75-7.16a1.94 1.93-70.5 0 0-.8-1.68q-5.08-3.63-11.34-4.06-.62-.04-.62-.67v-4.76a.73.72-89.2 0 1 .74-.73q16.49.35 32.9.35c1.32 0 2.72.71 3.9.39 4.29-1.18 8.75-2.73 13.04-2.93q12.52-.59 24.22 4.19.32.13.5-.17l2.09-3.63q.35-.61 1.05-.61h5.44q.63 0 .72.62l.21 1.52q.08.56.64.56l10.36.15q.93.01.93-.92v-24.93q0-.75.75-.75H281q.75 0 .75.75v24.98a.97.97 0 0 0 .98.97l26.07-.08q.63-.01.6.62l-.28 6.95a1.08 1.07-89.2 0 1-1.06 1.04q-8.33.06-16.7.01c-2.49-.02-5.76-.48-8.84.15q-.51.1-.51.62-.05 23.89.02 47.73.02 6.8 1.79 12.8c2.67 9.08 20.08 6.95 26.67 5.73q.83-.15.85.7l.12 4.58q.01.7-.64.97c-16.98 6.92-47.59 12.3-47.5-16.59q.08-23.96.27-47.94.03-4.19-.47-8.38-.06-.53-.59-.52l-9.29.07q-.59.01-.57.6l.69 15.07q.04.73-.69.71l-5.57-.14q-.69-.01-.88-.68c-4.54-16.11-19.79-24.39-35.54-17.83-7.94 3.31-9.83 14.14-2.6 19.52 13.52 10.05 46.55 8.96 49.6 30.29 2.71 19.04-12.53 29.62-29.36 31.12-11.51 1.02-19.74-.77-31.21-6.65q-.51-.26-.76.27l-1.81 4.02q-.25.55-.85.55l-5.56-.02a.69.69 0 0 1-.69-.66l-1.16-27.91q-.02-.58.55-.61l5.7-.3q.56-.03.74.51c4.02 12.57 15.24 24.31 28.91 24.35 7.13.02 14.97-.37 19.01-7.19"/><path d="M315.04 388.48c-11.36-9.81-15.24-24.58-14.33-39 1.23-19.68 14.34-35.39 33.77-39.98 14.42-3.4 33.97.34 43 13.26 5.75 8.22 6.54 17.21 5.87 27.68q-.04.56-.6.56H320.5a.51.51 0 0 0-.51.5c-.37 14.35 4.66 29.63 19.08 35.4 14.75 5.9 32.01 1.14 39.34-13.66a1.14 1.14 0 0 1 1.57-.49l5.24 2.89q.67.36.38 1.07c-4.42 11.01-19.34 19.08-30.03 21.11-12.94 2.46-29.94-.19-40.53-9.34m5.22-44.71 43.76-.03q.57 0 .54-.56c-.7-12-2.69-25.91-16.76-27.84-17.53-2.41-27.65 12.44-27.9 28.07a.36.36 0 0 0 .36.36"/><path d="M409.04 343.25q-1.08 3.98-.08 8 .05 15.1.06 30.19c.01 6.47 8.64 8.84 13.66 9.46q.57.07.57.64v3.84q0 .62-.62.62h-45.16q-.63 0-.78-.61-.46-1.95.38-3.8.2-.44.69-.5c10.61-1.3 13.13-2.16 13.21-13.44q.16-23.95-.13-47.9c-.12-9.26-7.47-11.76-15.17-12.46q-.67-.06-.67-.74v-4.24q0-.74.75-.78l31.51-1.44a1.43 1.42 88.7 0 1 1.49 1.43v11.24a.47.47 0 0 0 .77.36c8.97-7.61 16.31-13.59 29.3-14.41q19.19-1.22 29.01 14.67.28.45.64.07c8.35-8.82 19.95-15.12 32.22-15.02 11.35.09 21.48 5.26 25.09 16.38q1.43 4.38 1.43 15.68.01 20.81.14 41.65c.05 6.66 9.16 8.17 14.03 8.75q.55.06.59.61l.32 3.8q.05.7-.65.7h-46.43q-.6 0-.57-.6l.17-4.08a.59.59 0 0 1 .62-.57q6.55.34 12.02-3.19.42-.27.59-.74.94-2.66.94-3.64.04-23.08.01-46.18-.01-12.62-9.64-16.76c-9.8-4.21-21.03.82-28.37 7.95-2.49 2.42-2.95 4.06-2.96 7.73q-.07 23.2.03 46.39.01 1.91 1.05 2.71.38.29.56.75c1.24 3.16 9.31 4.93 11.98 5.1q.61.04.61.65v3.98q0 .5-.5.5h-44.77q-.57 0-.55-.57l.1-3.96q.02-.54.56-.56 5.63-.25 10.74-2.8.41-.21.58-.64 1.3-3.23 1.31-5.78.06-20.47 0-40.94c-.03-9.35-1.03-17.72-10.97-21.14-9.63-3.3-21.26 2.47-27.74 9.73-2.92 3.26-2.06 9.86-1.97 13.91M786.44 341.35q-4.36-.81-5.53 3.32a.7.7 0 0 1-1.37-.17l-.06-4.09q-.01-.63.61-.62l17.01.25a.81.81 0 0 1 .8.86l-.21 3.68q-.03.43-.45.42-.15 0-.31.01-.36.01-.47-.33-1.32-4.06-5.52-3.38-.52.08-.51.61l.1 12.1q.01.52.5.68l2.49.82a.5.5 0 0 1-.16.97l-9.09.03q-.53 0-.52-.52v-.28q0-.23.23-.27l2.42-.41q.6-.11.6-.72v-12.29q0-.57-.56-.67M820.14 343.76l-6.16 11.89a.74.74 0 0 1-1.32-.02l-5.96-12.32a.35.35 0 0 0-.66.15c-.11 3.45-1.49 11.39 3.15 11.84q.58.06.36.6-.08.18-.13.32-.1.28-.39.28h-7.49q-.45 0-.53-.44c-.15-.76 2.2-1.18 2.76-1.48q.48-.26.49-.81l.19-10.73q.01-.56-.5-.83l-2.62-1.35q-.19-.1-.11-.3l.11-.29q.1-.27.39-.27h6.55q.46 0 .66.41l4.94 10.02a.61.61 0 0 0 1.09 0l4.93-10.04q.2-.39.63-.39h6.17q1.33 0 .22.74-.95.63-2.08.82-.58.09-.58.69v11.77q.01.41.39.56l2.52 1.03a.46.46 0 0 1-.17.88l-8.82.01q-1.05 0-.3-.74l.23-.24q.29-.28.7-.27.86.02 1.48-.49.39-.32.4-.82l.23-9.98a.41.41 0 0 0-.77-.2"/></g><g fill="#d10108" fill-opacity=".89"><path d="M658.45 323.01a.62.62 0 0 0-.14 1.08q2.67 1.95 4.04 4.74c4.88 9.97-8.3 40.53-13.56 49.12q-11.06 18.06-33.57 21.9c-1.09.18-2.93-.07-4.4.68q-.45.23-.95.23-8.14-.03-16.27 0c-2.34 0-4.74-.65-7.35-1q-6.33-.87-11.8-4.99c-8.26-6.21-6.93-14.94-5-24.03q2.23-10.46 8.87-26.51.2-.48.72-.48h35.91q.61 0 .66.61.15 1.73-.46 3.48-4.17 11.95-8.47 23.84-.93 2.59-1.27 5.15a.92.92 0 0 0 1.28.96c2.98-1.3 4.6-3.19 5.95-6.37q5.22-12.22 9.53-24.8c3.19-9.3-7.91-9.29-14.56-9.37q-.6-.01-.59-.6c.06-5.66 4.38-15.06 6.5-20.26a1.64 1.63-76.2 0 1 1.66-1.01c10.02.93 17.77.2 21.84-10.35q4.2-10.9 5.44-14.6c1.68-5.04-3.44-3.31-4.96-.95-3.67 5.69-5.59 12.82-7.98 19.13q-.21.55-.58.56l-35.42.12a1.78 1.77-81 0 1-1.69-2.34c5.76-17.5 12.02-36.07 32.16-40.73 3.12-.72 5.87-1.54 9.19-1.66 1.65-.06 2.94-.79 4.46-.8q9.65-.03 19.3 0 .49 0 .84.36.27.28.54.28 6.04.2 12.76 3.02c15.88 6.66 7.88 31.73 2.2 42.35q-5.02 9.39-14.83 13.24M733.46 286.85c-7.99 2.95-11.78 18.16-14.38 25.58q-.2.57-.81.57H685.3a.67.67 0 0 1-.64-.85c6.78-24.17 17.97-43.03 44.39-47.67 10.72-1.88 22.55-1.18 32.64 2.83 12.74 5.07 13.08 22.53 8.79 33.53q-5.62 14.39-15.42 24.99-22.44 24.28-46.87 46.76a.49.49 0 0 0 .33.85q14.69.12 29.46.05c2.62-.01 2.45 1.03 1.79 3.06q-3.53 10.84-7.65 21.46-.18.45-.62.45l-76.21.01a1.57 1.57 0 0 1-1.49-2.07c2.01-6 4.83-16.94 9.12-21.29q27.66-28.02 54.69-56.61c7.31-7.74 13.94-15.87 18.25-25.66q1.76-3.99-1.5-5.91-.43-.25-.9-.08M409.04 343.25q.97 3.98-.08 8-1-4.02.08-8"/></g></svg>