<svg xmlns="http://www.w3.org/2000/svg" viewBox="0 0 288.411 75.415"><path d="M26.048 6.682V2.895H61.39q2.525 0 2.524 3.787zm0 11.36V7.944h6.311v10.098zm15.146 0V7.944h6.311v10.098zm16.409 0V7.944h6.311v10.098zm10.098-11.36V2.895h23.982v3.787zm0 7.573V7.944h6.311q0 1.263 1.262 1.262h15.147v3.787H74.012q0 1.263 1.262 1.262h16.409v3.787H70.226q-2.525 0-2.525-3.787M95.47 6.682q0-3.786 2.524-3.787h23.982v3.787zm0 7.573V7.944h6.311v6.311h12.622q1.262-.001 1.262-.631-.001-.63-1.262-.631h-6.311V9.206h11.36q3.787 0 3.787 3.787v1.262q0 3.787-2.524 3.787h-22.72q-2.526 0-2.525-3.787m31.556-7.573q0-3.786 2.524-3.787h21.458q2.525 0 2.524 3.787zm0 11.36V7.944h6.311v10.098zm20.196 0v-2.524H134.6v-3.787h12.622V7.944h6.311v10.098zm10.098-11.36V2.895h23.982q2.525 0 2.524 3.787zm0 11.36V7.944h6.311v10.098zm23.982 0h-16.409v-3.787h12.622V7.944h6.311v6.311q.001 3.787-2.524 3.787m6.311-11.36q0-3.786 2.524-3.787h21.458q2.525 0 2.524 3.787zm0 11.36V7.944h6.311v10.098zm7.574-2.525V11.73h11.36q1.262.001 1.262-1.262V7.944h6.311v3.787q0 3.787-2.524 3.787l3.787 2.524h-6.311l-3.787-2.524h-10.098zm23.982 2.525V2.895h6.311v15.147zm13.884-11.36-2.524-3.787h7.573l2.524 3.787zm7.574 11.36-6.311-10.098h7.573l3.787 6.059 3.787-6.059h7.573l-6.311 10.098zm9.917-11.36 2.524-3.787h7.573l-2.524 3.787zm13.885 0V2.895h23.982v3.787zm0 7.573V7.944h6.311q0 1.263 1.262 1.262h15.147v3.787H270.74q0 1.263 1.262 1.262h16.409v3.787h-21.458q-2.524 0-2.524-3.787M26.048 34.667V22.361h64.538q11.154 0 11.155 12.307zm0 36.921V59.281h51.79q3.983-.001 3.984-2.051c.001-2.05-1.329-2.051-3.984-2.051H41.983V42.872h35.058q4.78.001 4.781-4.102h19.919v20.511q0 12.307-11.155 12.307zm83.66-36.921V22.361h63.741q11.952 0 11.951 12.307zm0 20.512q0-12.307 11.951-12.307h39.838q3.983.001 3.984-4.102H185.4v4.102q0 12.307-11.951 12.307h-43.822q-3.983-.001-3.984 4.102H185.4v12.307h-75.693zm101.417-20.512L193.368 22.36h23.903l17.7 12.307zm53.156 36.921L240.89 55.354l-23.391 16.233h-23.903l35.342-24.555-11.895-8.263h47.692l-11.895 8.263 35.342 24.555zm.227-49.227h23.903l-17.757 12.307h-23.846z" style="fill:#666" transform="matrix(.81232 0 0 .75362 29.891 10.502)"/><path d="M35.77 67.337q-2.413 0-4.146-1.598-1.733-1.597-1.733-3.57v-7.462h2.475v6.888q0 1.59 1.011 2.517a3.42 3.42 0 0 0 2.393.928q1.401 0 2.404-.928 1-.928 1-2.517v-1.148q0-1.358.815-2.115.815-.756 1.97-.756 1.134 0 1.959.756.825.757.825 2.115v6.889h-2.475v-6.89q0-.573-.31-.573t-.31.574v1.722q0 1.97-1.722 3.57-1.722 1.598-4.156 1.598m0-2.871a2.8 2.8 0 0 1-1.96-.756q-.825-.755-.825-2.114v-6.889h2.476v6.89q0 .573.31.573.308 0 .309-.574v-1.722q0-1.97 1.723-3.569 1.72-1.598 4.155-1.598 2.414 0 4.147 1.598 1.732 1.598 1.732 3.57v7.462h-2.475v-6.889q0-1.587-1.01-2.516a3.42 3.42 0 0 0-2.394-.928q-1.402 0-2.403.928-1 .929-1 2.516v1.149q0 1.358-.816 2.115-.814.754-1.969.754m-.31-10.907q-5.57 0-5.569-5.167v-6.889h2.475v6.889q0 2.87 3.095 2.87h6.806q3.094 0 3.094-2.87v-6.889h2.475v6.889q0 5.167-5.569 5.167zm3.095-2.87H35.46q-2.476 0-2.476-2.297v-6.889h2.476v6.315q0 .574.619.574v-5.167h2.475zm.619 0v-7.464h2.475v5.167q.62 0 .619-.574v-6.315h2.475v6.889q0 2.295-2.475 2.296zM35.46 40.355q-5.57 0-5.569-5.167v-6.889h2.475v6.889q0 2.87 3.095 2.87h6.806q3.094 0 3.094-2.87v-4.593h-6.806v4.019H36.08v-6.315h11.757v6.889q0 5.167-5.57 5.167zm0-2.87q-2.475-.001-2.475-2.297v-6.889h2.476v6.315q0 .573.619.574h5.569q.62 0 .619-.574v-1.149h-.62v1.149h-2.474v-3.445h5.57v4.018q0 2.295-2.476 2.296H35.46zm9.901-17.128v-6.793L32.78 18.157q-.412.191-.413.766.001.478.413.765l15.057 5.167v2.296l-15.882-5.358q-2.063-.957-2.063-2.87 0-2.2 2.063-2.871l15.882-5.55v9.855zm-.619 0h-1.34l4.434 1.627v2.296l-14.438-4.975q-.412-.096-.413-.383.001-.287.413-.383l11.345-4.018zm-5.363-1.434 2.888 1.052V17.87z" style="fill:#002e82;stroke-width:.78242135"/></svg>