<svg xmlns="http://www.w3.org/2000/svg" viewBox="0 0 1924.699 277.256"><path d="M262.074 994.086q0 24.735-15.01 39.95-15.011 15.214-40.563 15.214H9.353v-55.164H206.5V938.91H59.651q-24.338 0-39.553-15.413-15.214-15.415-15.214-39.751v-55.587q0-11.76 4.462-21.9 4.464-10.138 11.966-17.443 7.501-7.304 17.443-11.562 9.94-4.26 20.897-4.26h183.766v55.165H59.652v55.586h146.85q11.76 0 21.905 4.258 10.145 4.26 17.648 11.557 7.5 7.299 11.76 17.443 4.26 10.146 4.26 21.906zm320.489 55.164H361.484q-55.177 0-55.177-55.164V828.16q0-11.76 4.463-21.9 4.463-10.138 11.971-17.443 7.509-7.304 17.444-11.562 9.935-4.26 21.3-4.26H573.24v55.165H361.484v165.927H526.99V938.91H417.057v-55.164h165.506zm207.56-110.341H624.605v-55.164h165.518zM982.27 1049.25H816.752v-55.164h55.573V828.16h-55.573v-55.165h110.75v221.092h54.768z" style="font-size:40px;font-style:normal;font-variant:normal;font-weight:400;font-stretch:normal;text-align:center;line-height:125%;letter-spacing:0;word-spacing:0;writing-mode:lr-tb;text-anchor:middle;fill:red;fill-opacity:1;stroke:#000;stroke-opacity:1;font-family:Zeroes One;-inkscape-font-specification:Zeroes One" transform="translate(-4.384 -772.494)"/><path d="M1069.656.5c-7.296.001-14.247 1.41-20.875 4.25-6.627 2.839-12.436 6.694-17.437 11.563s-8.994 10.678-11.969 17.437-4.469 14.066-4.469 21.906v165.938c0 36.776 18.246 55.156 54.75 55.156h165.532c36.775 0 55.155-18.38 55.156-55.156V55.656c0-7.567-1.411-14.71-4.25-21.468-2.84-6.76-6.75-12.65-11.75-17.657-5.002-5.005-10.893-8.942-17.657-11.781s-13.932-4.249-21.5-4.25zm0 55.156h165.532v165.938h-165.532zM1386.594.5c-7.296.001-14.248 1.41-20.875 4.25s-12.436 6.694-17.438 11.563-8.993 10.678-11.968 17.437c-2.976 6.76-4.47 14.066-4.47 21.906v165.938c0 36.776 18.247 55.156 54.75 55.156h165.532c36.776 0 55.156-18.38 55.156-55.156V55.656c0-7.567-1.411-14.71-4.25-21.468-2.84-6.76-6.78-12.65-11.781-17.657-5.002-5.005-10.893-8.942-17.656-11.781-6.764-2.84-13.901-4.249-21.469-4.25zm0 55.156h165.531v165.938h-165.531zM1703.531.5c-7.296.001-14.279 1.41-20.906 4.25s-12.436 6.694-17.438 11.563c-5 4.87-8.993 10.678-11.968 17.437-2.976 6.76-4.469 14.066-4.469 21.906v165.938c0 36.776 18.277 55.156 54.781 55.156h165.5c36.776 0 55.156-18.38 55.157-55.156V55.656c0-7.567-1.412-14.71-4.25-21.468-2.84-6.76-6.75-12.65-11.75-17.657-5.002-5.005-10.893-8.942-17.657-11.781s-13.932-4.249-21.5-4.25zm0 55.156h165.5v165.938h-165.5z" style="font-size:40px;font-style:normal;font-variant:normal;font-weight:400;font-stretch:normal;text-align:center;line-height:125%;letter-spacing:0;word-spacing:0;writing-mode:lr-tb;text-anchor:middle;fill:red;fill-opacity:1;stroke:#000;stroke-opacity:1;font-family:Zeroes One;-inkscape-font-specification:Zeroes One"/></svg>