<svg xmlns="http://www.w3.org/2000/svg" viewBox="0 0 2496.127 843.482"><g fill="#2d3492" stroke-width=".469"><path d="m475.19 641.764 35.712-76.448 15.679 76.448zm505.42-199.891-96.903 216.183-42.899-216.183h-83.402l-118.679 318.53-55.529-318.53H479.11L321.451 785.259l23.518-143.495H188.4l-12.412 73.94h65.763l-7.621 39.477c-37.455 14.83-101.04 9.19-128.26-37.597-17.204-29.66-33.318-95.663 39.196-156.445 59.23-49.503 161.578-58.484 220.59-32.584 0 0 7.404-41.566 13.066-79.998-113.453-37.597-201.645-6.266-260.658 28.824-80.79 47.414-119.55 120.31-108.88 219.316 11.977 114.67 166.804 187.15 298.113 114.044 1.524-.627 2.177-1.253 3.484-1.462l-12.63 26.736h88.193l55.528-118.013h97.557l21.34 118.013h143.722l73.167-220.36 60.101 220.36h56.182l96.468-243.963 38.108 245.425h84.273l-30.704-395.604zM1112.79 837.686h235.398l14.155-84.385h-147.206l11.541-70.39h128.26l13.937-84.593h-129.349l11.106-69.972h147.423l13.937-84.593h-233.656zM2278.457 567.614l-52.697-128.456h-96.686l99.734 207.827-30.922 186.105h84.709l25.696-164.59 152.214-229.342h-98.863z"/><path d="M2079.425 677.063c-22.647 65.168-77.522 103.183-122.163 83.758-44.423-19.008-62.497-87.727-39.632-153.313 22.864-65.794 77.522-102.973 121.945-83.966 44.64 19.216 62.715 87.935 39.85 153.52m-32.882-231.638c-93.636-20.679-190.975 50.756-217.324 159.578-25.913 109.031 28.527 214.094 121.946 234.981 93.636 20.47 190.757-50.965 217.324-159.787 25.913-109.031-28.744-214.094-121.946-234.772M1663.286 602.913h-58.36l12.849-73.105h54.875c59.666 0 47.472 73.105-9.364 73.105m-10.234 159.16h-74.474l13.065-78.535h70.555c67.287 0 65.327 78.536-9.146 78.536m49.431-315.605c-45.512-.627-158.093 0-158.093 0h.87l-65.327 391.218h190.104c78.393 0 192.717-110.494 88.41-200.727 106.703-106.315.871-189.238-55.964-190.49"/></g><path fill="#2d3492" d="M998.63 493.1c-9.023-4.716-23.5-18.419-23.5-22.243 0-2.404 7.04-15.537 13.711-25.578 21.994-33.102 68.763-89.28 148.504-178.375 10.843-12.115 19.582-22.16 19.42-22.323-.163-.163-8.81 4.502-19.215 10.365-52.793 29.748-102.391 54.937-149.92 76.138-34.986 15.607-42.516 18.53-53.435 20.742-15.796 3.201-26.584.056-37.654-10.978-7.068-7.044-12.095-15.275-12.995-21.279-1.012-6.748 2.056-17.989 8.16-29.892 2.992-5.836 6.386-11.94 7.541-13.562 1.156-1.623 1.907-3.145 1.67-3.382s-2.618.956-5.292 2.651c-26.482 16.795-80.869 46.955-119.495 66.266-47.977 23.985-84.204 38.827-101.908 41.751-13.478 2.226-25.692-1.546-33.643-10.39-4.826-5.367-11.93-17.294-15.467-25.97-2.146-5.262-2.245-6.246-1.195-11.893 4.57-24.573 43.005-69.677 107.713-126.401 23.812-20.875 78.073-64.99 100.663-81.84l3.663-2.732 13.007 18.176 13.007 18.176-20.17 15.551c-72.16 55.636-114.796 92.222-154.378 132.474-19.142 19.464-19.205 19.543-18.269 22.81 1.048 3.651 2.451 4.88 5.604 4.902 3.18.023 25.81-7.958 43.373-15.297 93.362-39.01 199.683-103.714 294.86-179.444 7.897-6.284 14.688-11.047 15.09-10.584s6.031 8.402 12.508 17.644l11.775 16.804-28.392 28.696c-47.446 47.955-82.009 88.933-92.687 109.889-6.084 11.94 6.394 10.617 35.841-3.801 26.706-13.076 57.214-31.051 141.005-83.082 105.895-65.757 136.436-82.81 148.31-82.81 4.156 0 9.29 5.11 21.053 20.953l8.503 11.453-3.683 4.226c-2.026 2.324-13.358 14.501-25.183 27.06-24.097 25.592-69.075 74.807-70.294 76.916-.437.755 6.313-3.273 15-8.951 77.37-50.575 158.857-86.414 236.953-104.215 20.579-4.69 30.318-2.987 41.358 7.234 8.711 8.066 12.281 15.823 12.806 27.828.93 21.254-7.476 34.47-42.404 66.673-115.857 106.818-213.9 136.717-279.448 85.22l-5.85-4.596-15.124 12.235c-42.883 34.69-89.77 79.587-124.76 119.464-17.355 19.781-17.07 19.504-20.027 19.456-1.49-.024-4.51-.985-6.71-2.135m267.648-163.862c46.304-9.38 110.044-49.953 164.622-104.786 9.5-9.543 17.926-18.619 18.727-20.168l1.457-2.817-6.227 1.436c-63.18 14.56-136.597 46.186-201.909 86.975-18.04 11.266-41.818 27.415-41.818 28.4 0 1.407 10.378 6.906 18.17 9.628 13.619 4.758 28.044 5.167 46.978 1.332M21.334 417.15c-7.902-3.911-12.483-12.711-14.12-27.128-1.07-9.417-.144-19.172 2.422-25.516 2.21-5.46 8.305-10.678 14.302-12.245 7.13-1.863 28.231-2.448 37.663-1.044 9.514 1.415 12.932 3.588 14.957 9.508l1.35 3.948 5.36-.244c20.214-.917 95.337-7.28 138.362-11.72 149.33-15.406 271.765-35.706 331.5-54.963 13.513-4.356 18.293-6.62 20.434-9.677 3.872-5.528.64-10.254-10.765-15.744-19.363-9.321-117.824-39.542-197.126-60.505-13.825-3.655-27.586-7.914-31.004-9.597-17.797-8.762-29.979-26.24-35.115-50.383-2.366-11.12-3.5-28.704-2.138-33.14 1.31-4.272 9.98-14.137 16.138-18.362 17.957-12.323 58.059-29.976 99.03-43.592 30.91-10.274 39.396-12.49 103.046-26.914 52.62-11.924 101.209-17.26 147.987-16.252 35.075.756 53.989 3.49 78.42 11.334 9.959 3.197 12.006 4.247 16.106 8.263 11.98 11.735 20.066 34.277 20.125 56.101.055 20.124-5.022 31.175-19.872 43.248-15.268 12.414-36.576 24.52-58.363 33.155-9.39 3.722-12.778 4.597-17.8 4.597-7.602 0-11.78-1.984-13.662-6.487-1.57-3.756-3.426-18.13-3.423-26.513.003-10.262 7.144-20.662 15.715-22.887a964 964 0 0 1 10.767-2.682c19.689-4.795 52.372-18.554 55.843-23.51 2.892-4.128 2.143-8.248-2.212-12.183C732.104 64.13 673.22 54.599 635.13 58.19c-91.438 8.622-190.875 33.562-265.5 66.59-37.331 16.523-47.358 23.58-41.967 29.536 2.008 2.218 1.122 1.95 49.467 14.98 99.613 26.85 160.041 44.953 178.883 53.591 17.634 8.085 33.604 21.798 39.124 33.595 5.568 11.897 8.953 34.723 7.11 47.938-2.023 14.5-7.456 25.151-16.042 31.45-5.74 4.212-21.582 11.232-36.854 16.331-69.964 23.36-223.67 43.703-484.136 64.074-21.128 1.652-38.678 3.004-39 3.004s-2.518-.958-4.881-2.128m1489.11-23.954c-16.99-1.871-29.26-7.557-38.398-17.791-15.408-17.256-16.893-40.394-4.307-67.083 17.243-36.563 60.9-79.637 119.89-118.294 75.228-49.295 139.623-71.08 173-58.528 5.726 2.153 14.626 9.17 18.983 14.966 6.316 8.402 8.741 15.41 9.28 26.812.719 15.187.27 16.084-14.023 27.984-53.217 44.308-108.512 76.397-153.396 89.02-20.248 5.693-28.855 7.1-47.097 7.701-19.022.627-28.534-.398-39.037-4.206l-6.291-2.28-7 7.943c-15.972 18.125-23.38 31.124-23.383 41.026 0 4.676.44 6.16 2.482 8.347 20.843 22.327 104.58 3.172 193.335-44.228 72.396-38.663 143.396-89.068 226.44-160.756 5.064-4.373 9.208-8.395 9.208-8.939s-3.161-5.139-7.024-10.211c-19.253-25.281-22.231-51.312-7.363-64.366 17.505-15.37 48.82-6.182 60.619 17.785 3.163 6.425 3.268 7.04 3.268 19.16 0 13.251-1.546 20.06-7.052 31.066l-2.274 4.545 7.52 9.955c13.277 17.571 22.43 28.577 32.877 39.529 11.371 11.92 16.567 20.165 18.872 29.947 3.47 14.725 1.969 21.851-10.956 51.978-12.721 29.653-20.487 48.613-20.487 50.02 0 .721 1.01.92 2.75.542 3.33-.723 23.57-3.446 59.75-8.038 122.616-15.564 246.804-19.65 333.5-10.974 37.474 3.75 71.789 10.567 92.089 18.293 6.248 2.378 9.914 10.872 9.908 22.957 0 4.894-1.838 23.314-2.381 23.903-.16.173-12.146.86-65.262 3.735l-9.147.495.147-9.411c.08-5.177-.304-9.847-.854-10.38-1.23-1.19-65.989-7.702-92-9.252-24.802-1.478-100.921-.585-129.5 1.52-61.496 4.527-126.87 12.105-195.215 22.63-14.143 2.178-27.154 3.96-28.912 3.96-7.237 0-15.877-8.228-24.958-23.768-3.394-5.807-3.915-7.513-3.915-12.8 0-8.888 2.561-15.646 17.977-47.432 7.602-15.675 16.455-34.575 19.673-42 5.52-12.74 5.85-13.95 5.85-21.5 0-9.61-.328-10.267-11.299-22.64-4.564-5.148-12.89-15.304-18.5-22.57s-10.497-13.116-10.858-13c-.36.116-8.46 6.982-18 15.258-150.642 130.699-277.856 206.24-366.843 217.834-14.693 1.915-41.122 2.7-51.687 1.536m76.128-128.413c20.05-1.914 52.689-14.629 84.558-32.94 23.33-13.405 58.378-37.276 78.5-53.465 4.4-3.54 8.173-6.572 8.385-6.737.865-.674-3.207-5.593-6.19-7.477-2.735-1.73-4.275-1.938-10.695-1.45-42.8 3.251-124.133 45.07-174.825 89.888-12.751 11.274-12.755 11.305-1.354 12.634 6.535.762 9.561.698 21.621-.453"/><path fill="#fd0000" d="M987.227 488.988c-8.981-4.809-23.39-18.778-23.39-22.677 0-2.45 7.006-15.84 13.647-26.076 21.89-33.747 68.442-91.02 147.81-181.852 10.793-12.352 19.492-22.593 19.33-22.759-.162-.165-8.768 4.59-19.125 10.568-52.547 30.327-101.914 56.007-149.22 77.622-34.824 15.91-42.319 18.89-53.186 21.146-15.723 3.263-26.46.057-37.48-11.192-7.034-7.181-12.037-15.573-12.933-21.693-1.007-6.88 2.047-18.34 8.121-30.475 2.979-5.95 6.357-12.173 7.507-13.827 1.15-1.655 1.898-3.206 1.662-3.448-.236-.241-2.606.975-5.267 2.703-26.358 17.122-80.492 47.87-118.938 67.557-47.753 24.453-83.811 39.585-101.432 42.566-13.416 2.269-25.573-1.577-33.487-10.593-4.803-5.471-11.874-17.632-15.395-26.475-2.136-5.366-2.234-6.369-1.189-12.126 4.549-25.052 42.805-71.036 107.21-128.865 23.702-21.282 77.71-66.256 100.194-83.435l3.646-2.786 12.946 18.53 12.947 18.531-20.076 15.855c-71.824 56.72-114.26 94.02-153.659 135.055-19.052 19.844-19.115 19.925-18.183 23.254 1.043 3.724 2.44 4.975 5.577 4.999 3.166.023 25.69-8.114 43.171-15.595 92.927-39.771 198.752-105.737 293.484-182.942 7.86-6.407 14.62-11.262 15.021-10.79.4.47 6.003 8.565 12.45 17.988l11.72 17.13-28.26 29.256c-47.224 48.89-81.626 90.667-92.254 112.03-6.056 12.174 6.364 10.825 35.673-3.874 26.581-13.33 56.947-31.656 140.347-84.702 105.402-67.038 135.8-84.423 147.619-84.423 4.136 0 9.245 5.209 20.954 21.361l8.463 11.676-3.666 4.309c-2.016 2.37-13.295 14.784-25.065 27.587-23.984 26.09-68.752 76.265-69.966 78.415-.435.77 6.283-3.336 14.93-9.125 77.01-51.561 158.116-88.098 235.848-106.246 20.483-4.782 30.176-3.045 41.165 7.375 8.67 8.222 12.223 16.131 12.746 28.37.925 21.668-7.441 35.142-42.206 67.973-115.316 108.9-212.903 139.38-278.145 86.88l-5.822-4.685-15.054 12.473c-42.683 35.366-89.352 81.139-124.177 121.793-17.275 20.167-16.992 19.884-19.935 19.835-1.483-.025-4.488-1.004-6.678-2.176m266.4-167.057c46.087-9.563 109.53-50.926 163.854-106.828 9.454-9.729 17.842-18.981 18.64-20.56l1.45-2.872-6.199 1.463c-62.885 14.845-135.959 47.086-200.967 88.67-17.956 11.486-41.623 27.95-41.623 28.954 0 1.434 10.33 7.04 18.085 9.816 13.556 4.85 27.914 5.268 46.76 1.357M14.49 411.558C6.625 407.571 2.066 398.6.435 383.902-.63 374.3.292 364.355 2.847 357.888c2.199-5.566 8.266-10.887 14.235-12.484 7.097-1.898 28.1-2.495 37.487-1.064 9.47 1.443 12.872 3.658 14.887 9.694l1.344 4.024 5.336-.248c20.12-.935 94.892-7.422 137.716-11.948 148.633-15.707 270.497-36.403 329.953-56.035 13.45-4.441 18.208-6.749 20.339-9.866 3.854-5.635.637-10.454-10.715-16.05-19.273-9.503-117.274-40.313-196.206-61.685-13.76-3.726-27.457-8.068-30.86-9.784-17.714-8.932-29.838-26.75-34.95-51.365-2.355-11.338-3.485-29.263-2.13-33.787 1.306-4.355 9.935-14.411 16.064-18.72 17.873-12.563 57.788-30.559 98.567-44.44 30.767-10.474 39.214-12.734 102.566-27.439C558.855 4.534 607.217-.906 653.776.122c34.912.771 53.738 3.558 78.056 11.555 9.912 3.26 11.949 4.33 16.03 8.425 11.923 11.963 19.972 34.944 20.031 57.194.055 20.515-5 31.782-19.779 44.09-15.197 12.657-36.406 24.998-58.091 33.802-9.346 3.795-12.719 4.687-17.717 4.687-7.566 0-11.726-2.023-13.598-6.614-1.563-3.83-3.41-18.483-3.407-27.03.003-10.462 7.11-21.065 15.642-23.333a941 941 0 0 1 10.716-2.734c19.597-4.888 52.128-18.916 55.583-23.969 2.878-4.208 2.133-8.409-2.202-12.42-13.096-12.119-71.705-21.836-109.617-18.174-91.012 8.79-189.984 34.215-264.262 67.888-37.157 16.844-47.137 24.038-41.771 30.111 1.998 2.262 1.117 1.989 49.236 15.273 99.149 27.372 159.295 45.828 178.05 54.635 17.55 8.242 33.446 22.223 38.94 34.25 5.542 12.128 8.911 35.399 7.076 48.872-2.013 14.782-7.42 25.641-15.966 32.063-5.714 4.294-21.481 11.45-36.683 16.65-69.637 23.815-222.627 44.554-481.876 65.322-21.03 1.685-38.498 3.063-38.818 3.062-.32 0-2.507-.976-4.86-2.169m1482.163-24.42c-16.91-1.908-29.123-7.705-38.219-18.139-15.336-17.592-16.814-41.18-4.286-68.39 17.162-37.275 60.615-81.19 119.331-120.6 74.877-50.256 138.97-72.466 172.193-59.668 5.698 2.195 14.557 9.349 18.893 15.257 6.287 8.566 8.701 15.71 9.238 27.335.715 15.483.267 16.398-13.958 28.53-52.968 45.17-108.006 77.885-152.68 90.754-20.154 5.805-28.72 7.24-46.878 7.852-18.933.638-28.4-.406-38.855-4.288l-6.262-2.325-6.967 8.098c-15.897 18.478-23.271 31.73-23.274 41.825 0 4.768.438 6.28 2.47 8.51 20.747 22.763 104.094 3.234 192.434-45.09 72.058-39.416 142.727-90.804 225.383-163.89 5.04-4.457 9.165-8.558 9.165-9.112s-3.146-5.24-6.991-10.41c-19.163-25.774-22.127-52.312-7.328-65.62 17.423-15.67 48.592-6.303 60.336 18.13 3.148 6.551 3.253 7.178 3.253 19.533 0 13.51-1.539 20.452-7.02 31.672l-2.263 4.634 7.486 10.149c13.214 17.914 22.325 29.135 32.722 40.3 11.319 12.152 16.49 20.558 18.785 30.53 3.454 15.012 1.96 22.278-10.906 52.992-12.661 30.23-20.39 49.56-20.39 50.994 0 .736 1.004.938 2.736.553 3.314-.737 23.46-3.513 59.472-8.195 122.044-15.867 245.653-20.033 331.944-11.188 37.3 3.824 71.454 10.773 91.66 18.65 6.218 2.425 9.867 11.084 9.861 23.404 0 4.99-1.829 23.769-2.37 24.369-.16.177-12.09.876-64.958 3.808l-9.103.505.145-9.595c.08-5.277-.302-10.039-.85-10.581-1.223-1.213-65.68-7.853-91.57-9.433-24.686-1.507-100.45-.597-128.896 1.548-61.209 4.616-126.279 12.343-194.304 23.073-14.077 2.22-27.027 4.037-28.778 4.037-7.202 0-15.802-8.389-24.841-24.232-3.378-5.92-3.897-7.659-3.897-13.05 0-9.06 2.55-15.95 17.893-48.355 7.567-15.98 16.378-35.25 19.581-42.819 5.496-12.989 5.823-14.222 5.823-21.919 0-9.797-.326-10.467-11.246-23.082-4.543-5.248-12.83-15.602-18.414-23.01-5.584-7.407-10.447-13.371-10.807-13.253s-8.422 7.118-17.916 15.555c-149.94 133.247-276.56 210.26-365.132 222.08-14.625 1.953-40.93 2.753-51.445 1.567m75.774-130.917c19.956-1.951 52.442-14.914 84.163-33.582 23.22-13.666 58.106-38.003 78.133-54.507 4.38-3.61 8.136-6.7 8.347-6.868.86-.687-3.192-5.702-6.161-7.623-2.723-1.763-4.255-1.975-10.646-1.478-42.6 3.314-123.554 45.947-174.01 91.64-12.691 11.494-12.694 11.525-1.347 12.88 6.504.777 9.517.712 21.52-.462"/></svg>