<svg xmlns="http://www.w3.org/2000/svg" xmlns:xlink="http://www.w3.org/1999/xlink" viewBox="0 0 1059.215 408.854"><defs><linearGradient id="a"><stop offset=".329" style="stop-color:#258103;stop-opacity:1"/><stop offset="1" style="stop-color:#e6f500;stop-opacity:1"/></linearGradient><linearGradient xlink:href="#a" id="f" x1="172.137" x2="172.222" y1="98.837" y2="109.117" gradientTransform="matrix(43.19963 0 0 43.19963 -7014.854 -4269.056)" gradientUnits="userSpaceOnUse"/><linearGradient xlink:href="#a" id="b" x1="172.137" x2="172.222" y1="98.837" y2="109.117" gradientTransform="matrix(43.19963 0 0 43.19963 -7014.854 -4269.056)" gradientUnits="userSpaceOnUse"/><linearGradient xlink:href="#a" id="c" x1="172.137" x2="172.222" y1="98.837" y2="109.117" gradientTransform="matrix(43.19963 0 0 43.19963 -7014.854 -4269.056)" gradientUnits="userSpaceOnUse"/><linearGradient xlink:href="#a" id="d" x1="172.137" x2="172.222" y1="98.837" y2="109.117" gradientTransform="matrix(43.19963 0 0 43.19963 -7014.854 -4269.056)" gradientUnits="userSpaceOnUse"/><linearGradient xlink:href="#a" id="e" x1="172.137" x2="172.222" y1="98.837" y2="109.117" gradientTransform="matrix(43.19963 0 0 43.19963 -7014.854 -4269.056)" gradientUnits="userSpaceOnUse"/></defs><path d="M111.974 344.215h-4.148v39.916h-4.665l-5.184-36.806q-3.11 0-10.368-1.037t-9.85-2.073q-1.036 0-4.147-.519-3.11-1.037-3.629-1.555-2.073-1.037-6.739-3.11-4.147-2.074-5.184-3.11l-3.628-3.63q-1.556-1.555-3.11-2.591l-1.556-1.556q0-1.036-2.592-4.147-2.074-3.629-3.11-4.665-1.037-1.556-3.11-5.703-1.556-4.665-1.556-5.702-1.037-1.037-2.592-5.184-1.037-4.147-1.037-5.184v-31.622q0-2.074 2.592-7.258t3.63-6.739q-1.556 0-5.703-.518-4.147-.519-8.295-.519l-8.294-1.036q-4.147-.519-5.702-.519-1.037 0-3.11-1.037t-3.111-2.073q-1.037 0-3.11-2.074-1.556-2.592-2.592-2.592 0-.518-1.037-3.629-.519-1.555-1.037-2.591v-13.997q0-.519 1.037-5.184 1.037-4.666 1.037-6.22 1.036-2.074 2.592-6.74 2.073-5.184 3.628-10.368 2.074-5.702 3.63-10.368l2.073-6.22q.518-2.593 5.184-9.85 4.665-7.776 6.22-12.442 1.037-2.073 3.63-8.294 2.591-6.22 5.702-13.478t5.702-13.479q2.592-6.739 3.629-9.33 2.592-6.221 6.739-11.924 4.665-6.22 9.33-11.923 4.666-6.22 8.814-12.96 4.147-6.739 6.22-14.515.519-.518 2.074-3.11l3.11-5.184q2.074-3.11 3.63-5.703l3.11-4.665q0-.519 1.555-3.629 2.073-3.629 3.11-5.702 1.555-1.555 4.666-5.184 3.628-4.147 4.665-4.666 1.037-2.073 5.184-6.22l5.703-5.703q.518 0 3.628-2.592t4.147-3.629q.519 0 3.63-1.036Q124.414.518 125.97 0h19.18l6.222 6.22q1.036.519 2.592 3.63 2.073 3.11 3.11 4.146 0 1.037 1.555 6.221l3.11 7.776q1.037 1.555 3.63 8.294 2.591 6.221 2.591 7.776 0 1.037.519 4.148 1.036 2.592 2.073 5.702t1.555 6.22q1.037 2.593 1.037 4.148 0 1.037 1.037 5.702 1.555 4.147 1.555 6.22.519 3.111 2.074 8.814 1.555 5.184 3.11 10.886t2.592 10.368 1.555 5.702q0 2.592 2.074 6.74 2.592 3.628 2.592 7.257 1.037 3.629 2.074 10.368 1.555 6.22 1.555 7.257v18.662q0 1.037-1.555 3.111-1.037 1.555-2.074 2.592l-4.147 6.22q-3.11 4.666-3.629 5.185-1.037 1.037-5.702 4.665-4.148 3.11-5.184 4.147-1.037 0-4.666 1.037-3.11 1.037-4.665 1.037h-2.592q-.519 0-2.592-1.037t-2.592-1.037q-1.037-1.036-1.556-2.592-1.036-3.11-1.036-3.628-1.037-1.037-2.074-4.147-.518-3.11-1.555-3.63 0-2.073-1.555-6.22-1.037-4.666-1.037-5.702 0-1.556-.519-5.184 0-4.147-.518-8.813t-1.037-8.813v-5.184q-1.037-3.11-1.555-5.702t-1.037-4.666q-.518-2.592-.518-3.628-1.037-5.184-4.666-12.442-3.11-7.257-4.147-9.85-.518-2.073-2.592-9.33-2.073-7.776-2.592-10.368-1.037-2.592-2.592-6.74-1.037-4.147-2.592-8.294-2.073-4.666-3.629-9.85h-3.11v6.221q.519 4.666.519 10.368v9.85q.518 4.665.518 6.22 0 2.074-1.555 8.295-1.037 5.702-1.555 7.257 0-1.036-1.556-4.665-1.036-3.629-1.036-4.666-.519-1.555-1.037-4.665l-1.037-7.258q0-4.147-.518-7.776-.519-3.629-1.037-5.184l-4.666 10.887v51.32l-3.11 4.666-4.147-4.665v-41.99q-1.037 1.036-3.11 3.628-1.556 2.592-3.63 5.703-2.073 2.592-3.628 5.184t-2.074 4.147q-.518 1.037-3.11 6.739-2.592 5.184-5.703 12.442-3.11 7.257-6.739 14.515-3.11 7.257-4.665 11.404-.519 2.074-2.592 4.666-2.074 2.073-2.592 4.147-1.037 3.11-3.11 8.294-1.556 5.184-3.63 10.368-1.555 5.184-3.11 9.85-1.555 4.147-2.073 4.665 0 1.037 1.036 5.184 1.556 4.148 1.556 5.703 1.555 0 6.22.518h20.736q5.184 0 7.776-.518h3.11q2.593-.519 5.703-1.037 3.629-.518 6.739-.518 3.11-.519 4.147-.519 2.074-.518 5.703-1.037 3.628-1.036 7.257-1.555t6.22-1.037q2.593-.518 3.111-.518h44.582q1.555 1.037 7.776 3.11 6.74 2.074 9.331 3.11 1.037 1.038 5.184 5.703 4.666 4.147 5.703 6.22.518 1.556 2.592 5.703 2.592 4.147 2.592 5.703v30.585q0 .518-1.037 3.629t-1.037 4.147q-.518 1.037-1.555 3.629-1.037 2.073-2.592 4.665l-3.11 5.184q-1.556 2.592-2.074 4.147t-1.555 3.11q-1.037 1.037-2.074 2.593l-1.037 2.073q-2.073 2.074-5.184 6.221-3.11 3.629-4.147 4.666 0 1.036-2.073 3.11l-2.592 2.592q-1.037 1.037-3.63 3.11-2.591 2.074-5.701 4.666l-5.184 4.147q-2.074 1.555-2.592 2.074-1.037 1.036-4.666 3.11-3.11 2.074-4.147 3.11-1.037 0-3.629 2.074-2.592 1.555-6.22 3.629-3.111 1.555-6.221 3.629-2.592 1.555-3.11 2.073-.52 0-2.074 1.555-.519.519-.519 1.037v7.776q0 1.555.519 7.258.518 6.22.518 12.96.518 6.739 1.037 12.441t.518 6.74v36.805q0 1.037-.518 3.629l-1.037 6.22q0 3.111-.518 5.703-.519 3.11-.519 3.629-1.037-1.555-2.073-6.74-.519-5.183-1.556-7.257-.518-4.147-1.555-15.033-.518-10.368-1.555-22.81-.518-11.923-1.037-22.81-.518-10.367-.518-14.514zm-32.141-83.98v3.628q0 2.074.518 4.666.519 2.592 1.037 5.702 0 2.074 1.555 6.221 2.074 3.629 4.148 5.702 0 .519 4.147 5.184 4.665 4.666 6.739 6.221.518 0 2.592 1.555 2.073 1.037 2.592 1.037h27.993q.519 0 2.592-1.037l5.184-2.073 5.184-3.11q2.592-1.556 3.629-2.593 1.037-.518 3.11-2.592t3.11-2.592q.519-2.073 2.593-5.702 2.592-4.147 2.592-6.22v-13.997q0-1.037-2.592-5.184-2.074-4.666-2.592-5.703-1.037-.518-4.666-2.592-3.11-2.592-4.147-2.592-.519-1.037-6.22-1.555-5.703-1.037-7.777-1.037h-13.997q-2.591 0-7.257.519-4.666 0-9.85.518-4.665 0-8.812.518-3.63.519-4.147 1.037-1.037 0-3.11 1.037-1.556.518-2.593 1.037 0 2.073-1.037 7.257-.518 5.184-.518 6.74z" aria-label="S" style="font-size:518.396px;font-family:&quot;a dripping marker&quot;;-inkscape-font-specification:&quot;a dripping marker, Normal&quot;;white-space:pre;display:inline;fill:url(#b);stroke:#ababab;stroke-width:0" transform="matrix(1.09675 0 0 .91178 0 0)"/><path d="M210.469 348.362q-1.037 0-4.666 1.037-3.11 1.036-4.147 1.036-.519-.518-3.11-2.592-2.074-2.073-2.074-2.592v-82.943q.518-15.033 1.037-35.25.518-20.218 1.037-43.546 1.036-23.328 1.555-43.545t1.036-35.251q.519-15.034.519-18.663 1.037-1.555 4.147-7.775 3.629-6.74 4.666-8.295 0-1.037 3.11-4.147l4.666-4.666q1.036-.518 4.147-2.592 3.11-2.073 4.147-2.592 1.555-1.555 3.11-2.591 1.037-1.037 2.592-1.556h8.295q1.036 0 2.073 1.556 1.037 1.555 1.037 2.591 0 .519 1.037 3.63 1.555 3.11 1.555 4.146v11.405q0 1.037-.518 4.666-.519 3.11-1.037 6.739 0 3.629-.519 7.257-.518 3.11-.518 4.148 0 4.665-.518 21.772-.519 16.589-1.556 39.917-.518 22.81-1.555 49.247-1.037 25.92-2.073 49.248-.519 22.81-1.556 39.916-.518 16.59-.518 21.255-1.037 2.073-2.074 5.184-.518 3.11-1.555 4.147-1.555 1.555-2.592 3.629l-3.11 4.147q0 1.037-1.037 3.11t-1.037 3.11q0 2.074-.518 7.258-.518 5.702-1.037 11.923 0 6.22-.518 11.405-.519 5.702-.519 7.776-.518 2.592-1.555 7.257l-1.037 9.331q-.518 5.184-1.036 9.332v5.702q0 1.037-1.556 7.776-1.036 6.739-1.036 8.813 0 .518-1.037 5.184-1.037 4.665-2.074 6.22 0 1.037-1.037 4.147t-1.036 3.63z" aria-label="I" style="font-size:518.396px;font-family:&quot;a dripping marker&quot;;-inkscape-font-specification:&quot;a dripping marker, Normal&quot;;white-space:pre;display:inline;fill:url(#c);stroke:#ababab;stroke-width:0" transform="matrix(1.09675 0 0 .91178 0 0)"/><path d="M377.392 337.476q.519-1.037-1.555-1.556-1.555-1.036-3.11-2.592l-6.22 53.395-3.63 2.074q-1.037-1.037-1.037-4.666 0-3.11-1.036-3.629v-7.776q.518-6.22.518-13.478.518-6.739 1.037-12.96.518-6.22.518-7.776v-5.702q.519-4.147.519-8.294.518-4.148.518-7.776v-4.666q-.518-.518-1.037-1.555-1.037-2.074-1.037-3.11-1.036-1.556-4.147-6.221-2.592-4.666-3.628-6.22l-3.11-4.667q-1.556-3.628-3.63-7.257t-4.147-6.22l-2.073-4.148q-1.556-1.037-5.703-5.184-3.628-4.666-7.776-9.331-3.628-5.184-7.257-9.85-3.11-4.665-4.666-6.739-.518 1.037-1.037 3.629v3.11q-.518 1.556-.518 4.666 0 1.555-.518 2.592v12.441q.518 9.332.518 20.218.518 10.886.518 20.736.519 9.33.519 11.923-.519.518-.519 2.592 0 1.037-.518 2.073v4.666q-1.037.518-4.147 4.666-2.592 3.628-3.629 4.147-1.037 1.037-3.629 3.11-2.073 2.074-5.184 4.666l-6.22 4.147-3.63 3.629-5.183 2.073q-1.037 0-3.11-.518h-3.11q-1.038 0-2.074-.519h-1.556q-1.036 0-1.555-.518l-2.073-2.592v-8.813q0-3.11-.519-6.22-.518-3.63-1.037-5.184v-17.626q.519-3.629.519-4.665v-10.368q0-3.63-.519-6.221 0-3.11-.518-4.147 0-2.592-.518-7.776v-25.92q0-3.11-1.037-9.331l-1.037-13.478q-.518-6.74-1.555-12.442-.519-5.702-.519-7.258 0-2.073-.518-7.257t-1.555-10.368q-.519-5.702-1.037-10.368-.518-5.184-1.037-6.739 0-1.037-1.036-4.666-.519-4.147-1.556-8.294-.518-4.147-1.555-8.294-.518-4.147-.518-5.703 2.073 0 2.592-1.555.518-.518.518-2.592.518-2.073.518-4.147.519-2.592.519-4.666v-2.592q1.037 0 3.11-3.11 2.592-3.11 3.629-3.629 4.147-3.11 6.74-5.702.518 0 4.146-1.555 3.63-2.074 4.666-3.11.518-.519 1.555-.519t2.074-.518q1.555 0 2.592-.519.518.519 1.555.519t1.555.518h4.665q1.037.518 2.593 2.592 1.555 2.074 2.592 3.629 0 .518 1.036 2.592t2.074 4.665q1.555 2.074 2.074 4.666 1.036 2.073 1.036 2.592 1.037 2.592 4.147 6.739t3.11 5.184q.52 1.037 3.63 5.184 3.11 3.629 6.739 8.294 4.147 4.147 7.257 8.813 3.63 4.147 5.184 6.74 3.11 3.11 10.368 11.922t15.034 19.18q8.294 9.85 15.552 19.182 7.257 8.812 10.367 12.441v-1.555l.519-1.037q0-1.555-.519-5.184l-1.036-8.294q-.519-4.147-1.037-7.776t-.518-4.666q0-3.628-1.037-16.588t-2.074-27.994q-1.037-15.552-2.073-28.512t-1.556-16.588q0-2.592-.518-4.666-.518-1.555-.518-3.629l-4.148-1.036q-2.073-.519-3.628-1.556-3.63-1.036-2.592-4.665v-6.22q0-1.038.518-1.556.518-1.037 2.074-3.629 1.555-3.11 2.592-4.147 0-1.037 1.555-2.592t1.555-2.592l3.11-4.666q2.592-3.11 3.11-2.591 1.556-2.592 6.221-5.703 4.666-3.11 7.258-4.665 1.555-1.037 3.629-2.074 4.147-2.074 4.665-2.074l3.11-1.555q2.074-1.037 3.111-.518h1.037q.518 0 1.037.518h6.22q1.037.519 2.592 3.11 1.556 2.593 2.074 3.63 0 1.555.518 3.628 1.037 4.147 1.037 4.666 0 1.037.519 6.739 1.036 5.184.518 7.776 0 2.073.518 11.405 1.037 8.812 1.556 19.699.518 10.886 1.036 20.217.519 9.331.519 11.405.518 2.592 1.037 7.257.518 4.147.518 8.813.518 4.666.518 8.294.519 3.11.519 3.63 1.037 7.775 2.592 23.327 2.073 15.552 4.665 35.25 2.592 19.7 5.184 41.473 3.11 21.254 5.703 40.953 2.592 19.18 4.665 34.732t3.11 22.81l-.518 2.592q0 2.073-.518 3.629 0 1.036-3.11 4.665-2.593 3.629-3.111 4.666-.518.518-3.11 2.073-2.074 2.074-4.666 4.147t-5.184 3.63l-2.592 2.591q-1.037 1.037-5.702 2.074-4.147 1.555-6.221 2.592-1.037 0-2.074-.519h-1.036l-2.592-.518q-1.037-1.037-3.63-4.666-2.073-3.628-3.11-4.665-1.555-2.074-4.665-8.813-2.592-6.22-5.702-13.478t-6.221-13.997q-2.592-6.22-4.147-8.813l-4.666-.518-7.776 61.69-3.629 7.257v-15.034q.519-4.665.519-9.331 0-4.147-.519-5.702.519-3.63 1.556-11.923 1.036-7.776 2.073-16.59 1.037-8.812 2.074-17.106 1.037-7.776 1.555-10.887z" aria-label="N" style="font-size:518.396px;font-family:&quot;a dripping marker&quot;;-inkscape-font-specification:&quot;a dripping marker, Normal&quot;;white-space:pre;display:inline;fill:url(#d);stroke:#ababab;stroke-width:0" transform="matrix(1.09675 0 0 .91178 0 0)"/><path d="M525.135 341.623q-1.555-.519-5.702-2.074-3.629-2.073-7.776-4.147-3.629-2.592-7.258-4.666-3.628-2.073-4.665-3.11-2.074-1.037-5.703-2.592-3.11-2.074-3.11-3.11-1.555-1.556-5.702-5.184l-7.776-7.776q-4.147-4.147-7.776-7.258-3.629-3.629-4.147-4.665 0-.519-4.148-6.74-4.147-6.739-6.22-10.367-1.037 0-2.074-1.556-.518-2.073-1.555-3.11l-3.11-7.776q-1.556-5.184-2.592-6.22 0-1.556-1.037-6.221-1.037-4.666-1.037-5.184v-46.138l1.037-5.184q.518-2.592.518-4.665.519-2.592.519-4.147 1.036-.519 1.555-3.63 1.037-3.11 1.555-4.146l3.629-7.258 5.184-10.368q2.592-5.702 4.665-10.368 2.592-4.665 3.11-6.22 1.037-.519 4.148-4.666 3.11-4.666 4.147-5.184l7.776-7.776 10.368-10.368 9.85-9.85q4.665-4.665 5.702-6.22.518-.518 2.592-2.074l5.184-3.11q3.11-2.074 5.702-3.629 2.592-2.073 4.147-3.11 2.074-.519 8.294-3.629l8.295-4.147q1.555-1.037 7.776-3.11 6.739-2.074 9.33-3.11 1.556 0 7.777-1.038 6.739-1.036 8.294-1.036h16.589q1.555 0 8.294 1.036t9.331 1.037q1.037 1.037 4.147 2.074t3.63 2.073q2.073 0 6.22 2.592 4.666 2.074 5.702 2.592 1.556 1.037 5.703 4.666 4.147 3.11 5.184 4.147.518 0 3.628 4.147t4.148 5.703l1.036 2.073q1.037.518 1.556 1.555.518 1.555 1.036 2.592v11.923q0 .519-1.555 3.63-1.037 3.11-2.073 4.146-1.037 1.555-3.63 4.666l-5.702 5.702-5.184 6.221q-2.591 2.592-4.147 3.629-1.036 0-4.665 1.037-3.11 1.036-4.666 1.036h-4.665q-2.074-1.036-5.184-4.147l-4.148-4.147q0-1.037-1.555-4.147-1.036-3.11-1.036-3.629-.519-1.037-3.63-4.147-3.11-3.629-4.146-4.666-1.037-.518-5.703-2.592-4.147-2.073-5.702-2.592-1.037-1.036-4.666-2.592-3.11-1.555-4.147-1.555H553.13q0 2.592-.519 8.295 0 5.702-.518 11.923-.519 6.22-1.555 11.923-.519 5.702-1.037 7.776 0 1.555-1.555 6.739-1.037 5.184-1.037 7.257l-4.666-5.702v-48.21l-6.739 20.217-2.592-2.074q-.518-2.074-1.555-5.702-.519-4.147-.519-6.221h-3.11q-1.037 1.037-2.592 1.555l-2.073 1.037q-1.037.518-1.556.518-1.036 1.037-4.147 3.11-3.11 1.556-3.629 1.556l-4.665 4.665q-3.11 3.11-4.147 4.666-1.556 1.037-4.666 5.702-3.11 4.148-3.11 5.184-1.037 1.037-3.11 5.703l-3.111 6.22q-.518.519-1.555 3.63-.519 3.11-1.555 4.146 0 2.592-1.037 7.776t-1.037 6.221v27.993q0 1.037 1.037 5.184 1.037 3.63 1.037 6.221 1.036 1.037 2.073 4.666 1.037 3.11 1.037 4.147 1.037.518 3.11 5.184 2.074 4.665 3.11 6.22l2.074 3.111q1.037 1.037 1.555 2.592 1.037 1.037 1.037 2.074 2.074 2.073 5.184 6.739 3.11 4.147 4.147 4.147 1.037 2.073 5.184 6.739l5.184 5.184q1.556.518 6.221 3.629 4.666 3.11 5.184 4.147l4.147 2.074q3.11 1.555 6.221 3.628 3.629 1.555 7.258 3.63 3.628 1.554 5.183 2.073.519 0 3.63 1.555 3.11 1.037 4.146 1.037l4.666 1.555q3.629.518 6.74 1.037 3.11.518 5.701 1.036h3.11q1.556 0 5.703-1.036 4.666-1.556 5.703-2.592t5.184-4.666 5.183-5.702q2.592-3.63 5.703-9.85 3.629-6.739 3.629-7.776v-38.361q-4.148-.518-13.479-1.037t-20.217-.518q-10.886-.519-20.736-1.037-9.331-.518-13.478-1.037-3.11 0-9.331-.518-5.703-.519-11.923-.519-6.221-.518-11.405-1.036-5.184-.519-6.74-.519-1.036-.518-4.147-1.037-3.11-1.036-3.628-2.073-1.037-1.037-1.555-2.074-1.037-2.073-1.037-2.592v-3.629q0-1.555 1.037-4.665.518-1.555 1.555-3.11.518-1.556 3.11-4.666l6.22-6.22 5.703-5.703q3.11-2.592 4.147-3.629 1.037 0 4.148-1.037 3.628-1.555 4.665-1.555h17.107q8.294 0 20.736.518 12.96 0 26.957.519 14.515 0 28.511.518 14.515 0 26.439.519 11.923 0 19.699.518h9.85q1.036 0 4.146.518 3.63 0 7.258.519 4.147.518 7.776 1.037h4.665l4.148 4.147v9.849q0 1.037-1.556 3.11-1.555 2.074-2.592 3.111-.518 1.037-2.592 4.666-2.073 3.628-2.592 4.665-1.036 0-1.555.519-1.037 1.036-1.037 2.073-1.555 1.555-6.22 4.666-4.666 3.11-5.184 3.11-2.074 1.037-8.295 3.11-6.22 2.074-8.294 3.11-1.037.52-2.074 3.63-.518 3.11-1.555 4.147v8.295q.519 1.036 1.037 5.183 1.037 4.147 2.074 9.85 1.036 5.184 1.555 10.368 1.037 5.184 1.555 8.294.518 1.555 1.037 7.257 1.037 5.703 2.073 6.74 0 1.555.519 4.665 1.037 3.11 2.073 6.74l2.074 6.22 1.555 4.666q0 1.036.519 4.147 1.036 3.11 1.555 6.739 1.037 3.11 1.555 5.702 1.037 2.592 1.037 3.11v5.703q.518 4.147.518 5.702 0 3.11-.518 6.74v5.184q-1.037 2.073-2.074 3.628t-2.073 2.592q-.519 1.037-.519 2.074-2.073 2.073-6.739 5.702-4.147 3.629-5.184 4.666-1.555 1.037-5.702 3.629t-5.703 2.592h-8.812l-2.074-2.592q-1.037-1.037-3.11-8.295-1.556-6.739-2.592-9.33l-1.037-4.148q-.519-1.555-1.555-3.629-.519-1.555-1.037-2.592 0-1.555-1.037-6.739t-2.592-11.405-3.11-11.923q-1.037-5.702-1.037-7.257 0-1.037-1.555-4.148-1.037-3.11-1.037-4.147-1.555 1.555-6.74 5.703-5.183 4.147-7.257 5.702-2.592 2.074-6.739 5.702-4.147 3.11-4.665 3.11-2.074.52-8.295 3.63l-8.294 4.147q-1.555 1.036-8.294 3.628t-9.332 2.592q1.037 1.556 1.037 7.776 0 6.74-1.037 9.332 0 1.036-1.555 6.22-1.037 5.703-1.037 7.776-.518-1.037-1.555-2.073-.518-.519-.518-1.037-1.037 0-2.074-4.666-.518-4.665-1.037-6.22 0-2.074-1.555-7.776-1.037-5.184-1.037-7.258l-1.036-1.037q-1.037-1.037-2.592-1.037h-2.592q0 2.592-.519 9.332 0 6.739-.518 13.996-.518 7.776-1.037 14.515v9.331q-.518 1.556-1.037 5.184l-1.036 7.258q0 4.147-.519 7.776-.518 4.147-.518 5.702t-1.555 6.74q-1.037 5.183-1.037 7.257-1.037 0-2.074 1.037-.518 1.037-1.555 1.037 0-1.556-1.555-6.74-1.037-5.184-1.037-7.257v-27.994q0-.518-1.037-5.702-1.037-4.665-1.037-5.702-.518-1.555-1.036-6.74-.519-5.183-1.037-10.886-.519-5.702-1.037-10.886v-7.258z" aria-label="G" style="font-size:518.396px;font-family:&quot;a dripping marker&quot;;-inkscape-font-specification:&quot;a dripping marker, Normal&quot;;white-space:pre;display:inline;fill:url(#e);stroke:#ababab;stroke-width:0" transform="matrix(1.09675 0 0 .91178 0 0)"/><path d="M760.486 328.663q-1.036 1.037-2.073 1.555l-2.074 1.037q-.518.518-1.555.518-1.555 1.037-3.629 2.592-4.147 3.11-4.665 3.629-3.11 1.037-6.221 2.592l-4.147 2.073q-1.037 0-2.592.519-1.037.518-2.074.518t-2.592-.518q-1.036-.519-2.073-.519l-1.037-1.036-1.037-1.037V329.7l1.037-4.148q.518-2.592.518-4.665.519-2.592.519-3.11 1.037-3.63 2.073-9.85t1.037-7.258V219.8q0-.519-1.037-1.037l-2.073-2.074h-2.074q-.518.519-3.11 1.037-2.074.518-4.666 1.037-2.073 0-4.147.518l-2.074.519h-13.997q-1.036-.519-1.554-1.037-1.037-1.037-1.037-2.074l-1.037-1.037q-.518-.518-.518-2.592 0-1.555.518-2.592l1.037-2.073q0-1.037.518-2.592 1.555-2.592 2.074-3.11.518-1.037 2.592-4.148t2.592-4.147q0-1.037 2.592-2.592 2.592-2.073 3.628-3.11 1.037 0 5.184-3.629t5.184-4.665q1.556 0 2.592-1.037.519-.519 1.037-1.555v-5.184q-.518-1.037-1.555-8.813-.518-7.776-1.555-17.107t-2.074-17.107q-.518-8.295-1.037-9.85l-5.184-10.368-3.11-4.665q-2.073-3.63-3.11-3.63-1.037-2.073-5.184-6.22-4.147-4.665-5.184-5.702-1.037 0-4.666-2.074-3.629-2.592-4.665-3.11l-2.074-2.592V69.983q0-1.037 2.592-5.184 2.074-4.665 2.592-5.702 1.037-2.074 5.184-6.22l5.702-5.703q2.074-.519 6.221-2.592 4.666-2.074 5.702-2.592h7.776q.519 0 3.63 1.555 3.11 1.037 6.22 2.592 3.629 1.555 6.22 2.592 3.111 1.037 4.148 1.037 2.592 1.555 7.776 4.147 5.184 2.073 6.22 2.073 2.593 1.037 7.258 2.592 5.184 1.556 10.368 3.63 5.702 1.554 9.85 3.11 4.665 1.555 5.702 2.073 1.037 0 5.184 1.037t9.331 2.592q5.702 1.555 10.886 3.11 5.703 1.037 8.813 1.037 1.037 0 6.22 1.555 5.185 1.037 7.777 1.037 1.037.519 3.628 1.555l5.184 1.037q2.592.519 4.666 1.037h3.11q3.63 0 11.924 1.037 8.294.518 17.625 1.555t17.625 2.073q8.295.519 11.924 1.037l1.036 1.037 1.037 1.037v11.923l-2.073 4.666q-1.037 1.555-3.11 4.147l-4.148 5.184-4.147 5.184q-2.074 2.592-2.592 3.11l-5.703 110.418-4.665 2.592V129.08l-2.074 1.037q-.518.519-1.036.519-.519 0-.519.518-.518.518-1.037 7.776-.518 6.739-1.036 15.033 0 7.776-.519 14.515l-.518 6.221q0 1.037-2.074 2.074l-2.073 1.037v-48.73q-2.074-.518-7.776-1.036-5.184-.519-11.405-.519l-11.405-1.037q-5.184-.518-7.257-.518-1.555 0-5.184-.518-3.11-.519-6.74-.519-3.628-.518-6.739-1.037t-4.147-.518q-1.555-.518-7.776-1.555-6.22-1.555-13.478-3.11-6.74-1.556-12.96-2.593t-7.776-1.036h-2.073q0 1.036-.519 4.147-.518 3.11.519 4.147v7.776q.518 6.74.518 15.033.518 8.295 1.037 15.552l.518 6.74q3.11.518 10.887 1.036 7.775.519 16.07 1.037 8.813.518 16.07 1.037 7.776.518 10.886 1.037 1.037 0 5.184 1.036 4.666 1.037 5.703 1.037.518 1.037 2.592 3.11 2.592 1.556 2.592 2.593v8.294q0 1.037-1.037 3.11-1.037 1.555-1.037 2.592-1.037 2.074-3.11 5.184-1.555 2.074-2.592 3.11-1.037 2.074-4.147 5.185l-4.148 4.147q-2.073 1.036-6.739 3.11-4.147 1.555-5.184 1.555-.518.519-1.555.519-1.037.518-3.11.518-1.555 0-3.63-.518-2.073-.519-3.11-.519t-6.739-1.037q-5.702-1.036-7.257-1.036h-13.997v72.057q1.555 0 8.813-1.037 7.257-1.037 8.813-1.037 2.073 0 7.776-.518 6.22-.519 12.96-.519 6.739-.518 12.441-1.036 6.22-.519 8.813-.519-1.037-1.555-3.629-6.739t-2.592-7.258q0-1.036-1.037-6.22-1.037-5.703-1.037-7.776v-3.629q0-1.037 1.037-4.147t1.037-3.629 1.037-3.629q.518-1.555 1.555-2.592.518-1.036 3.11-3.11l5.184-5.184q2.592-2.592 5.184-4.666 2.592-2.592 4.147-3.628 1.037-.519 2.592-1.037 2.074-1.037 3.11-2.074h10.887q.518 1.555 1.037 2.592.518 1.555 2.073 3.11 0 1.037 1.037 6.221 1.037 4.666 1.037 5.184l4.147 8.295q3.629 6.22 4.666 8.294.518 1.555 3.629 5.702t4.147 5.703q.518 1.037 3.11 3.628 2.592 2.074 5.184 4.666l5.184 5.184q2.592 2.074 4.147 3.11 1.037 1.037 6.74 5.703 5.702 4.147 7.257 5.702 1.037 1.037 4.147 3.11t3.629 3.11q1.555.52 6.22 3.111 5.185 2.074 10.887 4.666t10.368 5.184q5.184 2.592 6.739 3.629 1.037.518 3.11 2.591 2.592 2.074 2.592 2.592v10.886q0 1.038-1.555 3.63-1.037 2.073-1.555 2.073-1.037 1.555-3.629 4.147-2.073 2.592-4.665 5.184l-5.184 5.184q-2.074 2.592-3.11 3.11-1.038 0-3.111 1.037-2.074 1.556-3.11 1.556h-13.997q-1.037 0-3.629-1.037-2.592-.519-6.22-1.555l-6.221-2.074q-2.592-1.037-3.11-1.555-4.148-1.037-11.406-2.592-6.739-2.074-13.996-3.629t-12.96-2.592q-5.184-1.555-6.22-1.555-1.038 0-2.593-.518-3.11-1.037-3.629-1.037-.518 0-2.592 1.037-2.073.518-2.592.518 0 1.037-.518 4.665l-1.037 7.258q0 4.147-.518 7.776-.519 3.629-.519 4.666 0 1.555-1.555 7.257-1.037 5.702-2.073 6.74 0 1.036-1.556 3.11-1.036 2.073-1.036 3.11 0-1.037-.519-4.147 0-2.592-.518-5.703l-1.037-6.22v-4.147q-.518-1.037-1.037-5.184-.518-3.63-1.037-8.295t-1.036-8.812v-5.703l-2.592-2.592q-1.037 0-2.592 1.037-1.037.518-2.074.518v82.425l-3.629 13.997q-1.036-.518-2.073-3.629t-1.037-4.147q0-1.555-.518-5.184-.519-3.11-1.037-7.257 0-3.63-.519-7.776-.518-3.63-.518-5.184-.518-3.63-1.037-13.479-.518-9.33-1.037-20.217 0-10.886-.518-20.218-.518-9.849-1.037-13.996z" aria-label="E" style="font-size:518.396px;font-family:&quot;a dripping marker&quot;;-inkscape-font-specification:&quot;a dripping marker, Normal&quot;;white-space:pre;fill:url(#f);stroke:#ababab;stroke-width:0" transform="matrix(1.09675 0 0 .91178 0 0)"/></svg>