<svg xmlns="http://www.w3.org/2000/svg" viewBox="0 0 969 199"><g fill="none" stroke="#a6a8a7" stroke-width="2"><path d="M61.44 32.31c2.9 2.32 2.11 5.85 1.39 9.99q-1.33 7.68-2.54 15.4a.48.47 4.6 0 0 .47.55h14.4a.57.56 4.8 0 0 .56-.47q2.43-13.17 4.88-26.33c2.13-11.42-3.39-13.69-13.82-13.7-10.36-.01-27-3.22-30.93 10.42q-1.57 5.46-4.37 20.82c-1.36 7.49 1.15 12.56 5.02 19.02q7.25 12.13 14.46 24.28c1.4 2.35 2.5 4.76 2.06 7.73q-1.67 11.26-3 16.73c-1.21 4.96-6.47 8.44-11.21 5.73-3.58-2.06-3.3-5.57-2.57-9.49q1.66-9 3.27-18.12a.53.53 0 0 0-.52-.62H24.97a.84.82-84.5 0 0-.81.68q-2.4 13.5-4.62 26.34c-.87 5.03-1 9.54 3.57 12.14 4.67 2.65 17.82 1.33 23.73 1.35 10.93.02 14.73-3.7 16.98-14.57.8-3.87 5.87-25.39 4.71-27.68q-8.99-17.8-20.39-34.15c-3.09-4.45-.73-12.71.58-18.33 1.19-5.14 7.37-11.99 12.72-7.72M89.71 123.67a1.96 1.95-87.3 0 1-1.9-2.09q.17-2.4.75-5.62 8.67-48.79 17.39-97.6a.52.52 0 0 0-.51-.61H91.9a.62.61-84.9 0 0-.6.51q-9.09 51.93-18.06 103.88c-1.69 9.8 2.94 12.63 12.27 12.61q7.41-.01 14.82.01c10.65.03 15.3-3.23 17.31-14.02q9.51-51.23 18.99-102.48a.44.43 5.4 0 0-.43-.51h-12.79a.6.6 0 0 0-.59.49q-9.22 50.93-18.55 101.84c-.29 1.56-1.22 3.59-2.82 3.63q-5.58.12-11.74-.04M147.28 81.81c10.45-.1 28.48 3.55 31.33-11.24q3.74-19.41 7.46-38.83c1.38-7.23-.45-14.02-9.07-14q-16.22.02-31.98.01a.97.97 0 0 0-.95.79q-10.69 55.69-21.06 110.96-.59 3.13-.7 4.75a.46.46 0 0 0 .46.5h13.21a.88.87 5.1 0 0 .86-.71l9.88-51.76a.58.57-84.5 0 1 .56-.47M193.18 120.25a.33.33 0 0 1-.33-.38l6.54-38.84a.33.33 0 0 1 .33-.28h15.77a.33.33 0 0 0 .32-.27l2.16-11.59a.33.33 0 0 0-.33-.39h-15.5a.33.33 0 0 1-.32-.39l7.05-35.49a.33.33 0 0 1 .32-.26l15.85-.16a.33.33 0 0 0 .32-.28l2.1-13.79a.33.33 0 0 0-.32-.38h-30.18a.33.33 0 0 0-.32.27l-22.87 116.34a.33.33 0 0 0 .32.39h32.45a.33.33 0 0 0 .32-.28l2.22-13.84a.33.33 0 0 0-.33-.38h-15.57M258.68 79.28c4.5-1.32 11.14-4.14 12.12-9.27q3.67-19.22 7.35-38.43c2.02-10.55-2.42-13.84-12.72-13.84q-14.4.01-28.72.01a.62.62 0 0 0-.61.51l-21.81 115.83a.56.55-84.8 0 0 .54.66h13.31a.82.81 5.6 0 0 .8-.65l9.84-51.65a.73.71 3 0 1 .66-.58q4.24-.27 8.5.07c4.4.35 3.27 10.8 2.77 13.44q-3.64 19.3-7.2 38.72a.55.55 0 0 0 .54.65h13.41a.64.64 0 0 0 .63-.52q3.72-19.89 7.38-39.83c1.32-7.17.8-12.26-6.79-14.39a.38.38 0 0 1 0-.73M336.9 76.98l-7.23-58.56a.77.76-3.4 0 0-.76-.67h-13.38a.83.82-84.5 0 0-.81.67l-21.88 115.7a.53.53 0 0 0 .52.63l15.75-.01a.58.58 0 0 0 .57-.46l13.34-65.98a.16.16 0 0 1 .31.02l5.27 65.61a.84.84 0 0 0 .84.78l13.43.12a.61.6 5.1 0 0 .6-.49l21.95-116.09a.42.42 0 0 0-.41-.5h-15.69a.83.82-84.5 0 0-.81.67l-11 58.58a.31.31 0 0 1-.61-.02M373.58 17.75a.49.49 0 0 0-.49.4l-21.92 116.02a.49.49 0 0 0 .48.58h13.72a.49.49 0 0 0 .49-.4l21.97-116.02a.49.49 0 0 0-.48-.58h-13.77M417.78 77.27l-7.28-59.05a.53.53 0 0 0-.53-.47h-13.93a.55.55 0 0 0-.54.45l-21.91 115.87a.58.57-84.9 0 0 .56.68h15.82a.58.58 0 0 0 .57-.46l13.17-65.02a.3.3 0 0 1 .59.04l5.2 64.96a.52.52 0 0 0 .52.48h13.73a.59.58-84.6 0 0 .57-.48l21.94-115.83a.58.58 0 0 0-.57-.69l-15.83.01a.55.55 0 0 0-.54.45l-11.03 59.08q-.3 1.63-.51-.02M458.54 32.3a.39.39 0 0 1 .38.45l-17.97 101.54a.39.39 0 0 0 .39.46h16a.39.39 0 0 0 .39-.32L476.04 32.7a.39.39 0 0 1 .38-.32l8.25-.18a.39.39 0 0 0 .38-.33l2.17-13.65a.39.39 0 0 0-.39-.45l-33.88-.03a.39.39 0 0 0-.38.32l-2.68 13.71a.39.39 0 0 0 .38.46l8.27.07M489.61 120.25a.39.39 0 0 1-.38-.46l6.63-38.72a.39.39 0 0 1 .39-.32h15.69a.39.39 0 0 0 .38-.32l2.2-11.48a.39.39 0 0 0-.38-.46l-15.43.04a.39.39 0 0 1-.38-.47l6.9-35.4a.39.39 0 0 1 .38-.31l15.7-.14a.39.39 0 0 0 .38-.33l2.2-13.68a.39.39 0 0 0-.39-.45h-30.16a.39.39 0 0 0-.38.31l-22.8 116.22a.39.39 0 0 0 .38.47h32.23a.39.39 0 0 0 .38-.33l2.27-13.72a.39.39 0 0 0-.38-.45h-15.43M553.11 76.88a.31.31 0 0 1-.62-.02l-7.27-58.84a.31.31 0 0 0-.3-.27H530.6a.31.31 0 0 0-.31.25L508.3 134.38a.31.31 0 0 0 .3.37h16.36a.31.31 0 0 0 .3-.25l13.17-65.28a.31.31 0 0 1 .62.04l5.18 65.2a.31.31 0 0 0 .31.29l14.2-.01a.31.31 0 0 0 .31-.25l22-116.37a.31.31 0 0 0-.3-.37h-16.36a.31.31 0 0 0-.31.25l-10.97 58.88M588.74 18.14l-21.99 116.04a.44.43 5.6 0 0 .42.51q15.62.11 31.25.05c9.51-.04 13.73-4.64 15.47-13.86q8.43-44.61 16.76-89.23c2.04-10.91-2.53-13.91-13.03-13.9q-14.29 0-28.41.01a.48.48 0 0 0-.47.38M647.33 18.7c-3.74 1.47-7.92 5.69-8.63 9.54q-3.86 20.9-16.18 93c-1.77 10.36 1.73 13.53 12.13 13.52l17.43-.02c8.05-.01 14.76-2.7 16.33-11.06l17.16-91.33c2.24-11.9-2.27-14.61-13.69-14.61-6.47 0-18.8-1.31-24.55.96M721.77 90.75a.3.3 0 0 1-.3-.35l10.3-57.05a.3.3 0 0 0-.3-.35h-14.69a.3.3 0 0 0-.29.25l-24.24 133.14a.3.3 0 0 0 .3.35l14.79.02a.3.3 0 0 0 .29-.25l11.16-61.34a.3.3 0 0 1 .29-.24l17.43-.23a.3.3 0 0 1 .3.36l-11.07 61.34a.3.3 0 0 0 .3.35h14.8a.3.3 0 0 0 .29-.25l24.16-133.3a.3.3 0 0 0-.29-.35l-14.74.21a.3.3 0 0 0-.29.24l-10.51 57.2a.3.3 0 0 1-.3.25h-17.39M791.51 144.75a.3.3 0 0 1 .3.33l-2.05 21.34a.3.3 0 0 0 .3.33h13.88a.3.3 0 0 0 .3-.28l10.45-133.18a.3.3 0 0 0-.3-.32l-14.85-.23a.3.3 0 0 0-.28.2l-50.24 133.4a.3.3 0 0 0 .28.41h15.75a.3.3 0 0 0 .29-.2l7.28-21.6a.3.3 0 0 1 .29-.2h18.6M899.99 109.46a.99.99 0 0 1 1.96.08l5.59 56.75a.5.5 0 0 0 .5.46h14.42a.47.47 0 0 0 .47-.52q-3.04-32-6.12-63.99-.26-2.62.15-3.51 15.07-32.69 29.53-64.35a1.03 1.02-77.9 0 0-.94-1.46l-13.08.11a.8.8 0 0 0-.72.45q-12.71 26.08-25.15 52.28-.68 1.43-1.94 1.17a.61.61 0 0 1-.48-.71l9.6-52.65a.49.48-84.9 0 0-.47-.57h-14.27a.61.61 0 0 0-.6.5L874.3 166.1a.55.54 5.2 0 0 .54.64l14.28.02a.57.55 4.8 0 0 .56-.46l10.31-56.84M875.47 80.13a.41.41 0 0 0 .4-.34q2.49-13.86 5.01-27.82c1.38-7.59 1.79-13.99-5.44-17.66-5.4-2.73-18.85-1.31-25.2-1.3-11.47.01-15.45 4.82-17.49 15.98q-8.91 48.92-17.55 97.88c-1.41 7.96-2.09 14.76 5.6 18.53 5.43 2.65 17 1.36 23.22 1.35 12.98-.03 17.23-4.53 19.43-17.33q2.55-14.87 5.35-29.7a.4.39-84.5 0 0-.38-.47h-13.9a.72.72 0 0 0-.71.6q-3.66 21.5-5.12 28.33c-1.22 5.67-9.94 4.07-14.19 4.09-3.67.02-5.04-2.28-4.42-5.77q8.35-46.67 16.79-93.33c1.31-7.22 8.74-6.26 14.82-5.85 4 .28 4.82 2.92 4.14 6.52q-2.4 12.65-4.57 25.5a.53.52-85.3 0 0 .51.61l13.7.18M672.01 145.1a.27.27 0 0 0-.27-.27H16.66a.27.27 0 0 0-.27.27v37.88a.27.27 0 0 0 .27.27h655.08a.27.27 0 0 0 .27-.27V145.1" vector-effect="non-scaling-stroke"/><path d="M169.34 39.63c1.78-8.72-5.4-8.09-11.28-7.74q-1.69.09-2.13 2.3-3.31 16.38-6.49 32.8c-.96 4.98 5.57 3.79 8.45 3.78 3.55 0 5.22-1.79 5.93-5.02q2.85-13.02 5.52-26.12M243.63 70.54c4.33.69 10.75.1 11.87-5.29q2.73-13.23 5.59-26.46c1.71-7.87-6.9-7.22-11.6-6.89a1.5 1.5 0 0 0-1.37 1.21q-3.26 16.71-6.41 33.63c-.38 2.07-.62 3.39 1.92 3.8M601.25 31.86c-5.67 30.3-11.26 60.63-16.8 90.97a.5.5 0 0 0 .4.58c6.79 1.26 13.76-.44 15.24-8.19q7.18-37.62 14.21-75.26c1.75-9.42-6.25-8.94-12.46-8.61a.63.62 4 0 0-.59.51M651.44 47.19q-6.25 34.25-12.2 68.56c-1.66 9.61 8.75 9.57 12.68 3.72q1.3-1.95 2.19-6.87l13.2-73.29c1.28-7.12-6.86-10.55-11.59-5.88-3.15 3.12-3.4 8.94-4.28 13.76M797.07 74.31l-18.87 54.73a.91.91 0 0 0 .86 1.21h13.64a.54.53 2.3 0 0 .54-.49q2.62-26.02 5.21-52.04c.09-.93.5-2.03.23-3.23a.63.62 83.6 0 0-.61-.49h-.56a.47.47 0 0 0-.44.31M502.49 153.1l-.64 4.05a.52.51-82.5 0 0 .45.59l1.84.23a.76.75 8.1 0 0 .83-.62l1.08-6.44a1.56 1.56 0 0 0-1.45-1.81c-2.91-.18-7.35-1.24-8.39 2.59-1.98 7.24.53 8.84 3.82 14.67a1.67 1.61-58.1 0 1 .2.93c-.17 1.9-.78 5.67-3.35 5.13a.82.82 0 0 1-.64-.86l.37-4.89a.65.64-85.6 0 0-.59-.7l-1.54-.14a.87.86 6.9 0 0-.92.71l-1.09 6.22a1.69 1.68-84.6 0 0 1.63 1.98c8.7.16 7.54-.75 9.14-8.27a1.52 1.47-53 0 0-.12-.95c-1.05-2.18-4.77-7.39-4.6-9.49.14-1.75.88-4.96 3.5-3.8a.81.8-73.6 0 1 .47.87M529.48 157.96l-.52-8.39a.63.62 86.7 0 0-.65-.59l-2.7.1a.62.62 0 0 0-.6.71q.68 4.91 1.21 9.84c.53 4.98-.51 9.55-1.22 14.47a.57.57 0 0 0 .56.65l2.09.01a.77.77 0 0 0 .75-.61c.96-4.61 1.42-9 3.67-13.19q3.08-5.73 6.5-11.32a.43.42-74.9 0 0-.37-.65l-2.67.04a1.05 1.05 0 0 0-.91.56l-4.57 8.5a.31.3 57.6 0 1-.57-.13M568.49 149.15c-6.33-.84-9-.01-9.2 6.96-.1 3.35 3.16 7.41 4.73 10.49a1.45 1.44-53.7 0 1 .14.93c-.3 1.56-.66 6.08-3.52 4.56a1.23 1.23 0 0 1-.63-1.33l.79-3.98a.62.61 10.6 0 0-.5-.72l-1.81-.32a.72.72 0 0 0-.83.58l-1.2 6.64a1.52 1.52 0 0 0 1.47 1.78c2.49.05 7.15.94 8.11-2.18q1.05-3.46 1.05-7.05a1.77 1.73-61.4 0 0-.26-.92c-1.3-2.15-4.48-6.19-4.32-8.67.12-1.92.88-4.8 3.43-3.64a.9.89-74.5 0 1 .51.91l-.47 3.88a.74.73-73.3 0 0 .39.74c3.13 1.61 3.33-4.67 3.69-6.46a1.85 1.85 0 0 0-1.57-2.2M588.66 151.29a.55.55 0 0 0 .35.65l1.15.39a.55.55 0 0 1 .37.62l-3.8 21.15a.55.55 0 0 0 .54.65h2.58a.55.55 0 0 0 .54-.46l3.73-21.48a.55.55 0 0 1 .32-.41l1.78-.76a.55.55 0 0 0 .33-.43l.2-1.63a.55.55 0 0 0-.55-.62l-6.56.11a.55.55 0 0 0-.52.42l-.46 1.8M621.02 160.39a.54.54 0 0 1-.54-.64l1.38-7.31a.54.54 0 0 1 .53-.44h2.8a.54.54 0 0 0 .54-.49l.17-1.94a.54.54 0 0 0-.54-.59l-5.57.05a.54.54 0 0 0-.52.43l-4.79 24.63a.54.54 0 0 0 .53.64l6.16.05a.54.54 0 0 0 .54-.53l.06-1.94a.54.54 0 0 0-.54-.55l-2.23-.01a.54.54 0 0 1-.53-.63l1.41-7.92a.54.54 0 0 1 .53-.45h2.57a.54.54 0 0 0 .49-.32l.58-1.33a.54.54 0 0 0-.5-.76l-2.53.05M652.52 162.72l-.71-13.12a.68.67-2.5 0 0-.71-.64l-2.81.15a.75.74 2.9 0 0-.69.61l-4.67 24.46a.48.48 0 0 0 .47.57h2.47a.68.68 0 0 0 .68-.56l2.11-11.96a.24.24 0 0 1 .48.03l.61 11.69a.76.74-83.4 0 0 .53.68q1.75.54 2.43-1.45 1.29-3.78 4.48-10.5.62-1.32.4.13l-1.78 11.24a.5.5 0 0 0 .47.58l1.98.12a.68.67 6.6 0 0 .71-.56l4.01-24.2a.84.83 10.9 0 0-.65-.95q-3.01-.65-3.99 1.99-2.28 6.16-5.54 11.75-.25.43-.28-.06M374.8 160.72l1.27-6.64a1 .99 1.6 0 1 .86-.81l2.44-.31a.77.77 0 0 0 .65-.64l.26-1.6a.59.58 5.5 0 0-.57-.68l-5.39-.14a.65.65 0 0 0-.65.52l-4.86 24.89a.44.43-85.1 0 0 .43.52l5.97-.11a.75.75 0 0 0 .72-.6l.35-1.62a.59.58 7.6 0 0-.54-.7l-2.63-.14a.56.56 0 0 1-.5-.74c.77-2.34.37-9.1 4.33-8.12a.71.69 19.2 0 0 .81-.38l.6-1.25a.62.61 13.2 0 0-.55-.88l-2.58-.05a.44.44 0 0 1-.42-.52M31.86 160.72l1.27-6.91a.72.71 1.6 0 1 .63-.59l2.71-.29a.73.72-.6 0 0 .64-.64l.17-1.62a.61.61 0 0 0-.61-.67h-5.44a.61.61 0 0 0-.6.49l-4.89 24.73a.49.49 0 0 0 .48.58l5.94.04a.61.61 0 0 0 .59-.45l.54-1.89a.58.58 0 0 0-.56-.74l-2.37-.01a.54.54 0 0 1-.53-.63l1.29-7.61a.72.7-87.8 0 1 .63-.6l2.63-.24a.78.78 0 0 0 .69-.6l.22-.99a.52.52 0 0 0-.46-.63l-2.62-.26a.4.39-82 0 1-.35-.47M64.55 162.26l.87 13.01a.73.72-3.9 0 0 .78.67l1.84-.15a.78.77-87 0 0 .69-.63l4.68-24.46a.57.57 0 0 0-.45-.66q-1.51-.29-2.86.21a.76.74 84.8 0 0-.48.59l-1.81 11.18q-.36 2.2-.66-.01l-1.57-11.37a.67.65 86 0 0-.65-.58l-1.88.01a.72.71 5.3 0 0-.71.58l-4.69 24.62a.57.57 0 0 0 .57.68l2.41-.05a.69.69 0 0 0 .66-.55l2.65-13.13q.46-2.26.61.04M102.29 153.33q2.08-.46 1.98-2.55a.71.71 0 0 0-.65-.67c-1.87-.16-7.55-1.14-7.29 2.08a.86.86 0 0 0 .57.75l.81.28a.68.67-75.2 0 1 .44.77l-3.74 21.22a.56.55-85.3 0 0 .55.66h2.26a.73.73 0 0 0 .72-.6l3.83-21.4a.68.68 0 0 1 .52-.54M129.45 172.17l1.33-7.49a.91.9-87.8 0 1 .79-.74l2.49-.28a.76.75-4.8 0 0 .67-.79l-.05-1.01a.54.54 0 0 0-.5-.5l-2.17-.11a.6.59 7.5 0 1-.55-.71l1.35-6.75a.75.74-86.8 0 1 .66-.6l2.63-.25a.6.6 0 0 0 .53-.46l.39-1.63a.69.69 0 0 0-.67-.85h-5.49a.7.7 0 0 0-.69.57l-4.72 24.48a.66.65-84.5 0 0 .64.78h5.88a.63.63 0 0 0 .61-.55l.22-1.97a.51.5-86.9 0 0-.5-.56h-2.37a.49.49 0 0 1-.48-.58M164.38 163.97c3.07.72.41 9.02-.07 11.21a.6.59-85.5 0 0 .61.72l1.87-.09a.83.83 0 0 0 .78-.68l1.65-9.22a1.05 1.05 0 0 0-.3-.94l-.57-.56a.57.56 49.4 0 1 .06-.87c2.59-1.89 2.9-7.47 3.47-10.52.81-4.26-5.36-3.06-8.68-2.99a.61.59 4.7 0 0-.58.48l-4.69 24.8a.46.45 5.7 0 0 .45.54h1.98a.88.87 5.1 0 0 .86-.71l1.85-10.31a1.08 1.08 0 0 1 1.31-.86M196.95 153.85l-3.72 21.21a.59.59 0 0 0 .58.69h2.25a.68.68 0 0 0 .67-.56l3.84-21.22a.98.97 88.2 0 1 .73-.78q2.1-.51 1.8-2.71a.56.56 0 0 0-.55-.48h-6.33a.79.77 7.1 0 0-.76.58l-.38 1.46a.73.72 16.8 0 0 .47.87l1.06.36a.52.51-75.7 0 1 .34.58M237.01 150.01l-2.56-.01a.89.88 10 0 0-.85.59l-9.04 24.63a.54.54 0 0 0 .53.73l2.37-.09a.83.82 11.1 0 0 .74-.49c.74-1.7 1.52-6.42 4.12-5.51a.73.73 0 0 1 .49.73l-.29 4.65a.48.47-88.3 0 0 .47.51h3.1a.62.62 0 0 0 .62-.59l1.25-24.14a.96.95-88.6 0 0-.95-1.01M267.382 150.922a.7.7 0 0 0-.558-.818l-1.631-.308a.7.7 0 0 0-.818.558l-4.657 24.644a.7.7 0 0 0 .558.818l1.631.308a.7.7 0 0 0 .818-.558l4.657-24.644M296.14 162.28l.79 12.9a.75.75 0 0 0 .74.71h1.84a.83.82-84.2 0 0 .82-.68l4.54-24.5a.64.64 0 0 0-.68-.75l-2.22.17a.76.75-87 0 0-.69.63l-1.96 11.48q-.34 2-.61-.01l-1.53-11.54a.7.7 0 0 0-.68-.61l-1.79-.06a.76.76 0 0 0-.77.62l-4.66 24.39a.69.68 18.5 0 0 .37.73c1.91.92 3.19-.01 3.56-2.05q1.02-5.68 2.31-11.48a.31.31 0 0 1 .62.05M336.76 163.97l-.56-13.38a.62.62 0 0 0-.62-.59h-2.97a.7.69-84.4 0 0-.68.57l-4.48 24.42a.9.89 89.4 0 0 1.06 1.04l1.78-.36a.92.91-89.9 0 0 .71-.72l2.25-11.43q.12-.63.18.01.56 5.49.6 11.03c.01 1.17.63 1.79 1.81 1.37a1.17 1.15 1.5 0 0 .7-.65l4.91-11.75a.33.33 0 0 1 .63.18l-1.92 11.39a.68.68 0 0 0 .63.8l1.76.12a.68.67-82.9 0 0 .71-.56l4.11-24.53a.63.62-73.9 0 0-.38-.69c-2.16-.88-3.66.05-4.52 2.2q-2.39 5.95-5.44 11.59-.25.47-.27-.06M411.85 162.19l-1.5-11.35a.83.81-1.2 0 0-.76-.71l-1.96-.13a.65.65 0 0 0-.68.52l-4.66 24.62a.61.61 0 0 0 .62.72l2.44-.11a.71.71 0 0 0 .66-.58l2.28-12.68q.46-2.57.69.03l1.14 12.54a.76.76 0 0 0 .67.69l1.67.21a.79.79 0 0 0 .87-.65l4.59-24.7a.54.54 0 0 0-.55-.64l-2.36.11a.77.77 0 0 0-.73.63l-2.21 11.49q-.13.67-.22-.01M441.08 150.57q-1.19 2.38 1.11 2.79a.44.43-80.2 0 1 .35.51l-3.75 21.23a.63.62 5.4 0 0 .61.73l2.11.03a.79.79 0 0 0 .79-.65q1.88-10.16 3.51-20.37c.21-1.28.79-1.69 1.96-2.04a.78.77-4.2 0 0 .55-.63l.21-1.44a.64.63-85.7 0 0-.62-.73h-5.9a1.04 1.04 0 0 0-.93.57" vector-effect="non-scaling-stroke"/><path d="M168.076 154.353a1.02 1.02 0 0 0-.803-1.199l-.824-.163a1.02 1.02 0 0 0-1.199.802l-1.286 6.494a1.02 1.02 0 0 0 .803 1.199l.824.163a1.02 1.02 0 0 0 1.199-.802l1.286-6.494M232.85 163.15l-1.37 3.69a.5.49-77 0 0 .41.66c1.4.16 1.2-.96 1.46-1.74q.45-1.36.03-2.61-.25-.75-.53 0" vector-effect="non-scaling-stroke"/></g><g fill="#4c504e"><path d="M61.44 32.31c-5.35-4.27-11.53 2.58-12.72 7.72-1.31 5.62-3.67 13.88-.58 18.33q11.4 16.35 20.39 34.15c1.16 2.29-3.91 23.81-4.71 27.68-2.25 10.87-6.05 14.59-16.98 14.57-5.91-.02-19.06 1.3-23.73-1.35-4.57-2.6-4.44-7.11-3.57-12.14q2.22-12.84 4.62-26.34a.84.82-84.5 0 1 .81-.68h14.02a.53.53 0 0 1 .52.62q-1.61 9.12-3.27 18.12c-.73 3.92-1.01 7.43 2.57 9.49 4.74 2.71 10-.77 11.21-5.73q1.33-5.47 3-16.73c.44-2.97-.66-5.38-2.06-7.73Q43.75 80.14 36.5 68.01c-3.87-6.46-6.38-11.53-5.02-19.02q2.8-15.36 4.37-20.82c3.93-13.64 20.57-10.43 30.93-10.42 10.43.01 15.95 2.28 13.82 13.7q-2.45 13.16-4.88 26.33a.57.56 4.8 0 1-.56.47h-14.4a.48.47 4.6 0 1-.47-.55q1.21-7.72 2.54-15.4c.72-4.14 1.51-7.67-1.39-9.99M89.71 123.67q6.16.16 11.74.04c1.6-.04 2.53-2.07 2.82-3.63q9.33-50.91 18.55-101.84a.6.6 0 0 1 .59-.49h12.79a.44.43 5.4 0 1 .43.51q-9.48 51.25-18.99 102.48c-2.01 10.79-6.66 14.05-17.31 14.02q-7.41-.02-14.82-.01c-9.33.02-13.96-2.81-12.27-12.61Q82.21 70.19 91.3 18.26a.62.61-84.9 0 1 .6-.51h13.54a.52.52 0 0 1 .51.61q-8.72 48.81-17.39 97.6-.58 3.22-.75 5.62a1.96 1.95-87.3 0 0 1.9 2.09M146.72 82.28l-9.88 51.76a.88.87 5.1 0 1-.86.71h-13.21a.46.46 0 0 1-.46-.5q.11-1.62.7-4.75 10.37-55.27 21.06-110.96a.97.97 0 0 1 .95-.79q15.76.01 31.98-.01c8.62-.02 10.45 6.77 9.07 14q-3.72 19.42-7.46 38.83c-2.85 14.79-20.88 11.14-31.33 11.24a.58.57-84.5 0 0-.56.47m22.62-42.65c1.78-8.72-5.4-8.09-11.28-7.74q-1.69.09-2.13 2.3-3.31 16.38-6.49 32.8c-.96 4.98 5.57 3.79 8.45 3.78 3.55 0 5.22-1.79 5.93-5.02q2.85-13.02 5.52-26.12M193.18 120.25h15.57a.33.33 0 0 1 .33.38l-2.22 13.84a.33.33 0 0 1-.32.28h-32.45a.33.33 0 0 1-.32-.39l22.87-116.34a.33.33 0 0 1 .32-.27h30.18a.33.33 0 0 1 .32.38l-2.1 13.79a.33.33 0 0 1-.32.28l-15.85.16a.33.33 0 0 0-.32.26l-7.05 35.49a.33.33 0 0 0 .32.39h15.5a.33.33 0 0 1 .33.39l-2.16 11.59a.33.33 0 0 1-.32.27h-15.77a.33.33 0 0 0-.33.28l-6.54 38.84a.33.33 0 0 0 .33.38M258.68 79.28a.38.38 0 0 0 0 .73c7.59 2.13 8.11 7.22 6.79 14.39q-3.66 19.94-7.38 39.83a.64.64 0 0 1-.63.52h-13.41a.55.55 0 0 1-.54-.65q3.56-19.42 7.2-38.72c.5-2.64 1.63-13.09-2.77-13.44q-4.26-.34-8.5-.07a.73.71 3 0 0-.66.58l-9.84 51.65a.82.81 5.6 0 1-.8.65h-13.31a.56.55-84.8 0 1-.54-.66L236.1 18.26a.62.62 0 0 1 .61-.51q14.32 0 28.72-.01c10.3 0 14.74 3.29 12.72 13.84q-3.68 19.21-7.35 38.43c-.98 5.13-7.62 7.95-12.12 9.27m-15.05-8.74c4.33.69 10.75.1 11.87-5.29q2.73-13.23 5.59-26.46c1.71-7.87-6.9-7.22-11.6-6.89a1.5 1.5 0 0 0-1.37 1.21q-3.26 16.71-6.41 33.63c-.38 2.07-.62 3.39 1.92 3.8M336.9 76.98a.31.31 0 0 0 .61.02l11-58.58a.83.82-84.5 0 1 .81-.67h15.69a.42.42 0 0 1 .41.5l-21.95 116.09a.61.6 5.1 0 1-.6.49l-13.43-.12a.84.84 0 0 1-.84-.78l-5.27-65.61a.16.16 0 0 0-.31-.02l-13.34 65.98a.58.58 0 0 1-.57.46l-15.75.01a.53.53 0 0 1-.52-.63l21.88-115.7a.83.82-84.5 0 1 .81-.67h13.38a.77.76-3.4 0 1 .76.67zM373.58 17.75h13.77a.49.49 0 0 1 .48.58l-21.97 116.02a.49.49 0 0 1-.49.4h-13.72a.49.49 0 0 1-.48-.58l21.92-116.02a.49.49 0 0 1 .49-.4M418.29 77.29l11.03-59.08a.55.55 0 0 1 .54-.45l15.83-.01a.58.58 0 0 1 .57.69l-21.94 115.83a.59.58-84.6 0 1-.57.48h-13.73a.52.52 0 0 1-.52-.48l-5.2-64.96a.3.3 0 0 0-.59-.04l-13.17 65.02a.58.58 0 0 1-.57.46h-15.82a.58.57-84.9 0 1-.56-.68L395.5 18.2a.55.55 0 0 1 .54-.45h13.93a.53.53 0 0 1 .53.47l7.28 59.05q.21 1.65.51.02M458.54 32.3l-8.27-.07a.39.39 0 0 1-.38-.46l2.68-13.71a.39.39 0 0 1 .38-.32l33.88.03a.39.39 0 0 1 .39.45l-2.17 13.65a.39.39 0 0 1-.38.33l-8.25.18a.39.39 0 0 0-.38.32l-18.31 101.73a.39.39 0 0 1-.39.32h-16a.39.39 0 0 1-.39-.46l17.97-101.54a.39.39 0 0 0-.38-.45M489.61 120.25h15.43a.39.39 0 0 1 .38.45l-2.27 13.72a.39.39 0 0 1-.38.33h-32.23a.39.39 0 0 1-.38-.47l22.8-116.22a.39.39 0 0 1 .38-.31h30.16a.39.39 0 0 1 .39.45l-2.2 13.68a.39.39 0 0 1-.38.33l-15.7.14a.39.39 0 0 0-.38.31l-6.9 35.4a.39.39 0 0 0 .38.47l15.43-.04a.39.39 0 0 1 .38.46l-2.2 11.48a.39.39 0 0 1-.38.32h-15.69a.39.39 0 0 0-.39.32l-6.63 38.72a.39.39 0 0 0 .38.46M553.11 76.88 564.08 18a.31.31 0 0 1 .31-.25h16.36a.31.31 0 0 1 .3.37l-22 116.37a.31.31 0 0 1-.31.25l-14.2.01a.31.31 0 0 1-.31-.29l-5.18-65.2a.31.31 0 0 0-.62-.04l-13.17 65.28a.31.31 0 0 1-.3.25H508.6a.31.31 0 0 1-.3-.37L530.29 18a.31.31 0 0 1 .31-.25h14.32a.31.31 0 0 1 .3.27l7.27 58.84a.31.31 0 0 0 .62.02M588.74 18.14a.48.48 0 0 1 .47-.38q14.12-.01 28.41-.01c10.5-.01 15.07 2.99 13.03 13.9q-8.33 44.62-16.76 89.23c-1.74 9.22-5.96 13.82-15.47 13.86q-15.63.06-31.25-.05a.44.43 5.6 0 1-.42-.51zm12.51 13.72c-5.67 30.3-11.26 60.63-16.8 90.97a.5.5 0 0 0 .4.58c6.79 1.26 13.76-.44 15.24-8.19q7.18-37.62 14.21-75.26c1.75-9.42-6.25-8.94-12.46-8.61a.63.62 4 0 0-.59.51M638.7 28.24c.71-3.85 4.89-8.07 8.63-9.54 5.75-2.27 18.08-.96 24.55-.96 11.42 0 15.93 2.71 13.69 14.61l-17.16 91.33c-1.57 8.36-8.28 11.05-16.33 11.06l-17.43.02c-10.4.01-13.9-3.16-12.13-13.52q12.32-72.1 16.18-93m12.74 18.95q-6.25 34.25-12.2 68.56c-1.66 9.61 8.75 9.57 12.68 3.72q1.3-1.95 2.19-6.87l13.2-73.29c1.28-7.12-6.86-10.55-11.59-5.88-3.15 3.12-3.4 8.94-4.28 13.76M721.77 90.75h17.39a.3.3 0 0 0 .3-.25l10.51-57.2a.3.3 0 0 1 .29-.24l14.74-.21a.3.3 0 0 1 .29.35l-24.16 133.3a.3.3 0 0 1-.29.25h-14.8a.3.3 0 0 1-.3-.35l11.07-61.34a.3.3 0 0 0-.3-.36l-17.43.23a.3.3 0 0 0-.29.24l-11.16 61.34a.3.3 0 0 1-.29.25l-14.79-.02a.3.3 0 0 1-.3-.35l24.24-133.14a.3.3 0 0 1 .29-.25h14.69a.3.3 0 0 1 .3.35l-10.3 57.05a.3.3 0 0 0 .3.35M791.51 144.75h-18.6a.3.3 0 0 0-.29.2l-7.28 21.6a.3.3 0 0 1-.29.2H749.3a.3.3 0 0 1-.28-.41l50.24-133.4a.3.3 0 0 1 .28-.2l14.85.23a.3.3 0 0 1 .3.32l-10.45 133.18a.3.3 0 0 1-.3.28h-13.88a.3.3 0 0 1-.3-.33l2.05-21.34a.3.3 0 0 0-.3-.33m5.56-70.44-18.87 54.73a.91.91 0 0 0 .86 1.21h13.64a.54.53 2.3 0 0 .54-.49q2.62-26.02 5.21-52.04c.09-.93.5-2.03.23-3.23a.63.62 83.6 0 0-.61-.49h-.56a.47.47 0 0 0-.44.31M899.99 109.46l-10.31 56.84a.57.55 4.8 0 1-.56.46l-14.28-.02a.55.54 5.2 0 1-.54-.64l24.14-132.6a.61.61 0 0 1 .6-.5h14.27a.49.48-84.9 0 1 .47.57l-9.6 52.65a.61.61 0 0 0 .48.71q1.26.26 1.94-1.17 12.44-26.2 25.15-52.28a.8.8 0 0 1 .72-.45l13.08-.11a1.03 1.02-77.9 0 1 .94 1.46q-14.46 31.66-29.53 64.35-.41.89-.15 3.51 3.08 31.99 6.12 63.99a.47.47 0 0 1-.47.52h-14.42a.5.5 0 0 1-.5-.46l-5.59-56.75a.99.99 0 0 0-1.96-.08M875.47 80.13l-13.7-.18a.53.52-85.3 0 1-.51-.61q2.17-12.85 4.57-25.5c.68-3.6-.14-6.24-4.14-6.52-6.08-.41-13.51-1.37-14.82 5.85q-8.44 46.66-16.79 93.33c-.62 3.49.75 5.79 4.42 5.77 4.25-.02 12.97 1.58 14.19-4.09q1.46-6.83 5.12-28.33a.72.72 0 0 1 .71-.6h13.9a.4.39-84.5 0 1 .38.47q-2.8 14.83-5.35 29.7c-2.2 12.8-6.45 17.3-19.43 17.33-6.22.01-17.79 1.3-23.22-1.35-7.69-3.77-7.01-10.57-5.6-18.53q8.64-48.96 17.55-97.88c2.04-11.16 6.02-15.97 17.49-15.98 6.35-.01 19.8-1.43 25.2 1.3 7.23 3.67 6.82 10.07 5.44 17.66q-2.52 13.96-5.01 27.82a.41.41 0 0 1-.4.34M672.01 182.98a.27.27 0 0 1-.27.27H16.66a.27.27 0 0 1-.27-.27V145.1a.27.27 0 0 1 .27-.27h655.08a.27.27 0 0 1 .27.27zM502.49 153.1l-.64 4.05a.52.51-82.5 0 0 .45.59l1.84.23a.76.75 8.1 0 0 .83-.62l1.08-6.44a1.56 1.56 0 0 0-1.45-1.81c-2.91-.18-7.35-1.24-8.39 2.59-1.98 7.24.53 8.84 3.82 14.67a1.67 1.61-58.1 0 1 .2.93c-.17 1.9-.78 5.67-3.35 5.13a.82.82 0 0 1-.64-.86l.37-4.89a.65.64-85.6 0 0-.59-.7l-1.54-.14a.87.86 6.9 0 0-.92.71l-1.09 6.22a1.69 1.68-84.6 0 0 1.63 1.98c8.7.16 7.54-.75 9.14-8.27a1.52 1.47-53 0 0-.12-.95c-1.05-2.18-4.77-7.39-4.6-9.49.14-1.75.88-4.96 3.5-3.8a.81.8-73.6 0 1 .47.87m26.99 4.86-.52-8.39a.63.62 86.7 0 0-.65-.59l-2.7.1a.62.62 0 0 0-.6.71q.68 4.91 1.21 9.84c.53 4.98-.51 9.55-1.22 14.47a.57.57 0 0 0 .56.65l2.09.01a.77.77 0 0 0 .75-.61c.96-4.61 1.42-9 3.67-13.19q3.08-5.73 6.5-11.32a.43.42-74.9 0 0-.37-.65l-2.67.04a1.05 1.05 0 0 0-.91.56l-4.57 8.5a.31.3 57.6 0 1-.57-.13m39.01-8.81c-6.33-.84-9-.01-9.2 6.96-.1 3.35 3.16 7.41 4.73 10.49a1.45 1.44-53.7 0 1 .14.93c-.3 1.56-.66 6.08-3.52 4.56a1.23 1.23 0 0 1-.63-1.33l.79-3.98a.62.61 10.6 0 0-.5-.72l-1.81-.32a.72.72 0 0 0-.83.58l-1.2 6.64a1.52 1.52 0 0 0 1.47 1.78c2.49.05 7.15.94 8.11-2.18q1.05-3.46 1.05-7.05a1.77 1.73-61.4 0 0-.26-.92c-1.3-2.15-4.48-6.19-4.32-8.67.12-1.92.88-4.8 3.43-3.64a.9.89-74.5 0 1 .51.91l-.47 3.88a.74.73-73.3 0 0 .39.74c3.13 1.61 3.33-4.67 3.69-6.46a1.85 1.85 0 0 0-1.57-2.2m20.17 2.14a.55.55 0 0 0 .35.65l1.15.39a.55.55 0 0 1 .37.62l-3.8 21.15a.55.55 0 0 0 .54.65h2.58a.55.55 0 0 0 .54-.46l3.73-21.48a.55.55 0 0 1 .32-.41l1.78-.76a.55.55 0 0 0 .33-.43l.2-1.63a.55.55 0 0 0-.55-.62l-6.56.11a.55.55 0 0 0-.52.42zm32.36 9.1a.54.54 0 0 1-.54-.64l1.38-7.31a.54.54 0 0 1 .53-.44h2.8a.54.54 0 0 0 .54-.49l.17-1.94a.54.54 0 0 0-.54-.59l-5.57.05a.54.54 0 0 0-.52.43l-4.79 24.63a.54.54 0 0 0 .53.64l6.16.05a.54.54 0 0 0 .54-.53l.06-1.94a.54.54 0 0 0-.54-.55l-2.23-.01a.54.54 0 0 1-.53-.63l1.41-7.92a.54.54 0 0 1 .53-.45h2.57a.54.54 0 0 0 .49-.32l.58-1.33a.54.54 0 0 0-.5-.76zm31.5 2.33-.71-13.12a.68.67-2.5 0 0-.71-.64l-2.81.15a.75.74 2.9 0 0-.69.61l-4.67 24.46a.48.48 0 0 0 .47.57h2.47a.68.68 0 0 0 .68-.56l2.11-11.96a.24.24 0 0 1 .48.03l.61 11.69a.76.74-83.4 0 0 .53.68q1.75.54 2.43-1.45 1.29-3.78 4.48-10.5.62-1.32.4.13l-1.78 11.24a.5.5 0 0 0 .47.58l1.98.12a.68.67 6.6 0 0 .71-.56l4.01-24.2a.84.83 10.9 0 0-.65-.95q-3.01-.65-3.99 1.99-2.28 6.16-5.54 11.75-.25.43-.28-.06m-277.72-2 1.27-6.64a1 .99 1.6 0 1 .86-.81l2.44-.31a.77.77 0 0 0 .65-.64l.26-1.6a.59.58 5.5 0 0-.57-.68l-5.39-.14a.65.65 0 0 0-.65.52l-4.86 24.89a.44.43-85.1 0 0 .43.52l5.97-.11a.75.75 0 0 0 .72-.6l.35-1.62a.59.58 7.6 0 0-.54-.7l-2.63-.14a.56.56 0 0 1-.5-.74c.77-2.34.37-9.1 4.33-8.12a.71.69 19.2 0 0 .81-.38l.6-1.25a.62.61 13.2 0 0-.55-.88l-2.58-.05a.44.44 0 0 1-.42-.52m-342.94 0 1.27-6.91a.72.71 1.6 0 1 .63-.59l2.71-.29a.73.72-.6 0 0 .64-.64l.17-1.62a.61.61 0 0 0-.61-.67h-5.44a.61.61 0 0 0-.6.49l-4.89 24.73a.49.49 0 0 0 .48.58l5.94.04a.61.61 0 0 0 .59-.45l.54-1.89a.58.58 0 0 0-.56-.74l-2.37-.01a.54.54 0 0 1-.53-.63l1.29-7.61a.72.7-87.8 0 1 .63-.6l2.63-.24a.78.78 0 0 0 .69-.6l.22-.99a.52.52 0 0 0-.46-.63l-2.62-.26a.4.39-82 0 1-.35-.47m32.69 1.54.87 13.01a.73.72-3.9 0 0 .78.67l1.84-.15a.78.77-87 0 0 .69-.63l4.68-24.46a.57.57 0 0 0-.45-.66q-1.51-.29-2.86.21a.76.74 84.8 0 0-.48.59l-1.81 11.18q-.36 2.2-.66-.01l-1.57-11.37a.67.65 86 0 0-.65-.58l-1.88.01a.72.71 5.3 0 0-.71.58l-4.69 24.62a.57.57 0 0 0 .57.68l2.41-.05a.69.69 0 0 0 .66-.55l2.65-13.13q.46-2.26.61.04m37.74-8.93q2.08-.46 1.98-2.55a.71.71 0 0 0-.65-.67c-1.87-.16-7.55-1.14-7.29 2.08a.86.86 0 0 0 .57.75l.81.28a.68.67-75.2 0 1 .44.77l-3.74 21.22a.56.55-85.3 0 0 .55.66h2.26a.73.73 0 0 0 .72-.6l3.83-21.4a.68.68 0 0 1 .52-.54m27.16 18.84 1.33-7.49a.91.9-87.8 0 1 .79-.74l2.49-.28a.76.75-4.8 0 0 .67-.79l-.05-1.01a.54.54 0 0 0-.5-.5l-2.17-.11a.6.59 7.5 0 1-.55-.71l1.35-6.75a.75.74-86.8 0 1 .66-.6l2.63-.25a.6.6 0 0 0 .53-.46l.39-1.63a.69.69 0 0 0-.67-.85h-5.49a.7.7 0 0 0-.69.57l-4.72 24.48a.66.65-84.5 0 0 .64.78h5.88a.63.63 0 0 0 .61-.55l.22-1.97a.51.5-86.9 0 0-.5-.56h-2.37a.49.49 0 0 1-.48-.58m34.93-8.2c3.07.72.41 9.02-.07 11.21a.6.59-85.5 0 0 .61.72l1.87-.09a.83.83 0 0 0 .78-.68l1.65-9.22a1.05 1.05 0 0 0-.3-.94l-.57-.56a.57.56 49.4 0 1 .06-.87c2.59-1.89 2.9-7.47 3.47-10.52.81-4.26-5.36-3.06-8.68-2.99a.61.59 4.7 0 0-.58.48l-4.69 24.8a.46.45 5.7 0 0 .45.54h1.98a.88.87 5.1 0 0 .86-.71l1.85-10.31a1.08 1.08 0 0 1 1.31-.86m32.57-10.12-3.72 21.21a.59.59 0 0 0 .58.69h2.25a.68.68 0 0 0 .67-.56l3.84-21.22a.98.97 88.2 0 1 .73-.78q2.1-.51 1.8-2.71a.56.56 0 0 0-.55-.48h-6.33a.79.77 7.1 0 0-.76.58l-.38 1.46a.73.72 16.8 0 0 .47.87l1.06.36a.52.51-75.7 0 1 .34.58m40.06-3.84-2.56-.01a.89.88 10 0 0-.85.59l-9.04 24.63a.54.54 0 0 0 .53.73l2.37-.09a.83.82 11.1 0 0 .74-.49c.74-1.7 1.52-6.42 4.12-5.51a.73.73 0 0 1 .49.73l-.29 4.65a.48.47-88.3 0 0 .47.51h3.1a.62.62 0 0 0 .62-.59l1.25-24.14a.96.95-88.6 0 0-.95-1.01m30.372.912a.7.7 0 0 0-.558-.818l-1.631-.308a.7.7 0 0 0-.818.558l-4.657 24.644a.7.7 0 0 0 .558.818l1.631.308a.7.7 0 0 0 .818-.558zm28.758 11.358.79 12.9a.75.75 0 0 0 .74.71h1.84a.83.82-84.2 0 0 .82-.68l4.54-24.5a.64.64 0 0 0-.68-.75l-2.22.17a.76.75-87 0 0-.69.63l-1.96 11.48q-.34 2-.61-.01l-1.53-11.54a.7.7 0 0 0-.68-.61l-1.79-.06a.76.76 0 0 0-.77.62l-4.66 24.39a.69.68 18.5 0 0 .37.73c1.91.92 3.19-.01 3.56-2.05q1.02-5.68 2.31-11.48a.31.31 0 0 1 .62.05m40.62 1.69-.56-13.38a.62.62 0 0 0-.62-.59h-2.97a.7.69-84.4 0 0-.68.57l-4.48 24.42a.9.89 89.4 0 0 1.06 1.04l1.78-.36a.92.91-89.9 0 0 .71-.72l2.25-11.43q.12-.63.18.01.56 5.49.6 11.03c.01 1.17.63 1.79 1.81 1.37a1.17 1.15 1.5 0 0 .7-.65l4.91-11.75a.33.33 0 0 1 .63.18l-1.92 11.39a.68.68 0 0 0 .63.8l1.76.12a.68.67-82.9 0 0 .71-.56l4.11-24.53a.63.62-73.9 0 0-.38-.69c-2.16-.88-3.66.05-4.52 2.2q-2.39 5.95-5.44 11.59-.25.47-.27-.06m75.09-1.78-1.5-11.35a.83.81-1.2 0 0-.76-.71l-1.96-.13a.65.65 0 0 0-.68.52l-4.66 24.62a.61.61 0 0 0 .62.72l2.44-.11a.71.71 0 0 0 .66-.58l2.28-12.68q.46-2.57.69.03l1.14 12.54a.76.76 0 0 0 .67.69l1.67.21a.79.79 0 0 0 .87-.65l4.59-24.7a.54.54 0 0 0-.55-.64l-2.36.11a.77.77 0 0 0-.73.63l-2.21 11.49q-.13.67-.22-.01m29.23-11.62q-1.19 2.38 1.11 2.79a.44.43-80.2 0 1 .35.51l-3.75 21.23a.63.62 5.4 0 0 .61.73l2.11.03a.79.79 0 0 0 .79-.65q1.88-10.16 3.51-20.37c.21-1.28.79-1.69 1.96-2.04a.78.77-4.2 0 0 .55-.63l.21-1.44a.64.63-85.7 0 0-.62-.73h-5.9a1.04 1.04 0 0 0-.93.57"/><rect width="2.88" height="8.66" x="-1.44" y="-4.33" rx="1.02" transform="rotate(11.2 -719.227 925.261)"/><path d="M233.38 163.15q.42 1.25-.03 2.61c-.26.78-.06 1.9-1.46 1.74a.5.49-77 0 1-.41-.66l1.37-3.69q.28-.75.53 0"/></g><g fill="#fff"><path d="M670.44 199H17.69c-5.89-1.54-10.2-1.87-13.92-7.28-1.68-2.45-3-7.47-3.01-10.57Q.74 164.6.75 148.04c0-4.47 1.44-9.3 4.07-12.87a1.09 1.05-34.6 0 0 .18-.89c-.92-3.86-1.99-7.02-1.36-11.07q2.53-16.29 5.88-32.4c1.51-7.22 7.38-11.28 14.6-11.85a.33.33 0 0 0 .26-.48c-6.31-11.42-10.53-19.88-7.81-33.43 1.69-8.38 3.1-19.57 6.77-27.09 3.16-6.48 13.43-15.47 20.5-16.83q2.3-.45 6.97-.45 309.42.13 618.84.05 8.24 0 11.6.95c9.08 2.56 17.29 9.4 19.45 18.76q.11.48.42.1c6.94-8.45 17.11-7.45 27.19-7.61 4.45-.06 8.08.98 12.22 2.19a1.7 1.7 0 0 0 .96 0c8.36-2.46 14.07-2.8 23.25-2.05q11.53.94 17.44 9.3a.33.32 43.8 0 0 .54-.01c7.07-10.87 19.25-9.61 30.6-9.5q2.83.03 8.38 1.72c2.63.79 4.43 2.48 6.66 4.02a.67.65-46.6 0 0 .79-.03c9.52-7.73 33.16-6.19 43.41-5.41q6.69.52 13.66 4.05a.74.73-53.2 0 0 .82-.12q1.79-1.63 2.48-1.85 16.66-5.21 33.25-.12a1.57 1.55-45.3 0 0 .96-.01c7.05-2.29 12.1-2.67 19.32-2.29 11.43.61 20.82 3.51 23.34 16.28 1.08 5.49-.61 11.38-2.91 16.36q-13.26 28.77-26.43 57.59a1.88 1.85-35.9 0 0-.16.96q2.95 28.44 5.62 56.93.59 6.26-.35 10.06c-3.99 16.09-18.03 15.92-31.94 15.75-4.85-.06-8.91-2.61-13.77-1.53-2.82.62-5.44 1.5-8.34 1.52-8.51.04-16.33.81-24.66-3.21a1.33 1.32-40.4 0 0-.93-.07q-4.2 1.3-8.49 2.33c-8.05 1.94-17.88.96-26.18.96-4.89 0-9-1.19-13.61-2.4a1.76 1.74 43.4 0 0-.97.02c-9.51 3.02-27.16 4.74-35.39-2.32a.58.57-44.6 0 0-.75 0c-3.38 2.84-5.53 3.14-9.71 4.12-5.84 1.37-14.92.89-20.85-.04-2.68-.42-5.06.64-7.43.63-5.34-.01-10.87.47-16.13-.77-2.88-.68-4.94-1.49-8-.8q-13.61 3.05-27.42.72a.57.57 0 0 0-.64.4q-3.62 11.9-16.51 12.69m-609-166.69c2.9 2.32 2.11 5.85 1.39 9.99q-1.33 7.68-2.54 15.4a.48.47 4.6 0 0 .47.55h14.4a.57.56 4.8 0 0 .56-.47q2.43-13.17 4.88-26.33c2.13-11.42-3.39-13.69-13.82-13.7-10.36-.01-27-3.22-30.93 10.42q-1.57 5.46-4.37 20.82c-1.36 7.49 1.15 12.56 5.02 19.02q7.25 12.13 14.46 24.28c1.4 2.35 2.5 4.76 2.06 7.73q-1.67 11.26-3 16.73c-1.21 4.96-6.47 8.44-11.21 5.73-3.58-2.06-3.3-5.57-2.57-9.49q1.66-9 3.27-18.12a.53.53 0 0 0-.52-.62H24.97a.84.82-84.5 0 0-.81.68q-2.4 13.5-4.62 26.34c-.87 5.03-1 9.54 3.57 12.14 4.67 2.65 17.82 1.33 23.73 1.35 10.93.02 14.73-3.7 16.98-14.57.8-3.87 5.87-25.39 4.71-27.68q-8.99-17.8-20.39-34.15c-3.09-4.45-.73-12.71.58-18.33 1.19-5.14 7.37-11.99 12.72-7.72m28.27 91.36a1.96 1.95-87.3 0 1-1.9-2.09q.17-2.4.75-5.62 8.67-48.79 17.39-97.6a.52.52 0 0 0-.51-.61H91.9a.62.61-84.9 0 0-.6.51q-9.09 51.93-18.06 103.88c-1.69 9.8 2.94 12.63 12.27 12.61q7.41-.01 14.82.01c10.65.03 15.3-3.23 17.31-14.02q9.51-51.23 18.99-102.48a.44.43 5.4 0 0-.43-.51h-12.79a.6.6 0 0 0-.59.49q-9.22 50.93-18.55 101.84c-.29 1.56-1.22 3.59-2.82 3.63q-5.58.12-11.74-.04m57.57-41.86c10.45-.1 28.48 3.55 31.33-11.24q3.74-19.41 7.46-38.83c1.38-7.23-.45-14.02-9.07-14q-16.22.02-31.98.01a.97.97 0 0 0-.95.79q-10.69 55.69-21.06 110.96-.59 3.13-.7 4.75a.46.46 0 0 0 .46.5h13.21a.88.87 5.1 0 0 .86-.71l9.88-51.76a.58.57-84.5 0 1 .56-.47m45.9 38.44a.33.33 0 0 1-.33-.38l6.54-38.84a.33.33 0 0 1 .33-.28h15.77a.33.33 0 0 0 .32-.27l2.16-11.59a.33.33 0 0 0-.33-.39h-15.5a.33.33 0 0 1-.32-.39l7.05-35.49a.33.33 0 0 1 .32-.26l15.85-.16a.33.33 0 0 0 .32-.28l2.1-13.79a.33.33 0 0 0-.32-.38h-30.18a.33.33 0 0 0-.32.27l-22.87 116.34a.33.33 0 0 0 .32.39h32.45a.33.33 0 0 0 .32-.28l2.22-13.84a.33.33 0 0 0-.33-.38zm65.5-40.97c4.5-1.32 11.14-4.14 12.12-9.27q3.67-19.22 7.35-38.43c2.02-10.55-2.42-13.84-12.72-13.84q-14.4.01-28.72.01a.62.62 0 0 0-.61.51l-21.81 115.83a.56.55-84.8 0 0 .54.66h13.31a.82.81 5.6 0 0 .8-.65l9.84-51.65a.73.71 3 0 1 .66-.58q4.24-.27 8.5.07c4.4.35 3.27 10.8 2.77 13.44q-3.64 19.3-7.2 38.72a.55.55 0 0 0 .54.65h13.41a.64.64 0 0 0 .63-.52q3.72-19.89 7.38-39.83c1.32-7.17.8-12.26-6.79-14.39a.38.38 0 0 1 0-.73m78.22-2.3-7.23-58.56a.77.76-3.4 0 0-.76-.67h-13.38a.83.82-84.5 0 0-.81.67l-21.88 115.7a.53.53 0 0 0 .52.63l15.75-.01a.58.58 0 0 0 .57-.46l13.34-65.98a.16.16 0 0 1 .31.02l5.27 65.61a.84.84 0 0 0 .84.78l13.43.12a.61.6 5.1 0 0 .6-.49l21.95-116.09a.42.42 0 0 0-.41-.5h-15.69a.83.82-84.5 0 0-.81.67l-11 58.58a.31.31 0 0 1-.61-.02m36.68-59.23a.49.49 0 0 0-.49.4l-21.92 116.02a.49.49 0 0 0 .48.58h13.72a.49.49 0 0 0 .49-.4l21.97-116.02a.49.49 0 0 0-.48-.58zm44.2 59.52-7.28-59.05a.53.53 0 0 0-.53-.47h-13.93a.55.55 0 0 0-.54.45l-21.91 115.87a.58.57-84.9 0 0 .56.68h15.82a.58.58 0 0 0 .57-.46l13.17-65.02a.3.3 0 0 1 .59.04l5.2 64.96a.52.52 0 0 0 .52.48h13.73a.59.58-84.6 0 0 .57-.48l21.94-115.83a.58.58 0 0 0-.57-.69l-15.83.01a.55.55 0 0 0-.54.45l-11.03 59.08q-.3 1.63-.51-.02m40.76-44.97a.39.39 0 0 1 .38.45l-17.97 101.54a.39.39 0 0 0 .39.46h16a.39.39 0 0 0 .39-.32L476.04 32.7a.39.39 0 0 1 .38-.32l8.25-.18a.39.39 0 0 0 .38-.33l2.17-13.65a.39.39 0 0 0-.39-.45l-33.88-.03a.39.39 0 0 0-.38.32l-2.68 13.71a.39.39 0 0 0 .38.46zm31.07 87.95a.39.39 0 0 1-.38-.46l6.63-38.72a.39.39 0 0 1 .39-.32h15.69a.39.39 0 0 0 .38-.32l2.2-11.48a.39.39 0 0 0-.38-.46l-15.43.04a.39.39 0 0 1-.38-.47l6.9-35.4a.39.39 0 0 1 .38-.31l15.7-.14a.39.39 0 0 0 .38-.33l2.2-13.68a.39.39 0 0 0-.39-.45h-30.16a.39.39 0 0 0-.38.31l-22.8 116.22a.39.39 0 0 0 .38.47h32.23a.39.39 0 0 0 .38-.33l2.27-13.72a.39.39 0 0 0-.38-.45zm63.5-43.37a.31.31 0 0 1-.62-.02l-7.27-58.84a.31.31 0 0 0-.3-.27H530.6a.31.31 0 0 0-.31.25L508.3 134.38a.31.31 0 0 0 .3.37h16.36a.31.31 0 0 0 .3-.25l13.17-65.28a.31.31 0 0 1 .62.04l5.18 65.2a.31.31 0 0 0 .31.29l14.2-.01a.31.31 0 0 0 .31-.25l22-116.37a.31.31 0 0 0-.3-.37h-16.36a.31.31 0 0 0-.31.25zm35.63-58.74-21.99 116.04a.44.43 5.6 0 0 .42.51q15.62.11 31.25.05c9.51-.04 13.73-4.64 15.47-13.86q8.43-44.61 16.76-89.23c2.04-10.91-2.53-13.91-13.03-13.9q-14.29 0-28.41.01a.48.48 0 0 0-.47.38m58.59.56c-3.74 1.47-7.92 5.69-8.63 9.54q-3.86 20.9-16.18 93c-1.77 10.36 1.73 13.53 12.13 13.52l17.43-.02c8.05-.01 14.76-2.7 16.33-11.06l17.16-91.33c2.24-11.9-2.27-14.61-13.69-14.61-6.47 0-18.8-1.31-24.55.96m74.44 72.05a.3.3 0 0 1-.3-.35l10.3-57.05a.3.3 0 0 0-.3-.35h-14.69a.3.3 0 0 0-.29.25l-24.24 133.14a.3.3 0 0 0 .3.35l14.79.02a.3.3 0 0 0 .29-.25l11.16-61.34a.3.3 0 0 1 .29-.24l17.43-.23a.3.3 0 0 1 .3.36l-11.07 61.34a.3.3 0 0 0 .3.35h14.8a.3.3 0 0 0 .29-.25l24.16-133.3a.3.3 0 0 0-.29-.35l-14.74.21a.3.3 0 0 0-.29.24l-10.51 57.2a.3.3 0 0 1-.3.25zm69.74 54a.3.3 0 0 1 .3.33l-2.05 21.34a.3.3 0 0 0 .3.33h13.88a.3.3 0 0 0 .3-.28l10.45-133.18a.3.3 0 0 0-.3-.32l-14.85-.23a.3.3 0 0 0-.28.2l-50.24 133.4a.3.3 0 0 0 .28.41h15.75a.3.3 0 0 0 .29-.2l7.28-21.6a.3.3 0 0 1 .29-.2zm108.48-35.29a.99.99 0 0 1 1.96.08l5.59 56.75a.5.5 0 0 0 .5.46h14.42a.47.47 0 0 0 .47-.52q-3.04-32-6.12-63.99-.26-2.62.15-3.51 15.07-32.69 29.53-64.35a1.03 1.02-77.9 0 0-.94-1.46l-13.08.11a.8.8 0 0 0-.72.45q-12.71 26.08-25.15 52.28-.68 1.43-1.94 1.17a.61.61 0 0 1-.48-.71l9.6-52.65a.49.48-84.9 0 0-.47-.57h-14.27a.61.61 0 0 0-.6.5L874.3 166.1a.55.54 5.2 0 0 .54.64l14.28.02a.57.55 4.8 0 0 .56-.46zm-24.52-29.33a.41.41 0 0 0 .4-.34q2.49-13.86 5.01-27.82c1.38-7.59 1.79-13.99-5.44-17.66-5.4-2.73-18.85-1.31-25.2-1.3-11.47.01-15.45 4.82-17.49 15.98q-8.91 48.92-17.55 97.88c-1.41 7.96-2.09 14.76 5.6 18.53 5.43 2.65 17 1.36 23.22 1.35 12.98-.03 17.23-4.53 19.43-17.33q2.55-14.87 5.35-29.7a.4.39-84.5 0 0-.38-.47h-13.9a.72.72 0 0 0-.71.6q-3.66 21.5-5.12 28.33c-1.22 5.67-9.94 4.07-14.19 4.09-3.67.02-5.04-2.28-4.42-5.77q8.35-46.67 16.79-93.33c1.31-7.22 8.74-6.26 14.82-5.85 4 .28 4.82 2.92 4.14 6.52q-2.4 12.65-4.57 25.5a.53.52-85.3 0 0 .51.61zM672.01 145.1a.27.27 0 0 0-.27-.27H16.66a.27.27 0 0 0-.27.27v37.88a.27.27 0 0 0 .27.27h655.08a.27.27 0 0 0 .27-.27z"/><path d="M584.45 122.83c5.54-30.34 11.13-60.67 16.8-90.97a.63.62 4 0 1 .59-.51c6.21-.33 14.21-.81 12.46 8.61q-7.03 37.64-14.21 75.26c-1.48 7.75-8.45 9.45-15.24 8.19a.5.5 0 0 1-.4-.58M651.44 47.19c.88-4.82 1.13-10.64 4.28-13.76 4.73-4.67 12.87-1.24 11.59 5.88l-13.2 73.29q-.89 4.92-2.19 6.87c-3.93 5.85-14.34 5.89-12.68-3.72q5.95-34.31 12.2-68.56M158.06 31.89c5.88-.35 13.06-.98 11.28 7.74q-2.67 13.1-5.52 26.12c-.71 3.23-2.38 5.02-5.93 5.02-2.88.01-9.41 1.2-8.45-3.78q3.18-16.42 6.49-32.8.44-2.21 2.13-2.3M243.63 70.54c-2.54-.41-2.3-1.73-1.92-3.8q3.15-16.92 6.41-33.63a1.5 1.5 0 0 1 1.37-1.21c4.7-.33 13.31-.98 11.6 6.89q-2.86 13.23-5.59 26.46c-1.12 5.39-7.54 5.98-11.87 5.29M797.07 74.31a.47.47 0 0 1 .44-.31h.56a.63.62 83.6 0 1 .61.49c.27 1.2-.14 2.3-.23 3.23q-2.59 26.02-5.21 52.04a.54.53 2.3 0 1-.54.49h-13.64a.91.91 0 0 1-.86-1.21zM502.02 152.23c-2.62-1.16-3.36 2.05-3.5 3.8-.17 2.1 3.55 7.31 4.6 9.49a1.52 1.47-53 0 1 .12.95c-1.6 7.52-.44 8.43-9.14 8.27a1.69 1.68-84.6 0 1-1.63-1.98l1.09-6.22a.87.86 6.9 0 1 .92-.71l1.54.14a.65.64-85.6 0 1 .59.7l-.37 4.89a.82.82 0 0 0 .64.86c2.57.54 3.18-3.23 3.35-5.13a1.67 1.61-58.1 0 0-.2-.93c-3.29-5.83-5.8-7.43-3.82-14.67 1.04-3.83 5.48-2.77 8.39-2.59a1.56 1.56 0 0 1 1.45 1.81l-1.08 6.44a.76.75 8.1 0 1-.83.62l-1.84-.23a.52.51-82.5 0 1-.45-.59l.64-4.05a.81.8-73.6 0 0-.47-.87M529.48 157.96a.31.3 57.6 0 0 .57.13l4.57-8.5a1.05 1.05 0 0 1 .91-.56l2.67-.04a.43.42-74.9 0 1 .37.65q-3.42 5.59-6.5 11.32c-2.25 4.19-2.71 8.58-3.67 13.19a.77.77 0 0 1-.75.61l-2.09-.01a.57.57 0 0 1-.56-.65c.71-4.92 1.75-9.49 1.22-14.47q-.53-4.93-1.21-9.84a.62.62 0 0 1 .6-.71l2.7-.1a.63.62 86.7 0 1 .65.59zM559.29 156.11c.2-6.97 2.87-7.8 9.2-6.96a1.85 1.85 0 0 1 1.57 2.2c-.36 1.79-.56 8.07-3.69 6.46a.74.73-73.3 0 1-.39-.74l.47-3.88a.9.89-74.5 0 0-.51-.91c-2.55-1.16-3.31 1.72-3.43 3.64-.16 2.48 3.02 6.52 4.32 8.67a1.77 1.73-61.4 0 1 .26.92q0 3.59-1.05 7.05c-.96 3.12-5.62 2.23-8.11 2.18a1.52 1.52 0 0 1-1.47-1.78l1.2-6.64a.72.72 0 0 1 .83-.58l1.81.32a.62.61 10.6 0 1 .5.72l-.79 3.98a1.23 1.23 0 0 0 .63 1.33c2.86 1.52 3.22-3 3.52-4.56a1.45 1.44-53.7 0 0-.14-.93c-1.57-3.08-4.83-7.14-4.73-10.49M588.66 151.29l.46-1.8a.55.55 0 0 1 .52-.42l6.56-.11a.55.55 0 0 1 .55.62l-.2 1.63a.55.55 0 0 1-.33.43l-1.78.76a.55.55 0 0 0-.32.41l-3.73 21.48a.55.55 0 0 1-.54.46h-2.58a.55.55 0 0 1-.54-.65l3.8-21.15a.55.55 0 0 0-.37-.62l-1.15-.39a.55.55 0 0 1-.35-.65M621.02 160.39l2.53-.05a.54.54 0 0 1 .5.76l-.58 1.33a.54.54 0 0 1-.49.32h-2.57a.54.54 0 0 0-.53.45l-1.41 7.92a.54.54 0 0 0 .53.63l2.23.01a.54.54 0 0 1 .54.55l-.06 1.94a.54.54 0 0 1-.54.53l-6.16-.05a.54.54 0 0 1-.53-.64l4.79-24.63a.54.54 0 0 1 .52-.43l5.57-.05a.54.54 0 0 1 .54.59l-.17 1.94a.54.54 0 0 1-.54.49h-2.8a.54.54 0 0 0-.53.44l-1.38 7.31a.54.54 0 0 0 .54.64M652.8 162.78q3.26-5.59 5.54-11.75.98-2.64 3.99-1.99a.84.83 10.9 0 1 .65.95l-4.01 24.2a.68.67 6.6 0 1-.71.56l-1.98-.12a.5.5 0 0 1-.47-.58l1.78-11.24q.22-1.45-.4-.13-3.19 6.72-4.48 10.5-.68 1.99-2.43 1.45a.76.74-83.4 0 1-.53-.68l-.61-11.69a.24.24 0 0 0-.48-.03l-2.11 11.96a.68.68 0 0 1-.68.56h-2.47a.48.48 0 0 1-.47-.57l4.67-24.46a.75.74 2.9 0 1 .69-.61l2.81-.15a.68.67-2.5 0 1 .71.64l.71 13.12q.03.49.28.06M375.22 161.24l2.58.05a.62.61 13.2 0 1 .55.88l-.6 1.25a.71.69 19.2 0 1-.81.38c-3.96-.98-3.56 5.78-4.33 8.12a.56.56 0 0 0 .5.74l2.63.14a.59.58 7.6 0 1 .54.7l-.35 1.62a.75.75 0 0 1-.72.6l-5.97.11a.44.43-85.1 0 1-.43-.52l4.86-24.89a.65.65 0 0 1 .65-.52l5.39.14a.59.58 5.5 0 1 .57.68l-.26 1.6a.77.77 0 0 1-.65.64l-2.44.31a1 .99 1.6 0 0-.86.81l-1.27 6.64a.44.44 0 0 0 .42.52M32.21 161.19l2.62.26a.52.52 0 0 1 .46.63l-.22.99a.78.78 0 0 1-.69.6l-2.63.24a.72.7-87.8 0 0-.63.6l-1.29 7.61a.54.54 0 0 0 .53.63l2.37.01a.58.58 0 0 1 .56.74l-.54 1.89a.61.61 0 0 1-.59.45l-5.94-.04a.49.49 0 0 1-.48-.58l4.89-24.73a.61.61 0 0 1 .6-.49h5.44a.61.61 0 0 1 .61.67l-.17 1.62a.73.72-.6 0 1-.64.64l-2.71.29a.72.71 1.6 0 0-.63.59l-1.27 6.91a.4.39-82 0 0 .35.47M63.94 162.22l-2.65 13.13a.69.69 0 0 1-.66.55l-2.41.05a.57.57 0 0 1-.57-.68l4.69-24.62a.72.71 5.3 0 1 .71-.58l1.88-.01a.67.65 86 0 1 .65.58l1.57 11.37q.3 2.21.66.01l1.81-11.18a.76.74 84.8 0 1 .48-.59q1.35-.5 2.86-.21a.57.57 0 0 1 .45.66l-4.68 24.46a.78.77-87 0 1-.69.63l-1.84.15a.73.72-3.9 0 1-.78-.67l-.87-13.01q-.15-2.3-.61-.04M101.77 153.87l-3.83 21.4a.73.73 0 0 1-.72.6h-2.26a.56.55-85.3 0 1-.55-.66l3.74-21.22a.68.67-75.2 0 0-.44-.77l-.81-.28a.86.86 0 0 1-.57-.75c-.26-3.22 5.42-2.24 7.29-2.08a.71.71 0 0 1 .65.67q.1 2.09-1.98 2.55a.68.68 0 0 0-.52.54M129.93 172.75h2.37a.51.5-86.9 0 1 .5.56l-.22 1.97a.63.63 0 0 1-.61.55h-5.88a.66.65-84.5 0 1-.64-.78l4.72-24.48a.7.7 0 0 1 .69-.57h5.49a.69.69 0 0 1 .67.85l-.39 1.63a.6.6 0 0 1-.53.46l-2.63.25a.75.74-86.8 0 0-.66.6l-1.35 6.75a.6.59 7.5 0 0 .55.71l2.17.11a.54.54 0 0 1 .5.5l.05 1.01a.76.75-4.8 0 1-.67.79l-2.49.28a.91.9-87.8 0 0-.79.74l-1.33 7.49a.49.49 0 0 0 .48.58M164.38 163.97a1.08 1.08 0 0 0-1.31.86l-1.85 10.31a.88.87 5.1 0 1-.86.71h-1.98a.46.45 5.7 0 1-.45-.54l4.69-24.8a.61.59 4.7 0 1 .58-.48c3.32-.07 9.49-1.27 8.68 2.99-.57 3.05-.88 8.63-3.47 10.52a.57.56 49.4 0 0-.06.87l.57.56a1.05 1.05 0 0 1 .3.94l-1.65 9.22a.83.83 0 0 1-.78.68l-1.87.09a.6.59-85.5 0 1-.61-.72c.48-2.19 3.14-10.49.07-11.21m3.696-9.617a1.02 1.02 0 0 0-.803-1.199l-.824-.163a1.02 1.02 0 0 0-1.199.802l-1.286 6.494a1.02 1.02 0 0 0 .803 1.199l.824.163a1.02 1.02 0 0 0 1.199-.802zM196.61 153.27l-1.06-.36a.73.72 16.8 0 1-.47-.87l.38-1.46a.79.77 7.1 0 1 .76-.58h6.33a.56.56 0 0 1 .55.48q.3 2.2-1.8 2.71a.98.97 88.2 0 0-.73.78l-3.84 21.22a.68.68 0 0 1-.67.56h-2.25a.59.59 0 0 1-.58-.69l3.72-21.21a.52.51-75.7 0 0-.34-.58M237.01 150.01a.96.95-88.6 0 1 .95 1.01l-1.25 24.14a.62.62 0 0 1-.62.59h-3.1a.48.47-88.3 0 1-.47-.51l.29-4.65a.73.73 0 0 0-.49-.73c-2.6-.91-3.38 3.81-4.12 5.51a.83.82 11.1 0 1-.74.49l-2.37.09a.54.54 0 0 1-.53-.73l9.04-24.63a.89.88 10 0 1 .85-.59zm-4.16 13.14-1.37 3.69a.5.49-77 0 0 .41.66c1.4.16 1.2-.96 1.46-1.74q.45-1.36.03-2.61-.25-.75-.53 0"/><rect width="3.06" height="26.48" x="-1.53" y="-13.24" rx=".7" transform="rotate(10.7 -738.297 1488.62)"/><path d="M296.14 162.28a.31.31 0 0 0-.62-.05q-1.29 5.8-2.31 11.48c-.37 2.04-1.65 2.97-3.56 2.05a.69.68 18.5 0 1-.37-.73l4.66-24.39a.76.76 0 0 1 .77-.62l1.79.06a.7.7 0 0 1 .68.61l1.53 11.54q.27 2.01.61.01l1.96-11.48a.76.75-87 0 1 .69-.63l2.22-.17a.64.64 0 0 1 .68.75l-4.54 24.5a.83.82-84.2 0 1-.82.68h-1.84a.75.75 0 0 1-.74-.71zM337.03 164.03q3.05-5.64 5.44-11.59c.86-2.15 2.36-3.08 4.52-2.2a.63.62-73.9 0 1 .38.69l-4.11 24.53a.68.67-82.9 0 1-.71.56l-1.76-.12a.68.68 0 0 1-.63-.8l1.92-11.39a.33.33 0 0 0-.63-.18l-4.91 11.75a1.17 1.15 1.5 0 1-.7.65c-1.18.42-1.8-.2-1.81-1.37q-.04-5.54-.6-11.03-.06-.64-.18-.01L331 174.95a.92.91-89.9 0 1-.71.72l-1.78.36a.9.89 89.4 0 1-1.06-1.04l4.48-24.42a.7.69-84.4 0 1 .68-.57h2.97a.62.62 0 0 1 .62.59l.56 13.38q.02.53.27.06M412.07 162.2l2.21-11.49a.77.77 0 0 1 .73-.63l2.36-.11a.54.54 0 0 1 .55.64l-4.59 24.7a.79.79 0 0 1-.87.65l-1.67-.21a.76.76 0 0 1-.67-.69l-1.14-12.54q-.23-2.6-.69-.03l-2.28 12.68a.71.71 0 0 1-.66.58l-2.44.11a.61.61 0 0 1-.62-.72l4.66-24.62a.65.65 0 0 1 .68-.52l1.96.13a.83.81-1.2 0 1 .76.71l1.5 11.35q.09.68.22.01M441.08 150.57a1.04 1.04 0 0 1 .93-.57h5.9a.64.63-85.7 0 1 .62.73l-.21 1.44a.78.77-4.2 0 1-.55.63c-1.17.35-1.75.76-1.96 2.04q-1.63 10.21-3.51 20.37a.79.79 0 0 1-.79.65l-2.11-.03a.63.62 5.4 0 1-.61-.73l3.75-21.23a.44.43-80.2 0 0-.35-.51q-2.3-.41-1.11-2.79"/></g></svg>