<svg xmlns="http://www.w3.org/2000/svg" viewBox="0 0 441.042 311.356"><path d="m282.032 195.76-.64-.72-1.134-1.76-1.135-1.76-4.406-6.72-4.406-6.72-4.482-6.88-4.483-6.88-.59-.628-.589-.627-.327.327-.327.327.522 14.843.52 14.843-.652.528-.653.529-2.505.217-2.505.217-5.729.487-5.729.487-.22-.255-.219-.255-5.65-16.32-5.65-16.32-.796-6.88-.796-6.88-1.302-11.2-1.301-11.2-1.104-9.392-1.104-9.392v-2.83l.72-.295.72-.296 5.28-.828 5.28-.828 3.84-.624 3.84-.624 8.96-1.451 8.96-1.452 5.97-.971 5.968-.971 1.071.474 1.071.474 16.64 9.744 16.64 9.743.293.815.293.815-2.774 14.504-2.775 14.505-.329 1.192-.329 1.191-1.03.755-1.029.755-7.6 4.403-7.6 4.402v.441l2.32 1.938 2.32 1.938 10.4 8.633 10.4 8.633.421.518.422.518-.777.51-.778.509-5.404 2.421-5.404 2.422-8.548 3.81-8.548 3.811h-.872zm-14.035-48.757 7.683-1.797.381-.363.381-.363 1.045-8.718 1.044-8.719-.305-.305-.306-.305-9.499-2.577-9.499-2.576h-1.013l.173 3.44.173 3.44.313 8.691.312 8.692v3.257h1.435zm77.36-56.843-.323-.4-1.19-11.68-1.189-11.68-1.195-11.68-1.195-11.68 1.865-11.147 1.864-11.146-.314-.588-.315-.587-.882-.175-.883-.175-1.2-.207-1.2-.206v-.434l3.44-.52 3.44-.519 13.687-2.108 13.686-2.108h2.751l11.818 6.925 11.818 6.924.72.651.72.652v1.518l-2.093 12.545-2.093 12.545-.707.666-.707.666-5.12 3.14-5.12 3.141-.427.392-.427.392 9.707 8.263L404 79.803l.228.338.229.339-.389.374-.388.374-7.36 3.103-7.36 3.103-3.434 1.426-3.434 1.427-.566-.183-.566-.183-.691-1.04-.69-1.041-6.939-10.72-6.937-10.72-.8-.8-.801-.8.195 8.48.194 8.48.187 3.088.186 3.088-.672.672-.672.672-1.36.006-1.36.006-6.72.632-6.72.631-.84.003-.842.002zm25.602-36.912 5.68-.89.342-.211.343-.212 1.147-7.572 1.146-7.573-.159-.158-.159-.16-7.65-2.714L364 31.043l-.585-.002-.586-.001.17.88.169.88.213 10.56.212 10.56.159.266.158.266.685-.158.685-.158zM194.72 88.742l-3.2-.084-12.912-.335-12.912-.335-.688-.366-.688-.367-7.277-6.533-7.277-6.534-.643-.817-.643-.817v-1.455l2.222-5.024 2.222-5.023.198-.9.197-.898-.373-1.387-.372-1.387-1.47-1.35-1.468-1.35.566-9.37.566-9.37 1.816-2.34 1.816-2.339.8-1.156.8-1.157-.023-1.539-.024-1.54-.433-.808-.432-.809-1.704-1.286-1.704-1.287v-1.137l.415-.568.416-.568 5.584.52 5.585.52 4.8.456 4.8.455 2.72.213 2.72.212.56.29.56.29v1.912l-3.197 19.753-3.196 19.753-.363 2.014-.362 2.015.181.181.182.182 8.417-.526 8.418-.526 1.68-.173 1.68-.173-.002-1.497-.002-1.497-.633-13.44-.634-13.44-.004-2.81-.004-2.81.46-.176.46-.177 13.116 1.753 13.117 1.753.344.212.343.213v1.48l-3.179 18.9-3.179 18.9-.42.789-.422.789-5.878 6.718-5.879 6.718-.776.354-.777.354-.705-.067-.705-.067-3.2-.084z" style="fill:#fbcd00;stroke-width:.32" transform="translate(-16.238 -5.444)"/><path d="m168.145 300.235-.335-.235-4.043-9.76-4.044-9.76-1.222-3.119-1.221-3.119-.32.102-.32.101-2.735 5.418-2.734 5.417-2.353 5.12-2.352 5.12-.524.562-.523.562-6.23-.487-6.229-.486-6.59-.643-6.589-.642-2.832-.495-2.831-.494-.58-.31-.578-.31v-.317l-3.381-14.95-3.381-14.95-4.277-19.2-4.277-19.2-1.462-6.964-1.462-6.964v-.938l.758-.496.758-.497 3.298-.639 3.297-.64.243.25.243.248.405 5.848.405 5.847.576.522.576.521 2.48-.352 2.481-.351 1.137.782 1.137.783h3.843l8.782-1.765 8.781-1.765 1.08-.489 1.08-.488.094.094.095.095.494 4.64.495 4.638.657 9.6.658 9.6.473 6.805.474 6.804v1.591h.567l10.143-10.64 10.142-10.64.214-.059.214-.059 3.922 5.34 3.921 5.338 4.483 5.918 4.482 5.918.956.956.956.956v-1.251l.945-4.488.945-4.49 2.274-10.88 2.273-10.88 1.47-6.72 1.471-6.72.262-.294.262-.295 8.889 1.848 8.889 1.849 4.263.885 4.263.886.327.327.327.327-8.069 25.074-8.069 25.074-3.78 11.782-3.78 11.782-.35.421-.35.421-2.47.218-2.472.218-7.84.77-7.84.77-1.44.164-1.44.164zm148.399-103.819-.384-.384v-2.019l.209-1.996.208-1.997 2.06-.984 2.059-.983.446-.682.446-.68.349-2.505.348-2.505-.366-.884-.366-.884-2.067-1.676-2.066-1.677-.28-.523-.28-.524.122-.796.122-.797.343-9.92.343-9.92.45-11.52.45-11.52.543-15.04.543-15.04.264-.72.264-.72h1.358l16.21 3.858 16.208 3.858.87.336.869.337.18.567.18.567-3.039 17.079-3.038 17.078-4.507 25.44-4.507 25.44-.616.623-.616.624-6.168.393-6.168.394-4.48.342-4.48.341-.816.001-.816.001zM98.24 88.079l-1.12-.58-9.92-8.44-9.92-8.44-.254-.425-.253-.426.379-.707.379-.708 5.574-7.43 5.574-7.43.501-.192.501-.192.513.405.512.406 9.265 7.805 9.266 7.806.383.034.382.035 2.812-3.84 2.812-3.84.768-.93.769-.93-.582-.54-.581-.54-11.52-6.994-11.52-6.995-6.51-3.977-6.509-3.977.132-.678.131-.679 7.39-11.075 7.39-11.075.81-.636.809-.637 2.338-.204 2.339-.205 11.662-1.124L124.604 9.6h2.041l9.728 7.44 9.728 7.44 1.19.896 1.189.897v1.289l-5.144 6.54-5.145 6.538h-1.115l-10.05-6.88-10.052-6.88-.327.015-.327.014-2.664 4.473-2.664 4.473.104.292.104.29 7.52 4.959 7.52 4.957 9.833 6.469 9.832 6.468.174.547.174.548-5.572 12.607L135.11 85.6l-.39.845-.39.844-.71.324-.709.323-15.175.202-15.175.202-1.6.16-1.6.16z" style="fill:#0098d4;stroke-width:.32" transform="translate(-16.238 -5.444)"/><path d="m347.19 314-2.07-2.16 2.16 2.07 2.16 2.072v.178h-.178zm-8.159-8.48-2.231-2.32 2.32 2.231 2.32 2.232v.177h-.177zm10.51-1.28-.65-.72-3.032-4.16-3.033-4.16-3.001-4.16-3-4.16-4.901-6.88-4.9-6.88-.872-1.12-.871-1.12-.208 1.44-.208 1.44-.24 12.513-.242 12.512-.352 1.075-.351 1.074-.8.221-.8.221-2.88.027-2.88.027-.427-.27-.428-.272-3.99-13.884-3.989-13.884-6.844-23.84-6.845-23.84-1.11-4.224-1.112-4.223.373-.292.372-.29 1.12-.22 1.12-.22 5.92-1.11 5.92-1.109.68-.152.68-.152.202 1.266.202 1.266.558.287.558.287 2.03.176 2.03.175.69.645.69.644 1.545.388 1.546.387 6.614-.196 6.615-.196 3.36-.506 3.36-.506 1.264-.332 1.264-.332 1.007-1.1 1.006-1.099 1.854-.301 1.853-.302.584-.528.584-.528.37-1.162.371-1.161.25-.273.25-.273 6.832 4.94 6.831 4.94 7.28 5.192 7.28 5.193v1.297l-1.934 7.572-1.934 7.572-1.408 4.98-1.407 4.978-.68 1.819-.681 1.818-1.818 1.056-1.818 1.056-6 3.486-6 3.485v.448l8.72 6.336 8.72 6.337 4.987 3.764 4.988 3.765.375.452.375.452-6.482 2.974-6.483 2.975-8.8 3.949-8.8 3.95h-.368zm-20.165-43.932 4.544-1.131 3.7-1.143 3.701-1.142.744-.561.744-.561 2.023-9.085 2.023-9.085.012-.694.013-.693-3.6-1.193-3.6-1.193-7.635-2.674-7.634-2.673h-.96l.232 16.24.233 16.24.14.24.142.24h.634zm49.504 23.052-6.234-6.24h.32l6.234 6.24 6.234 6.24h-.32zm-233.802-53.92v-3.36l.118 1.68.117 1.68-.117 1.68-.118 1.68zm-.958-12.32v-3.52l.117 1.852.115 1.851-.117 1.669-.117 1.668zm256.84-17.125-1.76-.594-14.4-4.68-14.4-4.68-2.475-.805-2.475-.805-.646-.536-.645-.535-4.64-13.417-4.639-13.416v-1.181l2.575-14.633 2.575-14.633.164-.552.164-.552 4.381-5.56 4.381-5.561 5.196-6.58 5.195-6.581.862-.678.861-.678 1.303.176 1.303.175 6.72.806 6.72.806 7.68.937 7.68.938 5.76.678 5.76.678 1.637.308 1.637.308.66.706.658.706 4.285 6.08 4.285 6.08 5.56 7.84 5.56 7.84 1.54 2.217 1.538 2.217v2.113l-4.648 18.487-4.649 18.486-.443.991-.443.992-1.549.73-1.548.73L421.511 193l-16.729 7.639-1.03-.025-1.032-.025zm7.362-35.676 8.638-4.321.004-.88.004-.878-.97-8-.969-8-.234-1.097-.234-1.097-8.16-2.191-8.16-2.192-1.67-.375-1.67-.376-.126.144-.126.144-4.924 8.467-4.924 8.467-.21.521-.211.521 1.33 1.462 1.33 1.462 5.92 6.268 5.92 6.269.403.002.402.002zm-246.797 31.695-3.755-.727-.485-.403-.485-.402v-1.001l-4.675-23.164-4.676-23.164 1.647-5.656 1.647-5.657 4.902-16.902 4.902-16.902.519-.519.518-.518 8.728.89 8.728.891 11.621 1.2 11.622 1.2.57.61.569.61.67 1.92.67 1.92 3.677 10.56 3.675 10.56 8.684 24.96 8.684 24.96 1.442 4.075 1.442 4.075-.204.644-.205.645-.698.175-.699.175-14.08 2.677-14.08 2.677-.65-.413-.65-.413-2.043-9.878-2.043-9.879-.282-1.04-.282-1.04h-.454l-12.615 1.909-12.616 1.908-.378.412-.378.411-1.469 8.793-1.469 8.793-.557.407-.556.407-.34-.03-.338-.03zm30.788-42.174-.007-.72-2.49-11.91-2.49-11.911-.143-.14-.143-.141-3.931-.335-3.932-.334-.429.165-.429.164-.166 1.341-.165 1.341-1.83 10.72-1.83 10.72-.044.48-.044.48 6.309.226 6.308.226 2.332.11 2.331.11.4.064.4.064zM312.8 88.612l-15.36-.578-7.266-.259-7.265-.258-.32-.32-.32-.32-1.676-10.38-1.675-10.378 3.527-3.38 3.526-3.379.517-.8.516-.8 1.631-11.04 1.632-11.04.68-4.716.679-4.717-.613-.677-.613-.678-1.2-.613-1.2-.612V22.24l.78-2.529.78-2.529.34-.21.339-.21 4.24.742 4.241.742 4.48.776 4.48.776 14.08 2.444 14.08 2.443.456.446.457.445-1.477 8.701-1.478 8.702-.39.24-.39.242-.349-.116-.349-.116-11.295-3.396-11.296-3.396-.362.12-.361.121-1.525 5.572-1.525 5.573.134.133.134.134 10.566.16 10.567.161.33.397.328.396-.874 6.788-.875 6.788-.385.528-.386.527-4.908-.726-4.907-.726-5.402-.803-5.402-.803-.156.157-.157.156.68 4.735.68 4.735-.001.819-.002.819.4.53.4.532 8.64-1.269 8.64-1.269 4.14-.65 4.14-.65.394.41.395.408 1.354 9.002 1.354 9.002-.198.518-.2.518-3.61-.044-3.61-.045zm-119.11.112 1.53-.12 1.35.122 1.35.122-2.88-.002-2.88-.002zm170.89-5.684.002-1.92.13 1.046.13 1.045-.134.875-.132.874.003-1.92zM216.104 21.28l.003-2.24.126 1.207.126 1.207-.129 1.033-.128 1.033z" style="fill:#42ac33;stroke-width:.32" transform="translate(-16.238 -5.444)"/><path d="m273.047 299.585-.393-.254-1.11-4.626-1.108-4.625-1.19-6.24-1.19-6.24-.348-.378-.348-.379-6.08.62-6.08.621-5.468.8-5.468.8-1.614.479-1.613.479-.334.879-.334.879-1.984 7.2-1.985 7.2-.23.8-.23.8-1.57-.066-1.57-.067-10.56-2.089-10.56-2.089-3.792-.928-3.792-.928-.45-.45-.45-.45.624-1.906.623-1.907 6.607-20.64 6.607-20.64 4.465-13.44 4.464-13.44.553-1.433.554-1.434 1.397.101 1.396.101 1.175.613 1.175.612 2.542.327 2.542.327 2.08-.171 2.08-.171 7.04-.655 7.04-.654 2.013-.46 2.012-.46 1.028-.529 1.027-.529.99-.752.988-.751 1.571-.204 1.571-.204.542-.47.542-.47.215-.981.215-.98.3.533.298.534h2.135l1.716.516 1.717.516.367.102.368.1 1.694 2.428 1.694 2.427 1.198.322 1.198.323.626 1.673.625 1.673 1.512 4.32 1.512 4.32 4.577 13.76 4.577 13.76 2.576 8.96 2.576 8.96 2.865 9.92 2.865 9.92-.376.39-.376.389-6.239.804-6.239.804-8.8.973-8.8.973-.8.153-.8.153zm-9.73-45.995.127-.127-2.809-11.292-2.808-11.291-.313-.4-.312-.4h-2.13l-1.578.338-1.577.338-.648.702-.649.702-1.136 7.04-1.135 7.04-.514 3.6-.513 3.6.148.24.148.24 7.786-.102 7.786-.101zm-151.944-54.95-.293-.72-.679-11.68-.678-11.68-.461-7.84-.46-7.84-.316-4.64-.316-4.64-.005-1.04-.005-1.04h-.54l-9.52 11.702-9.522 11.702-.499.191-.499.192-.51-.655-.51-.654-6.72-12.183-6.72-12.183-.19-.016-.191-.016-3.608 11.76-3.607 11.76-3.968 12.92-3.968 12.92-.192.311-.192.31-1.002-.15-1.002-.15-16-6.855-16-6.856-.093-.785-.093-.785 1.579-3.68 1.578-3.68 14.561-34.08 14.561-34.08 1.536-3.634 1.536-3.633.691-.453.691-.453 10.047 1.306L79.84 98.92l.87.335.87.335.61 1.646.611 1.645 4.41 13.12 4.41 13.12.196.231.197.231 7.03-13.607 7.029-13.607.695-.653.696-.654 9.868 1.327 9.868 1.327 1.504.185 1.505.185.605.678.606.677 1.795 8.96 1.795 8.96 6.073 30.08 6.072 30.08.662 3.171.663 3.171v1.832l-.72.315-.72.316-17.12 3.516-17.12 3.515-.567.002-.567.002zM229.659 89.842l-.55-.402-1.923-15.84-1.923-15.84-.531-4.829-.531-4.828 1.506-9.092 1.506-9.091-.006-.73-.006-.73-.4-.153-.4-.153-2.4-.397-2.4-.397-.287-2.342-.287-2.341.453-.454.453-.453 10.554-1.946 10.554-1.946 7.603-1.41 7.603-1.41.864.329.864.328 11.966 6.445 11.966 6.444.414.658.414.658-.622 4.16-.622 4.16-1.23 8.376-1.23 8.375-.435.618-.435.617-6.56 6.234-6.56 6.233-.685.366-.685.366-6.035.325-6.035.326-2.674.194-2.673.193.21 3.889.209 3.888.305 4.372.304 4.371-.185.484-.186.484-.523.2-.522.2-7.853.782-7.852.782-.976.165-.976.165zm23.387-35.764 5.354-.963 1.029-.17 1.029-.17.166-.269.166-.27.967-6.038.967-6.038.182-.876.183-.875-.745-.303-.744-.302-7.628-2.607-7.629-2.607-.19.19-.19.19.558 9.835.557 9.835.182 1.2.182 1.2h.25z" style="fill:#e2210e;stroke-width:.32" transform="translate(-16.238 -5.444)"/><path d="m346.039 312.56-4.15-4.24-4.77-4.96-4.771-4.96-.028-.067-.028-.068-2.16 8.066-2.16 8.065-.226.213-.226.213-13.639.564-13.64.563-3.253-2.774-3.255-2.775-.386.014-.387.014-10.24.91-10.24.911-.373-.364-.372-.365-4.36-11.036-4.358-11.035-.236-.236-.236-.236-8.152 1.588-8.153 1.587-.64.283-.64.284-3.979 8.873-3.978 8.873-.375.144-.375.144-14.416-2.416-14.415-2.417h-.974l-2.101 3.207-2.101 3.207-.723.255-.723.256-16.523 1.066-16.523 1.066-.453-.174-.453-.174-5.104-8.03-5.104-8.03-.178-.005-.179-.005-4.878 6.097-4.878 6.096-.383.145-.384.144-17.53-2.026-17.53-2.027-.274-.294-.275-.295-5.657-24.32-5.657-24.32-4.778-20.497-4.779-20.499v-1.723l1.775-5.43 1.776-5.431.317-.196.318-.197 5.91-.883 5.912-.884.19-.19.191-.191-1.207-13.22-1.207-13.218-.196-.232-.195-.232-7.29 8.432-7.289 8.433-.808.76-.809.759-.401-.549-.401-.549-5.885-10.25-5.884-10.252-.168.007-.169.007-6.72 20.968-6.72 20.968-.48-.13-.48-.13-20.8-8.727-20.8-8.727-.403-.372-.402-.372-.359-6.111-.358-6.112 19.604-45.874L55.447 91.04l.264-.292.265-.292 14.137 1.34 14.137 1.34.12-.12.12-.12-6.07-5.375-6.07-5.376-.162-.832-.162-.833-.207-6.24L71.61 68l1.877-2.24 1.878-2.24 3.357-4.098 3.357-4.099.086-.239.086-.24-3.846-3.147-3.846-3.147v-1.44l.338-5.68.339-5.68 8.806-13.316L92.85 9.12l.244-.253.243-.252 16.292-1.586 16.291-1.585.96.009.96.008 9.76 7.516 9.76 7.516.202-.887.202-.886.038-2.64.038-2.64h.446l15.057 1.762 15.057 1.763 3.136.369 3.137.369.27.508.27.509.23 2.471.23 2.472.38.315.38.315 14.677 2.093 14.677 2.094.064-.08.065-.08.282-4.791.282-4.792 4-.68 4-.68 17.361-2.984 17.362-2.985 2.958 1.563 2.96 1.563 8.64 4.554 8.64 4.555.24-.239.241-.238 1.788-5.743 1.787-5.743.217-.23.217-.229 22.394 3.989 22.395 3.988.202.001.201.001.14-1.925.139-1.925.299-.283.3-.284 6.56-.98 6.56-.98 13.991-2.092 13.992-2.091h1.904l14.816 8.352 14.816 8.352.278.263.279.262-2.275 16.905-2.275 16.906-.711 5.04-.711 5.039 5.027 5.063 5.028 5.063-.005 6.218-.005 6.217-.235.362-.235.363-4.93 2.908-4.929 2.91.45.144.449.145 1.92.32 1.92.319 11.68 2.117 11.68 2.118.662.274.662.274 13.978 18.732 13.978 18.733-.005.74-.005.741-5.426 27.484-5.425 27.484-.117.116-.116.116-14.053 6.357-14.053 6.356-6.49 2.94-6.488 2.94-21.831-7.256-21.831-7.256-.48-.253-.48-.253-3.483-10.027-3.483-10.028-.095-.11-.095-.112-1.4.964-1.401.964-.393.473-.392.473-1.453 8.852-1.453 8.853.319.381.319.382 16.81 11.84 16.809 11.84.145.347.144.346-4.57 24.294-4.57 24.293.572.8.574.8 6.31 6.24 6.309 6.24.278.958.279.958v4.85l-14.48 7.964-14.48 7.964-3.337 1.853-3.336 1.853h-.739zm13.321-11.55 8.8-3.95 6.483-2.974 6.482-2.974-.375-.452-.375-.452-4.988-3.765-4.987-3.764-8.72-6.337-8.72-6.336v-.448l6-3.485 6-3.486 1.818-1.056 1.818-1.056.68-1.818.68-1.819 1.408-4.979 1.408-4.979 1.934-7.572 1.934-7.572v-1.298l-7.28-5.192-7.28-5.193-6.831-4.94-6.831-4.939-.25.273-.25.273-.371 1.161-.371 1.162-.584.528-.584.528-1.853.302-1.854.301-1.006 1.1-1.007 1.099-1.264.332-1.264.332-3.36.506-3.36.506-6.615.196-6.614.196-1.546-.387-1.545-.388-.69-.644-.69-.645-2.03-.175-2.03-.176-.558-.287-.558-.287-.202-1.266-.203-1.266-.68.152-.679.152-5.92 1.11-5.92 1.11-1.12.219-1.12.22-.372.29-.373.292 1.111 4.223 1.111 4.224 6.845 23.84 6.844 23.84 3.99 13.884 3.99 13.884.427.271.427.271 2.88-.027 2.88-.027.8-.22.8-.222.351-1.074.352-1.075.241-12.512.241-12.513.208-1.44.208-1.44.871 1.12.872 1.12 4.9 6.88 4.9 6.88 3.001 4.16 3 4.16 3.034 4.16 3.033 4.16.65.72.65.72h.368zm-35.303-39.81-.14-.24-.233-16.24-.233-16.24h.96l7.635 2.673 7.634 2.674 3.6 1.193 3.6 1.193-.012.693-.013.694-2.023 9.085-2.022 9.085-.744.561-.744.561-3.701 1.142-3.7 1.143-4.545 1.131-4.543 1.132h-.635zM179.2 299.378l7.84-.776 2.471-.218 2.472-.218.35-.42.35-.422 3.78-11.782 3.779-11.782 8.07-25.074 8.068-25.074-.327-.327-.327-.327-4.263-.886-4.263-.885-8.889-1.849-8.889-1.848-.262.295-.262.295-1.47 6.72-1.47 6.72-2.274 10.88-2.274 10.88-.945 4.489-.945 4.489-.014.63-.015.632-1.505-1.666-1.506-1.665-7.84-10.546-7.84-10.546-.217.052-.216.051-10.142 10.64-10.14 10.64h-.565v-1.591l-.473-6.804-.474-6.805-.658-9.6-.657-9.6-.495-4.639-.494-4.639-.095-.095-.095-.094-1.08.486-1.079.486-8.844 1.767-8.845 1.768h-3.717l-1.137-.783-1.137-.783-2.48.352-2.481.352-.576-.521-.576-.522-.405-5.847-.405-5.848-.243-.249-.243-.248-3.297.64-3.298.638-.758.497-.758.497v.937l1.462 6.964 1.462 6.964 4.277 19.2 4.277 19.2 3.38 14.95 3.382 14.95v.317l.613.328.613.328 3.947.623 3.947.623 5.6.506 5.6.506 6.068.478 6.068.477.525-.563.525-.563 2.352-5.12 2.353-5.12 2.734-5.417 2.735-5.418.32-.101.32-.102 1.221 3.12 1.222 3.118 4.044 9.76 4.043 9.76.335.246.335.246 1.44-.17 1.44-.168zm104.64-.818 8.8-.972 6.24-.805 6.238-.804.376-.39.376-.389-2.865-9.92-2.865-9.92-2.576-8.96-2.576-8.96-4.577-13.76-4.577-13.76-1.512-4.32-1.512-4.32-.625-1.673-.626-1.673-1.198-.323-1.198-.322-1.694-2.427-1.694-2.427-.368-.101-.367-.102-1.717-.516-1.716-.516h-2.135l-.299-.534-.299-.533-.215.98-.215.98-.542.47-.542.47-1.57.205-1.572.204-.989.751-.989.752-1.027.53-1.028.528-2.012.46-2.013.46-7.04.654-7.04.655-2.08.17-2.08.172-2.542-.327-2.542-.327-1.175-.612-1.175-.613-1.396-.1-1.397-.101-.554 1.433-.553 1.433-4.464 13.44-4.465 13.44-6.607 20.64-6.607 20.64-.623 1.907-.623 1.907.45.45.45.45 3.791.927 3.792.928 10.56 2.09 10.56 2.088 1.57.067 1.57.066.23-.8.23-.8 1.985-7.2 1.984-7.2.334-.879.334-.879 1.613-.48 1.614-.478 5.468-.8 5.468-.8 6.08-.62 6.08-.62.348.378.348.378 1.19 6.24 1.19 6.24 1.109 4.626 1.109 4.625.393.254.393.254.8-.153.8-.153zm-36.37-44.88-.148-.24.513-3.6.514-3.6 1.135-7.04 1.136-7.04.649-.702.648-.702 1.577-.338 1.577-.338h2.131l.312.4.313.4 2.808 11.291 2.809 11.292-.127.127-.127.127-7.786.101-7.786.102zm-72.154-9.626.354-.427.52-2.213.52-2.214.417-1.76.417-1.76.365-1.76.366-1.76.255-1.6.256-1.6.395-1.6.395-1.6.31-1.033.31-1.033.285-1.527.285-1.527.313-1.44.313-1.44.683-1.6.683-1.6 1.181-1.227 1.181-1.227 1.28-.67 1.28-.671 3.279-.023 3.279-.022v-1.381l.002-1.381-.322-.602-.323-.602-.298-1.857-.298-1.857-.366-1.6-.367-1.6-.453-1.781-.453-1.781v-1.596l-.404-.551-.403-.552-2.557.317-2.556.318-4.129.654-4.129.654-.397.33-.397.33-.371 2.149-.372 2.149-.34 1.44-.34 1.44-.254 1.92-.254 1.92-.369 2.24-.37 2.24-.322 1.6-.323 1.6-.352.92-.352.92-1.844-.193-1.844-.193-2.5-.487-2.501-.488-2.4-.45-2.4-.452-2.88-.528-2.88-.529-2.08-.442-2.08-.443-2.185-.377-2.184-.377-.314.314-.314.314.144 4.125.145 4.126.35 4.16.35 4.16.331 4.16.331 4.16.233 2.047.233 2.047.539.338.539.338 3.356-3.527 3.356-3.527 2.025-1.08 2.025-1.08 2.56-.003 2.56-.004 1.714.945 1.714.946 1.006 1.164 1.006 1.164.988 1.236.988 1.236.818 1.28.82 1.28 1.116 1.2 1.116 1.2h.635zm44.197-29.641.647-1.268v-1.343l-.36.223-.36.222-2.6.451-2.6.451-1.76.514-1.76.513 3.36.706 3.36.705.714.047.713.046zM421.511 193l16.729-7.638 1.548-.73 1.549-.73.443-.992.443-.991 4.649-18.486 4.648-18.487v-2.113l-1.539-2.217-1.538-2.217-5.56-7.84-5.561-7.84-4.285-6.08-4.285-6.08-.659-.706-.659-.706-1.637-.308-1.637-.308-5.76-.678-5.76-.678-7.68-.938-7.68-.937-6.72-.806-6.72-.806-1.303-.175-1.303-.176-.861.678-.862.678-5.195 6.58-5.196 6.581-4.381 5.56-4.381 5.561-.164.552-.164.552-2.575 14.633-2.575 14.632v1.181l4.64 13.417 4.639 13.417.645.535.646.536 2.475.805 2.475.804 14.4 4.68 14.4 4.681 1.76.594 1.76.594 1.031.026 1.031.025zm-28.551-30.633-5.92-6.268-1.33-1.462-1.331-1.462.21-.52.211-.522 4.924-8.467 4.925-8.467.126-.144.126-.144 1.67.376 1.669.375 8.16 2.192 8.16 2.19.234 1.098.235 1.097.969 8 .97 8-.005.879-.004.879-8.637 4.32-8.638 4.322-.402-.002-.403-.002zm-263.04 33.473 17.12-3.516.72-.316.72-.315v-1.832l-.663-3.171-.662-3.171-6.072-30.08-6.072-30.08-1.796-8.96-1.795-8.96-.606-.677-.605-.678-1.505-.185-1.504-.185-9.868-1.327-9.868-1.327-.696.654-.695.653-7.03 13.607-7.029 13.607-.197-.23-.196-.232L87.21 116l-4.41-13.12-.61-1.645-.611-1.646-.87-.335-.87-.335-10.046-1.306-10.047-1.306-.69.453-.692.453-1.536 3.633-1.536 3.634-14.56 34.08-14.561 34.08-1.58 3.68-1.578 3.68.093.785.093.785 16 6.856 16 6.855 1.002.15 1.002.15.192-.31.192-.31 3.968-12.92 3.968-12.921 3.607-11.76 3.608-11.76.19.016.191.017 6.72 12.182 6.72 12.183.51.655.51.654.5-.192.498-.191 9.521-11.702 9.521-11.702h.54l.005 1.04.005 1.04.316 4.64.315 4.64.461 7.84.46 7.84.68 11.68.678 11.68.293.72.293.72.567-.002.567-.002zm36.594.552.557-.407 1.47-8.793 1.468-8.793.378-.411.378-.412 12.616-1.908 12.615-1.909h.454l.282 1.04.282 1.04 2.043 9.879 2.044 9.878.65.413.649.413 14.08-2.677 14.08-2.677.699-.175.698-.175.205-.645.204-.644-1.442-4.075-1.442-4.075-8.684-24.96-8.684-24.96-3.675-10.56-3.676-10.56-.67-1.92-.671-1.92-.57-.61-.57-.61-11.62-1.2-11.622-1.2-8.728-.89-8.728-.891-.518.518-.519.519-4.902 16.902-4.902 16.902-1.647 5.657-1.647 5.656 4.676 23.164 4.675 23.164v1l.485.403.485.403 3.755.727 3.755.727.339.03.339.029zm22.675-42.07-2.332-.111-6.308-.226-6.309-.226.044-.48.043-.48 1.83-10.72 1.83-10.72.166-1.34.166-1.342.43-.164.428-.165 3.932.334 3.931.335.143.14.143.141 2.49 11.91 2.49 11.911.007.72.007.72-.4-.064-.4-.063zm133.851 42.133 4.48-.342 6.168-.394 6.168-.393.616-.624.616-.623 4.507-25.44 4.507-25.44 3.038-17.078 3.039-17.079-.18-.567-.18-.567-.87-.337-.869-.336-16.209-3.858-16.209-3.858h-1.358l-.263.72-.263.72-.546 15.04-.546 15.04-.449 11.52-.448 11.52-.342 9.92-.343 9.92-.122.797-.123.796.28.524.28.523 2.067 1.677 2.067 1.676.366.884.366.884-.348 2.505-.349 2.504-.446.681-.446.682-2.06.983-2.059.984-.208 1.997-.209 1.997v2.018l.384.384.384.384.816-.001.816-.001zm-30.33-3.946 8.89-3.97 5.596-2.514 5.597-2.513.1-.517.099-.518-6.334-5.239-6.334-5.239-6.79-5.642-6.788-5.642.547-.466.547-.466 7.857-4.555 7.857-4.554.422-.675.421-.675 2.799-14.583 2.798-14.582.22-1.002.22-1.002-.737-.823-.737-.823-16.8-9.784-16.8-9.785-.75-.193-.751-.193-10.29 1.669-10.29 1.668-11.52 1.87-11.52 1.87-2.468.386-2.468.386-.503.556-.503.556 2.084 17.882 2.085 17.882.485 4.16.486 4.16.784 6.72.784 6.72 5.626 16.137 5.625 16.137.349.42.348.42.684-.15.683-.148 7.499-.668 7.498-.668.582-.311.58-.312-.015-3.748-.016-3.749-.424-11.2-.423-11.2.15-.258.149-.257.435.097.434.098 9.23 14.08 9.23 14.08 1.499 2.32 1.5 2.32h1.591zm-34.186-57.23-.463-13.52.191-.246.192-.246 9.738 2.617 9.738 2.618.26.224.26.225-.831 7.004-.831 7.004-.255 1.84-.256 1.84-.209.209-.21.209-7.924 1.862-7.924 1.862-.506.009-.506.009zm97.11-45.4 8.275-.714.465-.466.466-.465-.26-8.518-.26-8.517v-5.596l.32-.057.32-.056 7.57 11.654 7.568 11.655.526.72.526.72.705-.002.705-.001 7.84-3.305 7.84-3.304 3.12-1.37 3.12-1.368v-.768l-9.156-7.82-9.155-7.822-.792-.648-.791-.647 5.715-3.568 5.715-3.568.605-.668.604-.668 2.176-13.033 2.175-13.034-.394-.593-.393-.593-12.464-7.33-12.463-7.33h-.982l-17.92 2.747-17.92 2.748-.27.259-.27.258 2.272.383 2.273.384.426.608.426.608-1.868 10.963-1.867 10.962.643 6.4.643 6.4 1.746 16.989 1.747 16.988.197.513.197.514.532.137.533.137.48-.101.48-.102zm8.091-38.43-.192-2.97-.207-8.72-.207-8.72h.563l7.66 2.717 7.66 2.717.264.264.264.264-.971 6.379-.97 6.379-.172 1.055-.172 1.054-.702.29-.703.29-5.44.826-5.44.826-.521.159-.521.159zM240.013 89.132l7.852-.781.523-.2.523-.201.185-.484.186-.484-.305-4.371-.305-4.372-.21-3.888-.209-3.889 2.674-.193 2.673-.194 6.035-.326 6.035-.325.685-.366.685-.366 6.56-6.233 6.56-6.234.435-.617.435-.618 1.23-8.375 1.23-8.376.622-4.16.623-4.16-.414-.658-.415-.658-11.965-6.444-11.966-6.445-.865-.328-.864-.329-7.603 1.41-7.603 1.41-10.554 1.946-10.553 1.946-.454.453-.453.454.287 2.341.287 2.342 2.4.397 2.4.397.4.153.4.153.006.73.006.73-1.506 9.091-1.506 9.092.531 4.828.531 4.829 1.923 15.84 1.923 15.84.55.402.55.403.976-.165.975-.165zm7.247-35.293-.182-1.2-.557-9.835-.557-9.835.19-.19.19-.19 7.628 2.607 7.628 2.607.744.302.745.303-.183.875-.182.876-.967 6.038-.967 6.039-.166.269-.166.27-1.03.17-1.028.17-5.354.962-5.354.962h-.25zm88.319 34.922.199-.518-1.355-9.002-1.354-9.002-.395-.409-.394-.409-4.14.65-4.14.65-8.64 1.27-8.64 1.268-.4-.531-.4-.531.002-.82.002-.818-.68-4.735-.68-4.735.156-.156.156-.157 5.402.803 5.402.803 4.908.726 4.907.726.386-.527.386-.528.874-6.788.875-6.788-.33-.396-.328-.397-10.567-.16-10.567-.16-.134-.135-.134-.133 1.525-5.573 1.525-5.572.362-.12.362-.121 11.295 3.396 11.295 3.396.35.116.348.116.39-.241.39-.241 1.478-8.702 1.477-8.701-.456-.445-.457-.446-14.08-2.443-14.08-2.444-4.48-.776-4.48-.776-4.24-.742-4.24-.741-.34.21-.339.209-.78 2.529-.78 2.529v1.427l1.2.612 1.2.613.612.678.613.677-.68 4.717-.68 4.716-1.63 11.04-1.632 11.04-.516.8-.516.8-3.527 3.38-3.527 3.379 1.676 10.379 1.675 10.379.32.32.32.32 7.266.258 7.265.259 15.36.578 15.36.579 3.61.045 3.61.044zm-135.417-.007.535-.205 6.203-7.046 6.204-7.047.316-.988.315-.989 3.054-18.24L219.842 36l.18-.859.18-.859-.741-.465-.741-.465-6.56-.867-6.56-.867-5.92-.768-5.92-.768h-.846l-.846-.002-.178.464-.178.465.79 17.194.788 17.195-.247.247-.247.247-7.678.487-7.678.488-2.123.195-2.124.196-.166-.27-.166-.269.297-1.6.296-1.599 3.218-19.84 3.218-19.84.168-.984.168-.985-.474-.473-.473-.473-7.48-.71-7.479-.709-5.699-.54-5.698-.54-.542.34-.541.34-.107.725-.107.725 2.107 1.967 2.107 1.967v3.834l-2.266 2.878-2.267 2.878-.305.561-.306.562-.6 9.358-.6 9.359 1.627 1.457 1.627 1.457.13 1.903.13 1.903-2.265 5.106-2.265 5.105v2.073l.72.796.72.796 7.04 6.296L164 87.11l.705.472.705.473 13.535.407 13.535.407 3.574.046 3.574.046zm-82.427-.617 15.175-.202.71-.323.71-.324.39-.844.39-.845 5.571-12.608 5.572-12.607-.176-.554-.176-.555-9.83-6.461-9.831-6.461-7.52-4.958-7.52-4.958-.104-.291-.104-.292 2.664-4.473 2.664-4.473.327-.014.327-.015 10.051 6.88 10.051 6.88h1.115l5.145-6.539 5.144-6.539v-1.287l-10.924-8.337L126.632 9.6h-2.113l-11.62 1.124-11.619 1.124-2.339.204-2.338.205-.81.637-.809.636-7.39 11.075-7.39 11.075-.131.679-.132.678 6.51 3.977 6.509 3.977 11.52 6.995L116 58.98l.581.54.582.54-.776.93-.776.929-2.804 3.84-2.804 3.84-.383-.035-.383-.034-9.266-7.806-9.265-7.805-.512-.406-.513-.405-.501.192-.501.193-5.574 7.43-5.574 7.429-.38.708-.378.707.253.426.254.426 9.92 8.44 9.92 8.439 1.12.58 1.12.581 1.6-.16 1.6-.16z" style="fill:#020302;stroke-width:.32" transform="translate(-16.238 -5.444)"/></svg>