<svg xmlns="http://www.w3.org/2000/svg" xml:space="preserve" viewBox="0 0 1897.3 456.5"><switch><g fill="#919191"><path d="M223.087 24.132h206.366v61.634h-70.44v181.052h-68.788V85.766h-67.688zm225.627 0h67.688v243.236h-68.789zm88.599 89.15h61.084v47.877h-61.084zM614.022 213.782l71.331-8.391q2.815 13.986 9.511 19.743 6.692 5.759 16.379 5.758 17.26 0 26.947-16.288 7.042-12.008 10.568-50.837-12.86 12.34-26.419 18.098-13.564 5.759-31.35 5.758-34.698.001-58.562-23.033-23.866-23.031-23.865-58.241 0-24.019 12.153-43.763c12.153-19.744 19.255-23.116 33.464-29.861q21.31-10.119 53.542-10.118 38.746 0 62.172 12.421 23.423 12.424 37.427 39.485 14.001 27.064 14.001 71.485 0 65.316-29.413 95.67-29.416 30.353-81.546 30.354-30.823 0-48.61-6.663-17.791-6.663-29.589-19.496-11.8-12.831-18.141-32.081m132.094-107.597q0-19.577-10.567-30.684-10.569-11.105-25.714-11.105-14.268.001-23.689 10.036-9.423 10.037-9.422 30.107 0 20.237 9.775 30.93 9.773 10.695 24.394 10.694 15.146 0 25.186-10.365 10.037-10.364 10.037-29.613m90.458 107.597 71.33-8.391q2.815 13.986 9.511 19.743 6.691 5.759 16.379 5.758 17.26 0 26.948-16.288 7.043-12.008 10.567-50.837-12.858 12.34-26.418 18.098-13.564 5.759-31.351 5.758-34.698.001-58.561-23.033-23.867-23.031-23.865-58.241 0-24.019 12.152-43.763 12.152-19.743 33.464-29.861 21.309-10.119 53.542-10.118 38.745 0 62.172 12.421 23.423 12.424 37.427 39.485 14.002 27.064 14.002 71.485-.002 65.316-29.412 95.67-29.416 30.353-81.547 30.354-30.822 0-48.61-6.663-17.792-6.663-29.589-19.496-11.801-12.831-18.141-32.081m132.093-107.597q0-19.577-10.566-30.684-10.57-11.105-25.714-11.105-14.268.001-23.689 10.036-9.424 10.037-9.423 30.107 0 20.237 9.775 30.93 9.774 10.695 24.393 10.694 15.146 0 25.186-10.365 10.038-10.364 10.038-29.613M1132.198 23.581h33.664L1055.8 273.972h-29.811zM1255.066 278.075v-45.079h-130.684v-66.538l135.265-150.195h74.453v148.235h32.408v68.498H1334.1v45.079zm16.512-61.588-.003 45.078h46.017v-45.078l32.406-.002v-35.478h-32.406l-.002-148.235-50.594.002-126.104 140.021v43.692m130.686-35.48H1175.6l95.978-105.5m-58.639 88.992h42.127V118.19zm351.895 113.577-12.916-39.816h-78.534l-12.583 39.816h-99.732l103.687-257.701h98.183l103.664 257.701zm-.917-56.324 12.919 39.813h65.328l-90.38-224.68h-75.874l-90.401 224.68h63.196l12.586-39.813h96.628v8.255l-7.853 2.547 7.853-2.547v-8.255zm-11.148-35.644H1473.3l39.523-121.522m-16.793 105.012h33.937l-17.057-51.89zM368.916 381.396l16.977 1.699q-2.783 13.522-14.243 21.172-11.461 7.648-28.15 7.647-20.91 0-33.617-10.53-12.709-10.53-12.708-30.187 0-12.71 5.467-22.242t16.641-14.3q11.172-4.767 24.313-4.767 16.593 0 27.143 6.467t13.523 18.362l-16.785 1.996q-2.398-7.907-8.488-11.897t-14.722-3.99q-13.046 0-21.196 7.205-8.154 7.205-8.153 22.796 0 15.815 7.865 22.982 7.864 7.168 20.525 7.168 10.164 0 16.976-4.803 6.808-4.801 8.632-14.778m25.321-10.494q0-21.799 15.729-32.292 13.138-8.72 32.035-8.721 21.004.001 34.335 10.604 13.331 10.605 13.332 29.3 0 15.15-5.898 23.832-5.899 8.683-17.168 13.486-11.27 4.803-24.601 4.803-21.39.001-34.577-10.567-13.187-10.565-13.187-30.445m17.743 0q-.001 15.076 8.536 22.575 8.535 7.501 21.484 7.501 12.85 0 21.388-7.538 8.536-7.536 8.536-22.981 0-14.557-8.584-22.059-8.585-7.5-21.34-7.5-12.949 0-21.484 7.464-8.537 7.465-8.536 22.538m97.925 39.24v-78.478h15.442v11.011q4.794-5.764 12.756-9.274 7.96-3.51 18.127-3.511 11.315 0 18.56 3.621 7.24 3.621 10.214 10.124 12.084-13.745 31.458-13.745 15.154 0 23.306 6.467t8.153 19.914v53.871h-17.168v-49.438q-.001-7.98-1.679-11.49-1.68-3.51-6.09-5.653-4.413-2.143-10.358-2.143-10.743 0-17.839 5.505-7.097 5.506-7.097 17.625v45.594h-17.264v-50.989q0-8.867-4.22-13.3-4.221-4.435-13.811-4.435-7.29 0-13.476 2.955-6.187 2.958-8.968 8.646-2.782 5.692-2.782 16.405v40.717h-17.264zm163.624 30.076V331.664h15.73v10.197q5.561-5.985 12.564-8.979 7-2.993 16.976-2.993 13.043.001 23.019 5.173 9.973 5.173 15.058 14.595 5.082 9.422 5.083 20.654 0 12.046-5.61 21.688-5.611 9.644-16.305 14.779-10.694 5.136-22.491 5.136-8.633 0-15.49-2.809-6.858-2.806-11.27-7.094v38.205h-17.264zm15.634-68.872q0 15.15 7.961 22.391 7.959 7.243 19.278 7.242 11.51 0 19.71-7.501 8.2-7.499 8.2-23.24 0-14.999-8.009-22.465-8.009-7.463-19.134-7.463-11.03 0-19.518 7.943-8.487 7.946-8.488 23.093m160.363 38.796v-11.527q-11.894 13.3-32.321 13.301-9.016 0-16.833-2.66-7.818-2.66-11.605-6.688-3.79-4.028-5.323-9.865-1.056-3.916-1.055-12.415v-48.623h17.264v43.524q0 10.42 1.055 14.041 1.63 5.247 6.906 8.238 5.275 2.993 13.044 2.993c7.769 0 10.038-1.021 14.578-3.066q6.81-3.066 9.639-8.351 2.829-5.282 2.83-15.333v-42.047h17.264v78.478zm80.182-11.898 2.494 11.75q-7.29 1.182-13.043 1.183-9.4-.002-14.579-2.291t-7.289-6.023q-2.11-3.73-2.109-15.702V342.01H882.52v-10.345h12.661v-19.436l17.167-7.98v27.416h17.36v10.345h-17.36v45.891q0 5.69.911 7.315.909 1.626 2.974 2.586 2.061.961 5.898.961 2.877 0 7.577-.519m86.607-13.375 17.841 1.699q-4.222 12.046-15.634 18.696-11.414 6.651-29.157 6.65-22.348 0-35.439-10.604-13.091-10.602-13.092-29.742 0-19.804 13.236-30.741 13.235-10.937 34.337-10.938 20.428.001 33.377 10.715 12.948 10.716 12.948 30.15 0 1.183-.097 3.547h-75.962q.959 12.933 9.496 19.805 8.534 6.873 21.292 6.872 9.496 0 16.209-3.843 6.711-3.841 10.645-12.266m-56.683-21.504h56.876q-1.153-9.901-6.523-14.854-8.249-7.685-21.388-7.685-11.894 0-19.997 6.133-8.105 6.137-8.968 16.406m96.007 46.777v-78.478h15.538v11.896q5.947-8.35 10.981-11.01 5.035-2.661 11.078-2.661 8.726 0 17.743 4.287l-5.946 12.34q-6.33-2.882-12.66-2.882-5.66 0-10.167 2.623-4.509 2.625-6.426 7.279-2.877 7.094-2.878 15.519v41.086h-17.263z"/></g></switch></svg>