<svg xmlns="http://www.w3.org/2000/svg" preserveAspectRatio="xMidYMid" version="1.0" viewBox="0 0 400.013 107.002"><g fill="#ee3925"><path d="M8.663 78.352c-2.75-.8-6.25-3.3-7.1-5.15-.35-.8-.85-1.85-1.1-2.3-.65-1.25-.6-21.75.05-22.15.25-.15.5-.75.5-1.3s.95-1.95 2.15-3.1c3.35-3.4 4.7-3.6 21.85-3.6 12.8 0 15 .15 16.6.9 3.4 1.55 5.4 5.25 5.4 9.85 0 3.45-.05 3.5-5.8 3.5-4.65 0-6.2-.5-6.2-2 0-.6-.65-1.4-1.6-2-1.45-.85-2.55-1-8.55-1-7.65 0-11 .6-12.1 2.15-.55.8-.75 2.7-.75 7.7v6.6l1.65 1.25c1.65 1.3 1.85 1.3 10.3 1.3 9.7 0 10.8-.3 11.35-3.3l.3-1.75 5.85.15 5.8.15-.05 3.65c-.1 5.5-2.2 8.7-6.6 10.2-2.6.85-29.05 1.05-31.95.25M57.913 78.302c-6.85-1.95-8.9-6.2-8.9-18.5 0-10.75 1.7-15.55 6.3-17.85 2.45-1.2 2.45-1.2 19.2-1.2 14.45 0 17 .15 18.5.85 2.35 1.1 3.65 2.3 5.05 4.65 1.15 1.95 1.2 2.3 1.2 13.25 0 9.5-.15 11.55-.85 13.05-1.1 2.3-3.85 4.7-6.25 5.5-2.8.95-31.1 1.1-34.25.25m27.4-10.25c1.15-.7 1.7-1.55 2.15-3.2 1.1-4.55.4-11.45-1.4-13-1.4-1.25-5.3-1.85-11.85-1.85-6.3 0-9.7.55-11.25 1.85-1.85 1.55-2.6 9.1-1.35 13.3 1.05 3.5 2.2 3.85 12.9 3.85 8.2 0 9.45-.1 10.8-.95M224.763 78.452c-3.9-.9-5.5-1.6-6.9-2.9-2.75-2.5-2.85-3.35-2.85-19.65v-14.95l5.9.15 5.85.15.15 12.55.1 12.6 1.35 1.3 1.3 1.3h8.95c10.55 0 11.05-.15 11.85-4.05.3-1.4.55-7.35.55-13.2v-10.75h12v13.55c0 14.15-.3 16.85-2.2 19.8-1.1 1.7-3.65 3.15-7.1 4.1-2.5.65-26 .65-28.95 0M102.863 78.202c-.2-.2-.35-8.65-.35-18.8v-18.4l9.05.1 9.05.15 4.2 6.95c2.3 3.8 4.2 7 4.2 7.15 0 .1.7 1.2 1.5 2.4.85 1.2 1.5 2.35 1.5 2.5 0 .2.45 1 1.05 1.8 1.05 1.45 1.95 1.9 1.95.9 0-.3.4-1.15.95-1.85.5-.75 1.4-2.15 1.9-3.1.55-.95 2.2-3.65 3.65-6s3.55-5.75 4.65-7.6l2.05-3.4h17.8v37.55l-5.85-.15-5.9-.15-.15-12.35c-.05-7.7-.3-12.4-.6-12.4s-.5.25-.5.55-.4 1.15-.95 1.85c-.5.75-1.4 2.15-1.9 3.1-.55.95-2.2 3.65-3.65 6s-3.8 6.15-5.15 8.5c-1.4 2.35-2.8 4.4-3.1 4.6-.25.2-2.2.4-4.35.4h-3.8l-4.45-7.35c-2.4-4-4.95-8.25-5.6-9.35-.65-1.15-1.6-2.65-2.1-3.4-.55-.7-.95-1.45-.95-1.65s-.5-1.05-1.1-1.9l-1.15-1.6-.25 12.5-.25 12.5-5.55.15c-3 .05-5.65-.05-5.85-.2M168.863 78.152c-.2-.15-.35-8.6-.35-18.75v-18.4h18.05c12.85 0 18.7.2 20.15.6 2.65.8 5.85 4.05 6.7 6.75.85 3 .75 11.4-.2 14.1-1.15 3.3-1.5 3.85-3.55 5.15-1.85 1.1-2.3 1.15-15.65 1.4l-13.75.25-.15 4.65-.15 4.6h-5.4c-2.95 0-5.55-.15-5.7-.35m32.05-19.45c1-.7 1.15-1.15 1-3.85-.2-4.3-.35-4.4-12.15-4.2l-9.5.1-.15 3.7c-.1 2.05-.05 4 .1 4.4.4 1.05 19.15.95 20.7-.15M280.813 77.702c-.15-.45-.3-6.75-.3-14v-13.2h-6.95c-3.85 0-7.3-.15-7.75-.3-.65-.25-.8-1.15-.8-4.75v-4.45l21.4.1 21.35.15.15 4.4c.05 2.4.05 4.4 0 4.45-.1 0-3.65.2-7.9.35l-7.75.3-.15 13.9-.1 13.85h-5.45c-4.5 0-5.5-.15-5.75-.8M310.363 78.152c-.2-.15-.35-8.6-.35-18.75v-18.4l20.65.1 20.6.15.15 4.2c.1 3.05-.05 4.35-.5 4.6-.35.25-7 .45-14.75.45h-14.15v5h13.2c7.25 0 13.55.15 14 .3.6.25.8 1.05.8 3.65 0 1.95-.25 3.6-.6 3.95-.45.45-4.25.6-14 .6h-13.4v5l14.9.1 14.85.15v9l-20.55.15c-11.3.05-20.65-.05-20.85-.25M354.013 59.752v-18.75h18.45c11.8 0 19 .2 20.1.55 5.95 1.9 7.45 4.2 7.45 11.7 0 5.3-1 7.95-3.6 9.5l-1.5.85 1.45.75c2.65 1.25 3.65 3.85 3.65 9.35v4.85l-5.85-.15-5.9-.15-.15-3.9c-.2-5.5 0-5.4-12.4-5.25l-9.95.15-.25 4.5-.25 4.5-5.6.15-5.65.15zm33.45-1.45c.35-.4.55-1.9.45-3.6-.2-4.1-.45-4.2-12.2-4.2-8.3 0-9.65.1-9.9.8-.4 1.05-.4 6.95.05 7.35.15.2 5 .35 10.65.35 8.35 0 10.5-.15 10.95-.7M266.513 38.002c-1.5-.25-3.35-.55-4.05-.75-1.8-.45-4.9-3.05-5.6-4.7-.5-1.2-.6-1-.85 1.95l-.25 3.25-21.15.15-21.1.1.1-18.85.15-18.9h41l.15 4.9.15 4.85h-29.05v5l13.65.1 13.6.15.15 3.85.15 3.9-13.65.1-13.65.15-.15 2.6-.15 2.6 14.75.15 14.7.15.2-10.5c.15-10.05.2-10.6 1.4-12.65 1.35-2.45 3.7-4.05 7-4.95 2.95-.8 33.1-.9 35.55-.1 4.35 1.35 6.9 3.6 7.85 6.85.9 3 .8 21.5-.15 23.75-1.1 2.65-3 4.6-5.6 5.9-2.3 1.1-2.95 1.1-17.4 1.25-8.25.05-16.25-.05-17.75-.3m23.3-9.6c3.85-.75 4.9-1.5 5.6-3.85.75-2.5.75-8.15 0-10.65-.95-3.25-2.45-3.9-9.5-4.25-3.4-.15-8.1-.15-10.55.1-3.95.3-4.5.5-5.85 1.85-1.5 1.45-1.5 1.5-1.5 7.4 0 5.6.05 6 1.25 7.4.95 1.15 1.9 1.6 4.1 2 4.15.7 12.95.7 16.45 0M110.863 35.402c-1.3-2.5-2.95-5.55-6.45-11.9-.85-1.5-2.15-3.85-2.9-5.25-.75-1.35-1.9-3.5-2.6-4.75s-2-3.6-2.9-5.25-2.15-3.95-2.85-5.15c-.65-1.2-1.05-2.4-.9-2.65.2-.25 2.95-.45 6.2-.45 6.8 0 6.45-.2 9.3 5.25 1.8 3.4 3.25 6 6.95 12.75 1 1.8 2.4 4.45 3.15 5.9.75 1.4 1.5 2.6 1.65 2.6.2 0 .75-.85 1.35-1.85.55-1.05 1.5-2.75 2.05-3.75.6-1.05 1.55-2.7 2.1-3.65s1.4-2.5 1.95-3.35c.5-.9 2.5-4.35 4.4-7.65l3.45-6 12.1-.15 12.1-.1.25 1.1c.15.65.2 9.15.15 18.9l-.15 17.75-6.1.15-6.15.15v-17.55c0-9.6-.2-17.5-.4-17.5s-1 1.2-1.75 2.65c-.75 1.4-2.1 3.95-3.05 5.6-.9 1.65-2.2 4-2.9 5.25s-2 3.6-2.9 5.25-2.2 4-2.9 5.25-1.95 3.5-2.75 5c-.85 1.5-1.9 3.45-2.35 4.25l-.85 1.5-7.45.15-7.5.1zM161.113 19.152l.15-18.9 17.25-.15c19.15-.2 23.8.2 28.1 2.35 1.95 1 3 1.95 4.15 3.75l1.5 2.45v10.8c0 10.05-.1 10.95-1.1 12.8-1.4 2.7-2.5 3.6-5.7 4.75-2.5.95-4.05 1-23.55 1h-20.9Zm34.85 9.05c.85-.2 2.1-.9 2.8-1.6 1.2-1.2 1.25-1.5 1.25-6.95 0-9.45-.55-9.75-16.25-9.55l-10.5.15-.15 8.5c-.05 4.65 0 8.75.1 9.1.2.5 2.65.65 10.7.65 5.75 0 11.15-.15 12.05-.3"/></g><g style="fill:#000"><path d="M124.2 137.85c-1.25-2.55-9-17.45-10.3-19.75-.5-.9-.9-1.75-.9-1.85 0-.15.85-.25 1.95-.25 1.4 0 2 .25 2.2.9.15.45 1.1 2.3 2.15 4.1 1 1.8 2.7 4.9 3.8 6.95 3.35 6.2 4.2 7.65 4.65 7.75.5.05.45.1 8.6-15.2.95-1.8 1.95-3.55 2.25-3.85.75-.95 3.4-.85 3.4.1 0 .9.4.9 2 0 .95-.55 3.45-.7 10.8-.75 9.1 0 9.65.05 11.25 1.15 1.25.85 1.75 1.65 2.1 3.3.55 2.8.2 3.55-1.65 3.55-1.3 0-1.5-.15-1.5-1.4 0-2.85-1.3-3.35-9.2-3.5-8-.2-10.35.25-11.2 2.15-.75 1.65-.8 11.8-.05 13.45.35.7 1.25 1.5 2.1 1.8 2.05.7 14.15.6 16.35-.15 1.55-.55 1.8-.85 2-2.6.2-1.7.45-2 1.55-2.15 1.9-.2 2.35.7 1.8 3.8-.35 2.2-.7 2.85-2 3.65-1.45.85-2.6.95-11.25.95-10.05 0-11.35-.2-13.15-2.3-1.8-2.05-2.35-10.3-1.15-16.05.7-3.45-.7-1.25-5.5 8.4l-4.9 9.95h-2.6c-2.5 0-2.55-.05-3.6-2.15M195.4 137.65l-.15-2.4-9.85-.15-9.9-.1v-1.95c0-1.7.3-2.15 2.25-3.75 1.2-1 2.5-2.1 2.85-2.45.4-.35 1.9-1.6 3.4-2.85s3.2-2.6 3.75-3.1c5.85-4.85 5.9-4.9 8.6-4.9H199v16h1.5c1.35 0 1.5.15 1.5 1.5s-.15 1.5-1.5 1.5c-1.45 0-1.5.05-1.5 2.5v2.5h-1.7c-1.7 0-1.75-.05-1.9-2.35m-.1-6.3c.1-.35.15-3.2.1-6.3l-.15-5.7-3 2.45c-1.65 1.35-3.25 2.65-3.55 2.95-.3.25-2.25 1.85-4.35 3.5s-3.8 3.15-3.8 3.4c-.05.2 3.2.35 7.2.35 5.55 0 7.35-.15 7.55-.65M206.75 139.4c-3.4-1.25-3.9-2.65-3.85-11.45.05-11.7.3-11.95 13.45-11.95 7.95 0 9.05.1 10.5 1 2.85 1.7 3.25 3.2 3.05 11.15-.25 11.4-.8 11.85-13.4 11.8-4.55 0-8.9-.25-9.75-.55m17.45-3.1c1.6-.65 1.75-.95 2.05-3.55.2-1.6.25-4.9.1-7.4C226 119 226 119 216.7 119c-4.2 0-7.65.25-8.4.55-1.55.7-2.3 3.55-2.3 8.75 0 5.3.7 7.45 2.7 8.1 2.5.8 13.55.7 15.5-.1M234.5 139.1c-2.7-1.3-3.25-2.95-3.4-10.1-.2-7.65.45-10.25 2.85-11.85 1.6-1.1 2.2-1.15 10.65-1.15 9.75 0 10.95.25 12.7 2.85.8 1.2.95 2.35.9 8.9 0 11.85-.5 12.25-13.65 12.25-6.75-.05-8.6-.2-10.05-.9m17.55-2.6c1.5-.4 1.9-.85 2.35-2.45.75-2.4.8-10.4.1-12.4-.8-2.25-2.25-2.65-9.8-2.65-8.6 0-9.4.35-9.85 4.1-.45 3.4-.45 7.15-.05 10.1.3 2 .55 2.45 1.9 3.05 1.85.8 12.65 1 15.35.25M263.75 139.4c-3.4-1.25-3.85-2.65-3.85-11.4 0-11.75.3-12 13.45-12 7.95 0 9.05.1 10.5 1 2.85 1.7 3.25 3.2 3.05 11.15-.25 11.4-.8 11.85-13.4 11.8-4.55 0-8.9-.25-9.75-.55m17.45-3.1c1.6-.65 1.75-.95 2.05-3.55.2-1.6.25-4.9.1-7.4C283 119 283 119 273.7 119c-4.2 0-7.65.25-8.4.55-1.55.7-2.3 3.55-2.3 8.75 0 5.3.7 7.45 2.7 8.1 2.5.8 13.55.7 15.5-.1" style="fill:#000" transform="translate(.013 -32.998)"/></g></svg>