<svg xmlns="http://www.w3.org/2000/svg" viewBox="0 0 385.709 119.745"><g aria-label="Quake II" style="font-size:10.5833px;line-height:1.25;fill:#ccc;stroke:#666;stroke-width:.264583"><path d="M92.49 43.944q9.207 5.292 14.498 14.076 5.292 8.678 5.292 19.156 0 15.345-9.948 26.14-7.091 7.62-15.664 9.843-2.01.529-7.408 1.693v-10.9q0-2.223.318-3.916.635-3.387 4.55-4.022.106-.212-.635-.212H64.338q.317 0 .529.212 3.28.53 4.021 4.022.106 2.116.106 3.81v11.006q-2.434-.106-6.985-1.693-8.784-2.117-15.98-10.266-6.986-7.832-8.785-16.933-.846-4.34-.846-8.784 0-12.171 6.879-21.696 5.08-6.985 12.806-11.536-7.303 2.646-13.124 9.525-5.397 6.244-8.043 14.076-2.857 8.255-2.857 16.933 0 20.743 16.086 34.078 9.313 7.726 20.85 8.89v11.113q.528 1.481 5.82 24.976 1.588-11.218 3.493-20.002.952-4.445.952-5.08v-10.9q11.853-1.27 21.378-9.102 9.208-7.62 13.441-19.05 2.54-6.774 2.54-14.923 0-9.313-3.28-18.203-6.35-16.828-20.85-22.33zM126.779 110.725q0 6.35 4.974 11.536 4.551 4.762 12.7 4.974-6.456-.318-9.842-6.985-.847-2.329-.847-5.61V83.738q-.423-3.598 3.916-5.08h-14.394q2.964.847 3.493 4.974zm39.687 0q0 7.09-4.974 11.43-2.328 2.116-4.127 3.069-3.493 1.799-8.467 1.905 6.35-.212 9.63-6.985.953-1.8.953-4.974V83.63q.424-3.598-3.81-4.868h14.605q-3.28.741-3.81 4.868zM213.88 127.235h13.97q-3.281-1.588-5.715-6.88-4.869-10.477-8.044-17.144-.317-.741-1.799-3.81h.106l-8.36-19.791-3.6 9.207q-.952 2.223-3.915 9.102-.74 1.905-5.08 11.43-2.963 6.35-4.868 9.948-3.81 6.773-6.456 7.938h9.525q-2.329-.424-2.646-2.646l.317-2.117q1.376-4.656 3.387-8.149 1.905-2.54 6.88-2.54-3.81-.212-3.81-2.963 0-.741.423-1.8l2.116-5.185q.53-1.482 2.54-5.715 2.117-4.234 3.07-3.704 1.164.635 3.28 5.715 1.164 2.857 3.599 8.572.423 1.164.423 1.8 0 2.01-3.07 2.963l-1.058.317h.741q2.011.106 3.175.318 3.387 1.058 5.398 6.032l2.434 5.82q.317 3.07-2.963 3.282zM247.429 122.578q0 3.916 3.386 4.657H237.48q2.858-.741 3.281-4.657l.106-37.677q0-4.021-3.28-4.762h13.334q-2.54.53-3.386 4.55v13.336q0 3.81 4.974 5.397-5.08 1.059-5.08 6.35zm19.155-21.378q8.573-11.113 17.675-23.178l-27.305 25.506h.105l-.105.106h.211q22.543 8.36 23.813 25.4.211-1.694.211-3.387 0-11.218-6.35-18.415-3.598-4.127-8.255-6.032zM304.79 105.221q-1.587 1.376-1.587 3.705v4.127q0 1.693.952 7.303 2.858 6.561 8.89 6.879-5.927-.212-11.112-4.128-5.61-4.339-5.61-10.054V84.901q-1.058-4.233-3.598-5.08h13.97q-3.492.847-3.492 5.292v13.44q0 2.753 1.481 3.917 0 .635 8.15.952-5.398.212-8.044 1.8zm13.758 22.225q8.255-.635 15.875-15.557v15.451q-1.164-1.587-3.598-1.587-1.482 0-5.503.847-4.022.846-6.774.846zm-2.751-47.625h16.086l.106 15.981q-1.376-12.911-16.192-15.98ZM380.778 66.698q3.598-7.62 5.82-8.255h-23.917q5.82 1.27 5.82 8.467l.106 67.945q-3.598 7.62-5.82 8.255h23.918q-5.927-1.27-5.927-8.467zM411.681 66.698q3.599-7.62 5.821-8.255h-23.918q5.82 1.27 5.82 8.467l.107 67.945q-3.599 7.62-5.821 8.255h23.918q-5.927-1.27-5.927-8.467z" style="font-size:105.833px;font-family:DpQuake;-inkscape-font-specification:&quot;DpQuake, Normal&quot;;fill:#217844;stroke:#50bd66;fill-opacity:1;stroke-opacity:1" transform="translate(-31.926 -43.82)"/></g></svg>