<svg xmlns="http://www.w3.org/2000/svg" style="fill:none" viewBox="0 0 340 78"><g transform="translate(4.243 4.11)"><path d="M0 0v70h70V0H43.028a8 8 0 0 1 .02.4 8.057 8.057 0 0 1-8.057 8.056A8.057 8.057 0 0 1 26.934.4a8 8 0 0 1 .053-.4Z" style="fill:#688535;fill-opacity:1;fill-rule:evenodd;stroke-width:16.01350021;stroke-linecap:square;paint-order:markers stroke fill"/><path d="M67.762 39.274h.132v.062h-.132z" style="fill:#353985;fill-opacity:.65042503;fill-rule:evenodd;stroke-width:9.23472977;stroke-linecap:square;paint-order:markers stroke fill"/><path d="M15.789 33.637v8.21h-8.21v6.51h8.21v8.21H22.3v-8.21h8.21v-6.51H22.3v-8.21z" style="fill:#d3e3b7;fill-opacity:1;fill-rule:evenodd;stroke-width:9.23472977;stroke-linecap:square;paint-order:markers stroke fill"/><circle cx="45.893" cy="51.485" r="5.951" style="fill:#d3e3b7;fill-opacity:1;fill-rule:evenodd;stroke-width:9.23472977;stroke-linecap:square;paint-order:markers stroke fill"/><circle cx="56.567" cy="38.696" r="5.951" style="fill:#d3e3b7;fill-opacity:1;fill-rule:evenodd;stroke-width:9.23472977;stroke-linecap:square;paint-order:markers stroke fill"/></g><g aria-label="WASM-4" style="font-weight:700;font-size:62.63069916px;line-height:1.25;font-family:Cantarell;-inkscape-font-specification:&quot;Cantarell Bold&quot;;text-align:center;letter-spacing:0;word-spacing:0;text-anchor:middle;fill:#fff;fill-opacity:1;stroke-width:2.93580008"><path d="M128.045 68.547h8.58l9.458-32.819 10.209 32.819h8.392l12.652-43.466h-8.142l-8.518 32.756-9.708-32.505h-8.893l-9.395 33.194-8.267-33.445h-9.207zM177.586 68.547h8.58l3.57-10.898h16.66l3.507 10.898h8.957L203.828 25.08h-10.396zm14.468-18.1 6.012-18.414 6.013 18.413zM235.832 69.173c10.585 0 16.973-5.26 16.973-13.403 0-15.72-22.86-10.271-22.86-19.04 0-3.32 3.006-5.198 8.455-5.198 3.57 0 7.516.689 10.648 1.879l2.317-6.388c-3.695-1.629-8.205-2.568-12.526-2.568-10.334 0-17.286 5.323-17.286 13.528 0 14.843 22.797 9.958 22.797 18.79 0 3.193-2.818 5.135-8.142 5.135-3.945 0-8.768-.877-13.09-2.693l-2.317 6.513c4.635 2.13 10.021 3.445 15.031 3.445M259.82 68.547h7.829V39.36l11.461 22.484h6.2l11.65-23.298v30h7.829V25.08h-7.829l-14.342 28.184-14.844-28.184h-7.954ZM313.494 55.707h18.477v-6.513h-18.477zM357.65 68.985h7.828v-9.457h7.703v-6.702h-7.703V25.081h-7.641l-20.981 30.25v4.197h20.793zm-12.214-16.221 12.213-18.351v18.35z" style="fill:#fff;fill-opacity:1" transform="matrix(.87083 0 0 .95418 -4.708 -5.381)"/></g></svg>