<?xml version="1.0" encoding="utf-8"?>
<!-- Generator: Adobe Illustrator 18.0.0, SVG Export Plug-In . SVG Version: 6.00 Build 0)  -->
<!DOCTYPE svg PUBLIC "-//W3C//DTD SVG 1.1//EN" "http://www.w3.org/Graphics/SVG/1.1/DTD/svg11.dtd">
<svg version="1.1" id="Layer_1" xmlns="http://www.w3.org/2000/svg" xmlns:xlink="http://www.w3.org/1999/xlink" x="0px" y="0px"
	 width="1280px" height="742.9px" viewBox="0 351 1280 742.9" enable-background="new 0 351 1280 742.9" xml:space="preserve">
<path d="M0,597.1h1280v496.9H0V597.1z"/>
<path fill="#FDFDFD" d="M376.3,665.2h26.9l0.6,0.6l0.6,155l2.5-1.3l1.3-2.5L560,665.2h27.5v227.5l-3.1,0.6h-36.3l-0.6-15v-30
	l0.6-115l-5,4.4l-30,30l-4.4,5L396.3,885.2l-4.4,3.8l-2.5,3.1l-3.1,1.3H360V733.9l-5,3.8l-18.1,18.1l-4.4,5L201.3,892.1l-2.5,1.3
	h-50l1.3-2.5l5-4.4l173.1-173.1l4.4-5l4.4-3.8l4.4-5l33.8-33.8L376.3,665.2z"/>
<path fill="#FF1F08" d="M141.3,913.9h990.6l0.6,0.6l1.3,26.3l-7.5,0.6H140v-26.9L141.3,913.9z"/>
<path fill="#FDFDFD" d="M653.1,665.2h150l0.6,0.6v42.5l-0.6,0.6L670,709.6l-5,1.3l-6.3,3.8l-3.8,5l-2.5,8.1v11.9l2.5,6.9l2.5,3.8
	l3.8,3.1l7.5,3.1l8.1,0.6H755l13.1,1.3l7.5,3.1l6.9,5l6.9,6.9l6.3,9.4l4.4,10l3.1,11.9l0.6,6.9v27.5l-1.9,13.1l-3.1,9.4l-5.6,10.6
	l-6.9,8.8l-5.6,5l-6.3,3.8l-6.9,2.5l-10,1.3h-145l-0.6-1.3v-41.9l95-0.6l39.4-0.6l6.9-2.5l5.6-4.4l3.8-7.5l0.6-2.5v-13.8l-3.1-8.1
	l-3.1-3.8l-5.6-3.1l-3.8-1.3l-10-0.6l-86.3-0.6l-6.9-1.9l-6.3-3.1l-6.3-5l-4.4-4.4l-6.3-8.8l-5-10.6l-3.1-10.6l-1.3-8.1v-30
	l1.9-11.3l3.1-9.4l5-10l5.6-7.5l7.5-7.5l6.9-4.4l6.9-2.5L653.1,665.2z"/>
<path fill="#FDFDFD" d="M823.8,665.2h41.9l1.9,0.6l0.6,158.1l1.3,8.8l3.1,7.5l3.8,5l5.6,4.4l6.3,2.5l2.5,0.6l8.1,0.6h48.8l10-0.6
	l6.9-2.5l6.9-4.4l3.8-5l3.1-7.5l1.3-7.5l0.6-160.6h43.1l0.6,0.6v174.4l-1.3,12.5l-2.5,10l-4.4,10l-5,6.9l-6.9,6.3l-7.5,3.8l-9.4,2.5
	l-12.5,1.3H870.6l-11.9-1.3l-7.5-2.5l-8.1-4.4l-8.1-8.1l-5-8.8l-3.1-8.1l-1.9-8.8l-1.3-10.6V665.2z"/>
<path fill="#FDFDFD" d="M1108.1,665.2h23.1l0.6,0.6v226.9l-0.6,0.6h-38.8l-0.6-3.8l-0.6-136.3H1045l-1.3-1.3v-21.9l3.8-5l7.5-6.9
	l2.5-3.1l3.1-3.1l1.9-0.6l1.3-2.5l15.6-15.6h1.3l1.3-2.5l1.9-0.6l1.3-2.5l1.9-0.6l1.3-2.5l18.8-18.8L1108.1,665.2z"/>
<path fill="#FDFDFD" d="M883.8,960.8l28.8,0.6l1.9,5l6.3,24.4l1.3,5.6h1.3l1.3-6.9l5-20l2.5-8.1l0.6-0.6l28.8,0.6l0.6,3.1l-0.6,71.9
	h-20.6l-0.6-0.6l-0.6-41.9l-3.8,13.1l-5.6,21.3l-1.9,6.9l-1.3,1.3h-9.4l-1.9-4.4l-10-36.3l-0.6-2.5h-1.3l0.6,4.4v38.8h-21.3v-75
	L883.8,960.8z"/>
<path fill="#FDFDFD" d="M192.5,960.8l28.8,0.6v75h-20.6l-0.6-0.6v-42.5h-1.3l-1.3,6.9l-7.5,28.1l-1.9,6.9l-1.3,1.3h-9.4l-1.9-3.8
	l-7.5-27.5l-3.1-10.6v-1.3h-1.3l0.6,3.1v40h-21.3v-75h30l7.5,29.4l1.9,5l2.5-9.4l6.3-23.8L192.5,960.8z"/>
<path fill="#FDFDFD" d="M280,961.4h35.6l5.6,1.3l5.6,3.1l4.4,4.4l3.1,6.3l0.6,3.1v36.9l-1.9,7.5l-3.8,5.6l-3.8,3.1l-5.6,2.5
	l-11.3,1.3H280l-0.6-11.3v-54.4L280,961.4z"/>
<path fill="#FDFDFD" d="M707.5,960.8l24.4,0.6l7.5,21.9l3.8,10l1.3,2.5v-34.4l2.5-0.6l18.8,0.6l0.6,1.3v73.1l-0.6,0.6h-21.9
	l-3.1-6.3l-10.6-29.4l-1.9-1.9l0.6,1.3v36.3h-20.6l-0.6-0.6l-0.6-5.6v-63.8L707.5,960.8z"/>
<path fill="#FDFDFD" d="M1019.4,961.4h24.4l8.8,25.6l3.1,8.1v1.3h1.3l-0.6-2.5v-32.5h21.3l0.6,6.3v68.1l-0.6,0.6h-21.9l-2.5-5
	l-10.6-29.4l-1.3-2.5l-0.6,36.9h-21.3V961.4z"/>
<path fill="#FDFDFD" d="M511.3,961.4h24.4l2.5,6.3l8.8,25.6l1.3,2.5v-33.1l0.6-1.3H570v75h-22.5l-2.5-5.6l-9.4-26.3l-1.9-4.4
	l-1.3-0.6v36.9h-21.3V961.4z"/>
<path fill="#FDFDFD" d="M576.9,961.4h23.8v28.8h10l0.6-28.8H635v45.6l-0.6,29.4h-23.1l-0.6-29.4l-10-0.6v30h-23.8V961.4z"/>
<path fill="#FDFDFD" d="M655,960.8h14.4l19.4,0.6l1.9,7.5l6.9,37.5l5.6,29.4l-0.6,0.6h-23.1l-0.6-1.3l-1.3-11.9l-11.3-0.6H665
	l-0.6,13.1l-0.6,0.6h-23.1l0.6-6.9l6.3-33.8l6.3-33.1L655,960.8z"/>
<path fill="#FDFDFD" d="M385.6,961.4H420l3.1,15.6l6.3,33.8l4.4,23.1v2.5h-23.1l-1.3-3.8l-0.6-10h-11.9l-1.9,13.1l-0.6,0.6h-22.5
	l-0.6-1.9l10-53.8l3.8-18.8L385.6,961.4z"/>
<path fill="#FDFDFD" d="M791.9,960.8h16.9l6.3,1.9l5.6,3.8l3.8,4.4l1.9,3.8l1.3,10v5H805l-1.3-10.6l-0.6-1.3h-5l-1.3,1.9l-0.6,3.1
	v31.9l1.3,5.6h5.6l1.3-5.6l0.6-6.3h22.5l-0.6,11.3l-1.9,6.3l-4.4,6.3l-6.3,3.8l-9.4,1.9h-10.6l-6.3-1.3l-7.5-3.8l-3.8-3.1l-3.1-5
	l-1.9-7.5l-0.6-8.8v-20l0.6-8.8l2.5-6.9l3.8-5l5.6-4.4L791.9,960.8z"/>
<path fill="#FDFDFD" d="M460.6,961.4h45.6v14.4l-0.6,1.9h-21.3v12.5h18.8v16.3h-18.8l0.6,13.1l20.6,0.6l0.6,0.6v15.6h-45l-0.6-0.6
	V961.4z"/>
<path fill="#FDFDFD" d="M832.5,961.4h45l0.6,0.6v7.5l-0.6,8.1h-21.3v12.5H875v16.3l-18.1,0.6v12.5l20.6,0.6l0.6,0.6v15l-0.6,0.6
	h-44.4l-0.6-11.9V961.4z"/>
<path fill="#FDFDFD" d="M228.8,961.4h45v16.3h-21.3v12.5h18.1l0.6,0.6v15l-0.6,0.6h-18.1v13.8h21.3v16.3h-44.4l-0.6-0.6V961.4z"/>
<path fill="#FDFDFD" d="M968.8,961.4h45v16.3h-21.3v12.5h18.8v13.8l-0.6,2.5h-18.1v13.8h21.3v16.3h-45V961.4z"/>
<path fill="#FDFDFD" d="M1082.5,961.4h50l-0.6,15.6l-0.6,0.6H1120l-0.6,58.1l-0.6,0.6h-23.1l-0.6-58.8h-12.5V961.4z"/>
<path fill="#FDFDFD" d="M341.9,961.4h23.8v43.1l-0.6,31.9h-23.1l-0.6-44.4v-18.1L341.9,961.4z"/>
<path d="M303.1,977.7h6.3l2.5,1.9l0.6,2.5v33.1l-1.3,3.8l-1.9,1.3h-6.9v-36.9L303.1,977.7z"/>
<path d="M401.3,978.9h1.3l1.9,10l1.9,13.1v3.8l-6.3,0.6l-1.9-0.6l2.5-23.8L401.3,978.9z"/>
<path d="M670.6,978.9h1.3l1.3,5.6l1.9,15.6v5.6h-7.5l0.6-8.8L670.6,978.9z"/>
<path fill="#E60012" d="M65.1,351c-12,0-23.7,9.9-25.8,22.3v0.7l-0.2,0.2v0.7l-0.2,0.4v0.4l-0.2,0.4v0.7l-0.2,0.4v0.7l-0.2,0.7
	l-0.2,0.7l-0.2,1.3l-0.4,1.5l-0.2,1.5l-0.4,1.5l-0.2,1.8l-0.4,1.8l-0.4,2l-0.4,1.8l-0.7,3.7l-0.4,2l-0.4,1.8l-0.2,1.8l-0.4,1.8
	l-0.4,1.8l-0.2,1.8l-0.2,1.5l-0.4,1.3l-0.2,1.5v0.7l-0.2,0.4v1.1l-0.2,0.7v0.9l-0.2,0.4v0.4c-0.2,5.4,0.5,12.7,2.2,14.1
	c2.1,11.9,41.4,66.8,40.2,75.2c-1.1,8.4-5.7,33.1-5.7,33.1c-1.4,8.3-7.1,15-15.3,15s-13.9-6.6-12.5-15l7.4-41H17.8L8,554.2
	c-2,11.6,5.8,20.7,17.3,20.7h41.8c11.6,0,22.6-9.2,24.7-20.7c0,0,10.8-53.1,10.7-56.9c0-3.8-1.1-4.2-1.1-4.2
	c0-4.3-34.9-62.4-38.5-64.6c-1.5-0.9-2.8-6.7-2.8-10.1c-0.1-3.5,4.6-26.7,4.6-26.7c1.4-8.3,9.2-15,17.5-15s11.7,6.7,10.3,15
	l-6.3,36.8h29.5l10.3-55.3c2.3-12.3-5.5-22.3-17.5-22.3L65.1,351z M145.6,351l-35,203.2c-2,11.6,5.8,20.7,17.3,20.7h41.8
	c11.6,0,22.8-9.2,24.9-20.7L232,351h-26.3l-35.7,197.5c-0.5,2.9-3.3,5.3-6.1,5.3h-20.8c-2.9,0-4.8-2.4-4.4-5.3L173.6,351H145.6z
	 M246.2,351L204,574.9h28l19.3-101.4h35.7c11.6,0,22.6-9.2,24.7-20.7l15.3-79.6c2.3-12.3-5.5-22.3-17.5-22.3H246.2z M346.2,351
	l-43.8,223.9h63l4.4-27.8h-31.1l12.7-75.6h31.1l4.4-23.4h-31.1l13.8-69.4h31.1L405,351L346.2,351z M421.4,351l-42,223.9h28l19-101.4
	h19.9c2.6,2.5,2.9,7,3.3,9.3c0.5,3.3,1.1,7.5,0.7,10.8c-0.4,3.3-15.3,81.3-15.3,81.3h28c0,0,15.7-85,15.7-86.4c0-1.4,0-5.7-1.5-8.2
	c-1-1.5-2.8-5.1-4.8-6.4c-3.9-2.5-8.3-4.2-8.3-4.2h-2c8-3.2,23.1-8.4,24.7-17l15.3-79.6c2.3-12.3-5.5-22.3-17.5-22.3H421.4z
	 M571.3,351l-42.2,223.9h32.2l26-129.8l10.3,129.8h28L667.8,351h-32.2l-21.9,117l-14.4-117H571.3z M682.4,351l-42.2,223.9h28
	L710.4,351H682.4z M725.1,351l-42.2,223.9h32.4l26-129.8l10.3,129.8h28L821.7,351h-32.4l-21.7,117l-14.4-117H725.1z M833.6,351
	l-5.3,27.8h17.5l-34.6,196.2h31.9l35.2-196.2h16.8l4.4-27.8H833.6z M910.6,351l-43.8,223.9h63l4.4-27.8h-31.1l12.9-75.6h31.1
	l4.4-23.4h-31.1l13.6-69.4H965l4.4-27.8L910.6,351z M981.7,351l-42.2,223.9h32.4l26-129.8l10.3,129.8h28l42.2-223.9H1046l-21.7,117
	l-14.4-117H981.7z M1093,351l-42.2,223.9h63.9c11.6,0,22.8-9.2,24.9-20.7l33.9-181c2.3-12.3-5.5-22.3-17.5-22.3L1093,351z
	 M1213.1,351c-12,0-23.5,9.9-25.6,22.3l-31.3,181c-2,11.6,5.6,20.7,17.1,20.7h46.2c11.6,0,22.8-9.2,24.9-20.7l33.9-181
	c2.3-12.3-5.5-22.3-17.5-22.3H1213.1z M1116.8,376.8h12.9c8.3,0,13.9,6.7,12.5,15l-27.6,146.6c-1.4,8.3-9.5,15.2-17.7,15.2h-12.7
	L1116.8,376.8z M1229.5,376.8h0.9c8.3,0,13.7,6.7,12.2,15l-26.3,146.6c-1.4,8.3-9,15.2-17.3,15.2c-8.3,0-11.7-6.9-10.3-15.2
	l26-146.6l0.2-0.7l0.2-0.7l0.2-0.9l0.2-0.7l0.2-0.9l0.2-0.7l0.2-0.7l0.4-0.7l0.2-0.7l0.4-0.7l0.2-0.7l0.4-0.7l0.4-0.4l0.4-0.7
	l0.4-0.7l0.7-0.4l0.4-0.4l0.4-0.4l0.7-0.4l0.7-0.4l0.4-0.4l0.7-0.4l0.7-0.2l0.7-0.4l0.4-0.2l0.9-0.2l0.7-0.2h0.7l0.7-0.2h0.9
	L1229.5,376.8z M273.1,377.7h13.6c3,0,9.3,6.9,8.8,9.9l-11.6,55.3c-0.5,2.9-4.4,9.5-7.2,9.5h-16.8l-0.2-0.2h-0.9v-0.2h-0.4l-0.2-0.2
	h-0.2l-0.2-0.2l-0.2-0.2h-0.2v-0.2l-0.2-0.2l-0.2-0.2v-0.2l-0.2-0.2l-0.2-0.2v-0.4l-0.2-0.2v-0.4l-0.2-0.2v-0.2c0-0.4,0-0.9,0-1.3
	l13.1-67.7C270.2,378.4,271.6,377.7,273.1,377.7 M447.5,377.7H461c3,0,9.3,6.9,8.8,9.9l-11.6,55.1c-0.5,2.9-7.6,9.7-10.5,9.7h-12
	c-2.5,0-4.2-1.6-4.4-4c0-0.4,0-0.9,0-1.3l12.9-67.7l0.2-0.2l0.2-0.2l0.4-0.2h0.2l0.2-0.2l0.2-0.2h0.2l0.2-0.2h0.2l0.4-0.2h0.7
	L447.5,377.7L447.5,377.7z"/>
</svg>
