<svg xmlns="http://www.w3.org/2000/svg" viewBox="0 0 219.7 109.3"><g fill="#231f20" fill-rule="evenodd" style="fill:#fff"><path d="M-1660 436.7c-.848-6.485 3.973.502 3.007-8.137.605-3.346 1.182-13.86 6.07-13.97 4.489 1.133 2.436 10.37 2.656 10.42-.628 1.96.92 2.669 2.532 2.207.731-.593 4.631-2.435 4.561-2.095 1.507.326 1.934 1.593 2.847 1.791l1.91-1.734c1.887-6.729 5.963-3.642 5.894-1.546l-.206 4.327c.163-.34 2.832-3.91 3.748-7.487.51-1.995 2.254-2.669 2.26-2.696q1.295-.69 2.999-.063c1.287 1.299-.412 5.866 1.262 5.645l1.053.052c.049-.238 1.732-1.186 2.089-1.427.079-.385.157-.913.626-.812 1.915-9.295 2.89-21.48 3.824-33.07l1.026-5.926c1.21-2.597 4.313-2.584 3.62.14l-2.693 24.43c-.258 2.348.91 4.094-.135 7.109q.165 1.25 1.3.255c1.86-1.928 8.23-7.893 10.04-2.465l.98.372c.14-1.854.954-7.395 3.821-4.01 1.016 1.2 1.77 3.93 3.636 5.194 3.775 2.556 9.372-3.189 10.14-2.17 2.015.256 2.55 1.665.926 4.754-2.246 2.292-10.15 4.93-12.54 2.406-.314-.331-1.501-1.175-1.407-1.629-1.227-.543-1.967-.74-2.18-.657-.183 3.293-6.488 4.274-6.971.47l-1.397.003c-.424.285-1.096.948-1.225 1.571.324.579.436.607.314 1.823.63.137-.184 4.566-.58 5.08-1.268 2.681-4.694 1.566-4.468.465-.057-.833-1.526-1.736-1.784.354-2.468 15.2-1.663 23.32-2.86 40.72-.148 2.161-3.11 1.166-3.225-1.043-.56-10.63 1.574-27.73 2.082-35.35-.516-1.802-1.035-1.06-1.781-.599-2.134 1.32-4.736.54-5.972-1.218-13.23 10.16-.253 19.31-5.55 38.52l-.22-.048c-3.192 6.487-10.57 5.945-12.11-1.433-1.466-10.82 3.879-21.23 4.2-22.79.159-.395 4.905-8.42 3.443-8.737l-.209-1.905c-2.649.08-4.072.803-7.77-.148-3.202 2.153-5.456 1.471-6.447 6.282-.4 16.64-2.49 16.32-4.635 13.72-1.654-2.01.148-8.09.962-12.61-.2-2.173-1.59 1.522-2.643 3.221-.666 1.42-2.648 7.123-10.7 3.371q-1.544-.267-.633-3.45c5.991.505 9.27-2.226 6.503-5.468zm7.717-15.91c-1.104 2.204-.968 4.851-1.174 7.505.8 2.515-.919 2.108 1.887 1.653.607-3.174.69-6.286.537-9.368l-1.25.209zm18.5 22.63c-.327 1.588-3.183 5.148-4.338 16.97.296 8.405 4.59 4.994 5.419-.304.755-4.824.06-13.9-1.081-16.66" style="fill:#fff" transform="translate(1677.981 -367.558)"/><path d="M-1605 392c11.53-9.041 23.45-15.87 36.08-18.75 2.587.285 3.122 1.886 1.575 4.95-11.39 2.629-24.06 9.635-37.43 18.98q-2.627.235-.23-5.181M-1556 402.9c-2.959-4.129-6.369-6.559-10.09-7.825q-2.316-.294-.99-1.934c4.064-3.829 6.342-5.125 12.03-7.177 2.099-.897-.4-5.557-3.26-4.392-8.207 3.797-14.78 6.44-15.44 14.14q-.018 2.908 4.457 4.115c19.45 4.472 11.27 40.91 7.878 44.39-8.034 8.748-3.53-16.62-1.357-17.97 1.676-1.614-1.017-6.469-2.821-3.699-11.83 22.24-1.024 38.16 9.262 22.2 5.263-11.41 5.197-31.21 1.729-38.73-.035-1.216.048-2.071 1.728-1.7 3.376 4.186 5.807 4.5 7.638.198.308-.84 1.643-.923 2.445-.337 2.944 2.194 5.125 1.13 6.785-2.16.268-.672.577-.554 1.25-.198 3.868.908 5.593-1.5 5.838-6.579-.077-1.37-1.462-2.37-2.712-.99-1.418 1.748-2.451 1.08-3.667-1.174-1.076-2.038-3.893-.655-3.926 3.66-.01.954-1.452 1.195-1.358-.15 1.38-4.227-3.924-5.041-4.491.676.077 1.894-4.064 7.144-1.61-.425.497-4.672-4.873-3.76-6.686 2.182-.017.294-1.84 5.244-2.64 3.887" style="fill:#fff" transform="translate(1677.981 -367.558)"/><path d="M-1534 387.4c1.202-2.361 5.094-3.665 7.374-2.32 2.094.763 0 6.633 3.933 1.555.471-.608.58-2.816 4.717 2.511 1.472 1.169 3.943-1.081 3.679-2.315-.095-4.184.943-7.206 2.006-8.391 2.8-2.231 4.842-1.655 7.385.497.869.807 1.329.984 2.657 5.302 2.794 4.794 21.4-3.409 28.36-7.711 5.439-2.882 4.098 3.647 2.057 4.169-12.04 6.187-19.8 10.79-33.7 9.632-1.846-.928-5.593.036-7.301 1.579-2.144 2.917-3.47 3.93-7.782 1.717-.893-.741-1.358-.236-1.686.324-1.865 3.164-5.084 4.25-5.499.422-.188-1.735-.897-5.704-3.137-4.303-1.761.615-4.271-1.261-3.06-2.667zm26.37-5.713c.451.232.402 1.274-.109 2.32-.51 1.045-1.293 1.708-1.743 1.475-.45-.23-.401-1.274.108-2.319.511-1.045 1.295-1.708 1.744-1.476" style="fill:#fff" transform="translate(1677.981 -367.558)"/></g></svg>