<svg xmlns="http://www.w3.org/2000/svg" xmlns:xlink="http://www.w3.org/1999/xlink" xml:space="preserve" class="injectable" data-inject-url="https://cdn.shopify.com/s/files/1/0014/1962/t/53/assets/logo-battletoads.svg?v=2518737685945920967" viewBox="0 0 494.1 187.6"><defs><linearGradient id="c"><stop offset="0" style="stop-color:green;stop-opacity:1"/><stop offset="1" style="stop-color:#002b00;stop-opacity:1"/></linearGradient><linearGradient id="a"><stop offset="0" style="stop-color:green;stop-opacity:1"/><stop offset="1" style="stop-color:#002b00;stop-opacity:1"/></linearGradient><linearGradient id="b"><stop offset="0" style="stop-color:#e3f02e;stop-opacity:1"/><stop offset="1" style="stop-color:#fbfcb3;stop-opacity:1"/></linearGradient><linearGradient xlink:href="#a" id="f" x1="258.322" x2="264.6" y1="172.085" y2="29.1" gradientUnits="userSpaceOnUse"/><linearGradient xlink:href="#b" id="h" x1="103.8" x2="195.6" y1="80.8" y2="80.8" gradientUnits="userSpaceOnUse"/><linearGradient xlink:href="#b" id="i" x1="146.8" x2="204.4" y1="52.65" y2="52.65" gradientUnits="userSpaceOnUse"/><linearGradient xlink:href="#b" id="j" x1="185.7" x2="220.4" y1="48.4" y2="48.4" gradientUnits="userSpaceOnUse"/><linearGradient xlink:href="#b" id="k" x1="213.4" x2="235.6" y1="46.05" y2="46.05" gradientUnits="userSpaceOnUse"/><linearGradient xlink:href="#b" id="l" x1="228.9" x2="254.1" y1="44.75" y2="44.75" gradientUnits="userSpaceOnUse"/><linearGradient xlink:href="#b" id="m" x1="254.9" x2="279.5" y1="45.95" y2="45.95" gradientUnits="userSpaceOnUse"/><linearGradient xlink:href="#b" id="q" x1="267.167" x2="300.9" y1="48.207" y2="48.207" gradientUnits="userSpaceOnUse"/><linearGradient xlink:href="#b" id="n" x1="278.3" x2="335.3" y1="60.55" y2="60.55" gradientUnits="userSpaceOnUse"/><linearGradient xlink:href="#b" id="o" x1="305.2" x2="374.856" y1="72.1" y2="72.1" gradientUnits="userSpaceOnUse"/><linearGradient xlink:href="#b" id="p" x1="337.477" x2="451.15" y1="113.276" y2="113.276" gradientUnits="userSpaceOnUse"/><linearGradient xlink:href="#b" id="s" x1="412.4" x2="424.7" y1="32.25" y2="32.25" gradientUnits="userSpaceOnUse"/><linearGradient xlink:href="#b" id="r" x1="407.7" x2="415.9" y1="28.35" y2="28.35" gradientUnits="userSpaceOnUse"/><linearGradient xlink:href="#c" id="e" x1="-149.871" x2="-149.871" y1="466.751" y2="165.738" gradientTransform="translate(405.03 -173.718)" gradientUnits="userSpaceOnUse"/><linearGradient xlink:href="#b" id="g" x1="28.187" x2="152.54" y1="118.002" y2="118.002" gradientUnits="userSpaceOnUse"/><linearGradient xlink:href="#a" id="d" x1="255.159" x2="282.556" y1="293.033" y2="-74.426" gradientUnits="userSpaceOnUse"/></defs><path d="M429.8 40.8s7.8-8.2.8-18.7-27.7-9-31.6 5.8c0 0-12.9-14-41.7-4.7 0 0-11.9-22.3-45.4-10.2 0 0-9.9-11-25.5-5.2 0 0-9.4-8.8-25.7.2 0 0-13.6-13.5-28.1-.3 0 0-11.4-10.7-25.4-.2 0 0-15.1-6.5-25.6 6 0 0-26.2-14.4-45.7 9.7 0 0-35.1-14.4-54.2 17.9 0 0-40.1-6.6-63.5 24.9s-8.2 62.8 4.3 79.5c12.5 16.8 53.8 46 109.1 39.4 55.4-6.6 53.4-49.5 50.7-55 0 0 30.8-3.1 26.9-28.8 0 0 8.6 1.2 12.1-8.2 0 0 8.7.7 11.7-6.2 0 0 5.1 3.5 10.1-.8 0 0 3.5 3.1 7.8-.4 0 0 3.1 4.7 10.5 1.6 0 0 1.2 6.2 10.9 5.5 0 0 2.7 9.7 12.5 8.6 0 0-3.1 24.4 28.1 29.2 0 0-8.6 30.1 22.2 47.2s91.2 5.8 117.3-14.4c26.1-20.3 36.3-43.7 36.3-66.3s-28.1-52.2-58.9-56.1z" class="st0" style="fill:url(#d);fill-opacity:1;stroke:url(#e);stroke-opacity:1"/><path d="M429.8 40.8s7.8-8.2.8-18.7-27.7-9-31.6 5.8c0 0-12.9-14-41.7-4.7 0 0-11.9-22.3-45.4-10.2 0 0-9.9-11-25.5-5.2 0 0-9.4-8.8-25.7.2 0 0-13.6-13.5-28.1-.3 0 0-11.4-10.7-25.4-.2 0 0-15.1-6.5-25.6 6 0 0-26.2-14.4-45.7 9.7 0 0-35.1-14.4-54.2 17.9 0 0-40.1-6.6-63.5 24.9s-8.2 62.8 4.3 79.5c12.5 16.8 53.8 46 109.1 39.4 55.4-6.6 53.4-49.5 50.7-55 0 0 30.8-3.1 26.9-28.8 0 0 8.6 1.2 12.1-8.2 0 0 8.7.7 11.7-6.2 0 0 5.1 3.5 10.1-.8 0 0 3.5 3.1 7.8-.4 0 0 3.1 4.7 10.5 1.6 0 0 1.2 6.2 10.9 5.5 0 0 2.7 9.7 12.5 8.6 0 0-3.1 24.4 28.1 29.2 0 0-8.6 30.1 22.2 47.2s91.2 5.8 117.3-14.4c26.1-20.3 36.3-43.7 36.3-66.3s-28.1-52.2-58.9-56.1zm-13.9-19.7c6.5 0 11.7 4.7 11.7 10.6s-5.2 10.6-11.7 10.6-11.7-4.7-11.7-10.6 5.3-10.6 11.7-10.6zm25.2 138.2c-30.8 21.8-93.9 24.2-111.5 5.1-17.5-19.1-9.7-37.4-9.7-37.4-34.3-3.1-27.7-30-27.7-30-13.6.8-16.4-9.4-16.4-9.4-9.4.4-12.9-7-12.9-7-5.8 3.1-11.7-1.2-11.7-1.2-4.3 2.3-8.6 0-8.6 0-4.7 4.3-12.1 1.2-12.1 1.2-2.3 7.4-12.5 7-12.5 7-3.9 9.7-16.4 9-16.4 9 5.1 29.6-26.9 30-26.9 30 4.3 21.8-5.1 49.9-56.9 51.1S32 150.8 20 125.5c-12.1-25.3-3.5-49.1 16-64.7s49.9-14 49.9-14C101.2 15.9 137 28.4 137 28.4c19.5-23.8 46.4-9.7 46.4-9.7 8.6-13.6 24.6-7 24.6-7 13.6-8.6 24.6.8 24.6.8 17.2-12.9 28.5.4 28.5.4 14-9.7 24.9-.4 24.9-.4 16.4-7.8 24.2 6.2 24.2 6.2 32-12.5 46.6 9.9 46.6 9.9s12.3-5.7 29.8-.2 20.7 18.7 20.7 18.7c56.5-1.2 70.9 33.9 71.7 51.8.7 17.9-7.1 38.6-37.9 60.4Z" class="st0" style="stroke:green;stroke-opacity:1;fill-opacity:1;fill:#deee28"/><g style="fill-opacity:1;fill:url(#f)"><path d="M152 123.6c-.6-10.2-2.3-16.1-13.4-22.8s-24.6-10.2-40.3-.6c0 0 4.1-13.4-10.2-21.9s-27.2-.6-34.2 5.3c-7 5.8-25.1 27.5-25.1 27.5l12.3 20.2 5.8-11.4 66.1 34.8-.9 6.7 27.8-1.2s0-7.3 3.2-13.4c3.1-6.3 9.5-13 8.9-23.2zM77.8 113l-19.6-9s6.3-16.2 16.7-11.1c11.9 5.8 2.9 20.1 2.9 20.1zm46.5 22.8L98 122.7s8.2-18.7 23.7-9.1c12.9 8.1 2.6 22.2 2.6 22.2z" class="st0" style="fill:url(#g);fill-opacity:1;stroke:green"/><path d="m180.4 92.9 15.2-5L127.2 40l-23.4 10.2 3.5 17 5.8-4.4 51.5 58.8 3.5-13.4-15.2-21 8.5-7.3zm-35.1-13.5-17.2-22.2 24.3 16.1z" class="st0" style="fill:url(#h);fill-opacity:1;stroke:green"/><path d="m147.7 33.2-.9 14.6 16.9-5.2L184.5 73l19.9 6.4L174.3 40l8.7-2.4-7.6-11.7z" class="st0" style="fill:url(#i);fill-opacity:1;stroke:green"/><path d="m189.2 22.7-3.5 14 12.8-1.7 7.6 30.7 14.3 10.2-14.9-42.7 6.5-.6-4.7-11.7z" class="st0" style="fill:url(#j);fill-opacity:1;stroke:green"/><path d="m213.4 21.2 11.4 50h10.8l-1.1-9.9h-6.2l-6.7-40.4z" class="st0" style="fill:url(#k);fill-opacity:1;stroke:green"/><path d="m233.6 19.5-4.7 9.3h3.8l6.5 41.8 13.4-.2-.3-9.1-7.6-.6-.3-12h5.3l-.6-9.3-5.9.3.3-10.3 10.3-.3.3-10.2z" class="st0" style="fill:url(#l);fill-opacity:1;stroke:green"/><path d="m262.3 18.9-5.9 10.5 8.2-.3-9.7 32.8 5.6 11.1L271 29.1l6.5.6 2-9.9z" class="st0" style="fill:url(#m);fill-opacity:1;stroke:green"/><path d="m322.5 28.5-11.7 7.3 6.1 1.5-38.6 43.3 8.8.9 8.5-10.8 7.3 1.2-6.4 13.7 5.8 7 33-61.1zm-15.8 38.3-5-2.3 11.1-11.7z" class="st0" style="fill:url(#n);fill-opacity:1;stroke:green"/><path d="M374.2 54.6c-2.9-12.3-17.5-16.7-17.5-16.7l-13.7 7 6.1 1.2-43.9 46.2s6.1 12 17.2 13.7c11.1 1.8 28.4-4.7 38-14.3s16.7-24.9 13.8-37.1zM362.8 63c-.6 9.9-16.7 26.6-27.2 28.9s-14-2.6-14-2.6l37.7-34.2c4.4 2.7 3.5 7.9 3.5 7.9z" class="st0" style="fill:url(#o);fill-opacity:1;stroke:green"/><path d="M356.4 107.2s-12.9 1.5-17.8 3.5c0 0-5 22.8 6.1 35.1s23.7 15.2 34.8 12.9 25.4-17.5 20.2-40.6c-5.3-23.1-3.2-32.2 9.6-33.9 12.9-1.8 22.5 11.1 24.3 19s.9 14-8.8 17.5l3.5 12.9s21.6-.3 22.8-22.5S431.7 71.2 417 68c-14.6-3.2-40.2 1.9-38.4 24.1s11 41.9-9.9 44.4c-19 2.3-12.3-29.3-12.3-29.3z" class="st0" style="fill:url(#p);fill-opacity:1;stroke:green"/><path d="M295 22.6s-12.3-2.6-22.9 21c-10.6 23.5-1 29.3.2 30 1.2.6 11.2 2.2 22.3-18s5.1-32.6.4-33zm-2.9 17.5c-3.3 6.6-8.6 7.5-10.2 6.6s-4.7-4.4-.4-12c4.9-8.6 9.8-6.4 9.8-6.4 1.9 1.1 4.1 5.2.8 11.8z" class="st0" style="fill:url(#q);fill-opacity:1;stroke:green"/><path d="m410.3 24.4-1 1.3 1.7.6-3.3 5.1 2 .9 3.1-5 2.1.8 1-1.7z" class="st0" style="fill-opacity:1;fill:url(#r);stroke:green;stroke-width:.5;stroke-miterlimit:4;stroke-dasharray:none"/><path d="m416.7 27.1-4.3 6.5 2.1.9 2.6-4.3-.4 3.7 1.1.4 2.9-1.7-2.6 4 2.2.8 4.4-7.1-2.3-1.3-3.1 1.9.1-2.8z" class="st0" style="fill-opacity:1;fill:url(#s);stroke:green;stroke-width:.5;stroke-miterlimit:4;stroke-dasharray:none"/></g></svg>