<?xml version="1.0" encoding="utf-8"?>
<!-- Generator: Adobe Illustrator 18.0.0, SVG Export Plug-In . SVG Version: 6.00 Build 0)  -->
<!DOCTYPE svg PUBLIC "-//W3C//DTD SVG 1.1//EN" "http://www.w3.org/Graphics/SVG/1.1/DTD/svg11.dtd">
<svg version="1.1" id="Layer_1" xmlns="http://www.w3.org/2000/svg" xmlns:xlink="http://www.w3.org/1999/xlink" x="0px" y="0px"
	 width="308.4px" height="214.3px" viewBox="0 0 308.4 214.3" enable-background="new 0 0 308.4 214.3" xml:space="preserve">
<g>
	
		<linearGradient id="SVGID_1_" gradientUnits="userSpaceOnUse" x1="478.4882" y1="-109.0198" x2="478.4882" y2="338.1187" gradientTransform="matrix(0.4793 0 0 -0.4793 -75.1229 162.0603)">
		<stop  offset="0" style="stop-color:#2E3183"/>
		<stop  offset="0.2473" style="stop-color:#2C337B"/>
		<stop  offset="0.5465" style="stop-color:#202455"/>
		<stop  offset="0.7212" style="stop-color:#0B173B"/>
		<stop  offset="0.8988" style="stop-color:#0E1621"/>
	</linearGradient>
	<polygon fill="url(#SVGID_1_)" points="0,0 0,119.9 94.3,119.9 94.3,214.3 214.1,214.3 214.1,119.9 308.4,119.9 308.4,0 	"/>
	
		<linearGradient id="SVGID_2_" gradientUnits="userSpaceOnUse" x1="156.7345" y1="114.5494" x2="800.2419" y2="114.5494" gradientTransform="matrix(0.4793 0 0 -0.4793 -75.1229 162.0603)">
		<stop  offset="5.000000e-002" style="stop-color:#5E80C0"/>
		<stop  offset="0.3308" style="stop-color:#3F62AD"/>
		<stop  offset="0.5043" style="stop-color:#254998"/>
		<stop  offset="0.6727" style="stop-color:#253570"/>
		<stop  offset="0.8737" style="stop-color:#17214A"/>
		<stop  offset="1" style="stop-color:#0B1630"/>
	</linearGradient>
	<path fill="url(#SVGID_2_)" d="M294.8,13.7v92.6h-80.7h-13.7v13.7v80.8H108v-80.8v-13.7H94.3H13.7V13.7H294.8 M308.4,0H0v119.9
		h94.3v94.4h119.7v-94.4h94.3V0L308.4,0z"/>
	<path fill="#224081" d="M296,12.4v95.1h-81.9h-12.4v12.4v82h-94.9v-82v-12.4H94.3H12.4V12.4H296 M308.4,0H0v119.9h94.3v94.4h119.7
		v-94.4h94.3V0L308.4,0z"/>
	
		<linearGradient id="SVGID_3_" gradientUnits="userSpaceOnUse" x1="478.4882" y1="-109.0198" x2="478.4882" y2="338.1187" gradientTransform="matrix(0.4793 0 0 -0.4793 -75.1229 162.0603)">
		<stop  offset="0" style="stop-color:#557CBE"/>
		<stop  offset="0.4504" style="stop-color:#3B64AE"/>
		<stop  offset="0.7413" style="stop-color:#1F4487"/>
		<stop  offset="1" style="stop-color:#1C2754"/>
	</linearGradient>
	<path fill="url(#SVGID_3_)" d="M297.3,11.2v97.5h-83.2h-11.2v11.2v83.2h-97.4v-83.2v-11.2H94.3H11.2V11.2H297.3 M308.4,0H0v119.9
		h94.3v94.4h119.7v-94.4h94.3V0L308.4,0z"/>
	<path fill="#224081" d="M306,2.5v114.9h-91.9h-2.5v2.5v91.9H96.8v-91.9v-2.5h-2.5H2.5V2.5H306 M308.4,0H0v119.9h94.3v94.4h119.7
		v-94.4h94.3V0L308.4,0z"/>
	
		<linearGradient id="SVGID_4_" gradientUnits="userSpaceOnUse" x1="156.7345" y1="114.5494" x2="800.2419" y2="114.5494" gradientTransform="matrix(0.4793 0 0 -0.4793 -75.1229 162.0603)">
		<stop  offset="5.000000e-002" style="stop-color:#5E80C0"/>
		<stop  offset="0.3308" style="stop-color:#3F62AD"/>
		<stop  offset="0.5043" style="stop-color:#254998"/>
		<stop  offset="0.6727" style="stop-color:#253570"/>
		<stop  offset="0.8737" style="stop-color:#17214A"/>
		<stop  offset="1" style="stop-color:#0B1630"/>
	</linearGradient>
	<path fill="url(#SVGID_4_)" d="M307.2,1.2v117.4h-93.1h-1.2v1.2v93.2H95.6v-93.2v-1.2h-1.2H1.2V1.2H307.2 M308.4,0H0v119.9h94.3
		v94.4h119.7v-94.4h94.3V0L308.4,0z"/>
</g>
<g>
	<g>
		
			<linearGradient id="SVGID_5_" gradientUnits="userSpaceOnUse" x1="251.4735" y1="283.0315" x2="251.4735" y2="184.2304" gradientTransform="matrix(0.4793 0 0 -0.4793 -75.1229 162.0603)">
			<stop  offset="9.011760e-002" style="stop-color:#EE3247"/>
			<stop  offset="0.5125" style="stop-color:#EF4B67"/>
		</linearGradient>
		<polygon fill="url(#SVGID_5_)" points="37.5,95.4 37.5,40.9 24.6,40.9 24.6,25 66.3,25 66.3,40.9 53.3,40.9 53.3,95.4 		"/>
		
			<linearGradient id="SVGID_6_" gradientUnits="userSpaceOnUse" x1="204.8668" y1="212.5515" x2="298.0794" y2="212.5515" gradientTransform="matrix(0.4793 0 0 -0.4793 -75.1229 162.0603)">
			<stop  offset="0" style="stop-color:#EF4C6B"/>
			<stop  offset="0.5915" style="stop-color:#EE2E3E"/>
			<stop  offset="1" style="stop-color:#E62227"/>
		</linearGradient>
		<path fill="url(#SVGID_6_)" d="M64.8,26.5v12.9h-13v54.5H39V39.4h-13V26.5H64.8 M67.7,23.5h-3H26.1h-3v3v12.9v3h3h10v51.6v3h3
			h12.7h3v-3V42.3h10h3v-3V26.5V23.5L67.7,23.5z"/>
		<path fill="#EE2439" d="M64.8,26.5v12.9h-13v54.5H39V39.4h-13V26.5H64.8 M66.3,25h-1.5H26.1h-1.5v1.5v12.9v1.5h1.5h11.5v53v1.5H39
			h12.7h1.5v-1.5v-53h11.5h1.5v-1.5V26.5V25L66.3,25z"/>
		<path fill="#ED2227" d="M51.8,69.8c-4.3,1.1-8.5,2.4-12.7,3.6v20.5h12.7V69.8z"/>
	</g>
	<g>
		
			<linearGradient id="SVGID_7_" gradientUnits="userSpaceOnUse" x1="363.1024" y1="139.0563" x2="363.1024" y2="285.995" gradientTransform="matrix(0.4793 0 0 -0.4793 -75.1229 162.0603)">
			<stop  offset="0.4575" style="stop-color:#FDD726"/>
			<stop  offset="0.6983" style="stop-color:#FDC11E"/>
			<stop  offset="0.9772" style="stop-color:#F58423"/>
		</linearGradient>
		<path fill="url(#SVGID_7_)" d="M86.5,95.4c-7.8,0-14.2-6.4-14.2-14.2V25H114v15.9H88v9.2h20.4l-9,15.9H88v9.8
			c0,2.1,1.7,3.8,3.8,3.8h24.7l9,15.9L86.5,95.4L86.5,95.4z"/>
		
			<linearGradient id="SVGID_8_" gradientUnits="userSpaceOnUse" x1="304.4495" y1="212.5266" x2="423.8762" y2="212.5266" gradientTransform="matrix(0.4793 0 0 -0.4793 -75.1229 162.0603)">
			<stop  offset="0" style="stop-color:#FDD726"/>
			<stop  offset="0.4741" style="stop-color:#F47F20"/>
			<stop  offset="0.9814" style="stop-color:#ED2A26"/>
		</linearGradient>
		<path fill="url(#SVGID_8_)" d="M112.5,26.5v12.9h-26v12.2h19.3l-7.3,12.9h-12v11.3c0,2.9,2.3,5.2,5.2,5.2h23.8l7.3,12.9H86.5
			c-7.1,0-12.7-5.7-12.7-12.7V26.5H112.5 M115.5,23.5h-3H73.8h-3v3v54.7c0,8.7,7.1,15.7,15.7,15.7h36.4h5.1l-2.5-4.4l-7.3-12.9
			l-0.9-1.5h-1.7H91.8c-1.2,0-2.3-1-2.3-2.3v-8.3h9h1.7l0.9-1.5l7.3-12.9l2.5-4.4h-5.1H89.5v-6.3h23h3v-3V26.5V23.5L115.5,23.5z"/>
		<path fill="#F26D24" d="M112.5,26.5v12.9h-26v12.2h19.3l-7.3,12.9h-12v11.3c0,2.9,2.3,5.2,5.2,5.2h23.8l7.3,12.9H86.5
			c-7.1,0-12.7-5.7-12.7-12.7V26.5H112.5 M114,25h-1.5H73.8h-1.5v1.5v54.7c0,7.8,6.4,14.2,14.2,14.2h36.4h2.6l-1.3-2.2l-7.3-12.9
			l-0.4-0.7h-0.9H91.8c-2.1,0-3.8-1.7-3.8-3.8v-9.8h10.5h0.9l0.4-0.7l7.3-12.9l1.3-2.2h-2.6H88v-9.2h24.5h1.5v-1.5V26.5V25L114,25z"
			/>
		
			<linearGradient id="SVGID_9_" gradientUnits="userSpaceOnUse" x1="361.9113" y1="142.2164" x2="361.9113" y2="212.7734" gradientTransform="matrix(0.4793 0 0 -0.4793 -75.1229 162.0603)">
			<stop  offset="0" style="stop-color:#EF4E23"/>
			<stop  offset="1" style="stop-color:#ED2726"/>
		</linearGradient>
		<path fill="url(#SVGID_9_)" d="M73.8,81.2c0,7,5.7,12.7,12.7,12.7h36.4L115.6,81H91.8c-2.9,0-5.2-2.4-5.2-5.2V64.4h12l2.6-4.6
			c-9.2,1.2-18.4,2.8-27.4,4.7L73.8,81.2L73.8,81.2z"/>
	</g>
	<g>
		
			<linearGradient id="SVGID_10_" gradientUnits="userSpaceOnUse" x1="450.6649" y1="139.1072" x2="450.6649" y2="285.995" gradientTransform="matrix(0.4793 0 0 -0.4793 -75.1229 162.0603)">
			<stop  offset="0.8071" style="stop-color:#FBE021"/>
			<stop  offset="0.8956" style="stop-color:#FDD625"/>
			<stop  offset="0.975" style="stop-color:#FFC824"/>
		</linearGradient>
		<polygon fill="url(#SVGID_10_)" points="133,95.4 133,40.9 120,40.9 120,25 161.7,25 161.7,40.9 148.8,40.9 148.8,95.4 		"/>
		
			<linearGradient id="SVGID_11_" gradientUnits="userSpaceOnUse" x1="404.0852" y1="212.5515" x2="497.2956" y2="212.5515" gradientTransform="matrix(0.4793 0 0 -0.4793 -75.1229 162.0603)">
			<stop  offset="0" style="stop-color:#EFE939"/>
			<stop  offset="1" style="stop-color:#F48721"/>
		</linearGradient>
		<path fill="url(#SVGID_11_)" d="M160.2,26.5v12.9h-13v54.5h-12.7V39.4h-13V26.5H160.2 M163.2,23.5h-3h-38.7h-3v3v12.9v3h3h10v51.6
			v3h3h12.7h3v-3V42.3h10h3v-3V26.5L163.2,23.5L163.2,23.5z"/>
		<path fill="#F8B718" d="M160.2,26.5v12.9h-13v54.5h-12.7V39.4h-13V26.5H160.2 M161.7,25h-1.5h-38.7H120v1.5v12.9v1.5h1.5H133v53
			v1.5h1.5h12.7h1.5v-1.5v-53h11.5h1.5v-1.5V26.5L161.7,25L161.7,25z"/>
		
			<linearGradient id="SVGID_12_" gradientUnits="userSpaceOnUse" x1="450.6639" y1="142.2164" x2="450.6639" y2="220.4534" gradientTransform="matrix(0.4793 0 0 -0.4793 -75.1229 162.0603)">
			<stop  offset="0" style="stop-color:#F9A41C"/>
			<stop  offset="0.4998" style="stop-color:#F7901F"/>
			<stop  offset="1" style="stop-color:#F58220"/>
		</linearGradient>
		<path fill="url(#SVGID_12_)" d="M134.5,56.8v37.1h12.8V56.4C143,56.5,138.7,56.6,134.5,56.8z"/>
	</g>
	<g>
		
			<linearGradient id="SVGID_13_" gradientUnits="userSpaceOnUse" x1="555.2465" y1="139.1072" x2="555.2465" y2="285.995" gradientTransform="matrix(0.4793 0 0 -0.4793 -75.1229 162.0603)">
			<stop  offset="0.5631" style="stop-color:#93C94E"/>
			<stop  offset="0.767" style="stop-color:#7BC144"/>
			<stop  offset="0.9768" style="stop-color:#56B947"/>
		</linearGradient>
		<path fill="url(#SVGID_13_)" d="M209.5,95.4l-24.1-40l3.5-4.8l2.7-3.8c0.5-0.7,0.7-1.4,0.7-2.3c0-1.9-1.5-3.6-3.5-3.8h0
			c-0.1,0-0.2,0-0.3,0c-0.1,0-0.2,0-0.3,0h-0.1h-4.6v54.5H168V25h30.2h0.1c7.6,0.5,13.6,6.7,14,14.3c0,0.2,0,0.4,0,0.7
			c0,3-0.9,5.9-2.6,8.4l-0.4,0.6l-5,7.1l9.8,16.3v23.1H209.5L209.5,95.4z"/>
		
			<linearGradient id="SVGID_14_" gradientUnits="userSpaceOnUse" x1="504.0316" y1="212.5011" x2="606.3108" y2="212.5011" gradientTransform="matrix(0.4793 0 0 -0.4793 -75.1229 162.0603)">
			<stop  offset="0" style="stop-color:#92C953"/>
			<stop  offset="0.5797" style="stop-color:#37AF4A"/>
			<stop  offset="1" style="stop-color:#1C7C3E"/>
		</linearGradient>
		<path fill="url(#SVGID_14_)" d="M198.1,26.5c6.8,0.5,12.3,6,12.6,12.9c0,0.2,0,0.4,0,0.6c0,2.8-0.9,5.4-2.3,7.6l-0.4,0.5
			c0,0,0,0,0,0l-5.6,7.8l10.1,16.7v21.2h-2.1l-23.2-38.4l2.9-4l2.7-3.8c0.6-0.9,1-2,1-3.1c0-2.8-2.1-5-4.8-5.2c-0.1,0-0.3,0-0.4,0
			c-0.1,0-0.3,0-0.4,0h-6v54.5h-12.7V26.5H198.1 M198.2,23.5L198.2,23.5h-28.8h-3v3v67.4v3h3h12.7h3v-3v-36l22.7,37.5l0.9,1.4h1.7
			h2.1h3v-3V72.7v-0.8l-0.4-0.7L206,56.1l4.4-6.2l0,0l0-0.1l0.3-0.5l0,0l0,0c1.9-2.7,2.8-5.9,2.8-9.3c0-0.2,0-0.5,0-0.8
			C213.3,30.9,206.7,24.1,198.2,23.5L198.2,23.5L198.2,23.5z M185.2,42.3h3.1h0.1l0.1,0c0,0,0,0,0.1,0c0.1,0,0.1,0,0.1,0h0h0
			c1.2,0.1,2.1,1.1,2.1,2.3c0,0.6-0.2,1.1-0.4,1.3l0,0v0l-2.8,3.8l-2.6,3.5L185.2,42.3L185.2,42.3z"/>
		<path fill="#3DB14A" d="M198.1,26.5c6.8,0.5,12.3,6,12.6,12.9c0,0.2,0,0.4,0,0.6c0,2.8-0.9,5.4-2.3,7.6l-0.4,0.5c0,0,0,0,0,0
			l-5.6,7.8l10.1,16.8v21.2h-2.1l-23.2-38.4l2.9-4l2.7-3.8c0.6-0.9,1-2,1-3.2c0-2.8-2.1-5-4.8-5.2c-0.1,0-0.3,0-0.4,0
			c-0.1,0-0.3,0-0.4,0h-6v54.5h-12.7V26.5H198.1 M198.2,25L198.2,25h-28.8h-1.5v1.5v67.4v1.5h1.5h12.7h1.5v-1.5V40.9h4.6h0.1h0.1
			c0.1,0,0.2,0,0.3,0c0.1,0,0.2,0,0.3,0h0h0c1.9,0.1,3.5,1.8,3.5,3.7c0,0.8-0.2,1.6-0.7,2.3l0,0l0,0l-2.7,3.8l-3,4l-0.6,0.8l0.5,0.8
			l23.2,38.4l0.4,0.7h0.8h2.1h1.5v-1.5V72.7v-0.4l-0.2-0.3L204.2,56l5-7.1l0,0l0,0l0.4-0.5v0v0c1.7-2.5,2.6-5.4,2.6-8.4
			c0-0.2,0-0.5,0-0.7C211.9,31.6,205.9,25.5,198.2,25L198.2,25L198.2,25z"/>
		
			<linearGradient id="SVGID_15_" gradientUnits="userSpaceOnUse" x1="555.1937" y1="142.2164" x2="555.1937" y2="219.9879" gradientTransform="matrix(0.4793 0 0 -0.4793 -75.1229 162.0603)">
			<stop  offset="0" style="stop-color:#1A9747"/>
			<stop  offset="0.4998" style="stop-color:#188442"/>
			<stop  offset="1" style="stop-color:#13713B"/>
		</linearGradient>
		<path fill="url(#SVGID_15_)" d="M182.2,93.9h-12.7V56.6c4.3,0.2,8.5,0.4,12.7,0.7V93.9z M210.4,93.9h2.1V72.7l-7.9-13.2
			c-5.3-0.7-10.6-1.2-16-1.7L210.4,93.9z"/>
	</g>
	<g>
		
			<linearGradient id="SVGID_16_" gradientUnits="userSpaceOnUse" x1="632.4465" y1="139.1072" x2="632.4465" y2="285.995" gradientTransform="matrix(0.4793 0 0 -0.4793 -75.1229 162.0603)">
			<stop  offset="0.4626" style="stop-color:#6BCBDA"/>
			<stop  offset="0.5514" style="stop-color:#6FCCDC"/>
			<stop  offset="0.7153" style="stop-color:#5FC9DE"/>
			<stop  offset="0.8759" style="stop-color:#35C4E7"/>
			<stop  offset="0.9788" style="stop-color:#08BAED"/>
		</linearGradient>
		<rect x="220.1" y="25" fill="url(#SVGID_16_)" width="15.7" height="70.4"/>
		
			<linearGradient id="SVGID_17_" gradientUnits="userSpaceOnUse" x1="612.9388" y1="212.5515" x2="651.9544" y2="212.5515" gradientTransform="matrix(0.4793 0 0 -0.4793 -75.1229 162.0603)">
			<stop  offset="0" style="stop-color:#66CADA"/>
			<stop  offset="0.4099" style="stop-color:#05BBEC"/>
			<stop  offset="0.7032" style="stop-color:#2384C5"/>
			<stop  offset="1" style="stop-color:#2D5EAA"/>
		</linearGradient>
		<path fill="url(#SVGID_17_)" d="M234.4,26.5v67.4h-12.7V26.5H234.4 M237.4,23.5h-3h-12.7h-3v3v67.4v3h3h12.7h3v-3V26.5V23.5
			L237.4,23.5z"/>
		<path fill="#05A6E0" d="M234.4,26.5v67.4h-12.7V26.5H234.4 M235.9,25h-1.5h-12.7h-1.5v1.5v67.4v1.5h1.5h12.7h1.5v-1.5V26.5V25
			L235.9,25z"/>
		
			<linearGradient id="SVGID_18_" gradientUnits="userSpaceOnUse" x1="632.4476" y1="142.2164" x2="632.4476" y2="208.6391" gradientTransform="matrix(0.4793 0 0 -0.4793 -75.1229 162.0603)">
			<stop  offset="0" style="stop-color:#1F82C4"/>
			<stop  offset="0.4998" style="stop-color:#2970B8"/>
			<stop  offset="0.9866" style="stop-color:#275CA9"/>
		</linearGradient>
		<path fill="url(#SVGID_18_)" d="M234.4,64.5c-4.2-0.9-8.5-1.7-12.7-2.4v31.8h12.7V64.5z"/>
	</g>
	<g>
		
			<linearGradient id="SVGID_19_" gradientUnits="userSpaceOnUse" x1="704.4398" y1="139.0563" x2="704.4398" y2="286.049" gradientTransform="matrix(0.4793 0 0 -0.4793 -75.1229 162.0603)">
			<stop  offset="0.2546" style="stop-color:#B95AA3"/>
			<stop  offset="0.4099" style="stop-color:#BD5AA2"/>
			<stop  offset="0.5841" style="stop-color:#BC59A2"/>
			<stop  offset="0.9653" style="stop-color:#A73E97"/>
		</linearGradient>
		<path fill="url(#SVGID_19_)" d="M242.4,95.4V79.5h17.7c1.9,0,3.4-1.5,3.4-3.4c0-0.7-0.2-1.3-0.5-1.9l0,0c-0.1-0.1-0.1-0.2-0.2-0.3
			l-0.1-0.1l-18.1-25c-1.9-2.6-2.9-5.6-2.9-8.8c0-8.3,6.7-15,15-15c0.3,0,0.7,0,1,0h25l-9.4,15.9h-7.7h-0.1c-0.1,0-0.2,0-0.3,0
			c-0.1,0-0.2,0-0.3,0h0c-2,0.1-3.5,1.8-3.5,3.8c0,0.8,0.2,1.6,0.7,2.2l18.3,24.5c2,2.6,3,5.7,3,9c0,0.2,0,0.5,0,0.7
			c-0.4,8-7,14.3-15,14.3L242.4,95.4L242.4,95.4z"/>
		
			<linearGradient id="SVGID_20_" gradientUnits="userSpaceOnUse" x1="657.9648" y1="212.5531" x2="751.9731" y2="212.5531" gradientTransform="matrix(0.4793 0 0 -0.4793 -75.1229 162.0603)">
			<stop  offset="1.254010e-002" style="stop-color:#B958A1"/>
			<stop  offset="0.5102" style="stop-color:#982F92"/>
			<stop  offset="0.751" style="stop-color:#782773"/>
			<stop  offset="1" style="stop-color:#5C184F"/>
		</linearGradient>
		<path fill="url(#SVGID_20_)" d="M256.8,26.4c0.3,0,0.6,0,0.9,0H280l-7.7,12.9h-6.8c-0.1,0-0.3,0-0.4,0c-0.2,0-0.3,0-0.4,0
			c-2.7,0.2-4.9,2.5-4.9,5.3c0,1.2,0.4,2.2,1,3.1l0.1,0.1l2.8,3.7l15.4,20.6c1.7,2.3,2.7,5.1,2.7,8.1c0,0.2,0,0.4,0,0.6
			c-0.3,7.2-6.3,12.9-13.5,12.9h-24.4V81h16.2c2.7,0,4.9-2.2,4.9-4.9c0-1-0.3-1.9-0.8-2.7c-0.1-0.1-0.2-0.3-0.3-0.4l0,0l-2.9-4
			l-15.2-21c-1.6-2.2-2.6-5-2.6-8C243.2,32.5,249.3,26.4,256.8,26.4 M256.8,23.5c-9.1,0-16.5,7.4-16.5,16.5c0,3.5,1.1,6.9,3.2,9.7
			l15.2,21l2.9,4l0,0l0,0l0,0l0.1,0l0,0.1c0,0.1,0.1,0.1,0.1,0.1l0,0l0,0c0.2,0.3,0.3,0.7,0.3,1c0,1.1-0.9,1.9-1.9,1.9H244h-3v3
			v12.9v3h3h24.4c8.8,0,16.1-6.9,16.5-15.7c0-0.2,0-0.5,0-0.8c0-3.6-1.1-7.1-3.3-9.9l-15.4-20.6l-2.8-3.7l0,0l0,0l-0.1-0.1
			c-0.2-0.3-0.4-0.7-0.4-1.3c0-1.2,0.9-2.2,2.1-2.3h0h0c0,0,0,0,0.1,0c0.1,0,0.1,0,0.1,0l0.2,0h0.1h6.8h1.7l0.9-1.5l7.7-12.9
			l2.7-4.5h-5.2h-22.3C257.4,23.5,257.1,23.5,256.8,23.5L256.8,23.5z"/>
		<path fill="#9D2A90" d="M256.8,26.4c0.3,0,0.6,0,0.9,0H280l-7.7,12.9h-6.8c-0.1,0-0.3,0-0.4,0c-0.2,0-0.3,0-0.4,0
			c-2.7,0.2-4.9,2.5-4.9,5.3c0,1.2,0.4,2.2,1,3.1l0.1,0.1l2.8,3.7l15.4,20.6c1.7,2.3,2.7,5.1,2.7,8.1c0,0.2,0,0.4,0,0.6
			c-0.3,7.2-6.3,12.9-13.5,12.9h-24.4V81h16.2c2.7,0,4.9-2.2,4.9-4.9c0-1-0.3-1.9-0.8-2.7c-0.1-0.1-0.2-0.3-0.3-0.4l0,0l-2.9-4
			l-15.2-21c-1.6-2.2-2.6-5-2.6-8C243.2,32.5,249.3,26.4,256.8,26.4 M256.8,25c-8.3,0-15,6.7-15,15c0,3.2,1,6.3,2.9,8.9l15.2,21
			l2.9,4l0,0l0,0l0,0l0,0l0,0c0.1,0.1,0.1,0.2,0.2,0.3v0v0c0.4,0.5,0.5,1.2,0.5,1.9c0,1.9-1.5,3.4-3.4,3.4h-16.2h-1.5V81v12.9v1.5
			h1.5h24.4c8,0,14.6-6.3,15-14.3c0-0.2,0-0.5,0-0.7c0-3.3-1-6.4-3-9.1l-15.4-20.6l-2.8-3.7l-0.1-0.1c-0.5-0.6-0.7-1.4-0.7-2.2
			c0-2,1.5-3.6,3.5-3.8h0h0c0.1,0,0.2,0,0.3,0c0.1,0,0.2,0,0.3,0h0.1h0.1h6.8h0.8l0.4-0.7l7.7-12.9l1.3-2.3H280h-22.3
			C257.4,25,257.1,25,256.8,25L256.8,25z"/>
		
			<linearGradient id="SVGID_21_" gradientUnits="userSpaceOnUse" x1="705.1396" y1="142.2164" x2="705.1396" y2="189.0559" gradientTransform="matrix(0.4793 0 0 -0.4793 -75.1229 162.0603)">
			<stop  offset="0" style="stop-color:#7E2776"/>
			<stop  offset="0.5899" style="stop-color:#712367"/>
			<stop  offset="1" style="stop-color:#67205D"/>
		</linearGradient>
		<path fill="url(#SVGID_21_)" d="M263.9,73L263.9,73c0.1,0.1,0.2,0.3,0.3,0.4c0.5,0.8,0.8,1.7,0.8,2.7c0,2.7-2.2,4.9-4.9,4.9h-16.2
			v12.9h24.4c7.3,0,13.2-5.7,13.5-12.9c0-0.2,0-0.4,0-0.6c0-1.1-0.1-2.1-0.3-3.1c-6.1-2.1-12.3-4-18.6-5.8L263.9,73z"/>
	</g>
	<path fill="#A54F9E" d="M288.2,39.1c-0.1-0.4-0.5-0.7-0.5-0.7s0.6-0.2,0.6-0.8c0-1.2-1.1-1.2-1.1-1.2h-1.9v3.7h1v-1.3h0.6
		c0,0,0.3,0.3,0.4,0.5c0.1,0.3,0.2,0.8,0.2,0.8h1C288.4,40.1,288.4,39.5,288.2,39.1z M286.7,38.1h-0.5v-0.9h0.5c0,0,0.5,0,0.5,0.5
		C287.2,38.1,286.7,38.1,286.7,38.1z M286.7,34.5c-2.1,0-3.7,1.7-3.7,3.7c0,2.1,1.7,3.7,3.7,3.7c2.1,0,3.7-1.7,3.7-3.7
		C290.4,36.2,288.8,34.5,286.7,34.5z M286.7,41c-1.5,0-2.8-1.2-2.8-2.8c0-1.5,1.2-2.8,2.8-2.8c1.5,0,2.8,1.2,2.8,2.8
		C289.5,39.8,288.2,41,286.7,41z"/>
</g>
</svg>
